<?xml version="1.0" encoding="UTF-8"?>
<svg xmlns="http://www.w3.org/2000/svg" width="1000.000mm" height="944.602mm" viewBox="0 0 1000.000 944.602">
<metadata>HatchSmith © FIWAtec GmbH</metadata>
<rect x="0" y="0" width="100%" height="100%" fill="white"/>
<g id="05_layer_05" stroke="#C69499" stroke-width="1.000" stroke-linecap="round" stroke-linejoin="round" fill="none">
<path d="M 482.955 119.318 L 484.375 119.318"/>
<path d="M 485.795 119.318 L 487.216 119.318"/>
<path d="M 480.114 123.580 L 481.534 123.580"/>
<path d="M 497.159 123.580 L 498.580 123.580"/>
<path d="M 500.000 123.580 L 501.420 123.580"/>
<path d="M 478.693 127.841 L 480.114 127.841"/>
<path d="M 488.636 127.841 L 491.477 127.841"/>
<path d="M 457.386 132.102 L 458.807 132.102"/>
<path d="M 463.068 132.102 L 464.489 132.102"/>
<path d="M 502.841 136.364 L 504.261 136.364"/>
<path d="M 424.716 153.409 L 427.557 153.409"/>
<path d="M 494.318 153.409 L 498.580 153.409"/>
<path d="M 460.227 157.670 L 461.648 157.670"/>
<path d="M 481.534 157.670 L 482.955 157.670"/>
<path d="M 463.068 161.932 L 464.489 161.932"/>
<path d="M 484.375 161.932 L 490.057 161.932"/>
<path d="M 491.477 161.932 L 494.318 161.932"/>
<path d="M 416.193 166.193 L 419.034 166.193"/>
<path d="M 426.136 166.193 L 427.557 166.193"/>
<path d="M 428.977 166.193 L 444.602 166.193"/>
<path d="M 454.545 166.193 L 455.966 166.193"/>
<path d="M 471.591 166.193 L 473.011 166.193"/>
<path d="M 477.273 166.193 L 491.477 166.193"/>
<path d="M 407.670 170.455 L 413.352 170.455"/>
<path d="M 420.455 170.455 L 421.875 170.455"/>
<path d="M 440.341 170.455 L 441.761 170.455"/>
<path d="M 448.864 170.455 L 451.705 170.455"/>
<path d="M 467.330 170.455 L 468.750 170.455"/>
<path d="M 471.591 170.455 L 475.852 170.455"/>
<path d="M 500.000 170.455 L 508.523 170.455"/>
<path d="M 386.364 174.716 L 389.205 174.716"/>
<path d="M 393.466 174.716 L 396.307 174.716"/>
<path d="M 407.670 174.716 L 409.091 174.716"/>
<path d="M 441.761 174.716 L 443.182 174.716"/>
<path d="M 444.602 174.716 L 447.443 174.716"/>
<path d="M 465.909 174.716 L 467.330 174.716"/>
<path d="M 468.750 174.716 L 470.170 174.716"/>
<path d="M 481.534 174.716 L 482.955 174.716"/>
<path d="M 490.057 174.716 L 498.580 174.716"/>
<path d="M 508.523 174.716 L 522.727 174.716"/>
<path d="M 386.364 178.977 L 392.045 178.977"/>
<path d="M 404.830 178.977 L 406.250 178.977"/>
<path d="M 437.500 178.977 L 438.920 178.977"/>
<path d="M 441.761 178.977 L 446.023 178.977"/>
<path d="M 463.068 178.977 L 464.489 178.977"/>
<path d="M 487.216 178.977 L 494.318 178.977"/>
<path d="M 384.943 183.239 L 386.364 183.239"/>
<path d="M 387.784 183.239 L 393.466 183.239"/>
<path d="M 400.568 183.239 L 403.409 183.239"/>
<path d="M 431.818 183.239 L 433.239 183.239"/>
<path d="M 436.080 183.239 L 440.341 183.239"/>
<path d="M 453.125 183.239 L 454.545 183.239"/>
<path d="M 460.227 183.239 L 461.648 183.239"/>
<path d="M 485.795 183.239 L 488.636 183.239"/>
<path d="M 490.057 183.239 L 494.318 183.239"/>
<path d="M 501.420 183.239 L 507.102 183.239"/>
<path d="M 423.295 187.500 L 430.398 187.500"/>
<path d="M 431.818 187.500 L 438.920 187.500"/>
<path d="M 441.761 187.500 L 443.182 187.500"/>
<path d="M 446.023 187.500 L 447.443 187.500"/>
<path d="M 474.432 187.500 L 475.852 187.500"/>
<path d="M 482.955 187.500 L 485.795 187.500"/>
<path d="M 420.455 191.761 L 423.295 191.761"/>
<path d="M 426.136 191.761 L 434.659 191.761"/>
<path d="M 441.761 191.761 L 443.182 191.761"/>
<path d="M 446.023 191.761 L 447.443 191.761"/>
<path d="M 426.136 196.023 L 428.977 196.023"/>
<path d="M 440.341 196.023 L 441.761 196.023"/>
<path d="M 443.182 196.023 L 444.602 196.023"/>
<path d="M 457.386 196.023 L 458.807 196.023"/>
<path d="M 468.750 196.023 L 471.591 196.023"/>
<path d="M 473.011 196.023 L 474.432 196.023"/>
<path d="M 525.568 196.023 L 529.830 196.023"/>
<path d="M 417.614 200.284 L 420.455 200.284"/>
<path d="M 457.386 200.284 L 458.807 200.284"/>
<path d="M 414.773 204.545 L 420.455 204.545"/>
<path d="M 424.716 204.545 L 426.136 204.545"/>
<path d="M 438.920 204.545 L 440.341 204.545"/>
<path d="M 454.545 204.545 L 455.966 204.545"/>
<path d="M 409.091 208.807 L 410.511 208.807"/>
<path d="M 413.352 208.807 L 414.773 208.807"/>
<path d="M 416.193 208.807 L 417.614 208.807"/>
<path d="M 421.875 208.807 L 423.295 208.807"/>
<path d="M 436.080 208.807 L 437.500 208.807"/>
<path d="M 451.705 208.807 L 453.125 208.807"/>
<path d="M 495.739 208.807 L 497.159 208.807"/>
<path d="M 502.841 208.807 L 504.261 208.807"/>
<path d="M 661.932 208.807 L 663.352 208.807"/>
<path d="M 414.773 213.068 L 420.455 213.068"/>
<path d="M 434.659 213.068 L 436.080 213.068"/>
<path d="M 437.500 213.068 L 438.920 213.068"/>
<path d="M 444.602 213.068 L 446.023 213.068"/>
<path d="M 448.864 213.068 L 450.284 213.068"/>
<path d="M 514.205 213.068 L 519.886 213.068"/>
<path d="M 397.727 217.330 L 399.148 217.330"/>
<path d="M 401.989 217.330 L 406.250 217.330"/>
<path d="M 460.227 217.330 L 461.648 217.330"/>
<path d="M 394.886 221.591 L 396.307 221.591"/>
<path d="M 399.148 221.591 L 401.989 221.591"/>
<path d="M 407.670 221.591 L 419.034 221.591"/>
<path d="M 424.716 221.591 L 426.136 221.591"/>
<path d="M 430.398 221.591 L 431.818 221.591"/>
<path d="M 436.080 221.591 L 437.500 221.591"/>
<path d="M 458.807 221.591 L 463.068 221.591"/>
<path d="M 491.477 221.591 L 492.898 221.591"/>
<path d="M 393.466 225.852 L 394.886 225.852"/>
<path d="M 396.307 225.852 L 399.148 225.852"/>
<path d="M 414.773 225.852 L 419.034 225.852"/>
<path d="M 423.295 225.852 L 424.716 225.852"/>
<path d="M 428.977 225.852 L 430.398 225.852"/>
<path d="M 463.068 225.852 L 464.489 225.852"/>
<path d="M 514.205 225.852 L 518.466 225.852"/>
<path d="M 396.307 230.114 L 397.727 230.114"/>
<path d="M 420.455 230.114 L 421.875 230.114"/>
<path d="M 423.295 230.114 L 424.716 230.114"/>
<path d="M 514.205 230.114 L 515.625 230.114"/>
<path d="M 390.625 234.375 L 392.045 234.375"/>
<path d="M 393.466 234.375 L 396.307 234.375"/>
<path d="M 416.193 234.375 L 421.875 234.375"/>
<path d="M 485.795 234.375 L 487.216 234.375"/>
<path d="M 507.102 234.375 L 509.943 234.375"/>
<path d="M 370.739 238.636 L 382.102 238.636"/>
<path d="M 393.466 238.636 L 396.307 238.636"/>
<path d="M 416.193 238.636 L 417.614 238.636"/>
<path d="M 419.034 238.636 L 420.455 238.636"/>
<path d="M 431.818 238.636 L 433.239 238.636"/>
<path d="M 481.534 238.636 L 482.955 238.636"/>
<path d="M 487.216 238.636 L 488.636 238.636"/>
<path d="M 498.580 238.636 L 500.000 238.636"/>
<path d="M 508.523 238.636 L 509.943 238.636"/>
<path d="M 366.477 242.898 L 367.898 242.898"/>
<path d="M 376.420 242.898 L 390.625 242.898"/>
<path d="M 393.466 242.898 L 394.886 242.898"/>
<path d="M 406.250 242.898 L 407.670 242.898"/>
<path d="M 411.932 242.898 L 413.352 242.898"/>
<path d="M 414.773 242.898 L 417.614 242.898"/>
<path d="M 478.693 242.898 L 480.114 242.898"/>
<path d="M 484.375 242.898 L 487.216 242.898"/>
<path d="M 488.636 242.898 L 490.057 242.898"/>
<path d="M 370.739 247.159 L 390.625 247.159"/>
<path d="M 401.989 247.159 L 409.091 247.159"/>
<path d="M 414.773 247.159 L 416.193 247.159"/>
<path d="M 454.545 247.159 L 464.489 247.159"/>
<path d="M 478.693 247.159 L 480.114 247.159"/>
<path d="M 482.955 247.159 L 484.375 247.159"/>
<path d="M 512.784 247.159 L 515.625 247.159"/>
<path d="M 525.568 247.159 L 526.989 247.159"/>
<path d="M 355.114 251.420 L 356.534 251.420"/>
<path d="M 363.636 251.420 L 365.057 251.420"/>
<path d="M 367.898 251.420 L 386.364 251.420"/>
<path d="M 400.568 251.420 L 404.830 251.420"/>
<path d="M 413.352 251.420 L 416.193 251.420"/>
<path d="M 423.295 251.420 L 424.716 251.420"/>
<path d="M 448.864 251.420 L 461.648 251.420"/>
<path d="M 366.477 255.682 L 373.580 255.682"/>
<path d="M 375.000 255.682 L 383.523 255.682"/>
<path d="M 399.148 255.682 L 401.989 255.682"/>
<path d="M 414.773 255.682 L 416.193 255.682"/>
<path d="M 446.023 255.682 L 453.125 255.682"/>
<path d="M 480.114 255.682 L 481.534 255.682"/>
<path d="M 484.375 255.682 L 485.795 255.682"/>
<path d="M 488.636 255.682 L 490.057 255.682"/>
<path d="M 508.523 255.682 L 512.784 255.682"/>
<path d="M 376.420 259.943 L 383.523 259.943"/>
<path d="M 390.625 259.943 L 392.045 259.943"/>
<path d="M 394.886 259.943 L 399.148 259.943"/>
<path d="M 404.830 259.943 L 406.250 259.943"/>
<path d="M 416.193 259.943 L 417.614 259.943"/>
<path d="M 440.341 259.943 L 446.023 259.943"/>
<path d="M 477.273 259.943 L 478.693 259.943"/>
<path d="M 482.955 259.943 L 485.795 259.943"/>
<path d="M 497.159 259.943 L 500.000 259.943"/>
<path d="M 522.727 259.943 L 524.148 259.943"/>
<path d="M 664.773 259.943 L 666.193 259.943"/>
<path d="M 690.341 259.943 L 696.023 259.943"/>
<path d="M 359.375 264.205 L 360.795 264.205"/>
<path d="M 366.477 264.205 L 367.898 264.205"/>
<path d="M 377.841 264.205 L 379.261 264.205"/>
<path d="M 384.943 264.205 L 387.784 264.205"/>
<path d="M 392.045 264.205 L 400.568 264.205"/>
<path d="M 416.193 264.205 L 417.614 264.205"/>
<path d="M 474.432 264.205 L 475.852 264.205"/>
<path d="M 478.693 264.205 L 480.114 264.205"/>
<path d="M 488.636 264.205 L 497.159 264.205"/>
<path d="M 500.000 264.205 L 502.841 264.205"/>
<path d="M 529.830 264.205 L 531.250 264.205"/>
<path d="M 686.080 264.205 L 701.705 264.205"/>
<path d="M 355.114 268.466 L 356.534 268.466"/>
<path d="M 357.955 268.466 L 362.216 268.466"/>
<path d="M 376.420 268.466 L 379.261 268.466"/>
<path d="M 382.102 268.466 L 390.625 268.466"/>
<path d="M 394.886 268.466 L 399.148 268.466"/>
<path d="M 484.375 268.466 L 487.216 268.466"/>
<path d="M 490.057 268.466 L 494.318 268.466"/>
<path d="M 497.159 268.466 L 498.580 268.466"/>
<path d="M 502.841 268.466 L 507.102 268.466"/>
<path d="M 659.091 268.466 L 660.511 268.466"/>
<path d="M 676.136 268.466 L 703.125 268.466"/>
<path d="M 352.273 272.727 L 353.693 272.727"/>
<path d="M 355.114 272.727 L 359.375 272.727"/>
<path d="M 373.580 272.727 L 376.420 272.727"/>
<path d="M 380.682 272.727 L 383.523 272.727"/>
<path d="M 392.045 272.727 L 396.307 272.727"/>
<path d="M 406.250 272.727 L 407.670 272.727"/>
<path d="M 436.080 272.727 L 437.500 272.727"/>
<path d="M 480.114 272.727 L 485.795 272.727"/>
<path d="M 487.216 272.727 L 492.898 272.727"/>
<path d="M 498.580 272.727 L 505.682 272.727"/>
<path d="M 681.818 272.727 L 693.182 272.727"/>
<path d="M 696.023 272.727 L 705.966 272.727"/>
<path d="M 353.693 276.989 L 355.114 276.989"/>
<path d="M 372.159 276.989 L 375.000 276.989"/>
<path d="M 377.841 276.989 L 380.682 276.989"/>
<path d="M 396.307 276.989 L 397.727 276.989"/>
<path d="M 409.091 276.989 L 410.511 276.989"/>
<path d="M 416.193 276.989 L 417.614 276.989"/>
<path d="M 433.239 276.989 L 436.080 276.989"/>
<path d="M 446.023 276.989 L 447.443 276.989"/>
<path d="M 478.693 276.989 L 484.375 276.989"/>
<path d="M 488.636 276.989 L 491.477 276.989"/>
<path d="M 495.739 276.989 L 501.420 276.989"/>
<path d="M 511.364 276.989 L 514.205 276.989"/>
<path d="M 518.466 276.989 L 522.727 276.989"/>
<path d="M 667.614 276.989 L 705.966 276.989"/>
<path d="M 350.852 281.250 L 355.114 281.250"/>
<path d="M 370.739 281.250 L 373.580 281.250"/>
<path d="M 376.420 281.250 L 379.261 281.250"/>
<path d="M 383.523 281.250 L 384.943 281.250"/>
<path d="M 406.250 281.250 L 407.670 281.250"/>
<path d="M 428.977 281.250 L 430.398 281.250"/>
<path d="M 431.818 281.250 L 434.659 281.250"/>
<path d="M 478.693 281.250 L 480.114 281.250"/>
<path d="M 490.057 281.250 L 491.477 281.250"/>
<path d="M 494.318 281.250 L 498.580 281.250"/>
<path d="M 514.205 281.250 L 517.045 281.250"/>
<path d="M 669.034 281.250 L 700.284 281.250"/>
<path d="M 701.705 281.250 L 708.807 281.250"/>
<path d="M 745.739 281.250 L 747.159 281.250"/>
<path d="M 350.852 285.511 L 352.273 285.511"/>
<path d="M 353.693 285.511 L 370.739 285.511"/>
<path d="M 375.000 285.511 L 377.841 285.511"/>
<path d="M 386.364 285.511 L 389.205 285.511"/>
<path d="M 404.830 285.511 L 406.250 285.511"/>
<path d="M 423.295 285.511 L 427.557 285.511"/>
<path d="M 428.977 285.511 L 431.818 285.511"/>
<path d="M 436.080 285.511 L 437.500 285.511"/>
<path d="M 440.341 285.511 L 441.761 285.511"/>
<path d="M 474.432 285.511 L 477.273 285.511"/>
<path d="M 482.955 285.511 L 484.375 285.511"/>
<path d="M 490.057 285.511 L 492.898 285.511"/>
<path d="M 501.420 285.511 L 502.841 285.511"/>
<path d="M 514.205 285.511 L 517.045 285.511"/>
<path d="M 627.841 285.511 L 629.261 285.511"/>
<path d="M 663.352 285.511 L 680.398 285.511"/>
<path d="M 705.966 285.511 L 708.807 285.511"/>
<path d="M 710.227 285.511 L 711.648 285.511"/>
<path d="M 353.693 289.773 L 359.375 289.773"/>
<path d="M 375.000 289.773 L 376.420 289.773"/>
<path d="M 386.364 289.773 L 387.784 289.773"/>
<path d="M 393.466 289.773 L 394.886 289.773"/>
<path d="M 409.091 289.773 L 410.511 289.773"/>
<path d="M 420.455 289.773 L 421.875 289.773"/>
<path d="M 426.136 289.773 L 428.977 289.773"/>
<path d="M 475.852 289.773 L 477.273 289.773"/>
<path d="M 482.955 289.773 L 485.795 289.773"/>
<path d="M 490.057 289.773 L 491.477 289.773"/>
<path d="M 495.739 289.773 L 497.159 289.773"/>
<path d="M 500.000 289.773 L 504.261 289.773"/>
<path d="M 514.205 289.773 L 517.045 289.773"/>
<path d="M 619.318 289.773 L 620.739 289.773"/>
<path d="M 656.250 289.773 L 676.136 289.773"/>
<path d="M 711.648 289.773 L 713.068 289.773"/>
<path d="M 352.273 294.034 L 355.114 294.034"/>
<path d="M 376.420 294.034 L 377.841 294.034"/>
<path d="M 411.932 294.034 L 414.773 294.034"/>
<path d="M 500.000 294.034 L 505.682 294.034"/>
<path d="M 512.784 294.034 L 515.625 294.034"/>
<path d="M 653.409 294.034 L 674.716 294.034"/>
<path d="M 353.693 298.295 L 355.114 298.295"/>
<path d="M 376.420 298.295 L 377.841 298.295"/>
<path d="M 393.466 298.295 L 394.886 298.295"/>
<path d="M 417.614 298.295 L 419.034 298.295"/>
<path d="M 441.761 298.295 L 444.602 298.295"/>
<path d="M 471.591 298.295 L 473.011 298.295"/>
<path d="M 487.216 298.295 L 491.477 298.295"/>
<path d="M 512.784 298.295 L 515.625 298.295"/>
<path d="M 598.011 298.295 L 599.432 298.295"/>
<path d="M 625.000 298.295 L 629.261 298.295"/>
<path d="M 644.886 298.295 L 647.727 298.295"/>
<path d="M 649.148 298.295 L 650.568 298.295"/>
<path d="M 653.409 298.295 L 676.136 298.295"/>
<path d="M 714.489 298.295 L 715.909 298.295"/>
<path d="M 355.114 302.557 L 356.534 302.557"/>
<path d="M 376.420 302.557 L 377.841 302.557"/>
<path d="M 390.625 302.557 L 392.045 302.557"/>
<path d="M 437.500 302.557 L 440.341 302.557"/>
<path d="M 465.909 302.557 L 467.330 302.557"/>
<path d="M 625.000 302.557 L 630.682 302.557"/>
<path d="M 642.045 302.557 L 673.295 302.557"/>
<path d="M 379.261 306.818 L 380.682 306.818"/>
<path d="M 384.943 306.818 L 386.364 306.818"/>
<path d="M 437.500 306.818 L 440.341 306.818"/>
<path d="M 473.011 306.818 L 475.852 306.818"/>
<path d="M 477.273 306.818 L 478.693 306.818"/>
<path d="M 481.534 306.818 L 485.795 306.818"/>
<path d="M 515.625 306.818 L 519.886 306.818"/>
<path d="M 620.739 306.818 L 671.875 306.818"/>
<path d="M 379.261 311.080 L 382.102 311.080"/>
<path d="M 384.943 311.080 L 386.364 311.080"/>
<path d="M 414.773 311.080 L 421.875 311.080"/>
<path d="M 457.386 311.080 L 458.807 311.080"/>
<path d="M 515.625 311.080 L 517.045 311.080"/>
<path d="M 518.466 311.080 L 521.307 311.080"/>
<path d="M 616.477 311.080 L 637.784 311.080"/>
<path d="M 646.307 311.080 L 669.034 311.080"/>
<path d="M 372.159 315.341 L 373.580 315.341"/>
<path d="M 375.000 315.341 L 376.420 315.341"/>
<path d="M 377.841 315.341 L 379.261 315.341"/>
<path d="M 382.102 315.341 L 384.943 315.341"/>
<path d="M 417.614 315.341 L 419.034 315.341"/>
<path d="M 470.170 315.341 L 473.011 315.341"/>
<path d="M 616.477 315.341 L 629.261 315.341"/>
<path d="M 647.727 315.341 L 667.614 315.341"/>
<path d="M 343.750 319.602 L 346.591 319.602"/>
<path d="M 372.159 319.602 L 377.841 319.602"/>
<path d="M 383.523 319.602 L 384.943 319.602"/>
<path d="M 448.864 319.602 L 451.705 319.602"/>
<path d="M 464.489 319.602 L 468.750 319.602"/>
<path d="M 475.852 319.602 L 478.693 319.602"/>
<path d="M 497.159 319.602 L 498.580 319.602"/>
<path d="M 501.420 319.602 L 502.841 319.602"/>
<path d="M 616.477 319.602 L 620.739 319.602"/>
<path d="M 650.568 319.602 L 664.773 319.602"/>
<path d="M 774.148 319.602 L 775.568 319.602"/>
<path d="M 370.739 323.864 L 373.580 323.864"/>
<path d="M 431.818 323.864 L 433.239 323.864"/>
<path d="M 446.023 323.864 L 447.443 323.864"/>
<path d="M 613.636 323.864 L 619.318 323.864"/>
<path d="M 653.409 323.864 L 666.193 323.864"/>
<path d="M 772.727 323.864 L 774.148 323.864"/>
<path d="M 367.898 328.125 L 372.159 328.125"/>
<path d="M 376.420 328.125 L 377.841 328.125"/>
<path d="M 416.193 328.125 L 417.614 328.125"/>
<path d="M 419.034 328.125 L 423.295 328.125"/>
<path d="M 431.818 328.125 L 433.239 328.125"/>
<path d="M 444.602 328.125 L 446.023 328.125"/>
<path d="M 465.909 328.125 L 473.011 328.125"/>
<path d="M 609.375 328.125 L 616.477 328.125"/>
<path d="M 646.307 328.125 L 664.773 328.125"/>
<path d="M 366.477 332.386 L 369.318 332.386"/>
<path d="M 373.580 332.386 L 376.420 332.386"/>
<path d="M 416.193 332.386 L 417.614 332.386"/>
<path d="M 420.455 332.386 L 423.295 332.386"/>
<path d="M 464.489 332.386 L 467.330 332.386"/>
<path d="M 470.170 332.386 L 473.011 332.386"/>
<path d="M 605.114 332.386 L 610.795 332.386"/>
<path d="M 644.886 332.386 L 650.568 332.386"/>
<path d="M 657.670 332.386 L 664.773 332.386"/>
<path d="M 767.045 332.386 L 769.886 332.386"/>
<path d="M 365.057 336.648 L 367.898 336.648"/>
<path d="M 414.773 336.648 L 416.193 336.648"/>
<path d="M 419.034 336.648 L 424.716 336.648"/>
<path d="M 444.602 336.648 L 448.864 336.648"/>
<path d="M 454.545 336.648 L 455.966 336.648"/>
<path d="M 464.489 336.648 L 465.909 336.648"/>
<path d="M 470.170 336.648 L 473.011 336.648"/>
<path d="M 603.693 336.648 L 607.955 336.648"/>
<path d="M 637.784 336.648 L 650.568 336.648"/>
<path d="M 656.250 336.648 L 660.511 336.648"/>
<path d="M 363.636 340.909 L 367.898 340.909"/>
<path d="M 416.193 340.909 L 423.295 340.909"/>
<path d="M 433.239 340.909 L 436.080 340.909"/>
<path d="M 437.500 340.909 L 438.920 340.909"/>
<path d="M 451.705 340.909 L 453.125 340.909"/>
<path d="M 464.489 340.909 L 465.909 340.909"/>
<path d="M 470.170 340.909 L 471.591 340.909"/>
<path d="M 482.955 340.909 L 484.375 340.909"/>
<path d="M 605.114 340.909 L 609.375 340.909"/>
<path d="M 640.625 340.909 L 659.091 340.909"/>
<path d="M 762.784 340.909 L 764.205 340.909"/>
<path d="M 366.477 345.170 L 367.898 345.170"/>
<path d="M 409.091 345.170 L 410.511 345.170"/>
<path d="M 413.352 345.170 L 420.455 345.170"/>
<path d="M 428.977 345.170 L 430.398 345.170"/>
<path d="M 436.080 345.170 L 437.500 345.170"/>
<path d="M 451.705 345.170 L 457.386 345.170"/>
<path d="M 463.068 345.170 L 464.489 345.170"/>
<path d="M 468.750 345.170 L 470.170 345.170"/>
<path d="M 474.432 345.170 L 477.273 345.170"/>
<path d="M 583.807 345.170 L 586.648 345.170"/>
<path d="M 590.909 345.170 L 592.330 345.170"/>
<path d="M 595.170 345.170 L 596.591 345.170"/>
<path d="M 609.375 345.170 L 613.636 345.170"/>
<path d="M 643.466 345.170 L 659.091 345.170"/>
<path d="M 761.364 345.170 L 762.784 345.170"/>
<path d="M 366.477 349.432 L 367.898 349.432"/>
<path d="M 369.318 349.432 L 370.739 349.432"/>
<path d="M 410.511 349.432 L 414.773 349.432"/>
<path d="M 416.193 349.432 L 417.614 349.432"/>
<path d="M 426.136 349.432 L 427.557 349.432"/>
<path d="M 431.818 349.432 L 434.659 349.432"/>
<path d="M 451.705 349.432 L 455.966 349.432"/>
<path d="M 473.011 349.432 L 478.693 349.432"/>
<path d="M 580.966 349.432 L 583.807 349.432"/>
<path d="M 613.636 349.432 L 616.477 349.432"/>
<path d="M 640.625 349.432 L 659.091 349.432"/>
<path d="M 758.523 349.432 L 759.943 349.432"/>
<path d="M 370.739 353.693 L 372.159 353.693"/>
<path d="M 403.409 353.693 L 404.830 353.693"/>
<path d="M 407.670 353.693 L 411.932 353.693"/>
<path d="M 414.773 353.693 L 416.193 353.693"/>
<path d="M 423.295 353.693 L 424.716 353.693"/>
<path d="M 428.977 353.693 L 431.818 353.693"/>
<path d="M 451.705 353.693 L 458.807 353.693"/>
<path d="M 463.068 353.693 L 464.489 353.693"/>
<path d="M 470.170 353.693 L 471.591 353.693"/>
<path d="M 474.432 353.693 L 481.534 353.693"/>
<path d="M 571.023 353.693 L 572.443 353.693"/>
<path d="M 582.386 353.693 L 583.807 353.693"/>
<path d="M 589.489 353.693 L 590.909 353.693"/>
<path d="M 622.159 353.693 L 625.000 353.693"/>
<path d="M 671.875 353.693 L 674.716 353.693"/>
<path d="M 758.523 353.693 L 761.364 353.693"/>
<path d="M 336.648 357.955 L 339.489 357.955"/>
<path d="M 367.898 357.955 L 370.739 357.955"/>
<path d="M 372.159 357.955 L 375.000 357.955"/>
<path d="M 406.250 357.955 L 410.511 357.955"/>
<path d="M 411.932 357.955 L 413.352 357.955"/>
<path d="M 421.875 357.955 L 423.295 357.955"/>
<path d="M 426.136 357.955 L 427.557 357.955"/>
<path d="M 443.182 357.955 L 444.602 357.955"/>
<path d="M 451.705 357.955 L 460.227 357.955"/>
<path d="M 470.170 357.955 L 471.591 357.955"/>
<path d="M 474.432 357.955 L 484.375 357.955"/>
<path d="M 586.648 357.955 L 589.489 357.955"/>
<path d="M 629.261 357.955 L 633.523 357.955"/>
<path d="M 757.102 357.955 L 761.364 357.955"/>
<path d="M 764.205 357.955 L 765.625 357.955"/>
<path d="M 369.318 362.216 L 376.420 362.216"/>
<path d="M 404.830 362.216 L 411.932 362.216"/>
<path d="M 420.455 362.216 L 421.875 362.216"/>
<path d="M 424.716 362.216 L 426.136 362.216"/>
<path d="M 463.068 362.216 L 464.489 362.216"/>
<path d="M 471.591 362.216 L 473.011 362.216"/>
<path d="M 475.852 362.216 L 480.114 362.216"/>
<path d="M 634.943 362.216 L 642.045 362.216"/>
<path d="M 759.943 362.216 L 761.364 362.216"/>
<path d="M 370.739 366.477 L 375.000 366.477"/>
<path d="M 404.830 366.477 L 414.773 366.477"/>
<path d="M 423.295 366.477 L 427.557 366.477"/>
<path d="M 430.398 366.477 L 431.818 366.477"/>
<path d="M 473.011 366.477 L 474.432 366.477"/>
<path d="M 640.625 366.477 L 646.307 366.477"/>
<path d="M 758.523 366.477 L 759.943 366.477"/>
<path d="M 316.761 370.739 L 318.182 370.739"/>
<path d="M 319.602 370.739 L 322.443 370.739"/>
<path d="M 363.636 370.739 L 365.057 370.739"/>
<path d="M 372.159 370.739 L 375.000 370.739"/>
<path d="M 406.250 370.739 L 414.773 370.739"/>
<path d="M 423.295 370.739 L 426.136 370.739"/>
<path d="M 473.011 370.739 L 474.432 370.739"/>
<path d="M 477.273 370.739 L 480.114 370.739"/>
<path d="M 647.727 370.739 L 650.568 370.739"/>
<path d="M 241.477 375.000 L 242.898 375.000"/>
<path d="M 276.989 375.000 L 278.409 375.000"/>
<path d="M 420.455 375.000 L 421.875 375.000"/>
<path d="M 423.295 375.000 L 424.716 375.000"/>
<path d="M 473.011 375.000 L 474.432 375.000"/>
<path d="M 477.273 375.000 L 481.534 375.000"/>
<path d="M 559.659 375.000 L 563.920 375.000"/>
<path d="M 650.568 375.000 L 656.250 375.000"/>
<path d="M 659.091 375.000 L 664.773 375.000"/>
<path d="M 669.034 375.000 L 670.455 375.000"/>
<path d="M 237.216 379.261 L 257.102 379.261"/>
<path d="M 275.568 379.261 L 278.409 379.261"/>
<path d="M 313.920 379.261 L 315.341 379.261"/>
<path d="M 373.580 379.261 L 379.261 379.261"/>
<path d="M 420.455 379.261 L 423.295 379.261"/>
<path d="M 424.716 379.261 L 427.557 379.261"/>
<path d="M 467.330 379.261 L 468.750 379.261"/>
<path d="M 471.591 379.261 L 474.432 379.261"/>
<path d="M 558.239 379.261 L 559.659 379.261"/>
<path d="M 656.250 379.261 L 664.773 379.261"/>
<path d="M 110.795 383.523 L 112.216 383.523"/>
<path d="M 116.477 383.523 L 117.898 383.523"/>
<path d="M 255.682 383.523 L 257.102 383.523"/>
<path d="M 298.295 383.523 L 299.716 383.523"/>
<path d="M 367.898 383.523 L 370.739 383.523"/>
<path d="M 377.841 383.523 L 379.261 383.523"/>
<path d="M 420.455 383.523 L 423.295 383.523"/>
<path d="M 426.136 383.523 L 428.977 383.523"/>
<path d="M 473.011 383.523 L 474.432 383.523"/>
<path d="M 552.557 383.523 L 553.977 383.523"/>
<path d="M 555.398 383.523 L 556.818 383.523"/>
<path d="M 660.511 383.523 L 669.034 383.523"/>
<path d="M 117.898 387.784 L 122.159 387.784"/>
<path d="M 230.114 387.784 L 231.534 387.784"/>
<path d="M 255.682 387.784 L 257.102 387.784"/>
<path d="M 265.625 387.784 L 267.045 387.784"/>
<path d="M 303.977 387.784 L 305.398 387.784"/>
<path d="M 311.080 387.784 L 312.500 387.784"/>
<path d="M 315.341 387.784 L 316.761 387.784"/>
<path d="M 367.898 387.784 L 369.318 387.784"/>
<path d="M 376.420 387.784 L 377.841 387.784"/>
<path d="M 423.295 387.784 L 426.136 387.784"/>
<path d="M 428.977 387.784 L 430.398 387.784"/>
<path d="M 474.432 387.784 L 477.273 387.784"/>
<path d="M 664.773 387.784 L 673.295 387.784"/>
<path d="M 676.136 387.784 L 684.659 387.784"/>
<path d="M 231.534 392.045 L 232.955 392.045"/>
<path d="M 303.977 392.045 L 305.398 392.045"/>
<path d="M 315.341 392.045 L 316.761 392.045"/>
<path d="M 373.580 392.045 L 375.000 392.045"/>
<path d="M 426.136 392.045 L 431.818 392.045"/>
<path d="M 437.500 392.045 L 438.920 392.045"/>
<path d="M 474.432 392.045 L 478.693 392.045"/>
<path d="M 555.398 392.045 L 558.239 392.045"/>
<path d="M 670.455 392.045 L 683.239 392.045"/>
<path d="M 687.500 392.045 L 697.443 392.045"/>
<path d="M 42.614 396.307 L 45.455 396.307"/>
<path d="M 49.716 396.307 L 51.136 396.307"/>
<path d="M 171.875 396.307 L 174.716 396.307"/>
<path d="M 230.114 396.307 L 232.955 396.307"/>
<path d="M 244.318 396.307 L 254.261 396.307"/>
<path d="M 258.523 396.307 L 259.943 396.307"/>
<path d="M 316.761 396.307 L 318.182 396.307"/>
<path d="M 366.477 396.307 L 367.898 396.307"/>
<path d="M 372.159 396.307 L 373.580 396.307"/>
<path d="M 428.977 396.307 L 433.239 396.307"/>
<path d="M 463.068 396.307 L 465.909 396.307"/>
<path d="M 467.330 396.307 L 468.750 396.307"/>
<path d="M 474.432 396.307 L 480.114 396.307"/>
<path d="M 673.295 396.307 L 691.761 396.307"/>
<path d="M 44.034 400.568 L 56.818 400.568"/>
<path d="M 171.875 400.568 L 178.977 400.568"/>
<path d="M 244.318 400.568 L 247.159 400.568"/>
<path d="M 250.000 400.568 L 252.841 400.568"/>
<path d="M 323.864 400.568 L 325.284 400.568"/>
<path d="M 357.955 400.568 L 359.375 400.568"/>
<path d="M 372.159 400.568 L 373.580 400.568"/>
<path d="M 399.148 400.568 L 401.989 400.568"/>
<path d="M 430.398 400.568 L 436.080 400.568"/>
<path d="M 461.648 400.568 L 465.909 400.568"/>
<path d="M 474.432 400.568 L 478.693 400.568"/>
<path d="M 680.398 400.568 L 687.500 400.568"/>
<path d="M 46.875 404.830 L 52.557 404.830"/>
<path d="M 61.080 404.830 L 75.284 404.830"/>
<path d="M 132.102 404.830 L 133.523 404.830"/>
<path d="M 134.943 404.830 L 143.466 404.830"/>
<path d="M 178.977 404.830 L 184.659 404.830"/>
<path d="M 224.432 404.830 L 225.852 404.830"/>
<path d="M 232.955 404.830 L 235.795 404.830"/>
<path d="M 262.784 404.830 L 264.205 404.830"/>
<path d="M 268.466 404.830 L 269.886 404.830"/>
<path d="M 322.443 404.830 L 325.284 404.830"/>
<path d="M 367.898 404.830 L 369.318 404.830"/>
<path d="M 373.580 404.830 L 375.000 404.830"/>
<path d="M 397.727 404.830 L 401.989 404.830"/>
<path d="M 419.034 404.830 L 420.455 404.830"/>
<path d="M 426.136 404.830 L 428.977 404.830"/>
<path d="M 430.398 404.830 L 433.239 404.830"/>
<path d="M 436.080 404.830 L 437.500 404.830"/>
<path d="M 460.227 404.830 L 467.330 404.830"/>
<path d="M 471.591 404.830 L 477.273 404.830"/>
<path d="M 727.273 404.830 L 731.534 404.830"/>
<path d="M 68.182 409.091 L 69.602 409.091"/>
<path d="M 76.705 409.091 L 99.432 409.091"/>
<path d="M 140.625 409.091 L 143.466 409.091"/>
<path d="M 315.341 409.091 L 316.761 409.091"/>
<path d="M 319.602 409.091 L 322.443 409.091"/>
<path d="M 367.898 409.091 L 369.318 409.091"/>
<path d="M 397.727 409.091 L 403.409 409.091"/>
<path d="M 419.034 409.091 L 420.455 409.091"/>
<path d="M 430.398 409.091 L 433.239 409.091"/>
<path d="M 436.080 409.091 L 437.500 409.091"/>
<path d="M 461.648 409.091 L 473.011 409.091"/>
<path d="M 728.693 409.091 L 732.955 409.091"/>
<path d="M 100.852 413.352 L 103.693 413.352"/>
<path d="M 139.205 413.352 L 142.045 413.352"/>
<path d="M 254.261 413.352 L 255.682 413.352"/>
<path d="M 262.784 413.352 L 264.205 413.352"/>
<path d="M 313.920 413.352 L 315.341 413.352"/>
<path d="M 319.602 413.352 L 322.443 413.352"/>
<path d="M 367.898 413.352 L 369.318 413.352"/>
<path d="M 399.148 413.352 L 404.830 413.352"/>
<path d="M 420.455 413.352 L 421.875 413.352"/>
<path d="M 430.398 413.352 L 433.239 413.352"/>
<path d="M 440.341 413.352 L 441.761 413.352"/>
<path d="M 102.273 417.614 L 106.534 417.614"/>
<path d="M 133.523 417.614 L 136.364 417.614"/>
<path d="M 177.557 417.614 L 178.977 417.614"/>
<path d="M 181.818 417.614 L 187.500 417.614"/>
<path d="M 205.966 417.614 L 207.386 417.614"/>
<path d="M 213.068 417.614 L 217.330 417.614"/>
<path d="M 218.750 417.614 L 230.114 417.614"/>
<path d="M 238.636 417.614 L 240.057 417.614"/>
<path d="M 259.943 417.614 L 261.364 417.614"/>
<path d="M 305.398 417.614 L 306.818 417.614"/>
<path d="M 311.080 417.614 L 313.920 417.614"/>
<path d="M 315.341 417.614 L 316.761 417.614"/>
<path d="M 353.693 417.614 L 355.114 417.614"/>
<path d="M 369.318 417.614 L 373.580 417.614"/>
<path d="M 400.568 417.614 L 407.670 417.614"/>
<path d="M 428.977 417.614 L 433.239 417.614"/>
<path d="M 434.659 417.614 L 436.080 417.614"/>
<path d="M 117.898 421.875 L 119.318 421.875"/>
<path d="M 122.159 421.875 L 123.580 421.875"/>
<path d="M 126.420 421.875 L 129.261 421.875"/>
<path d="M 142.045 421.875 L 143.466 421.875"/>
<path d="M 183.239 421.875 L 193.182 421.875"/>
<path d="M 194.602 421.875 L 198.864 421.875"/>
<path d="M 201.705 421.875 L 204.545 421.875"/>
<path d="M 208.807 421.875 L 215.909 421.875"/>
<path d="M 225.852 421.875 L 240.057 421.875"/>
<path d="M 257.102 421.875 L 258.523 421.875"/>
<path d="M 303.977 421.875 L 305.398 421.875"/>
<path d="M 311.080 421.875 L 318.182 421.875"/>
<path d="M 346.591 421.875 L 348.011 421.875"/>
<path d="M 352.273 421.875 L 355.114 421.875"/>
<path d="M 401.989 421.875 L 407.670 421.875"/>
<path d="M 431.818 421.875 L 433.239 421.875"/>
<path d="M 117.898 426.136 L 126.420 426.136"/>
<path d="M 143.466 426.136 L 146.307 426.136"/>
<path d="M 187.500 426.136 L 203.125 426.136"/>
<path d="M 211.648 426.136 L 235.795 426.136"/>
<path d="M 248.580 426.136 L 250.000 426.136"/>
<path d="M 276.989 426.136 L 278.409 426.136"/>
<path d="M 303.977 426.136 L 306.818 426.136"/>
<path d="M 316.761 426.136 L 318.182 426.136"/>
<path d="M 382.102 426.136 L 383.523 426.136"/>
<path d="M 400.568 426.136 L 403.409 426.136"/>
<path d="M 404.830 426.136 L 407.670 426.136"/>
<path d="M 575.284 426.136 L 576.705 426.136"/>
<path d="M 120.739 430.398 L 126.420 430.398"/>
<path d="M 150.568 430.398 L 157.670 430.398"/>
<path d="M 170.455 430.398 L 171.875 430.398"/>
<path d="M 173.295 430.398 L 180.398 430.398"/>
<path d="M 191.761 430.398 L 205.966 430.398"/>
<path d="M 208.807 430.398 L 211.648 430.398"/>
<path d="M 261.364 430.398 L 267.045 430.398"/>
<path d="M 275.568 430.398 L 281.250 430.398"/>
<path d="M 312.500 430.398 L 313.920 430.398"/>
<path d="M 338.068 430.398 L 343.750 430.398"/>
<path d="M 379.261 430.398 L 382.102 430.398"/>
<path d="M 383.523 430.398 L 384.943 430.398"/>
<path d="M 399.148 430.398 L 401.989 430.398"/>
<path d="M 403.409 430.398 L 404.830 430.398"/>
<path d="M 129.261 434.659 L 136.364 434.659"/>
<path d="M 151.989 434.659 L 153.409 434.659"/>
<path d="M 170.455 434.659 L 181.818 434.659"/>
<path d="M 190.341 434.659 L 213.068 434.659"/>
<path d="M 231.534 434.659 L 234.375 434.659"/>
<path d="M 240.057 434.659 L 241.477 434.659"/>
<path d="M 248.580 434.659 L 250.000 434.659"/>
<path d="M 255.682 434.659 L 257.102 434.659"/>
<path d="M 258.523 434.659 L 265.625 434.659"/>
<path d="M 272.727 434.659 L 274.148 434.659"/>
<path d="M 281.250 434.659 L 285.511 434.659"/>
<path d="M 296.875 434.659 L 298.295 434.659"/>
<path d="M 356.534 434.659 L 360.795 434.659"/>
<path d="M 362.216 434.659 L 363.636 434.659"/>
<path d="M 377.841 434.659 L 380.682 434.659"/>
<path d="M 386.364 434.659 L 390.625 434.659"/>
<path d="M 393.466 434.659 L 397.727 434.659"/>
<path d="M 401.989 434.659 L 403.409 434.659"/>
<path d="M 120.739 438.920 L 127.841 438.920"/>
<path d="M 170.455 438.920 L 184.659 438.920"/>
<path d="M 190.341 438.920 L 204.545 438.920"/>
<path d="M 214.489 438.920 L 221.591 438.920"/>
<path d="M 227.273 438.920 L 230.114 438.920"/>
<path d="M 234.375 438.920 L 238.636 438.920"/>
<path d="M 245.739 438.920 L 247.159 438.920"/>
<path d="M 258.523 438.920 L 265.625 438.920"/>
<path d="M 272.727 438.920 L 275.568 438.920"/>
<path d="M 284.091 438.920 L 286.932 438.920"/>
<path d="M 319.602 438.920 L 321.023 438.920"/>
<path d="M 352.273 438.920 L 355.114 438.920"/>
<path d="M 362.216 438.920 L 363.636 438.920"/>
<path d="M 365.057 438.920 L 372.159 438.920"/>
<path d="M 382.102 438.920 L 386.364 438.920"/>
<path d="M 394.886 438.920 L 399.148 438.920"/>
<path d="M 434.659 438.920 L 436.080 438.920"/>
<path d="M 116.477 443.182 L 119.318 443.182"/>
<path d="M 159.091 443.182 L 170.455 443.182"/>
<path d="M 174.716 443.182 L 186.080 443.182"/>
<path d="M 191.761 443.182 L 198.864 443.182"/>
<path d="M 234.375 443.182 L 238.636 443.182"/>
<path d="M 257.102 443.182 L 259.943 443.182"/>
<path d="M 265.625 443.182 L 267.045 443.182"/>
<path d="M 278.409 443.182 L 279.830 443.182"/>
<path d="M 282.670 443.182 L 289.773 443.182"/>
<path d="M 318.182 443.182 L 319.602 443.182"/>
<path d="M 321.023 443.182 L 323.864 443.182"/>
<path d="M 329.545 443.182 L 332.386 443.182"/>
<path d="M 350.852 443.182 L 353.693 443.182"/>
<path d="M 362.216 443.182 L 370.739 443.182"/>
<path d="M 431.818 443.182 L 433.239 443.182"/>
<path d="M 112.216 447.443 L 116.477 447.443"/>
<path d="M 157.670 447.443 L 163.352 447.443"/>
<path d="M 166.193 447.443 L 167.614 447.443"/>
<path d="M 180.398 447.443 L 187.500 447.443"/>
<path d="M 194.602 447.443 L 204.545 447.443"/>
<path d="M 258.523 447.443 L 259.943 447.443"/>
<path d="M 269.886 447.443 L 271.307 447.443"/>
<path d="M 279.830 447.443 L 281.250 447.443"/>
<path d="M 321.023 447.443 L 330.966 447.443"/>
<path d="M 352.273 447.443 L 353.693 447.443"/>
<path d="M 362.216 447.443 L 365.057 447.443"/>
<path d="M 413.352 447.443 L 414.773 447.443"/>
<path d="M 495.739 447.443 L 500.000 447.443"/>
<path d="M 85.227 451.705 L 92.330 451.705"/>
<path d="M 156.250 451.705 L 164.773 451.705"/>
<path d="M 166.193 451.705 L 167.614 451.705"/>
<path d="M 178.977 451.705 L 180.398 451.705"/>
<path d="M 183.239 451.705 L 190.341 451.705"/>
<path d="M 200.284 451.705 L 205.966 451.705"/>
<path d="M 323.864 451.705 L 328.125 451.705"/>
<path d="M 330.966 451.705 L 332.386 451.705"/>
<path d="M 376.420 451.705 L 383.523 451.705"/>
<path d="M 406.250 451.705 L 410.511 451.705"/>
<path d="M 154.830 455.966 L 156.250 455.966"/>
<path d="M 163.352 455.966 L 164.773 455.966"/>
<path d="M 184.659 455.966 L 196.023 455.966"/>
<path d="M 198.864 455.966 L 201.705 455.966"/>
<path d="M 225.852 455.966 L 227.273 455.966"/>
<path d="M 234.375 455.966 L 235.795 455.966"/>
<path d="M 248.580 455.966 L 250.000 455.966"/>
<path d="M 271.307 455.966 L 272.727 455.966"/>
<path d="M 279.830 455.966 L 281.250 455.966"/>
<path d="M 318.182 455.966 L 323.864 455.966"/>
<path d="M 328.125 455.966 L 329.545 455.966"/>
<path d="M 330.966 455.966 L 333.807 455.966"/>
<path d="M 367.898 455.966 L 389.205 455.966"/>
<path d="M 400.568 455.966 L 403.409 455.966"/>
<path d="M 430.398 455.966 L 433.239 455.966"/>
<path d="M 76.705 460.227 L 79.545 460.227"/>
<path d="M 103.693 460.227 L 105.114 460.227"/>
<path d="M 133.523 460.227 L 134.943 460.227"/>
<path d="M 153.409 460.227 L 156.250 460.227"/>
<path d="M 187.500 460.227 L 194.602 460.227"/>
<path d="M 208.807 460.227 L 210.227 460.227"/>
<path d="M 214.489 460.227 L 218.750 460.227"/>
<path d="M 311.080 460.227 L 312.500 460.227"/>
<path d="M 365.057 460.227 L 367.898 460.227"/>
<path d="M 419.034 460.227 L 420.455 460.227"/>
<path d="M 424.716 460.227 L 426.136 460.227"/>
<path d="M 431.818 460.227 L 433.239 460.227"/>
<path d="M 103.693 464.489 L 106.534 464.489"/>
<path d="M 132.102 464.489 L 133.523 464.489"/>
<path d="M 134.943 464.489 L 139.205 464.489"/>
<path d="M 142.045 464.489 L 147.727 464.489"/>
<path d="M 153.409 464.489 L 156.250 464.489"/>
<path d="M 184.659 464.489 L 186.080 464.489"/>
<path d="M 187.500 464.489 L 190.341 464.489"/>
<path d="M 193.182 464.489 L 196.023 464.489"/>
<path d="M 208.807 464.489 L 213.068 464.489"/>
<path d="M 281.250 464.489 L 286.932 464.489"/>
<path d="M 362.216 464.489 L 363.636 464.489"/>
<path d="M 410.511 464.489 L 411.932 464.489"/>
<path d="M 433.239 464.489 L 434.659 464.489"/>
<path d="M 578.125 464.489 L 579.545 464.489"/>
<path d="M 103.693 468.750 L 105.114 468.750"/>
<path d="M 112.216 468.750 L 113.636 468.750"/>
<path d="M 144.886 468.750 L 159.091 468.750"/>
<path d="M 183.239 468.750 L 184.659 468.750"/>
<path d="M 191.761 468.750 L 194.602 468.750"/>
<path d="M 198.864 468.750 L 203.125 468.750"/>
<path d="M 204.545 468.750 L 214.489 468.750"/>
<path d="M 225.852 468.750 L 234.375 468.750"/>
<path d="M 282.670 468.750 L 284.091 468.750"/>
<path d="M 285.511 468.750 L 286.932 468.750"/>
<path d="M 299.716 468.750 L 301.136 468.750"/>
<path d="M 305.398 468.750 L 308.239 468.750"/>
<path d="M 375.000 468.750 L 376.420 468.750"/>
<path d="M 427.557 468.750 L 437.500 468.750"/>
<path d="M 578.125 468.750 L 579.545 468.750"/>
<path d="M 112.216 473.011 L 113.636 473.011"/>
<path d="M 115.057 473.011 L 116.477 473.011"/>
<path d="M 117.898 473.011 L 119.318 473.011"/>
<path d="M 132.102 473.011 L 133.523 473.011"/>
<path d="M 139.205 473.011 L 142.045 473.011"/>
<path d="M 156.250 473.011 L 161.932 473.011"/>
<path d="M 183.239 473.011 L 184.659 473.011"/>
<path d="M 187.500 473.011 L 200.284 473.011"/>
<path d="M 205.966 473.011 L 235.795 473.011"/>
<path d="M 244.318 473.011 L 245.739 473.011"/>
<path d="M 302.557 473.011 L 303.977 473.011"/>
<path d="M 308.239 473.011 L 309.659 473.011"/>
<path d="M 404.830 473.011 L 406.250 473.011"/>
<path d="M 424.716 473.011 L 427.557 473.011"/>
<path d="M 433.239 473.011 L 437.500 473.011"/>
<path d="M 454.545 473.011 L 455.966 473.011"/>
<path d="M 123.580 477.273 L 125.000 477.273"/>
<path d="M 127.841 477.273 L 130.682 477.273"/>
<path d="M 159.091 477.273 L 160.511 477.273"/>
<path d="M 161.932 477.273 L 163.352 477.273"/>
<path d="M 169.034 477.273 L 178.977 477.273"/>
<path d="M 190.341 477.273 L 193.182 477.273"/>
<path d="M 211.648 477.273 L 214.489 477.273"/>
<path d="M 215.909 477.273 L 217.330 477.273"/>
<path d="M 302.557 477.273 L 303.977 477.273"/>
<path d="M 308.239 477.273 L 309.659 477.273"/>
<path d="M 400.568 477.273 L 403.409 477.273"/>
<path d="M 424.716 477.273 L 426.136 477.273"/>
<path d="M 430.398 477.273 L 431.818 477.273"/>
<path d="M 120.739 481.534 L 122.159 481.534"/>
<path d="M 133.523 481.534 L 137.784 481.534"/>
<path d="M 167.614 481.534 L 171.875 481.534"/>
<path d="M 177.557 481.534 L 180.398 481.534"/>
<path d="M 190.341 481.534 L 194.602 481.534"/>
<path d="M 198.864 481.534 L 203.125 481.534"/>
<path d="M 208.807 481.534 L 211.648 481.534"/>
<path d="M 221.591 481.534 L 223.011 481.534"/>
<path d="M 296.875 481.534 L 299.716 481.534"/>
<path d="M 309.659 481.534 L 312.500 481.534"/>
<path d="M 370.739 481.534 L 372.159 481.534"/>
<path d="M 399.148 481.534 L 400.568 481.534"/>
<path d="M 401.989 481.534 L 407.670 481.534"/>
<path d="M 409.091 481.534 L 420.455 481.534"/>
<path d="M 423.295 481.534 L 426.136 481.534"/>
<path d="M 436.080 481.534 L 437.500 481.534"/>
<path d="M 122.159 485.795 L 126.420 485.795"/>
<path d="M 153.409 485.795 L 160.511 485.795"/>
<path d="M 178.977 485.795 L 184.659 485.795"/>
<path d="M 191.761 485.795 L 193.182 485.795"/>
<path d="M 200.284 485.795 L 201.705 485.795"/>
<path d="M 232.955 485.795 L 234.375 485.795"/>
<path d="M 286.932 485.795 L 288.352 485.795"/>
<path d="M 295.455 485.795 L 299.716 485.795"/>
<path d="M 309.659 485.795 L 318.182 485.795"/>
<path d="M 390.625 485.795 L 396.307 485.795"/>
<path d="M 403.409 485.795 L 414.773 485.795"/>
<path d="M 419.034 485.795 L 423.295 485.795"/>
<path d="M 431.818 485.795 L 433.239 485.795"/>
<path d="M 434.659 485.795 L 437.500 485.795"/>
<path d="M 150.568 490.057 L 157.670 490.057"/>
<path d="M 190.341 490.057 L 196.023 490.057"/>
<path d="M 272.727 490.057 L 274.148 490.057"/>
<path d="M 291.193 490.057 L 292.614 490.057"/>
<path d="M 295.455 490.057 L 303.977 490.057"/>
<path d="M 315.341 490.057 L 325.284 490.057"/>
<path d="M 390.625 490.057 L 393.466 490.057"/>
<path d="M 400.568 490.057 L 401.989 490.057"/>
<path d="M 416.193 490.057 L 419.034 490.057"/>
<path d="M 426.136 490.057 L 430.398 490.057"/>
<path d="M 507.102 490.057 L 508.523 490.057"/>
<path d="M 147.727 494.318 L 151.989 494.318"/>
<path d="M 154.830 494.318 L 156.250 494.318"/>
<path d="M 190.341 494.318 L 197.443 494.318"/>
<path d="M 271.307 494.318 L 275.568 494.318"/>
<path d="M 276.989 494.318 L 279.830 494.318"/>
<path d="M 291.193 494.318 L 294.034 494.318"/>
<path d="M 305.398 494.318 L 306.818 494.318"/>
<path d="M 315.341 494.318 L 319.602 494.318"/>
<path d="M 322.443 494.318 L 335.227 494.318"/>
<path d="M 379.261 494.318 L 382.102 494.318"/>
<path d="M 396.307 494.318 L 399.148 494.318"/>
<path d="M 414.773 494.318 L 427.557 494.318"/>
<path d="M 146.307 498.580 L 149.148 498.580"/>
<path d="M 188.920 498.580 L 194.602 498.580"/>
<path d="M 269.886 498.580 L 278.409 498.580"/>
<path d="M 282.670 498.580 L 285.511 498.580"/>
<path d="M 316.761 498.580 L 318.182 498.580"/>
<path d="M 323.864 498.580 L 325.284 498.580"/>
<path d="M 326.705 498.580 L 330.966 498.580"/>
<path d="M 335.227 498.580 L 343.750 498.580"/>
<path d="M 348.011 498.580 L 349.432 498.580"/>
<path d="M 366.477 498.580 L 367.898 498.580"/>
<path d="M 369.318 498.580 L 370.739 498.580"/>
<path d="M 386.364 498.580 L 394.886 498.580"/>
<path d="M 404.830 498.580 L 406.250 498.580"/>
<path d="M 411.932 498.580 L 413.352 498.580"/>
<path d="M 417.614 498.580 L 419.034 498.580"/>
<path d="M 495.739 498.580 L 500.000 498.580"/>
<path d="M 142.045 502.841 L 144.886 502.841"/>
<path d="M 160.511 502.841 L 161.932 502.841"/>
<path d="M 177.557 502.841 L 187.500 502.841"/>
<path d="M 211.648 502.841 L 213.068 502.841"/>
<path d="M 218.750 502.841 L 220.170 502.841"/>
<path d="M 268.466 502.841 L 279.830 502.841"/>
<path d="M 282.670 502.841 L 285.511 502.841"/>
<path d="M 306.818 502.841 L 308.239 502.841"/>
<path d="M 322.443 502.841 L 323.864 502.841"/>
<path d="M 330.966 502.841 L 332.386 502.841"/>
<path d="M 333.807 502.841 L 336.648 502.841"/>
<path d="M 345.170 502.841 L 346.591 502.841"/>
<path d="M 387.784 502.841 L 389.205 502.841"/>
<path d="M 495.739 502.841 L 498.580 502.841"/>
<path d="M 504.261 502.841 L 507.102 502.841"/>
<path d="M 799.716 502.841 L 802.557 502.841"/>
<path d="M 803.977 502.841 L 805.398 502.841"/>
<path d="M 109.375 507.102 L 110.795 507.102"/>
<path d="M 164.773 507.102 L 170.455 507.102"/>
<path d="M 213.068 507.102 L 217.330 507.102"/>
<path d="M 267.045 507.102 L 272.727 507.102"/>
<path d="M 276.989 507.102 L 278.409 507.102"/>
<path d="M 284.091 507.102 L 285.511 507.102"/>
<path d="M 335.227 507.102 L 336.648 507.102"/>
<path d="M 343.750 507.102 L 345.170 507.102"/>
<path d="M 492.898 507.102 L 495.739 507.102"/>
<path d="M 500.000 507.102 L 505.682 507.102"/>
<path d="M 798.295 507.102 L 799.716 507.102"/>
<path d="M 809.659 507.102 L 815.341 507.102"/>
<path d="M 125.000 511.364 L 129.261 511.364"/>
<path d="M 164.773 511.364 L 166.193 511.364"/>
<path d="M 174.716 511.364 L 176.136 511.364"/>
<path d="M 272.727 511.364 L 274.148 511.364"/>
<path d="M 335.227 511.364 L 348.011 511.364"/>
<path d="M 490.057 511.364 L 491.477 511.364"/>
<path d="M 495.739 511.364 L 502.841 511.364"/>
<path d="M 818.182 511.364 L 819.602 511.364"/>
<path d="M 105.114 515.625 L 107.955 515.625"/>
<path d="M 144.886 515.625 L 146.307 515.625"/>
<path d="M 156.250 515.625 L 157.670 515.625"/>
<path d="M 163.352 515.625 L 166.193 515.625"/>
<path d="M 198.864 515.625 L 200.284 515.625"/>
<path d="M 262.784 515.625 L 265.625 515.625"/>
<path d="M 272.727 515.625 L 274.148 515.625"/>
<path d="M 284.091 515.625 L 285.511 515.625"/>
<path d="M 348.011 515.625 L 349.432 515.625"/>
<path d="M 365.057 515.625 L 366.477 515.625"/>
<path d="M 487.216 515.625 L 490.057 515.625"/>
<path d="M 495.739 515.625 L 501.420 515.625"/>
<path d="M 802.557 515.625 L 805.398 515.625"/>
<path d="M 103.693 519.886 L 106.534 519.886"/>
<path d="M 112.216 519.886 L 113.636 519.886"/>
<path d="M 137.784 519.886 L 139.205 519.886"/>
<path d="M 169.034 519.886 L 171.875 519.886"/>
<path d="M 201.705 519.886 L 203.125 519.886"/>
<path d="M 252.841 519.886 L 257.102 519.886"/>
<path d="M 289.773 519.886 L 291.193 519.886"/>
<path d="M 294.034 519.886 L 295.455 519.886"/>
<path d="M 497.159 519.886 L 500.000 519.886"/>
<path d="M 143.466 524.148 L 146.307 524.148"/>
<path d="M 153.409 524.148 L 163.352 524.148"/>
<path d="M 203.125 524.148 L 204.545 524.148"/>
<path d="M 220.170 524.148 L 231.534 524.148"/>
<path d="M 252.841 524.148 L 254.261 524.148"/>
<path d="M 494.318 524.148 L 498.580 524.148"/>
<path d="M 514.205 524.148 L 517.045 524.148"/>
<path d="M 801.136 524.148 L 802.557 524.148"/>
<path d="M 813.920 524.148 L 815.341 524.148"/>
<path d="M 146.307 528.409 L 156.250 528.409"/>
<path d="M 161.932 528.409 L 163.352 528.409"/>
<path d="M 221.591 528.409 L 228.693 528.409"/>
<path d="M 298.295 528.409 L 301.136 528.409"/>
<path d="M 419.034 528.409 L 420.455 528.409"/>
<path d="M 494.318 528.409 L 498.580 528.409"/>
<path d="M 517.045 528.409 L 521.307 528.409"/>
<path d="M 799.716 528.409 L 802.557 528.409"/>
<path d="M 805.398 528.409 L 812.500 528.409"/>
<path d="M 823.864 528.409 L 825.284 528.409"/>
<path d="M 129.261 532.670 L 134.943 532.670"/>
<path d="M 136.364 532.670 L 153.409 532.670"/>
<path d="M 164.773 532.670 L 166.193 532.670"/>
<path d="M 176.136 532.670 L 178.977 532.670"/>
<path d="M 204.545 532.670 L 205.966 532.670"/>
<path d="M 251.420 532.670 L 252.841 532.670"/>
<path d="M 275.568 532.670 L 276.989 532.670"/>
<path d="M 303.977 532.670 L 306.818 532.670"/>
<path d="M 328.125 532.670 L 329.545 532.670"/>
<path d="M 492.898 532.670 L 497.159 532.670"/>
<path d="M 549.716 532.670 L 556.818 532.670"/>
<path d="M 801.136 532.670 L 806.818 532.670"/>
<path d="M 811.080 532.670 L 813.920 532.670"/>
<path d="M 815.341 532.670 L 816.761 532.670"/>
<path d="M 826.705 532.670 L 828.125 532.670"/>
<path d="M 142.045 536.932 L 144.886 536.932"/>
<path d="M 147.727 536.932 L 153.409 536.932"/>
<path d="M 228.693 536.932 L 230.114 536.932"/>
<path d="M 301.136 536.932 L 302.557 536.932"/>
<path d="M 494.318 536.932 L 497.159 536.932"/>
<path d="M 521.307 536.932 L 525.568 536.932"/>
<path d="M 549.716 536.932 L 558.239 536.932"/>
<path d="M 806.818 536.932 L 821.023 536.932"/>
<path d="M 144.886 541.193 L 146.307 541.193"/>
<path d="M 150.568 541.193 L 154.830 541.193"/>
<path d="M 169.034 541.193 L 170.455 541.193"/>
<path d="M 184.659 541.193 L 186.080 541.193"/>
<path d="M 205.966 541.193 L 207.386 541.193"/>
<path d="M 217.330 541.193 L 234.375 541.193"/>
<path d="M 274.148 541.193 L 278.409 541.193"/>
<path d="M 517.045 541.193 L 531.250 541.193"/>
<path d="M 551.136 541.193 L 556.818 541.193"/>
<path d="M 805.398 541.193 L 819.602 541.193"/>
<path d="M 855.114 541.193 L 856.534 541.193"/>
<path d="M 150.568 545.455 L 157.670 545.455"/>
<path d="M 164.773 545.455 L 166.193 545.455"/>
<path d="M 174.716 545.455 L 180.398 545.455"/>
<path d="M 214.489 545.455 L 232.955 545.455"/>
<path d="M 267.045 545.455 L 272.727 545.455"/>
<path d="M 362.216 545.455 L 366.477 545.455"/>
<path d="M 375.000 545.455 L 376.420 545.455"/>
<path d="M 377.841 545.455 L 393.466 545.455"/>
<path d="M 519.886 545.455 L 531.250 545.455"/>
<path d="M 551.136 545.455 L 556.818 545.455"/>
<path d="M 802.557 545.455 L 803.977 545.455"/>
<path d="M 805.398 545.455 L 815.341 545.455"/>
<path d="M 826.705 545.455 L 828.125 545.455"/>
<path d="M 146.307 549.716 L 157.670 549.716"/>
<path d="M 161.932 549.716 L 163.352 549.716"/>
<path d="M 176.136 549.716 L 177.557 549.716"/>
<path d="M 184.659 549.716 L 187.500 549.716"/>
<path d="M 218.750 549.716 L 232.955 549.716"/>
<path d="M 247.159 549.716 L 251.420 549.716"/>
<path d="M 255.682 549.716 L 259.943 549.716"/>
<path d="M 357.955 549.716 L 370.739 549.716"/>
<path d="M 387.784 549.716 L 390.625 549.716"/>
<path d="M 528.409 549.716 L 531.250 549.716"/>
<path d="M 546.875 549.716 L 555.398 549.716"/>
<path d="M 802.557 549.716 L 806.818 549.716"/>
<path d="M 811.080 549.716 L 819.602 549.716"/>
<path d="M 823.864 549.716 L 828.125 549.716"/>
<path d="M 142.045 553.977 L 143.466 553.977"/>
<path d="M 151.989 553.977 L 157.670 553.977"/>
<path d="M 166.193 553.977 L 167.614 553.977"/>
<path d="M 225.852 553.977 L 228.693 553.977"/>
<path d="M 244.318 553.977 L 247.159 553.977"/>
<path d="M 356.534 553.977 L 357.955 553.977"/>
<path d="M 362.216 553.977 L 363.636 553.977"/>
<path d="M 382.102 553.977 L 389.205 553.977"/>
<path d="M 392.045 553.977 L 393.466 553.977"/>
<path d="M 488.636 553.977 L 490.057 553.977"/>
<path d="M 542.614 553.977 L 553.977 553.977"/>
<path d="M 555.398 553.977 L 556.818 553.977"/>
<path d="M 802.557 553.977 L 815.341 553.977"/>
<path d="M 830.966 553.977 L 835.227 553.977"/>
<path d="M 129.261 558.239 L 130.682 558.239"/>
<path d="M 164.773 558.239 L 166.193 558.239"/>
<path d="M 218.750 558.239 L 220.170 558.239"/>
<path d="M 221.591 558.239 L 225.852 558.239"/>
<path d="M 244.318 558.239 L 245.739 558.239"/>
<path d="M 282.670 558.239 L 284.091 558.239"/>
<path d="M 292.614 558.239 L 294.034 558.239"/>
<path d="M 298.295 558.239 L 299.716 558.239"/>
<path d="M 301.136 558.239 L 313.920 558.239"/>
<path d="M 338.068 558.239 L 340.909 558.239"/>
<path d="M 355.114 558.239 L 360.795 558.239"/>
<path d="M 363.636 558.239 L 365.057 558.239"/>
<path d="M 376.420 558.239 L 377.841 558.239"/>
<path d="M 382.102 558.239 L 389.205 558.239"/>
<path d="M 541.193 558.239 L 553.977 558.239"/>
<path d="M 794.034 558.239 L 795.455 558.239"/>
<path d="M 798.295 558.239 L 799.716 558.239"/>
<path d="M 801.136 558.239 L 808.239 558.239"/>
<path d="M 812.500 558.239 L 813.920 558.239"/>
<path d="M 815.341 558.239 L 818.182 558.239"/>
<path d="M 819.602 558.239 L 821.023 558.239"/>
<path d="M 835.227 558.239 L 838.068 558.239"/>
<path d="M 849.432 558.239 L 850.852 558.239"/>
<path d="M 215.909 562.500 L 225.852 562.500"/>
<path d="M 245.739 562.500 L 247.159 562.500"/>
<path d="M 275.568 562.500 L 278.409 562.500"/>
<path d="M 282.670 562.500 L 288.352 562.500"/>
<path d="M 294.034 562.500 L 316.761 562.500"/>
<path d="M 346.591 562.500 L 350.852 562.500"/>
<path d="M 356.534 562.500 L 357.955 562.500"/>
<path d="M 360.795 562.500 L 362.216 562.500"/>
<path d="M 380.682 562.500 L 384.943 562.500"/>
<path d="M 546.875 562.500 L 549.716 562.500"/>
<path d="M 795.455 562.500 L 808.239 562.500"/>
<path d="M 816.761 562.500 L 818.182 562.500"/>
<path d="M 110.795 566.761 L 126.420 566.761"/>
<path d="M 197.443 566.761 L 200.284 566.761"/>
<path d="M 218.750 566.761 L 224.432 566.761"/>
<path d="M 244.318 566.761 L 247.159 566.761"/>
<path d="M 271.307 566.761 L 279.830 566.761"/>
<path d="M 296.875 566.761 L 313.920 566.761"/>
<path d="M 316.761 566.761 L 318.182 566.761"/>
<path d="M 410.511 566.761 L 416.193 566.761"/>
<path d="M 794.034 566.761 L 809.659 566.761"/>
<path d="M 812.500 566.761 L 813.920 566.761"/>
<path d="M 826.705 566.761 L 828.125 566.761"/>
<path d="M 106.534 571.023 L 107.955 571.023"/>
<path d="M 110.795 571.023 L 112.216 571.023"/>
<path d="M 134.943 571.023 L 142.045 571.023"/>
<path d="M 147.727 571.023 L 154.830 571.023"/>
<path d="M 156.250 571.023 L 157.670 571.023"/>
<path d="M 242.898 571.023 L 245.739 571.023"/>
<path d="M 267.045 571.023 L 271.307 571.023"/>
<path d="M 488.636 571.023 L 491.477 571.023"/>
<path d="M 494.318 571.023 L 501.420 571.023"/>
<path d="M 792.614 571.023 L 795.455 571.023"/>
<path d="M 798.295 571.023 L 812.500 571.023"/>
<path d="M 142.045 575.284 L 143.466 575.284"/>
<path d="M 153.409 575.284 L 154.830 575.284"/>
<path d="M 242.898 575.284 L 252.841 575.284"/>
<path d="M 262.784 575.284 L 265.625 575.284"/>
<path d="M 754.261 575.284 L 755.682 575.284"/>
<path d="M 759.943 575.284 L 761.364 575.284"/>
<path d="M 788.352 575.284 L 789.773 575.284"/>
<path d="M 792.614 575.284 L 794.034 575.284"/>
<path d="M 802.557 575.284 L 812.500 575.284"/>
<path d="M 815.341 575.284 L 818.182 575.284"/>
<path d="M 153.409 579.545 L 156.250 579.545"/>
<path d="M 218.750 579.545 L 223.011 579.545"/>
<path d="M 242.898 579.545 L 245.739 579.545"/>
<path d="M 350.852 579.545 L 352.273 579.545"/>
<path d="M 762.784 579.545 L 764.205 579.545"/>
<path d="M 767.045 579.545 L 768.466 579.545"/>
<path d="M 791.193 579.545 L 792.614 579.545"/>
<path d="M 805.398 579.545 L 812.500 579.545"/>
<path d="M 823.864 579.545 L 825.284 579.545"/>
<path d="M 147.727 583.807 L 149.148 583.807"/>
<path d="M 150.568 583.807 L 151.989 583.807"/>
<path d="M 204.545 583.807 L 207.386 583.807"/>
<path d="M 210.227 583.807 L 231.534 583.807"/>
<path d="M 241.477 583.807 L 244.318 583.807"/>
<path d="M 362.216 583.807 L 363.636 583.807"/>
<path d="M 372.159 583.807 L 373.580 583.807"/>
<path d="M 382.102 583.807 L 383.523 583.807"/>
<path d="M 384.943 583.807 L 386.364 583.807"/>
<path d="M 755.682 583.807 L 757.102 583.807"/>
<path d="M 782.670 583.807 L 788.352 583.807"/>
<path d="M 805.398 583.807 L 808.239 583.807"/>
<path d="M 811.080 583.807 L 813.920 583.807"/>
<path d="M 818.182 583.807 L 819.602 583.807"/>
<path d="M 835.227 583.807 L 836.648 583.807"/>
<path d="M 143.466 588.068 L 151.989 588.068"/>
<path d="M 166.193 588.068 L 170.455 588.068"/>
<path d="M 210.227 588.068 L 234.375 588.068"/>
<path d="M 241.477 588.068 L 242.898 588.068"/>
<path d="M 357.955 588.068 L 359.375 588.068"/>
<path d="M 375.000 588.068 L 377.841 588.068"/>
<path d="M 399.148 588.068 L 401.989 588.068"/>
<path d="M 782.670 588.068 L 789.773 588.068"/>
<path d="M 792.614 588.068 L 795.455 588.068"/>
<path d="M 805.398 588.068 L 806.818 588.068"/>
<path d="M 813.920 588.068 L 815.341 588.068"/>
<path d="M 835.227 588.068 L 836.648 588.068"/>
<path d="M 140.625 592.330 L 142.045 592.330"/>
<path d="M 146.307 592.330 L 151.989 592.330"/>
<path d="M 163.352 592.330 L 170.455 592.330"/>
<path d="M 214.489 592.330 L 237.216 592.330"/>
<path d="M 241.477 592.330 L 248.580 592.330"/>
<path d="M 286.932 592.330 L 288.352 592.330"/>
<path d="M 350.852 592.330 L 353.693 592.330"/>
<path d="M 377.841 592.330 L 379.261 592.330"/>
<path d="M 392.045 592.330 L 393.466 592.330"/>
<path d="M 401.989 592.330 L 407.670 592.330"/>
<path d="M 762.784 592.330 L 765.625 592.330"/>
<path d="M 774.148 592.330 L 776.989 592.330"/>
<path d="M 788.352 592.330 L 791.193 592.330"/>
<path d="M 794.034 592.330 L 798.295 592.330"/>
<path d="M 806.818 592.330 L 808.239 592.330"/>
<path d="M 812.500 592.330 L 816.761 592.330"/>
<path d="M 821.023 592.330 L 822.443 592.330"/>
<path d="M 865.057 592.330 L 866.477 592.330"/>
<path d="M 870.739 592.330 L 872.159 592.330"/>
<path d="M 149.148 596.591 L 151.989 596.591"/>
<path d="M 167.614 596.591 L 173.295 596.591"/>
<path d="M 197.443 596.591 L 200.284 596.591"/>
<path d="M 218.750 596.591 L 237.216 596.591"/>
<path d="M 338.068 596.591 L 339.489 596.591"/>
<path d="M 512.784 596.591 L 514.205 596.591"/>
<path d="M 518.466 596.591 L 519.886 596.591"/>
<path d="M 795.455 596.591 L 796.875 596.591"/>
<path d="M 808.239 596.591 L 812.500 596.591"/>
<path d="M 815.341 596.591 L 816.761 596.591"/>
<path d="M 863.636 596.591 L 865.057 596.591"/>
<path d="M 872.159 596.591 L 873.580 596.591"/>
<path d="M 147.727 600.852 L 149.148 600.852"/>
<path d="M 150.568 600.852 L 153.409 600.852"/>
<path d="M 159.091 600.852 L 180.398 600.852"/>
<path d="M 191.761 600.852 L 194.602 600.852"/>
<path d="M 231.534 600.852 L 238.636 600.852"/>
<path d="M 258.523 600.852 L 259.943 600.852"/>
<path d="M 271.307 600.852 L 272.727 600.852"/>
<path d="M 279.830 600.852 L 281.250 600.852"/>
<path d="M 335.227 600.852 L 340.909 600.852"/>
<path d="M 343.750 600.852 L 345.170 600.852"/>
<path d="M 353.693 600.852 L 355.114 600.852"/>
<path d="M 409.091 600.852 L 410.511 600.852"/>
<path d="M 413.352 600.852 L 414.773 600.852"/>
<path d="M 480.114 600.852 L 481.534 600.852"/>
<path d="M 487.216 600.852 L 488.636 600.852"/>
<path d="M 620.739 600.852 L 622.159 600.852"/>
<path d="M 761.364 600.852 L 762.784 600.852"/>
<path d="M 769.886 600.852 L 772.727 600.852"/>
<path d="M 786.932 600.852 L 789.773 600.852"/>
<path d="M 806.818 600.852 L 809.659 600.852"/>
<path d="M 815.341 600.852 L 816.761 600.852"/>
<path d="M 825.284 600.852 L 826.705 600.852"/>
<path d="M 146.307 605.114 L 160.511 605.114"/>
<path d="M 177.557 605.114 L 184.659 605.114"/>
<path d="M 194.602 605.114 L 196.023 605.114"/>
<path d="M 211.648 605.114 L 217.330 605.114"/>
<path d="M 242.898 605.114 L 244.318 605.114"/>
<path d="M 257.102 605.114 L 261.364 605.114"/>
<path d="M 271.307 605.114 L 272.727 605.114"/>
<path d="M 305.398 605.114 L 306.818 605.114"/>
<path d="M 329.545 605.114 L 342.330 605.114"/>
<path d="M 372.159 605.114 L 373.580 605.114"/>
<path d="M 377.841 605.114 L 380.682 605.114"/>
<path d="M 410.511 605.114 L 413.352 605.114"/>
<path d="M 526.989 605.114 L 528.409 605.114"/>
<path d="M 792.614 605.114 L 794.034 605.114"/>
<path d="M 806.818 605.114 L 811.080 605.114"/>
<path d="M 813.920 605.114 L 815.341 605.114"/>
<path d="M 830.966 605.114 L 832.386 605.114"/>
<path d="M 166.193 609.375 L 167.614 609.375"/>
<path d="M 170.455 609.375 L 171.875 609.375"/>
<path d="M 176.136 609.375 L 177.557 609.375"/>
<path d="M 180.398 609.375 L 183.239 609.375"/>
<path d="M 196.023 609.375 L 213.068 609.375"/>
<path d="M 247.159 609.375 L 248.580 609.375"/>
<path d="M 255.682 609.375 L 259.943 609.375"/>
<path d="M 282.670 609.375 L 284.091 609.375"/>
<path d="M 296.875 609.375 L 302.557 609.375"/>
<path d="M 328.125 609.375 L 339.489 609.375"/>
<path d="M 417.614 609.375 L 419.034 609.375"/>
<path d="M 457.386 609.375 L 458.807 609.375"/>
<path d="M 525.568 609.375 L 526.989 609.375"/>
<path d="M 529.830 609.375 L 531.250 609.375"/>
<path d="M 552.557 609.375 L 555.398 609.375"/>
<path d="M 598.011 609.375 L 599.432 609.375"/>
<path d="M 761.364 609.375 L 768.466 609.375"/>
<path d="M 775.568 609.375 L 781.250 609.375"/>
<path d="M 792.614 609.375 L 794.034 609.375"/>
<path d="M 809.659 609.375 L 813.920 609.375"/>
<path d="M 826.705 609.375 L 828.125 609.375"/>
<path d="M 829.545 609.375 L 830.966 609.375"/>
<path d="M 139.205 613.636 L 140.625 613.636"/>
<path d="M 150.568 613.636 L 151.989 613.636"/>
<path d="M 171.875 613.636 L 173.295 613.636"/>
<path d="M 180.398 613.636 L 181.818 613.636"/>
<path d="M 197.443 613.636 L 204.545 613.636"/>
<path d="M 211.648 613.636 L 214.489 613.636"/>
<path d="M 257.102 613.636 L 259.943 613.636"/>
<path d="M 318.182 613.636 L 330.966 613.636"/>
<path d="M 400.568 613.636 L 403.409 613.636"/>
<path d="M 528.409 613.636 L 531.250 613.636"/>
<path d="M 551.136 613.636 L 563.920 613.636"/>
<path d="M 573.864 613.636 L 580.966 613.636"/>
<path d="M 583.807 613.636 L 586.648 613.636"/>
<path d="M 588.068 613.636 L 592.330 613.636"/>
<path d="M 593.750 613.636 L 598.011 613.636"/>
<path d="M 721.591 613.636 L 730.114 613.636"/>
<path d="M 755.682 613.636 L 759.943 613.636"/>
<path d="M 768.466 613.636 L 775.568 613.636"/>
<path d="M 792.614 613.636 L 794.034 613.636"/>
<path d="M 795.455 613.636 L 796.875 613.636"/>
<path d="M 842.330 613.636 L 843.750 613.636"/>
<path d="M 183.239 617.898 L 184.659 617.898"/>
<path d="M 191.761 617.898 L 194.602 617.898"/>
<path d="M 197.443 617.898 L 200.284 617.898"/>
<path d="M 258.523 617.898 L 261.364 617.898"/>
<path d="M 316.761 617.898 L 333.807 617.898"/>
<path d="M 336.648 617.898 L 338.068 617.898"/>
<path d="M 458.807 617.898 L 461.648 617.898"/>
<path d="M 463.068 617.898 L 464.489 617.898"/>
<path d="M 495.739 617.898 L 505.682 617.898"/>
<path d="M 525.568 617.898 L 529.830 617.898"/>
<path d="M 548.295 617.898 L 582.386 617.898"/>
<path d="M 585.227 617.898 L 586.648 617.898"/>
<path d="M 596.591 617.898 L 603.693 617.898"/>
<path d="M 609.375 617.898 L 625.000 617.898"/>
<path d="M 677.557 617.898 L 678.977 617.898"/>
<path d="M 680.398 617.898 L 691.761 617.898"/>
<path d="M 693.182 617.898 L 713.068 617.898"/>
<path d="M 714.489 617.898 L 718.750 617.898"/>
<path d="M 724.432 617.898 L 727.273 617.898"/>
<path d="M 747.159 617.898 L 750.000 617.898"/>
<path d="M 795.455 617.898 L 796.875 617.898"/>
<path d="M 823.864 617.898 L 825.284 617.898"/>
<path d="M 154.830 622.159 L 156.250 622.159"/>
<path d="M 163.352 622.159 L 166.193 622.159"/>
<path d="M 167.614 622.159 L 169.034 622.159"/>
<path d="M 184.659 622.159 L 186.080 622.159"/>
<path d="M 191.761 622.159 L 194.602 622.159"/>
<path d="M 196.023 622.159 L 205.966 622.159"/>
<path d="M 254.261 622.159 L 257.102 622.159"/>
<path d="M 261.364 622.159 L 262.784 622.159"/>
<path d="M 269.886 622.159 L 271.307 622.159"/>
<path d="M 274.148 622.159 L 275.568 622.159"/>
<path d="M 296.875 622.159 L 298.295 622.159"/>
<path d="M 321.023 622.159 L 343.750 622.159"/>
<path d="M 346.591 622.159 L 348.011 622.159"/>
<path d="M 446.023 622.159 L 447.443 622.159"/>
<path d="M 539.773 622.159 L 578.125 622.159"/>
<path d="M 616.477 622.159 L 622.159 622.159"/>
<path d="M 623.580 622.159 L 632.102 622.159"/>
<path d="M 664.773 622.159 L 669.034 622.159"/>
<path d="M 724.432 622.159 L 727.273 622.159"/>
<path d="M 742.898 622.159 L 744.318 622.159"/>
<path d="M 765.625 622.159 L 767.045 622.159"/>
<path d="M 795.455 622.159 L 798.295 622.159"/>
<path d="M 806.818 622.159 L 808.239 622.159"/>
<path d="M 811.080 622.159 L 812.500 622.159"/>
<path d="M 835.227 622.159 L 836.648 622.159"/>
<path d="M 159.091 626.420 L 163.352 626.420"/>
<path d="M 166.193 626.420 L 170.455 626.420"/>
<path d="M 191.761 626.420 L 205.966 626.420"/>
<path d="M 215.909 626.420 L 217.330 626.420"/>
<path d="M 251.420 626.420 L 257.102 626.420"/>
<path d="M 295.455 626.420 L 296.875 626.420"/>
<path d="M 326.705 626.420 L 346.591 626.420"/>
<path d="M 349.432 626.420 L 350.852 626.420"/>
<path d="M 352.273 626.420 L 353.693 626.420"/>
<path d="M 467.330 626.420 L 468.750 626.420"/>
<path d="M 490.057 626.420 L 497.159 626.420"/>
<path d="M 532.670 626.420 L 559.659 626.420"/>
<path d="M 600.852 626.420 L 602.273 626.420"/>
<path d="M 683.239 626.420 L 684.659 626.420"/>
<path d="M 687.500 626.420 L 690.341 626.420"/>
<path d="M 724.432 626.420 L 725.852 626.420"/>
<path d="M 737.216 626.420 L 738.636 626.420"/>
<path d="M 752.841 626.420 L 754.261 626.420"/>
<path d="M 757.102 626.420 L 761.364 626.420"/>
<path d="M 822.443 626.420 L 825.284 626.420"/>
<path d="M 156.250 630.682 L 157.670 630.682"/>
<path d="M 166.193 630.682 L 167.614 630.682"/>
<path d="M 171.875 630.682 L 173.295 630.682"/>
<path d="M 241.477 630.682 L 244.318 630.682"/>
<path d="M 250.000 630.682 L 254.261 630.682"/>
<path d="M 255.682 630.682 L 258.523 630.682"/>
<path d="M 325.284 630.682 L 326.705 630.682"/>
<path d="M 329.545 630.682 L 346.591 630.682"/>
<path d="M 529.830 630.682 L 552.557 630.682"/>
<path d="M 603.693 630.682 L 605.114 630.682"/>
<path d="M 615.057 630.682 L 616.477 630.682"/>
<path d="M 737.216 630.682 L 738.636 630.682"/>
<path d="M 748.580 630.682 L 751.420 630.682"/>
<path d="M 754.261 630.682 L 757.102 630.682"/>
<path d="M 794.034 630.682 L 795.455 630.682"/>
<path d="M 241.477 634.943 L 247.159 634.943"/>
<path d="M 269.886 634.943 L 272.727 634.943"/>
<path d="M 296.875 634.943 L 299.716 634.943"/>
<path d="M 301.136 634.943 L 302.557 634.943"/>
<path d="M 333.807 634.943 L 343.750 634.943"/>
<path d="M 356.534 634.943 L 359.375 634.943"/>
<path d="M 580.966 634.943 L 582.386 634.943"/>
<path d="M 595.170 634.943 L 603.693 634.943"/>
<path d="M 605.114 634.943 L 607.955 634.943"/>
<path d="M 615.057 634.943 L 617.898 634.943"/>
<path d="M 724.432 634.943 L 725.852 634.943"/>
<path d="M 734.375 634.943 L 740.057 634.943"/>
<path d="M 747.159 634.943 L 750.000 634.943"/>
<path d="M 792.614 634.943 L 794.034 634.943"/>
<path d="M 295.455 639.205 L 299.716 639.205"/>
<path d="M 335.227 639.205 L 343.750 639.205"/>
<path d="M 498.580 639.205 L 511.364 639.205"/>
<path d="M 585.227 639.205 L 586.648 639.205"/>
<path d="M 596.591 639.205 L 600.852 639.205"/>
<path d="M 720.170 639.205 L 721.591 639.205"/>
<path d="M 842.330 639.205 L 843.750 639.205"/>
<path d="M 151.989 643.466 L 153.409 643.466"/>
<path d="M 237.216 643.466 L 238.636 643.466"/>
<path d="M 248.580 643.466 L 250.000 643.466"/>
<path d="M 268.466 643.466 L 269.886 643.466"/>
<path d="M 292.614 643.466 L 294.034 643.466"/>
<path d="M 343.750 643.466 L 345.170 643.466"/>
<path d="M 346.591 643.466 L 350.852 643.466"/>
<path d="M 494.318 643.466 L 521.307 643.466"/>
<path d="M 535.511 643.466 L 539.773 643.466"/>
<path d="M 578.125 643.466 L 580.966 643.466"/>
<path d="M 595.170 643.466 L 600.852 643.466"/>
<path d="M 839.489 643.466 L 840.909 643.466"/>
<path d="M 136.364 647.727 L 144.886 647.727"/>
<path d="M 213.068 647.727 L 218.750 647.727"/>
<path d="M 223.011 647.727 L 224.432 647.727"/>
<path d="M 228.693 647.727 L 230.114 647.727"/>
<path d="M 247.159 647.727 L 248.580 647.727"/>
<path d="M 278.409 647.727 L 279.830 647.727"/>
<path d="M 458.807 647.727 L 463.068 647.727"/>
<path d="M 481.534 647.727 L 505.682 647.727"/>
<path d="M 521.307 647.727 L 526.989 647.727"/>
<path d="M 538.352 647.727 L 539.773 647.727"/>
<path d="M 541.193 647.727 L 545.455 647.727"/>
<path d="M 565.341 647.727 L 568.182 647.727"/>
<path d="M 572.443 647.727 L 575.284 647.727"/>
<path d="M 593.750 647.727 L 598.011 647.727"/>
<path d="M 670.455 647.727 L 671.875 647.727"/>
<path d="M 711.648 647.727 L 713.068 647.727"/>
<path d="M 218.750 651.989 L 232.955 651.989"/>
<path d="M 238.636 651.989 L 240.057 651.989"/>
<path d="M 245.739 651.989 L 247.159 651.989"/>
<path d="M 349.432 651.989 L 350.852 651.989"/>
<path d="M 473.011 651.989 L 475.852 651.989"/>
<path d="M 477.273 651.989 L 504.261 651.989"/>
<path d="M 551.136 651.989 L 558.239 651.989"/>
<path d="M 561.080 651.989 L 563.920 651.989"/>
<path d="M 647.727 651.989 L 649.148 651.989"/>
<path d="M 657.670 651.989 L 660.511 651.989"/>
<path d="M 707.386 651.989 L 710.227 651.989"/>
<path d="M 714.489 651.989 L 717.330 651.989"/>
<path d="M 799.716 651.989 L 802.557 651.989"/>
<path d="M 803.977 651.989 L 808.239 651.989"/>
<path d="M 843.750 651.989 L 845.170 651.989"/>
<path d="M 198.864 656.250 L 200.284 656.250"/>
<path d="M 220.170 656.250 L 221.591 656.250"/>
<path d="M 228.693 656.250 L 231.534 656.250"/>
<path d="M 238.636 656.250 L 240.057 656.250"/>
<path d="M 250.000 656.250 L 251.420 656.250"/>
<path d="M 406.250 656.250 L 407.670 656.250"/>
<path d="M 464.489 656.250 L 465.909 656.250"/>
<path d="M 473.011 656.250 L 481.534 656.250"/>
<path d="M 485.795 656.250 L 507.102 656.250"/>
<path d="M 549.716 656.250 L 556.818 656.250"/>
<path d="M 649.148 656.250 L 653.409 656.250"/>
<path d="M 701.705 656.250 L 704.545 656.250"/>
<path d="M 789.773 656.250 L 796.875 656.250"/>
<path d="M 799.716 656.250 L 806.818 656.250"/>
<path d="M 119.318 660.511 L 120.739 660.511"/>
<path d="M 144.886 660.511 L 147.727 660.511"/>
<path d="M 150.568 660.511 L 151.989 660.511"/>
<path d="M 227.273 660.511 L 228.693 660.511"/>
<path d="M 248.580 660.511 L 255.682 660.511"/>
<path d="M 258.523 660.511 L 262.784 660.511"/>
<path d="M 282.670 660.511 L 284.091 660.511"/>
<path d="M 353.693 660.511 L 355.114 660.511"/>
<path d="M 403.409 660.511 L 410.511 660.511"/>
<path d="M 413.352 660.511 L 414.773 660.511"/>
<path d="M 454.545 660.511 L 455.966 660.511"/>
<path d="M 473.011 660.511 L 484.375 660.511"/>
<path d="M 485.795 660.511 L 509.943 660.511"/>
<path d="M 538.352 660.511 L 542.614 660.511"/>
<path d="M 544.034 660.511 L 545.455 660.511"/>
<path d="M 548.295 660.511 L 549.716 660.511"/>
<path d="M 551.136 660.511 L 553.977 660.511"/>
<path d="M 694.602 660.511 L 698.864 660.511"/>
<path d="M 703.125 660.511 L 704.545 660.511"/>
<path d="M 785.511 660.511 L 788.352 660.511"/>
<path d="M 791.193 660.511 L 805.398 660.511"/>
<path d="M 140.625 664.773 L 149.148 664.773"/>
<path d="M 161.932 664.773 L 164.773 664.773"/>
<path d="M 166.193 664.773 L 170.455 664.773"/>
<path d="M 201.705 664.773 L 203.125 664.773"/>
<path d="M 232.955 664.773 L 234.375 664.773"/>
<path d="M 247.159 664.773 L 252.841 664.773"/>
<path d="M 258.523 664.773 L 262.784 664.773"/>
<path d="M 288.352 664.773 L 289.773 664.773"/>
<path d="M 348.011 664.773 L 349.432 664.773"/>
<path d="M 352.273 664.773 L 359.375 664.773"/>
<path d="M 416.193 664.773 L 417.614 664.773"/>
<path d="M 450.284 664.773 L 453.125 664.773"/>
<path d="M 477.273 664.773 L 481.534 664.773"/>
<path d="M 487.216 664.773 L 491.477 664.773"/>
<path d="M 492.898 664.773 L 494.318 664.773"/>
<path d="M 495.739 664.773 L 508.523 664.773"/>
<path d="M 512.784 664.773 L 518.466 664.773"/>
<path d="M 521.307 664.773 L 522.727 664.773"/>
<path d="M 535.511 664.773 L 552.557 664.773"/>
<path d="M 558.239 664.773 L 562.500 664.773"/>
<path d="M 690.341 664.773 L 693.182 664.773"/>
<path d="M 698.864 664.773 L 700.284 664.773"/>
<path d="M 765.625 664.773 L 767.045 664.773"/>
<path d="M 784.091 664.773 L 788.352 664.773"/>
<path d="M 791.193 664.773 L 792.614 664.773"/>
<path d="M 799.716 664.773 L 802.557 664.773"/>
<path d="M 139.205 669.034 L 140.625 669.034"/>
<path d="M 142.045 669.034 L 143.466 669.034"/>
<path d="M 147.727 669.034 L 149.148 669.034"/>
<path d="M 160.511 669.034 L 171.875 669.034"/>
<path d="M 242.898 669.034 L 248.580 669.034"/>
<path d="M 261.364 669.034 L 264.205 669.034"/>
<path d="M 350.852 669.034 L 352.273 669.034"/>
<path d="M 355.114 669.034 L 363.636 669.034"/>
<path d="M 365.057 669.034 L 366.477 669.034"/>
<path d="M 419.034 669.034 L 428.977 669.034"/>
<path d="M 482.955 669.034 L 485.795 669.034"/>
<path d="M 501.420 669.034 L 502.841 669.034"/>
<path d="M 504.261 669.034 L 505.682 669.034"/>
<path d="M 531.250 669.034 L 546.875 669.034"/>
<path d="M 559.659 669.034 L 562.500 669.034"/>
<path d="M 573.864 669.034 L 575.284 669.034"/>
<path d="M 681.818 669.034 L 683.239 669.034"/>
<path d="M 686.080 669.034 L 688.920 669.034"/>
<path d="M 693.182 669.034 L 696.023 669.034"/>
<path d="M 785.511 669.034 L 802.557 669.034"/>
<path d="M 139.205 673.295 L 143.466 673.295"/>
<path d="M 146.307 673.295 L 151.989 673.295"/>
<path d="M 159.091 673.295 L 161.932 673.295"/>
<path d="M 164.773 673.295 L 169.034 673.295"/>
<path d="M 248.580 673.295 L 250.000 673.295"/>
<path d="M 419.034 673.295 L 424.716 673.295"/>
<path d="M 470.170 673.295 L 471.591 673.295"/>
<path d="M 474.432 673.295 L 475.852 673.295"/>
<path d="M 505.682 673.295 L 507.102 673.295"/>
<path d="M 512.784 673.295 L 514.205 673.295"/>
<path d="M 536.932 673.295 L 538.352 673.295"/>
<path d="M 545.455 673.295 L 549.716 673.295"/>
<path d="M 561.080 673.295 L 563.920 673.295"/>
<path d="M 678.977 673.295 L 684.659 673.295"/>
<path d="M 752.841 673.295 L 754.261 673.295"/>
<path d="M 771.307 673.295 L 778.409 673.295"/>
<path d="M 785.511 673.295 L 786.932 673.295"/>
<path d="M 792.614 673.295 L 802.557 673.295"/>
<path d="M 105.114 677.557 L 109.375 677.557"/>
<path d="M 110.795 677.557 L 115.057 677.557"/>
<path d="M 126.420 677.557 L 150.568 677.557"/>
<path d="M 151.989 677.557 L 153.409 677.557"/>
<path d="M 267.045 677.557 L 268.466 677.557"/>
<path d="M 375.000 677.557 L 376.420 677.557"/>
<path d="M 475.852 677.557 L 487.216 677.557"/>
<path d="M 502.841 677.557 L 505.682 677.557"/>
<path d="M 507.102 677.557 L 508.523 677.557"/>
<path d="M 511.364 677.557 L 514.205 677.557"/>
<path d="M 539.773 677.557 L 542.614 677.557"/>
<path d="M 551.136 677.557 L 552.557 677.557"/>
<path d="M 553.977 677.557 L 555.398 677.557"/>
<path d="M 678.977 677.557 L 680.398 677.557"/>
<path d="M 768.466 677.557 L 778.409 677.557"/>
<path d="M 792.614 677.557 L 802.557 677.557"/>
<path d="M 839.489 677.557 L 840.909 677.557"/>
<path d="M 99.432 681.818 L 107.955 681.818"/>
<path d="M 136.364 681.818 L 147.727 681.818"/>
<path d="M 328.125 681.818 L 329.545 681.818"/>
<path d="M 365.057 681.818 L 366.477 681.818"/>
<path d="M 477.273 681.818 L 478.693 681.818"/>
<path d="M 481.534 681.818 L 484.375 681.818"/>
<path d="M 485.795 681.818 L 488.636 681.818"/>
<path d="M 502.841 681.818 L 507.102 681.818"/>
<path d="M 518.466 681.818 L 522.727 681.818"/>
<path d="M 553.977 681.818 L 559.659 681.818"/>
<path d="M 681.818 681.818 L 683.239 681.818"/>
<path d="M 764.205 681.818 L 765.625 681.818"/>
<path d="M 769.886 681.818 L 779.830 681.818"/>
<path d="M 788.352 681.818 L 803.977 681.818"/>
<path d="M 840.909 681.818 L 842.330 681.818"/>
<path d="M 90.909 686.080 L 107.955 686.080"/>
<path d="M 137.784 686.080 L 139.205 686.080"/>
<path d="M 140.625 686.080 L 147.727 686.080"/>
<path d="M 315.341 686.080 L 318.182 686.080"/>
<path d="M 370.739 686.080 L 372.159 686.080"/>
<path d="M 463.068 686.080 L 464.489 686.080"/>
<path d="M 481.534 686.080 L 490.057 686.080"/>
<path d="M 524.148 686.080 L 528.409 686.080"/>
<path d="M 555.398 686.080 L 563.920 686.080"/>
<path d="M 586.648 686.080 L 588.068 686.080"/>
<path d="M 764.205 686.080 L 778.409 686.080"/>
<path d="M 789.773 686.080 L 802.557 686.080"/>
<path d="M 806.818 686.080 L 808.239 686.080"/>
<path d="M 90.909 690.341 L 95.170 690.341"/>
<path d="M 96.591 690.341 L 103.693 690.341"/>
<path d="M 106.534 690.341 L 109.375 690.341"/>
<path d="M 139.205 690.341 L 143.466 690.341"/>
<path d="M 360.795 690.341 L 362.216 690.341"/>
<path d="M 366.477 690.341 L 367.898 690.341"/>
<path d="M 491.477 690.341 L 494.318 690.341"/>
<path d="M 512.784 690.341 L 514.205 690.341"/>
<path d="M 529.830 690.341 L 531.250 690.341"/>
<path d="M 532.670 690.341 L 534.091 690.341"/>
<path d="M 562.500 690.341 L 563.920 690.341"/>
<path d="M 585.227 690.341 L 588.068 690.341"/>
<path d="M 598.011 690.341 L 605.114 690.341"/>
<path d="M 616.477 690.341 L 619.318 690.341"/>
<path d="M 620.739 690.341 L 622.159 690.341"/>
<path d="M 646.307 690.341 L 647.727 690.341"/>
<path d="M 663.352 690.341 L 664.773 690.341"/>
<path d="M 724.432 690.341 L 725.852 690.341"/>
<path d="M 761.364 690.341 L 768.466 690.341"/>
<path d="M 775.568 690.341 L 778.409 690.341"/>
<path d="M 781.250 690.341 L 786.932 690.341"/>
<path d="M 792.614 690.341 L 794.034 690.341"/>
<path d="M 795.455 690.341 L 802.557 690.341"/>
<path d="M 803.977 690.341 L 811.080 690.341"/>
<path d="M 99.432 694.602 L 100.852 694.602"/>
<path d="M 136.364 694.602 L 142.045 694.602"/>
<path d="M 502.841 694.602 L 505.682 694.602"/>
<path d="M 511.364 694.602 L 512.784 694.602"/>
<path d="M 519.886 694.602 L 521.307 694.602"/>
<path d="M 539.773 694.602 L 544.034 694.602"/>
<path d="M 585.227 694.602 L 586.648 694.602"/>
<path d="M 598.011 694.602 L 599.432 694.602"/>
<path d="M 600.852 694.602 L 605.114 694.602"/>
<path d="M 649.148 694.602 L 651.989 694.602"/>
<path d="M 660.511 694.602 L 661.932 694.602"/>
<path d="M 718.750 694.602 L 720.170 694.602"/>
<path d="M 764.205 694.602 L 767.045 694.602"/>
<path d="M 774.148 694.602 L 789.773 694.602"/>
<path d="M 794.034 694.602 L 803.977 694.602"/>
<path d="M 805.398 694.602 L 808.239 694.602"/>
<path d="M 136.364 698.864 L 137.784 698.864"/>
<path d="M 139.205 698.864 L 140.625 698.864"/>
<path d="M 501.420 698.864 L 502.841 698.864"/>
<path d="M 525.568 698.864 L 535.511 698.864"/>
<path d="M 548.295 698.864 L 551.136 698.864"/>
<path d="M 572.443 698.864 L 575.284 698.864"/>
<path d="M 654.830 698.864 L 660.511 698.864"/>
<path d="M 711.648 698.864 L 713.068 698.864"/>
<path d="M 762.784 698.864 L 769.886 698.864"/>
<path d="M 774.148 698.864 L 786.932 698.864"/>
<path d="M 788.352 698.864 L 789.773 698.864"/>
<path d="M 796.875 698.864 L 802.557 698.864"/>
<path d="M 808.239 698.864 L 809.659 698.864"/>
<path d="M 132.102 703.125 L 134.943 703.125"/>
<path d="M 137.784 703.125 L 139.205 703.125"/>
<path d="M 319.602 703.125 L 321.023 703.125"/>
<path d="M 578.125 703.125 L 579.545 703.125"/>
<path d="M 589.489 703.125 L 592.330 703.125"/>
<path d="M 598.011 703.125 L 606.534 703.125"/>
<path d="M 634.943 703.125 L 639.205 703.125"/>
<path d="M 656.250 703.125 L 657.670 703.125"/>
<path d="M 705.966 703.125 L 707.386 703.125"/>
<path d="M 759.943 703.125 L 767.045 703.125"/>
<path d="M 775.568 703.125 L 789.773 703.125"/>
<path d="M 796.875 703.125 L 801.136 703.125"/>
<path d="M 130.682 707.386 L 132.102 707.386"/>
<path d="M 136.364 707.386 L 137.784 707.386"/>
<path d="M 588.068 707.386 L 589.489 707.386"/>
<path d="M 647.727 707.386 L 653.409 707.386"/>
<path d="M 654.830 707.386 L 656.250 707.386"/>
<path d="M 664.773 707.386 L 667.614 707.386"/>
<path d="M 758.523 707.386 L 762.784 707.386"/>
<path d="M 775.568 707.386 L 776.989 707.386"/>
<path d="M 781.250 707.386 L 791.193 707.386"/>
<path d="M 188.920 711.648 L 190.341 711.648"/>
<path d="M 524.148 711.648 L 525.568 711.648"/>
<path d="M 582.386 711.648 L 583.807 711.648"/>
<path d="M 585.227 711.648 L 586.648 711.648"/>
<path d="M 603.693 711.648 L 606.534 711.648"/>
<path d="M 660.511 711.648 L 661.932 711.648"/>
<path d="M 666.193 711.648 L 667.614 711.648"/>
<path d="M 693.182 711.648 L 694.602 711.648"/>
<path d="M 697.443 711.648 L 701.705 711.648"/>
<path d="M 757.102 711.648 L 759.943 711.648"/>
<path d="M 779.830 711.648 L 785.511 711.648"/>
<path d="M 788.352 711.648 L 789.773 711.648"/>
<path d="M 798.295 711.648 L 799.716 711.648"/>
<path d="M 188.920 715.909 L 190.341 715.909"/>
<path d="M 653.409 715.909 L 654.830 715.909"/>
<path d="M 673.295 715.909 L 686.080 715.909"/>
<path d="M 696.023 715.909 L 700.284 715.909"/>
<path d="M 764.205 715.909 L 765.625 715.909"/>
<path d="M 774.148 715.909 L 781.250 715.909"/>
<path d="M 782.670 715.909 L 785.511 715.909"/>
<path d="M 788.352 715.909 L 789.773 715.909"/>
<path d="M 798.295 715.909 L 799.716 715.909"/>
<path d="M 501.420 720.170 L 504.261 720.170"/>
<path d="M 508.523 720.170 L 509.943 720.170"/>
<path d="M 663.352 720.170 L 664.773 720.170"/>
<path d="M 677.557 720.170 L 681.818 720.170"/>
<path d="M 684.659 720.170 L 686.080 720.170"/>
<path d="M 694.602 720.170 L 704.545 720.170"/>
<path d="M 705.966 720.170 L 707.386 720.170"/>
<path d="M 731.534 720.170 L 732.955 720.170"/>
<path d="M 774.148 720.170 L 775.568 720.170"/>
<path d="M 784.091 720.170 L 786.932 720.170"/>
<path d="M 788.352 720.170 L 789.773 720.170"/>
<path d="M 796.875 720.170 L 798.295 720.170"/>
<path d="M 507.102 724.432 L 511.364 724.432"/>
<path d="M 669.034 724.432 L 674.716 724.432"/>
<path d="M 681.818 724.432 L 683.239 724.432"/>
<path d="M 687.500 724.432 L 691.761 724.432"/>
<path d="M 694.602 724.432 L 705.966 724.432"/>
<path d="M 785.511 724.432 L 789.773 724.432"/>
<path d="M 167.614 728.693 L 169.034 728.693"/>
<path d="M 495.739 728.693 L 497.159 728.693"/>
<path d="M 512.784 728.693 L 514.205 728.693"/>
<path d="M 667.614 728.693 L 669.034 728.693"/>
<path d="M 670.455 728.693 L 674.716 728.693"/>
<path d="M 687.500 728.693 L 688.920 728.693"/>
<path d="M 691.761 728.693 L 703.125 728.693"/>
<path d="M 711.648 728.693 L 713.068 728.693"/>
<path d="M 779.830 728.693 L 781.250 728.693"/>
<path d="M 697.443 732.955 L 701.705 732.955"/>
<path d="M 742.898 732.955 L 747.159 732.955"/>
<path d="M 188.920 737.216 L 190.341 737.216"/>
<path d="M 562.500 737.216 L 563.920 737.216"/>
<path d="M 741.477 737.216 L 751.420 737.216"/>
<path d="M 161.932 741.477 L 171.875 741.477"/>
<path d="M 465.909 741.477 L 467.330 741.477"/>
<path d="M 518.466 741.477 L 519.886 741.477"/>
<path d="M 528.409 741.477 L 529.830 741.477"/>
<path d="M 562.500 741.477 L 563.920 741.477"/>
<path d="M 569.602 741.477 L 571.023 741.477"/>
<path d="M 740.057 741.477 L 742.898 741.477"/>
<path d="M 745.739 741.477 L 752.841 741.477"/>
<path d="M 156.250 745.739 L 157.670 745.739"/>
<path d="M 161.932 745.739 L 164.773 745.739"/>
<path d="M 170.455 745.739 L 171.875 745.739"/>
<path d="M 181.818 745.739 L 184.659 745.739"/>
<path d="M 468.750 745.739 L 470.170 745.739"/>
<path d="M 549.716 745.739 L 551.136 745.739"/>
<path d="M 740.057 745.739 L 741.477 745.739"/>
<path d="M 744.318 745.739 L 754.261 745.739"/>
<path d="M 157.670 750.000 L 167.614 750.000"/>
<path d="M 178.977 750.000 L 180.398 750.000"/>
<path d="M 183.239 750.000 L 184.659 750.000"/>
<path d="M 187.500 750.000 L 188.920 750.000"/>
<path d="M 470.170 750.000 L 473.011 750.000"/>
<path d="M 482.955 750.000 L 484.375 750.000"/>
<path d="M 485.795 750.000 L 487.216 750.000"/>
<path d="M 535.511 750.000 L 536.932 750.000"/>
<path d="M 738.636 750.000 L 741.477 750.000"/>
<path d="M 744.318 750.000 L 745.739 750.000"/>
<path d="M 747.159 750.000 L 754.261 750.000"/>
<path d="M 159.091 754.261 L 166.193 754.261"/>
<path d="M 173.295 754.261 L 174.716 754.261"/>
<path d="M 737.216 754.261 L 755.682 754.261"/>
<path d="M 169.034 758.523 L 170.455 758.523"/>
<path d="M 171.875 758.523 L 173.295 758.523"/>
<path d="M 561.080 758.523 L 562.500 758.523"/>
<path d="M 737.216 758.523 L 747.159 758.523"/>
<path d="M 748.580 758.523 L 754.261 758.523"/>
<path d="M 737.216 762.784 L 754.261 762.784"/>
<path d="M 694.602 767.045 L 696.023 767.045"/>
<path d="M 737.216 767.045 L 754.261 767.045"/>
<path d="M 745.739 771.307 L 752.841 771.307"/>
<path d="M 751.420 775.568 L 752.841 775.568"/>
<path d="M 723.011 788.352 L 727.273 788.352"/>
<path d="M 723.011 792.614 L 730.114 792.614"/>
<path d="M 720.170 796.875 L 734.375 796.875"/>
<path d="M 721.591 801.136 L 724.432 801.136"/>
<path d="M 725.852 801.136 L 727.273 801.136"/>
<path d="M 731.534 801.136 L 734.375 801.136"/>
<path d="M 721.591 805.398 L 727.273 805.398"/>
<path d="M 728.693 805.398 L 734.375 805.398"/>
<path d="M 724.432 809.659 L 735.795 809.659"/>
<path d="M 728.693 813.920 L 735.795 813.920"/>
<path d="M 717.330 822.443 L 724.432 822.443"/>
<path d="M 714.489 826.705 L 717.330 826.705"/>
<path d="M 724.432 826.705 L 728.693 826.705"/>
<path d="M 713.068 830.966 L 714.489 830.966"/>
<path d="M 725.852 830.966 L 732.955 830.966"/>
<path d="M 710.227 835.227 L 711.648 835.227"/>
<path d="M 734.375 835.227 L 735.795 835.227"/>
<path d="M 738.636 835.227 L 740.057 835.227"/>
<path d="M 708.807 839.489 L 710.227 839.489"/>
<path d="M 698.864 843.750 L 700.284 843.750"/>
<path d="M 707.386 848.011 L 708.807 848.011"/>
<path d="M 705.966 852.273 L 707.386 852.273"/>
<path d="M 704.545 856.534 L 705.966 856.534"/>
<path d="M 703.125 860.795 L 704.545 860.795"/>
<path d="M 701.705 865.057 L 704.545 865.057"/>
<path d="M 686.080 869.318 L 687.500 869.318"/>
<path d="M 700.284 869.318 L 701.705 869.318"/>
<path d="M 700.284 873.580 L 703.125 873.580"/>
<path d="M 694.602 877.841 L 696.023 877.841"/>
<path d="M 701.705 877.841 L 703.125 877.841"/>
<path d="M 694.602 882.102 L 696.023 882.102"/>
<path d="M 701.705 882.102 L 703.125 882.102"/>
<path d="M 701.705 886.364 L 703.125 886.364"/>
<path d="M 701.705 890.625 L 703.125 890.625"/>
<path d="M 700.284 894.886 L 701.705 894.886"/>
<path d="M 700.284 899.148 L 701.705 899.148"/>
<path d="M 698.864 903.409 L 700.284 903.409"/>
<path d="M 703.125 907.670 L 704.545 907.670"/>
</g>
</svg>
