<?xml version="1.0" encoding="UTF-8"?>
<svg xmlns="http://www.w3.org/2000/svg" width="1000.000mm" height="944.602mm" viewBox="0 0 1000.000 944.602">
<metadata>HatchSmith © FIWAtec GmbH</metadata>
<rect x="0" y="0" width="100%" height="100%" fill="white"/>
<g id="06_layer_06" stroke="#C7C5CA" stroke-width="1.000" stroke-linecap="round" stroke-linejoin="round" fill="none">
<path d="M 571.023 72.443 L 573.864 72.443"/>
<path d="M 602.273 72.443 L 622.159 72.443"/>
<path d="M 556.818 76.705 L 558.239 76.705"/>
<path d="M 623.580 76.705 L 625.000 76.705"/>
<path d="M 627.841 76.705 L 637.784 76.705"/>
<path d="M 644.886 76.705 L 646.307 76.705"/>
<path d="M 546.875 80.966 L 548.295 80.966"/>
<path d="M 642.045 80.966 L 647.727 80.966"/>
<path d="M 623.580 85.227 L 634.943 85.227"/>
<path d="M 647.727 85.227 L 653.409 85.227"/>
<path d="M 656.250 85.227 L 660.511 85.227"/>
<path d="M 535.511 89.489 L 536.932 89.489"/>
<path d="M 619.318 89.489 L 630.682 89.489"/>
<path d="M 643.466 89.489 L 653.409 89.489"/>
<path d="M 661.932 89.489 L 666.193 89.489"/>
<path d="M 617.898 93.750 L 620.739 93.750"/>
<path d="M 629.261 93.750 L 634.943 93.750"/>
<path d="M 659.091 93.750 L 661.932 93.750"/>
<path d="M 664.773 93.750 L 666.193 93.750"/>
<path d="M 607.955 98.011 L 627.841 98.011"/>
<path d="M 633.523 98.011 L 634.943 98.011"/>
<path d="M 636.364 98.011 L 637.784 98.011"/>
<path d="M 640.625 98.011 L 642.045 98.011"/>
<path d="M 643.466 98.011 L 646.307 98.011"/>
<path d="M 660.511 98.011 L 663.352 98.011"/>
<path d="M 667.614 98.011 L 669.034 98.011"/>
<path d="M 674.716 98.011 L 677.557 98.011"/>
<path d="M 625.000 102.273 L 634.943 102.273"/>
<path d="M 644.886 102.273 L 649.148 102.273"/>
<path d="M 657.670 102.273 L 660.511 102.273"/>
<path d="M 661.932 102.273 L 664.773 102.273"/>
<path d="M 626.420 106.534 L 627.841 106.534"/>
<path d="M 646.307 106.534 L 654.830 106.534"/>
<path d="M 667.614 106.534 L 670.455 106.534"/>
<path d="M 676.136 106.534 L 677.557 106.534"/>
<path d="M 643.466 110.795 L 647.727 110.795"/>
<path d="M 666.193 110.795 L 669.034 110.795"/>
<path d="M 512.784 115.057 L 514.205 115.057"/>
<path d="M 666.193 115.057 L 667.614 115.057"/>
<path d="M 649.148 119.318 L 651.989 119.318"/>
<path d="M 663.352 119.318 L 666.193 119.318"/>
<path d="M 667.614 119.318 L 669.034 119.318"/>
<path d="M 653.409 123.580 L 654.830 123.580"/>
<path d="M 657.670 123.580 L 660.511 123.580"/>
<path d="M 661.932 123.580 L 667.614 123.580"/>
<path d="M 498.580 140.625 L 500.000 140.625"/>
<path d="M 696.023 144.886 L 697.443 144.886"/>
<path d="M 471.591 149.148 L 473.011 149.148"/>
<path d="M 481.534 149.148 L 490.057 149.148"/>
<path d="M 431.818 153.409 L 451.705 153.409"/>
<path d="M 470.170 153.409 L 481.534 153.409"/>
<path d="M 417.614 157.670 L 419.034 157.670"/>
<path d="M 426.136 157.670 L 428.977 157.670"/>
<path d="M 451.705 157.670 L 457.386 157.670"/>
<path d="M 414.773 161.932 L 416.193 161.932"/>
<path d="M 419.034 161.932 L 420.455 161.932"/>
<path d="M 394.886 166.193 L 396.307 166.193"/>
<path d="M 411.932 166.193 L 414.773 166.193"/>
<path d="M 403.409 170.455 L 404.830 170.455"/>
<path d="M 430.398 170.455 L 433.239 170.455"/>
<path d="M 413.352 174.716 L 414.773 174.716"/>
<path d="M 437.500 174.716 L 438.920 174.716"/>
<path d="M 696.023 174.716 L 697.443 174.716"/>
<path d="M 383.523 187.500 L 384.943 187.500"/>
<path d="M 694.602 187.500 L 696.023 187.500"/>
<path d="M 690.341 204.545 L 691.761 204.545"/>
<path d="M 399.148 213.068 L 400.568 213.068"/>
<path d="M 494.318 213.068 L 497.159 213.068"/>
<path d="M 504.261 213.068 L 507.102 213.068"/>
<path d="M 492.898 217.330 L 495.739 217.330"/>
<path d="M 507.102 217.330 L 508.523 217.330"/>
<path d="M 492.898 221.591 L 495.739 221.591"/>
<path d="M 504.261 221.591 L 507.102 221.591"/>
<path d="M 718.750 221.591 L 720.170 221.591"/>
<path d="M 495.739 225.852 L 504.261 225.852"/>
<path d="M 524.148 230.114 L 526.989 230.114"/>
<path d="M 518.466 234.375 L 519.886 234.375"/>
<path d="M 737.216 234.375 L 738.636 234.375"/>
<path d="M 511.364 238.636 L 515.625 238.636"/>
<path d="M 517.045 238.636 L 518.466 238.636"/>
<path d="M 498.580 242.898 L 505.682 242.898"/>
<path d="M 599.432 242.898 L 600.852 242.898"/>
<path d="M 605.114 242.898 L 610.795 242.898"/>
<path d="M 492.898 247.159 L 495.739 247.159"/>
<path d="M 589.489 247.159 L 593.750 247.159"/>
<path d="M 599.432 247.159 L 606.534 247.159"/>
<path d="M 607.955 247.159 L 616.477 247.159"/>
<path d="M 433.239 251.420 L 434.659 251.420"/>
<path d="M 487.216 251.420 L 492.898 251.420"/>
<path d="M 579.545 251.420 L 585.227 251.420"/>
<path d="M 596.591 251.420 L 598.011 251.420"/>
<path d="M 605.114 251.420 L 607.955 251.420"/>
<path d="M 613.636 251.420 L 617.898 251.420"/>
<path d="M 424.716 255.682 L 426.136 255.682"/>
<path d="M 428.977 255.682 L 444.602 255.682"/>
<path d="M 468.750 255.682 L 470.170 255.682"/>
<path d="M 517.045 255.682 L 518.466 255.682"/>
<path d="M 576.705 255.682 L 579.545 255.682"/>
<path d="M 593.750 255.682 L 595.170 255.682"/>
<path d="M 598.011 255.682 L 603.693 255.682"/>
<path d="M 609.375 255.682 L 612.216 255.682"/>
<path d="M 615.057 255.682 L 616.477 255.682"/>
<path d="M 427.557 259.943 L 431.818 259.943"/>
<path d="M 438.920 259.943 L 440.341 259.943"/>
<path d="M 518.466 259.943 L 522.727 259.943"/>
<path d="M 575.284 259.943 L 578.125 259.943"/>
<path d="M 605.114 259.943 L 607.955 259.943"/>
<path d="M 610.795 259.943 L 615.057 259.943"/>
<path d="M 426.136 264.205 L 427.557 264.205"/>
<path d="M 430.398 264.205 L 431.818 264.205"/>
<path d="M 441.761 264.205 L 443.182 264.205"/>
<path d="M 468.750 264.205 L 470.170 264.205"/>
<path d="M 575.284 264.205 L 576.705 264.205"/>
<path d="M 592.330 264.205 L 599.432 264.205"/>
<path d="M 606.534 264.205 L 613.636 264.205"/>
<path d="M 653.409 264.205 L 661.932 264.205"/>
<path d="M 750.000 264.205 L 751.420 264.205"/>
<path d="M 401.989 268.466 L 403.409 268.466"/>
<path d="M 465.909 268.466 L 470.170 268.466"/>
<path d="M 471.591 268.466 L 473.011 268.466"/>
<path d="M 572.443 268.466 L 575.284 268.466"/>
<path d="M 589.489 268.466 L 592.330 268.466"/>
<path d="M 595.170 268.466 L 599.432 268.466"/>
<path d="M 603.693 268.466 L 610.795 268.466"/>
<path d="M 615.057 268.466 L 622.159 268.466"/>
<path d="M 640.625 268.466 L 657.670 268.466"/>
<path d="M 400.568 272.727 L 401.989 272.727"/>
<path d="M 446.023 272.727 L 447.443 272.727"/>
<path d="M 463.068 272.727 L 464.489 272.727"/>
<path d="M 575.284 272.727 L 576.705 272.727"/>
<path d="M 579.545 272.727 L 580.966 272.727"/>
<path d="M 586.648 272.727 L 589.489 272.727"/>
<path d="M 590.909 272.727 L 592.330 272.727"/>
<path d="M 599.432 272.727 L 600.852 272.727"/>
<path d="M 610.795 272.727 L 612.216 272.727"/>
<path d="M 630.682 272.727 L 632.102 272.727"/>
<path d="M 644.886 272.727 L 651.989 272.727"/>
<path d="M 420.455 276.989 L 421.875 276.989"/>
<path d="M 440.341 276.989 L 441.761 276.989"/>
<path d="M 464.489 276.989 L 465.909 276.989"/>
<path d="M 522.727 276.989 L 525.568 276.989"/>
<path d="M 572.443 276.989 L 578.125 276.989"/>
<path d="M 642.045 276.989 L 644.886 276.989"/>
<path d="M 747.159 276.989 L 750.000 276.989"/>
<path d="M 754.261 276.989 L 755.682 276.989"/>
<path d="M 407.670 281.250 L 411.932 281.250"/>
<path d="M 416.193 281.250 L 417.614 281.250"/>
<path d="M 446.023 281.250 L 453.125 281.250"/>
<path d="M 463.068 281.250 L 464.489 281.250"/>
<path d="M 585.227 281.250 L 586.648 281.250"/>
<path d="M 634.943 281.250 L 636.364 281.250"/>
<path d="M 750.000 281.250 L 752.841 281.250"/>
<path d="M 755.682 281.250 L 757.102 281.250"/>
<path d="M 407.670 285.511 L 411.932 285.511"/>
<path d="M 416.193 285.511 L 417.614 285.511"/>
<path d="M 441.761 285.511 L 443.182 285.511"/>
<path d="M 457.386 285.511 L 458.807 285.511"/>
<path d="M 461.648 285.511 L 463.068 285.511"/>
<path d="M 585.227 285.511 L 586.648 285.511"/>
<path d="M 592.330 285.511 L 595.170 285.511"/>
<path d="M 625.000 285.511 L 626.420 285.511"/>
<path d="M 741.477 285.511 L 748.580 285.511"/>
<path d="M 752.841 285.511 L 755.682 285.511"/>
<path d="M 759.943 285.511 L 761.364 285.511"/>
<path d="M 767.045 285.511 L 768.466 285.511"/>
<path d="M 377.841 289.773 L 379.261 289.773"/>
<path d="M 419.034 289.773 L 420.455 289.773"/>
<path d="M 454.545 289.773 L 460.227 289.773"/>
<path d="M 468.750 289.773 L 470.170 289.773"/>
<path d="M 522.727 289.773 L 524.148 289.773"/>
<path d="M 559.659 289.773 L 561.080 289.773"/>
<path d="M 613.636 289.773 L 617.898 289.773"/>
<path d="M 738.636 289.773 L 751.420 289.773"/>
<path d="M 755.682 289.773 L 758.523 289.773"/>
<path d="M 762.784 289.773 L 764.205 289.773"/>
<path d="M 767.045 289.773 L 768.466 289.773"/>
<path d="M 436.080 294.034 L 437.500 294.034"/>
<path d="M 447.443 294.034 L 453.125 294.034"/>
<path d="M 508.523 294.034 L 509.943 294.034"/>
<path d="M 551.136 294.034 L 555.398 294.034"/>
<path d="M 592.330 294.034 L 593.750 294.034"/>
<path d="M 596.591 294.034 L 602.273 294.034"/>
<path d="M 603.693 294.034 L 609.375 294.034"/>
<path d="M 710.227 294.034 L 711.648 294.034"/>
<path d="M 734.375 294.034 L 740.057 294.034"/>
<path d="M 745.739 294.034 L 754.261 294.034"/>
<path d="M 758.523 294.034 L 761.364 294.034"/>
<path d="M 765.625 294.034 L 767.045 294.034"/>
<path d="M 769.886 294.034 L 774.148 294.034"/>
<path d="M 380.682 298.295 L 382.102 298.295"/>
<path d="M 515.625 298.295 L 517.045 298.295"/>
<path d="M 522.727 298.295 L 524.148 298.295"/>
<path d="M 541.193 298.295 L 545.455 298.295"/>
<path d="M 711.648 298.295 L 713.068 298.295"/>
<path d="M 728.693 298.295 L 732.955 298.295"/>
<path d="M 751.420 298.295 L 755.682 298.295"/>
<path d="M 761.364 298.295 L 764.205 298.295"/>
<path d="M 768.466 298.295 L 771.307 298.295"/>
<path d="M 776.989 298.295 L 778.409 298.295"/>
<path d="M 781.250 298.295 L 782.670 298.295"/>
<path d="M 357.955 302.557 L 359.375 302.557"/>
<path d="M 380.682 302.557 L 383.523 302.557"/>
<path d="M 393.466 302.557 L 403.409 302.557"/>
<path d="M 433.239 302.557 L 434.659 302.557"/>
<path d="M 436.080 302.557 L 437.500 302.557"/>
<path d="M 497.159 302.557 L 504.261 302.557"/>
<path d="M 536.932 302.557 L 539.773 302.557"/>
<path d="M 715.909 302.557 L 723.011 302.557"/>
<path d="M 751.420 302.557 L 754.261 302.557"/>
<path d="M 759.943 302.557 L 761.364 302.557"/>
<path d="M 764.205 302.557 L 765.625 302.557"/>
<path d="M 767.045 302.557 L 768.466 302.557"/>
<path d="M 774.148 302.557 L 775.568 302.557"/>
<path d="M 372.159 306.818 L 373.580 306.818"/>
<path d="M 399.148 306.818 L 404.830 306.818"/>
<path d="M 497.159 306.818 L 498.580 306.818"/>
<path d="M 522.727 306.818 L 524.148 306.818"/>
<path d="M 532.670 306.818 L 535.511 306.818"/>
<path d="M 748.580 306.818 L 751.420 306.818"/>
<path d="M 752.841 306.818 L 754.261 306.818"/>
<path d="M 757.102 306.818 L 759.943 306.818"/>
<path d="M 372.159 311.080 L 373.580 311.080"/>
<path d="M 401.989 311.080 L 406.250 311.080"/>
<path d="M 451.705 311.080 L 453.125 311.080"/>
<path d="M 747.159 311.080 L 748.580 311.080"/>
<path d="M 750.000 311.080 L 751.420 311.080"/>
<path d="M 755.682 311.080 L 757.102 311.080"/>
<path d="M 761.364 311.080 L 764.205 311.080"/>
<path d="M 769.886 311.080 L 771.307 311.080"/>
<path d="M 774.148 311.080 L 775.568 311.080"/>
<path d="M 352.273 315.341 L 353.693 315.341"/>
<path d="M 404.830 315.341 L 406.250 315.341"/>
<path d="M 446.023 315.341 L 448.864 315.341"/>
<path d="M 744.318 315.341 L 748.580 315.341"/>
<path d="M 752.841 315.341 L 754.261 315.341"/>
<path d="M 759.943 315.341 L 761.364 315.341"/>
<path d="M 768.466 315.341 L 772.727 315.341"/>
<path d="M 784.091 315.341 L 788.352 315.341"/>
<path d="M 389.205 319.602 L 394.886 319.602"/>
<path d="M 740.057 319.602 L 745.739 319.602"/>
<path d="M 748.580 319.602 L 754.261 319.602"/>
<path d="M 759.943 319.602 L 761.364 319.602"/>
<path d="M 765.625 319.602 L 769.886 319.602"/>
<path d="M 779.830 319.602 L 788.352 319.602"/>
<path d="M 390.625 323.864 L 393.466 323.864"/>
<path d="M 517.045 323.864 L 518.466 323.864"/>
<path d="M 735.795 323.864 L 737.216 323.864"/>
<path d="M 738.636 323.864 L 741.477 323.864"/>
<path d="M 747.159 323.864 L 751.420 323.864"/>
<path d="M 762.784 323.864 L 768.466 323.864"/>
<path d="M 778.409 323.864 L 786.932 323.864"/>
<path d="M 383.523 328.125 L 387.784 328.125"/>
<path d="M 392.045 328.125 L 393.466 328.125"/>
<path d="M 502.841 328.125 L 504.261 328.125"/>
<path d="M 737.216 328.125 L 738.636 328.125"/>
<path d="M 745.739 328.125 L 748.580 328.125"/>
<path d="M 751.420 328.125 L 754.261 328.125"/>
<path d="M 761.364 328.125 L 762.784 328.125"/>
<path d="M 776.989 328.125 L 782.670 328.125"/>
<path d="M 382.102 332.386 L 387.784 332.386"/>
<path d="M 409.091 332.386 L 414.773 332.386"/>
<path d="M 734.375 332.386 L 735.795 332.386"/>
<path d="M 741.477 332.386 L 747.159 332.386"/>
<path d="M 750.000 332.386 L 755.682 332.386"/>
<path d="M 758.523 332.386 L 764.205 332.386"/>
<path d="M 774.148 332.386 L 779.830 332.386"/>
<path d="M 383.523 336.648 L 389.205 336.648"/>
<path d="M 406.250 336.648 L 413.352 336.648"/>
<path d="M 467.330 336.648 L 468.750 336.648"/>
<path d="M 497.159 336.648 L 498.580 336.648"/>
<path d="M 740.057 336.648 L 744.318 336.648"/>
<path d="M 747.159 336.648 L 752.841 336.648"/>
<path d="M 755.682 336.648 L 759.943 336.648"/>
<path d="M 772.727 336.648 L 774.148 336.648"/>
<path d="M 776.989 336.648 L 778.409 336.648"/>
<path d="M 376.420 340.909 L 379.261 340.909"/>
<path d="M 384.943 340.909 L 387.784 340.909"/>
<path d="M 406.250 340.909 L 411.932 340.909"/>
<path d="M 465.909 340.909 L 468.750 340.909"/>
<path d="M 514.205 340.909 L 515.625 340.909"/>
<path d="M 730.114 340.909 L 731.534 340.909"/>
<path d="M 737.216 340.909 L 742.898 340.909"/>
<path d="M 745.739 340.909 L 750.000 340.909"/>
<path d="M 752.841 340.909 L 758.523 340.909"/>
<path d="M 375.000 345.170 L 380.682 345.170"/>
<path d="M 431.818 345.170 L 434.659 345.170"/>
<path d="M 465.909 345.170 L 468.750 345.170"/>
<path d="M 481.534 345.170 L 484.375 345.170"/>
<path d="M 723.011 345.170 L 730.114 345.170"/>
<path d="M 735.795 345.170 L 740.057 345.170"/>
<path d="M 744.318 345.170 L 748.580 345.170"/>
<path d="M 751.420 345.170 L 757.102 345.170"/>
<path d="M 768.466 345.170 L 772.727 345.170"/>
<path d="M 805.398 345.170 L 806.818 345.170"/>
<path d="M 376.420 349.432 L 382.102 349.432"/>
<path d="M 400.568 349.432 L 401.989 349.432"/>
<path d="M 464.489 349.432 L 468.750 349.432"/>
<path d="M 481.534 349.432 L 482.955 349.432"/>
<path d="M 599.432 349.432 L 600.852 349.432"/>
<path d="M 723.011 349.432 L 724.432 349.432"/>
<path d="M 735.795 349.432 L 737.216 349.432"/>
<path d="M 741.477 349.432 L 745.739 349.432"/>
<path d="M 750.000 349.432 L 754.261 349.432"/>
<path d="M 802.557 349.432 L 806.818 349.432"/>
<path d="M 338.068 353.693 L 339.489 353.693"/>
<path d="M 400.568 353.693 L 403.409 353.693"/>
<path d="M 578.125 353.693 L 580.966 353.693"/>
<path d="M 593.750 353.693 L 596.591 353.693"/>
<path d="M 598.011 353.693 L 600.852 353.693"/>
<path d="M 693.182 353.693 L 694.602 353.693"/>
<path d="M 720.170 353.693 L 723.011 353.693"/>
<path d="M 734.375 353.693 L 737.216 353.693"/>
<path d="M 740.057 353.693 L 744.318 353.693"/>
<path d="M 747.159 353.693 L 751.420 353.693"/>
<path d="M 799.716 353.693 L 803.977 353.693"/>
<path d="M 464.489 357.955 L 465.909 357.955"/>
<path d="M 600.852 357.955 L 605.114 357.955"/>
<path d="M 612.216 357.955 L 617.898 357.955"/>
<path d="M 715.909 357.955 L 720.170 357.955"/>
<path d="M 731.534 357.955 L 735.795 357.955"/>
<path d="M 738.636 357.955 L 742.898 357.955"/>
<path d="M 745.739 357.955 L 750.000 357.955"/>
<path d="M 768.466 357.955 L 769.886 357.955"/>
<path d="M 796.875 357.955 L 798.295 357.955"/>
<path d="M 313.920 362.216 L 315.341 362.216"/>
<path d="M 465.909 362.216 L 467.330 362.216"/>
<path d="M 468.750 362.216 L 470.170 362.216"/>
<path d="M 556.818 362.216 L 558.239 362.216"/>
<path d="M 598.011 362.216 L 599.432 362.216"/>
<path d="M 606.534 362.216 L 612.216 362.216"/>
<path d="M 619.318 362.216 L 620.739 362.216"/>
<path d="M 717.330 362.216 L 718.750 362.216"/>
<path d="M 730.114 362.216 L 732.955 362.216"/>
<path d="M 735.795 362.216 L 741.477 362.216"/>
<path d="M 745.739 362.216 L 747.159 362.216"/>
<path d="M 795.455 362.216 L 796.875 362.216"/>
<path d="M 171.875 366.477 L 173.295 366.477"/>
<path d="M 308.239 366.477 L 311.080 366.477"/>
<path d="M 313.920 366.477 L 315.341 366.477"/>
<path d="M 353.693 366.477 L 356.534 366.477"/>
<path d="M 613.636 366.477 L 619.318 366.477"/>
<path d="M 625.000 366.477 L 629.261 366.477"/>
<path d="M 707.386 366.477 L 708.807 366.477"/>
<path d="M 711.648 366.477 L 714.489 366.477"/>
<path d="M 727.273 366.477 L 730.114 366.477"/>
<path d="M 734.375 366.477 L 740.057 366.477"/>
<path d="M 742.898 366.477 L 747.159 366.477"/>
<path d="M 274.148 370.739 L 278.409 370.739"/>
<path d="M 279.830 370.739 L 281.250 370.739"/>
<path d="M 619.318 370.739 L 625.000 370.739"/>
<path d="M 705.966 370.739 L 708.807 370.739"/>
<path d="M 721.591 370.739 L 723.011 370.739"/>
<path d="M 724.432 370.739 L 728.693 370.739"/>
<path d="M 731.534 370.739 L 737.216 370.739"/>
<path d="M 740.057 370.739 L 744.318 370.739"/>
<path d="M 762.784 370.739 L 764.205 370.739"/>
<path d="M 765.625 370.739 L 767.045 370.739"/>
<path d="M 146.307 375.000 L 147.727 375.000"/>
<path d="M 210.227 375.000 L 211.648 375.000"/>
<path d="M 279.830 375.000 L 299.716 375.000"/>
<path d="M 357.955 375.000 L 360.795 375.000"/>
<path d="M 616.477 375.000 L 617.898 375.000"/>
<path d="M 637.784 375.000 L 640.625 375.000"/>
<path d="M 718.750 375.000 L 724.432 375.000"/>
<path d="M 728.693 375.000 L 732.955 375.000"/>
<path d="M 737.216 375.000 L 742.898 375.000"/>
<path d="M 761.364 375.000 L 762.784 375.000"/>
<path d="M 200.284 379.261 L 201.705 379.261"/>
<path d="M 204.545 379.261 L 205.966 379.261"/>
<path d="M 207.386 379.261 L 213.068 379.261"/>
<path d="M 227.273 379.261 L 228.693 379.261"/>
<path d="M 305.398 379.261 L 306.818 379.261"/>
<path d="M 438.920 379.261 L 441.761 379.261"/>
<path d="M 561.080 379.261 L 562.500 379.261"/>
<path d="M 573.864 379.261 L 575.284 379.261"/>
<path d="M 620.739 379.261 L 625.000 379.261"/>
<path d="M 632.102 379.261 L 634.943 379.261"/>
<path d="M 714.489 379.261 L 721.591 379.261"/>
<path d="M 724.432 379.261 L 730.114 379.261"/>
<path d="M 734.375 379.261 L 740.057 379.261"/>
<path d="M 758.523 379.261 L 761.364 379.261"/>
<path d="M 765.625 379.261 L 767.045 379.261"/>
<path d="M 191.761 383.523 L 204.545 383.523"/>
<path d="M 285.511 383.523 L 294.034 383.523"/>
<path d="M 305.398 383.523 L 306.818 383.523"/>
<path d="M 348.011 383.523 L 350.852 383.523"/>
<path d="M 436.080 383.523 L 438.920 383.523"/>
<path d="M 440.341 383.523 L 443.182 383.523"/>
<path d="M 556.818 383.523 L 563.920 383.523"/>
<path d="M 569.602 383.523 L 576.705 383.523"/>
<path d="M 580.966 383.523 L 589.489 383.523"/>
<path d="M 625.000 383.523 L 630.682 383.523"/>
<path d="M 711.648 383.523 L 717.330 383.523"/>
<path d="M 720.170 383.523 L 727.273 383.523"/>
<path d="M 731.534 383.523 L 737.216 383.523"/>
<path d="M 757.102 383.523 L 764.205 383.523"/>
<path d="M 767.045 383.523 L 769.886 383.523"/>
<path d="M 154.830 387.784 L 156.250 387.784"/>
<path d="M 271.307 387.784 L 274.148 387.784"/>
<path d="M 289.773 387.784 L 291.193 387.784"/>
<path d="M 305.398 387.784 L 308.239 387.784"/>
<path d="M 346.591 387.784 L 353.693 387.784"/>
<path d="M 437.500 387.784 L 438.920 387.784"/>
<path d="M 440.341 387.784 L 443.182 387.784"/>
<path d="M 453.125 387.784 L 455.966 387.784"/>
<path d="M 548.295 387.784 L 549.716 387.784"/>
<path d="M 556.818 387.784 L 561.080 387.784"/>
<path d="M 580.966 387.784 L 582.386 387.784"/>
<path d="M 592.330 387.784 L 595.170 387.784"/>
<path d="M 646.307 387.784 L 647.727 387.784"/>
<path d="M 705.966 387.784 L 713.068 387.784"/>
<path d="M 717.330 387.784 L 723.011 387.784"/>
<path d="M 727.273 387.784 L 732.955 387.784"/>
<path d="M 755.682 387.784 L 758.523 387.784"/>
<path d="M 764.205 387.784 L 765.625 387.784"/>
<path d="M 768.466 387.784 L 772.727 387.784"/>
<path d="M 291.193 392.045 L 296.875 392.045"/>
<path d="M 305.398 392.045 L 309.659 392.045"/>
<path d="M 345.170 392.045 L 355.114 392.045"/>
<path d="M 444.602 392.045 L 446.023 392.045"/>
<path d="M 471.591 392.045 L 473.011 392.045"/>
<path d="M 569.602 392.045 L 571.023 392.045"/>
<path d="M 572.443 392.045 L 575.284 392.045"/>
<path d="M 580.966 392.045 L 582.386 392.045"/>
<path d="M 596.591 392.045 L 598.011 392.045"/>
<path d="M 599.432 392.045 L 602.273 392.045"/>
<path d="M 637.784 392.045 L 640.625 392.045"/>
<path d="M 701.705 392.045 L 708.807 392.045"/>
<path d="M 713.068 392.045 L 718.750 392.045"/>
<path d="M 724.432 392.045 L 728.693 392.045"/>
<path d="M 752.841 392.045 L 757.102 392.045"/>
<path d="M 769.886 392.045 L 774.148 392.045"/>
<path d="M 34.091 396.307 L 35.511 396.307"/>
<path d="M 38.352 396.307 L 39.773 396.307"/>
<path d="M 282.670 396.307 L 284.091 396.307"/>
<path d="M 291.193 396.307 L 296.875 396.307"/>
<path d="M 305.398 396.307 L 312.500 396.307"/>
<path d="M 326.705 396.307 L 328.125 396.307"/>
<path d="M 350.852 396.307 L 356.534 396.307"/>
<path d="M 446.023 396.307 L 447.443 396.307"/>
<path d="M 453.125 396.307 L 454.545 396.307"/>
<path d="M 455.966 396.307 L 457.386 396.307"/>
<path d="M 549.716 396.307 L 552.557 396.307"/>
<path d="M 563.920 396.307 L 565.341 396.307"/>
<path d="M 569.602 396.307 L 578.125 396.307"/>
<path d="M 605.114 396.307 L 607.955 396.307"/>
<path d="M 697.443 396.307 L 704.545 396.307"/>
<path d="M 708.807 396.307 L 715.909 396.307"/>
<path d="M 718.750 396.307 L 724.432 396.307"/>
<path d="M 751.420 396.307 L 754.261 396.307"/>
<path d="M 771.307 396.307 L 775.568 396.307"/>
<path d="M 35.511 400.568 L 36.932 400.568"/>
<path d="M 142.045 400.568 L 143.466 400.568"/>
<path d="M 291.193 400.568 L 298.295 400.568"/>
<path d="M 306.818 400.568 L 315.341 400.568"/>
<path d="M 328.125 400.568 L 329.545 400.568"/>
<path d="M 440.341 400.568 L 441.761 400.568"/>
<path d="M 455.966 400.568 L 458.807 400.568"/>
<path d="M 471.591 400.568 L 473.011 400.568"/>
<path d="M 556.818 400.568 L 573.864 400.568"/>
<path d="M 609.375 400.568 L 615.057 400.568"/>
<path d="M 693.182 400.568 L 700.284 400.568"/>
<path d="M 704.545 400.568 L 710.227 400.568"/>
<path d="M 715.909 400.568 L 720.170 400.568"/>
<path d="M 748.580 400.568 L 751.420 400.568"/>
<path d="M 767.045 400.568 L 769.886 400.568"/>
<path d="M 772.727 400.568 L 776.989 400.568"/>
<path d="M 42.614 404.830 L 44.034 404.830"/>
<path d="M 85.227 404.830 L 86.648 404.830"/>
<path d="M 279.830 404.830 L 281.250 404.830"/>
<path d="M 295.455 404.830 L 299.716 404.830"/>
<path d="M 309.659 404.830 L 316.761 404.830"/>
<path d="M 328.125 404.830 L 330.966 404.830"/>
<path d="M 336.648 404.830 L 348.011 404.830"/>
<path d="M 549.716 404.830 L 551.136 404.830"/>
<path d="M 553.977 404.830 L 563.920 404.830"/>
<path d="M 582.386 404.830 L 588.068 404.830"/>
<path d="M 616.477 404.830 L 620.739 404.830"/>
<path d="M 688.920 404.830 L 694.602 404.830"/>
<path d="M 698.864 404.830 L 705.966 404.830"/>
<path d="M 710.227 404.830 L 711.648 404.830"/>
<path d="M 713.068 404.830 L 715.909 404.830"/>
<path d="M 744.318 404.830 L 747.159 404.830"/>
<path d="M 767.045 404.830 L 768.466 404.830"/>
<path d="M 779.830 404.830 L 781.250 404.830"/>
<path d="M 46.875 409.091 L 48.295 409.091"/>
<path d="M 58.239 409.091 L 66.761 409.091"/>
<path d="M 278.409 409.091 L 281.250 409.091"/>
<path d="M 311.080 409.091 L 315.341 409.091"/>
<path d="M 333.807 409.091 L 352.273 409.091"/>
<path d="M 551.136 409.091 L 552.557 409.091"/>
<path d="M 553.977 409.091 L 559.659 409.091"/>
<path d="M 568.182 409.091 L 580.966 409.091"/>
<path d="M 585.227 409.091 L 590.909 409.091"/>
<path d="M 595.170 409.091 L 598.011 409.091"/>
<path d="M 603.693 409.091 L 605.114 409.091"/>
<path d="M 622.159 409.091 L 626.420 409.091"/>
<path d="M 684.659 409.091 L 690.341 409.091"/>
<path d="M 694.602 409.091 L 701.705 409.091"/>
<path d="M 705.966 409.091 L 711.648 409.091"/>
<path d="M 741.477 409.091 L 742.898 409.091"/>
<path d="M 759.943 409.091 L 764.205 409.091"/>
<path d="M 768.466 409.091 L 771.307 409.091"/>
<path d="M 213.068 413.352 L 214.489 413.352"/>
<path d="M 276.989 413.352 L 279.830 413.352"/>
<path d="M 348.011 413.352 L 350.852 413.352"/>
<path d="M 453.125 413.352 L 454.545 413.352"/>
<path d="M 552.557 413.352 L 553.977 413.352"/>
<path d="M 556.818 413.352 L 559.659 413.352"/>
<path d="M 565.341 413.352 L 571.023 413.352"/>
<path d="M 580.966 413.352 L 583.807 413.352"/>
<path d="M 586.648 413.352 L 590.909 413.352"/>
<path d="M 599.432 413.352 L 603.693 413.352"/>
<path d="M 607.955 413.352 L 610.795 413.352"/>
<path d="M 627.841 413.352 L 632.102 413.352"/>
<path d="M 670.455 413.352 L 671.875 413.352"/>
<path d="M 674.716 413.352 L 676.136 413.352"/>
<path d="M 684.659 413.352 L 686.080 413.352"/>
<path d="M 690.341 413.352 L 696.023 413.352"/>
<path d="M 700.284 413.352 L 708.807 413.352"/>
<path d="M 737.216 413.352 L 742.898 413.352"/>
<path d="M 754.261 413.352 L 758.523 413.352"/>
<path d="M 765.625 413.352 L 771.307 413.352"/>
<path d="M 278.409 417.614 L 282.670 417.614"/>
<path d="M 328.125 417.614 L 338.068 417.614"/>
<path d="M 458.807 417.614 L 460.227 417.614"/>
<path d="M 556.818 417.614 L 561.080 417.614"/>
<path d="M 563.920 417.614 L 568.182 417.614"/>
<path d="M 582.386 417.614 L 583.807 417.614"/>
<path d="M 586.648 417.614 L 589.489 417.614"/>
<path d="M 605.114 417.614 L 609.375 417.614"/>
<path d="M 612.216 417.614 L 613.636 417.614"/>
<path d="M 632.102 417.614 L 634.943 417.614"/>
<path d="M 686.080 417.614 L 691.761 417.614"/>
<path d="M 697.443 417.614 L 701.705 417.614"/>
<path d="M 734.375 417.614 L 752.841 417.614"/>
<path d="M 762.784 417.614 L 767.045 417.614"/>
<path d="M 107.955 421.875 L 109.375 421.875"/>
<path d="M 281.250 421.875 L 286.932 421.875"/>
<path d="M 325.284 421.875 L 339.489 421.875"/>
<path d="M 450.284 421.875 L 451.705 421.875"/>
<path d="M 558.239 421.875 L 559.659 421.875"/>
<path d="M 565.341 421.875 L 569.602 421.875"/>
<path d="M 586.648 421.875 L 589.489 421.875"/>
<path d="M 609.375 421.875 L 610.795 421.875"/>
<path d="M 615.057 421.875 L 619.318 421.875"/>
<path d="M 634.943 421.875 L 640.625 421.875"/>
<path d="M 684.659 421.875 L 686.080 421.875"/>
<path d="M 691.761 421.875 L 697.443 421.875"/>
<path d="M 728.693 421.875 L 745.739 421.875"/>
<path d="M 758.523 421.875 L 762.784 421.875"/>
<path d="M 781.250 421.875 L 782.670 421.875"/>
<path d="M 784.091 421.875 L 785.511 421.875"/>
<path d="M 281.250 426.136 L 289.773 426.136"/>
<path d="M 448.864 426.136 L 451.705 426.136"/>
<path d="M 556.818 426.136 L 558.239 426.136"/>
<path d="M 566.761 426.136 L 571.023 426.136"/>
<path d="M 572.443 426.136 L 573.864 426.136"/>
<path d="M 586.648 426.136 L 590.909 426.136"/>
<path d="M 613.636 426.136 L 616.477 426.136"/>
<path d="M 620.739 426.136 L 622.159 426.136"/>
<path d="M 640.625 426.136 L 643.466 426.136"/>
<path d="M 686.080 426.136 L 687.500 426.136"/>
<path d="M 688.920 426.136 L 691.761 426.136"/>
<path d="M 693.182 426.136 L 694.602 426.136"/>
<path d="M 725.852 426.136 L 727.273 426.136"/>
<path d="M 728.693 426.136 L 734.375 426.136"/>
<path d="M 735.795 426.136 L 737.216 426.136"/>
<path d="M 751.420 426.136 L 757.102 426.136"/>
<path d="M 785.511 426.136 L 786.932 426.136"/>
<path d="M 132.102 430.398 L 133.523 430.398"/>
<path d="M 285.511 430.398 L 292.614 430.398"/>
<path d="M 316.761 430.398 L 328.125 430.398"/>
<path d="M 553.977 430.398 L 555.398 430.398"/>
<path d="M 556.818 430.398 L 558.239 430.398"/>
<path d="M 562.500 430.398 L 565.341 430.398"/>
<path d="M 566.761 430.398 L 569.602 430.398"/>
<path d="M 590.909 430.398 L 593.750 430.398"/>
<path d="M 617.898 430.398 L 620.739 430.398"/>
<path d="M 623.580 430.398 L 626.420 430.398"/>
<path d="M 643.466 430.398 L 647.727 430.398"/>
<path d="M 718.750 430.398 L 720.170 430.398"/>
<path d="M 721.591 430.398 L 725.852 430.398"/>
<path d="M 742.898 430.398 L 744.318 430.398"/>
<path d="M 745.739 430.398 L 748.580 430.398"/>
<path d="M 775.568 430.398 L 778.409 430.398"/>
<path d="M 781.250 430.398 L 784.091 430.398"/>
<path d="M 160.511 434.659 L 161.932 434.659"/>
<path d="M 289.773 434.659 L 291.193 434.659"/>
<path d="M 292.614 434.659 L 295.455 434.659"/>
<path d="M 322.443 434.659 L 326.705 434.659"/>
<path d="M 467.330 434.659 L 468.750 434.659"/>
<path d="M 563.920 434.659 L 566.761 434.659"/>
<path d="M 595.170 434.659 L 596.591 434.659"/>
<path d="M 602.273 434.659 L 603.693 434.659"/>
<path d="M 622.159 434.659 L 625.000 434.659"/>
<path d="M 629.261 434.659 L 632.102 434.659"/>
<path d="M 649.148 434.659 L 651.989 434.659"/>
<path d="M 715.909 434.659 L 725.852 434.659"/>
<path d="M 734.375 434.659 L 741.477 434.659"/>
<path d="M 769.886 434.659 L 772.727 434.659"/>
<path d="M 781.250 434.659 L 782.670 434.659"/>
<path d="M 129.261 438.920 L 130.682 438.920"/>
<path d="M 154.830 438.920 L 156.250 438.920"/>
<path d="M 254.261 438.920 L 255.682 438.920"/>
<path d="M 279.830 438.920 L 281.250 438.920"/>
<path d="M 302.557 438.920 L 313.920 438.920"/>
<path d="M 556.818 438.920 L 558.239 438.920"/>
<path d="M 563.920 438.920 L 566.761 438.920"/>
<path d="M 568.182 438.920 L 571.023 438.920"/>
<path d="M 612.216 438.920 L 613.636 438.920"/>
<path d="M 623.580 438.920 L 629.261 438.920"/>
<path d="M 633.523 438.920 L 636.364 438.920"/>
<path d="M 651.989 438.920 L 656.250 438.920"/>
<path d="M 713.068 438.920 L 718.750 438.920"/>
<path d="M 730.114 438.920 L 738.636 438.920"/>
<path d="M 768.466 438.920 L 772.727 438.920"/>
<path d="M 781.250 438.920 L 782.670 438.920"/>
<path d="M 272.727 443.182 L 274.148 443.182"/>
<path d="M 301.136 443.182 L 315.341 443.182"/>
<path d="M 460.227 443.182 L 463.068 443.182"/>
<path d="M 563.920 443.182 L 566.761 443.182"/>
<path d="M 568.182 443.182 L 571.023 443.182"/>
<path d="M 615.057 443.182 L 616.477 443.182"/>
<path d="M 619.318 443.182 L 620.739 443.182"/>
<path d="M 622.159 443.182 L 623.580 443.182"/>
<path d="M 626.420 443.182 L 633.523 443.182"/>
<path d="M 637.784 443.182 L 642.045 443.182"/>
<path d="M 656.250 443.182 L 660.511 443.182"/>
<path d="M 708.807 443.182 L 713.068 443.182"/>
<path d="M 730.114 443.182 L 735.795 443.182"/>
<path d="M 765.625 443.182 L 769.886 443.182"/>
<path d="M 782.670 443.182 L 785.511 443.182"/>
<path d="M 125.000 447.443 L 126.420 447.443"/>
<path d="M 262.784 447.443 L 264.205 447.443"/>
<path d="M 291.193 447.443 L 292.614 447.443"/>
<path d="M 294.034 447.443 L 308.239 447.443"/>
<path d="M 355.114 447.443 L 357.955 447.443"/>
<path d="M 359.375 447.443 L 360.795 447.443"/>
<path d="M 454.545 447.443 L 457.386 447.443"/>
<path d="M 556.818 447.443 L 558.239 447.443"/>
<path d="M 561.080 447.443 L 565.341 447.443"/>
<path d="M 568.182 447.443 L 569.602 447.443"/>
<path d="M 590.909 447.443 L 592.330 447.443"/>
<path d="M 622.159 447.443 L 623.580 447.443"/>
<path d="M 626.420 447.443 L 630.682 447.443"/>
<path d="M 633.523 447.443 L 637.784 447.443"/>
<path d="M 643.466 447.443 L 646.307 447.443"/>
<path d="M 659.091 447.443 L 666.193 447.443"/>
<path d="M 704.545 447.443 L 710.227 447.443"/>
<path d="M 724.432 447.443 L 730.114 447.443"/>
<path d="M 735.795 447.443 L 741.477 447.443"/>
<path d="M 767.045 447.443 L 771.307 447.443"/>
<path d="M 782.670 447.443 L 784.091 447.443"/>
<path d="M 107.955 451.705 L 110.795 451.705"/>
<path d="M 154.830 451.705 L 156.250 451.705"/>
<path d="M 176.136 451.705 L 177.557 451.705"/>
<path d="M 248.580 451.705 L 250.000 451.705"/>
<path d="M 254.261 451.705 L 255.682 451.705"/>
<path d="M 262.784 451.705 L 265.625 451.705"/>
<path d="M 301.136 451.705 L 308.239 451.705"/>
<path d="M 451.705 451.705 L 453.125 451.705"/>
<path d="M 559.659 451.705 L 565.341 451.705"/>
<path d="M 568.182 451.705 L 571.023 451.705"/>
<path d="M 626.420 451.705 L 627.841 451.705"/>
<path d="M 629.261 451.705 L 632.102 451.705"/>
<path d="M 636.364 451.705 L 643.466 451.705"/>
<path d="M 647.727 451.705 L 649.148 451.705"/>
<path d="M 664.773 451.705 L 671.875 451.705"/>
<path d="M 701.705 451.705 L 707.386 451.705"/>
<path d="M 720.170 451.705 L 724.432 451.705"/>
<path d="M 731.534 451.705 L 735.795 451.705"/>
<path d="M 765.625 451.705 L 768.466 451.705"/>
<path d="M 779.830 451.705 L 781.250 451.705"/>
<path d="M 784.091 451.705 L 785.511 451.705"/>
<path d="M 788.352 451.705 L 789.773 451.705"/>
<path d="M 792.614 451.705 L 794.034 451.705"/>
<path d="M 105.114 455.966 L 107.955 455.966"/>
<path d="M 149.148 455.966 L 150.568 455.966"/>
<path d="M 255.682 455.966 L 259.943 455.966"/>
<path d="M 262.784 455.966 L 267.045 455.966"/>
<path d="M 285.511 455.966 L 298.295 455.966"/>
<path d="M 559.659 455.966 L 565.341 455.966"/>
<path d="M 568.182 455.966 L 569.602 455.966"/>
<path d="M 640.625 455.966 L 644.886 455.966"/>
<path d="M 649.148 455.966 L 650.568 455.966"/>
<path d="M 666.193 455.966 L 667.614 455.966"/>
<path d="M 669.034 455.966 L 671.875 455.966"/>
<path d="M 673.295 455.966 L 677.557 455.966"/>
<path d="M 698.864 455.966 L 703.125 455.966"/>
<path d="M 718.750 455.966 L 720.170 455.966"/>
<path d="M 727.273 455.966 L 732.955 455.966"/>
<path d="M 761.364 455.966 L 765.625 455.966"/>
<path d="M 781.250 455.966 L 782.670 455.966"/>
<path d="M 784.091 455.966 L 786.932 455.966"/>
<path d="M 788.352 455.966 L 791.193 455.966"/>
<path d="M 252.841 460.227 L 257.102 460.227"/>
<path d="M 261.364 460.227 L 267.045 460.227"/>
<path d="M 288.352 460.227 L 296.875 460.227"/>
<path d="M 563.920 460.227 L 565.341 460.227"/>
<path d="M 566.761 460.227 L 569.602 460.227"/>
<path d="M 636.364 460.227 L 637.784 460.227"/>
<path d="M 642.045 460.227 L 646.307 460.227"/>
<path d="M 649.148 460.227 L 651.989 460.227"/>
<path d="M 666.193 460.227 L 669.034 460.227"/>
<path d="M 677.557 460.227 L 681.818 460.227"/>
<path d="M 696.023 460.227 L 700.284 460.227"/>
<path d="M 714.489 460.227 L 717.330 460.227"/>
<path d="M 724.432 460.227 L 730.114 460.227"/>
<path d="M 755.682 460.227 L 762.784 460.227"/>
<path d="M 788.352 460.227 L 791.193 460.227"/>
<path d="M 794.034 460.227 L 795.455 460.227"/>
<path d="M 251.420 464.489 L 255.682 464.489"/>
<path d="M 259.943 464.489 L 265.625 464.489"/>
<path d="M 269.886 464.489 L 271.307 464.489"/>
<path d="M 272.727 464.489 L 275.568 464.489"/>
<path d="M 313.920 464.489 L 321.023 464.489"/>
<path d="M 332.386 464.489 L 338.068 464.489"/>
<path d="M 444.602 464.489 L 446.023 464.489"/>
<path d="M 473.011 464.489 L 475.852 464.489"/>
<path d="M 568.182 464.489 L 569.602 464.489"/>
<path d="M 632.102 464.489 L 634.943 464.489"/>
<path d="M 636.364 464.489 L 646.307 464.489"/>
<path d="M 649.148 464.489 L 654.830 464.489"/>
<path d="M 656.250 464.489 L 660.511 464.489"/>
<path d="M 663.352 464.489 L 667.614 464.489"/>
<path d="M 678.977 464.489 L 683.239 464.489"/>
<path d="M 694.602 464.489 L 698.864 464.489"/>
<path d="M 714.489 464.489 L 715.909 464.489"/>
<path d="M 723.011 464.489 L 728.693 464.489"/>
<path d="M 778.409 464.489 L 779.830 464.489"/>
<path d="M 784.091 464.489 L 786.932 464.489"/>
<path d="M 788.352 464.489 L 792.614 464.489"/>
<path d="M 794.034 464.489 L 795.455 464.489"/>
<path d="M 251.420 468.750 L 252.841 468.750"/>
<path d="M 271.307 468.750 L 276.989 468.750"/>
<path d="M 316.761 468.750 L 321.023 468.750"/>
<path d="M 333.807 468.750 L 335.227 468.750"/>
<path d="M 338.068 468.750 L 339.489 468.750"/>
<path d="M 441.761 468.750 L 446.023 468.750"/>
<path d="M 558.239 468.750 L 561.080 468.750"/>
<path d="M 566.761 468.750 L 568.182 468.750"/>
<path d="M 634.943 468.750 L 636.364 468.750"/>
<path d="M 639.205 468.750 L 646.307 468.750"/>
<path d="M 650.568 468.750 L 653.409 468.750"/>
<path d="M 656.250 468.750 L 657.670 468.750"/>
<path d="M 660.511 468.750 L 663.352 468.750"/>
<path d="M 677.557 468.750 L 680.398 468.750"/>
<path d="M 687.500 468.750 L 688.920 468.750"/>
<path d="M 691.761 468.750 L 696.023 468.750"/>
<path d="M 718.750 468.750 L 724.432 468.750"/>
<path d="M 784.091 468.750 L 785.511 468.750"/>
<path d="M 788.352 468.750 L 792.614 468.750"/>
<path d="M 794.034 468.750 L 795.455 468.750"/>
<path d="M 88.068 473.011 L 89.489 473.011"/>
<path d="M 122.159 473.011 L 123.580 473.011"/>
<path d="M 143.466 473.011 L 146.307 473.011"/>
<path d="M 259.943 473.011 L 269.886 473.011"/>
<path d="M 271.307 473.011 L 272.727 473.011"/>
<path d="M 275.568 473.011 L 276.989 473.011"/>
<path d="M 318.182 473.011 L 323.864 473.011"/>
<path d="M 340.909 473.011 L 342.330 473.011"/>
<path d="M 441.761 473.011 L 443.182 473.011"/>
<path d="M 455.966 473.011 L 457.386 473.011"/>
<path d="M 642.045 473.011 L 643.466 473.011"/>
<path d="M 647.727 473.011 L 650.568 473.011"/>
<path d="M 656.250 473.011 L 660.511 473.011"/>
<path d="M 673.295 473.011 L 676.136 473.011"/>
<path d="M 680.398 473.011 L 691.761 473.011"/>
<path d="M 788.352 473.011 L 792.614 473.011"/>
<path d="M 95.170 477.273 L 98.011 477.273"/>
<path d="M 100.852 477.273 L 106.534 477.273"/>
<path d="M 110.795 477.273 L 113.636 477.273"/>
<path d="M 142.045 477.273 L 143.466 477.273"/>
<path d="M 264.205 477.273 L 269.886 477.273"/>
<path d="M 305.398 477.273 L 308.239 477.273"/>
<path d="M 322.443 477.273 L 329.545 477.273"/>
<path d="M 342.330 477.273 L 343.750 477.273"/>
<path d="M 406.250 477.273 L 414.773 477.273"/>
<path d="M 558.239 477.273 L 561.080 477.273"/>
<path d="M 566.761 477.273 L 569.602 477.273"/>
<path d="M 637.784 477.273 L 640.625 477.273"/>
<path d="M 643.466 477.273 L 647.727 477.273"/>
<path d="M 653.409 477.273 L 659.091 477.273"/>
<path d="M 666.193 477.273 L 670.455 477.273"/>
<path d="M 676.136 477.273 L 681.818 477.273"/>
<path d="M 688.920 477.273 L 690.341 477.273"/>
<path d="M 785.511 477.273 L 786.932 477.273"/>
<path d="M 788.352 477.273 L 792.614 477.273"/>
<path d="M 93.750 481.534 L 95.170 481.534"/>
<path d="M 140.625 481.534 L 143.466 481.534"/>
<path d="M 153.409 481.534 L 154.830 481.534"/>
<path d="M 157.670 481.534 L 161.932 481.534"/>
<path d="M 252.841 481.534 L 261.364 481.534"/>
<path d="M 262.784 481.534 L 264.205 481.534"/>
<path d="M 265.625 481.534 L 267.045 481.534"/>
<path d="M 268.466 481.534 L 269.886 481.534"/>
<path d="M 303.977 481.534 L 308.239 481.534"/>
<path d="M 325.284 481.534 L 336.648 481.534"/>
<path d="M 427.557 481.534 L 428.977 481.534"/>
<path d="M 505.682 481.534 L 507.102 481.534"/>
<path d="M 566.761 481.534 L 569.602 481.534"/>
<path d="M 572.443 481.534 L 578.125 481.534"/>
<path d="M 637.784 481.534 L 639.205 481.534"/>
<path d="M 650.568 481.534 L 656.250 481.534"/>
<path d="M 659.091 481.534 L 666.193 481.534"/>
<path d="M 680.398 481.534 L 696.023 481.534"/>
<path d="M 697.443 481.534 L 710.227 481.534"/>
<path d="M 751.420 481.534 L 755.682 481.534"/>
<path d="M 759.943 481.534 L 761.364 481.534"/>
<path d="M 789.773 481.534 L 794.034 481.534"/>
<path d="M 92.330 485.795 L 93.750 485.795"/>
<path d="M 137.784 485.795 L 143.466 485.795"/>
<path d="M 146.307 485.795 L 149.148 485.795"/>
<path d="M 221.591 485.795 L 223.011 485.795"/>
<path d="M 241.477 485.795 L 252.841 485.795"/>
<path d="M 261.364 485.795 L 262.784 485.795"/>
<path d="M 305.398 485.795 L 308.239 485.795"/>
<path d="M 330.966 485.795 L 342.330 485.795"/>
<path d="M 440.341 485.795 L 441.761 485.795"/>
<path d="M 568.182 485.795 L 569.602 485.795"/>
<path d="M 572.443 485.795 L 575.284 485.795"/>
<path d="M 576.705 485.795 L 579.545 485.795"/>
<path d="M 636.364 485.795 L 639.205 485.795"/>
<path d="M 649.148 485.795 L 651.989 485.795"/>
<path d="M 659.091 485.795 L 661.932 485.795"/>
<path d="M 667.614 485.795 L 683.239 485.795"/>
<path d="M 697.443 485.795 L 705.966 485.795"/>
<path d="M 717.330 485.795 L 718.750 485.795"/>
<path d="M 721.591 485.795 L 724.432 485.795"/>
<path d="M 740.057 485.795 L 742.898 485.795"/>
<path d="M 744.318 485.795 L 745.739 485.795"/>
<path d="M 758.523 485.795 L 761.364 485.795"/>
<path d="M 788.352 485.795 L 795.455 485.795"/>
<path d="M 136.364 490.057 L 146.307 490.057"/>
<path d="M 203.125 490.057 L 208.807 490.057"/>
<path d="M 214.489 490.057 L 220.170 490.057"/>
<path d="M 225.852 490.057 L 231.534 490.057"/>
<path d="M 245.739 490.057 L 255.682 490.057"/>
<path d="M 339.489 490.057 L 352.273 490.057"/>
<path d="M 441.761 490.057 L 443.182 490.057"/>
<path d="M 444.602 490.057 L 446.023 490.057"/>
<path d="M 568.182 490.057 L 569.602 490.057"/>
<path d="M 572.443 490.057 L 578.125 490.057"/>
<path d="M 600.852 490.057 L 605.114 490.057"/>
<path d="M 617.898 490.057 L 632.102 490.057"/>
<path d="M 633.523 490.057 L 637.784 490.057"/>
<path d="M 646.307 490.057 L 650.568 490.057"/>
<path d="M 656.250 490.057 L 657.670 490.057"/>
<path d="M 663.352 490.057 L 671.875 490.057"/>
<path d="M 690.341 490.057 L 697.443 490.057"/>
<path d="M 710.227 490.057 L 723.011 490.057"/>
<path d="M 742.898 490.057 L 751.420 490.057"/>
<path d="M 789.773 490.057 L 798.295 490.057"/>
<path d="M 89.489 494.318 L 90.909 494.318"/>
<path d="M 203.125 494.318 L 211.648 494.318"/>
<path d="M 215.909 494.318 L 217.330 494.318"/>
<path d="M 223.011 494.318 L 232.955 494.318"/>
<path d="M 245.739 494.318 L 251.420 494.318"/>
<path d="M 346.591 494.318 L 355.114 494.318"/>
<path d="M 437.500 494.318 L 441.761 494.318"/>
<path d="M 444.602 494.318 L 446.023 494.318"/>
<path d="M 563.920 494.318 L 568.182 494.318"/>
<path d="M 572.443 494.318 L 578.125 494.318"/>
<path d="M 595.170 494.318 L 596.591 494.318"/>
<path d="M 603.693 494.318 L 609.375 494.318"/>
<path d="M 612.216 494.318 L 613.636 494.318"/>
<path d="M 615.057 494.318 L 617.898 494.318"/>
<path d="M 619.318 494.318 L 623.580 494.318"/>
<path d="M 633.523 494.318 L 637.784 494.318"/>
<path d="M 643.466 494.318 L 647.727 494.318"/>
<path d="M 649.148 494.318 L 654.830 494.318"/>
<path d="M 669.034 494.318 L 676.136 494.318"/>
<path d="M 698.864 494.318 L 724.432 494.318"/>
<path d="M 791.193 494.318 L 799.716 494.318"/>
<path d="M 89.489 498.580 L 90.909 498.580"/>
<path d="M 122.159 498.580 L 127.841 498.580"/>
<path d="M 150.568 498.580 L 151.989 498.580"/>
<path d="M 286.932 498.580 L 288.352 498.580"/>
<path d="M 308.239 498.580 L 313.920 498.580"/>
<path d="M 431.818 498.580 L 438.920 498.580"/>
<path d="M 563.920 498.580 L 568.182 498.580"/>
<path d="M 572.443 498.580 L 580.966 498.580"/>
<path d="M 582.386 498.580 L 586.648 498.580"/>
<path d="M 634.943 498.580 L 639.205 498.580"/>
<path d="M 640.625 498.580 L 644.886 498.580"/>
<path d="M 647.727 498.580 L 651.989 498.580"/>
<path d="M 657.670 498.580 L 663.352 498.580"/>
<path d="M 669.034 498.580 L 673.295 498.580"/>
<path d="M 678.977 498.580 L 686.080 498.580"/>
<path d="M 90.909 502.841 L 92.330 502.841"/>
<path d="M 120.739 502.841 L 123.580 502.841"/>
<path d="M 149.148 502.841 L 151.989 502.841"/>
<path d="M 285.511 502.841 L 292.614 502.841"/>
<path d="M 309.659 502.841 L 321.023 502.841"/>
<path d="M 394.886 502.841 L 406.250 502.841"/>
<path d="M 423.295 502.841 L 428.977 502.841"/>
<path d="M 436.080 502.841 L 438.920 502.841"/>
<path d="M 563.920 502.841 L 568.182 502.841"/>
<path d="M 580.966 502.841 L 582.386 502.841"/>
<path d="M 636.364 502.841 L 637.784 502.841"/>
<path d="M 640.625 502.841 L 649.148 502.841"/>
<path d="M 654.830 502.841 L 659.091 502.841"/>
<path d="M 671.875 502.841 L 674.716 502.841"/>
<path d="M 683.239 502.841 L 684.659 502.841"/>
<path d="M 691.761 502.841 L 693.182 502.841"/>
<path d="M 792.614 502.841 L 795.455 502.841"/>
<path d="M 813.920 502.841 L 815.341 502.841"/>
<path d="M 90.909 507.102 L 92.330 507.102"/>
<path d="M 113.636 507.102 L 119.318 507.102"/>
<path d="M 137.784 507.102 L 140.625 507.102"/>
<path d="M 149.148 507.102 L 151.989 507.102"/>
<path d="M 286.932 507.102 L 294.034 507.102"/>
<path d="M 315.341 507.102 L 329.545 507.102"/>
<path d="M 333.807 507.102 L 335.227 507.102"/>
<path d="M 348.011 507.102 L 379.261 507.102"/>
<path d="M 393.466 507.102 L 421.875 507.102"/>
<path d="M 426.136 507.102 L 428.977 507.102"/>
<path d="M 563.920 507.102 L 571.023 507.102"/>
<path d="M 573.864 507.102 L 575.284 507.102"/>
<path d="M 636.364 507.102 L 637.784 507.102"/>
<path d="M 651.989 507.102 L 656.250 507.102"/>
<path d="M 686.080 507.102 L 687.500 507.102"/>
<path d="M 690.341 507.102 L 691.761 507.102"/>
<path d="M 697.443 507.102 L 700.284 507.102"/>
<path d="M 89.489 511.364 L 90.909 511.364"/>
<path d="M 110.795 511.364 L 116.477 511.364"/>
<path d="M 150.568 511.364 L 153.409 511.364"/>
<path d="M 169.034 511.364 L 171.875 511.364"/>
<path d="M 288.352 511.364 L 296.875 511.364"/>
<path d="M 322.443 511.364 L 333.807 511.364"/>
<path d="M 362.216 511.364 L 393.466 511.364"/>
<path d="M 399.148 511.364 L 416.193 511.364"/>
<path d="M 420.455 511.364 L 421.875 511.364"/>
<path d="M 563.920 511.364 L 566.761 511.364"/>
<path d="M 634.943 511.364 L 637.784 511.364"/>
<path d="M 650.568 511.364 L 654.830 511.364"/>
<path d="M 694.602 511.364 L 696.023 511.364"/>
<path d="M 704.545 511.364 L 705.966 511.364"/>
<path d="M 707.386 511.364 L 724.432 511.364"/>
<path d="M 744.318 511.364 L 750.000 511.364"/>
<path d="M 752.841 511.364 L 754.261 511.364"/>
<path d="M 795.455 511.364 L 796.875 511.364"/>
<path d="M 826.705 511.364 L 828.125 511.364"/>
<path d="M 115.057 515.625 L 116.477 515.625"/>
<path d="M 149.148 515.625 L 153.409 515.625"/>
<path d="M 167.614 515.625 L 169.034 515.625"/>
<path d="M 184.659 515.625 L 187.500 515.625"/>
<path d="M 271.307 515.625 L 272.727 515.625"/>
<path d="M 289.773 515.625 L 301.136 515.625"/>
<path d="M 372.159 515.625 L 373.580 515.625"/>
<path d="M 413.352 515.625 L 417.614 515.625"/>
<path d="M 563.920 515.625 L 566.761 515.625"/>
<path d="M 575.284 515.625 L 576.705 515.625"/>
<path d="M 634.943 515.625 L 637.784 515.625"/>
<path d="M 656.250 515.625 L 659.091 515.625"/>
<path d="M 710.227 515.625 L 713.068 515.625"/>
<path d="M 720.170 515.625 L 735.795 515.625"/>
<path d="M 738.636 515.625 L 740.057 515.625"/>
<path d="M 795.455 515.625 L 798.295 515.625"/>
<path d="M 125.000 519.886 L 126.420 519.886"/>
<path d="M 173.295 519.886 L 186.080 519.886"/>
<path d="M 198.864 519.886 L 201.705 519.886"/>
<path d="M 271.307 519.886 L 275.568 519.886"/>
<path d="M 298.295 519.886 L 305.398 519.886"/>
<path d="M 370.739 519.886 L 373.580 519.886"/>
<path d="M 410.511 519.886 L 413.352 519.886"/>
<path d="M 480.114 519.886 L 481.534 519.886"/>
<path d="M 562.500 519.886 L 571.023 519.886"/>
<path d="M 573.864 519.886 L 576.705 519.886"/>
<path d="M 600.852 519.886 L 602.273 519.886"/>
<path d="M 603.693 519.886 L 605.114 519.886"/>
<path d="M 634.943 519.886 L 636.364 519.886"/>
<path d="M 644.886 519.886 L 656.250 519.886"/>
<path d="M 772.727 519.886 L 778.409 519.886"/>
<path d="M 781.250 519.886 L 788.352 519.886"/>
<path d="M 795.455 519.886 L 798.295 519.886"/>
<path d="M 102.273 524.148 L 103.693 524.148"/>
<path d="M 115.057 524.148 L 119.318 524.148"/>
<path d="M 120.739 524.148 L 122.159 524.148"/>
<path d="M 127.841 524.148 L 133.523 524.148"/>
<path d="M 186.080 524.148 L 187.500 524.148"/>
<path d="M 201.705 524.148 L 203.125 524.148"/>
<path d="M 272.727 524.148 L 279.830 524.148"/>
<path d="M 285.511 524.148 L 286.932 524.148"/>
<path d="M 301.136 524.148 L 309.659 524.148"/>
<path d="M 387.784 524.148 L 390.625 524.148"/>
<path d="M 393.466 524.148 L 401.989 524.148"/>
<path d="M 406.250 524.148 L 407.670 524.148"/>
<path d="M 480.114 524.148 L 481.534 524.148"/>
<path d="M 562.500 524.148 L 566.761 524.148"/>
<path d="M 568.182 524.148 L 571.023 524.148"/>
<path d="M 573.864 524.148 L 576.705 524.148"/>
<path d="M 606.534 524.148 L 610.795 524.148"/>
<path d="M 633.523 524.148 L 636.364 524.148"/>
<path d="M 640.625 524.148 L 642.045 524.148"/>
<path d="M 649.148 524.148 L 654.830 524.148"/>
<path d="M 663.352 524.148 L 664.773 524.148"/>
<path d="M 718.750 524.148 L 721.591 524.148"/>
<path d="M 724.432 524.148 L 725.852 524.148"/>
<path d="M 728.693 524.148 L 732.955 524.148"/>
<path d="M 764.205 524.148 L 767.045 524.148"/>
<path d="M 771.307 524.148 L 772.727 524.148"/>
<path d="M 779.830 524.148 L 781.250 524.148"/>
<path d="M 788.352 524.148 L 796.875 524.148"/>
<path d="M 830.966 524.148 L 840.909 524.148"/>
<path d="M 117.898 528.409 L 120.739 528.409"/>
<path d="M 123.580 528.409 L 125.000 528.409"/>
<path d="M 188.920 528.409 L 190.341 528.409"/>
<path d="M 201.705 528.409 L 203.125 528.409"/>
<path d="M 276.989 528.409 L 282.670 528.409"/>
<path d="M 288.352 528.409 L 289.773 528.409"/>
<path d="M 308.239 528.409 L 316.761 528.409"/>
<path d="M 365.057 528.409 L 369.318 528.409"/>
<path d="M 375.000 528.409 L 380.682 528.409"/>
<path d="M 400.568 528.409 L 401.989 528.409"/>
<path d="M 562.500 528.409 L 569.602 528.409"/>
<path d="M 572.443 528.409 L 578.125 528.409"/>
<path d="M 609.375 528.409 L 613.636 528.409"/>
<path d="M 615.057 528.409 L 616.477 528.409"/>
<path d="M 632.102 528.409 L 634.943 528.409"/>
<path d="M 639.205 528.409 L 647.727 528.409"/>
<path d="M 651.989 528.409 L 656.250 528.409"/>
<path d="M 666.193 528.409 L 669.034 528.409"/>
<path d="M 737.216 528.409 L 742.898 528.409"/>
<path d="M 759.943 528.409 L 761.364 528.409"/>
<path d="M 772.727 528.409 L 774.148 528.409"/>
<path d="M 778.409 528.409 L 779.830 528.409"/>
<path d="M 784.091 528.409 L 788.352 528.409"/>
<path d="M 789.773 528.409 L 796.875 528.409"/>
<path d="M 836.648 528.409 L 849.432 528.409"/>
<path d="M 113.636 532.670 L 117.898 532.670"/>
<path d="M 123.580 532.670 L 125.000 532.670"/>
<path d="M 163.352 532.670 L 164.773 532.670"/>
<path d="M 188.920 532.670 L 190.341 532.670"/>
<path d="M 203.125 532.670 L 204.545 532.670"/>
<path d="M 315.341 532.670 L 325.284 532.670"/>
<path d="M 357.955 532.670 L 359.375 532.670"/>
<path d="M 363.636 532.670 L 365.057 532.670"/>
<path d="M 481.534 532.670 L 482.955 532.670"/>
<path d="M 561.080 532.670 L 563.920 532.670"/>
<path d="M 565.341 532.670 L 569.602 532.670"/>
<path d="M 573.864 532.670 L 579.545 532.670"/>
<path d="M 607.955 532.670 L 609.375 532.670"/>
<path d="M 612.216 532.670 L 617.898 532.670"/>
<path d="M 622.159 532.670 L 626.420 532.670"/>
<path d="M 629.261 532.670 L 634.943 532.670"/>
<path d="M 642.045 532.670 L 650.568 532.670"/>
<path d="M 676.136 532.670 L 677.557 532.670"/>
<path d="M 708.807 532.670 L 710.227 532.670"/>
<path d="M 713.068 532.670 L 714.489 532.670"/>
<path d="M 731.534 532.670 L 741.477 532.670"/>
<path d="M 745.739 532.670 L 751.420 532.670"/>
<path d="M 755.682 532.670 L 757.102 532.670"/>
<path d="M 759.943 532.670 L 761.364 532.670"/>
<path d="M 762.784 532.670 L 764.205 532.670"/>
<path d="M 776.989 532.670 L 778.409 532.670"/>
<path d="M 779.830 532.670 L 784.091 532.670"/>
<path d="M 791.193 532.670 L 795.455 532.670"/>
<path d="M 838.068 532.670 L 839.489 532.670"/>
<path d="M 843.750 532.670 L 856.534 532.670"/>
<path d="M 109.375 536.932 L 119.318 536.932"/>
<path d="M 125.000 536.932 L 126.420 536.932"/>
<path d="M 163.352 536.932 L 166.193 536.932"/>
<path d="M 188.920 536.932 L 191.761 536.932"/>
<path d="M 305.398 536.932 L 316.761 536.932"/>
<path d="M 322.443 536.932 L 332.386 536.932"/>
<path d="M 362.216 536.932 L 363.636 536.932"/>
<path d="M 561.080 536.932 L 562.500 536.932"/>
<path d="M 569.602 536.932 L 576.705 536.932"/>
<path d="M 579.545 536.932 L 583.807 536.932"/>
<path d="M 615.057 536.932 L 622.159 536.932"/>
<path d="M 629.261 536.932 L 633.523 536.932"/>
<path d="M 636.364 536.932 L 642.045 536.932"/>
<path d="M 646.307 536.932 L 651.989 536.932"/>
<path d="M 653.409 536.932 L 654.830 536.932"/>
<path d="M 674.716 536.932 L 677.557 536.932"/>
<path d="M 721.591 536.932 L 728.693 536.932"/>
<path d="M 731.534 536.932 L 735.795 536.932"/>
<path d="M 738.636 536.932 L 747.159 536.932"/>
<path d="M 752.841 536.932 L 754.261 536.932"/>
<path d="M 761.364 536.932 L 774.148 536.932"/>
<path d="M 792.614 536.932 L 794.034 536.932"/>
<path d="M 839.489 536.932 L 840.909 536.932"/>
<path d="M 855.114 536.932 L 863.636 536.932"/>
<path d="M 115.057 541.193 L 120.739 541.193"/>
<path d="M 160.511 541.193 L 163.352 541.193"/>
<path d="M 188.920 541.193 L 191.761 541.193"/>
<path d="M 204.545 541.193 L 205.966 541.193"/>
<path d="M 279.830 541.193 L 285.511 541.193"/>
<path d="M 289.773 541.193 L 298.295 541.193"/>
<path d="M 308.239 541.193 L 322.443 541.193"/>
<path d="M 330.966 541.193 L 335.227 541.193"/>
<path d="M 359.375 541.193 L 360.795 541.193"/>
<path d="M 362.216 541.193 L 363.636 541.193"/>
<path d="M 383.523 541.193 L 384.943 541.193"/>
<path d="M 561.080 541.193 L 563.920 541.193"/>
<path d="M 568.182 541.193 L 569.602 541.193"/>
<path d="M 573.864 541.193 L 580.966 541.193"/>
<path d="M 619.318 541.193 L 630.682 541.193"/>
<path d="M 634.943 541.193 L 644.886 541.193"/>
<path d="M 649.148 541.193 L 650.568 541.193"/>
<path d="M 656.250 541.193 L 657.670 541.193"/>
<path d="M 678.977 541.193 L 680.398 541.193"/>
<path d="M 741.477 541.193 L 751.420 541.193"/>
<path d="M 795.455 541.193 L 796.875 541.193"/>
<path d="M 798.295 541.193 L 799.716 541.193"/>
<path d="M 836.648 541.193 L 843.750 541.193"/>
<path d="M 115.057 545.455 L 117.898 545.455"/>
<path d="M 122.159 545.455 L 123.580 545.455"/>
<path d="M 190.341 545.455 L 193.182 545.455"/>
<path d="M 204.545 545.455 L 205.966 545.455"/>
<path d="M 284.091 545.455 L 286.932 545.455"/>
<path d="M 292.614 545.455 L 303.977 545.455"/>
<path d="M 311.080 545.455 L 322.443 545.455"/>
<path d="M 490.057 545.455 L 491.477 545.455"/>
<path d="M 561.080 545.455 L 562.500 545.455"/>
<path d="M 568.182 545.455 L 575.284 545.455"/>
<path d="M 578.125 545.455 L 582.386 545.455"/>
<path d="M 585.227 545.455 L 586.648 545.455"/>
<path d="M 588.068 545.455 L 589.489 545.455"/>
<path d="M 619.318 545.455 L 620.739 545.455"/>
<path d="M 626.420 545.455 L 629.261 545.455"/>
<path d="M 632.102 545.455 L 636.364 545.455"/>
<path d="M 646.307 545.455 L 649.148 545.455"/>
<path d="M 653.409 545.455 L 654.830 545.455"/>
<path d="M 659.091 545.455 L 660.511 545.455"/>
<path d="M 839.489 545.455 L 846.591 545.455"/>
<path d="M 848.011 545.455 L 860.795 545.455"/>
<path d="M 865.057 545.455 L 867.898 545.455"/>
<path d="M 139.205 549.716 L 142.045 549.716"/>
<path d="M 191.761 549.716 L 194.602 549.716"/>
<path d="M 203.125 549.716 L 207.386 549.716"/>
<path d="M 262.784 549.716 L 267.045 549.716"/>
<path d="M 268.466 549.716 L 271.307 549.716"/>
<path d="M 286.932 549.716 L 289.773 549.716"/>
<path d="M 294.034 549.716 L 315.341 549.716"/>
<path d="M 492.898 549.716 L 494.318 549.716"/>
<path d="M 559.659 549.716 L 562.500 549.716"/>
<path d="M 569.602 549.716 L 572.443 549.716"/>
<path d="M 573.864 549.716 L 579.545 549.716"/>
<path d="M 582.386 549.716 L 583.807 549.716"/>
<path d="M 623.580 549.716 L 627.841 549.716"/>
<path d="M 633.523 549.716 L 637.784 549.716"/>
<path d="M 681.818 549.716 L 697.443 549.716"/>
<path d="M 698.864 549.716 L 700.284 549.716"/>
<path d="M 798.295 549.716 L 801.136 549.716"/>
<path d="M 842.330 549.716 L 853.693 549.716"/>
<path d="M 855.114 549.716 L 860.795 549.716"/>
<path d="M 863.636 549.716 L 869.318 549.716"/>
<path d="M 873.580 549.716 L 880.682 549.716"/>
<path d="M 193.182 553.977 L 196.023 553.977"/>
<path d="M 198.864 553.977 L 204.545 553.977"/>
<path d="M 284.091 553.977 L 289.773 553.977"/>
<path d="M 495.739 553.977 L 500.000 553.977"/>
<path d="M 561.080 553.977 L 563.920 553.977"/>
<path d="M 578.125 553.977 L 580.966 553.977"/>
<path d="M 582.386 553.977 L 583.807 553.977"/>
<path d="M 586.648 553.977 L 588.068 553.977"/>
<path d="M 623.580 553.977 L 625.000 553.977"/>
<path d="M 630.682 553.977 L 632.102 553.977"/>
<path d="M 634.943 553.977 L 639.205 553.977"/>
<path d="M 651.989 553.977 L 654.830 553.977"/>
<path d="M 678.977 553.977 L 680.398 553.977"/>
<path d="M 683.239 553.977 L 684.659 553.977"/>
<path d="M 703.125 553.977 L 704.545 553.977"/>
<path d="M 781.250 553.977 L 782.670 553.977"/>
<path d="M 795.455 553.977 L 796.875 553.977"/>
<path d="M 853.693 553.977 L 867.898 553.977"/>
<path d="M 872.159 553.977 L 873.580 553.977"/>
<path d="M 877.841 553.977 L 886.364 553.977"/>
<path d="M 366.477 558.239 L 369.318 558.239"/>
<path d="M 375.000 558.239 L 376.420 558.239"/>
<path d="M 500.000 558.239 L 504.261 558.239"/>
<path d="M 565.341 558.239 L 566.761 558.239"/>
<path d="M 588.068 558.239 L 589.489 558.239"/>
<path d="M 592.330 558.239 L 593.750 558.239"/>
<path d="M 620.739 558.239 L 623.580 558.239"/>
<path d="M 626.420 558.239 L 632.102 558.239"/>
<path d="M 637.784 558.239 L 642.045 558.239"/>
<path d="M 653.409 558.239 L 656.250 558.239"/>
<path d="M 683.239 558.239 L 703.125 558.239"/>
<path d="M 776.989 558.239 L 778.409 558.239"/>
<path d="M 779.830 558.239 L 781.250 558.239"/>
<path d="M 857.955 558.239 L 865.057 558.239"/>
<path d="M 867.898 558.239 L 869.318 558.239"/>
<path d="M 873.580 558.239 L 875.000 558.239"/>
<path d="M 876.420 558.239 L 877.841 558.239"/>
<path d="M 882.102 558.239 L 889.205 558.239"/>
<path d="M 894.886 558.239 L 896.307 558.239"/>
<path d="M 362.216 562.500 L 363.636 562.500"/>
<path d="M 504.261 562.500 L 507.102 562.500"/>
<path d="M 558.239 562.500 L 565.341 562.500"/>
<path d="M 589.489 562.500 L 595.170 562.500"/>
<path d="M 619.318 562.500 L 620.739 562.500"/>
<path d="M 623.580 562.500 L 633.523 562.500"/>
<path d="M 639.205 562.500 L 640.625 562.500"/>
<path d="M 656.250 562.500 L 657.670 562.500"/>
<path d="M 680.398 562.500 L 681.818 562.500"/>
<path d="M 683.239 562.500 L 690.341 562.500"/>
<path d="M 693.182 562.500 L 694.602 562.500"/>
<path d="M 717.330 562.500 L 718.750 562.500"/>
<path d="M 730.114 562.500 L 732.955 562.500"/>
<path d="M 734.375 562.500 L 742.898 562.500"/>
<path d="M 772.727 562.500 L 774.148 562.500"/>
<path d="M 776.989 562.500 L 778.409 562.500"/>
<path d="M 791.193 562.500 L 792.614 562.500"/>
<path d="M 830.966 562.500 L 832.386 562.500"/>
<path d="M 860.795 562.500 L 862.216 562.500"/>
<path d="M 863.636 562.500 L 866.477 562.500"/>
<path d="M 869.318 562.500 L 875.000 562.500"/>
<path d="M 880.682 562.500 L 883.523 562.500"/>
<path d="M 887.784 562.500 L 894.886 562.500"/>
<path d="M 279.830 566.761 L 284.091 566.761"/>
<path d="M 353.693 566.761 L 355.114 566.761"/>
<path d="M 380.682 566.761 L 382.102 566.761"/>
<path d="M 507.102 566.761 L 509.943 566.761"/>
<path d="M 561.080 566.761 L 563.920 566.761"/>
<path d="M 565.341 566.761 L 568.182 566.761"/>
<path d="M 593.750 566.761 L 598.011 566.761"/>
<path d="M 602.273 566.761 L 603.693 566.761"/>
<path d="M 617.898 566.761 L 619.318 566.761"/>
<path d="M 622.159 566.761 L 633.523 566.761"/>
<path d="M 639.205 566.761 L 642.045 566.761"/>
<path d="M 659.091 566.761 L 660.511 566.761"/>
<path d="M 663.352 566.761 L 666.193 566.761"/>
<path d="M 681.818 566.761 L 684.659 566.761"/>
<path d="M 687.500 566.761 L 693.182 566.761"/>
<path d="M 751.420 566.761 L 755.682 566.761"/>
<path d="M 758.523 566.761 L 761.364 566.761"/>
<path d="M 768.466 566.761 L 769.886 566.761"/>
<path d="M 774.148 566.761 L 775.568 566.761"/>
<path d="M 788.352 566.761 L 789.773 566.761"/>
<path d="M 867.898 566.761 L 875.000 566.761"/>
<path d="M 880.682 566.761 L 882.102 566.761"/>
<path d="M 884.943 566.761 L 887.784 566.761"/>
<path d="M 890.625 566.761 L 894.886 566.761"/>
<path d="M 896.307 566.761 L 897.727 566.761"/>
<path d="M 120.739 571.023 L 122.159 571.023"/>
<path d="M 276.989 571.023 L 282.670 571.023"/>
<path d="M 305.398 571.023 L 316.761 571.023"/>
<path d="M 353.693 571.023 L 355.114 571.023"/>
<path d="M 509.943 571.023 L 511.364 571.023"/>
<path d="M 552.557 571.023 L 559.659 571.023"/>
<path d="M 562.500 571.023 L 571.023 571.023"/>
<path d="M 572.443 571.023 L 575.284 571.023"/>
<path d="M 576.705 571.023 L 580.966 571.023"/>
<path d="M 596.591 571.023 L 602.273 571.023"/>
<path d="M 605.114 571.023 L 606.534 571.023"/>
<path d="M 615.057 571.023 L 617.898 571.023"/>
<path d="M 620.739 571.023 L 633.523 571.023"/>
<path d="M 639.205 571.023 L 640.625 571.023"/>
<path d="M 660.511 571.023 L 661.932 571.023"/>
<path d="M 666.193 571.023 L 667.614 571.023"/>
<path d="M 686.080 571.023 L 688.920 571.023"/>
<path d="M 693.182 571.023 L 697.443 571.023"/>
<path d="M 708.807 571.023 L 710.227 571.023"/>
<path d="M 723.011 571.023 L 725.852 571.023"/>
<path d="M 762.784 571.023 L 767.045 571.023"/>
<path d="M 772.727 571.023 L 778.409 571.023"/>
<path d="M 785.511 571.023 L 788.352 571.023"/>
<path d="M 872.159 571.023 L 876.420 571.023"/>
<path d="M 883.523 571.023 L 887.784 571.023"/>
<path d="M 896.307 571.023 L 899.148 571.023"/>
<path d="M 268.466 575.284 L 278.409 575.284"/>
<path d="M 509.943 575.284 L 512.784 575.284"/>
<path d="M 546.875 575.284 L 572.443 575.284"/>
<path d="M 575.284 575.284 L 576.705 575.284"/>
<path d="M 580.966 575.284 L 583.807 575.284"/>
<path d="M 600.852 575.284 L 603.693 575.284"/>
<path d="M 615.057 575.284 L 616.477 575.284"/>
<path d="M 622.159 575.284 L 633.523 575.284"/>
<path d="M 639.205 575.284 L 640.625 575.284"/>
<path d="M 661.932 575.284 L 664.773 575.284"/>
<path d="M 669.034 575.284 L 670.455 575.284"/>
<path d="M 687.500 575.284 L 690.341 575.284"/>
<path d="M 694.602 575.284 L 700.284 575.284"/>
<path d="M 701.705 575.284 L 703.125 575.284"/>
<path d="M 704.545 575.284 L 705.966 575.284"/>
<path d="M 711.648 575.284 L 714.489 575.284"/>
<path d="M 731.534 575.284 L 734.375 575.284"/>
<path d="M 774.148 575.284 L 776.989 575.284"/>
<path d="M 781.250 575.284 L 785.511 575.284"/>
<path d="M 876.420 575.284 L 877.841 575.284"/>
<path d="M 884.943 575.284 L 890.625 575.284"/>
<path d="M 896.307 575.284 L 900.568 575.284"/>
<path d="M 906.250 575.284 L 907.670 575.284"/>
<path d="M 269.886 579.545 L 274.148 579.545"/>
<path d="M 511.364 579.545 L 514.205 579.545"/>
<path d="M 544.034 579.545 L 553.977 579.545"/>
<path d="M 555.398 579.545 L 561.080 579.545"/>
<path d="M 562.500 579.545 L 566.761 579.545"/>
<path d="M 571.023 579.545 L 572.443 579.545"/>
<path d="M 576.705 579.545 L 579.545 579.545"/>
<path d="M 582.386 579.545 L 592.330 579.545"/>
<path d="M 598.011 579.545 L 599.432 579.545"/>
<path d="M 606.534 579.545 L 609.375 579.545"/>
<path d="M 613.636 579.545 L 616.477 579.545"/>
<path d="M 627.841 579.545 L 633.523 579.545"/>
<path d="M 639.205 579.545 L 640.625 579.545"/>
<path d="M 663.352 579.545 L 664.773 579.545"/>
<path d="M 669.034 579.545 L 671.875 579.545"/>
<path d="M 688.920 579.545 L 691.761 579.545"/>
<path d="M 693.182 579.545 L 694.602 579.545"/>
<path d="M 697.443 579.545 L 700.284 579.545"/>
<path d="M 708.807 579.545 L 710.227 579.545"/>
<path d="M 741.477 579.545 L 747.159 579.545"/>
<path d="M 771.307 579.545 L 775.568 579.545"/>
<path d="M 779.830 579.545 L 781.250 579.545"/>
<path d="M 880.682 579.545 L 893.466 579.545"/>
<path d="M 897.727 579.545 L 899.148 579.545"/>
<path d="M 143.466 583.807 L 144.886 583.807"/>
<path d="M 268.466 583.807 L 271.307 583.807"/>
<path d="M 512.784 583.807 L 514.205 583.807"/>
<path d="M 542.614 583.807 L 548.295 583.807"/>
<path d="M 562.500 583.807 L 565.341 583.807"/>
<path d="M 583.807 583.807 L 585.227 583.807"/>
<path d="M 590.909 583.807 L 592.330 583.807"/>
<path d="M 599.432 583.807 L 607.955 583.807"/>
<path d="M 612.216 583.807 L 616.477 583.807"/>
<path d="M 639.205 583.807 L 640.625 583.807"/>
<path d="M 664.773 583.807 L 666.193 583.807"/>
<path d="M 670.455 583.807 L 673.295 583.807"/>
<path d="M 694.602 583.807 L 696.023 583.807"/>
<path d="M 698.864 583.807 L 701.705 583.807"/>
<path d="M 748.580 583.807 L 751.420 583.807"/>
<path d="M 765.625 583.807 L 769.886 583.807"/>
<path d="M 776.989 583.807 L 778.409 583.807"/>
<path d="M 846.591 583.807 L 848.011 583.807"/>
<path d="M 857.955 583.807 L 859.375 583.807"/>
<path d="M 884.943 583.807 L 889.205 583.807"/>
<path d="M 892.045 583.807 L 894.886 583.807"/>
<path d="M 897.727 583.807 L 903.409 583.807"/>
<path d="M 254.261 588.068 L 258.523 588.068"/>
<path d="M 267.045 588.068 L 272.727 588.068"/>
<path d="M 544.034 588.068 L 546.875 588.068"/>
<path d="M 576.705 588.068 L 578.125 588.068"/>
<path d="M 582.386 588.068 L 589.489 588.068"/>
<path d="M 592.330 588.068 L 595.170 588.068"/>
<path d="M 609.375 588.068 L 615.057 588.068"/>
<path d="M 639.205 588.068 L 642.045 588.068"/>
<path d="M 666.193 588.068 L 669.034 588.068"/>
<path d="M 670.455 588.068 L 671.875 588.068"/>
<path d="M 698.864 588.068 L 701.705 588.068"/>
<path d="M 714.489 588.068 L 715.909 588.068"/>
<path d="M 717.330 588.068 L 718.750 588.068"/>
<path d="M 754.261 588.068 L 755.682 588.068"/>
<path d="M 764.205 588.068 L 772.727 588.068"/>
<path d="M 846.591 588.068 L 849.432 588.068"/>
<path d="M 850.852 588.068 L 855.114 588.068"/>
<path d="M 887.784 588.068 L 894.886 588.068"/>
<path d="M 899.148 588.068 L 900.568 588.068"/>
<path d="M 901.989 588.068 L 903.409 588.068"/>
<path d="M 910.511 588.068 L 911.932 588.068"/>
<path d="M 913.352 588.068 L 914.773 588.068"/>
<path d="M 136.364 592.330 L 137.784 592.330"/>
<path d="M 250.000 592.330 L 252.841 592.330"/>
<path d="M 254.261 592.330 L 255.682 592.330"/>
<path d="M 262.784 592.330 L 274.148 592.330"/>
<path d="M 291.193 592.330 L 294.034 592.330"/>
<path d="M 387.784 592.330 L 390.625 592.330"/>
<path d="M 515.625 592.330 L 524.148 592.330"/>
<path d="M 544.034 592.330 L 548.295 592.330"/>
<path d="M 559.659 592.330 L 568.182 592.330"/>
<path d="M 571.023 592.330 L 576.705 592.330"/>
<path d="M 586.648 592.330 L 612.216 592.330"/>
<path d="M 640.625 592.330 L 643.466 592.330"/>
<path d="M 666.193 592.330 L 669.034 592.330"/>
<path d="M 671.875 592.330 L 674.716 592.330"/>
<path d="M 693.182 592.330 L 694.602 592.330"/>
<path d="M 697.443 592.330 L 698.864 592.330"/>
<path d="M 700.284 592.330 L 703.125 592.330"/>
<path d="M 715.909 592.330 L 718.750 592.330"/>
<path d="M 720.170 592.330 L 721.591 592.330"/>
<path d="M 757.102 592.330 L 758.523 592.330"/>
<path d="M 846.591 592.330 L 849.432 592.330"/>
<path d="M 853.693 592.330 L 859.375 592.330"/>
<path d="M 887.784 592.330 L 893.466 592.330"/>
<path d="M 900.568 592.330 L 903.409 592.330"/>
<path d="M 116.477 596.591 L 117.898 596.591"/>
<path d="M 284.091 596.591 L 289.773 596.591"/>
<path d="M 295.455 596.591 L 296.875 596.591"/>
<path d="M 298.295 596.591 L 302.557 596.591"/>
<path d="M 382.102 596.591 L 386.364 596.591"/>
<path d="M 387.784 596.591 L 394.886 596.591"/>
<path d="M 411.932 596.591 L 413.352 596.591"/>
<path d="M 544.034 596.591 L 549.716 596.591"/>
<path d="M 553.977 596.591 L 556.818 596.591"/>
<path d="M 571.023 596.591 L 578.125 596.591"/>
<path d="M 580.966 596.591 L 585.227 596.591"/>
<path d="M 586.648 596.591 L 589.489 596.591"/>
<path d="M 596.591 596.591 L 610.795 596.591"/>
<path d="M 640.625 596.591 L 643.466 596.591"/>
<path d="M 666.193 596.591 L 669.034 596.591"/>
<path d="M 673.295 596.591 L 676.136 596.591"/>
<path d="M 694.602 596.591 L 696.023 596.591"/>
<path d="M 698.864 596.591 L 700.284 596.591"/>
<path d="M 703.125 596.591 L 707.386 596.591"/>
<path d="M 718.750 596.591 L 720.170 596.591"/>
<path d="M 721.591 596.591 L 724.432 596.591"/>
<path d="M 725.852 596.591 L 727.273 596.591"/>
<path d="M 752.841 596.591 L 758.523 596.591"/>
<path d="M 845.170 596.591 L 850.852 596.591"/>
<path d="M 857.955 596.591 L 862.216 596.591"/>
<path d="M 887.784 596.591 L 894.886 596.591"/>
<path d="M 900.568 596.591 L 904.830 596.591"/>
<path d="M 906.250 596.591 L 909.091 596.591"/>
<path d="M 107.955 600.852 L 109.375 600.852"/>
<path d="M 115.057 600.852 L 116.477 600.852"/>
<path d="M 119.318 600.852 L 127.841 600.852"/>
<path d="M 132.102 600.852 L 133.523 600.852"/>
<path d="M 282.670 600.852 L 288.352 600.852"/>
<path d="M 301.136 600.852 L 303.977 600.852"/>
<path d="M 544.034 600.852 L 552.557 600.852"/>
<path d="M 559.659 600.852 L 561.080 600.852"/>
<path d="M 568.182 600.852 L 578.125 600.852"/>
<path d="M 590.909 600.852 L 607.955 600.852"/>
<path d="M 642.045 600.852 L 646.307 600.852"/>
<path d="M 667.614 600.852 L 669.034 600.852"/>
<path d="M 674.716 600.852 L 677.557 600.852"/>
<path d="M 700.284 600.852 L 701.705 600.852"/>
<path d="M 704.545 600.852 L 708.807 600.852"/>
<path d="M 720.170 600.852 L 721.591 600.852"/>
<path d="M 724.432 600.852 L 725.852 600.852"/>
<path d="M 727.273 600.852 L 730.114 600.852"/>
<path d="M 742.898 600.852 L 745.739 600.852"/>
<path d="M 843.750 600.852 L 849.432 600.852"/>
<path d="M 856.534 600.852 L 859.375 600.852"/>
<path d="M 860.795 600.852 L 863.636 600.852"/>
<path d="M 889.205 600.852 L 896.307 600.852"/>
<path d="M 900.568 600.852 L 901.989 600.852"/>
<path d="M 907.670 600.852 L 909.091 600.852"/>
<path d="M 911.932 600.852 L 916.193 600.852"/>
<path d="M 119.318 605.114 L 120.739 605.114"/>
<path d="M 132.102 605.114 L 133.523 605.114"/>
<path d="M 238.636 605.114 L 242.898 605.114"/>
<path d="M 262.784 605.114 L 268.466 605.114"/>
<path d="M 282.670 605.114 L 286.932 605.114"/>
<path d="M 288.352 605.114 L 289.773 605.114"/>
<path d="M 298.295 605.114 L 302.557 605.114"/>
<path d="M 345.170 605.114 L 346.591 605.114"/>
<path d="M 357.955 605.114 L 359.375 605.114"/>
<path d="M 536.932 605.114 L 539.773 605.114"/>
<path d="M 546.875 605.114 L 561.080 605.114"/>
<path d="M 572.443 605.114 L 599.432 605.114"/>
<path d="M 646.307 605.114 L 647.727 605.114"/>
<path d="M 649.148 605.114 L 657.670 605.114"/>
<path d="M 666.193 605.114 L 670.455 605.114"/>
<path d="M 676.136 605.114 L 677.557 605.114"/>
<path d="M 697.443 605.114 L 698.864 605.114"/>
<path d="M 705.966 605.114 L 721.591 605.114"/>
<path d="M 730.114 605.114 L 734.375 605.114"/>
<path d="M 843.750 605.114 L 848.011 605.114"/>
<path d="M 863.636 605.114 L 865.057 605.114"/>
<path d="M 887.784 605.114 L 893.466 605.114"/>
<path d="M 909.091 605.114 L 914.773 605.114"/>
<path d="M 921.875 605.114 L 923.295 605.114"/>
<path d="M 107.955 609.375 L 109.375 609.375"/>
<path d="M 113.636 609.375 L 117.898 609.375"/>
<path d="M 119.318 609.375 L 120.739 609.375"/>
<path d="M 125.000 609.375 L 127.841 609.375"/>
<path d="M 130.682 609.375 L 132.102 609.375"/>
<path d="M 137.784 609.375 L 139.205 609.375"/>
<path d="M 242.898 609.375 L 247.159 609.375"/>
<path d="M 261.364 609.375 L 262.784 609.375"/>
<path d="M 343.750 609.375 L 345.170 609.375"/>
<path d="M 532.670 609.375 L 539.773 609.375"/>
<path d="M 660.511 609.375 L 670.455 609.375"/>
<path d="M 677.557 609.375 L 680.398 609.375"/>
<path d="M 697.443 609.375 L 715.909 609.375"/>
<path d="M 782.670 609.375 L 791.193 609.375"/>
<path d="M 840.909 609.375 L 842.330 609.375"/>
<path d="M 843.750 609.375 L 849.432 609.375"/>
<path d="M 856.534 609.375 L 869.318 609.375"/>
<path d="M 907.670 609.375 L 910.511 609.375"/>
<path d="M 917.614 609.375 L 919.034 609.375"/>
<path d="M 923.295 609.375 L 924.716 609.375"/>
<path d="M 110.795 613.636 L 112.216 613.636"/>
<path d="M 113.636 613.636 L 116.477 613.636"/>
<path d="M 120.739 613.636 L 125.000 613.636"/>
<path d="M 129.261 613.636 L 130.682 613.636"/>
<path d="M 137.784 613.636 L 139.205 613.636"/>
<path d="M 161.932 613.636 L 163.352 613.636"/>
<path d="M 166.193 613.636 L 167.614 613.636"/>
<path d="M 247.159 613.636 L 250.000 613.636"/>
<path d="M 262.784 613.636 L 264.205 613.636"/>
<path d="M 396.307 613.636 L 397.727 613.636"/>
<path d="M 778.409 613.636 L 784.091 613.636"/>
<path d="M 788.352 613.636 L 791.193 613.636"/>
<path d="M 849.432 613.636 L 860.795 613.636"/>
<path d="M 865.057 613.636 L 872.159 613.636"/>
<path d="M 919.034 613.636 L 920.455 613.636"/>
<path d="M 921.875 613.636 L 923.295 613.636"/>
<path d="M 924.716 613.636 L 926.136 613.636"/>
<path d="M 116.477 617.898 L 122.159 617.898"/>
<path d="M 126.420 617.898 L 130.682 617.898"/>
<path d="M 133.523 617.898 L 134.943 617.898"/>
<path d="M 176.136 617.898 L 177.557 617.898"/>
<path d="M 214.489 617.898 L 217.330 617.898"/>
<path d="M 346.591 617.898 L 348.011 617.898"/>
<path d="M 404.830 617.898 L 409.091 617.898"/>
<path d="M 410.511 617.898 L 411.932 617.898"/>
<path d="M 416.193 617.898 L 417.614 617.898"/>
<path d="M 772.727 617.898 L 779.830 617.898"/>
<path d="M 788.352 617.898 L 791.193 617.898"/>
<path d="M 852.273 617.898 L 855.114 617.898"/>
<path d="M 859.375 617.898 L 860.795 617.898"/>
<path d="M 873.580 617.898 L 879.261 617.898"/>
<path d="M 909.091 617.898 L 910.511 617.898"/>
<path d="M 914.773 617.898 L 921.875 617.898"/>
<path d="M 122.159 622.159 L 125.000 622.159"/>
<path d="M 130.682 622.159 L 136.364 622.159"/>
<path d="M 147.727 622.159 L 149.148 622.159"/>
<path d="M 177.557 622.159 L 178.977 622.159"/>
<path d="M 181.818 622.159 L 183.239 622.159"/>
<path d="M 218.750 622.159 L 220.170 622.159"/>
<path d="M 443.182 622.159 L 444.602 622.159"/>
<path d="M 769.886 622.159 L 774.148 622.159"/>
<path d="M 788.352 622.159 L 791.193 622.159"/>
<path d="M 852.273 622.159 L 855.114 622.159"/>
<path d="M 879.261 622.159 L 883.523 622.159"/>
<path d="M 127.841 626.420 L 130.682 626.420"/>
<path d="M 140.625 626.420 L 144.886 626.420"/>
<path d="M 149.148 626.420 L 150.568 626.420"/>
<path d="M 174.716 626.420 L 176.136 626.420"/>
<path d="M 178.977 626.420 L 181.818 626.420"/>
<path d="M 208.807 626.420 L 211.648 626.420"/>
<path d="M 213.068 626.420 L 214.489 626.420"/>
<path d="M 308.239 626.420 L 319.602 626.420"/>
<path d="M 515.625 626.420 L 517.045 626.420"/>
<path d="M 646.307 626.420 L 647.727 626.420"/>
<path d="M 651.989 626.420 L 653.409 626.420"/>
<path d="M 664.773 626.420 L 667.614 626.420"/>
<path d="M 762.784 626.420 L 764.205 626.420"/>
<path d="M 765.625 626.420 L 768.466 626.420"/>
<path d="M 786.932 626.420 L 789.773 626.420"/>
<path d="M 848.011 626.420 L 850.852 626.420"/>
<path d="M 883.523 626.420 L 886.364 626.420"/>
<path d="M 909.091 626.420 L 910.511 626.420"/>
<path d="M 914.773 626.420 L 917.614 626.420"/>
<path d="M 924.716 626.420 L 927.557 626.420"/>
<path d="M 102.273 630.682 L 103.693 630.682"/>
<path d="M 130.682 630.682 L 134.943 630.682"/>
<path d="M 144.886 630.682 L 149.148 630.682"/>
<path d="M 210.227 630.682 L 211.648 630.682"/>
<path d="M 214.489 630.682 L 215.909 630.682"/>
<path d="M 303.977 630.682 L 305.398 630.682"/>
<path d="M 319.602 630.682 L 325.284 630.682"/>
<path d="M 363.636 630.682 L 365.057 630.682"/>
<path d="M 507.102 630.682 L 508.523 630.682"/>
<path d="M 629.261 630.682 L 633.523 630.682"/>
<path d="M 639.205 630.682 L 640.625 630.682"/>
<path d="M 642.045 630.682 L 676.136 630.682"/>
<path d="M 710.227 630.682 L 711.648 630.682"/>
<path d="M 713.068 630.682 L 714.489 630.682"/>
<path d="M 718.750 630.682 L 720.170 630.682"/>
<path d="M 721.591 630.682 L 724.432 630.682"/>
<path d="M 759.943 630.682 L 764.205 630.682"/>
<path d="M 782.670 630.682 L 789.773 630.682"/>
<path d="M 843.750 630.682 L 849.432 630.682"/>
<path d="M 882.102 630.682 L 884.943 630.682"/>
<path d="M 886.364 630.682 L 892.045 630.682"/>
<path d="M 916.193 630.682 L 919.034 630.682"/>
<path d="M 105.114 634.943 L 107.955 634.943"/>
<path d="M 136.364 634.943 L 140.625 634.943"/>
<path d="M 151.989 634.943 L 157.670 634.943"/>
<path d="M 159.091 634.943 L 160.511 634.943"/>
<path d="M 170.455 634.943 L 173.295 634.943"/>
<path d="M 177.557 634.943 L 178.977 634.943"/>
<path d="M 274.148 634.943 L 279.830 634.943"/>
<path d="M 302.557 634.943 L 303.977 634.943"/>
<path d="M 328.125 634.943 L 329.545 634.943"/>
<path d="M 363.636 634.943 L 365.057 634.943"/>
<path d="M 626.420 634.943 L 627.841 634.943"/>
<path d="M 633.523 634.943 L 634.943 634.943"/>
<path d="M 642.045 634.943 L 644.886 634.943"/>
<path d="M 649.148 634.943 L 650.568 634.943"/>
<path d="M 657.670 634.943 L 669.034 634.943"/>
<path d="M 704.545 634.943 L 707.386 634.943"/>
<path d="M 713.068 634.943 L 721.591 634.943"/>
<path d="M 754.261 634.943 L 755.682 634.943"/>
<path d="M 784.091 634.943 L 789.773 634.943"/>
<path d="M 826.705 634.943 L 832.386 634.943"/>
<path d="M 843.750 634.943 L 849.432 634.943"/>
<path d="M 890.625 634.943 L 899.148 634.943"/>
<path d="M 910.511 634.943 L 911.932 634.943"/>
<path d="M 923.295 634.943 L 928.977 634.943"/>
<path d="M 106.534 639.205 L 112.216 639.205"/>
<path d="M 160.511 639.205 L 167.614 639.205"/>
<path d="M 176.136 639.205 L 178.977 639.205"/>
<path d="M 190.341 639.205 L 191.761 639.205"/>
<path d="M 276.989 639.205 L 282.670 639.205"/>
<path d="M 362.216 639.205 L 363.636 639.205"/>
<path d="M 426.136 639.205 L 427.557 639.205"/>
<path d="M 487.216 639.205 L 488.636 639.205"/>
<path d="M 653.409 639.205 L 664.773 639.205"/>
<path d="M 696.023 639.205 L 701.705 639.205"/>
<path d="M 713.068 639.205 L 718.750 639.205"/>
<path d="M 750.000 639.205 L 752.841 639.205"/>
<path d="M 784.091 639.205 L 789.773 639.205"/>
<path d="M 823.864 639.205 L 836.648 639.205"/>
<path d="M 849.432 639.205 L 850.852 639.205"/>
<path d="M 897.727 639.205 L 901.989 639.205"/>
<path d="M 916.193 639.205 L 919.034 639.205"/>
<path d="M 926.136 639.205 L 927.557 639.205"/>
<path d="M 113.636 643.466 L 119.318 643.466"/>
<path d="M 120.739 643.466 L 122.159 643.466"/>
<path d="M 159.091 643.466 L 164.773 643.466"/>
<path d="M 176.136 643.466 L 178.977 643.466"/>
<path d="M 180.398 643.466 L 186.080 643.466"/>
<path d="M 196.023 643.466 L 197.443 643.466"/>
<path d="M 278.409 643.466 L 279.830 643.466"/>
<path d="M 282.670 643.466 L 285.511 643.466"/>
<path d="M 333.807 643.466 L 335.227 643.466"/>
<path d="M 353.693 643.466 L 356.534 643.466"/>
<path d="M 651.989 643.466 L 657.670 643.466"/>
<path d="M 688.920 643.466 L 697.443 643.466"/>
<path d="M 711.648 643.466 L 714.489 643.466"/>
<path d="M 751.420 643.466 L 752.841 643.466"/>
<path d="M 781.250 643.466 L 785.511 643.466"/>
<path d="M 826.705 643.466 L 829.545 643.466"/>
<path d="M 833.807 643.466 L 835.227 643.466"/>
<path d="M 904.830 643.466 L 907.670 643.466"/>
<path d="M 919.034 643.466 L 920.455 643.466"/>
<path d="M 924.716 643.466 L 928.977 643.466"/>
<path d="M 936.080 643.466 L 937.500 643.466"/>
<path d="M 122.159 647.727 L 125.000 647.727"/>
<path d="M 161.932 647.727 L 163.352 647.727"/>
<path d="M 176.136 647.727 L 178.977 647.727"/>
<path d="M 183.239 647.727 L 191.761 647.727"/>
<path d="M 198.864 647.727 L 200.284 647.727"/>
<path d="M 203.125 647.727 L 204.545 647.727"/>
<path d="M 279.830 647.727 L 282.670 647.727"/>
<path d="M 285.511 647.727 L 288.352 647.727"/>
<path d="M 294.034 647.727 L 295.455 647.727"/>
<path d="M 411.932 647.727 L 413.352 647.727"/>
<path d="M 463.068 647.727 L 464.489 647.727"/>
<path d="M 646.307 647.727 L 647.727 647.727"/>
<path d="M 649.148 647.727 L 650.568 647.727"/>
<path d="M 690.341 647.727 L 693.182 647.727"/>
<path d="M 707.386 647.727 L 708.807 647.727"/>
<path d="M 742.898 647.727 L 750.000 647.727"/>
<path d="M 776.989 647.727 L 782.670 647.727"/>
<path d="M 825.284 647.727 L 833.807 647.727"/>
<path d="M 835.227 647.727 L 838.068 647.727"/>
<path d="M 887.784 647.727 L 893.466 647.727"/>
<path d="M 907.670 647.727 L 909.091 647.727"/>
<path d="M 934.659 647.727 L 936.080 647.727"/>
<path d="M 140.625 651.989 L 143.466 651.989"/>
<path d="M 159.091 651.989 L 163.352 651.989"/>
<path d="M 173.295 651.989 L 176.136 651.989"/>
<path d="M 197.443 651.989 L 200.284 651.989"/>
<path d="M 235.795 651.989 L 238.636 651.989"/>
<path d="M 284.091 651.989 L 289.773 651.989"/>
<path d="M 292.614 651.989 L 294.034 651.989"/>
<path d="M 643.466 651.989 L 646.307 651.989"/>
<path d="M 681.818 651.989 L 683.239 651.989"/>
<path d="M 686.080 651.989 L 687.500 651.989"/>
<path d="M 700.284 651.989 L 701.705 651.989"/>
<path d="M 738.636 651.989 L 742.898 651.989"/>
<path d="M 771.307 651.989 L 778.409 651.989"/>
<path d="M 828.125 651.989 L 832.386 651.989"/>
<path d="M 835.227 651.989 L 839.489 651.989"/>
<path d="M 856.534 651.989 L 857.955 651.989"/>
<path d="M 910.511 651.989 L 913.352 651.989"/>
<path d="M 927.557 651.989 L 928.977 651.989"/>
<path d="M 160.511 656.250 L 174.716 656.250"/>
<path d="M 177.557 656.250 L 178.977 656.250"/>
<path d="M 191.761 656.250 L 197.443 656.250"/>
<path d="M 205.966 656.250 L 207.386 656.250"/>
<path d="M 285.511 656.250 L 288.352 656.250"/>
<path d="M 291.193 656.250 L 292.614 656.250"/>
<path d="M 343.750 656.250 L 345.170 656.250"/>
<path d="M 639.205 656.250 L 640.625 656.250"/>
<path d="M 673.295 656.250 L 674.716 656.250"/>
<path d="M 677.557 656.250 L 678.977 656.250"/>
<path d="M 694.602 656.250 L 696.023 656.250"/>
<path d="M 728.693 656.250 L 731.534 656.250"/>
<path d="M 768.466 656.250 L 772.727 656.250"/>
<path d="M 829.545 656.250 L 833.807 656.250"/>
<path d="M 838.068 656.250 L 842.330 656.250"/>
<path d="M 855.114 656.250 L 863.636 656.250"/>
<path d="M 916.193 656.250 L 917.614 656.250"/>
<path d="M 184.659 660.511 L 187.500 660.511"/>
<path d="M 197.443 660.511 L 200.284 660.511"/>
<path d="M 213.068 660.511 L 214.489 660.511"/>
<path d="M 286.932 660.511 L 289.773 660.511"/>
<path d="M 294.034 660.511 L 295.455 660.511"/>
<path d="M 447.443 660.511 L 448.864 660.511"/>
<path d="M 636.364 660.511 L 637.784 660.511"/>
<path d="M 660.511 660.511 L 661.932 660.511"/>
<path d="M 664.773 660.511 L 667.614 660.511"/>
<path d="M 721.591 660.511 L 723.011 660.511"/>
<path d="M 765.625 660.511 L 767.045 660.511"/>
<path d="M 832.386 660.511 L 842.330 660.511"/>
<path d="M 859.375 660.511 L 863.636 660.511"/>
<path d="M 865.057 660.511 L 866.477 660.511"/>
<path d="M 919.034 660.511 L 920.455 660.511"/>
<path d="M 927.557 660.511 L 928.977 660.511"/>
<path d="M 184.659 664.773 L 191.761 664.773"/>
<path d="M 220.170 664.773 L 221.591 664.773"/>
<path d="M 284.091 664.773 L 285.511 664.773"/>
<path d="M 465.909 664.773 L 467.330 664.773"/>
<path d="M 622.159 664.773 L 623.580 664.773"/>
<path d="M 636.364 664.773 L 639.205 664.773"/>
<path d="M 681.818 664.773 L 683.239 664.773"/>
<path d="M 715.909 664.773 L 717.330 664.773"/>
<path d="M 758.523 664.773 L 762.784 664.773"/>
<path d="M 835.227 664.773 L 845.170 664.773"/>
<path d="M 862.216 664.773 L 865.057 664.773"/>
<path d="M 188.920 669.034 L 198.864 669.034"/>
<path d="M 299.716 669.034 L 301.136 669.034"/>
<path d="M 454.545 669.034 L 455.966 669.034"/>
<path d="M 467.330 669.034 L 468.750 669.034"/>
<path d="M 593.750 669.034 L 595.170 669.034"/>
<path d="M 676.136 669.034 L 677.557 669.034"/>
<path d="M 711.648 669.034 L 713.068 669.034"/>
<path d="M 838.068 669.034 L 848.011 669.034"/>
<path d="M 863.636 669.034 L 867.898 669.034"/>
<path d="M 906.250 669.034 L 909.091 669.034"/>
<path d="M 200.284 673.295 L 207.386 673.295"/>
<path d="M 232.955 673.295 L 234.375 673.295"/>
<path d="M 244.318 673.295 L 245.739 673.295"/>
<path d="M 288.352 673.295 L 289.773 673.295"/>
<path d="M 294.034 673.295 L 295.455 673.295"/>
<path d="M 457.386 673.295 L 458.807 673.295"/>
<path d="M 623.580 673.295 L 625.000 673.295"/>
<path d="M 670.455 673.295 L 671.875 673.295"/>
<path d="M 673.295 673.295 L 676.136 673.295"/>
<path d="M 705.966 673.295 L 707.386 673.295"/>
<path d="M 732.955 673.295 L 734.375 673.295"/>
<path d="M 745.739 673.295 L 747.159 673.295"/>
<path d="M 840.909 673.295 L 849.432 673.295"/>
<path d="M 865.057 673.295 L 870.739 673.295"/>
<path d="M 899.148 673.295 L 900.568 673.295"/>
<path d="M 207.386 677.557 L 208.807 677.557"/>
<path d="M 238.636 677.557 L 240.057 677.557"/>
<path d="M 251.420 677.557 L 252.841 677.557"/>
<path d="M 257.102 677.557 L 258.523 677.557"/>
<path d="M 377.841 677.557 L 379.261 677.557"/>
<path d="M 458.807 677.557 L 461.648 677.557"/>
<path d="M 470.170 677.557 L 471.591 677.557"/>
<path d="M 629.261 677.557 L 632.102 677.557"/>
<path d="M 667.614 677.557 L 669.034 677.557"/>
<path d="M 731.534 677.557 L 738.636 677.557"/>
<path d="M 845.170 677.557 L 853.693 677.557"/>
<path d="M 869.318 677.557 L 873.580 677.557"/>
<path d="M 882.102 677.557 L 892.045 677.557"/>
<path d="M 897.727 677.557 L 899.148 677.557"/>
<path d="M 258.523 681.818 L 259.943 681.818"/>
<path d="M 420.455 681.818 L 421.875 681.818"/>
<path d="M 461.648 681.818 L 463.068 681.818"/>
<path d="M 471.591 681.818 L 473.011 681.818"/>
<path d="M 626.420 681.818 L 627.841 681.818"/>
<path d="M 629.261 681.818 L 637.784 681.818"/>
<path d="M 724.432 681.818 L 727.273 681.818"/>
<path d="M 748.580 681.818 L 755.682 681.818"/>
<path d="M 849.432 681.818 L 855.114 681.818"/>
<path d="M 869.318 681.818 L 877.841 681.818"/>
<path d="M 879.261 681.818 L 883.523 681.818"/>
<path d="M 890.625 681.818 L 892.045 681.818"/>
<path d="M 225.852 686.080 L 227.273 686.080"/>
<path d="M 252.841 686.080 L 254.261 686.080"/>
<path d="M 268.466 686.080 L 269.886 686.080"/>
<path d="M 309.659 686.080 L 311.080 686.080"/>
<path d="M 419.034 686.080 L 420.455 686.080"/>
<path d="M 473.011 686.080 L 475.852 686.080"/>
<path d="M 612.216 686.080 L 615.057 686.080"/>
<path d="M 620.739 686.080 L 622.159 686.080"/>
<path d="M 654.830 686.080 L 659.091 686.080"/>
<path d="M 686.080 686.080 L 687.500 686.080"/>
<path d="M 721.591 686.080 L 724.432 686.080"/>
<path d="M 747.159 686.080 L 757.102 686.080"/>
<path d="M 849.432 686.080 L 856.534 686.080"/>
<path d="M 872.159 686.080 L 877.841 686.080"/>
<path d="M 931.818 686.080 L 936.080 686.080"/>
<path d="M 235.795 690.341 L 237.216 690.341"/>
<path d="M 261.364 690.341 L 262.784 690.341"/>
<path d="M 281.250 690.341 L 284.091 690.341"/>
<path d="M 291.193 690.341 L 292.614 690.341"/>
<path d="M 369.318 690.341 L 370.739 690.341"/>
<path d="M 467.330 690.341 L 470.170 690.341"/>
<path d="M 477.273 690.341 L 478.693 690.341"/>
<path d="M 669.034 690.341 L 673.295 690.341"/>
<path d="M 714.489 690.341 L 717.330 690.341"/>
<path d="M 738.636 690.341 L 741.477 690.341"/>
<path d="M 747.159 690.341 L 748.580 690.341"/>
<path d="M 755.682 690.341 L 757.102 690.341"/>
<path d="M 853.693 690.341 L 857.955 690.341"/>
<path d="M 927.557 690.341 L 934.659 690.341"/>
<path d="M 251.420 694.602 L 252.841 694.602"/>
<path d="M 257.102 694.602 L 258.523 694.602"/>
<path d="M 271.307 694.602 L 272.727 694.602"/>
<path d="M 294.034 694.602 L 295.455 694.602"/>
<path d="M 326.705 694.602 L 328.125 694.602"/>
<path d="M 470.170 694.602 L 473.011 694.602"/>
<path d="M 488.636 694.602 L 494.318 694.602"/>
<path d="M 666.193 694.602 L 670.455 694.602"/>
<path d="M 708.807 694.602 L 711.648 694.602"/>
<path d="M 734.375 694.602 L 747.159 694.602"/>
<path d="M 842.330 694.602 L 845.170 694.602"/>
<path d="M 846.591 694.602 L 849.432 694.602"/>
<path d="M 850.852 694.602 L 860.795 694.602"/>
<path d="M 867.898 694.602 L 869.318 694.602"/>
<path d="M 916.193 694.602 L 928.977 694.602"/>
<path d="M 261.364 698.864 L 262.784 698.864"/>
<path d="M 321.023 698.864 L 322.443 698.864"/>
<path d="M 474.432 698.864 L 475.852 698.864"/>
<path d="M 497.159 698.864 L 500.000 698.864"/>
<path d="M 666.193 698.864 L 667.614 698.864"/>
<path d="M 698.864 698.864 L 704.545 698.864"/>
<path d="M 737.216 698.864 L 740.057 698.864"/>
<path d="M 752.841 698.864 L 754.261 698.864"/>
<path d="M 910.511 698.864 L 919.034 698.864"/>
<path d="M 920.455 698.864 L 921.875 698.864"/>
<path d="M 289.773 703.125 L 291.193 703.125"/>
<path d="M 477.273 703.125 L 480.114 703.125"/>
<path d="M 487.216 703.125 L 491.477 703.125"/>
<path d="M 669.034 703.125 L 670.455 703.125"/>
<path d="M 696.023 703.125 L 698.864 703.125"/>
<path d="M 700.284 703.125 L 701.705 703.125"/>
<path d="M 730.114 703.125 L 735.795 703.125"/>
<path d="M 752.841 703.125 L 754.261 703.125"/>
<path d="M 901.989 703.125 L 909.091 703.125"/>
<path d="M 913.352 703.125 L 914.773 703.125"/>
<path d="M 296.875 707.386 L 298.295 707.386"/>
<path d="M 309.659 707.386 L 312.500 707.386"/>
<path d="M 321.023 707.386 L 323.864 707.386"/>
<path d="M 413.352 707.386 L 414.773 707.386"/>
<path d="M 727.273 707.386 L 728.693 707.386"/>
<path d="M 748.580 707.386 L 751.420 707.386"/>
<path d="M 823.864 707.386 L 825.284 707.386"/>
<path d="M 896.307 707.386 L 906.250 707.386"/>
<path d="M 286.932 711.648 L 288.352 711.648"/>
<path d="M 294.034 711.648 L 295.455 711.648"/>
<path d="M 620.739 711.648 L 622.159 711.648"/>
<path d="M 625.000 711.648 L 629.261 711.648"/>
<path d="M 634.943 711.648 L 636.364 711.648"/>
<path d="M 721.591 711.648 L 723.011 711.648"/>
<path d="M 738.636 711.648 L 740.057 711.648"/>
<path d="M 741.477 711.648 L 748.580 711.648"/>
<path d="M 889.205 711.648 L 896.307 711.648"/>
<path d="M 352.273 715.909 L 356.534 715.909"/>
<path d="M 636.364 715.909 L 639.205 715.909"/>
<path d="M 718.750 715.909 L 725.852 715.909"/>
<path d="M 727.273 715.909 L 741.477 715.909"/>
<path d="M 815.341 715.909 L 816.761 715.909"/>
<path d="M 887.784 715.909 L 890.625 715.909"/>
<path d="M 190.341 720.170 L 191.761 720.170"/>
<path d="M 224.432 720.170 L 227.273 720.170"/>
<path d="M 345.170 720.170 L 349.432 720.170"/>
<path d="M 650.568 720.170 L 651.989 720.170"/>
<path d="M 720.170 720.170 L 723.011 720.170"/>
<path d="M 869.318 720.170 L 870.739 720.170"/>
<path d="M 873.580 720.170 L 876.420 720.170"/>
<path d="M 161.932 724.432 L 163.352 724.432"/>
<path d="M 187.500 724.432 L 188.920 724.432"/>
<path d="M 191.761 724.432 L 193.182 724.432"/>
<path d="M 339.489 724.432 L 342.330 724.432"/>
<path d="M 613.636 724.432 L 626.420 724.432"/>
<path d="M 860.795 724.432 L 866.477 724.432"/>
<path d="M 187.500 728.693 L 188.920 728.693"/>
<path d="M 333.807 728.693 L 336.648 728.693"/>
<path d="M 419.034 728.693 L 420.455 728.693"/>
<path d="M 615.057 728.693 L 626.420 728.693"/>
<path d="M 630.682 728.693 L 633.523 728.693"/>
<path d="M 846.591 728.693 L 849.432 728.693"/>
<path d="M 850.852 728.693 L 852.273 728.693"/>
<path d="M 853.693 728.693 L 855.114 728.693"/>
<path d="M 193.182 732.955 L 194.602 732.955"/>
<path d="M 613.636 732.955 L 643.466 732.955"/>
<path d="M 836.648 732.955 L 845.170 732.955"/>
<path d="M 592.330 737.216 L 595.170 737.216"/>
<path d="M 612.216 737.216 L 644.886 737.216"/>
<path d="M 657.670 737.216 L 659.091 737.216"/>
<path d="M 660.511 737.216 L 664.773 737.216"/>
<path d="M 765.625 737.216 L 767.045 737.216"/>
<path d="M 826.705 737.216 L 835.227 737.216"/>
<path d="M 585.227 741.477 L 586.648 741.477"/>
<path d="M 590.909 741.477 L 602.273 741.477"/>
<path d="M 610.795 741.477 L 644.886 741.477"/>
<path d="M 650.568 741.477 L 678.977 741.477"/>
<path d="M 818.182 741.477 L 829.545 741.477"/>
<path d="M 585.227 745.739 L 605.114 745.739"/>
<path d="M 613.636 745.739 L 683.239 745.739"/>
<path d="M 808.239 745.739 L 822.443 745.739"/>
<path d="M 583.807 750.000 L 605.114 750.000"/>
<path d="M 606.534 750.000 L 610.795 750.000"/>
<path d="M 620.739 750.000 L 623.580 750.000"/>
<path d="M 625.000 750.000 L 636.364 750.000"/>
<path d="M 640.625 750.000 L 684.659 750.000"/>
<path d="M 801.136 750.000 L 812.500 750.000"/>
<path d="M 588.068 754.261 L 632.102 754.261"/>
<path d="M 642.045 754.261 L 686.080 754.261"/>
<path d="M 703.125 754.261 L 705.966 754.261"/>
<path d="M 791.193 754.261 L 799.716 754.261"/>
<path d="M 166.193 758.523 L 167.614 758.523"/>
<path d="M 448.864 758.523 L 450.284 758.523"/>
<path d="M 588.068 758.523 L 592.330 758.523"/>
<path d="M 595.170 758.523 L 627.841 758.523"/>
<path d="M 643.466 758.523 L 687.500 758.523"/>
<path d="M 786.932 758.523 L 794.034 758.523"/>
<path d="M 578.125 762.784 L 582.386 762.784"/>
<path d="M 585.227 762.784 L 626.420 762.784"/>
<path d="M 640.625 762.784 L 667.614 762.784"/>
<path d="M 669.034 762.784 L 676.136 762.784"/>
<path d="M 680.398 762.784 L 688.920 762.784"/>
<path d="M 784.091 762.784 L 788.352 762.784"/>
<path d="M 205.966 767.045 L 207.386 767.045"/>
<path d="M 590.909 767.045 L 595.170 767.045"/>
<path d="M 596.591 767.045 L 620.739 767.045"/>
<path d="M 622.159 767.045 L 630.682 767.045"/>
<path d="M 647.727 767.045 L 673.295 767.045"/>
<path d="M 680.398 767.045 L 690.341 767.045"/>
<path d="M 703.125 767.045 L 705.966 767.045"/>
<path d="M 757.102 767.045 L 758.523 767.045"/>
<path d="M 509.943 771.307 L 511.364 771.307"/>
<path d="M 590.909 771.307 L 593.750 771.307"/>
<path d="M 596.591 771.307 L 599.432 771.307"/>
<path d="M 602.273 771.307 L 633.523 771.307"/>
<path d="M 644.886 771.307 L 677.557 771.307"/>
<path d="M 681.818 771.307 L 687.500 771.307"/>
<path d="M 700.284 771.307 L 705.966 771.307"/>
<path d="M 568.182 775.568 L 571.023 775.568"/>
<path d="M 602.273 775.568 L 603.693 775.568"/>
<path d="M 607.955 775.568 L 610.795 775.568"/>
<path d="M 612.216 775.568 L 673.295 775.568"/>
<path d="M 681.818 775.568 L 690.341 775.568"/>
<path d="M 700.284 775.568 L 704.545 775.568"/>
<path d="M 617.898 779.830 L 684.659 779.830"/>
<path d="M 698.864 779.830 L 704.545 779.830"/>
<path d="M 612.216 784.091 L 613.636 784.091"/>
<path d="M 626.420 784.091 L 644.886 784.091"/>
<path d="M 646.307 784.091 L 677.557 784.091"/>
<path d="M 680.398 784.091 L 683.239 784.091"/>
<path d="M 684.659 784.091 L 686.080 784.091"/>
<path d="M 688.920 784.091 L 691.761 784.091"/>
<path d="M 698.864 784.091 L 707.386 784.091"/>
<path d="M 644.886 788.352 L 674.716 788.352"/>
<path d="M 680.398 788.352 L 683.239 788.352"/>
<path d="M 687.500 788.352 L 688.920 788.352"/>
<path d="M 697.443 788.352 L 705.966 788.352"/>
<path d="M 750.000 788.352 L 751.420 788.352"/>
<path d="M 649.148 792.614 L 674.716 792.614"/>
<path d="M 684.659 792.614 L 686.080 792.614"/>
<path d="M 696.023 792.614 L 703.125 792.614"/>
<path d="M 646.307 796.875 L 647.727 796.875"/>
<path d="M 654.830 796.875 L 667.614 796.875"/>
<path d="M 694.602 796.875 L 704.545 796.875"/>
<path d="M 698.864 801.136 L 704.545 801.136"/>
<path d="M 676.136 805.398 L 677.557 805.398"/>
<path d="M 701.705 805.398 L 703.125 805.398"/>
<path d="M 673.295 813.920 L 674.716 813.920"/>
<path d="M 700.284 813.920 L 701.705 813.920"/>
<path d="M 677.557 818.182 L 681.818 818.182"/>
<path d="M 745.739 818.182 L 747.159 818.182"/>
<path d="M 674.716 822.443 L 676.136 822.443"/>
<path d="M 747.159 826.705 L 748.580 826.705"/>
<path d="M 694.602 830.966 L 696.023 830.966"/>
<path d="M 680.398 835.227 L 681.818 835.227"/>
<path d="M 693.182 835.227 L 694.602 835.227"/>
<path d="M 750.000 839.489 L 751.420 839.489"/>
<path d="M 742.898 843.750 L 747.159 843.750"/>
<path d="M 680.398 848.011 L 681.818 848.011"/>
<path d="M 747.159 848.011 L 748.580 848.011"/>
<path d="M 681.818 852.273 L 683.239 852.273"/>
<path d="M 740.057 852.273 L 741.477 852.273"/>
<path d="M 704.545 873.580 L 705.966 873.580"/>
<path d="M 750.000 873.580 L 751.420 873.580"/>
<path d="M 683.239 877.841 L 684.659 877.841"/>
<path d="M 693.182 886.364 L 694.602 886.364"/>
<path d="M 747.159 886.364 L 748.580 886.364"/>
<path d="M 693.182 890.625 L 694.602 890.625"/>
<path d="M 745.739 890.625 L 747.159 890.625"/>
<path d="M 703.125 899.148 L 704.545 899.148"/>
<path d="M 703.125 903.409 L 704.545 903.409"/>
<path d="M 704.545 907.670 L 705.966 907.670"/>
<path d="M 724.432 911.932 L 725.852 911.932"/>
</g>
</svg>
