<?xml version="1.0" encoding="UTF-8"?>
<svg xmlns="http://www.w3.org/2000/svg" width="1000.000mm" height="944.602mm" viewBox="0 0 1000.000 944.602">
<metadata>HatchSmith © FIWAtec GmbH</metadata>
<rect x="0" y="0" width="100%" height="100%" fill="white"/>
<g id="07_layer_07" stroke="#D7CBCB" stroke-width="1.000" stroke-linecap="round" stroke-linejoin="round" fill="none">
<path d="M 625.000 76.705 L 627.841 76.705"/>
<path d="M 647.727 80.966 L 649.148 80.966"/>
<path d="M 539.773 85.227 L 541.193 85.227"/>
<path d="M 654.830 85.227 L 656.250 85.227"/>
<path d="M 630.682 89.489 L 632.102 89.489"/>
<path d="M 634.943 89.489 L 640.625 89.489"/>
<path d="M 642.045 89.489 L 643.466 89.489"/>
<path d="M 653.409 89.489 L 656.250 89.489"/>
<path d="M 634.943 93.750 L 640.625 93.750"/>
<path d="M 651.989 93.750 L 659.091 93.750"/>
<path d="M 674.716 93.750 L 676.136 93.750"/>
<path d="M 525.568 98.011 L 526.989 98.011"/>
<path d="M 627.841 98.011 L 633.523 98.011"/>
<path d="M 642.045 98.011 L 643.466 98.011"/>
<path d="M 646.307 98.011 L 649.148 98.011"/>
<path d="M 659.091 98.011 L 660.511 98.011"/>
<path d="M 649.148 102.273 L 651.989 102.273"/>
<path d="M 660.511 102.273 L 661.932 102.273"/>
<path d="M 676.136 102.273 L 677.557 102.273"/>
<path d="M 647.727 110.795 L 649.148 110.795"/>
<path d="M 509.943 115.057 L 512.784 115.057"/>
<path d="M 647.727 115.057 L 649.148 115.057"/>
<path d="M 481.534 119.318 L 482.955 119.318"/>
<path d="M 509.943 119.318 L 511.364 119.318"/>
<path d="M 651.989 119.318 L 653.409 119.318"/>
<path d="M 491.477 127.841 L 492.898 127.841"/>
<path d="M 504.261 127.841 L 505.682 127.841"/>
<path d="M 484.375 132.102 L 488.636 132.102"/>
<path d="M 500.000 136.364 L 502.841 136.364"/>
<path d="M 487.216 144.886 L 490.057 144.886"/>
<path d="M 437.500 149.148 L 444.602 149.148"/>
<path d="M 478.693 149.148 L 481.534 149.148"/>
<path d="M 419.034 157.670 L 426.136 157.670"/>
<path d="M 416.193 161.932 L 419.034 161.932"/>
<path d="M 393.466 170.455 L 403.409 170.455"/>
<path d="M 423.295 170.455 L 430.398 170.455"/>
<path d="M 453.125 170.455 L 461.648 170.455"/>
<path d="M 477.273 170.455 L 480.114 170.455"/>
<path d="M 414.773 174.716 L 419.034 174.716"/>
<path d="M 431.818 174.716 L 437.500 174.716"/>
<path d="M 447.443 174.716 L 450.284 174.716"/>
<path d="M 409.091 178.977 L 413.352 178.977"/>
<path d="M 447.443 178.977 L 448.864 178.977"/>
<path d="M 461.648 178.977 L 463.068 178.977"/>
<path d="M 696.023 178.977 L 697.443 178.977"/>
<path d="M 407.670 183.239 L 409.091 183.239"/>
<path d="M 424.716 183.239 L 427.557 183.239"/>
<path d="M 446.023 183.239 L 447.443 183.239"/>
<path d="M 461.648 183.239 L 464.489 183.239"/>
<path d="M 475.852 183.239 L 477.273 183.239"/>
<path d="M 403.409 187.500 L 404.830 187.500"/>
<path d="M 419.034 187.500 L 420.455 187.500"/>
<path d="M 443.182 187.500 L 446.023 187.500"/>
<path d="M 453.125 187.500 L 454.545 187.500"/>
<path d="M 392.045 191.761 L 394.886 191.761"/>
<path d="M 416.193 191.761 L 417.614 191.761"/>
<path d="M 437.500 191.761 L 441.761 191.761"/>
<path d="M 447.443 191.761 L 450.284 191.761"/>
<path d="M 471.591 191.761 L 473.011 191.761"/>
<path d="M 434.659 196.023 L 438.920 196.023"/>
<path d="M 444.602 196.023 L 446.023 196.023"/>
<path d="M 455.966 196.023 L 457.386 196.023"/>
<path d="M 431.818 200.284 L 434.659 200.284"/>
<path d="M 438.920 200.284 L 440.341 200.284"/>
<path d="M 451.705 200.284 L 453.125 200.284"/>
<path d="M 458.807 200.284 L 463.068 200.284"/>
<path d="M 465.909 200.284 L 473.011 200.284"/>
<path d="M 691.761 200.284 L 693.182 200.284"/>
<path d="M 428.977 204.545 L 433.239 204.545"/>
<path d="M 434.659 204.545 L 436.080 204.545"/>
<path d="M 440.341 204.545 L 441.761 204.545"/>
<path d="M 448.864 204.545 L 450.284 204.545"/>
<path d="M 468.750 204.545 L 470.170 204.545"/>
<path d="M 691.761 204.545 L 693.182 204.545"/>
<path d="M 427.557 208.807 L 430.398 208.807"/>
<path d="M 690.341 208.807 L 693.182 208.807"/>
<path d="M 426.136 213.068 L 430.398 213.068"/>
<path d="M 443.182 213.068 L 444.602 213.068"/>
<path d="M 450.284 213.068 L 451.705 213.068"/>
<path d="M 461.648 213.068 L 463.068 213.068"/>
<path d="M 497.159 213.068 L 498.580 213.068"/>
<path d="M 502.841 213.068 L 504.261 213.068"/>
<path d="M 688.920 213.068 L 690.341 213.068"/>
<path d="M 426.136 217.330 L 428.977 217.330"/>
<path d="M 433.239 217.330 L 436.080 217.330"/>
<path d="M 708.807 217.330 L 710.227 217.330"/>
<path d="M 392.045 221.591 L 393.466 221.591"/>
<path d="M 426.136 221.591 L 427.557 221.591"/>
<path d="M 428.977 221.591 L 430.398 221.591"/>
<path d="M 437.500 221.591 L 438.920 221.591"/>
<path d="M 455.966 221.591 L 457.386 221.591"/>
<path d="M 430.398 225.852 L 431.818 225.852"/>
<path d="M 453.125 225.852 L 454.545 225.852"/>
<path d="M 458.807 225.852 L 463.068 225.852"/>
<path d="M 387.784 230.114 L 389.205 230.114"/>
<path d="M 426.136 230.114 L 427.557 230.114"/>
<path d="M 444.602 230.114 L 446.023 230.114"/>
<path d="M 447.443 230.114 L 455.966 230.114"/>
<path d="M 460.227 230.114 L 463.068 230.114"/>
<path d="M 366.477 234.375 L 367.898 234.375"/>
<path d="M 421.875 234.375 L 423.295 234.375"/>
<path d="M 437.500 234.375 L 444.602 234.375"/>
<path d="M 519.886 234.375 L 522.727 234.375"/>
<path d="M 360.795 238.636 L 362.216 238.636"/>
<path d="M 420.455 238.636 L 421.875 238.636"/>
<path d="M 434.659 238.636 L 436.080 238.636"/>
<path d="M 457.386 238.636 L 458.807 238.636"/>
<path d="M 515.625 238.636 L 517.045 238.636"/>
<path d="M 369.318 242.898 L 375.000 242.898"/>
<path d="M 427.557 242.898 L 428.977 242.898"/>
<path d="M 431.818 242.898 L 433.239 242.898"/>
<path d="M 453.125 242.898 L 454.545 242.898"/>
<path d="M 767.045 242.898 L 768.466 242.898"/>
<path d="M 365.057 247.159 L 369.318 247.159"/>
<path d="M 416.193 247.159 L 417.614 247.159"/>
<path d="M 428.977 247.159 L 430.398 247.159"/>
<path d="M 495.739 247.159 L 498.580 247.159"/>
<path d="M 593.750 247.159 L 599.432 247.159"/>
<path d="M 606.534 247.159 L 607.955 247.159"/>
<path d="M 745.739 247.159 L 747.159 247.159"/>
<path d="M 365.057 251.420 L 366.477 251.420"/>
<path d="M 416.193 251.420 L 417.614 251.420"/>
<path d="M 421.875 251.420 L 423.295 251.420"/>
<path d="M 426.136 251.420 L 428.977 251.420"/>
<path d="M 463.068 251.420 L 465.909 251.420"/>
<path d="M 585.227 251.420 L 588.068 251.420"/>
<path d="M 593.750 251.420 L 596.591 251.420"/>
<path d="M 747.159 251.420 L 748.580 251.420"/>
<path d="M 455.966 255.682 L 458.807 255.682"/>
<path d="M 465.909 255.682 L 468.750 255.682"/>
<path d="M 487.216 255.682 L 488.636 255.682"/>
<path d="M 514.205 255.682 L 517.045 255.682"/>
<path d="M 579.545 255.682 L 580.966 255.682"/>
<path d="M 592.330 255.682 L 593.750 255.682"/>
<path d="M 603.693 255.682 L 609.375 255.682"/>
<path d="M 748.580 255.682 L 750.000 255.682"/>
<path d="M 356.534 259.943 L 357.955 259.943"/>
<path d="M 447.443 259.943 L 448.864 259.943"/>
<path d="M 578.125 259.943 L 579.545 259.943"/>
<path d="M 590.909 259.943 L 593.750 259.943"/>
<path d="M 607.955 259.943 L 610.795 259.943"/>
<path d="M 369.318 264.205 L 376.420 264.205"/>
<path d="M 403.409 264.205 L 409.091 264.205"/>
<path d="M 431.818 264.205 L 437.500 264.205"/>
<path d="M 576.705 264.205 L 578.125 264.205"/>
<path d="M 590.909 264.205 L 592.330 264.205"/>
<path d="M 363.636 268.466 L 365.057 268.466"/>
<path d="M 403.409 268.466 L 409.091 268.466"/>
<path d="M 427.557 268.466 L 428.977 268.466"/>
<path d="M 436.080 268.466 L 437.500 268.466"/>
<path d="M 464.489 268.466 L 465.909 268.466"/>
<path d="M 470.170 268.466 L 471.591 268.466"/>
<path d="M 575.284 268.466 L 578.125 268.466"/>
<path d="M 586.648 268.466 L 589.489 268.466"/>
<path d="M 592.330 268.466 L 595.170 268.466"/>
<path d="M 752.841 268.466 L 754.261 268.466"/>
<path d="M 360.795 272.727 L 362.216 272.727"/>
<path d="M 383.523 272.727 L 390.625 272.727"/>
<path d="M 401.989 272.727 L 406.250 272.727"/>
<path d="M 424.716 272.727 L 426.136 272.727"/>
<path d="M 438.920 272.727 L 440.341 272.727"/>
<path d="M 461.648 272.727 L 463.068 272.727"/>
<path d="M 467.330 272.727 L 470.170 272.727"/>
<path d="M 576.705 272.727 L 579.545 272.727"/>
<path d="M 580.966 272.727 L 586.648 272.727"/>
<path d="M 589.489 272.727 L 590.909 272.727"/>
<path d="M 598.011 272.727 L 599.432 272.727"/>
<path d="M 612.216 272.727 L 616.477 272.727"/>
<path d="M 620.739 272.727 L 630.682 272.727"/>
<path d="M 632.102 272.727 L 644.886 272.727"/>
<path d="M 355.114 276.989 L 356.534 276.989"/>
<path d="M 380.682 276.989 L 384.943 276.989"/>
<path d="M 399.148 276.989 L 401.989 276.989"/>
<path d="M 421.875 276.989 L 423.295 276.989"/>
<path d="M 431.818 276.989 L 433.239 276.989"/>
<path d="M 437.500 276.989 L 440.341 276.989"/>
<path d="M 465.909 276.989 L 467.330 276.989"/>
<path d="M 525.568 276.989 L 526.989 276.989"/>
<path d="M 578.125 276.989 L 579.545 276.989"/>
<path d="M 583.807 276.989 L 588.068 276.989"/>
<path d="M 592.330 276.989 L 607.955 276.989"/>
<path d="M 630.682 276.989 L 642.045 276.989"/>
<path d="M 379.261 281.250 L 382.102 281.250"/>
<path d="M 392.045 281.250 L 397.727 281.250"/>
<path d="M 420.455 281.250 L 421.875 281.250"/>
<path d="M 427.557 281.250 L 428.977 281.250"/>
<path d="M 453.125 281.250 L 460.227 281.250"/>
<path d="M 464.489 281.250 L 468.750 281.250"/>
<path d="M 518.466 281.250 L 525.568 281.250"/>
<path d="M 568.182 281.250 L 572.443 281.250"/>
<path d="M 579.545 281.250 L 580.966 281.250"/>
<path d="M 586.648 281.250 L 593.750 281.250"/>
<path d="M 626.420 281.250 L 634.943 281.250"/>
<path d="M 379.261 285.511 L 380.682 285.511"/>
<path d="M 390.625 285.511 L 396.307 285.511"/>
<path d="M 420.455 285.511 L 423.295 285.511"/>
<path d="M 443.182 285.511 L 444.602 285.511"/>
<path d="M 463.068 285.511 L 468.750 285.511"/>
<path d="M 507.102 285.511 L 508.523 285.511"/>
<path d="M 511.364 285.511 L 512.784 285.511"/>
<path d="M 518.466 285.511 L 519.886 285.511"/>
<path d="M 521.307 285.511 L 522.727 285.511"/>
<path d="M 563.920 285.511 L 566.761 285.511"/>
<path d="M 583.807 285.511 L 585.227 285.511"/>
<path d="M 595.170 285.511 L 598.011 285.511"/>
<path d="M 620.739 285.511 L 625.000 285.511"/>
<path d="M 350.852 289.773 L 352.273 289.773"/>
<path d="M 366.477 289.773 L 370.739 289.773"/>
<path d="M 376.420 289.773 L 377.841 289.773"/>
<path d="M 389.205 289.773 L 393.466 289.773"/>
<path d="M 438.920 289.773 L 441.761 289.773"/>
<path d="M 453.125 289.773 L 454.545 289.773"/>
<path d="M 465.909 289.773 L 467.330 289.773"/>
<path d="M 507.102 289.773 L 514.205 289.773"/>
<path d="M 518.466 289.773 L 522.727 289.773"/>
<path d="M 561.080 289.773 L 562.500 289.773"/>
<path d="M 588.068 289.773 L 590.909 289.773"/>
<path d="M 595.170 289.773 L 602.273 289.773"/>
<path d="M 609.375 289.773 L 613.636 289.773"/>
<path d="M 754.261 289.773 L 755.682 289.773"/>
<path d="M 349.432 294.034 L 350.852 294.034"/>
<path d="M 356.534 294.034 L 357.955 294.034"/>
<path d="M 367.898 294.034 L 370.739 294.034"/>
<path d="M 377.841 294.034 L 380.682 294.034"/>
<path d="M 437.500 294.034 L 438.920 294.034"/>
<path d="M 454.545 294.034 L 455.966 294.034"/>
<path d="M 463.068 294.034 L 464.489 294.034"/>
<path d="M 509.943 294.034 L 512.784 294.034"/>
<path d="M 517.045 294.034 L 518.466 294.034"/>
<path d="M 519.886 294.034 L 522.727 294.034"/>
<path d="M 555.398 294.034 L 556.818 294.034"/>
<path d="M 590.909 294.034 L 592.330 294.034"/>
<path d="M 602.273 294.034 L 603.693 294.034"/>
<path d="M 686.080 294.034 L 691.761 294.034"/>
<path d="M 696.023 294.034 L 710.227 294.034"/>
<path d="M 740.057 294.034 L 745.739 294.034"/>
<path d="M 377.841 298.295 L 380.682 298.295"/>
<path d="M 434.659 298.295 L 440.341 298.295"/>
<path d="M 446.023 298.295 L 447.443 298.295"/>
<path d="M 509.943 298.295 L 512.784 298.295"/>
<path d="M 521.307 298.295 L 522.727 298.295"/>
<path d="M 545.455 298.295 L 546.875 298.295"/>
<path d="M 593.750 298.295 L 595.170 298.295"/>
<path d="M 680.398 298.295 L 711.648 298.295"/>
<path d="M 732.955 298.295 L 751.420 298.295"/>
<path d="M 774.148 298.295 L 776.989 298.295"/>
<path d="M 353.693 302.557 L 355.114 302.557"/>
<path d="M 356.534 302.557 L 357.955 302.557"/>
<path d="M 379.261 302.557 L 380.682 302.557"/>
<path d="M 434.659 302.557 L 436.080 302.557"/>
<path d="M 441.761 302.557 L 443.182 302.557"/>
<path d="M 457.386 302.557 L 458.807 302.557"/>
<path d="M 504.261 302.557 L 508.523 302.557"/>
<path d="M 511.364 302.557 L 514.205 302.557"/>
<path d="M 515.625 302.557 L 517.045 302.557"/>
<path d="M 521.307 302.557 L 522.727 302.557"/>
<path d="M 681.818 302.557 L 715.909 302.557"/>
<path d="M 723.011 302.557 L 751.420 302.557"/>
<path d="M 761.364 302.557 L 764.205 302.557"/>
<path d="M 768.466 302.557 L 771.307 302.557"/>
<path d="M 775.568 302.557 L 778.409 302.557"/>
<path d="M 779.830 302.557 L 781.250 302.557"/>
<path d="M 348.011 306.818 L 350.852 306.818"/>
<path d="M 353.693 306.818 L 356.534 306.818"/>
<path d="M 370.739 306.818 L 372.159 306.818"/>
<path d="M 441.761 306.818 L 443.182 306.818"/>
<path d="M 498.580 306.818 L 502.841 306.818"/>
<path d="M 514.205 306.818 L 515.625 306.818"/>
<path d="M 535.511 306.818 L 536.932 306.818"/>
<path d="M 593.750 306.818 L 596.591 306.818"/>
<path d="M 677.557 306.818 L 727.273 306.818"/>
<path d="M 728.693 306.818 L 748.580 306.818"/>
<path d="M 759.943 306.818 L 761.364 306.818"/>
<path d="M 765.625 306.818 L 768.466 306.818"/>
<path d="M 772.727 306.818 L 778.409 306.818"/>
<path d="M 784.091 306.818 L 785.511 306.818"/>
<path d="M 353.693 311.080 L 356.534 311.080"/>
<path d="M 370.739 311.080 L 372.159 311.080"/>
<path d="M 443.182 311.080 L 444.602 311.080"/>
<path d="M 498.580 311.080 L 501.420 311.080"/>
<path d="M 514.205 311.080 L 515.625 311.080"/>
<path d="M 677.557 311.080 L 721.591 311.080"/>
<path d="M 727.273 311.080 L 745.739 311.080"/>
<path d="M 754.261 311.080 L 755.682 311.080"/>
<path d="M 757.102 311.080 L 758.523 311.080"/>
<path d="M 764.205 311.080 L 767.045 311.080"/>
<path d="M 772.727 311.080 L 774.148 311.080"/>
<path d="M 350.852 315.341 L 352.273 315.341"/>
<path d="M 353.693 315.341 L 355.114 315.341"/>
<path d="M 500.000 315.341 L 501.420 315.341"/>
<path d="M 676.136 315.341 L 744.318 315.341"/>
<path d="M 754.261 315.341 L 755.682 315.341"/>
<path d="M 761.364 315.341 L 764.205 315.341"/>
<path d="M 674.716 319.602 L 740.057 319.602"/>
<path d="M 757.102 319.602 L 759.943 319.602"/>
<path d="M 769.886 319.602 L 771.307 319.602"/>
<path d="M 792.614 319.602 L 794.034 319.602"/>
<path d="M 375.000 323.864 L 376.420 323.864"/>
<path d="M 502.841 323.864 L 504.261 323.864"/>
<path d="M 673.295 323.864 L 735.795 323.864"/>
<path d="M 737.216 323.864 L 738.636 323.864"/>
<path d="M 754.261 323.864 L 758.523 323.864"/>
<path d="M 372.159 328.125 L 373.580 328.125"/>
<path d="M 580.966 328.125 L 583.807 328.125"/>
<path d="M 637.784 328.125 L 639.205 328.125"/>
<path d="M 640.625 328.125 L 642.045 328.125"/>
<path d="M 673.295 328.125 L 737.216 328.125"/>
<path d="M 754.261 328.125 L 757.102 328.125"/>
<path d="M 762.784 328.125 L 765.625 328.125"/>
<path d="M 786.932 328.125 L 789.773 328.125"/>
<path d="M 501.420 332.386 L 502.841 332.386"/>
<path d="M 627.841 332.386 L 633.523 332.386"/>
<path d="M 670.455 332.386 L 734.375 332.386"/>
<path d="M 812.500 332.386 L 813.920 332.386"/>
<path d="M 360.795 336.648 L 362.216 336.648"/>
<path d="M 498.580 336.648 L 500.000 336.648"/>
<path d="M 670.455 336.648 L 731.534 336.648"/>
<path d="M 759.943 336.648 L 761.364 336.648"/>
<path d="M 781.250 336.648 L 782.670 336.648"/>
<path d="M 359.375 340.909 L 360.795 340.909"/>
<path d="M 491.477 340.909 L 494.318 340.909"/>
<path d="M 671.875 340.909 L 711.648 340.909"/>
<path d="M 715.909 340.909 L 730.114 340.909"/>
<path d="M 808.239 340.909 L 809.659 340.909"/>
<path d="M 355.114 345.170 L 356.534 345.170"/>
<path d="M 484.375 345.170 L 487.216 345.170"/>
<path d="M 678.977 345.170 L 700.284 345.170"/>
<path d="M 701.705 345.170 L 704.545 345.170"/>
<path d="M 717.330 345.170 L 723.011 345.170"/>
<path d="M 806.818 345.170 L 811.080 345.170"/>
<path d="M 482.955 349.432 L 484.375 349.432"/>
<path d="M 566.761 349.432 L 568.182 349.432"/>
<path d="M 688.920 349.432 L 700.284 349.432"/>
<path d="M 703.125 349.432 L 704.545 349.432"/>
<path d="M 707.386 349.432 L 713.068 349.432"/>
<path d="M 717.330 349.432 L 721.591 349.432"/>
<path d="M 774.148 349.432 L 775.568 349.432"/>
<path d="M 806.818 349.432 L 809.659 349.432"/>
<path d="M 330.966 353.693 L 338.068 353.693"/>
<path d="M 465.909 353.693 L 468.750 353.693"/>
<path d="M 484.375 353.693 L 485.795 353.693"/>
<path d="M 690.341 353.693 L 693.182 353.693"/>
<path d="M 694.602 353.693 L 700.284 353.693"/>
<path d="M 701.705 353.693 L 713.068 353.693"/>
<path d="M 803.977 353.693 L 805.398 353.693"/>
<path d="M 465.909 357.955 L 468.750 357.955"/>
<path d="M 558.239 357.955 L 559.659 357.955"/>
<path d="M 703.125 357.955 L 715.909 357.955"/>
<path d="M 798.295 357.955 L 805.398 357.955"/>
<path d="M 467.330 362.216 L 468.750 362.216"/>
<path d="M 698.864 362.216 L 710.227 362.216"/>
<path d="M 767.045 362.216 L 768.466 362.216"/>
<path d="M 794.034 362.216 L 795.455 362.216"/>
<path d="M 796.875 362.216 L 801.136 362.216"/>
<path d="M 102.273 366.477 L 103.693 366.477"/>
<path d="M 106.534 366.477 L 107.955 366.477"/>
<path d="M 173.295 366.477 L 174.716 366.477"/>
<path d="M 485.795 366.477 L 487.216 366.477"/>
<path d="M 701.705 366.477 L 707.386 366.477"/>
<path d="M 708.807 366.477 L 711.648 366.477"/>
<path d="M 764.205 366.477 L 765.625 366.477"/>
<path d="M 795.455 366.477 L 798.295 366.477"/>
<path d="M 232.955 370.739 L 234.375 370.739"/>
<path d="M 255.682 370.739 L 257.102 370.739"/>
<path d="M 265.625 370.739 L 267.045 370.739"/>
<path d="M 485.795 370.739 L 487.216 370.739"/>
<path d="M 697.443 370.739 L 705.966 370.739"/>
<path d="M 144.886 375.000 L 146.307 375.000"/>
<path d="M 231.534 375.000 L 232.955 375.000"/>
<path d="M 234.375 375.000 L 235.795 375.000"/>
<path d="M 237.216 375.000 L 241.477 375.000"/>
<path d="M 484.375 375.000 L 485.795 375.000"/>
<path d="M 552.557 375.000 L 555.398 375.000"/>
<path d="M 205.966 379.261 L 207.386 379.261"/>
<path d="M 228.693 379.261 L 231.534 379.261"/>
<path d="M 117.898 383.523 L 119.318 383.523"/>
<path d="M 230.114 383.523 L 245.739 383.523"/>
<path d="M 248.580 383.523 L 255.682 383.523"/>
<path d="M 370.739 383.523 L 376.420 383.523"/>
<path d="M 438.920 383.523 L 440.341 383.523"/>
<path d="M 478.693 383.523 L 481.534 383.523"/>
<path d="M 122.159 387.784 L 123.580 387.784"/>
<path d="M 157.670 387.784 L 159.091 387.784"/>
<path d="M 197.443 387.784 L 198.864 387.784"/>
<path d="M 204.545 387.784 L 227.273 387.784"/>
<path d="M 248.580 387.784 L 255.682 387.784"/>
<path d="M 274.148 387.784 L 289.773 387.784"/>
<path d="M 369.318 387.784 L 375.000 387.784"/>
<path d="M 436.080 387.784 L 437.500 387.784"/>
<path d="M 438.920 387.784 L 440.341 387.784"/>
<path d="M 546.875 387.784 L 548.295 387.784"/>
<path d="M 774.148 387.784 L 775.568 387.784"/>
<path d="M 268.466 392.045 L 271.307 392.045"/>
<path d="M 285.511 392.045 L 286.932 392.045"/>
<path d="M 369.318 392.045 L 372.159 392.045"/>
<path d="M 438.920 392.045 L 444.602 392.045"/>
<path d="M 598.011 392.045 L 599.432 392.045"/>
<path d="M 718.750 392.045 L 720.170 392.045"/>
<path d="M 39.773 396.307 L 41.193 396.307"/>
<path d="M 176.136 396.307 L 177.557 396.307"/>
<path d="M 223.011 396.307 L 224.432 396.307"/>
<path d="M 259.943 396.307 L 265.625 396.307"/>
<path d="M 289.773 396.307 L 291.193 396.307"/>
<path d="M 367.898 396.307 L 372.159 396.307"/>
<path d="M 440.341 396.307 L 446.023 396.307"/>
<path d="M 471.591 396.307 L 473.011 396.307"/>
<path d="M 765.625 396.307 L 767.045 396.307"/>
<path d="M 71.023 400.568 L 72.443 400.568"/>
<path d="M 134.943 400.568 L 137.784 400.568"/>
<path d="M 178.977 400.568 L 180.398 400.568"/>
<path d="M 213.068 400.568 L 214.489 400.568"/>
<path d="M 254.261 400.568 L 255.682 400.568"/>
<path d="M 257.102 400.568 L 258.523 400.568"/>
<path d="M 441.761 400.568 L 448.864 400.568"/>
<path d="M 470.170 400.568 L 471.591 400.568"/>
<path d="M 751.420 400.568 L 752.841 400.568"/>
<path d="M 765.625 400.568 L 767.045 400.568"/>
<path d="M 86.648 404.830 L 88.068 404.830"/>
<path d="M 90.909 404.830 L 92.330 404.830"/>
<path d="M 99.432 404.830 L 100.852 404.830"/>
<path d="M 144.886 404.830 L 146.307 404.830"/>
<path d="M 176.136 404.830 L 177.557 404.830"/>
<path d="M 186.080 404.830 L 187.500 404.830"/>
<path d="M 220.170 404.830 L 223.011 404.830"/>
<path d="M 235.795 404.830 L 240.057 404.830"/>
<path d="M 269.886 404.830 L 271.307 404.830"/>
<path d="M 369.318 404.830 L 372.159 404.830"/>
<path d="M 441.761 404.830 L 443.182 404.830"/>
<path d="M 444.602 404.830 L 451.705 404.830"/>
<path d="M 747.159 404.830 L 748.580 404.830"/>
<path d="M 765.625 404.830 L 767.045 404.830"/>
<path d="M 772.727 404.830 L 774.148 404.830"/>
<path d="M 102.273 409.091 L 103.693 409.091"/>
<path d="M 144.886 409.091 L 146.307 409.091"/>
<path d="M 223.011 409.091 L 228.693 409.091"/>
<path d="M 267.045 409.091 L 274.148 409.091"/>
<path d="M 370.739 409.091 L 373.580 409.091"/>
<path d="M 441.761 409.091 L 443.182 409.091"/>
<path d="M 450.284 409.091 L 451.705 409.091"/>
<path d="M 477.273 409.091 L 480.114 409.091"/>
<path d="M 605.114 409.091 L 606.534 409.091"/>
<path d="M 742.898 409.091 L 745.739 409.091"/>
<path d="M 73.864 413.352 L 80.966 413.352"/>
<path d="M 103.693 413.352 L 105.114 413.352"/>
<path d="M 125.000 413.352 L 126.420 413.352"/>
<path d="M 143.466 413.352 L 144.886 413.352"/>
<path d="M 154.830 413.352 L 156.250 413.352"/>
<path d="M 183.239 413.352 L 186.080 413.352"/>
<path d="M 227.273 413.352 L 230.114 413.352"/>
<path d="M 265.625 413.352 L 267.045 413.352"/>
<path d="M 268.466 413.352 L 272.727 413.352"/>
<path d="M 441.761 413.352 L 444.602 413.352"/>
<path d="M 451.705 413.352 L 453.125 413.352"/>
<path d="M 471.591 413.352 L 477.273 413.352"/>
<path d="M 579.545 413.352 L 580.966 413.352"/>
<path d="M 82.386 417.614 L 85.227 417.614"/>
<path d="M 106.534 417.614 L 107.955 417.614"/>
<path d="M 122.159 417.614 L 123.580 417.614"/>
<path d="M 143.466 417.614 L 146.307 417.614"/>
<path d="M 188.920 417.614 L 198.864 417.614"/>
<path d="M 204.545 417.614 L 205.966 417.614"/>
<path d="M 261.364 417.614 L 268.466 417.614"/>
<path d="M 269.886 417.614 L 271.307 417.614"/>
<path d="M 441.761 417.614 L 453.125 417.614"/>
<path d="M 85.227 421.875 L 86.648 421.875"/>
<path d="M 110.795 421.875 L 112.216 421.875"/>
<path d="M 119.318 421.875 L 120.739 421.875"/>
<path d="M 129.261 421.875 L 133.523 421.875"/>
<path d="M 134.943 421.875 L 136.364 421.875"/>
<path d="M 140.625 421.875 L 142.045 421.875"/>
<path d="M 143.466 421.875 L 146.307 421.875"/>
<path d="M 244.318 421.875 L 247.159 421.875"/>
<path d="M 444.602 421.875 L 450.284 421.875"/>
<path d="M 471.591 421.875 L 473.011 421.875"/>
<path d="M 553.977 421.875 L 555.398 421.875"/>
<path d="M 90.909 426.136 L 95.170 426.136"/>
<path d="M 99.432 426.136 L 103.693 426.136"/>
<path d="M 113.636 426.136 L 116.477 426.136"/>
<path d="M 126.420 426.136 L 127.841 426.136"/>
<path d="M 129.261 426.136 L 130.682 426.136"/>
<path d="M 153.409 426.136 L 154.830 426.136"/>
<path d="M 184.659 426.136 L 186.080 426.136"/>
<path d="M 252.841 426.136 L 257.102 426.136"/>
<path d="M 447.443 426.136 L 448.864 426.136"/>
<path d="M 576.705 426.136 L 578.125 426.136"/>
<path d="M 781.250 426.136 L 782.670 426.136"/>
<path d="M 116.477 430.398 L 117.898 430.398"/>
<path d="M 126.420 430.398 L 132.102 430.398"/>
<path d="M 186.080 430.398 L 188.920 430.398"/>
<path d="M 468.750 430.398 L 471.591 430.398"/>
<path d="M 744.318 430.398 L 745.739 430.398"/>
<path d="M 779.830 430.398 L 781.250 430.398"/>
<path d="M 116.477 434.659 L 117.898 434.659"/>
<path d="M 164.773 434.659 L 166.193 434.659"/>
<path d="M 228.693 434.659 L 230.114 434.659"/>
<path d="M 235.795 434.659 L 237.216 434.659"/>
<path d="M 553.977 434.659 L 556.818 434.659"/>
<path d="M 593.750 434.659 L 595.170 434.659"/>
<path d="M 130.682 438.920 L 132.102 438.920"/>
<path d="M 151.989 438.920 L 154.830 438.920"/>
<path d="M 161.932 438.920 L 163.352 438.920"/>
<path d="M 205.966 438.920 L 207.386 438.920"/>
<path d="M 211.648 438.920 L 213.068 438.920"/>
<path d="M 223.011 438.920 L 224.432 438.920"/>
<path d="M 225.852 438.920 L 227.273 438.920"/>
<path d="M 250.000 438.920 L 254.261 438.920"/>
<path d="M 356.534 438.920 L 362.216 438.920"/>
<path d="M 464.489 438.920 L 467.330 438.920"/>
<path d="M 573.864 438.920 L 575.284 438.920"/>
<path d="M 66.761 443.182 L 68.182 443.182"/>
<path d="M 76.705 443.182 L 78.125 443.182"/>
<path d="M 120.739 443.182 L 126.420 443.182"/>
<path d="M 156.250 443.182 L 159.091 443.182"/>
<path d="M 203.125 443.182 L 204.545 443.182"/>
<path d="M 215.909 443.182 L 218.750 443.182"/>
<path d="M 221.591 443.182 L 223.011 443.182"/>
<path d="M 227.273 443.182 L 231.534 443.182"/>
<path d="M 238.636 443.182 L 254.261 443.182"/>
<path d="M 353.693 443.182 L 362.216 443.182"/>
<path d="M 463.068 443.182 L 464.489 443.182"/>
<path d="M 556.818 443.182 L 558.239 443.182"/>
<path d="M 107.955 447.443 L 109.375 447.443"/>
<path d="M 119.318 447.443 L 120.739 447.443"/>
<path d="M 123.580 447.443 L 125.000 447.443"/>
<path d="M 129.261 447.443 L 130.682 447.443"/>
<path d="M 156.250 447.443 L 157.670 447.443"/>
<path d="M 174.716 447.443 L 176.136 447.443"/>
<path d="M 217.330 447.443 L 223.011 447.443"/>
<path d="M 230.114 447.443 L 241.477 447.443"/>
<path d="M 247.159 447.443 L 248.580 447.443"/>
<path d="M 357.955 447.443 L 359.375 447.443"/>
<path d="M 457.386 447.443 L 460.227 447.443"/>
<path d="M 589.489 447.443 L 590.909 447.443"/>
<path d="M 59.659 451.705 L 61.080 451.705"/>
<path d="M 95.170 451.705 L 96.591 451.705"/>
<path d="M 110.795 451.705 L 113.636 451.705"/>
<path d="M 130.682 451.705 L 134.943 451.705"/>
<path d="M 153.409 451.705 L 154.830 451.705"/>
<path d="M 170.455 451.705 L 176.136 451.705"/>
<path d="M 214.489 451.705 L 220.170 451.705"/>
<path d="M 225.852 451.705 L 238.636 451.705"/>
<path d="M 242.898 451.705 L 245.739 451.705"/>
<path d="M 453.125 451.705 L 454.545 451.705"/>
<path d="M 63.920 455.966 L 66.761 455.966"/>
<path d="M 107.955 455.966 L 109.375 455.966"/>
<path d="M 132.102 455.966 L 133.523 455.966"/>
<path d="M 134.943 455.966 L 136.364 455.966"/>
<path d="M 147.727 455.966 L 149.148 455.966"/>
<path d="M 164.773 455.966 L 167.614 455.966"/>
<path d="M 177.557 455.966 L 178.977 455.966"/>
<path d="M 201.705 455.966 L 204.545 455.966"/>
<path d="M 213.068 455.966 L 214.489 455.966"/>
<path d="M 215.909 455.966 L 218.750 455.966"/>
<path d="M 224.432 455.966 L 225.852 455.966"/>
<path d="M 235.795 455.966 L 238.636 455.966"/>
<path d="M 241.477 455.966 L 245.739 455.966"/>
<path d="M 450.284 455.966 L 453.125 455.966"/>
<path d="M 717.330 455.966 L 718.750 455.966"/>
<path d="M 69.602 460.227 L 75.284 460.227"/>
<path d="M 106.534 460.227 L 109.375 460.227"/>
<path d="M 132.102 460.227 L 133.523 460.227"/>
<path d="M 159.091 460.227 L 163.352 460.227"/>
<path d="M 178.977 460.227 L 180.398 460.227"/>
<path d="M 205.966 460.227 L 208.807 460.227"/>
<path d="M 448.864 460.227 L 450.284 460.227"/>
<path d="M 555.398 460.227 L 556.818 460.227"/>
<path d="M 80.966 464.489 L 85.227 464.489"/>
<path d="M 106.534 464.489 L 109.375 464.489"/>
<path d="M 130.682 464.489 L 132.102 464.489"/>
<path d="M 156.250 464.489 L 159.091 464.489"/>
<path d="M 178.977 464.489 L 180.398 464.489"/>
<path d="M 446.023 464.489 L 448.864 464.489"/>
<path d="M 556.818 464.489 L 558.239 464.489"/>
<path d="M 779.830 464.489 L 781.250 464.489"/>
<path d="M 85.227 468.750 L 88.068 468.750"/>
<path d="M 106.534 468.750 L 112.216 468.750"/>
<path d="M 129.261 468.750 L 132.102 468.750"/>
<path d="M 160.511 468.750 L 161.932 468.750"/>
<path d="M 178.977 468.750 L 181.818 468.750"/>
<path d="M 446.023 468.750 L 447.443 468.750"/>
<path d="M 556.818 468.750 L 558.239 468.750"/>
<path d="M 579.545 468.750 L 580.966 468.750"/>
<path d="M 633.523 468.750 L 634.943 468.750"/>
<path d="M 715.909 468.750 L 717.330 468.750"/>
<path d="M 762.784 468.750 L 774.148 468.750"/>
<path d="M 86.648 473.011 L 88.068 473.011"/>
<path d="M 123.580 473.011 L 130.682 473.011"/>
<path d="M 146.307 473.011 L 147.727 473.011"/>
<path d="M 153.409 473.011 L 154.830 473.011"/>
<path d="M 163.352 473.011 L 169.034 473.011"/>
<path d="M 177.557 473.011 L 181.818 473.011"/>
<path d="M 450.284 473.011 L 451.705 473.011"/>
<path d="M 558.239 473.011 L 561.080 473.011"/>
<path d="M 568.182 473.011 L 569.602 473.011"/>
<path d="M 636.364 473.011 L 637.784 473.011"/>
<path d="M 671.875 473.011 L 673.295 473.011"/>
<path d="M 88.068 477.273 L 89.489 477.273"/>
<path d="M 98.011 477.273 L 100.852 477.273"/>
<path d="M 143.466 477.273 L 144.886 477.273"/>
<path d="M 157.670 477.273 L 159.091 477.273"/>
<path d="M 441.761 477.273 L 443.182 477.273"/>
<path d="M 556.818 477.273 L 558.239 477.273"/>
<path d="M 561.080 477.273 L 562.500 477.273"/>
<path d="M 784.091 477.273 L 785.511 477.273"/>
<path d="M 88.068 481.534 L 89.489 481.534"/>
<path d="M 95.170 481.534 L 96.591 481.534"/>
<path d="M 113.636 481.534 L 117.898 481.534"/>
<path d="M 122.159 481.534 L 123.580 481.534"/>
<path d="M 150.568 481.534 L 153.409 481.534"/>
<path d="M 428.977 481.534 L 431.818 481.534"/>
<path d="M 441.761 481.534 L 443.182 481.534"/>
<path d="M 696.023 481.534 L 697.443 481.534"/>
<path d="M 93.750 485.795 L 95.170 485.795"/>
<path d="M 115.057 485.795 L 116.477 485.795"/>
<path d="M 143.466 485.795 L 146.307 485.795"/>
<path d="M 424.716 485.795 L 430.398 485.795"/>
<path d="M 441.761 485.795 L 444.602 485.795"/>
<path d="M 657.670 485.795 L 659.091 485.795"/>
<path d="M 742.898 485.795 L 744.318 485.795"/>
<path d="M 90.909 490.057 L 92.330 490.057"/>
<path d="M 109.375 490.057 L 110.795 490.057"/>
<path d="M 113.636 490.057 L 115.057 490.057"/>
<path d="M 116.477 490.057 L 117.898 490.057"/>
<path d="M 119.318 490.057 L 125.000 490.057"/>
<path d="M 208.807 490.057 L 210.227 490.057"/>
<path d="M 420.455 490.057 L 424.716 490.057"/>
<path d="M 492.898 490.057 L 494.318 490.057"/>
<path d="M 654.830 490.057 L 656.250 490.057"/>
<path d="M 686.080 490.057 L 690.341 490.057"/>
<path d="M 724.432 490.057 L 725.852 490.057"/>
<path d="M 751.420 490.057 L 754.261 490.057"/>
<path d="M 85.227 494.318 L 86.648 494.318"/>
<path d="M 106.534 494.318 L 109.375 494.318"/>
<path d="M 113.636 494.318 L 123.580 494.318"/>
<path d="M 488.636 494.318 L 490.057 494.318"/>
<path d="M 647.727 494.318 L 649.148 494.318"/>
<path d="M 724.432 494.318 L 725.852 494.318"/>
<path d="M 105.114 498.580 L 106.534 498.580"/>
<path d="M 109.375 498.580 L 115.057 498.580"/>
<path d="M 116.477 498.580 L 119.318 498.580"/>
<path d="M 288.352 498.580 L 291.193 498.580"/>
<path d="M 443.182 498.580 L 444.602 498.580"/>
<path d="M 644.886 498.580 L 647.727 498.580"/>
<path d="M 83.807 502.841 L 85.227 502.841"/>
<path d="M 92.330 502.841 L 93.750 502.841"/>
<path d="M 103.693 502.841 L 105.114 502.841"/>
<path d="M 109.375 502.841 L 116.477 502.841"/>
<path d="M 117.898 502.841 L 120.739 502.841"/>
<path d="M 146.307 502.841 L 149.148 502.841"/>
<path d="M 438.920 502.841 L 440.341 502.841"/>
<path d="M 634.943 502.841 L 636.364 502.841"/>
<path d="M 667.614 502.841 L 671.875 502.841"/>
<path d="M 791.193 502.841 L 792.614 502.841"/>
<path d="M 85.227 507.102 L 86.648 507.102"/>
<path d="M 92.330 507.102 L 93.750 507.102"/>
<path d="M 100.852 507.102 L 105.114 507.102"/>
<path d="M 112.216 507.102 L 113.636 507.102"/>
<path d="M 140.625 507.102 L 142.045 507.102"/>
<path d="M 147.727 507.102 L 149.148 507.102"/>
<path d="M 428.977 507.102 L 434.659 507.102"/>
<path d="M 481.534 507.102 L 482.955 507.102"/>
<path d="M 571.023 507.102 L 573.864 507.102"/>
<path d="M 575.284 507.102 L 578.125 507.102"/>
<path d="M 794.034 507.102 L 796.875 507.102"/>
<path d="M 139.205 511.364 L 150.568 511.364"/>
<path d="M 171.875 511.364 L 173.295 511.364"/>
<path d="M 421.875 511.364 L 423.295 511.364"/>
<path d="M 92.330 515.625 L 93.750 515.625"/>
<path d="M 146.307 515.625 L 149.148 515.625"/>
<path d="M 169.034 515.625 L 184.659 515.625"/>
<path d="M 417.614 515.625 L 419.034 515.625"/>
<path d="M 480.114 515.625 L 481.534 515.625"/>
<path d="M 568.182 515.625 L 571.023 515.625"/>
<path d="M 595.170 515.625 L 596.591 515.625"/>
<path d="M 704.545 515.625 L 710.227 515.625"/>
<path d="M 735.795 515.625 L 738.636 515.625"/>
<path d="M 745.739 515.625 L 748.580 515.625"/>
<path d="M 832.386 515.625 L 833.807 515.625"/>
<path d="M 186.080 519.886 L 187.500 519.886"/>
<path d="M 197.443 519.886 L 198.864 519.886"/>
<path d="M 478.693 519.886 L 480.114 519.886"/>
<path d="M 661.932 519.886 L 663.352 519.886"/>
<path d="M 718.750 519.886 L 727.273 519.886"/>
<path d="M 794.034 519.886 L 795.455 519.886"/>
<path d="M 96.591 524.148 L 98.011 524.148"/>
<path d="M 119.318 524.148 L 120.739 524.148"/>
<path d="M 122.159 524.148 L 123.580 524.148"/>
<path d="M 187.500 524.148 L 188.920 524.148"/>
<path d="M 200.284 524.148 L 201.705 524.148"/>
<path d="M 279.830 524.148 L 281.250 524.148"/>
<path d="M 407.670 524.148 L 409.091 524.148"/>
<path d="M 478.693 524.148 L 480.114 524.148"/>
<path d="M 566.761 524.148 L 568.182 524.148"/>
<path d="M 667.614 524.148 L 669.034 524.148"/>
<path d="M 714.489 524.148 L 718.750 524.148"/>
<path d="M 112.216 528.409 L 113.636 528.409"/>
<path d="M 120.739 528.409 L 123.580 528.409"/>
<path d="M 156.250 528.409 L 160.511 528.409"/>
<path d="M 200.284 528.409 L 201.705 528.409"/>
<path d="M 369.318 528.409 L 375.000 528.409"/>
<path d="M 401.989 528.409 L 404.830 528.409"/>
<path d="M 478.693 528.409 L 481.534 528.409"/>
<path d="M 630.682 528.409 L 632.102 528.409"/>
<path d="M 761.364 528.409 L 762.784 528.409"/>
<path d="M 855.114 528.409 L 856.534 528.409"/>
<path d="M 122.159 532.670 L 123.580 532.670"/>
<path d="M 125.000 532.670 L 127.841 532.670"/>
<path d="M 153.409 532.670 L 156.250 532.670"/>
<path d="M 160.511 532.670 L 163.352 532.670"/>
<path d="M 190.341 532.670 L 191.761 532.670"/>
<path d="M 201.705 532.670 L 203.125 532.670"/>
<path d="M 365.057 532.670 L 369.318 532.670"/>
<path d="M 383.523 532.670 L 389.205 532.670"/>
<path d="M 563.920 532.670 L 565.341 532.670"/>
<path d="M 757.102 532.670 L 758.523 532.670"/>
<path d="M 856.534 532.670 L 857.955 532.670"/>
<path d="M 862.216 532.670 L 863.636 532.670"/>
<path d="M 901.989 532.670 L 903.409 532.670"/>
<path d="M 107.955 536.932 L 109.375 536.932"/>
<path d="M 153.409 536.932 L 154.830 536.932"/>
<path d="M 161.932 536.932 L 163.352 536.932"/>
<path d="M 203.125 536.932 L 204.545 536.932"/>
<path d="M 363.636 536.932 L 365.057 536.932"/>
<path d="M 481.534 536.932 L 484.375 536.932"/>
<path d="M 568.182 536.932 L 569.602 536.932"/>
<path d="M 651.989 536.932 L 653.409 536.932"/>
<path d="M 681.818 536.932 L 683.239 536.932"/>
<path d="M 796.875 536.932 L 798.295 536.932"/>
<path d="M 154.830 541.193 L 160.511 541.193"/>
<path d="M 360.795 541.193 L 362.216 541.193"/>
<path d="M 363.636 541.193 L 365.057 541.193"/>
<path d="M 380.682 541.193 L 383.523 541.193"/>
<path d="M 482.955 541.193 L 487.216 541.193"/>
<path d="M 563.920 541.193 L 566.761 541.193"/>
<path d="M 613.636 541.193 L 615.057 541.193"/>
<path d="M 630.682 541.193 L 632.102 541.193"/>
<path d="M 650.568 541.193 L 654.830 541.193"/>
<path d="M 677.557 541.193 L 678.977 541.193"/>
<path d="M 796.875 541.193 L 798.295 541.193"/>
<path d="M 107.955 545.455 L 109.375 545.455"/>
<path d="M 123.580 545.455 L 133.523 545.455"/>
<path d="M 274.148 545.455 L 279.830 545.455"/>
<path d="M 281.250 545.455 L 284.091 545.455"/>
<path d="M 487.216 545.455 L 490.057 545.455"/>
<path d="M 583.807 545.455 L 585.227 545.455"/>
<path d="M 617.898 545.455 L 619.318 545.455"/>
<path d="M 799.716 545.455 L 801.136 545.455"/>
<path d="M 846.591 545.455 L 848.011 545.455"/>
<path d="M 880.682 545.455 L 882.102 545.455"/>
<path d="M 110.795 549.716 L 120.739 549.716"/>
<path d="M 134.943 549.716 L 139.205 549.716"/>
<path d="M 267.045 549.716 L 268.466 549.716"/>
<path d="M 271.307 549.716 L 272.727 549.716"/>
<path d="M 285.511 549.716 L 286.932 549.716"/>
<path d="M 397.727 549.716 L 399.148 549.716"/>
<path d="M 487.216 549.716 L 492.898 549.716"/>
<path d="M 494.318 549.716 L 495.739 549.716"/>
<path d="M 622.159 549.716 L 623.580 549.716"/>
<path d="M 678.977 549.716 L 681.818 549.716"/>
<path d="M 697.443 549.716 L 698.864 549.716"/>
<path d="M 853.693 549.716 L 855.114 549.716"/>
<path d="M 860.795 549.716 L 863.636 549.716"/>
<path d="M 134.943 553.977 L 142.045 553.977"/>
<path d="M 247.159 553.977 L 251.420 553.977"/>
<path d="M 281.250 553.977 L 284.091 553.977"/>
<path d="M 394.886 553.977 L 399.148 553.977"/>
<path d="M 490.057 553.977 L 495.739 553.977"/>
<path d="M 622.159 553.977 L 623.580 553.977"/>
<path d="M 657.670 553.977 L 659.091 553.977"/>
<path d="M 784.091 553.977 L 785.511 553.977"/>
<path d="M 794.034 553.977 L 795.455 553.977"/>
<path d="M 867.898 553.977 L 872.159 553.977"/>
<path d="M 125.000 558.239 L 129.261 558.239"/>
<path d="M 247.159 558.239 L 250.000 558.239"/>
<path d="M 276.989 558.239 L 281.250 558.239"/>
<path d="M 369.318 558.239 L 375.000 558.239"/>
<path d="M 394.886 558.239 L 397.727 558.239"/>
<path d="M 497.159 558.239 L 500.000 558.239"/>
<path d="M 619.318 558.239 L 620.739 558.239"/>
<path d="M 681.818 558.239 L 683.239 558.239"/>
<path d="M 703.125 558.239 L 704.545 558.239"/>
<path d="M 718.750 558.239 L 723.011 558.239"/>
<path d="M 791.193 558.239 L 794.034 558.239"/>
<path d="M 865.057 558.239 L 867.898 558.239"/>
<path d="M 869.318 558.239 L 873.580 558.239"/>
<path d="M 889.205 558.239 L 892.045 558.239"/>
<path d="M 247.159 562.500 L 250.000 562.500"/>
<path d="M 272.727 562.500 L 275.568 562.500"/>
<path d="M 363.636 562.500 L 369.318 562.500"/>
<path d="M 370.739 562.500 L 377.841 562.500"/>
<path d="M 392.045 562.500 L 394.886 562.500"/>
<path d="M 501.420 562.500 L 504.261 562.500"/>
<path d="M 617.898 562.500 L 619.318 562.500"/>
<path d="M 657.670 562.500 L 659.091 562.500"/>
<path d="M 663.352 562.500 L 664.773 562.500"/>
<path d="M 678.977 562.500 L 680.398 562.500"/>
<path d="M 718.750 562.500 L 720.170 562.500"/>
<path d="M 728.693 562.500 L 730.114 562.500"/>
<path d="M 742.898 562.500 L 744.318 562.500"/>
<path d="M 778.409 562.500 L 779.830 562.500"/>
<path d="M 789.773 562.500 L 791.193 562.500"/>
<path d="M 866.477 562.500 L 869.318 562.500"/>
<path d="M 102.273 566.761 L 103.693 566.761"/>
<path d="M 247.159 566.761 L 250.000 566.761"/>
<path d="M 355.114 566.761 L 360.795 566.761"/>
<path d="M 377.841 566.761 L 380.682 566.761"/>
<path d="M 382.102 566.761 L 387.784 566.761"/>
<path d="M 390.625 566.761 L 392.045 566.761"/>
<path d="M 463.068 566.761 L 464.489 566.761"/>
<path d="M 502.841 566.761 L 507.102 566.761"/>
<path d="M 616.477 566.761 L 617.898 566.761"/>
<path d="M 718.750 566.761 L 721.591 566.761"/>
<path d="M 755.682 566.761 L 757.102 566.761"/>
<path d="M 761.364 566.761 L 762.784 566.761"/>
<path d="M 765.625 566.761 L 768.466 566.761"/>
<path d="M 775.568 566.761 L 776.989 566.761"/>
<path d="M 877.841 566.761 L 880.682 566.761"/>
<path d="M 882.102 566.761 L 884.943 566.761"/>
<path d="M 894.886 566.761 L 896.307 566.761"/>
<path d="M 897.727 566.761 L 899.148 566.761"/>
<path d="M 105.114 571.023 L 106.534 571.023"/>
<path d="M 122.159 571.023 L 129.261 571.023"/>
<path d="M 247.159 571.023 L 250.000 571.023"/>
<path d="M 265.625 571.023 L 267.045 571.023"/>
<path d="M 355.114 571.023 L 359.375 571.023"/>
<path d="M 417.614 571.023 L 419.034 571.023"/>
<path d="M 443.182 571.023 L 446.023 571.023"/>
<path d="M 501.420 571.023 L 502.841 571.023"/>
<path d="M 505.682 571.023 L 509.943 571.023"/>
<path d="M 659.091 571.023 L 660.511 571.023"/>
<path d="M 667.614 571.023 L 669.034 571.023"/>
<path d="M 684.659 571.023 L 686.080 571.023"/>
<path d="M 703.125 571.023 L 704.545 571.023"/>
<path d="M 707.386 571.023 L 708.807 571.023"/>
<path d="M 710.227 571.023 L 711.648 571.023"/>
<path d="M 721.591 571.023 L 723.011 571.023"/>
<path d="M 784.091 571.023 L 785.511 571.023"/>
<path d="M 876.420 571.023 L 883.523 571.023"/>
<path d="M 894.886 571.023 L 896.307 571.023"/>
<path d="M 899.148 571.023 L 901.989 571.023"/>
<path d="M 130.682 575.284 L 134.943 575.284"/>
<path d="M 143.466 575.284 L 149.148 575.284"/>
<path d="M 254.261 575.284 L 261.364 575.284"/>
<path d="M 353.693 575.284 L 360.795 575.284"/>
<path d="M 474.432 575.284 L 478.693 575.284"/>
<path d="M 480.114 575.284 L 494.318 575.284"/>
<path d="M 504.261 575.284 L 509.943 575.284"/>
<path d="M 613.636 575.284 L 615.057 575.284"/>
<path d="M 660.511 575.284 L 661.932 575.284"/>
<path d="M 703.125 575.284 L 704.545 575.284"/>
<path d="M 705.966 575.284 L 707.386 575.284"/>
<path d="M 727.273 575.284 L 731.534 575.284"/>
<path d="M 776.989 575.284 L 778.409 575.284"/>
<path d="M 877.841 575.284 L 884.943 575.284"/>
<path d="M 894.886 575.284 L 896.307 575.284"/>
<path d="M 900.568 575.284 L 903.409 575.284"/>
<path d="M 146.307 579.545 L 149.148 579.545"/>
<path d="M 247.159 579.545 L 265.625 579.545"/>
<path d="M 267.045 579.545 L 269.886 579.545"/>
<path d="M 353.693 579.545 L 360.795 579.545"/>
<path d="M 366.477 579.545 L 369.318 579.545"/>
<path d="M 372.159 579.545 L 373.580 579.545"/>
<path d="M 509.943 579.545 L 511.364 579.545"/>
<path d="M 569.602 579.545 L 571.023 579.545"/>
<path d="M 661.932 579.545 L 663.352 579.545"/>
<path d="M 664.773 579.545 L 666.193 579.545"/>
<path d="M 707.386 579.545 L 708.807 579.545"/>
<path d="M 737.216 579.545 L 741.477 579.545"/>
<path d="M 775.568 579.545 L 779.830 579.545"/>
<path d="M 896.307 579.545 L 897.727 579.545"/>
<path d="M 899.148 579.545 L 906.250 579.545"/>
<path d="M 142.045 583.807 L 143.466 583.807"/>
<path d="M 144.886 583.807 L 147.727 583.807"/>
<path d="M 244.318 583.807 L 247.159 583.807"/>
<path d="M 267.045 583.807 L 268.466 583.807"/>
<path d="M 383.523 583.807 L 384.943 583.807"/>
<path d="M 386.364 583.807 L 390.625 583.807"/>
<path d="M 511.364 583.807 L 512.784 583.807"/>
<path d="M 552.557 583.807 L 553.977 583.807"/>
<path d="M 572.443 583.807 L 575.284 583.807"/>
<path d="M 580.966 583.807 L 583.807 583.807"/>
<path d="M 598.011 583.807 L 599.432 583.807"/>
<path d="M 663.352 583.807 L 664.773 583.807"/>
<path d="M 697.443 583.807 L 698.864 583.807"/>
<path d="M 711.648 583.807 L 713.068 583.807"/>
<path d="M 720.170 583.807 L 721.591 583.807"/>
<path d="M 747.159 583.807 L 748.580 583.807"/>
<path d="M 769.886 583.807 L 776.989 583.807"/>
<path d="M 848.011 583.807 L 850.852 583.807"/>
<path d="M 889.205 583.807 L 892.045 583.807"/>
<path d="M 903.409 583.807 L 907.670 583.807"/>
<path d="M 242.898 588.068 L 254.261 588.068"/>
<path d="M 258.523 588.068 L 264.205 588.068"/>
<path d="M 265.625 588.068 L 267.045 588.068"/>
<path d="M 403.409 588.068 L 404.830 588.068"/>
<path d="M 514.205 588.068 L 517.045 588.068"/>
<path d="M 555.398 588.068 L 556.818 588.068"/>
<path d="M 664.773 588.068 L 666.193 588.068"/>
<path d="M 669.034 588.068 L 670.455 588.068"/>
<path d="M 671.875 588.068 L 673.295 588.068"/>
<path d="M 691.761 588.068 L 693.182 588.068"/>
<path d="M 713.068 588.068 L 714.489 588.068"/>
<path d="M 752.841 588.068 L 754.261 588.068"/>
<path d="M 849.432 588.068 L 850.852 588.068"/>
<path d="M 903.409 588.068 L 910.511 588.068"/>
<path d="M 407.670 592.330 L 410.511 592.330"/>
<path d="M 514.205 592.330 L 515.625 592.330"/>
<path d="M 558.239 592.330 L 559.659 592.330"/>
<path d="M 569.602 592.330 L 571.023 592.330"/>
<path d="M 691.761 592.330 L 693.182 592.330"/>
<path d="M 714.489 592.330 L 715.909 592.330"/>
<path d="M 755.682 592.330 L 757.102 592.330"/>
<path d="M 849.432 592.330 L 853.693 592.330"/>
<path d="M 893.466 592.330 L 894.886 592.330"/>
<path d="M 903.409 592.330 L 913.352 592.330"/>
<path d="M 142.045 596.591 L 143.466 596.591"/>
<path d="M 146.307 596.591 L 147.727 596.591"/>
<path d="M 289.773 596.591 L 295.455 596.591"/>
<path d="M 296.875 596.591 L 298.295 596.591"/>
<path d="M 386.364 596.591 L 387.784 596.591"/>
<path d="M 519.886 596.591 L 526.989 596.591"/>
<path d="M 552.557 596.591 L 553.977 596.591"/>
<path d="M 643.466 596.591 L 644.886 596.591"/>
<path d="M 717.330 596.591 L 718.750 596.591"/>
<path d="M 727.273 596.591 L 728.693 596.591"/>
<path d="M 751.420 596.591 L 752.841 596.591"/>
<path d="M 850.852 596.591 L 857.955 596.591"/>
<path d="M 904.830 596.591 L 906.250 596.591"/>
<path d="M 909.091 596.591 L 916.193 596.591"/>
<path d="M 143.466 600.852 L 147.727 600.852"/>
<path d="M 288.352 600.852 L 301.136 600.852"/>
<path d="M 414.773 600.852 L 416.193 600.852"/>
<path d="M 525.568 600.852 L 534.091 600.852"/>
<path d="M 646.307 600.852 L 647.727 600.852"/>
<path d="M 666.193 600.852 L 667.614 600.852"/>
<path d="M 677.557 600.852 L 678.977 600.852"/>
<path d="M 696.023 600.852 L 697.443 600.852"/>
<path d="M 717.330 600.852 L 720.170 600.852"/>
<path d="M 730.114 600.852 L 731.534 600.852"/>
<path d="M 737.216 600.852 L 742.898 600.852"/>
<path d="M 849.432 600.852 L 856.534 600.852"/>
<path d="M 859.375 600.852 L 860.795 600.852"/>
<path d="M 916.193 600.852 L 917.614 600.852"/>
<path d="M 115.057 605.114 L 116.477 605.114"/>
<path d="M 117.898 605.114 L 119.318 605.114"/>
<path d="M 221.591 605.114 L 234.375 605.114"/>
<path d="M 281.250 605.114 L 282.670 605.114"/>
<path d="M 286.932 605.114 L 288.352 605.114"/>
<path d="M 289.773 605.114 L 298.295 605.114"/>
<path d="M 346.591 605.114 L 357.955 605.114"/>
<path d="M 677.557 605.114 L 678.977 605.114"/>
<path d="M 848.011 605.114 L 863.636 605.114"/>
<path d="M 914.773 605.114 L 919.034 605.114"/>
<path d="M 117.898 609.375 L 119.318 609.375"/>
<path d="M 127.841 609.375 L 130.682 609.375"/>
<path d="M 218.750 609.375 L 225.852 609.375"/>
<path d="M 235.795 609.375 L 242.898 609.375"/>
<path d="M 345.170 609.375 L 386.364 609.375"/>
<path d="M 419.034 609.375 L 423.295 609.375"/>
<path d="M 446.023 609.375 L 447.443 609.375"/>
<path d="M 460.227 609.375 L 461.648 609.375"/>
<path d="M 680.398 609.375 L 683.239 609.375"/>
<path d="M 842.330 609.375 L 843.750 609.375"/>
<path d="M 849.432 609.375 L 856.534 609.375"/>
<path d="M 919.034 609.375 L 920.455 609.375"/>
<path d="M 119.318 613.636 L 120.739 613.636"/>
<path d="M 133.523 613.636 L 137.784 613.636"/>
<path d="M 159.091 613.636 L 161.932 613.636"/>
<path d="M 163.352 613.636 L 166.193 613.636"/>
<path d="M 218.750 613.636 L 221.591 613.636"/>
<path d="M 244.318 613.636 L 247.159 613.636"/>
<path d="M 340.909 613.636 L 352.273 613.636"/>
<path d="M 383.523 613.636 L 396.307 613.636"/>
<path d="M 419.034 613.636 L 420.455 613.636"/>
<path d="M 431.818 613.636 L 434.659 613.636"/>
<path d="M 465.909 613.636 L 468.750 613.636"/>
<path d="M 521.307 613.636 L 522.727 613.636"/>
<path d="M 784.091 613.636 L 788.352 613.636"/>
<path d="M 845.170 613.636 L 849.432 613.636"/>
<path d="M 860.795 613.636 L 865.057 613.636"/>
<path d="M 907.670 613.636 L 909.091 613.636"/>
<path d="M 916.193 613.636 L 919.034 613.636"/>
<path d="M 110.795 617.898 L 112.216 617.898"/>
<path d="M 139.205 617.898 L 146.307 617.898"/>
<path d="M 161.932 617.898 L 164.773 617.898"/>
<path d="M 167.614 617.898 L 176.136 617.898"/>
<path d="M 203.125 617.898 L 214.489 617.898"/>
<path d="M 247.159 617.898 L 252.841 617.898"/>
<path d="M 348.011 617.898 L 353.693 617.898"/>
<path d="M 397.727 617.898 L 404.830 617.898"/>
<path d="M 409.091 617.898 L 410.511 617.898"/>
<path d="M 417.614 617.898 L 420.455 617.898"/>
<path d="M 431.818 617.898 L 434.659 617.898"/>
<path d="M 468.750 617.898 L 470.170 617.898"/>
<path d="M 517.045 617.898 L 518.466 617.898"/>
<path d="M 779.830 617.898 L 788.352 617.898"/>
<path d="M 855.114 617.898 L 859.375 617.898"/>
<path d="M 860.795 617.898 L 873.580 617.898"/>
<path d="M 921.875 617.898 L 924.716 617.898"/>
<path d="M 115.057 622.159 L 116.477 622.159"/>
<path d="M 144.886 622.159 L 147.727 622.159"/>
<path d="M 173.295 622.159 L 177.557 622.159"/>
<path d="M 207.386 622.159 L 218.750 622.159"/>
<path d="M 248.580 622.159 L 252.841 622.159"/>
<path d="M 352.273 622.159 L 356.534 622.159"/>
<path d="M 437.500 622.159 L 443.182 622.159"/>
<path d="M 471.591 622.159 L 473.011 622.159"/>
<path d="M 495.739 622.159 L 501.420 622.159"/>
<path d="M 514.205 622.159 L 517.045 622.159"/>
<path d="M 774.148 622.159 L 788.352 622.159"/>
<path d="M 855.114 622.159 L 879.261 622.159"/>
<path d="M 919.034 622.159 L 926.136 622.159"/>
<path d="M 120.739 626.420 L 122.159 626.420"/>
<path d="M 176.136 626.420 L 177.557 626.420"/>
<path d="M 207.386 626.420 L 208.807 626.420"/>
<path d="M 211.648 626.420 L 213.068 626.420"/>
<path d="M 220.170 626.420 L 223.011 626.420"/>
<path d="M 244.318 626.420 L 248.580 626.420"/>
<path d="M 357.955 626.420 L 359.375 626.420"/>
<path d="M 446.023 626.420 L 453.125 626.420"/>
<path d="M 470.170 626.420 L 471.591 626.420"/>
<path d="M 497.159 626.420 L 498.580 626.420"/>
<path d="M 505.682 626.420 L 515.625 626.420"/>
<path d="M 764.205 626.420 L 765.625 626.420"/>
<path d="M 768.466 626.420 L 786.932 626.420"/>
<path d="M 850.852 626.420 L 883.523 626.420"/>
<path d="M 921.875 626.420 L 924.716 626.420"/>
<path d="M 204.545 630.682 L 205.966 630.682"/>
<path d="M 211.648 630.682 L 214.489 630.682"/>
<path d="M 215.909 630.682 L 218.750 630.682"/>
<path d="M 305.398 630.682 L 319.602 630.682"/>
<path d="M 365.057 630.682 L 366.477 630.682"/>
<path d="M 453.125 630.682 L 464.489 630.682"/>
<path d="M 490.057 630.682 L 492.898 630.682"/>
<path d="M 494.318 630.682 L 502.841 630.682"/>
<path d="M 633.523 630.682 L 636.364 630.682"/>
<path d="M 640.625 630.682 L 642.045 630.682"/>
<path d="M 714.489 630.682 L 718.750 630.682"/>
<path d="M 720.170 630.682 L 721.591 630.682"/>
<path d="M 764.205 630.682 L 782.670 630.682"/>
<path d="M 849.432 630.682 L 882.102 630.682"/>
<path d="M 884.943 630.682 L 886.364 630.682"/>
<path d="M 923.295 630.682 L 928.977 630.682"/>
<path d="M 129.261 634.943 L 130.682 634.943"/>
<path d="M 200.284 634.943 L 214.489 634.943"/>
<path d="M 232.955 634.943 L 234.375 634.943"/>
<path d="M 235.795 634.943 L 237.216 634.943"/>
<path d="M 303.977 634.943 L 308.239 634.943"/>
<path d="M 321.023 634.943 L 328.125 634.943"/>
<path d="M 365.057 634.943 L 366.477 634.943"/>
<path d="M 491.477 634.943 L 498.580 634.943"/>
<path d="M 627.841 634.943 L 633.523 634.943"/>
<path d="M 637.784 634.943 L 642.045 634.943"/>
<path d="M 644.886 634.943 L 649.148 634.943"/>
<path d="M 650.568 634.943 L 657.670 634.943"/>
<path d="M 707.386 634.943 L 713.068 634.943"/>
<path d="M 755.682 634.943 L 784.091 634.943"/>
<path d="M 849.432 634.943 L 890.625 634.943"/>
<path d="M 917.614 634.943 L 919.034 634.943"/>
<path d="M 928.977 634.943 L 930.398 634.943"/>
<path d="M 130.682 639.205 L 134.943 639.205"/>
<path d="M 174.716 639.205 L 176.136 639.205"/>
<path d="M 197.443 639.205 L 198.864 639.205"/>
<path d="M 230.114 639.205 L 234.375 639.205"/>
<path d="M 254.261 639.205 L 255.682 639.205"/>
<path d="M 302.557 639.205 L 305.398 639.205"/>
<path d="M 328.125 639.205 L 332.386 639.205"/>
<path d="M 363.636 639.205 L 365.057 639.205"/>
<path d="M 424.716 639.205 L 426.136 639.205"/>
<path d="M 431.818 639.205 L 433.239 639.205"/>
<path d="M 477.273 639.205 L 478.693 639.205"/>
<path d="M 482.955 639.205 L 484.375 639.205"/>
<path d="M 626.420 639.205 L 653.409 639.205"/>
<path d="M 701.705 639.205 L 713.068 639.205"/>
<path d="M 752.841 639.205 L 784.091 639.205"/>
<path d="M 850.852 639.205 L 897.727 639.205"/>
<path d="M 924.716 639.205 L 926.136 639.205"/>
<path d="M 119.318 643.466 L 120.739 643.466"/>
<path d="M 186.080 643.466 L 193.182 643.466"/>
<path d="M 201.705 643.466 L 203.125 643.466"/>
<path d="M 214.489 643.466 L 217.330 643.466"/>
<path d="M 228.693 643.466 L 231.534 643.466"/>
<path d="M 251.420 643.466 L 261.364 643.466"/>
<path d="M 279.830 643.466 L 282.670 643.466"/>
<path d="M 298.295 643.466 L 303.977 643.466"/>
<path d="M 332.386 643.466 L 333.807 643.466"/>
<path d="M 356.534 643.466 L 362.216 643.466"/>
<path d="M 409.091 643.466 L 410.511 643.466"/>
<path d="M 475.852 643.466 L 478.693 643.466"/>
<path d="M 619.318 643.466 L 623.580 643.466"/>
<path d="M 626.420 643.466 L 651.989 643.466"/>
<path d="M 697.443 643.466 L 711.648 643.466"/>
<path d="M 748.580 643.466 L 751.420 643.466"/>
<path d="M 752.841 643.466 L 762.784 643.466"/>
<path d="M 765.625 643.466 L 781.250 643.466"/>
<path d="M 829.545 643.466 L 833.807 643.466"/>
<path d="M 853.693 643.466 L 904.830 643.466"/>
<path d="M 191.761 647.727 L 194.602 647.727"/>
<path d="M 197.443 647.727 L 198.864 647.727"/>
<path d="M 200.284 647.727 L 201.705 647.727"/>
<path d="M 248.580 647.727 L 251.420 647.727"/>
<path d="M 259.943 647.727 L 275.568 647.727"/>
<path d="M 282.670 647.727 L 285.511 647.727"/>
<path d="M 295.455 647.727 L 299.716 647.727"/>
<path d="M 336.648 647.727 L 340.909 647.727"/>
<path d="M 352.273 647.727 L 356.534 647.727"/>
<path d="M 406.250 647.727 L 407.670 647.727"/>
<path d="M 464.489 647.727 L 468.750 647.727"/>
<path d="M 470.170 647.727 L 471.591 647.727"/>
<path d="M 605.114 647.727 L 609.375 647.727"/>
<path d="M 610.795 647.727 L 612.216 647.727"/>
<path d="M 617.898 647.727 L 646.307 647.727"/>
<path d="M 693.182 647.727 L 707.386 647.727"/>
<path d="M 750.000 647.727 L 761.364 647.727"/>
<path d="M 768.466 647.727 L 776.989 647.727"/>
<path d="M 833.807 647.727 L 835.227 647.727"/>
<path d="M 855.114 647.727 L 887.784 647.727"/>
<path d="M 893.466 647.727 L 897.727 647.727"/>
<path d="M 901.989 647.727 L 907.670 647.727"/>
<path d="M 200.284 651.989 L 213.068 651.989"/>
<path d="M 248.580 651.989 L 250.000 651.989"/>
<path d="M 275.568 651.989 L 278.409 651.989"/>
<path d="M 294.034 651.989 L 296.875 651.989"/>
<path d="M 339.489 651.989 L 342.330 651.989"/>
<path d="M 460.227 651.989 L 465.909 651.989"/>
<path d="M 598.011 651.989 L 643.466 651.989"/>
<path d="M 683.239 651.989 L 684.659 651.989"/>
<path d="M 687.500 651.989 L 700.284 651.989"/>
<path d="M 742.898 651.989 L 758.523 651.989"/>
<path d="M 769.886 651.989 L 771.307 651.989"/>
<path d="M 832.386 651.989 L 835.227 651.989"/>
<path d="M 857.955 651.989 L 894.886 651.989"/>
<path d="M 909.091 651.989 L 910.511 651.989"/>
<path d="M 207.386 656.250 L 220.170 656.250"/>
<path d="M 235.795 656.250 L 238.636 656.250"/>
<path d="M 251.420 656.250 L 252.841 656.250"/>
<path d="M 261.364 656.250 L 262.784 656.250"/>
<path d="M 279.830 656.250 L 281.250 656.250"/>
<path d="M 288.352 656.250 L 291.193 656.250"/>
<path d="M 342.330 656.250 L 343.750 656.250"/>
<path d="M 356.534 656.250 L 357.955 656.250"/>
<path d="M 409.091 656.250 L 410.511 656.250"/>
<path d="M 593.750 656.250 L 639.205 656.250"/>
<path d="M 674.716 656.250 L 677.557 656.250"/>
<path d="M 678.977 656.250 L 694.602 656.250"/>
<path d="M 731.534 656.250 L 752.841 656.250"/>
<path d="M 767.045 656.250 L 768.466 656.250"/>
<path d="M 833.807 656.250 L 838.068 656.250"/>
<path d="M 863.636 656.250 L 887.784 656.250"/>
<path d="M 911.932 656.250 L 916.193 656.250"/>
<path d="M 936.080 656.250 L 937.500 656.250"/>
<path d="M 200.284 660.511 L 207.386 660.511"/>
<path d="M 214.489 660.511 L 217.330 660.511"/>
<path d="M 221.591 660.511 L 227.273 660.511"/>
<path d="M 279.830 660.511 L 282.670 660.511"/>
<path d="M 289.773 660.511 L 294.034 660.511"/>
<path d="M 343.750 660.511 L 348.011 660.511"/>
<path d="M 420.455 660.511 L 424.716 660.511"/>
<path d="M 440.341 660.511 L 444.602 660.511"/>
<path d="M 446.023 660.511 L 447.443 660.511"/>
<path d="M 572.443 660.511 L 576.705 660.511"/>
<path d="M 589.489 660.511 L 593.750 660.511"/>
<path d="M 595.170 660.511 L 636.364 660.511"/>
<path d="M 661.932 660.511 L 664.773 660.511"/>
<path d="M 667.614 660.511 L 690.341 660.511"/>
<path d="M 723.011 660.511 L 748.580 660.511"/>
<path d="M 759.943 660.511 L 765.625 660.511"/>
<path d="M 863.636 660.511 L 865.057 660.511"/>
<path d="M 866.477 660.511 L 889.205 660.511"/>
<path d="M 890.625 660.511 L 892.045 660.511"/>
<path d="M 911.932 660.511 L 919.034 660.511"/>
<path d="M 928.977 660.511 L 931.818 660.511"/>
<path d="M 116.477 664.773 L 117.898 664.773"/>
<path d="M 203.125 664.773 L 205.966 664.773"/>
<path d="M 214.489 664.773 L 215.909 664.773"/>
<path d="M 227.273 664.773 L 232.955 664.773"/>
<path d="M 254.261 664.773 L 258.523 664.773"/>
<path d="M 289.773 664.773 L 294.034 664.773"/>
<path d="M 346.591 664.773 L 348.011 664.773"/>
<path d="M 366.477 664.773 L 367.898 664.773"/>
<path d="M 401.989 664.773 L 404.830 664.773"/>
<path d="M 428.977 664.773 L 440.341 664.773"/>
<path d="M 455.966 664.773 L 465.909 664.773"/>
<path d="M 586.648 664.773 L 622.159 664.773"/>
<path d="M 625.000 664.773 L 636.364 664.773"/>
<path d="M 639.205 664.773 L 681.818 664.773"/>
<path d="M 717.330 664.773 L 744.318 664.773"/>
<path d="M 757.102 664.773 L 758.523 664.773"/>
<path d="M 865.057 664.773 L 893.466 664.773"/>
<path d="M 903.409 664.773 L 907.670 664.773"/>
<path d="M 909.091 664.773 L 913.352 664.773"/>
<path d="M 113.636 669.034 L 115.057 669.034"/>
<path d="M 176.136 669.034 L 183.239 669.034"/>
<path d="M 208.807 669.034 L 210.227 669.034"/>
<path d="M 220.170 669.034 L 223.011 669.034"/>
<path d="M 227.273 669.034 L 230.114 669.034"/>
<path d="M 234.375 669.034 L 240.057 669.034"/>
<path d="M 248.580 669.034 L 251.420 669.034"/>
<path d="M 259.943 669.034 L 261.364 669.034"/>
<path d="M 285.511 669.034 L 286.932 669.034"/>
<path d="M 292.614 669.034 L 295.455 669.034"/>
<path d="M 345.170 669.034 L 346.591 669.034"/>
<path d="M 367.898 669.034 L 370.739 669.034"/>
<path d="M 407.670 669.034 L 409.091 669.034"/>
<path d="M 410.511 669.034 L 411.932 669.034"/>
<path d="M 455.966 669.034 L 467.330 669.034"/>
<path d="M 595.170 669.034 L 634.943 669.034"/>
<path d="M 636.364 669.034 L 676.136 669.034"/>
<path d="M 713.068 669.034 L 754.261 669.034"/>
<path d="M 867.898 669.034 L 896.307 669.034"/>
<path d="M 897.727 669.034 L 900.568 669.034"/>
<path d="M 901.989 669.034 L 906.250 669.034"/>
<path d="M 913.352 669.034 L 917.614 669.034"/>
<path d="M 107.955 673.295 L 109.375 673.295"/>
<path d="M 191.761 673.295 L 193.182 673.295"/>
<path d="M 250.000 673.295 L 251.420 673.295"/>
<path d="M 265.625 673.295 L 268.466 673.295"/>
<path d="M 295.455 673.295 L 296.875 673.295"/>
<path d="M 305.398 673.295 L 306.818 673.295"/>
<path d="M 413.352 673.295 L 414.773 673.295"/>
<path d="M 458.807 673.295 L 470.170 673.295"/>
<path d="M 593.750 673.295 L 623.580 673.295"/>
<path d="M 625.000 673.295 L 670.455 673.295"/>
<path d="M 707.386 673.295 L 732.955 673.295"/>
<path d="M 734.375 673.295 L 745.739 673.295"/>
<path d="M 870.739 673.295 L 899.148 673.295"/>
<path d="M 907.670 673.295 L 909.091 673.295"/>
<path d="M 153.409 677.557 L 154.830 677.557"/>
<path d="M 208.807 677.557 L 214.489 677.557"/>
<path d="M 218.750 677.557 L 220.170 677.557"/>
<path d="M 223.011 677.557 L 224.432 677.557"/>
<path d="M 289.773 677.557 L 291.193 677.557"/>
<path d="M 303.977 677.557 L 306.818 677.557"/>
<path d="M 308.239 677.557 L 309.659 677.557"/>
<path d="M 330.966 677.557 L 332.386 677.557"/>
<path d="M 336.648 677.557 L 339.489 677.557"/>
<path d="M 367.898 677.557 L 372.159 677.557"/>
<path d="M 461.648 677.557 L 470.170 677.557"/>
<path d="M 596.591 677.557 L 629.261 677.557"/>
<path d="M 633.523 677.557 L 634.943 677.557"/>
<path d="M 640.625 677.557 L 667.614 677.557"/>
<path d="M 669.034 677.557 L 673.295 677.557"/>
<path d="M 701.705 677.557 L 731.534 677.557"/>
<path d="M 873.580 677.557 L 882.102 677.557"/>
<path d="M 899.148 677.557 L 901.989 677.557"/>
<path d="M 95.170 681.818 L 96.591 681.818"/>
<path d="M 113.636 681.818 L 115.057 681.818"/>
<path d="M 210.227 681.818 L 211.648 681.818"/>
<path d="M 217.330 681.818 L 218.750 681.818"/>
<path d="M 240.057 681.818 L 241.477 681.818"/>
<path d="M 245.739 681.818 L 247.159 681.818"/>
<path d="M 267.045 681.818 L 268.466 681.818"/>
<path d="M 291.193 681.818 L 292.614 681.818"/>
<path d="M 298.295 681.818 L 299.716 681.818"/>
<path d="M 306.818 681.818 L 308.239 681.818"/>
<path d="M 318.182 681.818 L 322.443 681.818"/>
<path d="M 323.864 681.818 L 325.284 681.818"/>
<path d="M 338.068 681.818 L 339.489 681.818"/>
<path d="M 346.591 681.818 L 348.011 681.818"/>
<path d="M 355.114 681.818 L 357.955 681.818"/>
<path d="M 417.614 681.818 L 420.455 681.818"/>
<path d="M 463.068 681.818 L 471.591 681.818"/>
<path d="M 598.011 681.818 L 625.000 681.818"/>
<path d="M 627.841 681.818 L 629.261 681.818"/>
<path d="M 637.784 681.818 L 669.034 681.818"/>
<path d="M 694.602 681.818 L 724.432 681.818"/>
<path d="M 877.841 681.818 L 879.261 681.818"/>
<path d="M 892.045 681.818 L 894.886 681.818"/>
<path d="M 940.341 681.818 L 946.023 681.818"/>
<path d="M 86.648 686.080 L 88.068 686.080"/>
<path d="M 278.409 686.080 L 279.830 686.080"/>
<path d="M 288.352 686.080 L 294.034 686.080"/>
<path d="M 308.239 686.080 L 309.659 686.080"/>
<path d="M 467.330 686.080 L 473.011 686.080"/>
<path d="M 663.352 686.080 L 669.034 686.080"/>
<path d="M 687.500 686.080 L 721.591 686.080"/>
<path d="M 883.523 686.080 L 887.784 686.080"/>
<path d="M 930.398 686.080 L 931.818 686.080"/>
<path d="M 936.080 686.080 L 941.761 686.080"/>
<path d="M 86.648 690.341 L 88.068 690.341"/>
<path d="M 105.114 690.341 L 106.534 690.341"/>
<path d="M 109.375 690.341 L 110.795 690.341"/>
<path d="M 136.364 690.341 L 137.784 690.341"/>
<path d="M 232.955 690.341 L 235.795 690.341"/>
<path d="M 247.159 690.341 L 248.580 690.341"/>
<path d="M 255.682 690.341 L 257.102 690.341"/>
<path d="M 279.830 690.341 L 281.250 690.341"/>
<path d="M 288.352 690.341 L 291.193 690.341"/>
<path d="M 309.659 690.341 L 312.500 690.341"/>
<path d="M 330.966 690.341 L 332.386 690.341"/>
<path d="M 359.375 690.341 L 360.795 690.341"/>
<path d="M 470.170 690.341 L 477.273 690.341"/>
<path d="M 673.295 690.341 L 714.489 690.341"/>
<path d="M 748.580 690.341 L 755.682 690.341"/>
<path d="M 877.841 690.341 L 880.682 690.341"/>
<path d="M 924.716 690.341 L 927.557 690.341"/>
<path d="M 934.659 690.341 L 940.341 690.341"/>
<path d="M 100.852 694.602 L 102.273 694.602"/>
<path d="M 258.523 694.602 L 259.943 694.602"/>
<path d="M 262.784 694.602 L 264.205 694.602"/>
<path d="M 265.625 694.602 L 267.045 694.602"/>
<path d="M 291.193 694.602 L 294.034 694.602"/>
<path d="M 311.080 694.602 L 313.920 694.602"/>
<path d="M 416.193 694.602 L 417.614 694.602"/>
<path d="M 473.011 694.602 L 488.636 694.602"/>
<path d="M 670.455 694.602 L 708.807 694.602"/>
<path d="M 747.159 694.602 L 755.682 694.602"/>
<path d="M 869.318 694.602 L 870.739 694.602"/>
<path d="M 872.159 694.602 L 873.580 694.602"/>
<path d="M 928.977 694.602 L 934.659 694.602"/>
<path d="M 276.989 698.864 L 278.409 698.864"/>
<path d="M 289.773 698.864 L 292.614 698.864"/>
<path d="M 299.716 698.864 L 301.136 698.864"/>
<path d="M 313.920 698.864 L 316.761 698.864"/>
<path d="M 322.443 698.864 L 325.284 698.864"/>
<path d="M 475.852 698.864 L 481.534 698.864"/>
<path d="M 487.216 698.864 L 497.159 698.864"/>
<path d="M 667.614 698.864 L 698.864 698.864"/>
<path d="M 740.057 698.864 L 752.841 698.864"/>
<path d="M 857.955 698.864 L 859.375 698.864"/>
<path d="M 907.670 698.864 L 910.511 698.864"/>
<path d="M 919.034 698.864 L 920.455 698.864"/>
<path d="M 921.875 698.864 L 930.398 698.864"/>
<path d="M 136.364 703.125 L 137.784 703.125"/>
<path d="M 140.625 703.125 L 142.045 703.125"/>
<path d="M 276.989 703.125 L 278.409 703.125"/>
<path d="M 288.352 703.125 L 289.773 703.125"/>
<path d="M 296.875 703.125 L 299.716 703.125"/>
<path d="M 315.341 703.125 L 316.761 703.125"/>
<path d="M 321.023 703.125 L 323.864 703.125"/>
<path d="M 480.114 703.125 L 487.216 703.125"/>
<path d="M 670.455 703.125 L 696.023 703.125"/>
<path d="M 698.864 703.125 L 700.284 703.125"/>
<path d="M 735.795 703.125 L 752.841 703.125"/>
<path d="M 846.591 703.125 L 850.852 703.125"/>
<path d="M 909.091 703.125 L 913.352 703.125"/>
<path d="M 914.773 703.125 L 921.875 703.125"/>
<path d="M 137.784 707.386 L 139.205 707.386"/>
<path d="M 279.830 707.386 L 281.250 707.386"/>
<path d="M 298.295 707.386 L 299.716 707.386"/>
<path d="M 308.239 707.386 L 309.659 707.386"/>
<path d="M 319.602 707.386 L 321.023 707.386"/>
<path d="M 323.864 707.386 L 325.284 707.386"/>
<path d="M 673.295 707.386 L 693.182 707.386"/>
<path d="M 728.693 707.386 L 748.580 707.386"/>
<path d="M 833.807 707.386 L 836.648 707.386"/>
<path d="M 894.886 707.386 L 896.307 707.386"/>
<path d="M 906.250 707.386 L 913.352 707.386"/>
<path d="M 413.352 711.648 L 414.773 711.648"/>
<path d="M 723.011 711.648 L 738.636 711.648"/>
<path d="M 740.057 711.648 L 741.477 711.648"/>
<path d="M 822.443 711.648 L 826.705 711.648"/>
<path d="M 887.784 711.648 L 889.205 711.648"/>
<path d="M 896.307 711.648 L 907.670 711.648"/>
<path d="M 190.341 715.909 L 191.761 715.909"/>
<path d="M 231.534 715.909 L 237.216 715.909"/>
<path d="M 350.852 715.909 L 352.273 715.909"/>
<path d="M 356.534 715.909 L 359.375 715.909"/>
<path d="M 369.318 715.909 L 375.000 715.909"/>
<path d="M 816.761 715.909 L 818.182 715.909"/>
<path d="M 879.261 715.909 L 887.784 715.909"/>
<path d="M 890.625 715.909 L 896.307 715.909"/>
<path d="M 187.500 720.170 L 190.341 720.170"/>
<path d="M 223.011 720.170 L 224.432 720.170"/>
<path d="M 227.273 720.170 L 228.693 720.170"/>
<path d="M 806.818 720.170 L 809.659 720.170"/>
<path d="M 867.898 720.170 L 869.318 720.170"/>
<path d="M 870.739 720.170 L 873.580 720.170"/>
<path d="M 876.420 720.170 L 889.205 720.170"/>
<path d="M 166.193 724.432 L 167.614 724.432"/>
<path d="M 190.341 724.432 L 191.761 724.432"/>
<path d="M 417.614 724.432 L 419.034 724.432"/>
<path d="M 798.295 724.432 L 799.716 724.432"/>
<path d="M 859.375 724.432 L 860.795 724.432"/>
<path d="M 866.477 724.432 L 873.580 724.432"/>
<path d="M 164.773 728.693 L 166.193 728.693"/>
<path d="M 788.352 728.693 L 789.773 728.693"/>
<path d="M 845.170 728.693 L 846.591 728.693"/>
<path d="M 849.432 728.693 L 850.852 728.693"/>
<path d="M 852.273 728.693 L 853.693 728.693"/>
<path d="M 855.114 728.693 L 866.477 728.693"/>
<path d="M 869.318 728.693 L 870.739 728.693"/>
<path d="M 164.773 732.955 L 166.193 732.955"/>
<path d="M 187.500 732.955 L 190.341 732.955"/>
<path d="M 321.023 732.955 L 323.864 732.955"/>
<path d="M 420.455 732.955 L 421.875 732.955"/>
<path d="M 781.250 732.955 L 782.670 732.955"/>
<path d="M 833.807 732.955 L 836.648 732.955"/>
<path d="M 845.170 732.955 L 853.693 732.955"/>
<path d="M 159.091 737.216 L 160.511 737.216"/>
<path d="M 164.773 737.216 L 169.034 737.216"/>
<path d="M 174.716 737.216 L 176.136 737.216"/>
<path d="M 178.977 737.216 L 186.080 737.216"/>
<path d="M 302.557 737.216 L 303.977 737.216"/>
<path d="M 767.045 737.216 L 771.307 737.216"/>
<path d="M 825.284 737.216 L 826.705 737.216"/>
<path d="M 835.227 737.216 L 842.330 737.216"/>
<path d="M 176.136 741.477 L 186.080 741.477"/>
<path d="M 187.500 741.477 L 193.182 741.477"/>
<path d="M 758.523 741.477 L 761.364 741.477"/>
<path d="M 815.341 741.477 L 818.182 741.477"/>
<path d="M 829.545 741.477 L 833.807 741.477"/>
<path d="M 159.091 745.739 L 161.932 745.739"/>
<path d="M 186.080 745.739 L 190.341 745.739"/>
<path d="M 758.523 745.739 L 759.943 745.739"/>
<path d="M 822.443 745.739 L 826.705 745.739"/>
<path d="M 154.830 750.000 L 156.250 750.000"/>
<path d="M 169.034 750.000 L 171.875 750.000"/>
<path d="M 758.523 750.000 L 759.943 750.000"/>
<path d="M 798.295 750.000 L 801.136 750.000"/>
<path d="M 812.500 750.000 L 816.761 750.000"/>
<path d="M 170.455 754.261 L 173.295 754.261"/>
<path d="M 176.136 754.261 L 177.557 754.261"/>
<path d="M 758.523 754.261 L 759.943 754.261"/>
<path d="M 789.773 754.261 L 791.193 754.261"/>
<path d="M 799.716 754.261 L 809.659 754.261"/>
<path d="M 173.295 758.523 L 174.716 758.523"/>
<path d="M 214.489 758.523 L 215.909 758.523"/>
<path d="M 758.523 758.523 L 759.943 758.523"/>
<path d="M 785.511 758.523 L 786.932 758.523"/>
<path d="M 794.034 758.523 L 798.295 758.523"/>
<path d="M 210.227 762.784 L 213.068 762.784"/>
<path d="M 676.136 762.784 L 680.398 762.784"/>
<path d="M 788.352 762.784 L 792.614 762.784"/>
<path d="M 207.386 767.045 L 208.807 767.045"/>
<path d="M 488.636 767.045 L 490.057 767.045"/>
<path d="M 673.295 767.045 L 680.398 767.045"/>
<path d="M 198.864 771.307 L 201.705 771.307"/>
<path d="M 508.523 771.307 L 509.943 771.307"/>
<path d="M 677.557 771.307 L 681.818 771.307"/>
<path d="M 188.920 775.568 L 191.761 775.568"/>
<path d="M 566.761 775.568 L 568.182 775.568"/>
<path d="M 673.295 775.568 L 681.818 775.568"/>
<path d="M 181.818 779.830 L 183.239 779.830"/>
<path d="M 686.080 788.352 L 687.500 788.352"/>
<path d="M 636.364 792.614 L 637.784 792.614"/>
<path d="M 745.739 805.398 L 747.159 805.398"/>
<path d="M 745.739 809.659 L 747.159 809.659"/>
<path d="M 667.614 813.920 L 669.034 813.920"/>
<path d="M 676.136 818.182 L 677.557 818.182"/>
<path d="M 676.136 822.443 L 677.557 822.443"/>
<path d="M 678.977 835.227 L 680.398 835.227"/>
<path d="M 741.477 848.011 L 747.159 848.011"/>
<path d="M 720.170 852.273 L 723.011 852.273"/>
<path d="M 724.432 852.273 L 734.375 852.273"/>
<path d="M 741.477 852.273 L 748.580 852.273"/>
<path d="M 718.750 856.534 L 748.580 856.534"/>
<path d="M 717.330 860.795 L 748.580 860.795"/>
<path d="M 717.330 865.057 L 748.580 865.057"/>
<path d="M 704.545 869.318 L 707.386 869.318"/>
<path d="M 711.648 869.318 L 748.580 869.318"/>
<path d="M 705.966 873.580 L 720.170 873.580"/>
<path d="M 723.011 873.580 L 747.159 873.580"/>
<path d="M 704.545 877.841 L 718.750 877.841"/>
<path d="M 721.591 877.841 L 738.636 877.841"/>
<path d="M 745.739 877.841 L 747.159 877.841"/>
<path d="M 704.545 882.102 L 718.750 882.102"/>
<path d="M 723.011 882.102 L 741.477 882.102"/>
<path d="M 742.898 882.102 L 747.159 882.102"/>
<path d="M 704.545 886.364 L 718.750 886.364"/>
<path d="M 720.170 886.364 L 723.011 886.364"/>
<path d="M 704.545 890.625 L 720.170 890.625"/>
<path d="M 686.080 894.886 L 687.500 894.886"/>
<path d="M 703.125 894.886 L 713.068 894.886"/>
<path d="M 704.545 899.148 L 713.068 899.148"/>
<path d="M 738.636 899.148 L 740.057 899.148"/>
<path d="M 704.545 903.409 L 710.227 903.409"/>
<path d="M 711.648 903.409 L 713.068 903.409"/>
<path d="M 696.023 907.670 L 697.443 907.670"/>
<path d="M 705.966 907.670 L 708.807 907.670"/>
<path d="M 713.068 907.670 L 715.909 907.670"/>
<path d="M 727.273 907.670 L 730.114 907.670"/>
<path d="M 705.966 911.932 L 707.386 911.932"/>
<path d="M 711.648 911.932 L 713.068 911.932"/>
<path d="M 754.261 920.455 L 755.682 920.455"/>
<path d="M 748.580 924.716 L 750.000 924.716"/>
</g>
</svg>
