<?xml version="1.0" encoding="UTF-8"?>
<svg xmlns="http://www.w3.org/2000/svg" width="1000.000mm" height="944.602mm" viewBox="0 0 1000.000 944.602">
<metadata>HatchSmith © FIWAtec GmbH</metadata>
<rect x="0" y="0" width="100%" height="100%" fill="white"/>
<g id="08_layer_08" stroke="#DBDCE3" stroke-width="1.000" stroke-linecap="round" stroke-linejoin="round" fill="none">
<path d="M 569.602 72.443 L 571.023 72.443"/>
<path d="M 633.523 72.443 L 634.943 72.443"/>
<path d="M 545.455 80.966 L 546.875 80.966"/>
<path d="M 649.148 80.966 L 651.989 80.966"/>
<path d="M 657.670 80.966 L 659.091 80.966"/>
<path d="M 536.932 85.227 L 539.773 85.227"/>
<path d="M 653.409 85.227 L 654.830 85.227"/>
<path d="M 529.830 89.489 L 535.511 89.489"/>
<path d="M 632.102 89.489 L 634.943 89.489"/>
<path d="M 640.625 89.489 L 642.045 89.489"/>
<path d="M 670.455 89.489 L 671.875 89.489"/>
<path d="M 528.409 93.750 L 531.250 93.750"/>
<path d="M 640.625 93.750 L 651.989 93.750"/>
<path d="M 522.727 98.011 L 525.568 98.011"/>
<path d="M 649.148 98.011 L 659.091 98.011"/>
<path d="M 677.557 98.011 L 678.977 98.011"/>
<path d="M 517.045 102.273 L 522.727 102.273"/>
<path d="M 651.989 102.273 L 657.670 102.273"/>
<path d="M 681.818 102.273 L 683.239 102.273"/>
<path d="M 514.205 106.534 L 518.466 106.534"/>
<path d="M 654.830 106.534 L 656.250 106.534"/>
<path d="M 657.670 106.534 L 667.614 106.534"/>
<path d="M 511.364 110.795 L 515.625 110.795"/>
<path d="M 649.148 110.795 L 653.409 110.795"/>
<path d="M 663.352 110.795 L 666.193 110.795"/>
<path d="M 649.148 115.057 L 651.989 115.057"/>
<path d="M 659.091 115.057 L 666.193 115.057"/>
<path d="M 688.920 115.057 L 690.341 115.057"/>
<path d="M 653.409 119.318 L 663.352 119.318"/>
<path d="M 690.341 119.318 L 693.182 119.318"/>
<path d="M 691.761 123.580 L 694.602 123.580"/>
<path d="M 694.602 127.841 L 696.023 127.841"/>
<path d="M 696.023 132.102 L 697.443 132.102"/>
<path d="M 495.739 136.364 L 500.000 136.364"/>
<path d="M 694.602 136.364 L 697.443 136.364"/>
<path d="M 492.898 140.625 L 495.739 140.625"/>
<path d="M 497.159 140.625 L 498.580 140.625"/>
<path d="M 696.023 140.625 L 698.864 140.625"/>
<path d="M 490.057 144.886 L 495.739 144.886"/>
<path d="M 698.864 144.886 L 700.284 144.886"/>
<path d="M 431.818 149.148 L 437.500 149.148"/>
<path d="M 444.602 149.148 L 450.284 149.148"/>
<path d="M 697.443 149.148 L 700.284 149.148"/>
<path d="M 697.443 153.409 L 700.284 153.409"/>
<path d="M 697.443 157.670 L 700.284 157.670"/>
<path d="M 409.091 161.932 L 410.511 161.932"/>
<path d="M 697.443 161.932 L 700.284 161.932"/>
<path d="M 697.443 166.193 L 700.284 166.193"/>
<path d="M 697.443 170.455 L 700.284 170.455"/>
<path d="M 419.034 174.716 L 431.818 174.716"/>
<path d="M 697.443 174.716 L 700.284 174.716"/>
<path d="M 379.261 178.977 L 380.682 178.977"/>
<path d="M 413.352 178.977 L 416.193 178.977"/>
<path d="M 423.295 178.977 L 430.398 178.977"/>
<path d="M 697.443 178.977 L 698.864 178.977"/>
<path d="M 409.091 183.239 L 411.932 183.239"/>
<path d="M 696.023 183.239 L 700.284 183.239"/>
<path d="M 404.830 187.500 L 409.091 187.500"/>
<path d="M 414.773 187.500 L 417.614 187.500"/>
<path d="M 696.023 187.500 L 700.284 187.500"/>
<path d="M 386.364 191.761 L 392.045 191.761"/>
<path d="M 394.886 191.761 L 401.989 191.761"/>
<path d="M 410.511 191.761 L 411.932 191.761"/>
<path d="M 694.602 191.761 L 698.864 191.761"/>
<path d="M 693.182 196.023 L 698.864 196.023"/>
<path d="M 693.182 200.284 L 696.023 200.284"/>
<path d="M 693.182 204.545 L 696.023 204.545"/>
<path d="M 693.182 208.807 L 697.443 208.807"/>
<path d="M 498.580 213.068 L 502.841 213.068"/>
<path d="M 690.341 213.068 L 700.284 213.068"/>
<path d="M 703.125 213.068 L 704.545 213.068"/>
<path d="M 495.739 217.330 L 507.102 217.330"/>
<path d="M 710.227 217.330 L 711.648 217.330"/>
<path d="M 495.739 221.591 L 504.261 221.591"/>
<path d="M 727.273 225.852 L 728.693 225.852"/>
<path d="M 734.375 230.114 L 735.795 230.114"/>
<path d="M 365.057 234.375 L 366.477 234.375"/>
<path d="M 741.477 238.636 L 742.898 238.636"/>
<path d="M 745.739 242.898 L 747.159 242.898"/>
<path d="M 768.466 242.898 L 769.886 242.898"/>
<path d="M 444.602 247.159 L 446.023 247.159"/>
<path d="M 747.159 247.159 L 748.580 247.159"/>
<path d="M 588.068 251.420 L 593.750 251.420"/>
<path d="M 748.580 251.420 L 750.000 251.420"/>
<path d="M 353.693 255.682 L 355.114 255.682"/>
<path d="M 580.966 255.682 L 592.330 255.682"/>
<path d="M 750.000 255.682 L 751.420 255.682"/>
<path d="M 579.545 259.943 L 590.909 259.943"/>
<path d="M 748.580 259.943 L 754.261 259.943"/>
<path d="M 578.125 264.205 L 585.227 264.205"/>
<path d="M 586.648 264.205 L 590.909 264.205"/>
<path d="M 751.420 264.205 L 754.261 264.205"/>
<path d="M 426.136 268.466 L 427.557 268.466"/>
<path d="M 453.125 268.466 L 454.545 268.466"/>
<path d="M 578.125 268.466 L 586.648 268.466"/>
<path d="M 426.136 272.727 L 427.557 272.727"/>
<path d="M 460.227 272.727 L 461.648 272.727"/>
<path d="M 616.477 272.727 L 620.739 272.727"/>
<path d="M 423.295 276.989 L 424.716 276.989"/>
<path d="M 582.386 276.989 L 583.807 276.989"/>
<path d="M 588.068 276.989 L 592.330 276.989"/>
<path d="M 607.955 276.989 L 630.682 276.989"/>
<path d="M 419.034 281.250 L 420.455 281.250"/>
<path d="M 572.443 281.250 L 579.545 281.250"/>
<path d="M 580.966 281.250 L 582.386 281.250"/>
<path d="M 593.750 281.250 L 596.591 281.250"/>
<path d="M 602.273 281.250 L 607.955 281.250"/>
<path d="M 609.375 281.250 L 610.795 281.250"/>
<path d="M 612.216 281.250 L 626.420 281.250"/>
<path d="M 762.784 281.250 L 764.205 281.250"/>
<path d="M 419.034 285.511 L 420.455 285.511"/>
<path d="M 446.023 285.511 L 448.864 285.511"/>
<path d="M 566.761 285.511 L 583.807 285.511"/>
<path d="M 603.693 285.511 L 620.739 285.511"/>
<path d="M 362.216 289.773 L 363.636 289.773"/>
<path d="M 441.761 289.773 L 444.602 289.773"/>
<path d="M 460.227 289.773 L 465.909 289.773"/>
<path d="M 562.500 289.773 L 569.602 289.773"/>
<path d="M 582.386 289.773 L 583.807 289.773"/>
<path d="M 585.227 289.773 L 588.068 289.773"/>
<path d="M 602.273 289.773 L 609.375 289.773"/>
<path d="M 455.966 294.034 L 457.386 294.034"/>
<path d="M 460.227 294.034 L 461.648 294.034"/>
<path d="M 556.818 294.034 L 565.341 294.034"/>
<path d="M 585.227 294.034 L 590.909 294.034"/>
<path d="M 366.477 298.295 L 369.318 298.295"/>
<path d="M 454.545 298.295 L 455.966 298.295"/>
<path d="M 458.807 298.295 L 461.648 298.295"/>
<path d="M 519.886 298.295 L 521.307 298.295"/>
<path d="M 546.875 298.295 L 558.239 298.295"/>
<path d="M 590.909 298.295 L 593.750 298.295"/>
<path d="M 359.375 302.557 L 360.795 302.557"/>
<path d="M 366.477 302.557 L 370.739 302.557"/>
<path d="M 447.443 302.557 L 457.386 302.557"/>
<path d="M 539.773 302.557 L 553.977 302.557"/>
<path d="M 588.068 302.557 L 595.170 302.557"/>
<path d="M 778.409 302.557 L 779.830 302.557"/>
<path d="M 360.795 306.818 L 362.216 306.818"/>
<path d="M 363.636 306.818 L 365.057 306.818"/>
<path d="M 366.477 306.818 L 370.739 306.818"/>
<path d="M 446.023 306.818 L 454.545 306.818"/>
<path d="M 502.841 306.818 L 504.261 306.818"/>
<path d="M 521.307 306.818 L 522.727 306.818"/>
<path d="M 536.932 306.818 L 542.614 306.818"/>
<path d="M 588.068 306.818 L 593.750 306.818"/>
<path d="M 768.466 306.818 L 772.727 306.818"/>
<path d="M 348.011 311.080 L 349.432 311.080"/>
<path d="M 356.534 311.080 L 359.375 311.080"/>
<path d="M 363.636 311.080 L 370.739 311.080"/>
<path d="M 446.023 311.080 L 451.705 311.080"/>
<path d="M 501.420 311.080 L 508.523 311.080"/>
<path d="M 512.784 311.080 L 514.205 311.080"/>
<path d="M 524.148 311.080 L 538.352 311.080"/>
<path d="M 586.648 311.080 L 593.750 311.080"/>
<path d="M 771.307 311.080 L 772.727 311.080"/>
<path d="M 786.932 311.080 L 788.352 311.080"/>
<path d="M 349.432 315.341 L 350.852 315.341"/>
<path d="M 355.114 315.341 L 356.534 315.341"/>
<path d="M 363.636 315.341 L 370.739 315.341"/>
<path d="M 501.420 315.341 L 508.523 315.341"/>
<path d="M 525.568 315.341 L 531.250 315.341"/>
<path d="M 583.807 315.341 L 590.909 315.341"/>
<path d="M 359.375 319.602 L 360.795 319.602"/>
<path d="M 363.636 319.602 L 369.318 319.602"/>
<path d="M 502.841 319.602 L 509.943 319.602"/>
<path d="M 525.568 319.602 L 526.989 319.602"/>
<path d="M 580.966 319.602 L 588.068 319.602"/>
<path d="M 761.364 319.602 L 762.784 319.602"/>
<path d="M 362.216 323.864 L 366.477 323.864"/>
<path d="M 504.261 323.864 L 509.943 323.864"/>
<path d="M 515.625 323.864 L 517.045 323.864"/>
<path d="M 518.466 323.864 L 519.886 323.864"/>
<path d="M 578.125 323.864 L 585.227 323.864"/>
<path d="M 758.523 323.864 L 759.943 323.864"/>
<path d="M 789.773 323.864 L 791.193 323.864"/>
<path d="M 357.955 328.125 L 363.636 328.125"/>
<path d="M 504.261 328.125 L 508.523 328.125"/>
<path d="M 573.864 328.125 L 580.966 328.125"/>
<path d="M 789.773 328.125 L 792.614 328.125"/>
<path d="M 357.955 332.386 L 362.216 332.386"/>
<path d="M 502.841 332.386 L 507.102 332.386"/>
<path d="M 571.023 332.386 L 579.545 332.386"/>
<path d="M 785.511 332.386 L 788.352 332.386"/>
<path d="M 353.693 336.648 L 356.534 336.648"/>
<path d="M 357.955 336.648 L 360.795 336.648"/>
<path d="M 500.000 336.648 L 504.261 336.648"/>
<path d="M 569.602 336.648 L 576.705 336.648"/>
<path d="M 782.670 336.648 L 785.511 336.648"/>
<path d="M 809.659 336.648 L 815.341 336.648"/>
<path d="M 348.011 340.909 L 359.375 340.909"/>
<path d="M 494.318 340.909 L 502.841 340.909"/>
<path d="M 512.784 340.909 L 514.205 340.909"/>
<path d="M 515.625 340.909 L 517.045 340.909"/>
<path d="M 566.761 340.909 L 572.443 340.909"/>
<path d="M 779.830 340.909 L 784.091 340.909"/>
<path d="M 809.659 340.909 L 816.761 340.909"/>
<path d="M 339.489 345.170 L 355.114 345.170"/>
<path d="M 487.216 345.170 L 497.159 345.170"/>
<path d="M 562.500 345.170 L 569.602 345.170"/>
<path d="M 776.989 345.170 L 778.409 345.170"/>
<path d="M 779.830 345.170 L 781.250 345.170"/>
<path d="M 811.080 345.170 L 813.920 345.170"/>
<path d="M 298.295 349.432 L 299.716 349.432"/>
<path d="M 325.284 349.432 L 332.386 349.432"/>
<path d="M 342.330 349.432 L 350.852 349.432"/>
<path d="M 484.375 349.432 L 490.057 349.432"/>
<path d="M 562.500 349.432 L 566.761 349.432"/>
<path d="M 775.568 349.432 L 778.409 349.432"/>
<path d="M 801.136 349.432 L 802.557 349.432"/>
<path d="M 809.659 349.432 L 812.500 349.432"/>
<path d="M 301.136 353.693 L 308.239 353.693"/>
<path d="M 321.023 353.693 L 330.966 353.693"/>
<path d="M 485.795 353.693 L 490.057 353.693"/>
<path d="M 558.239 353.693 L 563.920 353.693"/>
<path d="M 772.727 353.693 L 776.989 353.693"/>
<path d="M 798.295 353.693 L 799.716 353.693"/>
<path d="M 805.398 353.693 L 811.080 353.693"/>
<path d="M 301.136 357.955 L 302.557 357.955"/>
<path d="M 305.398 357.955 L 325.284 357.955"/>
<path d="M 485.795 357.955 L 491.477 357.955"/>
<path d="M 553.977 357.955 L 558.239 357.955"/>
<path d="M 559.659 357.955 L 561.080 357.955"/>
<path d="M 769.886 357.955 L 775.568 357.955"/>
<path d="M 795.455 357.955 L 796.875 357.955"/>
<path d="M 805.398 357.955 L 809.659 357.955"/>
<path d="M 286.932 362.216 L 288.352 362.216"/>
<path d="M 291.193 362.216 L 313.920 362.216"/>
<path d="M 488.636 362.216 L 491.477 362.216"/>
<path d="M 542.614 362.216 L 544.034 362.216"/>
<path d="M 549.716 362.216 L 556.818 362.216"/>
<path d="M 768.466 362.216 L 772.727 362.216"/>
<path d="M 801.136 362.216 L 805.398 362.216"/>
<path d="M 107.955 366.477 L 109.375 366.477"/>
<path d="M 170.455 366.477 L 171.875 366.477"/>
<path d="M 282.670 366.477 L 298.295 366.477"/>
<path d="M 301.136 366.477 L 302.557 366.477"/>
<path d="M 487.216 366.477 L 488.636 366.477"/>
<path d="M 490.057 366.477 L 491.477 366.477"/>
<path d="M 548.295 366.477 L 552.557 366.477"/>
<path d="M 765.625 366.477 L 774.148 366.477"/>
<path d="M 792.614 366.477 L 795.455 366.477"/>
<path d="M 798.295 366.477 L 802.557 366.477"/>
<path d="M 215.909 370.739 L 217.330 370.739"/>
<path d="M 487.216 370.739 L 491.477 370.739"/>
<path d="M 505.682 370.739 L 507.102 370.739"/>
<path d="M 548.295 370.739 L 552.557 370.739"/>
<path d="M 767.045 370.739 L 772.727 370.739"/>
<path d="M 147.727 375.000 L 149.148 375.000"/>
<path d="M 485.795 375.000 L 491.477 375.000"/>
<path d="M 546.875 375.000 L 552.557 375.000"/>
<path d="M 768.466 375.000 L 771.307 375.000"/>
<path d="M 198.864 379.261 L 200.284 379.261"/>
<path d="M 482.955 379.261 L 487.216 379.261"/>
<path d="M 546.875 379.261 L 552.557 379.261"/>
<path d="M 769.886 379.261 L 774.148 379.261"/>
<path d="M 481.534 383.523 L 485.795 383.523"/>
<path d="M 544.034 383.523 L 549.716 383.523"/>
<path d="M 153.409 387.784 L 154.830 387.784"/>
<path d="M 190.341 387.784 L 191.761 387.784"/>
<path d="M 193.182 387.784 L 194.602 387.784"/>
<path d="M 203.125 387.784 L 204.545 387.784"/>
<path d="M 443.182 387.784 L 444.602 387.784"/>
<path d="M 482.955 387.784 L 488.636 387.784"/>
<path d="M 544.034 387.784 L 546.875 387.784"/>
<path d="M 582.386 387.784 L 592.330 387.784"/>
<path d="M 758.523 387.784 L 764.205 387.784"/>
<path d="M 775.568 387.784 L 778.409 387.784"/>
<path d="M 196.023 392.045 L 198.864 392.045"/>
<path d="M 210.227 392.045 L 215.909 392.045"/>
<path d="M 271.307 392.045 L 285.511 392.045"/>
<path d="M 286.932 392.045 L 288.352 392.045"/>
<path d="M 484.375 392.045 L 487.216 392.045"/>
<path d="M 542.614 392.045 L 551.136 392.045"/>
<path d="M 582.386 392.045 L 596.591 392.045"/>
<path d="M 757.102 392.045 L 765.625 392.045"/>
<path d="M 776.989 392.045 L 778.409 392.045"/>
<path d="M 796.875 392.045 L 798.295 392.045"/>
<path d="M 214.489 396.307 L 215.909 396.307"/>
<path d="M 271.307 396.307 L 274.148 396.307"/>
<path d="M 275.568 396.307 L 282.670 396.307"/>
<path d="M 482.955 396.307 L 488.636 396.307"/>
<path d="M 542.614 396.307 L 549.716 396.307"/>
<path d="M 578.125 396.307 L 586.648 396.307"/>
<path d="M 593.750 396.307 L 595.170 396.307"/>
<path d="M 596.591 396.307 L 605.114 396.307"/>
<path d="M 754.261 396.307 L 765.625 396.307"/>
<path d="M 778.409 396.307 L 781.250 396.307"/>
<path d="M 34.091 400.568 L 35.511 400.568"/>
<path d="M 269.886 400.568 L 274.148 400.568"/>
<path d="M 275.568 400.568 L 279.830 400.568"/>
<path d="M 482.955 400.568 L 488.636 400.568"/>
<path d="M 542.614 400.568 L 551.136 400.568"/>
<path d="M 573.864 400.568 L 586.648 400.568"/>
<path d="M 598.011 400.568 L 609.375 400.568"/>
<path d="M 752.841 400.568 L 765.625 400.568"/>
<path d="M 781.250 400.568 L 782.670 400.568"/>
<path d="M 39.773 404.830 L 41.193 404.830"/>
<path d="M 88.068 404.830 L 89.489 404.830"/>
<path d="M 127.841 404.830 L 130.682 404.830"/>
<path d="M 146.307 404.830 L 147.727 404.830"/>
<path d="M 213.068 404.830 L 214.489 404.830"/>
<path d="M 271.307 404.830 L 276.989 404.830"/>
<path d="M 443.182 404.830 L 444.602 404.830"/>
<path d="M 481.534 404.830 L 485.795 404.830"/>
<path d="M 544.034 404.830 L 549.716 404.830"/>
<path d="M 588.068 404.830 L 616.477 404.830"/>
<path d="M 748.580 404.830 L 765.625 404.830"/>
<path d="M 771.307 404.830 L 772.727 404.830"/>
<path d="M 774.148 404.830 L 778.409 404.830"/>
<path d="M 781.250 404.830 L 782.670 404.830"/>
<path d="M 443.182 409.091 L 450.284 409.091"/>
<path d="M 451.705 409.091 L 453.125 409.091"/>
<path d="M 480.114 409.091 L 484.375 409.091"/>
<path d="M 545.455 409.091 L 551.136 409.091"/>
<path d="M 606.534 409.091 L 622.159 409.091"/>
<path d="M 745.739 409.091 L 759.943 409.091"/>
<path d="M 771.307 409.091 L 778.409 409.091"/>
<path d="M 782.670 409.091 L 784.091 409.091"/>
<path d="M 805.398 409.091 L 806.818 409.091"/>
<path d="M 65.341 413.352 L 73.864 413.352"/>
<path d="M 444.602 413.352 L 451.705 413.352"/>
<path d="M 477.273 413.352 L 484.375 413.352"/>
<path d="M 546.875 413.352 L 552.557 413.352"/>
<path d="M 555.398 413.352 L 556.818 413.352"/>
<path d="M 571.023 413.352 L 579.545 413.352"/>
<path d="M 590.909 413.352 L 599.432 413.352"/>
<path d="M 610.795 413.352 L 627.841 413.352"/>
<path d="M 742.898 413.352 L 754.261 413.352"/>
<path d="M 771.307 413.352 L 779.830 413.352"/>
<path d="M 782.670 413.352 L 785.511 413.352"/>
<path d="M 78.125 417.614 L 82.386 417.614"/>
<path d="M 473.011 417.614 L 480.114 417.614"/>
<path d="M 544.034 417.614 L 553.977 417.614"/>
<path d="M 568.182 417.614 L 582.386 417.614"/>
<path d="M 589.489 417.614 L 605.114 417.614"/>
<path d="M 613.636 417.614 L 632.102 417.614"/>
<path d="M 767.045 417.614 L 772.727 417.614"/>
<path d="M 776.989 417.614 L 779.830 417.614"/>
<path d="M 782.670 417.614 L 786.932 417.614"/>
<path d="M 83.807 421.875 L 85.227 421.875"/>
<path d="M 109.375 421.875 L 110.795 421.875"/>
<path d="M 451.705 421.875 L 453.125 421.875"/>
<path d="M 473.011 421.875 L 477.273 421.875"/>
<path d="M 546.875 421.875 L 553.977 421.875"/>
<path d="M 556.818 421.875 L 558.239 421.875"/>
<path d="M 569.602 421.875 L 583.807 421.875"/>
<path d="M 589.489 421.875 L 609.375 421.875"/>
<path d="M 610.795 421.875 L 612.216 421.875"/>
<path d="M 619.318 421.875 L 627.841 421.875"/>
<path d="M 632.102 421.875 L 634.943 421.875"/>
<path d="M 762.784 421.875 L 769.886 421.875"/>
<path d="M 776.989 421.875 L 781.250 421.875"/>
<path d="M 785.511 421.875 L 788.352 421.875"/>
<path d="M 88.068 426.136 L 90.909 426.136"/>
<path d="M 95.170 426.136 L 99.432 426.136"/>
<path d="M 103.693 426.136 L 109.375 426.136"/>
<path d="M 112.216 426.136 L 113.636 426.136"/>
<path d="M 470.170 426.136 L 475.852 426.136"/>
<path d="M 548.295 426.136 L 555.398 426.136"/>
<path d="M 571.023 426.136 L 572.443 426.136"/>
<path d="M 578.125 426.136 L 583.807 426.136"/>
<path d="M 590.909 426.136 L 613.636 426.136"/>
<path d="M 622.159 426.136 L 629.261 426.136"/>
<path d="M 633.523 426.136 L 640.625 426.136"/>
<path d="M 757.102 426.136 L 767.045 426.136"/>
<path d="M 768.466 426.136 L 774.148 426.136"/>
<path d="M 776.989 426.136 L 781.250 426.136"/>
<path d="M 786.932 426.136 L 789.773 426.136"/>
<path d="M 29.830 430.398 L 31.250 430.398"/>
<path d="M 93.750 430.398 L 96.591 430.398"/>
<path d="M 98.011 430.398 L 103.693 430.398"/>
<path d="M 110.795 430.398 L 112.216 430.398"/>
<path d="M 471.591 430.398 L 474.432 430.398"/>
<path d="M 482.955 430.398 L 485.795 430.398"/>
<path d="M 514.205 430.398 L 515.625 430.398"/>
<path d="M 521.307 430.398 L 524.148 430.398"/>
<path d="M 546.875 430.398 L 553.977 430.398"/>
<path d="M 569.602 430.398 L 573.864 430.398"/>
<path d="M 576.705 430.398 L 585.227 430.398"/>
<path d="M 593.750 430.398 L 617.898 430.398"/>
<path d="M 626.420 430.398 L 643.466 430.398"/>
<path d="M 748.580 430.398 L 762.784 430.398"/>
<path d="M 764.205 430.398 L 765.625 430.398"/>
<path d="M 767.045 430.398 L 775.568 430.398"/>
<path d="M 778.409 430.398 L 779.830 430.398"/>
<path d="M 786.932 430.398 L 792.614 430.398"/>
<path d="M 103.693 434.659 L 106.534 434.659"/>
<path d="M 113.636 434.659 L 116.477 434.659"/>
<path d="M 468.750 434.659 L 473.011 434.659"/>
<path d="M 474.432 434.659 L 477.273 434.659"/>
<path d="M 546.875 434.659 L 553.977 434.659"/>
<path d="M 568.182 434.659 L 576.705 434.659"/>
<path d="M 583.807 434.659 L 593.750 434.659"/>
<path d="M 603.693 434.659 L 622.159 434.659"/>
<path d="M 632.102 434.659 L 649.148 434.659"/>
<path d="M 741.477 434.659 L 769.886 434.659"/>
<path d="M 788.352 434.659 L 794.034 434.659"/>
<path d="M 107.955 438.920 L 112.216 438.920"/>
<path d="M 467.330 438.920 L 473.011 438.920"/>
<path d="M 545.455 438.920 L 546.875 438.920"/>
<path d="M 548.295 438.920 L 556.818 438.920"/>
<path d="M 571.023 438.920 L 573.864 438.920"/>
<path d="M 575.284 438.920 L 576.705 438.920"/>
<path d="M 578.125 438.920 L 579.545 438.920"/>
<path d="M 585.227 438.920 L 607.955 438.920"/>
<path d="M 613.636 438.920 L 623.580 438.920"/>
<path d="M 636.364 438.920 L 651.989 438.920"/>
<path d="M 718.750 438.920 L 730.114 438.920"/>
<path d="M 738.636 438.920 L 768.466 438.920"/>
<path d="M 789.773 438.920 L 794.034 438.920"/>
<path d="M 63.920 443.182 L 66.761 443.182"/>
<path d="M 106.534 443.182 L 112.216 443.182"/>
<path d="M 464.489 443.182 L 470.170 443.182"/>
<path d="M 552.557 443.182 L 556.818 443.182"/>
<path d="M 571.023 443.182 L 576.705 443.182"/>
<path d="M 585.227 443.182 L 590.909 443.182"/>
<path d="M 600.852 443.182 L 615.057 443.182"/>
<path d="M 620.739 443.182 L 622.159 443.182"/>
<path d="M 623.580 443.182 L 626.420 443.182"/>
<path d="M 642.045 443.182 L 656.250 443.182"/>
<path d="M 713.068 443.182 L 730.114 443.182"/>
<path d="M 735.795 443.182 L 737.216 443.182"/>
<path d="M 741.477 443.182 L 765.625 443.182"/>
<path d="M 791.193 443.182 L 795.455 443.182"/>
<path d="M 80.966 447.443 L 85.227 447.443"/>
<path d="M 93.750 447.443 L 95.170 447.443"/>
<path d="M 100.852 447.443 L 107.955 447.443"/>
<path d="M 460.227 447.443 L 463.068 447.443"/>
<path d="M 492.898 447.443 L 494.318 447.443"/>
<path d="M 552.557 447.443 L 556.818 447.443"/>
<path d="M 569.602 447.443 L 572.443 447.443"/>
<path d="M 585.227 447.443 L 589.489 447.443"/>
<path d="M 593.750 447.443 L 607.955 447.443"/>
<path d="M 612.216 447.443 L 622.159 447.443"/>
<path d="M 630.682 447.443 L 633.523 447.443"/>
<path d="M 646.307 447.443 L 659.091 447.443"/>
<path d="M 710.227 447.443 L 724.432 447.443"/>
<path d="M 741.477 447.443 L 767.045 447.443"/>
<path d="M 792.614 447.443 L 796.875 447.443"/>
<path d="M 58.239 451.705 L 59.659 451.705"/>
<path d="M 113.636 451.705 L 120.739 451.705"/>
<path d="M 123.580 451.705 L 126.420 451.705"/>
<path d="M 150.568 451.705 L 153.409 451.705"/>
<path d="M 454.545 451.705 L 460.227 451.705"/>
<path d="M 467.330 451.705 L 468.750 451.705"/>
<path d="M 549.716 451.705 L 556.818 451.705"/>
<path d="M 571.023 451.705 L 573.864 451.705"/>
<path d="M 589.489 451.705 L 603.693 451.705"/>
<path d="M 612.216 451.705 L 615.057 451.705"/>
<path d="M 616.477 451.705 L 626.420 451.705"/>
<path d="M 632.102 451.705 L 636.364 451.705"/>
<path d="M 649.148 451.705 L 664.773 451.705"/>
<path d="M 707.386 451.705 L 720.170 451.705"/>
<path d="M 735.795 451.705 L 765.625 451.705"/>
<path d="M 794.034 451.705 L 798.295 451.705"/>
<path d="M 59.659 455.966 L 63.920 455.966"/>
<path d="M 109.375 455.966 L 116.477 455.966"/>
<path d="M 120.739 455.966 L 129.261 455.966"/>
<path d="M 140.625 455.966 L 147.727 455.966"/>
<path d="M 453.125 455.966 L 458.807 455.966"/>
<path d="M 463.068 455.966 L 464.489 455.966"/>
<path d="M 548.295 455.966 L 556.818 455.966"/>
<path d="M 569.602 455.966 L 576.705 455.966"/>
<path d="M 613.636 455.966 L 615.057 455.966"/>
<path d="M 617.898 455.966 L 640.625 455.966"/>
<path d="M 650.568 455.966 L 666.193 455.966"/>
<path d="M 671.875 455.966 L 673.295 455.966"/>
<path d="M 703.125 455.966 L 717.330 455.966"/>
<path d="M 732.955 455.966 L 761.364 455.966"/>
<path d="M 794.034 455.966 L 798.295 455.966"/>
<path d="M 65.341 460.227 L 69.602 460.227"/>
<path d="M 109.375 460.227 L 115.057 460.227"/>
<path d="M 127.841 460.227 L 130.682 460.227"/>
<path d="M 450.284 460.227 L 460.227 460.227"/>
<path d="M 545.455 460.227 L 555.398 460.227"/>
<path d="M 569.602 460.227 L 575.284 460.227"/>
<path d="M 576.705 460.227 L 580.966 460.227"/>
<path d="M 626.420 460.227 L 632.102 460.227"/>
<path d="M 634.943 460.227 L 636.364 460.227"/>
<path d="M 637.784 460.227 L 642.045 460.227"/>
<path d="M 651.989 460.227 L 663.352 460.227"/>
<path d="M 669.034 460.227 L 677.557 460.227"/>
<path d="M 700.284 460.227 L 714.489 460.227"/>
<path d="M 730.114 460.227 L 755.682 460.227"/>
<path d="M 795.455 460.227 L 798.295 460.227"/>
<path d="M 73.864 464.489 L 80.966 464.489"/>
<path d="M 109.375 464.489 L 110.795 464.489"/>
<path d="M 115.057 464.489 L 120.739 464.489"/>
<path d="M 126.420 464.489 L 130.682 464.489"/>
<path d="M 166.193 464.489 L 167.614 464.489"/>
<path d="M 171.875 464.489 L 173.295 464.489"/>
<path d="M 448.864 464.489 L 460.227 464.489"/>
<path d="M 549.716 464.489 L 556.818 464.489"/>
<path d="M 566.761 464.489 L 568.182 464.489"/>
<path d="M 569.602 464.489 L 575.284 464.489"/>
<path d="M 626.420 464.489 L 632.102 464.489"/>
<path d="M 654.830 464.489 L 656.250 464.489"/>
<path d="M 667.614 464.489 L 678.977 464.489"/>
<path d="M 693.182 464.489 L 694.602 464.489"/>
<path d="M 698.864 464.489 L 705.966 464.489"/>
<path d="M 707.386 464.489 L 714.489 464.489"/>
<path d="M 728.693 464.489 L 757.102 464.489"/>
<path d="M 781.250 464.489 L 784.091 464.489"/>
<path d="M 795.455 464.489 L 799.716 464.489"/>
<path d="M 78.125 468.750 L 85.227 468.750"/>
<path d="M 119.318 468.750 L 120.739 468.750"/>
<path d="M 126.420 468.750 L 129.261 468.750"/>
<path d="M 447.443 468.750 L 453.125 468.750"/>
<path d="M 474.432 468.750 L 478.693 468.750"/>
<path d="M 524.148 468.750 L 525.568 468.750"/>
<path d="M 529.830 468.750 L 534.091 468.750"/>
<path d="M 541.193 468.750 L 548.295 468.750"/>
<path d="M 549.716 468.750 L 556.818 468.750"/>
<path d="M 568.182 468.750 L 573.864 468.750"/>
<path d="M 583.807 468.750 L 586.648 468.750"/>
<path d="M 629.261 468.750 L 633.523 468.750"/>
<path d="M 663.352 468.750 L 677.557 468.750"/>
<path d="M 696.023 468.750 L 705.966 468.750"/>
<path d="M 710.227 468.750 L 715.909 468.750"/>
<path d="M 717.330 468.750 L 718.750 468.750"/>
<path d="M 724.432 468.750 L 762.784 468.750"/>
<path d="M 774.148 468.750 L 784.091 468.750"/>
<path d="M 795.455 468.750 L 796.875 468.750"/>
<path d="M 82.386 473.011 L 86.648 473.011"/>
<path d="M 147.727 473.011 L 150.568 473.011"/>
<path d="M 443.182 473.011 L 447.443 473.011"/>
<path d="M 457.386 473.011 L 460.227 473.011"/>
<path d="M 504.261 473.011 L 507.102 473.011"/>
<path d="M 511.364 473.011 L 517.045 473.011"/>
<path d="M 518.466 473.011 L 521.307 473.011"/>
<path d="M 522.727 473.011 L 558.239 473.011"/>
<path d="M 569.602 473.011 L 576.705 473.011"/>
<path d="M 579.545 473.011 L 582.386 473.011"/>
<path d="M 626.420 473.011 L 627.841 473.011"/>
<path d="M 629.261 473.011 L 636.364 473.011"/>
<path d="M 660.511 473.011 L 671.875 473.011"/>
<path d="M 691.761 473.011 L 700.284 473.011"/>
<path d="M 704.545 473.011 L 705.966 473.011"/>
<path d="M 713.068 473.011 L 724.432 473.011"/>
<path d="M 725.852 473.011 L 730.114 473.011"/>
<path d="M 732.955 473.011 L 761.364 473.011"/>
<path d="M 764.205 473.011 L 769.886 473.011"/>
<path d="M 771.307 473.011 L 775.568 473.011"/>
<path d="M 778.409 473.011 L 785.511 473.011"/>
<path d="M 795.455 473.011 L 796.875 473.011"/>
<path d="M 798.295 473.011 L 799.716 473.011"/>
<path d="M 83.807 477.273 L 88.068 477.273"/>
<path d="M 144.886 477.273 L 156.250 477.273"/>
<path d="M 443.182 477.273 L 450.284 477.273"/>
<path d="M 451.705 477.273 L 457.386 477.273"/>
<path d="M 498.580 477.273 L 518.466 477.273"/>
<path d="M 524.148 477.273 L 529.830 477.273"/>
<path d="M 534.091 477.273 L 545.455 477.273"/>
<path d="M 546.875 477.273 L 548.295 477.273"/>
<path d="M 553.977 477.273 L 556.818 477.273"/>
<path d="M 572.443 477.273 L 579.545 477.273"/>
<path d="M 582.386 477.273 L 583.807 477.273"/>
<path d="M 627.841 477.273 L 637.784 477.273"/>
<path d="M 659.091 477.273 L 666.193 477.273"/>
<path d="M 681.818 477.273 L 688.920 477.273"/>
<path d="M 690.341 477.273 L 707.386 477.273"/>
<path d="M 708.807 477.273 L 714.489 477.273"/>
<path d="M 720.170 477.273 L 724.432 477.273"/>
<path d="M 727.273 477.273 L 728.693 477.273"/>
<path d="M 735.795 477.273 L 737.216 477.273"/>
<path d="M 741.477 477.273 L 767.045 477.273"/>
<path d="M 768.466 477.273 L 769.886 477.273"/>
<path d="M 778.409 477.273 L 784.091 477.273"/>
<path d="M 792.614 477.273 L 794.034 477.273"/>
<path d="M 795.455 477.273 L 798.295 477.273"/>
<path d="M 85.227 481.534 L 86.648 481.534"/>
<path d="M 98.011 481.534 L 103.693 481.534"/>
<path d="M 105.114 481.534 L 109.375 481.534"/>
<path d="M 143.466 481.534 L 150.568 481.534"/>
<path d="M 443.182 481.534 L 453.125 481.534"/>
<path d="M 492.898 481.534 L 505.682 481.534"/>
<path d="M 578.125 481.534 L 596.591 481.534"/>
<path d="M 627.841 481.534 L 637.784 481.534"/>
<path d="M 656.250 481.534 L 659.091 481.534"/>
<path d="M 710.227 481.534 L 740.057 481.534"/>
<path d="M 742.898 481.534 L 751.420 481.534"/>
<path d="M 761.364 481.534 L 767.045 481.534"/>
<path d="M 772.727 481.534 L 774.148 481.534"/>
<path d="M 778.409 481.534 L 785.511 481.534"/>
<path d="M 798.295 481.534 L 803.977 481.534"/>
<path d="M 85.227 485.795 L 86.648 485.795"/>
<path d="M 102.273 485.795 L 103.693 485.795"/>
<path d="M 107.955 485.795 L 112.216 485.795"/>
<path d="M 444.602 485.795 L 451.705 485.795"/>
<path d="M 487.216 485.795 L 498.580 485.795"/>
<path d="M 579.545 485.795 L 636.364 485.795"/>
<path d="M 651.989 485.795 L 657.670 485.795"/>
<path d="M 718.750 485.795 L 721.591 485.795"/>
<path d="M 724.432 485.795 L 740.057 485.795"/>
<path d="M 761.364 485.795 L 772.727 485.795"/>
<path d="M 781.250 485.795 L 786.932 485.795"/>
<path d="M 795.455 485.795 L 796.875 485.795"/>
<path d="M 801.136 485.795 L 803.977 485.795"/>
<path d="M 85.227 490.057 L 86.648 490.057"/>
<path d="M 446.023 490.057 L 451.705 490.057"/>
<path d="M 461.648 490.057 L 463.068 490.057"/>
<path d="M 482.955 490.057 L 484.375 490.057"/>
<path d="M 487.216 490.057 L 492.898 490.057"/>
<path d="M 578.125 490.057 L 600.852 490.057"/>
<path d="M 605.114 490.057 L 617.898 490.057"/>
<path d="M 632.102 490.057 L 633.523 490.057"/>
<path d="M 650.568 490.057 L 654.830 490.057"/>
<path d="M 671.875 490.057 L 686.080 490.057"/>
<path d="M 723.011 490.057 L 724.432 490.057"/>
<path d="M 754.261 490.057 L 765.625 490.057"/>
<path d="M 775.568 490.057 L 778.409 490.057"/>
<path d="M 781.250 490.057 L 786.932 490.057"/>
<path d="M 801.136 490.057 L 805.398 490.057"/>
<path d="M 82.386 494.318 L 85.227 494.318"/>
<path d="M 90.909 494.318 L 95.170 494.318"/>
<path d="M 102.273 494.318 L 105.114 494.318"/>
<path d="M 446.023 494.318 L 451.705 494.318"/>
<path d="M 482.955 494.318 L 488.636 494.318"/>
<path d="M 578.125 494.318 L 592.330 494.318"/>
<path d="M 596.591 494.318 L 603.693 494.318"/>
<path d="M 609.375 494.318 L 612.216 494.318"/>
<path d="M 613.636 494.318 L 615.057 494.318"/>
<path d="M 617.898 494.318 L 619.318 494.318"/>
<path d="M 676.136 494.318 L 698.864 494.318"/>
<path d="M 725.852 494.318 L 761.364 494.318"/>
<path d="M 768.466 494.318 L 776.989 494.318"/>
<path d="M 779.830 494.318 L 788.352 494.318"/>
<path d="M 801.136 494.318 L 802.557 494.318"/>
<path d="M 803.977 494.318 L 806.818 494.318"/>
<path d="M 808.239 494.318 L 811.080 494.318"/>
<path d="M 90.909 498.580 L 95.170 498.580"/>
<path d="M 98.011 498.580 L 100.852 498.580"/>
<path d="M 102.273 498.580 L 103.693 498.580"/>
<path d="M 120.739 498.580 L 122.159 498.580"/>
<path d="M 444.602 498.580 L 450.284 498.580"/>
<path d="M 481.534 498.580 L 485.795 498.580"/>
<path d="M 580.966 498.580 L 582.386 498.580"/>
<path d="M 593.750 498.580 L 634.943 498.580"/>
<path d="M 686.080 498.580 L 744.318 498.580"/>
<path d="M 754.261 498.580 L 757.102 498.580"/>
<path d="M 758.523 498.580 L 761.364 498.580"/>
<path d="M 765.625 498.580 L 774.148 498.580"/>
<path d="M 775.568 498.580 L 779.830 498.580"/>
<path d="M 781.250 498.580 L 789.773 498.580"/>
<path d="M 808.239 498.580 L 812.500 498.580"/>
<path d="M 848.011 498.580 L 849.432 498.580"/>
<path d="M 93.750 502.841 L 96.591 502.841"/>
<path d="M 98.011 502.841 L 102.273 502.841"/>
<path d="M 440.341 502.841 L 448.864 502.841"/>
<path d="M 478.693 502.841 L 484.375 502.841"/>
<path d="M 582.386 502.841 L 598.011 502.841"/>
<path d="M 602.273 502.841 L 603.693 502.841"/>
<path d="M 620.739 502.841 L 634.943 502.841"/>
<path d="M 659.091 502.841 L 667.614 502.841"/>
<path d="M 681.818 502.841 L 683.239 502.841"/>
<path d="M 690.341 502.841 L 691.761 502.841"/>
<path d="M 693.182 502.841 L 751.420 502.841"/>
<path d="M 762.784 502.841 L 781.250 502.841"/>
<path d="M 782.670 502.841 L 791.193 502.841"/>
<path d="M 816.761 502.841 L 819.602 502.841"/>
<path d="M 826.705 502.841 L 828.125 502.841"/>
<path d="M 80.966 507.102 L 85.227 507.102"/>
<path d="M 93.750 507.102 L 99.432 507.102"/>
<path d="M 142.045 507.102 L 147.727 507.102"/>
<path d="M 434.659 507.102 L 441.761 507.102"/>
<path d="M 474.432 507.102 L 481.534 507.102"/>
<path d="M 578.125 507.102 L 585.227 507.102"/>
<path d="M 590.909 507.102 L 598.011 507.102"/>
<path d="M 626.420 507.102 L 627.841 507.102"/>
<path d="M 629.261 507.102 L 636.364 507.102"/>
<path d="M 656.250 507.102 L 686.080 507.102"/>
<path d="M 691.761 507.102 L 693.182 507.102"/>
<path d="M 700.284 507.102 L 752.841 507.102"/>
<path d="M 755.682 507.102 L 762.784 507.102"/>
<path d="M 765.625 507.102 L 774.148 507.102"/>
<path d="M 775.568 507.102 L 781.250 507.102"/>
<path d="M 782.670 507.102 L 785.511 507.102"/>
<path d="M 788.352 507.102 L 794.034 507.102"/>
<path d="M 821.023 507.102 L 822.443 507.102"/>
<path d="M 823.864 507.102 L 826.705 507.102"/>
<path d="M 86.648 511.364 L 89.489 511.364"/>
<path d="M 393.466 511.364 L 399.148 511.364"/>
<path d="M 423.295 511.364 L 440.341 511.364"/>
<path d="M 468.750 511.364 L 470.170 511.364"/>
<path d="M 473.011 511.364 L 481.534 511.364"/>
<path d="M 566.761 511.364 L 583.807 511.364"/>
<path d="M 590.909 511.364 L 593.750 511.364"/>
<path d="M 598.011 511.364 L 606.534 511.364"/>
<path d="M 622.159 511.364 L 625.000 511.364"/>
<path d="M 627.841 511.364 L 634.943 511.364"/>
<path d="M 654.830 511.364 L 661.932 511.364"/>
<path d="M 663.352 511.364 L 667.614 511.364"/>
<path d="M 674.716 511.364 L 678.977 511.364"/>
<path d="M 684.659 511.364 L 694.602 511.364"/>
<path d="M 705.966 511.364 L 707.386 511.364"/>
<path d="M 750.000 511.364 L 752.841 511.364"/>
<path d="M 754.261 511.364 L 761.364 511.364"/>
<path d="M 764.205 511.364 L 776.989 511.364"/>
<path d="M 789.773 511.364 L 795.455 511.364"/>
<path d="M 829.545 511.364 L 833.807 511.364"/>
<path d="M 872.159 511.364 L 873.580 511.364"/>
<path d="M 88.068 515.625 L 89.489 515.625"/>
<path d="M 90.909 515.625 L 92.330 515.625"/>
<path d="M 419.034 515.625 L 428.977 515.625"/>
<path d="M 437.500 515.625 L 441.761 515.625"/>
<path d="M 473.011 515.625 L 480.114 515.625"/>
<path d="M 566.761 515.625 L 568.182 515.625"/>
<path d="M 573.864 515.625 L 575.284 515.625"/>
<path d="M 576.705 515.625 L 585.227 515.625"/>
<path d="M 588.068 515.625 L 595.170 515.625"/>
<path d="M 596.591 515.625 L 599.432 515.625"/>
<path d="M 602.273 515.625 L 613.636 515.625"/>
<path d="M 620.739 515.625 L 625.000 515.625"/>
<path d="M 626.420 515.625 L 634.943 515.625"/>
<path d="M 659.091 515.625 L 669.034 515.625"/>
<path d="M 681.818 515.625 L 686.080 515.625"/>
<path d="M 690.341 515.625 L 704.545 515.625"/>
<path d="M 740.057 515.625 L 745.739 515.625"/>
<path d="M 748.580 515.625 L 751.420 515.625"/>
<path d="M 752.841 515.625 L 759.943 515.625"/>
<path d="M 762.784 515.625 L 795.455 515.625"/>
<path d="M 92.330 519.886 L 96.591 519.886"/>
<path d="M 187.500 519.886 L 197.443 519.886"/>
<path d="M 413.352 519.886 L 421.875 519.886"/>
<path d="M 423.295 519.886 L 424.716 519.886"/>
<path d="M 471.591 519.886 L 478.693 519.886"/>
<path d="M 576.705 519.886 L 589.489 519.886"/>
<path d="M 595.170 519.886 L 600.852 519.886"/>
<path d="M 605.114 519.886 L 619.318 519.886"/>
<path d="M 620.739 519.886 L 623.580 519.886"/>
<path d="M 626.420 519.886 L 634.943 519.886"/>
<path d="M 663.352 519.886 L 673.295 519.886"/>
<path d="M 686.080 519.886 L 688.920 519.886"/>
<path d="M 701.705 519.886 L 718.750 519.886"/>
<path d="M 727.273 519.886 L 772.727 519.886"/>
<path d="M 788.352 519.886 L 794.034 519.886"/>
<path d="M 842.330 519.886 L 845.170 519.886"/>
<path d="M 90.909 524.148 L 92.330 524.148"/>
<path d="M 93.750 524.148 L 96.591 524.148"/>
<path d="M 188.920 524.148 L 193.182 524.148"/>
<path d="M 198.864 524.148 L 200.284 524.148"/>
<path d="M 409.091 524.148 L 423.295 524.148"/>
<path d="M 465.909 524.148 L 478.693 524.148"/>
<path d="M 576.705 524.148 L 585.227 524.148"/>
<path d="M 592.330 524.148 L 593.750 524.148"/>
<path d="M 595.170 524.148 L 603.693 524.148"/>
<path d="M 610.795 524.148 L 633.523 524.148"/>
<path d="M 654.830 524.148 L 663.352 524.148"/>
<path d="M 669.034 524.148 L 680.398 524.148"/>
<path d="M 700.284 524.148 L 703.125 524.148"/>
<path d="M 704.545 524.148 L 714.489 524.148"/>
<path d="M 732.955 524.148 L 764.205 524.148"/>
<path d="M 846.591 524.148 L 850.852 524.148"/>
<path d="M 890.625 524.148 L 893.466 524.148"/>
<path d="M 98.011 528.409 L 102.273 528.409"/>
<path d="M 190.341 528.409 L 200.284 528.409"/>
<path d="M 404.830 528.409 L 410.511 528.409"/>
<path d="M 420.455 528.409 L 423.295 528.409"/>
<path d="M 467.330 528.409 L 468.750 528.409"/>
<path d="M 471.591 528.409 L 478.693 528.409"/>
<path d="M 578.125 528.409 L 589.489 528.409"/>
<path d="M 600.852 528.409 L 606.534 528.409"/>
<path d="M 613.636 528.409 L 615.057 528.409"/>
<path d="M 616.477 528.409 L 630.682 528.409"/>
<path d="M 656.250 528.409 L 666.193 528.409"/>
<path d="M 673.295 528.409 L 681.818 528.409"/>
<path d="M 683.239 528.409 L 686.080 528.409"/>
<path d="M 700.284 528.409 L 708.807 528.409"/>
<path d="M 742.898 528.409 L 759.943 528.409"/>
<path d="M 788.352 528.409 L 789.773 528.409"/>
<path d="M 857.955 528.409 L 859.375 528.409"/>
<path d="M 896.307 528.409 L 897.727 528.409"/>
<path d="M 100.852 532.670 L 106.534 532.670"/>
<path d="M 191.761 532.670 L 201.705 532.670"/>
<path d="M 369.318 532.670 L 383.523 532.670"/>
<path d="M 389.205 532.670 L 414.773 532.670"/>
<path d="M 417.614 532.670 L 420.455 532.670"/>
<path d="M 467.330 532.670 L 481.534 532.670"/>
<path d="M 579.545 532.670 L 589.489 532.670"/>
<path d="M 602.273 532.670 L 607.955 532.670"/>
<path d="M 650.568 532.670 L 651.989 532.670"/>
<path d="M 654.830 532.670 L 673.295 532.670"/>
<path d="M 677.557 532.670 L 686.080 532.670"/>
<path d="M 688.920 532.670 L 693.182 532.670"/>
<path d="M 704.545 532.670 L 708.807 532.670"/>
<path d="M 751.420 532.670 L 755.682 532.670"/>
<path d="M 758.523 532.670 L 759.943 532.670"/>
<path d="M 778.409 532.670 L 779.830 532.670"/>
<path d="M 784.091 532.670 L 791.193 532.670"/>
<path d="M 100.852 536.932 L 103.693 536.932"/>
<path d="M 159.091 536.932 L 161.932 536.932"/>
<path d="M 191.761 536.932 L 203.125 536.932"/>
<path d="M 365.057 536.932 L 367.898 536.932"/>
<path d="M 369.318 536.932 L 410.511 536.932"/>
<path d="M 416.193 536.932 L 420.455 536.932"/>
<path d="M 427.557 536.932 L 428.977 536.932"/>
<path d="M 471.591 536.932 L 481.534 536.932"/>
<path d="M 562.500 536.932 L 568.182 536.932"/>
<path d="M 583.807 536.932 L 590.909 536.932"/>
<path d="M 603.693 536.932 L 612.216 536.932"/>
<path d="M 657.670 536.932 L 674.716 536.932"/>
<path d="M 683.239 536.932 L 691.761 536.932"/>
<path d="M 700.284 536.932 L 701.705 536.932"/>
<path d="M 707.386 536.932 L 721.591 536.932"/>
<path d="M 728.693 536.932 L 731.534 536.932"/>
<path d="M 735.795 536.932 L 738.636 536.932"/>
<path d="M 751.420 536.932 L 752.841 536.932"/>
<path d="M 754.261 536.932 L 761.364 536.932"/>
<path d="M 774.148 536.932 L 792.614 536.932"/>
<path d="M 869.318 536.932 L 870.739 536.932"/>
<path d="M 875.000 536.932 L 876.420 536.932"/>
<path d="M 906.250 536.932 L 907.670 536.932"/>
<path d="M 102.273 541.193 L 106.534 541.193"/>
<path d="M 191.761 541.193 L 204.545 541.193"/>
<path d="M 366.477 541.193 L 373.580 541.193"/>
<path d="M 376.420 541.193 L 377.841 541.193"/>
<path d="M 392.045 541.193 L 393.466 541.193"/>
<path d="M 396.307 541.193 L 409.091 541.193"/>
<path d="M 471.591 541.193 L 478.693 541.193"/>
<path d="M 480.114 541.193 L 482.955 541.193"/>
<path d="M 566.761 541.193 L 568.182 541.193"/>
<path d="M 580.966 541.193 L 582.386 541.193"/>
<path d="M 585.227 541.193 L 593.750 541.193"/>
<path d="M 606.534 541.193 L 613.636 541.193"/>
<path d="M 615.057 541.193 L 616.477 541.193"/>
<path d="M 654.830 541.193 L 656.250 541.193"/>
<path d="M 659.091 541.193 L 666.193 541.193"/>
<path d="M 673.295 541.193 L 677.557 541.193"/>
<path d="M 683.239 541.193 L 694.602 541.193"/>
<path d="M 697.443 541.193 L 698.864 541.193"/>
<path d="M 711.648 541.193 L 720.170 541.193"/>
<path d="M 721.591 541.193 L 741.477 541.193"/>
<path d="M 751.420 541.193 L 782.670 541.193"/>
<path d="M 785.511 541.193 L 794.034 541.193"/>
<path d="M 875.000 541.193 L 877.841 541.193"/>
<path d="M 102.273 545.455 L 107.955 545.455"/>
<path d="M 193.182 545.455 L 204.545 545.455"/>
<path d="M 279.830 545.455 L 281.250 545.455"/>
<path d="M 397.727 545.455 L 406.250 545.455"/>
<path d="M 411.932 545.455 L 414.773 545.455"/>
<path d="M 482.955 545.455 L 487.216 545.455"/>
<path d="M 562.500 545.455 L 568.182 545.455"/>
<path d="M 582.386 545.455 L 583.807 545.455"/>
<path d="M 589.489 545.455 L 592.330 545.455"/>
<path d="M 603.693 545.455 L 605.114 545.455"/>
<path d="M 612.216 545.455 L 617.898 545.455"/>
<path d="M 636.364 545.455 L 646.307 545.455"/>
<path d="M 651.989 545.455 L 653.409 545.455"/>
<path d="M 654.830 545.455 L 659.091 545.455"/>
<path d="M 660.511 545.455 L 667.614 545.455"/>
<path d="M 673.295 545.455 L 707.386 545.455"/>
<path d="M 718.750 545.455 L 721.591 545.455"/>
<path d="M 725.852 545.455 L 730.114 545.455"/>
<path d="M 731.534 545.455 L 775.568 545.455"/>
<path d="M 785.511 545.455 L 786.932 545.455"/>
<path d="M 788.352 545.455 L 799.716 545.455"/>
<path d="M 883.523 545.455 L 884.943 545.455"/>
<path d="M 109.375 549.716 L 110.795 549.716"/>
<path d="M 120.739 549.716 L 122.159 549.716"/>
<path d="M 126.420 549.716 L 127.841 549.716"/>
<path d="M 130.682 549.716 L 134.943 549.716"/>
<path d="M 194.602 549.716 L 203.125 549.716"/>
<path d="M 272.727 549.716 L 285.511 549.716"/>
<path d="M 399.148 549.716 L 403.409 549.716"/>
<path d="M 427.557 549.716 L 431.818 549.716"/>
<path d="M 485.795 549.716 L 487.216 549.716"/>
<path d="M 562.500 549.716 L 569.602 549.716"/>
<path d="M 572.443 549.716 L 573.864 549.716"/>
<path d="M 583.807 549.716 L 593.750 549.716"/>
<path d="M 602.273 549.716 L 622.159 549.716"/>
<path d="M 637.784 549.716 L 651.989 549.716"/>
<path d="M 654.830 549.716 L 663.352 549.716"/>
<path d="M 673.295 549.716 L 678.977 549.716"/>
<path d="M 700.284 549.716 L 710.227 549.716"/>
<path d="M 714.489 549.716 L 718.750 549.716"/>
<path d="M 725.852 549.716 L 728.693 549.716"/>
<path d="M 730.114 549.716 L 747.159 549.716"/>
<path d="M 748.580 549.716 L 754.261 549.716"/>
<path d="M 759.943 549.716 L 761.364 549.716"/>
<path d="M 771.307 549.716 L 778.409 549.716"/>
<path d="M 781.250 549.716 L 798.295 549.716"/>
<path d="M 886.364 549.716 L 887.784 549.716"/>
<path d="M 254.261 553.977 L 255.682 553.977"/>
<path d="M 262.784 553.977 L 281.250 553.977"/>
<path d="M 399.148 553.977 L 400.568 553.977"/>
<path d="M 407.670 553.977 L 413.352 553.977"/>
<path d="M 563.920 553.977 L 578.125 553.977"/>
<path d="M 580.966 553.977 L 582.386 553.977"/>
<path d="M 588.068 553.977 L 622.159 553.977"/>
<path d="M 639.205 553.977 L 651.989 553.977"/>
<path d="M 659.091 553.977 L 666.193 553.977"/>
<path d="M 673.295 553.977 L 678.977 553.977"/>
<path d="M 704.545 553.977 L 737.216 553.977"/>
<path d="M 738.636 553.977 L 758.523 553.977"/>
<path d="M 762.784 553.977 L 765.625 553.977"/>
<path d="M 769.886 553.977 L 781.250 553.977"/>
<path d="M 785.511 553.977 L 794.034 553.977"/>
<path d="M 893.466 553.977 L 894.886 553.977"/>
<path d="M 119.318 558.239 L 120.739 558.239"/>
<path d="M 259.943 558.239 L 274.148 558.239"/>
<path d="M 397.727 558.239 L 401.989 558.239"/>
<path d="M 403.409 558.239 L 406.250 558.239"/>
<path d="M 409.091 558.239 L 416.193 558.239"/>
<path d="M 484.375 558.239 L 485.795 558.239"/>
<path d="M 490.057 558.239 L 497.159 558.239"/>
<path d="M 563.920 558.239 L 565.341 558.239"/>
<path d="M 566.761 558.239 L 588.068 558.239"/>
<path d="M 593.750 558.239 L 619.318 558.239"/>
<path d="M 642.045 558.239 L 653.409 558.239"/>
<path d="M 659.091 558.239 L 670.455 558.239"/>
<path d="M 676.136 558.239 L 681.818 558.239"/>
<path d="M 704.545 558.239 L 715.909 558.239"/>
<path d="M 723.011 558.239 L 758.523 558.239"/>
<path d="M 761.364 558.239 L 776.989 558.239"/>
<path d="M 781.250 558.239 L 791.193 558.239"/>
<path d="M 897.727 558.239 L 899.148 558.239"/>
<path d="M 102.273 562.500 L 103.693 562.500"/>
<path d="M 251.420 562.500 L 252.841 562.500"/>
<path d="M 255.682 562.500 L 258.523 562.500"/>
<path d="M 262.784 562.500 L 265.625 562.500"/>
<path d="M 271.307 562.500 L 272.727 562.500"/>
<path d="M 394.886 562.500 L 400.568 562.500"/>
<path d="M 406.250 562.500 L 407.670 562.500"/>
<path d="M 420.455 562.500 L 421.875 562.500"/>
<path d="M 500.000 562.500 L 501.420 562.500"/>
<path d="M 568.182 562.500 L 589.489 562.500"/>
<path d="M 598.011 562.500 L 617.898 562.500"/>
<path d="M 640.625 562.500 L 656.250 562.500"/>
<path d="M 661.932 562.500 L 663.352 562.500"/>
<path d="M 664.773 562.500 L 678.977 562.500"/>
<path d="M 690.341 562.500 L 693.182 562.500"/>
<path d="M 694.602 562.500 L 717.330 562.500"/>
<path d="M 744.318 562.500 L 772.727 562.500"/>
<path d="M 779.830 562.500 L 789.773 562.500"/>
<path d="M 900.568 562.500 L 901.989 562.500"/>
<path d="M 387.784 566.761 L 390.625 566.761"/>
<path d="M 392.045 566.761 L 393.466 566.761"/>
<path d="M 397.727 566.761 L 400.568 566.761"/>
<path d="M 403.409 566.761 L 404.830 566.761"/>
<path d="M 420.455 566.761 L 424.716 566.761"/>
<path d="M 501.420 566.761 L 502.841 566.761"/>
<path d="M 563.920 566.761 L 565.341 566.761"/>
<path d="M 571.023 566.761 L 593.750 566.761"/>
<path d="M 603.693 566.761 L 616.477 566.761"/>
<path d="M 642.045 566.761 L 659.091 566.761"/>
<path d="M 666.193 566.761 L 681.818 566.761"/>
<path d="M 693.182 566.761 L 718.750 566.761"/>
<path d="M 757.102 566.761 L 758.523 566.761"/>
<path d="M 762.784 566.761 L 765.625 566.761"/>
<path d="M 769.886 566.761 L 771.307 566.761"/>
<path d="M 776.989 566.761 L 788.352 566.761"/>
<path d="M 903.409 566.761 L 906.250 566.761"/>
<path d="M 927.557 566.761 L 928.977 566.761"/>
<path d="M 102.273 571.023 L 105.114 571.023"/>
<path d="M 360.795 571.023 L 363.636 571.023"/>
<path d="M 376.420 571.023 L 377.841 571.023"/>
<path d="M 386.364 571.023 L 393.466 571.023"/>
<path d="M 401.989 571.023 L 406.250 571.023"/>
<path d="M 419.034 571.023 L 424.716 571.023"/>
<path d="M 575.284 571.023 L 576.705 571.023"/>
<path d="M 580.966 571.023 L 596.591 571.023"/>
<path d="M 606.534 571.023 L 615.057 571.023"/>
<path d="M 640.625 571.023 L 659.091 571.023"/>
<path d="M 669.034 571.023 L 674.716 571.023"/>
<path d="M 676.136 571.023 L 684.659 571.023"/>
<path d="M 697.443 571.023 L 703.125 571.023"/>
<path d="M 711.648 571.023 L 721.591 571.023"/>
<path d="M 778.409 571.023 L 784.091 571.023"/>
<path d="M 904.830 571.023 L 907.670 571.023"/>
<path d="M 106.534 575.284 L 120.739 575.284"/>
<path d="M 122.159 575.284 L 125.000 575.284"/>
<path d="M 129.261 575.284 L 130.682 575.284"/>
<path d="M 372.159 575.284 L 373.580 575.284"/>
<path d="M 375.000 575.284 L 376.420 575.284"/>
<path d="M 380.682 575.284 L 382.102 575.284"/>
<path d="M 383.523 575.284 L 386.364 575.284"/>
<path d="M 404.830 575.284 L 409.091 575.284"/>
<path d="M 410.511 575.284 L 419.034 575.284"/>
<path d="M 583.807 575.284 L 600.852 575.284"/>
<path d="M 607.955 575.284 L 613.636 575.284"/>
<path d="M 640.625 575.284 L 660.511 575.284"/>
<path d="M 667.614 575.284 L 669.034 575.284"/>
<path d="M 670.455 575.284 L 687.500 575.284"/>
<path d="M 700.284 575.284 L 701.705 575.284"/>
<path d="M 714.489 575.284 L 727.273 575.284"/>
<path d="M 778.409 575.284 L 781.250 575.284"/>
<path d="M 909.091 575.284 L 910.511 575.284"/>
<path d="M 129.261 579.545 L 139.205 579.545"/>
<path d="M 143.466 579.545 L 146.307 579.545"/>
<path d="M 265.625 579.545 L 267.045 579.545"/>
<path d="M 363.636 579.545 L 366.477 579.545"/>
<path d="M 369.318 579.545 L 372.159 579.545"/>
<path d="M 373.580 579.545 L 375.000 579.545"/>
<path d="M 376.420 579.545 L 389.205 579.545"/>
<path d="M 392.045 579.545 L 394.886 579.545"/>
<path d="M 416.193 579.545 L 419.034 579.545"/>
<path d="M 507.102 579.545 L 509.943 579.545"/>
<path d="M 566.761 579.545 L 569.602 579.545"/>
<path d="M 592.330 579.545 L 598.011 579.545"/>
<path d="M 609.375 579.545 L 613.636 579.545"/>
<path d="M 640.625 579.545 L 661.932 579.545"/>
<path d="M 671.875 579.545 L 678.977 579.545"/>
<path d="M 680.398 579.545 L 683.239 579.545"/>
<path d="M 686.080 579.545 L 688.920 579.545"/>
<path d="M 696.023 579.545 L 697.443 579.545"/>
<path d="M 700.284 579.545 L 707.386 579.545"/>
<path d="M 715.909 579.545 L 737.216 579.545"/>
<path d="M 910.511 579.545 L 914.773 579.545"/>
<path d="M 136.364 583.807 L 139.205 583.807"/>
<path d="M 251.420 583.807 L 267.045 583.807"/>
<path d="M 403.409 583.807 L 411.932 583.807"/>
<path d="M 414.773 583.807 L 419.034 583.807"/>
<path d="M 507.102 583.807 L 511.364 583.807"/>
<path d="M 548.295 583.807 L 552.557 583.807"/>
<path d="M 565.341 583.807 L 572.443 583.807"/>
<path d="M 575.284 583.807 L 580.966 583.807"/>
<path d="M 592.330 583.807 L 598.011 583.807"/>
<path d="M 607.955 583.807 L 612.216 583.807"/>
<path d="M 640.625 583.807 L 663.352 583.807"/>
<path d="M 673.295 583.807 L 677.557 583.807"/>
<path d="M 683.239 583.807 L 691.761 583.807"/>
<path d="M 701.705 583.807 L 711.648 583.807"/>
<path d="M 718.750 583.807 L 720.170 583.807"/>
<path d="M 721.591 583.807 L 747.159 583.807"/>
<path d="M 907.670 583.807 L 909.091 583.807"/>
<path d="M 264.205 588.068 L 265.625 588.068"/>
<path d="M 407.670 588.068 L 409.091 588.068"/>
<path d="M 411.932 588.068 L 419.034 588.068"/>
<path d="M 546.875 588.068 L 555.398 588.068"/>
<path d="M 556.818 588.068 L 576.705 588.068"/>
<path d="M 578.125 588.068 L 582.386 588.068"/>
<path d="M 589.489 588.068 L 592.330 588.068"/>
<path d="M 642.045 588.068 L 664.773 588.068"/>
<path d="M 673.295 588.068 L 681.818 588.068"/>
<path d="M 688.920 588.068 L 691.761 588.068"/>
<path d="M 701.705 588.068 L 713.068 588.068"/>
<path d="M 721.591 588.068 L 752.841 588.068"/>
<path d="M 916.193 588.068 L 917.614 588.068"/>
<path d="M 410.511 592.330 L 411.932 592.330"/>
<path d="M 413.352 592.330 L 414.773 592.330"/>
<path d="M 421.875 592.330 L 424.716 592.330"/>
<path d="M 427.557 592.330 L 430.398 592.330"/>
<path d="M 548.295 592.330 L 558.239 592.330"/>
<path d="M 568.182 592.330 L 569.602 592.330"/>
<path d="M 643.466 592.330 L 666.193 592.330"/>
<path d="M 674.716 592.330 L 684.659 592.330"/>
<path d="M 688.920 592.330 L 691.761 592.330"/>
<path d="M 703.125 592.330 L 714.489 592.330"/>
<path d="M 724.432 592.330 L 755.682 592.330"/>
<path d="M 916.193 592.330 L 917.614 592.330"/>
<path d="M 919.034 592.330 L 921.875 592.330"/>
<path d="M 110.795 596.591 L 113.636 596.591"/>
<path d="M 123.580 596.591 L 126.420 596.591"/>
<path d="M 139.205 596.591 L 140.625 596.591"/>
<path d="M 413.352 596.591 L 420.455 596.591"/>
<path d="M 421.875 596.591 L 423.295 596.591"/>
<path d="M 424.716 596.591 L 433.239 596.591"/>
<path d="M 549.716 596.591 L 552.557 596.591"/>
<path d="M 578.125 596.591 L 580.966 596.591"/>
<path d="M 585.227 596.591 L 586.648 596.591"/>
<path d="M 589.489 596.591 L 596.591 596.591"/>
<path d="M 644.886 596.591 L 666.193 596.591"/>
<path d="M 676.136 596.591 L 684.659 596.591"/>
<path d="M 687.500 596.591 L 694.602 596.591"/>
<path d="M 707.386 596.591 L 717.330 596.591"/>
<path d="M 728.693 596.591 L 751.420 596.591"/>
<path d="M 917.614 596.591 L 924.716 596.591"/>
<path d="M 110.795 600.852 L 115.057 600.852"/>
<path d="M 133.523 600.852 L 143.466 600.852"/>
<path d="M 416.193 600.852 L 423.295 600.852"/>
<path d="M 431.818 600.852 L 434.659 600.852"/>
<path d="M 436.080 600.852 L 444.602 600.852"/>
<path d="M 578.125 600.852 L 590.909 600.852"/>
<path d="M 647.727 600.852 L 666.193 600.852"/>
<path d="M 678.977 600.852 L 696.023 600.852"/>
<path d="M 708.807 600.852 L 717.330 600.852"/>
<path d="M 731.534 600.852 L 737.216 600.852"/>
<path d="M 920.455 600.852 L 927.557 600.852"/>
<path d="M 102.273 605.114 L 103.693 605.114"/>
<path d="M 116.477 605.114 L 117.898 605.114"/>
<path d="M 419.034 605.114 L 424.716 605.114"/>
<path d="M 436.080 605.114 L 450.284 605.114"/>
<path d="M 464.489 605.114 L 465.909 605.114"/>
<path d="M 657.670 605.114 L 666.193 605.114"/>
<path d="M 678.977 605.114 L 687.500 605.114"/>
<path d="M 688.920 605.114 L 697.443 605.114"/>
<path d="M 923.295 605.114 L 927.557 605.114"/>
<path d="M 100.852 609.375 L 102.273 609.375"/>
<path d="M 225.852 609.375 L 235.795 609.375"/>
<path d="M 423.295 609.375 L 427.557 609.375"/>
<path d="M 431.818 609.375 L 441.761 609.375"/>
<path d="M 521.307 609.375 L 524.148 609.375"/>
<path d="M 683.239 609.375 L 697.443 609.375"/>
<path d="M 924.716 609.375 L 930.398 609.375"/>
<path d="M 105.114 613.636 L 106.534 613.636"/>
<path d="M 116.477 613.636 L 119.318 613.636"/>
<path d="M 130.682 613.636 L 133.523 613.636"/>
<path d="M 223.011 613.636 L 224.432 613.636"/>
<path d="M 230.114 613.636 L 231.534 613.636"/>
<path d="M 240.057 613.636 L 244.318 613.636"/>
<path d="M 352.273 613.636 L 383.523 613.636"/>
<path d="M 420.455 613.636 L 431.818 613.636"/>
<path d="M 926.136 613.636 L 930.398 613.636"/>
<path d="M 107.955 617.898 L 109.375 617.898"/>
<path d="M 134.943 617.898 L 139.205 617.898"/>
<path d="M 353.693 617.898 L 397.727 617.898"/>
<path d="M 420.455 617.898 L 431.818 617.898"/>
<path d="M 481.534 617.898 L 482.955 617.898"/>
<path d="M 490.057 617.898 L 492.898 617.898"/>
<path d="M 927.557 617.898 L 930.398 617.898"/>
<path d="M 112.216 622.159 L 115.057 622.159"/>
<path d="M 244.318 622.159 L 248.580 622.159"/>
<path d="M 356.534 622.159 L 393.466 622.159"/>
<path d="M 394.886 622.159 L 437.500 622.159"/>
<path d="M 473.011 622.159 L 475.852 622.159"/>
<path d="M 477.273 622.159 L 478.693 622.159"/>
<path d="M 505.682 622.159 L 509.943 622.159"/>
<path d="M 928.977 622.159 L 933.239 622.159"/>
<path d="M 117.898 626.420 L 120.739 626.420"/>
<path d="M 238.636 626.420 L 241.477 626.420"/>
<path d="M 359.375 626.420 L 382.102 626.420"/>
<path d="M 386.364 626.420 L 446.023 626.420"/>
<path d="M 473.011 626.420 L 474.432 626.420"/>
<path d="M 500.000 626.420 L 505.682 626.420"/>
<path d="M 931.818 626.420 L 936.080 626.420"/>
<path d="M 119.318 630.682 L 120.739 630.682"/>
<path d="M 122.159 630.682 L 125.000 630.682"/>
<path d="M 231.534 630.682 L 234.375 630.682"/>
<path d="M 366.477 630.682 L 380.682 630.682"/>
<path d="M 383.523 630.682 L 384.943 630.682"/>
<path d="M 389.205 630.682 L 394.886 630.682"/>
<path d="M 396.307 630.682 L 416.193 630.682"/>
<path d="M 420.455 630.682 L 453.125 630.682"/>
<path d="M 464.489 630.682 L 474.432 630.682"/>
<path d="M 931.818 630.682 L 937.500 630.682"/>
<path d="M 100.852 634.943 L 102.273 634.943"/>
<path d="M 110.795 634.943 L 112.216 634.943"/>
<path d="M 125.000 634.943 L 129.261 634.943"/>
<path d="M 308.239 634.943 L 321.023 634.943"/>
<path d="M 366.477 634.943 L 380.682 634.943"/>
<path d="M 383.523 634.943 L 386.364 634.943"/>
<path d="M 397.727 634.943 L 399.148 634.943"/>
<path d="M 400.568 634.943 L 423.295 634.943"/>
<path d="M 434.659 634.943 L 443.182 634.943"/>
<path d="M 446.023 634.943 L 478.693 634.943"/>
<path d="M 482.955 634.943 L 491.477 634.943"/>
<path d="M 933.239 634.943 L 938.920 634.943"/>
<path d="M 940.341 634.943 L 941.761 634.943"/>
<path d="M 117.898 639.205 L 119.318 639.205"/>
<path d="M 126.420 639.205 L 130.682 639.205"/>
<path d="M 167.614 639.205 L 174.716 639.205"/>
<path d="M 198.864 639.205 L 204.545 639.205"/>
<path d="M 208.807 639.205 L 211.648 639.205"/>
<path d="M 220.170 639.205 L 221.591 639.205"/>
<path d="M 228.693 639.205 L 230.114 639.205"/>
<path d="M 305.398 639.205 L 328.125 639.205"/>
<path d="M 365.057 639.205 L 379.261 639.205"/>
<path d="M 399.148 639.205 L 423.295 639.205"/>
<path d="M 434.659 639.205 L 468.750 639.205"/>
<path d="M 470.170 639.205 L 477.273 639.205"/>
<path d="M 478.693 639.205 L 482.955 639.205"/>
<path d="M 484.375 639.205 L 487.216 639.205"/>
<path d="M 105.114 643.466 L 106.534 643.466"/>
<path d="M 125.000 643.466 L 133.523 643.466"/>
<path d="M 164.773 643.466 L 176.136 643.466"/>
<path d="M 203.125 643.466 L 204.545 643.466"/>
<path d="M 221.591 643.466 L 227.273 643.466"/>
<path d="M 303.977 643.466 L 311.080 643.466"/>
<path d="M 326.705 643.466 L 332.386 643.466"/>
<path d="M 362.216 643.466 L 370.739 643.466"/>
<path d="M 397.727 643.466 L 404.830 643.466"/>
<path d="M 410.511 643.466 L 438.920 643.466"/>
<path d="M 440.341 643.466 L 448.864 643.466"/>
<path d="M 450.284 643.466 L 457.386 643.466"/>
<path d="M 465.909 643.466 L 475.852 643.466"/>
<path d="M 762.784 643.466 L 765.625 643.466"/>
<path d="M 937.500 643.466 L 940.341 643.466"/>
<path d="M 958.807 643.466 L 960.227 643.466"/>
<path d="M 110.795 647.727 L 116.477 647.727"/>
<path d="M 163.352 647.727 L 176.136 647.727"/>
<path d="M 194.602 647.727 L 197.443 647.727"/>
<path d="M 201.705 647.727 L 203.125 647.727"/>
<path d="M 258.523 647.727 L 259.943 647.727"/>
<path d="M 299.716 647.727 L 306.818 647.727"/>
<path d="M 329.545 647.727 L 332.386 647.727"/>
<path d="M 333.807 647.727 L 336.648 647.727"/>
<path d="M 356.534 647.727 L 372.159 647.727"/>
<path d="M 399.148 647.727 L 400.568 647.727"/>
<path d="M 403.409 647.727 L 406.250 647.727"/>
<path d="M 413.352 647.727 L 428.977 647.727"/>
<path d="M 431.818 647.727 L 437.500 647.727"/>
<path d="M 444.602 647.727 L 448.864 647.727"/>
<path d="M 451.705 647.727 L 457.386 647.727"/>
<path d="M 761.364 647.727 L 768.466 647.727"/>
<path d="M 897.727 647.727 L 901.989 647.727"/>
<path d="M 938.920 647.727 L 943.182 647.727"/>
<path d="M 119.318 651.989 L 122.159 651.989"/>
<path d="M 163.352 651.989 L 173.295 651.989"/>
<path d="M 267.045 651.989 L 275.568 651.989"/>
<path d="M 296.875 651.989 L 302.557 651.989"/>
<path d="M 330.966 651.989 L 339.489 651.989"/>
<path d="M 353.693 651.989 L 360.795 651.989"/>
<path d="M 363.636 651.989 L 365.057 651.989"/>
<path d="M 403.409 651.989 L 437.500 651.989"/>
<path d="M 438.920 651.989 L 457.386 651.989"/>
<path d="M 758.523 651.989 L 769.886 651.989"/>
<path d="M 894.886 651.989 L 909.091 651.989"/>
<path d="M 938.920 651.989 L 941.761 651.989"/>
<path d="M 272.727 656.250 L 279.830 656.250"/>
<path d="M 295.455 656.250 L 302.557 656.250"/>
<path d="M 338.068 656.250 L 342.330 656.250"/>
<path d="M 357.955 656.250 L 359.375 656.250"/>
<path d="M 360.795 656.250 L 365.057 656.250"/>
<path d="M 420.455 656.250 L 455.966 656.250"/>
<path d="M 752.841 656.250 L 767.045 656.250"/>
<path d="M 887.784 656.250 L 911.932 656.250"/>
<path d="M 937.500 656.250 L 941.761 656.250"/>
<path d="M 943.182 656.250 L 944.602 656.250"/>
<path d="M 960.227 656.250 L 961.648 656.250"/>
<path d="M 217.330 660.511 L 221.591 660.511"/>
<path d="M 278.409 660.511 L 279.830 660.511"/>
<path d="M 298.295 660.511 L 305.398 660.511"/>
<path d="M 340.909 660.511 L 343.750 660.511"/>
<path d="M 362.216 660.511 L 365.057 660.511"/>
<path d="M 383.523 660.511 L 384.943 660.511"/>
<path d="M 424.716 660.511 L 440.341 660.511"/>
<path d="M 444.602 660.511 L 446.023 660.511"/>
<path d="M 748.580 660.511 L 759.943 660.511"/>
<path d="M 889.205 660.511 L 890.625 660.511"/>
<path d="M 892.045 660.511 L 911.932 660.511"/>
<path d="M 931.818 660.511 L 938.920 660.511"/>
<path d="M 943.182 660.511 L 947.443 660.511"/>
<path d="M 950.284 660.511 L 951.705 660.511"/>
<path d="M 221.591 664.773 L 227.273 664.773"/>
<path d="M 279.830 664.773 L 284.091 664.773"/>
<path d="M 294.034 664.773 L 298.295 664.773"/>
<path d="M 301.136 664.773 L 305.398 664.773"/>
<path d="M 340.909 664.773 L 345.170 664.773"/>
<path d="M 367.898 664.773 L 370.739 664.773"/>
<path d="M 400.568 664.773 L 401.989 664.773"/>
<path d="M 744.318 664.773 L 757.102 664.773"/>
<path d="M 893.466 664.773 L 903.409 664.773"/>
<path d="M 907.670 664.773 L 909.091 664.773"/>
<path d="M 921.875 664.773 L 936.080 664.773"/>
<path d="M 944.602 664.773 L 950.284 664.773"/>
<path d="M 210.227 669.034 L 220.170 669.034"/>
<path d="M 230.114 669.034 L 234.375 669.034"/>
<path d="M 275.568 669.034 L 276.989 669.034"/>
<path d="M 279.830 669.034 L 285.511 669.034"/>
<path d="M 295.455 669.034 L 299.716 669.034"/>
<path d="M 303.977 669.034 L 311.080 669.034"/>
<path d="M 340.909 669.034 L 343.750 669.034"/>
<path d="M 373.580 669.034 L 375.000 669.034"/>
<path d="M 401.989 669.034 L 407.670 669.034"/>
<path d="M 896.307 669.034 L 897.727 669.034"/>
<path d="M 900.568 669.034 L 901.989 669.034"/>
<path d="M 917.614 669.034 L 920.455 669.034"/>
<path d="M 921.875 669.034 L 927.557 669.034"/>
<path d="M 184.659 673.295 L 191.761 673.295"/>
<path d="M 218.750 673.295 L 220.170 673.295"/>
<path d="M 221.591 673.295 L 228.693 673.295"/>
<path d="M 234.375 673.295 L 242.898 673.295"/>
<path d="M 282.670 673.295 L 286.932 673.295"/>
<path d="M 296.875 673.295 L 301.136 673.295"/>
<path d="M 306.818 673.295 L 315.341 673.295"/>
<path d="M 335.227 673.295 L 338.068 673.295"/>
<path d="M 377.841 673.295 L 379.261 673.295"/>
<path d="M 410.511 673.295 L 413.352 673.295"/>
<path d="M 909.091 673.295 L 920.455 673.295"/>
<path d="M 943.182 673.295 L 944.602 673.295"/>
<path d="M 951.705 673.295 L 955.966 673.295"/>
<path d="M 191.761 677.557 L 196.023 677.557"/>
<path d="M 200.284 677.557 L 201.705 677.557"/>
<path d="M 214.489 677.557 L 218.750 677.557"/>
<path d="M 220.170 677.557 L 223.011 677.557"/>
<path d="M 240.057 677.557 L 250.000 677.557"/>
<path d="M 285.511 677.557 L 289.773 677.557"/>
<path d="M 296.875 677.557 L 303.977 677.557"/>
<path d="M 309.659 677.557 L 312.500 677.557"/>
<path d="M 315.341 677.557 L 316.761 677.557"/>
<path d="M 322.443 677.557 L 326.705 677.557"/>
<path d="M 379.261 677.557 L 380.682 677.557"/>
<path d="M 413.352 677.557 L 416.193 677.557"/>
<path d="M 901.989 677.557 L 910.511 677.557"/>
<path d="M 911.932 677.557 L 914.773 677.557"/>
<path d="M 920.455 677.557 L 926.136 677.557"/>
<path d="M 946.023 677.557 L 953.125 677.557"/>
<path d="M 207.386 681.818 L 208.807 681.818"/>
<path d="M 218.750 681.818 L 240.057 681.818"/>
<path d="M 247.159 681.818 L 258.523 681.818"/>
<path d="M 271.307 681.818 L 272.727 681.818"/>
<path d="M 282.670 681.818 L 291.193 681.818"/>
<path d="M 299.716 681.818 L 306.818 681.818"/>
<path d="M 353.693 681.818 L 355.114 681.818"/>
<path d="M 379.261 681.818 L 380.682 681.818"/>
<path d="M 413.352 681.818 L 417.614 681.818"/>
<path d="M 894.886 681.818 L 909.091 681.818"/>
<path d="M 937.500 681.818 L 940.341 681.818"/>
<path d="M 946.023 681.818 L 951.705 681.818"/>
<path d="M 227.273 686.080 L 248.580 686.080"/>
<path d="M 254.261 686.080 L 262.784 686.080"/>
<path d="M 267.045 686.080 L 268.466 686.080"/>
<path d="M 279.830 686.080 L 281.250 686.080"/>
<path d="M 282.670 686.080 L 288.352 686.080"/>
<path d="M 299.716 686.080 L 308.239 686.080"/>
<path d="M 342.330 686.080 L 348.011 686.080"/>
<path d="M 349.432 686.080 L 350.852 686.080"/>
<path d="M 352.273 686.080 L 356.534 686.080"/>
<path d="M 411.932 686.080 L 419.034 686.080"/>
<path d="M 887.784 686.080 L 899.148 686.080"/>
<path d="M 941.761 686.080 L 950.284 686.080"/>
<path d="M 231.534 690.341 L 232.955 690.341"/>
<path d="M 250.000 690.341 L 255.682 690.341"/>
<path d="M 264.205 690.341 L 279.830 690.341"/>
<path d="M 301.136 690.341 L 309.659 690.341"/>
<path d="M 332.386 690.341 L 336.648 690.341"/>
<path d="M 413.352 690.341 L 419.034 690.341"/>
<path d="M 880.682 690.341 L 887.784 690.341"/>
<path d="M 921.875 690.341 L 924.716 690.341"/>
<path d="M 940.341 690.341 L 946.023 690.341"/>
<path d="M 259.943 694.602 L 262.784 694.602"/>
<path d="M 264.205 694.602 L 265.625 694.602"/>
<path d="M 272.727 694.602 L 276.989 694.602"/>
<path d="M 278.409 694.602 L 291.193 694.602"/>
<path d="M 301.136 694.602 L 311.080 694.602"/>
<path d="M 410.511 694.602 L 416.193 694.602"/>
<path d="M 870.739 694.602 L 872.159 694.602"/>
<path d="M 873.580 694.602 L 882.102 694.602"/>
<path d="M 914.773 694.602 L 916.193 694.602"/>
<path d="M 934.659 694.602 L 941.761 694.602"/>
<path d="M 268.466 698.864 L 276.989 698.864"/>
<path d="M 278.409 698.864 L 279.830 698.864"/>
<path d="M 284.091 698.864 L 289.773 698.864"/>
<path d="M 309.659 698.864 L 313.920 698.864"/>
<path d="M 411.932 698.864 L 414.773 698.864"/>
<path d="M 481.534 698.864 L 487.216 698.864"/>
<path d="M 859.375 698.864 L 865.057 698.864"/>
<path d="M 866.477 698.864 L 876.420 698.864"/>
<path d="M 930.398 698.864 L 934.659 698.864"/>
<path d="M 271.307 703.125 L 272.727 703.125"/>
<path d="M 278.409 703.125 L 288.352 703.125"/>
<path d="M 299.716 703.125 L 301.136 703.125"/>
<path d="M 312.500 703.125 L 315.341 703.125"/>
<path d="M 411.932 703.125 L 414.773 703.125"/>
<path d="M 850.852 703.125 L 857.955 703.125"/>
<path d="M 900.568 703.125 L 901.989 703.125"/>
<path d="M 921.875 703.125 L 927.557 703.125"/>
<path d="M 285.511 707.386 L 294.034 707.386"/>
<path d="M 299.716 707.386 L 306.818 707.386"/>
<path d="M 312.500 707.386 L 313.920 707.386"/>
<path d="M 836.648 707.386 L 840.909 707.386"/>
<path d="M 893.466 707.386 L 894.886 707.386"/>
<path d="M 913.352 707.386 L 920.455 707.386"/>
<path d="M 309.659 711.648 L 312.500 711.648"/>
<path d="M 826.705 711.648 L 828.125 711.648"/>
<path d="M 830.966 711.648 L 836.648 711.648"/>
<path d="M 886.364 711.648 L 887.784 711.648"/>
<path d="M 907.670 711.648 L 913.352 711.648"/>
<path d="M 230.114 715.909 L 231.534 715.909"/>
<path d="M 237.216 715.909 L 240.057 715.909"/>
<path d="M 359.375 715.909 L 369.318 715.909"/>
<path d="M 375.000 715.909 L 383.523 715.909"/>
<path d="M 818.182 715.909 L 823.864 715.909"/>
<path d="M 876.420 715.909 L 879.261 715.909"/>
<path d="M 896.307 715.909 L 904.830 715.909"/>
<path d="M 90.909 720.170 L 102.273 720.170"/>
<path d="M 228.693 720.170 L 238.636 720.170"/>
<path d="M 240.057 720.170 L 242.898 720.170"/>
<path d="M 247.159 720.170 L 250.000 720.170"/>
<path d="M 343.750 720.170 L 345.170 720.170"/>
<path d="M 349.432 720.170 L 350.852 720.170"/>
<path d="M 414.773 720.170 L 416.193 720.170"/>
<path d="M 809.659 720.170 L 818.182 720.170"/>
<path d="M 866.477 720.170 L 867.898 720.170"/>
<path d="M 889.205 720.170 L 896.307 720.170"/>
<path d="M 106.534 724.432 L 110.795 724.432"/>
<path d="M 221.591 724.432 L 224.432 724.432"/>
<path d="M 342.330 724.432 L 343.750 724.432"/>
<path d="M 416.193 724.432 L 417.614 724.432"/>
<path d="M 799.716 724.432 L 811.080 724.432"/>
<path d="M 857.955 724.432 L 859.375 724.432"/>
<path d="M 873.580 724.432 L 887.784 724.432"/>
<path d="M 336.648 728.693 L 338.068 728.693"/>
<path d="M 791.193 728.693 L 794.034 728.693"/>
<path d="M 795.455 728.693 L 796.875 728.693"/>
<path d="M 798.295 728.693 L 801.136 728.693"/>
<path d="M 802.557 728.693 L 805.398 728.693"/>
<path d="M 843.750 728.693 L 845.170 728.693"/>
<path d="M 866.477 728.693 L 869.318 728.693"/>
<path d="M 870.739 728.693 L 879.261 728.693"/>
<path d="M 323.864 732.955 L 329.545 732.955"/>
<path d="M 782.670 732.955 L 791.193 732.955"/>
<path d="M 792.614 732.955 L 795.455 732.955"/>
<path d="M 832.386 732.955 L 833.807 732.955"/>
<path d="M 853.693 732.955 L 867.898 732.955"/>
<path d="M 295.455 737.216 L 302.557 737.216"/>
<path d="M 303.977 737.216 L 309.659 737.216"/>
<path d="M 421.875 737.216 L 423.295 737.216"/>
<path d="M 771.307 737.216 L 778.409 737.216"/>
<path d="M 782.670 737.216 L 788.352 737.216"/>
<path d="M 842.330 737.216 L 856.534 737.216"/>
<path d="M 424.716 741.477 L 426.136 741.477"/>
<path d="M 761.364 741.477 L 769.886 741.477"/>
<path d="M 775.568 741.477 L 778.409 741.477"/>
<path d="M 833.807 741.477 L 842.330 741.477"/>
<path d="M 759.943 745.739 L 767.045 745.739"/>
<path d="M 806.818 745.739 L 808.239 745.739"/>
<path d="M 826.705 745.739 L 832.386 745.739"/>
<path d="M 218.750 750.000 L 220.170 750.000"/>
<path d="M 433.239 750.000 L 434.659 750.000"/>
<path d="M 759.943 750.000 L 764.205 750.000"/>
<path d="M 796.875 750.000 L 798.295 750.000"/>
<path d="M 816.761 750.000 L 822.443 750.000"/>
<path d="M 215.909 754.261 L 218.750 754.261"/>
<path d="M 438.920 754.261 L 441.761 754.261"/>
<path d="M 759.943 754.261 L 761.364 754.261"/>
<path d="M 809.659 754.261 L 812.500 754.261"/>
<path d="M 443.182 758.523 L 448.864 758.523"/>
<path d="M 759.943 758.523 L 762.784 758.523"/>
<path d="M 798.295 758.523 L 802.557 758.523"/>
<path d="M 474.432 762.784 L 477.273 762.784"/>
<path d="M 758.523 762.784 L 762.784 762.784"/>
<path d="M 782.670 762.784 L 784.091 762.784"/>
<path d="M 792.614 762.784 L 795.455 762.784"/>
<path d="M 482.955 767.045 L 485.795 767.045"/>
<path d="M 758.523 767.045 L 761.364 767.045"/>
<path d="M 779.830 767.045 L 786.932 767.045"/>
<path d="M 201.705 771.307 L 203.125 771.307"/>
<path d="M 501.420 771.307 L 505.682 771.307"/>
<path d="M 507.102 771.307 L 508.523 771.307"/>
<path d="M 191.761 775.568 L 193.182 775.568"/>
<path d="M 565.341 775.568 L 566.761 775.568"/>
<path d="M 180.398 779.830 L 181.818 779.830"/>
<path d="M 183.239 779.830 L 184.659 779.830"/>
<path d="M 755.682 779.830 L 757.102 779.830"/>
<path d="M 610.795 784.091 L 612.216 784.091"/>
<path d="M 754.261 784.091 L 757.102 784.091"/>
<path d="M 626.420 788.352 L 627.841 788.352"/>
<path d="M 752.841 788.352 L 754.261 788.352"/>
<path d="M 747.159 792.614 L 751.420 792.614"/>
<path d="M 774.148 796.875 L 775.568 796.875"/>
<path d="M 653.409 801.136 L 654.830 801.136"/>
<path d="M 771.307 801.136 L 774.148 801.136"/>
<path d="M 747.159 805.398 L 748.580 805.398"/>
<path d="M 745.739 813.920 L 747.159 813.920"/>
<path d="M 670.455 826.705 L 671.875 826.705"/>
<path d="M 676.136 835.227 L 677.557 835.227"/>
<path d="M 677.557 843.750 L 678.977 843.750"/>
<path d="M 751.420 852.273 L 752.841 852.273"/>
<path d="M 751.420 856.534 L 752.841 856.534"/>
<path d="M 751.420 860.795 L 752.841 860.795"/>
<path d="M 681.818 865.057 L 683.239 865.057"/>
<path d="M 738.636 877.841 L 745.739 877.841"/>
<path d="M 741.477 882.102 L 742.898 882.102"/>
<path d="M 724.432 886.364 L 744.318 886.364"/>
<path d="M 724.432 890.625 L 727.273 890.625"/>
<path d="M 728.693 890.625 L 742.898 890.625"/>
<path d="M 720.170 894.886 L 721.591 894.886"/>
<path d="M 723.011 894.886 L 727.273 894.886"/>
<path d="M 728.693 894.886 L 735.795 894.886"/>
<path d="M 740.057 894.886 L 742.898 894.886"/>
<path d="M 713.068 899.148 L 715.909 899.148"/>
<path d="M 732.955 899.148 L 738.636 899.148"/>
<path d="M 742.898 899.148 L 744.318 899.148"/>
<path d="M 715.909 903.409 L 735.795 903.409"/>
<path d="M 710.227 907.670 L 713.068 907.670"/>
<path d="M 715.909 907.670 L 727.273 907.670"/>
<path d="M 707.386 911.932 L 708.807 911.932"/>
<path d="M 725.852 911.932 L 727.273 911.932"/>
<path d="M 758.523 916.193 L 759.943 916.193"/>
<path d="M 752.841 920.455 L 754.261 920.455"/>
<path d="M 755.682 920.455 L 757.102 920.455"/>
<path d="M 747.159 924.716 L 748.580 924.716"/>
<path d="M 750.000 924.716 L 752.841 924.716"/>
<path d="M 740.057 928.977 L 744.318 928.977"/>
<path d="M 694.602 933.239 L 696.023 933.239"/>
<path d="M 730.114 933.239 L 737.216 933.239"/>
</g>
</svg>
