<?xml version="1.0" encoding="UTF-8"?>
<svg xmlns="http://www.w3.org/2000/svg" width="1000.000mm" height="944.602mm" viewBox="0 0 1000.000 944.602">
<metadata>HatchSmith © FIWAtec GmbH</metadata>
<rect x="0" y="0" width="100%" height="100%" fill="white"/>
<g id="09_layer_09" stroke="#E4DAE2" stroke-width="1.000" stroke-linecap="round" stroke-linejoin="round" fill="none">
<path d="M 680.398 98.011 L 681.818 98.011"/>
<path d="M 688.920 110.795 L 690.341 110.795"/>
<path d="M 504.261 115.057 L 505.682 115.057"/>
<path d="M 487.216 119.318 L 490.057 119.318"/>
<path d="M 501.420 119.318 L 509.943 119.318"/>
<path d="M 478.693 123.580 L 480.114 123.580"/>
<path d="M 491.477 123.580 L 492.898 123.580"/>
<path d="M 501.420 123.580 L 507.102 123.580"/>
<path d="M 477.273 127.841 L 478.693 127.841"/>
<path d="M 492.898 127.841 L 504.261 127.841"/>
<path d="M 455.966 132.102 L 457.386 132.102"/>
<path d="M 464.489 132.102 L 465.909 132.102"/>
<path d="M 480.114 132.102 L 484.375 132.102"/>
<path d="M 488.636 132.102 L 498.580 132.102"/>
<path d="M 463.068 136.364 L 464.489 136.364"/>
<path d="M 494.318 136.364 L 495.739 136.364"/>
<path d="M 495.739 140.625 L 497.159 140.625"/>
<path d="M 454.545 149.148 L 455.966 149.148"/>
<path d="M 467.330 149.148 L 468.750 149.148"/>
<path d="M 413.352 157.670 L 414.773 157.670"/>
<path d="M 404.830 161.932 L 407.670 161.932"/>
<path d="M 700.284 161.932 L 701.705 161.932"/>
<path d="M 480.114 170.455 L 485.795 170.455"/>
<path d="M 450.284 174.716 L 465.909 174.716"/>
<path d="M 470.170 174.716 L 481.534 174.716"/>
<path d="M 416.193 178.977 L 420.455 178.977"/>
<path d="M 430.398 178.977 L 433.239 178.977"/>
<path d="M 448.864 178.977 L 461.648 178.977"/>
<path d="M 468.750 178.977 L 478.693 178.977"/>
<path d="M 379.261 183.239 L 380.682 183.239"/>
<path d="M 411.932 183.239 L 416.193 183.239"/>
<path d="M 423.295 183.239 L 424.716 183.239"/>
<path d="M 447.443 183.239 L 451.705 183.239"/>
<path d="M 464.489 183.239 L 475.852 183.239"/>
<path d="M 382.102 187.500 L 383.523 187.500"/>
<path d="M 409.091 187.500 L 410.511 187.500"/>
<path d="M 417.614 187.500 L 419.034 187.500"/>
<path d="M 454.545 187.500 L 474.432 187.500"/>
<path d="M 384.943 191.761 L 386.364 191.761"/>
<path d="M 401.989 191.761 L 403.409 191.761"/>
<path d="M 413.352 191.761 L 416.193 191.761"/>
<path d="M 450.284 191.761 L 471.591 191.761"/>
<path d="M 413.352 196.023 L 414.773 196.023"/>
<path d="M 438.920 196.023 L 440.341 196.023"/>
<path d="M 446.023 196.023 L 455.966 196.023"/>
<path d="M 411.932 200.284 L 413.352 200.284"/>
<path d="M 434.659 200.284 L 438.920 200.284"/>
<path d="M 443.182 200.284 L 451.705 200.284"/>
<path d="M 463.068 200.284 L 465.909 200.284"/>
<path d="M 407.670 204.545 L 411.932 204.545"/>
<path d="M 433.239 204.545 L 434.659 204.545"/>
<path d="M 441.761 204.545 L 448.864 204.545"/>
<path d="M 455.966 204.545 L 468.750 204.545"/>
<path d="M 403.409 208.807 L 404.830 208.807"/>
<path d="M 430.398 208.807 L 436.080 208.807"/>
<path d="M 440.341 208.807 L 447.443 208.807"/>
<path d="M 453.125 208.807 L 465.909 208.807"/>
<path d="M 430.398 213.068 L 434.659 213.068"/>
<path d="M 438.920 213.068 L 443.182 213.068"/>
<path d="M 451.705 213.068 L 461.648 213.068"/>
<path d="M 700.284 213.068 L 701.705 213.068"/>
<path d="M 394.886 217.330 L 396.307 217.330"/>
<path d="M 428.977 217.330 L 433.239 217.330"/>
<path d="M 446.023 217.330 L 460.227 217.330"/>
<path d="M 427.557 221.591 L 428.977 221.591"/>
<path d="M 438.920 221.591 L 446.023 221.591"/>
<path d="M 454.545 221.591 L 455.966 221.591"/>
<path d="M 721.591 221.591 L 723.011 221.591"/>
<path d="M 389.205 225.852 L 390.625 225.852"/>
<path d="M 431.818 225.852 L 434.659 225.852"/>
<path d="M 438.920 225.852 L 440.341 225.852"/>
<path d="M 451.705 225.852 L 453.125 225.852"/>
<path d="M 383.523 230.114 L 387.784 230.114"/>
<path d="M 427.557 230.114 L 433.239 230.114"/>
<path d="M 443.182 230.114 L 444.602 230.114"/>
<path d="M 446.023 230.114 L 447.443 230.114"/>
<path d="M 455.966 230.114 L 460.227 230.114"/>
<path d="M 423.295 234.375 L 428.977 234.375"/>
<path d="M 434.659 234.375 L 436.080 234.375"/>
<path d="M 444.602 234.375 L 450.284 234.375"/>
<path d="M 454.545 234.375 L 461.648 234.375"/>
<path d="M 421.875 238.636 L 423.295 238.636"/>
<path d="M 428.977 238.636 L 430.398 238.636"/>
<path d="M 436.080 238.636 L 438.920 238.636"/>
<path d="M 454.545 238.636 L 457.386 238.636"/>
<path d="M 419.034 242.898 L 423.295 242.898"/>
<path d="M 424.716 242.898 L 426.136 242.898"/>
<path d="M 433.239 242.898 L 434.659 242.898"/>
<path d="M 450.284 242.898 L 453.125 242.898"/>
<path d="M 355.114 247.159 L 356.534 247.159"/>
<path d="M 417.614 247.159 L 424.716 247.159"/>
<path d="M 430.398 247.159 L 433.239 247.159"/>
<path d="M 441.761 247.159 L 444.602 247.159"/>
<path d="M 446.023 247.159 L 448.864 247.159"/>
<path d="M 352.273 251.420 L 355.114 251.420"/>
<path d="M 417.614 251.420 L 421.875 251.420"/>
<path d="M 355.114 255.682 L 356.534 255.682"/>
<path d="M 458.807 255.682 L 465.909 255.682"/>
<path d="M 353.693 259.943 L 356.534 259.943"/>
<path d="M 448.864 259.943 L 451.705 259.943"/>
<path d="M 465.909 259.943 L 471.591 259.943"/>
<path d="M 355.114 264.205 L 359.375 264.205"/>
<path d="M 443.182 264.205 L 450.284 264.205"/>
<path d="M 467.330 264.205 L 468.750 264.205"/>
<path d="M 353.693 268.466 L 355.114 268.466"/>
<path d="M 365.057 268.466 L 376.420 268.466"/>
<path d="M 428.977 268.466 L 436.080 268.466"/>
<path d="M 440.341 268.466 L 451.705 268.466"/>
<path d="M 463.068 268.466 L 464.489 268.466"/>
<path d="M 362.216 272.727 L 366.477 272.727"/>
<path d="M 367.898 272.727 L 373.580 272.727"/>
<path d="M 427.557 272.727 L 436.080 272.727"/>
<path d="M 440.341 272.727 L 441.761 272.727"/>
<path d="M 443.182 272.727 L 446.023 272.727"/>
<path d="M 349.432 276.989 L 350.852 276.989"/>
<path d="M 356.534 276.989 L 363.636 276.989"/>
<path d="M 424.716 276.989 L 431.818 276.989"/>
<path d="M 467.330 276.989 L 468.750 276.989"/>
<path d="M 759.943 276.989 L 761.364 276.989"/>
<path d="M 348.011 281.250 L 349.432 281.250"/>
<path d="M 355.114 281.250 L 359.375 281.250"/>
<path d="M 367.898 281.250 L 369.318 281.250"/>
<path d="M 421.875 281.250 L 427.557 281.250"/>
<path d="M 596.591 281.250 L 602.273 281.250"/>
<path d="M 607.955 281.250 L 609.375 281.250"/>
<path d="M 610.795 281.250 L 612.216 281.250"/>
<path d="M 348.011 285.511 L 350.852 285.511"/>
<path d="M 444.602 285.511 L 446.023 285.511"/>
<path d="M 448.864 285.511 L 450.284 285.511"/>
<path d="M 451.705 285.511 L 457.386 285.511"/>
<path d="M 519.886 285.511 L 521.307 285.511"/>
<path d="M 522.727 285.511 L 524.148 285.511"/>
<path d="M 600.852 285.511 L 603.693 285.511"/>
<path d="M 360.795 289.773 L 362.216 289.773"/>
<path d="M 363.636 289.773 L 366.477 289.773"/>
<path d="M 444.602 289.773 L 451.705 289.773"/>
<path d="M 467.330 289.773 L 468.750 289.773"/>
<path d="M 583.807 289.773 L 585.227 289.773"/>
<path d="M 357.955 294.034 L 367.898 294.034"/>
<path d="M 438.920 294.034 L 447.443 294.034"/>
<path d="M 457.386 294.034 L 460.227 294.034"/>
<path d="M 461.648 294.034 L 463.068 294.034"/>
<path d="M 518.466 294.034 L 519.886 294.034"/>
<path d="M 349.432 298.295 L 352.273 298.295"/>
<path d="M 357.955 298.295 L 366.477 298.295"/>
<path d="M 369.318 298.295 L 370.739 298.295"/>
<path d="M 447.443 298.295 L 454.545 298.295"/>
<path d="M 455.966 298.295 L 458.807 298.295"/>
<path d="M 517.045 298.295 L 519.886 298.295"/>
<path d="M 589.489 298.295 L 590.909 298.295"/>
<path d="M 352.273 302.557 L 353.693 302.557"/>
<path d="M 360.795 302.557 L 366.477 302.557"/>
<path d="M 370.739 302.557 L 372.159 302.557"/>
<path d="M 443.182 302.557 L 447.443 302.557"/>
<path d="M 508.523 302.557 L 511.364 302.557"/>
<path d="M 517.045 302.557 L 521.307 302.557"/>
<path d="M 595.170 302.557 L 596.591 302.557"/>
<path d="M 357.955 306.818 L 360.795 306.818"/>
<path d="M 362.216 306.818 L 363.636 306.818"/>
<path d="M 365.057 306.818 L 366.477 306.818"/>
<path d="M 443.182 306.818 L 446.023 306.818"/>
<path d="M 454.545 306.818 L 455.966 306.818"/>
<path d="M 504.261 306.818 L 514.205 306.818"/>
<path d="M 519.886 306.818 L 521.307 306.818"/>
<path d="M 727.273 306.818 L 728.693 306.818"/>
<path d="M 349.432 311.080 L 350.852 311.080"/>
<path d="M 359.375 311.080 L 363.636 311.080"/>
<path d="M 444.602 311.080 L 446.023 311.080"/>
<path d="M 508.523 311.080 L 509.943 311.080"/>
<path d="M 511.364 311.080 L 512.784 311.080"/>
<path d="M 521.307 311.080 L 524.148 311.080"/>
<path d="M 721.591 311.080 L 727.273 311.080"/>
<path d="M 360.795 315.341 L 363.636 315.341"/>
<path d="M 370.739 315.341 L 372.159 315.341"/>
<path d="M 514.205 315.341 L 525.568 315.341"/>
<path d="M 791.193 315.341 L 792.614 315.341"/>
<path d="M 355.114 319.602 L 356.534 319.602"/>
<path d="M 357.955 319.602 L 359.375 319.602"/>
<path d="M 360.795 319.602 L 363.636 319.602"/>
<path d="M 350.852 323.864 L 352.273 323.864"/>
<path d="M 356.534 323.864 L 359.375 323.864"/>
<path d="M 360.795 323.864 L 362.216 323.864"/>
<path d="M 366.477 323.864 L 367.898 323.864"/>
<path d="M 363.636 328.125 L 365.057 328.125"/>
<path d="M 356.534 332.386 L 357.955 332.386"/>
<path d="M 362.216 332.386 L 363.636 332.386"/>
<path d="M 788.352 332.386 L 789.773 332.386"/>
<path d="M 349.432 336.648 L 350.852 336.648"/>
<path d="M 572.443 340.909 L 573.864 340.909"/>
<path d="M 330.966 345.170 L 332.386 345.170"/>
<path d="M 335.227 345.170 L 339.489 345.170"/>
<path d="M 569.602 345.170 L 571.023 345.170"/>
<path d="M 778.409 345.170 L 779.830 345.170"/>
<path d="M 323.864 349.432 L 325.284 349.432"/>
<path d="M 332.386 349.432 L 333.807 349.432"/>
<path d="M 308.239 353.693 L 311.080 353.693"/>
<path d="M 312.500 353.693 L 313.920 353.693"/>
<path d="M 315.341 353.693 L 316.761 353.693"/>
<path d="M 563.920 353.693 L 565.341 353.693"/>
<path d="M 771.307 353.693 L 772.727 353.693"/>
<path d="M 811.080 353.693 L 812.500 353.693"/>
<path d="M 325.284 357.955 L 328.125 357.955"/>
<path d="M 775.568 357.955 L 776.989 357.955"/>
<path d="M 487.216 362.216 L 488.636 362.216"/>
<path d="M 772.727 362.216 L 774.148 362.216"/>
<path d="M 100.852 366.477 L 102.273 366.477"/>
<path d="M 279.830 366.477 L 281.250 366.477"/>
<path d="M 488.636 366.477 L 490.057 366.477"/>
<path d="M 231.534 370.739 L 232.955 370.739"/>
<path d="M 257.102 370.739 L 265.625 370.739"/>
<path d="M 795.455 370.739 L 796.875 370.739"/>
<path d="M 232.955 375.000 L 234.375 375.000"/>
<path d="M 235.795 375.000 L 237.216 375.000"/>
<path d="M 504.261 375.000 L 507.102 375.000"/>
<path d="M 481.534 379.261 L 482.955 379.261"/>
<path d="M 487.216 379.261 L 488.636 379.261"/>
<path d="M 109.375 383.523 L 110.795 383.523"/>
<path d="M 245.739 383.523 L 248.580 383.523"/>
<path d="M 109.375 387.784 L 110.795 387.784"/>
<path d="M 156.250 387.784 L 157.670 387.784"/>
<path d="M 160.511 387.784 L 163.352 387.784"/>
<path d="M 188.920 387.784 L 190.341 387.784"/>
<path d="M 191.761 387.784 L 193.182 387.784"/>
<path d="M 198.864 387.784 L 203.125 387.784"/>
<path d="M 480.114 387.784 L 482.955 387.784"/>
<path d="M 116.477 392.045 L 117.898 392.045"/>
<path d="M 201.705 392.045 L 204.545 392.045"/>
<path d="M 215.909 392.045 L 231.534 392.045"/>
<path d="M 481.534 392.045 L 484.375 392.045"/>
<path d="M 52.557 396.307 L 53.977 396.307"/>
<path d="M 169.034 396.307 L 170.455 396.307"/>
<path d="M 218.750 396.307 L 223.011 396.307"/>
<path d="M 265.625 396.307 L 271.307 396.307"/>
<path d="M 274.148 396.307 L 275.568 396.307"/>
<path d="M 481.534 396.307 L 482.955 396.307"/>
<path d="M 83.807 400.568 L 85.227 400.568"/>
<path d="M 133.523 400.568 L 134.943 400.568"/>
<path d="M 170.455 400.568 L 171.875 400.568"/>
<path d="M 180.398 400.568 L 181.818 400.568"/>
<path d="M 255.682 400.568 L 257.102 400.568"/>
<path d="M 258.523 400.568 L 265.625 400.568"/>
<path d="M 268.466 400.568 L 269.886 400.568"/>
<path d="M 274.148 400.568 L 275.568 400.568"/>
<path d="M 481.534 400.568 L 482.955 400.568"/>
<path d="M 89.489 404.830 L 90.909 404.830"/>
<path d="M 130.682 404.830 L 132.102 404.830"/>
<path d="M 173.295 404.830 L 176.136 404.830"/>
<path d="M 211.648 404.830 L 213.068 404.830"/>
<path d="M 214.489 404.830 L 220.170 404.830"/>
<path d="M 240.057 404.830 L 262.784 404.830"/>
<path d="M 480.114 404.830 L 481.534 404.830"/>
<path d="M 803.977 404.830 L 805.398 404.830"/>
<path d="M 45.455 409.091 L 46.875 409.091"/>
<path d="M 103.693 409.091 L 105.114 409.091"/>
<path d="M 127.841 409.091 L 132.102 409.091"/>
<path d="M 146.307 409.091 L 147.727 409.091"/>
<path d="M 177.557 409.091 L 186.080 409.091"/>
<path d="M 211.648 409.091 L 223.011 409.091"/>
<path d="M 228.693 409.091 L 242.898 409.091"/>
<path d="M 250.000 409.091 L 261.364 409.091"/>
<path d="M 262.784 409.091 L 267.045 409.091"/>
<path d="M 56.818 413.352 L 61.080 413.352"/>
<path d="M 144.886 413.352 L 147.727 413.352"/>
<path d="M 153.409 413.352 L 154.830 413.352"/>
<path d="M 173.295 413.352 L 174.716 413.352"/>
<path d="M 180.398 413.352 L 183.239 413.352"/>
<path d="M 186.080 413.352 L 187.500 413.352"/>
<path d="M 210.227 413.352 L 213.068 413.352"/>
<path d="M 230.114 413.352 L 241.477 413.352"/>
<path d="M 245.739 413.352 L 254.261 413.352"/>
<path d="M 264.205 413.352 L 265.625 413.352"/>
<path d="M 267.045 413.352 L 268.466 413.352"/>
<path d="M 107.955 417.614 L 109.375 417.614"/>
<path d="M 120.739 417.614 L 122.159 417.614"/>
<path d="M 146.307 417.614 L 149.148 417.614"/>
<path d="M 171.875 417.614 L 173.295 417.614"/>
<path d="M 198.864 417.614 L 200.284 417.614"/>
<path d="M 203.125 417.614 L 204.545 417.614"/>
<path d="M 240.057 417.614 L 258.523 417.614"/>
<path d="M 268.466 417.614 L 269.886 417.614"/>
<path d="M 271.307 417.614 L 272.727 417.614"/>
<path d="M 471.591 417.614 L 473.011 417.614"/>
<path d="M 806.818 417.614 L 808.239 417.614"/>
<path d="M 120.739 421.875 L 122.159 421.875"/>
<path d="M 133.523 421.875 L 134.943 421.875"/>
<path d="M 136.364 421.875 L 140.625 421.875"/>
<path d="M 146.307 421.875 L 149.148 421.875"/>
<path d="M 171.875 421.875 L 181.818 421.875"/>
<path d="M 247.159 421.875 L 257.102 421.875"/>
<path d="M 86.648 426.136 L 88.068 426.136"/>
<path d="M 109.375 426.136 L 112.216 426.136"/>
<path d="M 127.841 426.136 L 129.261 426.136"/>
<path d="M 130.682 426.136 L 143.466 426.136"/>
<path d="M 154.830 426.136 L 156.250 426.136"/>
<path d="M 177.557 426.136 L 184.659 426.136"/>
<path d="M 250.000 426.136 L 252.841 426.136"/>
<path d="M 26.989 430.398 L 28.409 430.398"/>
<path d="M 92.330 430.398 L 93.750 430.398"/>
<path d="M 96.591 430.398 L 98.011 430.398"/>
<path d="M 107.955 430.398 L 110.795 430.398"/>
<path d="M 112.216 430.398 L 116.477 430.398"/>
<path d="M 159.091 430.398 L 170.455 430.398"/>
<path d="M 184.659 430.398 L 186.080 430.398"/>
<path d="M 188.920 430.398 L 190.341 430.398"/>
<path d="M 573.864 430.398 L 575.284 430.398"/>
<path d="M 110.795 434.659 L 113.636 434.659"/>
<path d="M 161.932 434.659 L 164.773 434.659"/>
<path d="M 112.216 438.920 L 116.477 438.920"/>
<path d="M 132.102 438.920 L 151.989 438.920"/>
<path d="M 207.386 438.920 L 211.648 438.920"/>
<path d="M 224.432 438.920 L 225.852 438.920"/>
<path d="M 105.114 443.182 L 106.534 443.182"/>
<path d="M 126.420 443.182 L 132.102 443.182"/>
<path d="M 150.568 443.182 L 156.250 443.182"/>
<path d="M 204.545 443.182 L 215.909 443.182"/>
<path d="M 223.011 443.182 L 227.273 443.182"/>
<path d="M 497.159 443.182 L 500.000 443.182"/>
<path d="M 59.659 447.443 L 61.080 447.443"/>
<path d="M 85.227 447.443 L 93.750 447.443"/>
<path d="M 95.170 447.443 L 100.852 447.443"/>
<path d="M 130.682 447.443 L 134.943 447.443"/>
<path d="M 150.568 447.443 L 156.250 447.443"/>
<path d="M 205.966 447.443 L 210.227 447.443"/>
<path d="M 213.068 447.443 L 217.330 447.443"/>
<path d="M 223.011 447.443 L 230.114 447.443"/>
<path d="M 241.477 447.443 L 247.159 447.443"/>
<path d="M 463.068 447.443 L 464.489 447.443"/>
<path d="M 494.318 447.443 L 495.739 447.443"/>
<path d="M 501.420 447.443 L 502.841 447.443"/>
<path d="M 96.591 451.705 L 100.852 451.705"/>
<path d="M 102.273 451.705 L 105.114 451.705"/>
<path d="M 120.739 451.705 L 123.580 451.705"/>
<path d="M 126.420 451.705 L 130.682 451.705"/>
<path d="M 134.943 451.705 L 137.784 451.705"/>
<path d="M 147.727 451.705 L 150.568 451.705"/>
<path d="M 208.807 451.705 L 214.489 451.705"/>
<path d="M 220.170 451.705 L 225.852 451.705"/>
<path d="M 238.636 451.705 L 242.898 451.705"/>
<path d="M 245.739 451.705 L 247.159 451.705"/>
<path d="M 129.261 455.966 L 132.102 455.966"/>
<path d="M 136.364 455.966 L 140.625 455.966"/>
<path d="M 167.614 455.966 L 177.557 455.966"/>
<path d="M 204.545 455.966 L 213.068 455.966"/>
<path d="M 218.750 455.966 L 224.432 455.966"/>
<path d="M 238.636 455.966 L 241.477 455.966"/>
<path d="M 63.920 460.227 L 65.341 460.227"/>
<path d="M 130.682 460.227 L 132.102 460.227"/>
<path d="M 163.352 460.227 L 178.977 460.227"/>
<path d="M 72.443 464.489 L 73.864 464.489"/>
<path d="M 110.795 464.489 L 115.057 464.489"/>
<path d="M 159.091 464.489 L 166.193 464.489"/>
<path d="M 167.614 464.489 L 171.875 464.489"/>
<path d="M 173.295 464.489 L 178.977 464.489"/>
<path d="M 471.591 464.489 L 473.011 464.489"/>
<path d="M 475.852 464.489 L 478.693 464.489"/>
<path d="M 575.284 464.489 L 578.125 464.489"/>
<path d="M 585.227 464.489 L 586.648 464.489"/>
<path d="M 117.898 468.750 L 119.318 468.750"/>
<path d="M 120.739 468.750 L 126.420 468.750"/>
<path d="M 161.932 468.750 L 178.977 468.750"/>
<path d="M 453.125 468.750 L 454.545 468.750"/>
<path d="M 471.591 468.750 L 474.432 468.750"/>
<path d="M 573.864 468.750 L 575.284 468.750"/>
<path d="M 580.966 468.750 L 583.807 468.750"/>
<path d="M 80.966 473.011 L 82.386 473.011"/>
<path d="M 150.568 473.011 L 153.409 473.011"/>
<path d="M 169.034 473.011 L 177.557 473.011"/>
<path d="M 447.443 473.011 L 450.284 473.011"/>
<path d="M 576.705 473.011 L 579.545 473.011"/>
<path d="M 156.250 477.273 L 157.670 477.273"/>
<path d="M 450.284 477.273 L 451.705 477.273"/>
<path d="M 545.455 477.273 L 546.875 477.273"/>
<path d="M 548.295 477.273 L 551.136 477.273"/>
<path d="M 552.557 477.273 L 553.977 477.273"/>
<path d="M 86.648 481.534 L 88.068 481.534"/>
<path d="M 96.591 481.534 L 98.011 481.534"/>
<path d="M 103.693 481.534 L 105.114 481.534"/>
<path d="M 109.375 481.534 L 113.636 481.534"/>
<path d="M 56.818 485.795 L 58.239 485.795"/>
<path d="M 86.648 485.795 L 88.068 485.795"/>
<path d="M 95.170 485.795 L 98.011 485.795"/>
<path d="M 112.216 485.795 L 115.057 485.795"/>
<path d="M 92.330 490.057 L 95.170 490.057"/>
<path d="M 107.955 490.057 L 109.375 490.057"/>
<path d="M 80.966 494.318 L 82.386 494.318"/>
<path d="M 105.114 494.318 L 106.534 494.318"/>
<path d="M 103.693 498.580 L 105.114 498.580"/>
<path d="M 115.057 498.580 L 116.477 498.580"/>
<path d="M 119.318 498.580 L 120.739 498.580"/>
<path d="M 485.795 498.580 L 487.216 498.580"/>
<path d="M 82.386 502.841 L 83.807 502.841"/>
<path d="M 102.273 502.841 L 103.693 502.841"/>
<path d="M 116.477 502.841 L 117.898 502.841"/>
<path d="M 819.602 502.841 L 821.023 502.841"/>
<path d="M 99.432 507.102 L 100.852 507.102"/>
<path d="M 85.227 511.364 L 86.648 511.364"/>
<path d="M 89.489 515.625 L 90.909 515.625"/>
<path d="M 751.420 515.625 L 752.841 515.625"/>
<path d="M 90.909 519.886 L 92.330 519.886"/>
<path d="M 421.875 519.886 L 423.295 519.886"/>
<path d="M 840.909 519.886 L 842.330 519.886"/>
<path d="M 98.011 524.148 L 99.432 524.148"/>
<path d="M 193.182 524.148 L 198.864 524.148"/>
<path d="M 95.170 528.409 L 98.011 528.409"/>
<path d="M 410.511 528.409 L 416.193 528.409"/>
<path d="M 98.011 532.670 L 99.432 532.670"/>
<path d="M 156.250 532.670 L 160.511 532.670"/>
<path d="M 414.773 532.670 L 417.614 532.670"/>
<path d="M 99.432 536.932 L 100.852 536.932"/>
<path d="M 154.830 536.932 L 159.091 536.932"/>
<path d="M 367.898 536.932 L 369.318 536.932"/>
<path d="M 100.852 541.193 L 102.273 541.193"/>
<path d="M 365.057 541.193 L 366.477 541.193"/>
<path d="M 373.580 541.193 L 376.420 541.193"/>
<path d="M 377.841 541.193 L 380.682 541.193"/>
<path d="M 393.466 541.193 L 396.307 541.193"/>
<path d="M 480.114 545.455 L 482.955 545.455"/>
<path d="M 107.955 549.716 L 109.375 549.716"/>
<path d="M 122.159 549.716 L 126.420 549.716"/>
<path d="M 127.841 549.716 L 130.682 549.716"/>
<path d="M 403.409 549.716 L 404.830 549.716"/>
<path d="M 480.114 549.716 L 485.795 549.716"/>
<path d="M 112.216 553.977 L 134.943 553.977"/>
<path d="M 251.420 553.977 L 254.261 553.977"/>
<path d="M 255.682 553.977 L 262.784 553.977"/>
<path d="M 400.568 553.977 L 407.670 553.977"/>
<path d="M 480.114 553.977 L 482.955 553.977"/>
<path d="M 109.375 558.239 L 119.318 558.239"/>
<path d="M 120.739 558.239 L 125.000 558.239"/>
<path d="M 250.000 558.239 L 259.943 558.239"/>
<path d="M 274.148 558.239 L 276.989 558.239"/>
<path d="M 401.989 558.239 L 403.409 558.239"/>
<path d="M 406.250 558.239 L 409.091 558.239"/>
<path d="M 478.693 558.239 L 484.375 558.239"/>
<path d="M 485.795 558.239 L 490.057 558.239"/>
<path d="M 99.432 562.500 L 100.852 562.500"/>
<path d="M 250.000 562.500 L 251.420 562.500"/>
<path d="M 252.841 562.500 L 255.682 562.500"/>
<path d="M 258.523 562.500 L 262.784 562.500"/>
<path d="M 265.625 562.500 L 271.307 562.500"/>
<path d="M 369.318 562.500 L 370.739 562.500"/>
<path d="M 400.568 562.500 L 406.250 562.500"/>
<path d="M 407.670 562.500 L 411.932 562.500"/>
<path d="M 413.352 562.500 L 414.773 562.500"/>
<path d="M 443.182 562.500 L 444.602 562.500"/>
<path d="M 463.068 562.500 L 464.489 562.500"/>
<path d="M 467.330 562.500 L 473.011 562.500"/>
<path d="M 480.114 562.500 L 500.000 562.500"/>
<path d="M 100.852 566.761 L 102.273 566.761"/>
<path d="M 250.000 566.761 L 271.307 566.761"/>
<path d="M 360.795 566.761 L 377.841 566.761"/>
<path d="M 393.466 566.761 L 397.727 566.761"/>
<path d="M 400.568 566.761 L 403.409 566.761"/>
<path d="M 404.830 566.761 L 406.250 566.761"/>
<path d="M 437.500 566.761 L 440.341 566.761"/>
<path d="M 448.864 566.761 L 454.545 566.761"/>
<path d="M 455.966 566.761 L 463.068 566.761"/>
<path d="M 464.489 566.761 L 501.420 566.761"/>
<path d="M 100.852 571.023 L 102.273 571.023"/>
<path d="M 250.000 571.023 L 265.625 571.023"/>
<path d="M 359.375 571.023 L 360.795 571.023"/>
<path d="M 363.636 571.023 L 376.420 571.023"/>
<path d="M 377.841 571.023 L 386.364 571.023"/>
<path d="M 393.466 571.023 L 401.989 571.023"/>
<path d="M 406.250 571.023 L 407.670 571.023"/>
<path d="M 424.716 571.023 L 426.136 571.023"/>
<path d="M 437.500 571.023 L 443.182 571.023"/>
<path d="M 446.023 571.023 L 454.545 571.023"/>
<path d="M 455.966 571.023 L 458.807 571.023"/>
<path d="M 502.841 571.023 L 505.682 571.023"/>
<path d="M 120.739 575.284 L 122.159 575.284"/>
<path d="M 125.000 575.284 L 129.261 575.284"/>
<path d="M 360.795 575.284 L 372.159 575.284"/>
<path d="M 373.580 575.284 L 375.000 575.284"/>
<path d="M 376.420 575.284 L 380.682 575.284"/>
<path d="M 382.102 575.284 L 383.523 575.284"/>
<path d="M 386.364 575.284 L 392.045 575.284"/>
<path d="M 393.466 575.284 L 404.830 575.284"/>
<path d="M 409.091 575.284 L 410.511 575.284"/>
<path d="M 419.034 575.284 L 420.455 575.284"/>
<path d="M 436.080 575.284 L 437.500 575.284"/>
<path d="M 440.341 575.284 L 447.443 575.284"/>
<path d="M 450.284 575.284 L 451.705 575.284"/>
<path d="M 454.545 575.284 L 474.432 575.284"/>
<path d="M 478.693 575.284 L 480.114 575.284"/>
<path d="M 126.420 579.545 L 129.261 579.545"/>
<path d="M 139.205 579.545 L 143.466 579.545"/>
<path d="M 360.795 579.545 L 363.636 579.545"/>
<path d="M 375.000 579.545 L 376.420 579.545"/>
<path d="M 389.205 579.545 L 392.045 579.545"/>
<path d="M 394.886 579.545 L 414.773 579.545"/>
<path d="M 455.966 579.545 L 457.386 579.545"/>
<path d="M 463.068 579.545 L 507.102 579.545"/>
<path d="M 132.102 583.807 L 136.364 583.807"/>
<path d="M 139.205 583.807 L 142.045 583.807"/>
<path d="M 247.159 583.807 L 251.420 583.807"/>
<path d="M 390.625 583.807 L 403.409 583.807"/>
<path d="M 411.932 583.807 L 414.773 583.807"/>
<path d="M 434.659 583.807 L 436.080 583.807"/>
<path d="M 482.955 583.807 L 487.216 583.807"/>
<path d="M 495.739 583.807 L 507.102 583.807"/>
<path d="M 132.102 588.068 L 139.205 588.068"/>
<path d="M 404.830 588.068 L 407.670 588.068"/>
<path d="M 409.091 588.068 L 411.932 588.068"/>
<path d="M 463.068 588.068 L 464.489 588.068"/>
<path d="M 465.909 588.068 L 467.330 588.068"/>
<path d="M 502.841 588.068 L 514.205 588.068"/>
<path d="M 132.102 592.330 L 136.364 592.330"/>
<path d="M 411.932 592.330 L 413.352 592.330"/>
<path d="M 414.773 592.330 L 421.875 592.330"/>
<path d="M 502.841 592.330 L 504.261 592.330"/>
<path d="M 507.102 592.330 L 514.205 592.330"/>
<path d="M 917.614 592.330 L 919.034 592.330"/>
<path d="M 940.341 592.330 L 941.761 592.330"/>
<path d="M 127.841 596.591 L 130.682 596.591"/>
<path d="M 132.102 596.591 L 139.205 596.591"/>
<path d="M 140.625 596.591 L 142.045 596.591"/>
<path d="M 143.466 596.591 L 146.307 596.591"/>
<path d="M 420.455 596.591 L 421.875 596.591"/>
<path d="M 423.295 596.591 L 424.716 596.591"/>
<path d="M 463.068 596.591 L 465.909 596.591"/>
<path d="M 478.693 596.591 L 480.114 596.591"/>
<path d="M 482.955 596.591 L 484.375 596.591"/>
<path d="M 487.216 596.591 L 488.636 596.591"/>
<path d="M 507.102 596.591 L 511.364 596.591"/>
<path d="M 109.375 600.852 L 110.795 600.852"/>
<path d="M 423.295 600.852 L 430.398 600.852"/>
<path d="M 444.602 600.852 L 453.125 600.852"/>
<path d="M 475.852 600.852 L 480.114 600.852"/>
<path d="M 490.057 600.852 L 494.318 600.852"/>
<path d="M 507.102 600.852 L 525.568 600.852"/>
<path d="M 417.614 605.114 L 419.034 605.114"/>
<path d="M 424.716 605.114 L 433.239 605.114"/>
<path d="M 450.284 605.114 L 464.489 605.114"/>
<path d="M 465.909 605.114 L 468.750 605.114"/>
<path d="M 470.170 605.114 L 471.591 605.114"/>
<path d="M 473.011 605.114 L 475.852 605.114"/>
<path d="M 477.273 605.114 L 491.477 605.114"/>
<path d="M 509.943 605.114 L 526.989 605.114"/>
<path d="M 132.102 609.375 L 133.523 609.375"/>
<path d="M 428.977 609.375 L 431.818 609.375"/>
<path d="M 441.761 609.375 L 446.023 609.375"/>
<path d="M 461.648 609.375 L 478.693 609.375"/>
<path d="M 511.364 609.375 L 521.307 609.375"/>
<path d="M 524.148 609.375 L 525.568 609.375"/>
<path d="M 221.591 613.636 L 223.011 613.636"/>
<path d="M 224.432 613.636 L 230.114 613.636"/>
<path d="M 231.534 613.636 L 240.057 613.636"/>
<path d="M 468.750 613.636 L 480.114 613.636"/>
<path d="M 482.955 613.636 L 485.795 613.636"/>
<path d="M 491.477 613.636 L 494.318 613.636"/>
<path d="M 497.159 613.636 L 500.000 613.636"/>
<path d="M 504.261 613.636 L 507.102 613.636"/>
<path d="M 511.364 613.636 L 521.307 613.636"/>
<path d="M 223.011 617.898 L 247.159 617.898"/>
<path d="M 470.170 617.898 L 481.534 617.898"/>
<path d="M 482.955 617.898 L 490.057 617.898"/>
<path d="M 492.898 617.898 L 494.318 617.898"/>
<path d="M 505.682 617.898 L 517.045 617.898"/>
<path d="M 930.398 617.898 L 931.818 617.898"/>
<path d="M 950.284 617.898 L 951.705 617.898"/>
<path d="M 223.011 622.159 L 244.318 622.159"/>
<path d="M 393.466 622.159 L 394.886 622.159"/>
<path d="M 475.852 622.159 L 477.273 622.159"/>
<path d="M 478.693 622.159 L 495.739 622.159"/>
<path d="M 501.420 622.159 L 505.682 622.159"/>
<path d="M 509.943 622.159 L 514.205 622.159"/>
<path d="M 933.239 622.159 L 934.659 622.159"/>
<path d="M 951.705 622.159 L 953.125 622.159"/>
<path d="M 115.057 626.420 L 117.898 626.420"/>
<path d="M 223.011 626.420 L 238.636 626.420"/>
<path d="M 241.477 626.420 L 244.318 626.420"/>
<path d="M 382.102 626.420 L 383.523 626.420"/>
<path d="M 384.943 626.420 L 386.364 626.420"/>
<path d="M 471.591 626.420 L 473.011 626.420"/>
<path d="M 474.432 626.420 L 488.636 626.420"/>
<path d="M 498.580 626.420 L 500.000 626.420"/>
<path d="M 930.398 626.420 L 931.818 626.420"/>
<path d="M 218.750 630.682 L 231.534 630.682"/>
<path d="M 234.375 630.682 L 238.636 630.682"/>
<path d="M 380.682 630.682 L 383.523 630.682"/>
<path d="M 387.784 630.682 L 389.205 630.682"/>
<path d="M 416.193 630.682 L 420.455 630.682"/>
<path d="M 474.432 630.682 L 490.057 630.682"/>
<path d="M 502.841 630.682 L 507.102 630.682"/>
<path d="M 123.580 634.943 L 125.000 634.943"/>
<path d="M 214.489 634.943 L 232.955 634.943"/>
<path d="M 234.375 634.943 L 235.795 634.943"/>
<path d="M 380.682 634.943 L 383.523 634.943"/>
<path d="M 386.364 634.943 L 389.205 634.943"/>
<path d="M 423.295 634.943 L 434.659 634.943"/>
<path d="M 478.693 634.943 L 482.955 634.943"/>
<path d="M 938.920 634.943 L 940.341 634.943"/>
<path d="M 943.182 634.943 L 944.602 634.943"/>
<path d="M 125.000 639.205 L 126.420 639.205"/>
<path d="M 204.545 639.205 L 208.807 639.205"/>
<path d="M 211.648 639.205 L 220.170 639.205"/>
<path d="M 221.591 639.205 L 228.693 639.205"/>
<path d="M 379.261 639.205 L 380.682 639.205"/>
<path d="M 383.523 639.205 L 386.364 639.205"/>
<path d="M 390.625 639.205 L 393.466 639.205"/>
<path d="M 397.727 639.205 L 399.148 639.205"/>
<path d="M 423.295 639.205 L 424.716 639.205"/>
<path d="M 433.239 639.205 L 434.659 639.205"/>
<path d="M 468.750 639.205 L 470.170 639.205"/>
<path d="M 941.761 639.205 L 943.182 639.205"/>
<path d="M 133.523 643.466 L 134.943 643.466"/>
<path d="M 204.545 643.466 L 214.489 643.466"/>
<path d="M 217.330 643.466 L 221.591 643.466"/>
<path d="M 227.273 643.466 L 228.693 643.466"/>
<path d="M 311.080 643.466 L 326.705 643.466"/>
<path d="M 370.739 643.466 L 373.580 643.466"/>
<path d="M 438.920 643.466 L 440.341 643.466"/>
<path d="M 458.807 643.466 L 465.909 643.466"/>
<path d="M 947.443 643.466 L 948.864 643.466"/>
<path d="M 251.420 647.727 L 258.523 647.727"/>
<path d="M 306.818 647.727 L 329.545 647.727"/>
<path d="M 332.386 647.727 L 333.807 647.727"/>
<path d="M 372.159 647.727 L 373.580 647.727"/>
<path d="M 400.568 647.727 L 403.409 647.727"/>
<path d="M 468.750 647.727 L 470.170 647.727"/>
<path d="M 117.898 651.989 L 119.318 651.989"/>
<path d="M 250.000 651.989 L 267.045 651.989"/>
<path d="M 302.557 651.989 L 311.080 651.989"/>
<path d="M 323.864 651.989 L 328.125 651.989"/>
<path d="M 329.545 651.989 L 330.966 651.989"/>
<path d="M 360.795 651.989 L 363.636 651.989"/>
<path d="M 365.057 651.989 L 367.898 651.989"/>
<path d="M 369.318 651.989 L 372.159 651.989"/>
<path d="M 399.148 651.989 L 403.409 651.989"/>
<path d="M 457.386 651.989 L 460.227 651.989"/>
<path d="M 941.761 651.989 L 943.182 651.989"/>
<path d="M 120.739 656.250 L 125.000 656.250"/>
<path d="M 252.841 656.250 L 259.943 656.250"/>
<path d="M 262.784 656.250 L 272.727 656.250"/>
<path d="M 302.557 656.250 L 308.239 656.250"/>
<path d="M 329.545 656.250 L 338.068 656.250"/>
<path d="M 359.375 656.250 L 360.795 656.250"/>
<path d="M 396.307 656.250 L 401.989 656.250"/>
<path d="M 407.670 656.250 L 409.091 656.250"/>
<path d="M 410.511 656.250 L 420.455 656.250"/>
<path d="M 941.761 656.250 L 943.182 656.250"/>
<path d="M 944.602 656.250 L 946.023 656.250"/>
<path d="M 957.386 656.250 L 958.807 656.250"/>
<path d="M 117.898 660.511 L 119.318 660.511"/>
<path d="M 262.784 660.511 L 278.409 660.511"/>
<path d="M 309.659 660.511 L 313.920 660.511"/>
<path d="M 315.341 660.511 L 318.182 660.511"/>
<path d="M 338.068 660.511 L 340.909 660.511"/>
<path d="M 359.375 660.511 L 362.216 660.511"/>
<path d="M 365.057 660.511 L 366.477 660.511"/>
<path d="M 394.886 660.511 L 400.568 660.511"/>
<path d="M 938.920 660.511 L 941.761 660.511"/>
<path d="M 951.705 660.511 L 953.125 660.511"/>
<path d="M 960.227 660.511 L 961.648 660.511"/>
<path d="M 205.966 664.773 L 214.489 664.773"/>
<path d="M 264.205 664.773 L 279.830 664.773"/>
<path d="M 336.648 664.773 L 340.909 664.773"/>
<path d="M 345.170 664.773 L 346.591 664.773"/>
<path d="M 392.045 664.773 L 393.466 664.773"/>
<path d="M 399.148 664.773 L 400.568 664.773"/>
<path d="M 936.080 664.773 L 937.500 664.773"/>
<path d="M 183.239 669.034 L 184.659 669.034"/>
<path d="M 251.420 669.034 L 259.943 669.034"/>
<path d="M 265.625 669.034 L 275.568 669.034"/>
<path d="M 276.989 669.034 L 279.830 669.034"/>
<path d="M 335.227 669.034 L 340.909 669.034"/>
<path d="M 343.750 669.034 L 345.170 669.034"/>
<path d="M 370.739 669.034 L 373.580 669.034"/>
<path d="M 400.568 669.034 L 401.989 669.034"/>
<path d="M 409.091 669.034 L 410.511 669.034"/>
<path d="M 920.455 669.034 L 921.875 669.034"/>
<path d="M 927.557 669.034 L 936.080 669.034"/>
<path d="M 941.761 669.034 L 946.023 669.034"/>
<path d="M 173.295 673.295 L 184.659 673.295"/>
<path d="M 242.898 673.295 L 244.318 673.295"/>
<path d="M 251.420 673.295 L 265.625 673.295"/>
<path d="M 268.466 673.295 L 272.727 673.295"/>
<path d="M 278.409 673.295 L 282.670 673.295"/>
<path d="M 286.932 673.295 L 288.352 673.295"/>
<path d="M 301.136 673.295 L 302.557 673.295"/>
<path d="M 315.341 673.295 L 316.761 673.295"/>
<path d="M 325.284 673.295 L 335.227 673.295"/>
<path d="M 338.068 673.295 L 343.750 673.295"/>
<path d="M 376.420 673.295 L 377.841 673.295"/>
<path d="M 379.261 673.295 L 380.682 673.295"/>
<path d="M 403.409 673.295 L 410.511 673.295"/>
<path d="M 920.455 673.295 L 924.716 673.295"/>
<path d="M 955.966 673.295 L 957.386 673.295"/>
<path d="M 100.852 677.557 L 102.273 677.557"/>
<path d="M 154.830 677.557 L 173.295 677.557"/>
<path d="M 201.705 677.557 L 203.125 677.557"/>
<path d="M 250.000 677.557 L 251.420 677.557"/>
<path d="M 258.523 677.557 L 264.205 677.557"/>
<path d="M 269.886 677.557 L 272.727 677.557"/>
<path d="M 284.091 677.557 L 285.511 677.557"/>
<path d="M 312.500 677.557 L 315.341 677.557"/>
<path d="M 316.761 677.557 L 322.443 677.557"/>
<path d="M 326.705 677.557 L 330.966 677.557"/>
<path d="M 410.511 677.557 L 413.352 677.557"/>
<path d="M 910.511 677.557 L 911.932 677.557"/>
<path d="M 914.773 677.557 L 920.455 677.557"/>
<path d="M 927.557 677.557 L 928.977 677.557"/>
<path d="M 931.818 677.557 L 933.239 677.557"/>
<path d="M 115.057 681.818 L 117.898 681.818"/>
<path d="M 126.420 681.818 L 127.841 681.818"/>
<path d="M 150.568 681.818 L 153.409 681.818"/>
<path d="M 205.966 681.818 L 207.386 681.818"/>
<path d="M 208.807 681.818 L 210.227 681.818"/>
<path d="M 272.727 681.818 L 274.148 681.818"/>
<path d="M 322.443 681.818 L 323.864 681.818"/>
<path d="M 348.011 681.818 L 353.693 681.818"/>
<path d="M 380.682 681.818 L 382.102 681.818"/>
<path d="M 411.932 681.818 L 413.352 681.818"/>
<path d="M 909.091 681.818 L 916.193 681.818"/>
<path d="M 921.875 681.818 L 930.398 681.818"/>
<path d="M 931.818 681.818 L 933.239 681.818"/>
<path d="M 951.705 681.818 L 953.125 681.818"/>
<path d="M 109.375 686.080 L 112.216 686.080"/>
<path d="M 136.364 686.080 L 137.784 686.080"/>
<path d="M 262.784 686.080 L 267.045 686.080"/>
<path d="M 281.250 686.080 L 282.670 686.080"/>
<path d="M 333.807 686.080 L 342.330 686.080"/>
<path d="M 348.011 686.080 L 349.432 686.080"/>
<path d="M 356.534 686.080 L 359.375 686.080"/>
<path d="M 377.841 686.080 L 380.682 686.080"/>
<path d="M 410.511 686.080 L 411.932 686.080"/>
<path d="M 899.148 686.080 L 904.830 686.080"/>
<path d="M 916.193 686.080 L 917.614 686.080"/>
<path d="M 924.716 686.080 L 926.136 686.080"/>
<path d="M 147.727 690.341 L 149.148 690.341"/>
<path d="M 336.648 690.341 L 338.068 690.341"/>
<path d="M 356.534 690.341 L 359.375 690.341"/>
<path d="M 370.739 690.341 L 376.420 690.341"/>
<path d="M 411.932 690.341 L 413.352 690.341"/>
<path d="M 887.784 690.341 L 892.045 690.341"/>
<path d="M 896.307 690.341 L 900.568 690.341"/>
<path d="M 907.670 690.341 L 909.091 690.341"/>
<path d="M 946.023 690.341 L 947.443 690.341"/>
<path d="M 102.273 694.602 L 103.693 694.602"/>
<path d="M 134.943 694.602 L 136.364 694.602"/>
<path d="M 328.125 694.602 L 333.807 694.602"/>
<path d="M 882.102 694.602 L 886.364 694.602"/>
<path d="M 904.830 694.602 L 906.250 694.602"/>
<path d="M 301.136 698.864 L 306.818 698.864"/>
<path d="M 325.284 698.864 L 329.545 698.864"/>
<path d="M 410.511 698.864 L 411.932 698.864"/>
<path d="M 865.057 698.864 L 866.477 698.864"/>
<path d="M 876.420 698.864 L 882.102 698.864"/>
<path d="M 301.136 703.125 L 302.557 703.125"/>
<path d="M 306.818 703.125 L 308.239 703.125"/>
<path d="M 309.659 703.125 L 312.500 703.125"/>
<path d="M 323.864 703.125 L 326.705 703.125"/>
<path d="M 410.511 703.125 L 411.932 703.125"/>
<path d="M 859.375 703.125 L 863.636 703.125"/>
<path d="M 313.920 707.386 L 315.341 707.386"/>
<path d="M 840.909 707.386 L 849.432 707.386"/>
<path d="M 920.455 707.386 L 921.875 707.386"/>
<path d="M 187.500 711.648 L 188.920 711.648"/>
<path d="M 308.239 711.648 L 309.659 711.648"/>
<path d="M 315.341 711.648 L 318.182 711.648"/>
<path d="M 411.932 711.648 L 413.352 711.648"/>
<path d="M 828.125 711.648 L 830.966 711.648"/>
<path d="M 836.648 711.648 L 838.068 711.648"/>
<path d="M 228.693 715.909 L 230.114 715.909"/>
<path d="M 301.136 715.909 L 302.557 715.909"/>
<path d="M 823.864 715.909 L 826.705 715.909"/>
<path d="M 904.830 715.909 L 906.250 715.909"/>
<path d="M 186.080 720.170 L 187.500 720.170"/>
<path d="M 193.182 720.170 L 194.602 720.170"/>
<path d="M 238.636 720.170 L 240.057 720.170"/>
<path d="M 242.898 720.170 L 244.318 720.170"/>
<path d="M 245.739 720.170 L 247.159 720.170"/>
<path d="M 818.182 720.170 L 821.023 720.170"/>
<path d="M 99.432 724.432 L 102.273 724.432"/>
<path d="M 188.920 724.432 L 190.341 724.432"/>
<path d="M 811.080 724.432 L 812.500 724.432"/>
<path d="M 887.784 724.432 L 889.205 724.432"/>
<path d="M 157.670 728.693 L 159.091 728.693"/>
<path d="M 188.920 728.693 L 193.182 728.693"/>
<path d="M 196.023 728.693 L 197.443 728.693"/>
<path d="M 220.170 728.693 L 221.591 728.693"/>
<path d="M 417.614 728.693 L 419.034 728.693"/>
<path d="M 789.773 728.693 L 791.193 728.693"/>
<path d="M 794.034 728.693 L 795.455 728.693"/>
<path d="M 796.875 728.693 L 798.295 728.693"/>
<path d="M 801.136 728.693 L 802.557 728.693"/>
<path d="M 805.398 728.693 L 808.239 728.693"/>
<path d="M 157.670 732.955 L 159.091 732.955"/>
<path d="M 167.614 732.955 L 169.034 732.955"/>
<path d="M 181.818 732.955 L 183.239 732.955"/>
<path d="M 190.341 732.955 L 191.761 732.955"/>
<path d="M 791.193 732.955 L 792.614 732.955"/>
<path d="M 795.455 732.955 L 796.875 732.955"/>
<path d="M 169.034 737.216 L 174.716 737.216"/>
<path d="M 176.136 737.216 L 178.977 737.216"/>
<path d="M 193.182 737.216 L 194.602 737.216"/>
<path d="M 778.409 737.216 L 782.670 737.216"/>
<path d="M 788.352 737.216 L 792.614 737.216"/>
<path d="M 823.864 737.216 L 825.284 737.216"/>
<path d="M 196.023 741.477 L 197.443 741.477"/>
<path d="M 423.295 741.477 L 424.716 741.477"/>
<path d="M 769.886 741.477 L 771.307 741.477"/>
<path d="M 427.557 745.739 L 428.977 745.739"/>
<path d="M 767.045 745.739 L 768.466 745.739"/>
<path d="M 191.761 750.000 L 193.182 750.000"/>
<path d="M 431.818 750.000 L 433.239 750.000"/>
<path d="M 177.557 754.261 L 178.977 754.261"/>
<path d="M 761.364 754.261 L 762.784 754.261"/>
<path d="M 164.773 758.523 L 166.193 758.523"/>
<path d="M 473.011 762.784 L 474.432 762.784"/>
<path d="M 762.784 762.784 L 764.205 762.784"/>
<path d="M 795.455 762.784 L 796.875 762.784"/>
<path d="M 485.795 767.045 L 488.636 767.045"/>
<path d="M 761.364 767.045 L 762.784 767.045"/>
<path d="M 500.000 771.307 L 501.420 771.307"/>
<path d="M 505.682 771.307 L 507.102 771.307"/>
<path d="M 758.523 771.307 L 759.943 771.307"/>
<path d="M 782.670 771.307 L 785.511 771.307"/>
<path d="M 595.170 779.830 L 596.591 779.830"/>
<path d="M 473.011 788.352 L 475.852 788.352"/>
<path d="M 751.420 788.352 L 752.841 788.352"/>
<path d="M 751.420 792.614 L 752.841 792.614"/>
<path d="M 745.739 796.875 L 750.000 796.875"/>
<path d="M 772.727 796.875 L 774.148 796.875"/>
<path d="M 747.159 801.136 L 748.580 801.136"/>
<path d="M 660.511 805.398 L 661.932 805.398"/>
<path d="M 666.193 809.659 L 667.614 809.659"/>
<path d="M 622.159 813.920 L 623.580 813.920"/>
<path d="M 669.034 818.182 L 670.455 818.182"/>
<path d="M 747.159 822.443 L 748.580 822.443"/>
<path d="M 748.580 830.966 L 750.000 830.966"/>
<path d="M 751.420 865.057 L 752.841 865.057"/>
<path d="M 681.818 869.318 L 683.239 869.318"/>
<path d="M 720.170 873.580 L 723.011 873.580"/>
<path d="M 718.750 877.841 L 721.591 877.841"/>
<path d="M 718.750 882.102 L 723.011 882.102"/>
<path d="M 718.750 886.364 L 720.170 886.364"/>
<path d="M 723.011 886.364 L 724.432 886.364"/>
<path d="M 744.318 886.364 L 745.739 886.364"/>
<path d="M 684.659 890.625 L 686.080 890.625"/>
<path d="M 720.170 890.625 L 724.432 890.625"/>
<path d="M 727.273 890.625 L 728.693 890.625"/>
<path d="M 742.898 890.625 L 744.318 890.625"/>
<path d="M 713.068 894.886 L 720.170 894.886"/>
<path d="M 721.591 894.886 L 723.011 894.886"/>
<path d="M 727.273 894.886 L 728.693 894.886"/>
<path d="M 735.795 894.886 L 740.057 894.886"/>
<path d="M 715.909 899.148 L 732.955 899.148"/>
<path d="M 710.227 903.409 L 711.648 903.409"/>
<path d="M 713.068 903.409 L 715.909 903.409"/>
<path d="M 708.807 907.670 L 710.227 907.670"/>
<path d="M 734.375 907.670 L 735.795 907.670"/>
<path d="M 704.545 911.932 L 705.966 911.932"/>
<path d="M 762.784 911.932 L 764.205 911.932"/>
<path d="M 757.102 916.193 L 758.523 916.193"/>
</g>
</svg>
