<?xml version="1.0" encoding="UTF-8"?>
<svg xmlns="http://www.w3.org/2000/svg" width="1000.000mm" height="944.602mm" viewBox="0 0 1000.000 944.602">
<metadata>HatchSmith © FIWAtec GmbH</metadata>
<rect x="0" y="0" width="100%" height="100%" fill="white"/>
<g id="10_layer_10" stroke="#E5E4E8" stroke-width="1.000" stroke-linecap="round" stroke-linejoin="round" fill="none">
<path d="M 602.273 46.875 L 605.114 46.875"/>
<path d="M 563.920 51.136 L 566.761 51.136"/>
<path d="M 572.443 68.182 L 573.864 68.182"/>
<path d="M 576.705 68.182 L 578.125 68.182"/>
<path d="M 617.898 68.182 L 625.000 68.182"/>
<path d="M 562.500 72.443 L 566.761 72.443"/>
<path d="M 568.182 72.443 L 569.602 72.443"/>
<path d="M 634.943 72.443 L 636.364 72.443"/>
<path d="M 643.466 72.443 L 646.307 72.443"/>
<path d="M 545.455 76.705 L 553.977 76.705"/>
<path d="M 646.307 76.705 L 647.727 76.705"/>
<path d="M 650.568 76.705 L 651.989 76.705"/>
<path d="M 536.932 80.966 L 545.455 80.966"/>
<path d="M 661.932 80.966 L 663.352 80.966"/>
<path d="M 534.091 85.227 L 536.932 85.227"/>
<path d="M 664.773 85.227 L 669.034 85.227"/>
<path d="M 525.568 89.489 L 529.830 89.489"/>
<path d="M 673.295 89.489 L 677.557 89.489"/>
<path d="M 517.045 93.750 L 528.409 93.750"/>
<path d="M 676.136 93.750 L 677.557 93.750"/>
<path d="M 477.273 98.011 L 480.114 98.011"/>
<path d="M 515.625 98.011 L 522.727 98.011"/>
<path d="M 678.977 98.011 L 680.398 98.011"/>
<path d="M 681.818 98.011 L 683.239 98.011"/>
<path d="M 508.523 102.273 L 517.045 102.273"/>
<path d="M 683.239 102.273 L 684.659 102.273"/>
<path d="M 458.807 106.534 L 460.227 106.534"/>
<path d="M 502.841 106.534 L 514.205 106.534"/>
<path d="M 656.250 106.534 L 657.670 106.534"/>
<path d="M 686.080 106.534 L 691.761 106.534"/>
<path d="M 501.420 110.795 L 502.841 110.795"/>
<path d="M 505.682 110.795 L 511.364 110.795"/>
<path d="M 653.409 110.795 L 663.352 110.795"/>
<path d="M 690.341 110.795 L 691.761 110.795"/>
<path d="M 481.534 115.057 L 482.955 115.057"/>
<path d="M 494.318 115.057 L 495.739 115.057"/>
<path d="M 497.159 115.057 L 504.261 115.057"/>
<path d="M 651.989 115.057 L 659.091 115.057"/>
<path d="M 690.341 115.057 L 694.602 115.057"/>
<path d="M 478.693 119.318 L 480.114 119.318"/>
<path d="M 490.057 119.318 L 491.477 119.318"/>
<path d="M 494.318 119.318 L 497.159 119.318"/>
<path d="M 498.580 119.318 L 501.420 119.318"/>
<path d="M 693.182 119.318 L 696.023 119.318"/>
<path d="M 475.852 123.580 L 478.693 123.580"/>
<path d="M 694.602 123.580 L 698.864 123.580"/>
<path d="M 474.432 127.841 L 477.273 127.841"/>
<path d="M 693.182 127.841 L 694.602 127.841"/>
<path d="M 696.023 127.841 L 697.443 127.841"/>
<path d="M 465.909 132.102 L 468.750 132.102"/>
<path d="M 474.432 132.102 L 480.114 132.102"/>
<path d="M 694.602 132.102 L 696.023 132.102"/>
<path d="M 697.443 132.102 L 701.705 132.102"/>
<path d="M 454.545 136.364 L 463.068 136.364"/>
<path d="M 464.489 136.364 L 467.330 136.364"/>
<path d="M 477.273 136.364 L 494.318 136.364"/>
<path d="M 697.443 136.364 L 700.284 136.364"/>
<path d="M 461.648 140.625 L 464.489 140.625"/>
<path d="M 480.114 140.625 L 492.898 140.625"/>
<path d="M 698.864 140.625 L 701.705 140.625"/>
<path d="M 446.023 144.886 L 448.864 144.886"/>
<path d="M 454.545 144.886 L 457.386 144.886"/>
<path d="M 464.489 144.886 L 480.114 144.886"/>
<path d="M 485.795 144.886 L 487.216 144.886"/>
<path d="M 697.443 144.886 L 698.864 144.886"/>
<path d="M 700.284 144.886 L 703.125 144.886"/>
<path d="M 421.875 149.148 L 423.295 149.148"/>
<path d="M 450.284 149.148 L 454.545 149.148"/>
<path d="M 455.966 149.148 L 467.330 149.148"/>
<path d="M 468.750 149.148 L 471.591 149.148"/>
<path d="M 700.284 149.148 L 704.545 149.148"/>
<path d="M 718.750 149.148 L 720.170 149.148"/>
<path d="M 414.773 153.409 L 416.193 153.409"/>
<path d="M 700.284 153.409 L 704.545 153.409"/>
<path d="M 718.750 153.409 L 720.170 153.409"/>
<path d="M 367.898 157.670 L 369.318 157.670"/>
<path d="M 409.091 157.670 L 413.352 157.670"/>
<path d="M 700.284 157.670 L 705.966 157.670"/>
<path d="M 397.727 161.932 L 399.148 161.932"/>
<path d="M 403.409 161.932 L 404.830 161.932"/>
<path d="M 407.670 161.932 L 409.091 161.932"/>
<path d="M 701.705 161.932 L 704.545 161.932"/>
<path d="M 386.364 166.193 L 389.205 166.193"/>
<path d="M 393.466 166.193 L 394.886 166.193"/>
<path d="M 700.284 166.193 L 704.545 166.193"/>
<path d="M 383.523 170.455 L 384.943 170.455"/>
<path d="M 386.364 170.455 L 387.784 170.455"/>
<path d="M 700.284 170.455 L 703.125 170.455"/>
<path d="M 379.261 174.716 L 383.523 174.716"/>
<path d="M 700.284 174.716 L 703.125 174.716"/>
<path d="M 376.420 178.977 L 379.261 178.977"/>
<path d="M 380.682 178.977 L 382.102 178.977"/>
<path d="M 420.455 178.977 L 423.295 178.977"/>
<path d="M 698.864 178.977 L 703.125 178.977"/>
<path d="M 376.420 183.239 L 379.261 183.239"/>
<path d="M 416.193 183.239 L 423.295 183.239"/>
<path d="M 700.284 183.239 L 703.125 183.239"/>
<path d="M 718.750 183.239 L 720.170 183.239"/>
<path d="M 379.261 187.500 L 382.102 187.500"/>
<path d="M 410.511 187.500 L 414.773 187.500"/>
<path d="M 700.284 187.500 L 704.545 187.500"/>
<path d="M 718.750 187.500 L 721.591 187.500"/>
<path d="M 382.102 191.761 L 384.943 191.761"/>
<path d="M 403.409 191.761 L 410.511 191.761"/>
<path d="M 411.932 191.761 L 413.352 191.761"/>
<path d="M 698.864 191.761 L 700.284 191.761"/>
<path d="M 701.705 191.761 L 703.125 191.761"/>
<path d="M 392.045 196.023 L 403.409 196.023"/>
<path d="M 409.091 196.023 L 413.352 196.023"/>
<path d="M 698.864 196.023 L 703.125 196.023"/>
<path d="M 407.670 200.284 L 411.932 200.284"/>
<path d="M 696.023 200.284 L 703.125 200.284"/>
<path d="M 704.545 200.284 L 705.966 200.284"/>
<path d="M 404.830 204.545 L 407.670 204.545"/>
<path d="M 696.023 204.545 L 698.864 204.545"/>
<path d="M 697.443 208.807 L 704.545 208.807"/>
<path d="M 701.705 213.068 L 703.125 213.068"/>
<path d="M 704.545 213.068 L 707.386 213.068"/>
<path d="M 714.489 213.068 L 715.909 213.068"/>
<path d="M 711.648 217.330 L 720.170 217.330"/>
<path d="M 383.523 221.591 L 384.943 221.591"/>
<path d="M 446.023 221.591 L 448.864 221.591"/>
<path d="M 723.011 221.591 L 730.114 221.591"/>
<path d="M 375.000 225.852 L 376.420 225.852"/>
<path d="M 379.261 225.852 L 382.102 225.852"/>
<path d="M 383.523 225.852 L 389.205 225.852"/>
<path d="M 434.659 225.852 L 438.920 225.852"/>
<path d="M 728.693 225.852 L 730.114 225.852"/>
<path d="M 731.534 225.852 L 734.375 225.852"/>
<path d="M 370.739 230.114 L 373.580 230.114"/>
<path d="M 375.000 230.114 L 383.523 230.114"/>
<path d="M 433.239 230.114 L 434.659 230.114"/>
<path d="M 735.795 230.114 L 742.898 230.114"/>
<path d="M 360.795 234.375 L 363.636 234.375"/>
<path d="M 433.239 234.375 L 434.659 234.375"/>
<path d="M 450.284 234.375 L 454.545 234.375"/>
<path d="M 738.636 234.375 L 742.898 234.375"/>
<path d="M 356.534 238.636 L 357.955 238.636"/>
<path d="M 359.375 238.636 L 360.795 238.636"/>
<path d="M 423.295 238.636 L 426.136 238.636"/>
<path d="M 427.557 238.636 L 428.977 238.636"/>
<path d="M 438.920 238.636 L 454.545 238.636"/>
<path d="M 742.898 238.636 L 750.000 238.636"/>
<path d="M 353.693 242.898 L 357.955 242.898"/>
<path d="M 423.295 242.898 L 424.716 242.898"/>
<path d="M 434.659 242.898 L 444.602 242.898"/>
<path d="M 446.023 242.898 L 450.284 242.898"/>
<path d="M 744.318 242.898 L 745.739 242.898"/>
<path d="M 747.159 242.898 L 752.841 242.898"/>
<path d="M 350.852 247.159 L 352.273 247.159"/>
<path d="M 353.693 247.159 L 355.114 247.159"/>
<path d="M 437.500 247.159 L 441.761 247.159"/>
<path d="M 748.580 247.159 L 752.841 247.159"/>
<path d="M 350.852 251.420 L 352.273 251.420"/>
<path d="M 750.000 251.420 L 754.261 251.420"/>
<path d="M 350.852 255.682 L 353.693 255.682"/>
<path d="M 751.420 255.682 L 754.261 255.682"/>
<path d="M 352.273 259.943 L 353.693 259.943"/>
<path d="M 451.705 259.943 L 465.909 259.943"/>
<path d="M 754.261 259.943 L 757.102 259.943"/>
<path d="M 349.432 264.205 L 352.273 264.205"/>
<path d="M 353.693 264.205 L 355.114 264.205"/>
<path d="M 450.284 264.205 L 461.648 264.205"/>
<path d="M 463.068 264.205 L 467.330 264.205"/>
<path d="M 585.227 264.205 L 586.648 264.205"/>
<path d="M 754.261 264.205 L 758.523 264.205"/>
<path d="M 451.705 268.466 L 453.125 268.466"/>
<path d="M 454.545 268.466 L 455.966 268.466"/>
<path d="M 457.386 268.466 L 463.068 268.466"/>
<path d="M 754.261 268.466 L 764.205 268.466"/>
<path d="M 366.477 272.727 L 367.898 272.727"/>
<path d="M 441.761 272.727 L 443.182 272.727"/>
<path d="M 757.102 272.727 L 762.784 272.727"/>
<path d="M 786.932 272.727 L 788.352 272.727"/>
<path d="M 346.591 276.989 L 348.011 276.989"/>
<path d="M 363.636 276.989 L 369.318 276.989"/>
<path d="M 761.364 276.989 L 765.625 276.989"/>
<path d="M 764.205 281.250 L 768.466 281.250"/>
<path d="M 346.591 285.511 L 348.011 285.511"/>
<path d="M 450.284 285.511 L 451.705 285.511"/>
<path d="M 768.466 285.511 L 771.307 285.511"/>
<path d="M 345.170 289.773 L 350.852 289.773"/>
<path d="M 451.705 289.773 L 453.125 289.773"/>
<path d="M 569.602 289.773 L 582.386 289.773"/>
<path d="M 774.148 289.773 L 776.989 289.773"/>
<path d="M 342.330 294.034 L 349.432 294.034"/>
<path d="M 565.341 294.034 L 569.602 294.034"/>
<path d="M 571.023 294.034 L 585.227 294.034"/>
<path d="M 776.989 294.034 L 781.250 294.034"/>
<path d="M 342.330 298.295 L 349.432 298.295"/>
<path d="M 558.239 298.295 L 571.023 298.295"/>
<path d="M 573.864 298.295 L 589.489 298.295"/>
<path d="M 343.750 302.557 L 352.273 302.557"/>
<path d="M 553.977 302.557 L 556.818 302.557"/>
<path d="M 561.080 302.557 L 563.920 302.557"/>
<path d="M 566.761 302.557 L 573.864 302.557"/>
<path d="M 576.705 302.557 L 588.068 302.557"/>
<path d="M 788.352 302.557 L 789.773 302.557"/>
<path d="M 343.750 306.818 L 346.591 306.818"/>
<path d="M 350.852 306.818 L 353.693 306.818"/>
<path d="M 542.614 306.818 L 563.920 306.818"/>
<path d="M 565.341 306.818 L 566.761 306.818"/>
<path d="M 569.602 306.818 L 571.023 306.818"/>
<path d="M 575.284 306.818 L 576.705 306.818"/>
<path d="M 578.125 306.818 L 588.068 306.818"/>
<path d="M 785.511 306.818 L 789.773 306.818"/>
<path d="M 330.966 311.080 L 333.807 311.080"/>
<path d="M 339.489 311.080 L 340.909 311.080"/>
<path d="M 343.750 311.080 L 348.011 311.080"/>
<path d="M 509.943 311.080 L 511.364 311.080"/>
<path d="M 538.352 311.080 L 552.557 311.080"/>
<path d="M 553.977 311.080 L 562.500 311.080"/>
<path d="M 572.443 311.080 L 586.648 311.080"/>
<path d="M 788.352 311.080 L 791.193 311.080"/>
<path d="M 792.614 311.080 L 794.034 311.080"/>
<path d="M 339.489 315.341 L 340.909 315.341"/>
<path d="M 343.750 315.341 L 349.432 315.341"/>
<path d="M 356.534 315.341 L 360.795 315.341"/>
<path d="M 508.523 315.341 L 514.205 315.341"/>
<path d="M 531.250 315.341 L 544.034 315.341"/>
<path d="M 548.295 315.341 L 562.500 315.341"/>
<path d="M 571.023 315.341 L 583.807 315.341"/>
<path d="M 322.443 319.602 L 323.864 319.602"/>
<path d="M 335.227 319.602 L 342.330 319.602"/>
<path d="M 348.011 319.602 L 355.114 319.602"/>
<path d="M 356.534 319.602 L 357.955 319.602"/>
<path d="M 509.943 319.602 L 525.568 319.602"/>
<path d="M 526.989 319.602 L 541.193 319.602"/>
<path d="M 544.034 319.602 L 559.659 319.602"/>
<path d="M 569.602 319.602 L 580.966 319.602"/>
<path d="M 794.034 319.602 L 798.295 319.602"/>
<path d="M 328.125 323.864 L 329.545 323.864"/>
<path d="M 338.068 323.864 L 350.852 323.864"/>
<path d="M 352.273 323.864 L 356.534 323.864"/>
<path d="M 359.375 323.864 L 360.795 323.864"/>
<path d="M 509.943 323.864 L 515.625 323.864"/>
<path d="M 519.886 323.864 L 535.511 323.864"/>
<path d="M 539.773 323.864 L 544.034 323.864"/>
<path d="M 553.977 323.864 L 569.602 323.864"/>
<path d="M 572.443 323.864 L 578.125 323.864"/>
<path d="M 791.193 323.864 L 798.295 323.864"/>
<path d="M 329.545 328.125 L 335.227 328.125"/>
<path d="M 338.068 328.125 L 357.955 328.125"/>
<path d="M 508.523 328.125 L 531.250 328.125"/>
<path d="M 535.511 328.125 L 536.932 328.125"/>
<path d="M 545.455 328.125 L 548.295 328.125"/>
<path d="M 555.398 328.125 L 573.864 328.125"/>
<path d="M 792.614 328.125 L 795.455 328.125"/>
<path d="M 813.920 328.125 L 815.341 328.125"/>
<path d="M 319.602 332.386 L 322.443 332.386"/>
<path d="M 333.807 332.386 L 356.534 332.386"/>
<path d="M 507.102 332.386 L 522.727 332.386"/>
<path d="M 524.148 332.386 L 529.830 332.386"/>
<path d="M 531.250 332.386 L 534.091 332.386"/>
<path d="M 552.557 332.386 L 555.398 332.386"/>
<path d="M 556.818 332.386 L 571.023 332.386"/>
<path d="M 789.773 332.386 L 795.455 332.386"/>
<path d="M 815.341 332.386 L 818.182 332.386"/>
<path d="M 303.977 336.648 L 305.398 336.648"/>
<path d="M 306.818 336.648 L 309.659 336.648"/>
<path d="M 315.341 336.648 L 319.602 336.648"/>
<path d="M 321.023 336.648 L 349.432 336.648"/>
<path d="M 350.852 336.648 L 353.693 336.648"/>
<path d="M 356.534 336.648 L 357.955 336.648"/>
<path d="M 504.261 336.648 L 512.784 336.648"/>
<path d="M 517.045 336.648 L 525.568 336.648"/>
<path d="M 532.670 336.648 L 534.091 336.648"/>
<path d="M 542.614 336.648 L 544.034 336.648"/>
<path d="M 546.875 336.648 L 548.295 336.648"/>
<path d="M 553.977 336.648 L 569.602 336.648"/>
<path d="M 785.511 336.648 L 794.034 336.648"/>
<path d="M 815.341 336.648 L 816.761 336.648"/>
<path d="M 303.977 340.909 L 311.080 340.909"/>
<path d="M 315.341 340.909 L 318.182 340.909"/>
<path d="M 319.602 340.909 L 348.011 340.909"/>
<path d="M 502.841 340.909 L 512.784 340.909"/>
<path d="M 517.045 340.909 L 526.989 340.909"/>
<path d="M 532.670 340.909 L 535.511 340.909"/>
<path d="M 542.614 340.909 L 566.761 340.909"/>
<path d="M 784.091 340.909 L 789.773 340.909"/>
<path d="M 806.818 340.909 L 808.239 340.909"/>
<path d="M 296.875 345.170 L 303.977 345.170"/>
<path d="M 308.239 345.170 L 330.966 345.170"/>
<path d="M 332.386 345.170 L 335.227 345.170"/>
<path d="M 497.159 345.170 L 526.989 345.170"/>
<path d="M 541.193 345.170 L 546.875 345.170"/>
<path d="M 548.295 345.170 L 562.500 345.170"/>
<path d="M 781.250 345.170 L 788.352 345.170"/>
<path d="M 813.920 345.170 L 815.341 345.170"/>
<path d="M 294.034 349.432 L 298.295 349.432"/>
<path d="M 299.716 349.432 L 301.136 349.432"/>
<path d="M 309.659 349.432 L 323.864 349.432"/>
<path d="M 490.057 349.432 L 504.261 349.432"/>
<path d="M 509.943 349.432 L 511.364 349.432"/>
<path d="M 512.784 349.432 L 524.148 349.432"/>
<path d="M 536.932 349.432 L 542.614 349.432"/>
<path d="M 545.455 349.432 L 562.500 349.432"/>
<path d="M 778.409 349.432 L 782.670 349.432"/>
<path d="M 812.500 349.432 L 815.341 349.432"/>
<path d="M 282.670 353.693 L 301.136 353.693"/>
<path d="M 311.080 353.693 L 312.500 353.693"/>
<path d="M 313.920 353.693 L 315.341 353.693"/>
<path d="M 316.761 353.693 L 321.023 353.693"/>
<path d="M 490.057 353.693 L 511.364 353.693"/>
<path d="M 514.205 353.693 L 518.466 353.693"/>
<path d="M 532.670 353.693 L 535.511 353.693"/>
<path d="M 538.352 353.693 L 558.239 353.693"/>
<path d="M 776.989 353.693 L 782.670 353.693"/>
<path d="M 812.500 353.693 L 815.341 353.693"/>
<path d="M 240.057 357.955 L 244.318 357.955"/>
<path d="M 278.409 357.955 L 279.830 357.955"/>
<path d="M 284.091 357.955 L 301.136 357.955"/>
<path d="M 302.557 357.955 L 305.398 357.955"/>
<path d="M 491.477 357.955 L 507.102 357.955"/>
<path d="M 511.364 357.955 L 531.250 357.955"/>
<path d="M 534.091 357.955 L 536.932 357.955"/>
<path d="M 538.352 357.955 L 553.977 357.955"/>
<path d="M 776.989 357.955 L 782.670 357.955"/>
<path d="M 809.659 357.955 L 811.080 357.955"/>
<path d="M 237.216 362.216 L 251.420 362.216"/>
<path d="M 262.784 362.216 L 265.625 362.216"/>
<path d="M 276.989 362.216 L 286.932 362.216"/>
<path d="M 288.352 362.216 L 291.193 362.216"/>
<path d="M 491.477 362.216 L 505.682 362.216"/>
<path d="M 507.102 362.216 L 514.205 362.216"/>
<path d="M 515.625 362.216 L 522.727 362.216"/>
<path d="M 526.989 362.216 L 542.614 362.216"/>
<path d="M 544.034 362.216 L 549.716 362.216"/>
<path d="M 774.148 362.216 L 782.670 362.216"/>
<path d="M 791.193 362.216 L 794.034 362.216"/>
<path d="M 805.398 362.216 L 806.818 362.216"/>
<path d="M 98.011 366.477 L 99.432 366.477"/>
<path d="M 174.716 366.477 L 176.136 366.477"/>
<path d="M 230.114 366.477 L 231.534 366.477"/>
<path d="M 240.057 366.477 L 242.898 366.477"/>
<path d="M 247.159 366.477 L 279.830 366.477"/>
<path d="M 281.250 366.477 L 282.670 366.477"/>
<path d="M 298.295 366.477 L 301.136 366.477"/>
<path d="M 491.477 366.477 L 504.261 366.477"/>
<path d="M 505.682 366.477 L 511.364 366.477"/>
<path d="M 514.205 366.477 L 517.045 366.477"/>
<path d="M 522.727 366.477 L 536.932 366.477"/>
<path d="M 539.773 366.477 L 548.295 366.477"/>
<path d="M 552.557 366.477 L 553.977 366.477"/>
<path d="M 774.148 366.477 L 778.409 366.477"/>
<path d="M 791.193 366.477 L 792.614 366.477"/>
<path d="M 802.557 366.477 L 805.398 366.477"/>
<path d="M 211.648 370.739 L 215.909 370.739"/>
<path d="M 491.477 370.739 L 501.420 370.739"/>
<path d="M 504.261 370.739 L 505.682 370.739"/>
<path d="M 507.102 370.739 L 511.364 370.739"/>
<path d="M 512.784 370.739 L 514.205 370.739"/>
<path d="M 515.625 370.739 L 518.466 370.739"/>
<path d="M 521.307 370.739 L 522.727 370.739"/>
<path d="M 524.148 370.739 L 548.295 370.739"/>
<path d="M 772.727 370.739 L 778.409 370.739"/>
<path d="M 792.614 370.739 L 795.455 370.739"/>
<path d="M 796.875 370.739 L 803.977 370.739"/>
<path d="M 24.148 375.000 L 25.568 375.000"/>
<path d="M 143.466 375.000 L 144.886 375.000"/>
<path d="M 149.148 375.000 L 150.568 375.000"/>
<path d="M 200.284 375.000 L 207.386 375.000"/>
<path d="M 491.477 375.000 L 504.261 375.000"/>
<path d="M 507.102 375.000 L 532.670 375.000"/>
<path d="M 536.932 375.000 L 546.875 375.000"/>
<path d="M 771.307 375.000 L 779.830 375.000"/>
<path d="M 18.466 379.261 L 19.886 379.261"/>
<path d="M 187.500 379.261 L 188.920 379.261"/>
<path d="M 194.602 379.261 L 198.864 379.261"/>
<path d="M 488.636 379.261 L 515.625 379.261"/>
<path d="M 522.727 379.261 L 546.875 379.261"/>
<path d="M 774.148 379.261 L 782.670 379.261"/>
<path d="M 106.534 383.523 L 109.375 383.523"/>
<path d="M 186.080 383.523 L 188.920 383.523"/>
<path d="M 485.795 383.523 L 509.943 383.523"/>
<path d="M 512.784 383.523 L 524.148 383.523"/>
<path d="M 526.989 383.523 L 544.034 383.523"/>
<path d="M 772.727 383.523 L 779.830 383.523"/>
<path d="M 107.955 387.784 L 109.375 387.784"/>
<path d="M 123.580 387.784 L 126.420 387.784"/>
<path d="M 163.352 387.784 L 167.614 387.784"/>
<path d="M 181.818 387.784 L 188.920 387.784"/>
<path d="M 488.636 387.784 L 502.841 387.784"/>
<path d="M 505.682 387.784 L 508.523 387.784"/>
<path d="M 517.045 387.784 L 521.307 387.784"/>
<path d="M 524.148 387.784 L 544.034 387.784"/>
<path d="M 778.409 387.784 L 784.091 387.784"/>
<path d="M 89.489 392.045 L 92.330 392.045"/>
<path d="M 107.955 392.045 L 116.477 392.045"/>
<path d="M 117.898 392.045 L 123.580 392.045"/>
<path d="M 125.000 392.045 L 126.420 392.045"/>
<path d="M 153.409 392.045 L 164.773 392.045"/>
<path d="M 167.614 392.045 L 169.034 392.045"/>
<path d="M 187.500 392.045 L 196.023 392.045"/>
<path d="M 198.864 392.045 L 201.705 392.045"/>
<path d="M 204.545 392.045 L 210.227 392.045"/>
<path d="M 487.216 392.045 L 491.477 392.045"/>
<path d="M 497.159 392.045 L 542.614 392.045"/>
<path d="M 778.409 392.045 L 782.670 392.045"/>
<path d="M 798.295 392.045 L 799.716 392.045"/>
<path d="M 65.341 396.307 L 68.182 396.307"/>
<path d="M 69.602 396.307 L 72.443 396.307"/>
<path d="M 73.864 396.307 L 76.705 396.307"/>
<path d="M 82.386 396.307 L 85.227 396.307"/>
<path d="M 88.068 396.307 L 89.489 396.307"/>
<path d="M 92.330 396.307 L 93.750 396.307"/>
<path d="M 115.057 396.307 L 116.477 396.307"/>
<path d="M 125.000 396.307 L 127.841 396.307"/>
<path d="M 132.102 396.307 L 134.943 396.307"/>
<path d="M 139.205 396.307 L 143.466 396.307"/>
<path d="M 144.886 396.307 L 147.727 396.307"/>
<path d="M 160.511 396.307 L 161.932 396.307"/>
<path d="M 181.818 396.307 L 183.239 396.307"/>
<path d="M 194.602 396.307 L 200.284 396.307"/>
<path d="M 203.125 396.307 L 210.227 396.307"/>
<path d="M 211.648 396.307 L 214.489 396.307"/>
<path d="M 215.909 396.307 L 218.750 396.307"/>
<path d="M 488.636 396.307 L 492.898 396.307"/>
<path d="M 495.739 396.307 L 505.682 396.307"/>
<path d="M 508.523 396.307 L 511.364 396.307"/>
<path d="M 517.045 396.307 L 542.614 396.307"/>
<path d="M 586.648 396.307 L 593.750 396.307"/>
<path d="M 595.170 396.307 L 596.591 396.307"/>
<path d="M 781.250 396.307 L 785.511 396.307"/>
<path d="M 801.136 396.307 L 802.557 396.307"/>
<path d="M 73.864 400.568 L 83.807 400.568"/>
<path d="M 85.227 400.568 L 89.489 400.568"/>
<path d="M 90.909 400.568 L 93.750 400.568"/>
<path d="M 125.000 400.568 L 133.523 400.568"/>
<path d="M 146.307 400.568 L 149.148 400.568"/>
<path d="M 161.932 400.568 L 170.455 400.568"/>
<path d="M 183.239 400.568 L 184.659 400.568"/>
<path d="M 207.386 400.568 L 213.068 400.568"/>
<path d="M 267.045 400.568 L 268.466 400.568"/>
<path d="M 488.636 400.568 L 502.841 400.568"/>
<path d="M 505.682 400.568 L 542.614 400.568"/>
<path d="M 586.648 400.568 L 598.011 400.568"/>
<path d="M 779.830 400.568 L 781.250 400.568"/>
<path d="M 782.670 400.568 L 789.773 400.568"/>
<path d="M 802.557 400.568 L 803.977 400.568"/>
<path d="M 35.511 404.830 L 39.773 404.830"/>
<path d="M 41.193 404.830 L 42.614 404.830"/>
<path d="M 106.534 404.830 L 107.955 404.830"/>
<path d="M 109.375 404.830 L 112.216 404.830"/>
<path d="M 123.580 404.830 L 127.841 404.830"/>
<path d="M 147.727 404.830 L 149.148 404.830"/>
<path d="M 154.830 404.830 L 156.250 404.830"/>
<path d="M 161.932 404.830 L 163.352 404.830"/>
<path d="M 170.455 404.830 L 173.295 404.830"/>
<path d="M 201.705 404.830 L 204.545 404.830"/>
<path d="M 207.386 404.830 L 211.648 404.830"/>
<path d="M 485.795 404.830 L 509.943 404.830"/>
<path d="M 512.784 404.830 L 544.034 404.830"/>
<path d="M 782.670 404.830 L 785.511 404.830"/>
<path d="M 791.193 404.830 L 792.614 404.830"/>
<path d="M 802.557 404.830 L 803.977 404.830"/>
<path d="M 41.193 409.091 L 45.455 409.091"/>
<path d="M 105.114 409.091 L 109.375 409.091"/>
<path d="M 112.216 409.091 L 113.636 409.091"/>
<path d="M 117.898 409.091 L 127.841 409.091"/>
<path d="M 147.727 409.091 L 153.409 409.091"/>
<path d="M 169.034 409.091 L 177.557 409.091"/>
<path d="M 186.080 409.091 L 196.023 409.091"/>
<path d="M 204.545 409.091 L 211.648 409.091"/>
<path d="M 242.898 409.091 L 250.000 409.091"/>
<path d="M 261.364 409.091 L 262.784 409.091"/>
<path d="M 484.375 409.091 L 545.455 409.091"/>
<path d="M 778.409 409.091 L 779.830 409.091"/>
<path d="M 781.250 409.091 L 782.670 409.091"/>
<path d="M 784.091 409.091 L 788.352 409.091"/>
<path d="M 789.773 409.091 L 791.193 409.091"/>
<path d="M 803.977 409.091 L 805.398 409.091"/>
<path d="M 806.818 409.091 L 809.659 409.091"/>
<path d="M 46.875 413.352 L 56.818 413.352"/>
<path d="M 61.080 413.352 L 65.341 413.352"/>
<path d="M 105.114 413.352 L 116.477 413.352"/>
<path d="M 120.739 413.352 L 125.000 413.352"/>
<path d="M 147.727 413.352 L 153.409 413.352"/>
<path d="M 160.511 413.352 L 163.352 413.352"/>
<path d="M 167.614 413.352 L 173.295 413.352"/>
<path d="M 196.023 413.352 L 197.443 413.352"/>
<path d="M 201.705 413.352 L 210.227 413.352"/>
<path d="M 241.477 413.352 L 245.739 413.352"/>
<path d="M 484.375 413.352 L 504.261 413.352"/>
<path d="M 505.682 413.352 L 546.875 413.352"/>
<path d="M 785.511 413.352 L 789.773 413.352"/>
<path d="M 805.398 413.352 L 806.818 413.352"/>
<path d="M 55.398 417.614 L 56.818 417.614"/>
<path d="M 58.239 417.614 L 78.125 417.614"/>
<path d="M 109.375 417.614 L 120.739 417.614"/>
<path d="M 149.148 417.614 L 161.932 417.614"/>
<path d="M 167.614 417.614 L 171.875 417.614"/>
<path d="M 200.284 417.614 L 203.125 417.614"/>
<path d="M 480.114 417.614 L 544.034 417.614"/>
<path d="M 772.727 417.614 L 776.989 417.614"/>
<path d="M 786.932 417.614 L 794.034 417.614"/>
<path d="M 63.920 421.875 L 65.341 421.875"/>
<path d="M 69.602 421.875 L 72.443 421.875"/>
<path d="M 75.284 421.875 L 83.807 421.875"/>
<path d="M 149.148 421.875 L 159.091 421.875"/>
<path d="M 160.511 421.875 L 161.932 421.875"/>
<path d="M 166.193 421.875 L 171.875 421.875"/>
<path d="M 477.273 421.875 L 509.943 421.875"/>
<path d="M 511.364 421.875 L 529.830 421.875"/>
<path d="M 531.250 421.875 L 546.875 421.875"/>
<path d="M 627.841 421.875 L 632.102 421.875"/>
<path d="M 769.886 421.875 L 776.989 421.875"/>
<path d="M 788.352 421.875 L 795.455 421.875"/>
<path d="M 25.568 426.136 L 26.989 426.136"/>
<path d="M 71.023 426.136 L 72.443 426.136"/>
<path d="M 79.545 426.136 L 86.648 426.136"/>
<path d="M 157.670 426.136 L 177.557 426.136"/>
<path d="M 475.852 426.136 L 548.295 426.136"/>
<path d="M 629.261 426.136 L 633.523 426.136"/>
<path d="M 767.045 426.136 L 768.466 426.136"/>
<path d="M 774.148 426.136 L 776.989 426.136"/>
<path d="M 789.773 426.136 L 796.875 426.136"/>
<path d="M 798.295 426.136 L 799.716 426.136"/>
<path d="M 25.568 430.398 L 26.989 430.398"/>
<path d="M 28.409 430.398 L 29.830 430.398"/>
<path d="M 65.341 430.398 L 66.761 430.398"/>
<path d="M 68.182 430.398 L 71.023 430.398"/>
<path d="M 75.284 430.398 L 80.966 430.398"/>
<path d="M 83.807 430.398 L 89.489 430.398"/>
<path d="M 90.909 430.398 L 92.330 430.398"/>
<path d="M 103.693 430.398 L 107.955 430.398"/>
<path d="M 474.432 430.398 L 482.955 430.398"/>
<path d="M 485.795 430.398 L 514.205 430.398"/>
<path d="M 515.625 430.398 L 521.307 430.398"/>
<path d="M 524.148 430.398 L 546.875 430.398"/>
<path d="M 575.284 430.398 L 576.705 430.398"/>
<path d="M 762.784 430.398 L 764.205 430.398"/>
<path d="M 765.625 430.398 L 767.045 430.398"/>
<path d="M 792.614 430.398 L 799.716 430.398"/>
<path d="M 809.659 430.398 L 811.080 430.398"/>
<path d="M 29.830 434.659 L 32.670 434.659"/>
<path d="M 66.761 434.659 L 68.182 434.659"/>
<path d="M 71.023 434.659 L 80.966 434.659"/>
<path d="M 83.807 434.659 L 85.227 434.659"/>
<path d="M 86.648 434.659 L 103.693 434.659"/>
<path d="M 106.534 434.659 L 110.795 434.659"/>
<path d="M 473.011 434.659 L 474.432 434.659"/>
<path d="M 477.273 434.659 L 502.841 434.659"/>
<path d="M 504.261 434.659 L 546.875 434.659"/>
<path d="M 576.705 434.659 L 583.807 434.659"/>
<path d="M 794.034 434.659 L 799.716 434.659"/>
<path d="M 811.080 434.659 L 812.500 434.659"/>
<path d="M 66.761 438.920 L 88.068 438.920"/>
<path d="M 89.489 438.920 L 90.909 438.920"/>
<path d="M 95.170 438.920 L 99.432 438.920"/>
<path d="M 100.852 438.920 L 107.955 438.920"/>
<path d="M 473.011 438.920 L 485.795 438.920"/>
<path d="M 487.216 438.920 L 545.455 438.920"/>
<path d="M 546.875 438.920 L 548.295 438.920"/>
<path d="M 576.705 438.920 L 578.125 438.920"/>
<path d="M 579.545 438.920 L 585.227 438.920"/>
<path d="M 794.034 438.920 L 801.136 438.920"/>
<path d="M 55.398 443.182 L 63.920 443.182"/>
<path d="M 78.125 443.182 L 89.489 443.182"/>
<path d="M 95.170 443.182 L 105.114 443.182"/>
<path d="M 132.102 443.182 L 150.568 443.182"/>
<path d="M 470.170 443.182 L 497.159 443.182"/>
<path d="M 501.420 443.182 L 552.557 443.182"/>
<path d="M 576.705 443.182 L 585.227 443.182"/>
<path d="M 795.455 443.182 L 799.716 443.182"/>
<path d="M 802.557 443.182 L 805.398 443.182"/>
<path d="M 55.398 447.443 L 59.659 447.443"/>
<path d="M 134.943 447.443 L 150.568 447.443"/>
<path d="M 210.227 447.443 L 213.068 447.443"/>
<path d="M 464.489 447.443 L 492.898 447.443"/>
<path d="M 502.841 447.443 L 552.557 447.443"/>
<path d="M 572.443 447.443 L 585.227 447.443"/>
<path d="M 607.955 447.443 L 612.216 447.443"/>
<path d="M 796.875 447.443 L 802.557 447.443"/>
<path d="M 803.977 447.443 L 805.398 447.443"/>
<path d="M 55.398 451.705 L 58.239 451.705"/>
<path d="M 100.852 451.705 L 102.273 451.705"/>
<path d="M 137.784 451.705 L 147.727 451.705"/>
<path d="M 460.227 451.705 L 467.330 451.705"/>
<path d="M 468.750 451.705 L 549.716 451.705"/>
<path d="M 573.864 451.705 L 589.489 451.705"/>
<path d="M 603.693 451.705 L 612.216 451.705"/>
<path d="M 615.057 451.705 L 616.477 451.705"/>
<path d="M 798.295 451.705 L 802.557 451.705"/>
<path d="M 803.977 451.705 L 805.398 451.705"/>
<path d="M 813.920 451.705 L 815.341 451.705"/>
<path d="M 53.977 455.966 L 59.659 455.966"/>
<path d="M 116.477 455.966 L 120.739 455.966"/>
<path d="M 458.807 455.966 L 463.068 455.966"/>
<path d="M 464.489 455.966 L 548.295 455.966"/>
<path d="M 576.705 455.966 L 606.534 455.966"/>
<path d="M 609.375 455.966 L 613.636 455.966"/>
<path d="M 615.057 455.966 L 617.898 455.966"/>
<path d="M 798.295 455.966 L 803.977 455.966"/>
<path d="M 813.920 455.966 L 815.341 455.966"/>
<path d="M 59.659 460.227 L 63.920 460.227"/>
<path d="M 115.057 460.227 L 127.841 460.227"/>
<path d="M 460.227 460.227 L 545.455 460.227"/>
<path d="M 575.284 460.227 L 576.705 460.227"/>
<path d="M 580.966 460.227 L 605.114 460.227"/>
<path d="M 606.534 460.227 L 626.420 460.227"/>
<path d="M 798.295 460.227 L 803.977 460.227"/>
<path d="M 813.920 460.227 L 815.341 460.227"/>
<path d="M 65.341 464.489 L 72.443 464.489"/>
<path d="M 120.739 464.489 L 126.420 464.489"/>
<path d="M 460.227 464.489 L 471.591 464.489"/>
<path d="M 478.693 464.489 L 549.716 464.489"/>
<path d="M 586.648 464.489 L 626.420 464.489"/>
<path d="M 705.966 464.489 L 707.386 464.489"/>
<path d="M 799.716 464.489 L 802.557 464.489"/>
<path d="M 815.341 464.489 L 816.761 464.489"/>
<path d="M 72.443 468.750 L 78.125 468.750"/>
<path d="M 454.545 468.750 L 471.591 468.750"/>
<path d="M 478.693 468.750 L 524.148 468.750"/>
<path d="M 525.568 468.750 L 529.830 468.750"/>
<path d="M 534.091 468.750 L 541.193 468.750"/>
<path d="M 548.295 468.750 L 549.716 468.750"/>
<path d="M 586.648 468.750 L 593.750 468.750"/>
<path d="M 598.011 468.750 L 606.534 468.750"/>
<path d="M 609.375 468.750 L 629.261 468.750"/>
<path d="M 705.966 468.750 L 710.227 468.750"/>
<path d="M 796.875 468.750 L 806.818 468.750"/>
<path d="M 45.455 473.011 L 46.875 473.011"/>
<path d="M 61.080 473.011 L 62.500 473.011"/>
<path d="M 75.284 473.011 L 80.966 473.011"/>
<path d="M 460.227 473.011 L 504.261 473.011"/>
<path d="M 507.102 473.011 L 511.364 473.011"/>
<path d="M 517.045 473.011 L 518.466 473.011"/>
<path d="M 521.307 473.011 L 522.727 473.011"/>
<path d="M 582.386 473.011 L 590.909 473.011"/>
<path d="M 592.330 473.011 L 595.170 473.011"/>
<path d="M 602.273 473.011 L 603.693 473.011"/>
<path d="M 606.534 473.011 L 607.955 473.011"/>
<path d="M 610.795 473.011 L 626.420 473.011"/>
<path d="M 627.841 473.011 L 629.261 473.011"/>
<path d="M 700.284 473.011 L 704.545 473.011"/>
<path d="M 705.966 473.011 L 713.068 473.011"/>
<path d="M 724.432 473.011 L 725.852 473.011"/>
<path d="M 730.114 473.011 L 732.955 473.011"/>
<path d="M 761.364 473.011 L 764.205 473.011"/>
<path d="M 769.886 473.011 L 771.307 473.011"/>
<path d="M 775.568 473.011 L 778.409 473.011"/>
<path d="M 796.875 473.011 L 798.295 473.011"/>
<path d="M 799.716 473.011 L 805.398 473.011"/>
<path d="M 49.716 477.273 L 52.557 477.273"/>
<path d="M 78.125 477.273 L 83.807 477.273"/>
<path d="M 457.386 477.273 L 498.580 477.273"/>
<path d="M 518.466 477.273 L 524.148 477.273"/>
<path d="M 529.830 477.273 L 534.091 477.273"/>
<path d="M 551.136 477.273 L 552.557 477.273"/>
<path d="M 579.545 477.273 L 582.386 477.273"/>
<path d="M 583.807 477.273 L 603.693 477.273"/>
<path d="M 606.534 477.273 L 627.841 477.273"/>
<path d="M 707.386 477.273 L 708.807 477.273"/>
<path d="M 714.489 477.273 L 720.170 477.273"/>
<path d="M 724.432 477.273 L 727.273 477.273"/>
<path d="M 728.693 477.273 L 735.795 477.273"/>
<path d="M 737.216 477.273 L 741.477 477.273"/>
<path d="M 767.045 477.273 L 768.466 477.273"/>
<path d="M 769.886 477.273 L 778.409 477.273"/>
<path d="M 798.295 477.273 L 805.398 477.273"/>
<path d="M 809.659 477.273 L 811.080 477.273"/>
<path d="M 51.136 481.534 L 55.398 481.534"/>
<path d="M 82.386 481.534 L 85.227 481.534"/>
<path d="M 453.125 481.534 L 492.898 481.534"/>
<path d="M 596.591 481.534 L 627.841 481.534"/>
<path d="M 740.057 481.534 L 742.898 481.534"/>
<path d="M 767.045 481.534 L 772.727 481.534"/>
<path d="M 774.148 481.534 L 778.409 481.534"/>
<path d="M 796.875 481.534 L 798.295 481.534"/>
<path d="M 803.977 481.534 L 809.659 481.534"/>
<path d="M 53.977 485.795 L 56.818 485.795"/>
<path d="M 58.239 485.795 L 59.659 485.795"/>
<path d="M 80.966 485.795 L 85.227 485.795"/>
<path d="M 98.011 485.795 L 102.273 485.795"/>
<path d="M 103.693 485.795 L 107.955 485.795"/>
<path d="M 451.705 485.795 L 487.216 485.795"/>
<path d="M 772.727 485.795 L 781.250 485.795"/>
<path d="M 799.716 485.795 L 801.136 485.795"/>
<path d="M 803.977 485.795 L 809.659 485.795"/>
<path d="M 813.920 485.795 L 815.341 485.795"/>
<path d="M 829.545 485.795 L 830.966 485.795"/>
<path d="M 79.545 490.057 L 85.227 490.057"/>
<path d="M 95.170 490.057 L 107.955 490.057"/>
<path d="M 451.705 490.057 L 461.648 490.057"/>
<path d="M 463.068 490.057 L 482.955 490.057"/>
<path d="M 484.375 490.057 L 487.216 490.057"/>
<path d="M 765.625 490.057 L 775.568 490.057"/>
<path d="M 778.409 490.057 L 781.250 490.057"/>
<path d="M 805.398 490.057 L 812.500 490.057"/>
<path d="M 73.864 494.318 L 80.966 494.318"/>
<path d="M 95.170 494.318 L 102.273 494.318"/>
<path d="M 451.705 494.318 L 482.955 494.318"/>
<path d="M 761.364 494.318 L 768.466 494.318"/>
<path d="M 776.989 494.318 L 779.830 494.318"/>
<path d="M 802.557 494.318 L 803.977 494.318"/>
<path d="M 806.818 494.318 L 808.239 494.318"/>
<path d="M 811.080 494.318 L 816.761 494.318"/>
<path d="M 818.182 494.318 L 821.023 494.318"/>
<path d="M 78.125 498.580 L 85.227 498.580"/>
<path d="M 95.170 498.580 L 98.011 498.580"/>
<path d="M 100.852 498.580 L 102.273 498.580"/>
<path d="M 450.284 498.580 L 481.534 498.580"/>
<path d="M 744.318 498.580 L 754.261 498.580"/>
<path d="M 757.102 498.580 L 758.523 498.580"/>
<path d="M 761.364 498.580 L 765.625 498.580"/>
<path d="M 774.148 498.580 L 775.568 498.580"/>
<path d="M 779.830 498.580 L 781.250 498.580"/>
<path d="M 812.500 498.580 L 823.864 498.580"/>
<path d="M 849.432 498.580 L 850.852 498.580"/>
<path d="M 78.125 502.841 L 82.386 502.841"/>
<path d="M 96.591 502.841 L 98.011 502.841"/>
<path d="M 448.864 502.841 L 478.693 502.841"/>
<path d="M 598.011 502.841 L 602.273 502.841"/>
<path d="M 603.693 502.841 L 620.739 502.841"/>
<path d="M 751.420 502.841 L 762.784 502.841"/>
<path d="M 781.250 502.841 L 782.670 502.841"/>
<path d="M 815.341 502.841 L 816.761 502.841"/>
<path d="M 821.023 502.841 L 826.705 502.841"/>
<path d="M 828.125 502.841 L 832.386 502.841"/>
<path d="M 73.864 507.102 L 75.284 507.102"/>
<path d="M 78.125 507.102 L 80.966 507.102"/>
<path d="M 441.761 507.102 L 474.432 507.102"/>
<path d="M 585.227 507.102 L 590.909 507.102"/>
<path d="M 598.011 507.102 L 626.420 507.102"/>
<path d="M 627.841 507.102 L 629.261 507.102"/>
<path d="M 752.841 507.102 L 755.682 507.102"/>
<path d="M 762.784 507.102 L 765.625 507.102"/>
<path d="M 774.148 507.102 L 775.568 507.102"/>
<path d="M 781.250 507.102 L 782.670 507.102"/>
<path d="M 785.511 507.102 L 788.352 507.102"/>
<path d="M 822.443 507.102 L 823.864 507.102"/>
<path d="M 826.705 507.102 L 835.227 507.102"/>
<path d="M 836.648 507.102 L 839.489 507.102"/>
<path d="M 845.170 507.102 L 846.591 507.102"/>
<path d="M 863.636 507.102 L 865.057 507.102"/>
<path d="M 80.966 511.364 L 85.227 511.364"/>
<path d="M 440.341 511.364 L 468.750 511.364"/>
<path d="M 470.170 511.364 L 473.011 511.364"/>
<path d="M 583.807 511.364 L 590.909 511.364"/>
<path d="M 606.534 511.364 L 622.159 511.364"/>
<path d="M 625.000 511.364 L 627.841 511.364"/>
<path d="M 661.932 511.364 L 663.352 511.364"/>
<path d="M 667.614 511.364 L 674.716 511.364"/>
<path d="M 678.977 511.364 L 684.659 511.364"/>
<path d="M 761.364 511.364 L 764.205 511.364"/>
<path d="M 776.989 511.364 L 789.773 511.364"/>
<path d="M 828.125 511.364 L 829.545 511.364"/>
<path d="M 833.807 511.364 L 839.489 511.364"/>
<path d="M 840.909 511.364 L 846.591 511.364"/>
<path d="M 80.966 515.625 L 83.807 515.625"/>
<path d="M 85.227 515.625 L 88.068 515.625"/>
<path d="M 428.977 515.625 L 437.500 515.625"/>
<path d="M 441.761 515.625 L 473.011 515.625"/>
<path d="M 585.227 515.625 L 588.068 515.625"/>
<path d="M 613.636 515.625 L 620.739 515.625"/>
<path d="M 625.000 515.625 L 626.420 515.625"/>
<path d="M 669.034 515.625 L 681.818 515.625"/>
<path d="M 686.080 515.625 L 690.341 515.625"/>
<path d="M 759.943 515.625 L 762.784 515.625"/>
<path d="M 833.807 515.625 L 850.852 515.625"/>
<path d="M 877.841 515.625 L 879.261 515.625"/>
<path d="M 80.966 519.886 L 90.909 519.886"/>
<path d="M 424.716 519.886 L 471.591 519.886"/>
<path d="M 589.489 519.886 L 595.170 519.886"/>
<path d="M 619.318 519.886 L 620.739 519.886"/>
<path d="M 623.580 519.886 L 626.420 519.886"/>
<path d="M 673.295 519.886 L 686.080 519.886"/>
<path d="M 688.920 519.886 L 701.705 519.886"/>
<path d="M 845.170 519.886 L 852.273 519.886"/>
<path d="M 884.943 519.886 L 886.364 519.886"/>
<path d="M 83.807 524.148 L 86.648 524.148"/>
<path d="M 88.068 524.148 L 90.909 524.148"/>
<path d="M 92.330 524.148 L 93.750 524.148"/>
<path d="M 423.295 524.148 L 465.909 524.148"/>
<path d="M 585.227 524.148 L 592.330 524.148"/>
<path d="M 593.750 524.148 L 595.170 524.148"/>
<path d="M 680.398 524.148 L 700.284 524.148"/>
<path d="M 703.125 524.148 L 704.545 524.148"/>
<path d="M 850.852 524.148 L 865.057 524.148"/>
<path d="M 870.739 524.148 L 872.159 524.148"/>
<path d="M 86.648 528.409 L 95.170 528.409"/>
<path d="M 423.295 528.409 L 446.023 528.409"/>
<path d="M 447.443 528.409 L 467.330 528.409"/>
<path d="M 468.750 528.409 L 471.591 528.409"/>
<path d="M 589.489 528.409 L 600.852 528.409"/>
<path d="M 681.818 528.409 L 683.239 528.409"/>
<path d="M 686.080 528.409 L 700.284 528.409"/>
<path d="M 708.807 528.409 L 710.227 528.409"/>
<path d="M 856.534 528.409 L 857.955 528.409"/>
<path d="M 859.375 528.409 L 872.159 528.409"/>
<path d="M 893.466 528.409 L 896.307 528.409"/>
<path d="M 897.727 528.409 L 899.148 528.409"/>
<path d="M 90.909 532.670 L 98.011 532.670"/>
<path d="M 99.432 532.670 L 100.852 532.670"/>
<path d="M 420.455 532.670 L 467.330 532.670"/>
<path d="M 589.489 532.670 L 602.273 532.670"/>
<path d="M 686.080 532.670 L 688.920 532.670"/>
<path d="M 693.182 532.670 L 704.545 532.670"/>
<path d="M 863.636 532.670 L 872.159 532.670"/>
<path d="M 876.420 532.670 L 880.682 532.670"/>
<path d="M 882.102 532.670 L 884.943 532.670"/>
<path d="M 892.045 532.670 L 893.466 532.670"/>
<path d="M 900.568 532.670 L 901.989 532.670"/>
<path d="M 95.170 536.932 L 99.432 536.932"/>
<path d="M 103.693 536.932 L 105.114 536.932"/>
<path d="M 410.511 536.932 L 416.193 536.932"/>
<path d="M 420.455 536.932 L 427.557 536.932"/>
<path d="M 428.977 536.932 L 437.500 536.932"/>
<path d="M 440.341 536.932 L 471.591 536.932"/>
<path d="M 590.909 536.932 L 603.693 536.932"/>
<path d="M 691.761 536.932 L 700.284 536.932"/>
<path d="M 701.705 536.932 L 707.386 536.932"/>
<path d="M 870.739 536.932 L 875.000 536.932"/>
<path d="M 876.420 536.932 L 882.102 536.932"/>
<path d="M 900.568 536.932 L 901.989 536.932"/>
<path d="M 904.830 536.932 L 906.250 536.932"/>
<path d="M 95.170 541.193 L 100.852 541.193"/>
<path d="M 409.091 541.193 L 434.659 541.193"/>
<path d="M 438.920 541.193 L 471.591 541.193"/>
<path d="M 478.693 541.193 L 480.114 541.193"/>
<path d="M 593.750 541.193 L 606.534 541.193"/>
<path d="M 666.193 541.193 L 673.295 541.193"/>
<path d="M 694.602 541.193 L 697.443 541.193"/>
<path d="M 698.864 541.193 L 711.648 541.193"/>
<path d="M 720.170 541.193 L 721.591 541.193"/>
<path d="M 782.670 541.193 L 785.511 541.193"/>
<path d="M 877.841 541.193 L 889.205 541.193"/>
<path d="M 896.307 541.193 L 897.727 541.193"/>
<path d="M 907.670 541.193 L 911.932 541.193"/>
<path d="M 98.011 545.455 L 102.273 545.455"/>
<path d="M 406.250 545.455 L 411.932 545.455"/>
<path d="M 414.773 545.455 L 480.114 545.455"/>
<path d="M 592.330 545.455 L 603.693 545.455"/>
<path d="M 605.114 545.455 L 612.216 545.455"/>
<path d="M 667.614 545.455 L 673.295 545.455"/>
<path d="M 707.386 545.455 L 718.750 545.455"/>
<path d="M 721.591 545.455 L 725.852 545.455"/>
<path d="M 730.114 545.455 L 731.534 545.455"/>
<path d="M 775.568 545.455 L 785.511 545.455"/>
<path d="M 786.932 545.455 L 788.352 545.455"/>
<path d="M 882.102 545.455 L 883.523 545.455"/>
<path d="M 884.943 545.455 L 887.784 545.455"/>
<path d="M 889.205 545.455 L 892.045 545.455"/>
<path d="M 901.989 545.455 L 903.409 545.455"/>
<path d="M 907.670 545.455 L 909.091 545.455"/>
<path d="M 910.511 545.455 L 914.773 545.455"/>
<path d="M 99.432 549.716 L 100.852 549.716"/>
<path d="M 103.693 549.716 L 107.955 549.716"/>
<path d="M 404.830 549.716 L 427.557 549.716"/>
<path d="M 431.818 549.716 L 440.341 549.716"/>
<path d="M 443.182 549.716 L 474.432 549.716"/>
<path d="M 475.852 549.716 L 480.114 549.716"/>
<path d="M 593.750 549.716 L 602.273 549.716"/>
<path d="M 663.352 549.716 L 673.295 549.716"/>
<path d="M 710.227 549.716 L 714.489 549.716"/>
<path d="M 718.750 549.716 L 725.852 549.716"/>
<path d="M 728.693 549.716 L 730.114 549.716"/>
<path d="M 747.159 549.716 L 748.580 549.716"/>
<path d="M 754.261 549.716 L 759.943 549.716"/>
<path d="M 761.364 549.716 L 771.307 549.716"/>
<path d="M 778.409 549.716 L 781.250 549.716"/>
<path d="M 887.784 549.716 L 894.886 549.716"/>
<path d="M 900.568 549.716 L 901.989 549.716"/>
<path d="M 916.193 549.716 L 917.614 549.716"/>
<path d="M 102.273 553.977 L 105.114 553.977"/>
<path d="M 106.534 553.977 L 112.216 553.977"/>
<path d="M 413.352 553.977 L 480.114 553.977"/>
<path d="M 666.193 553.977 L 673.295 553.977"/>
<path d="M 737.216 553.977 L 738.636 553.977"/>
<path d="M 758.523 553.977 L 762.784 553.977"/>
<path d="M 765.625 553.977 L 769.886 553.977"/>
<path d="M 894.886 553.977 L 899.148 553.977"/>
<path d="M 901.989 553.977 L 903.409 553.977"/>
<path d="M 916.193 553.977 L 920.455 553.977"/>
<path d="M 100.852 558.239 L 107.955 558.239"/>
<path d="M 416.193 558.239 L 478.693 558.239"/>
<path d="M 670.455 558.239 L 676.136 558.239"/>
<path d="M 758.523 558.239 L 761.364 558.239"/>
<path d="M 896.307 558.239 L 897.727 558.239"/>
<path d="M 899.148 558.239 L 909.091 558.239"/>
<path d="M 921.875 558.239 L 923.295 558.239"/>
<path d="M 96.591 562.500 L 99.432 562.500"/>
<path d="M 100.852 562.500 L 102.273 562.500"/>
<path d="M 411.932 562.500 L 413.352 562.500"/>
<path d="M 414.773 562.500 L 420.455 562.500"/>
<path d="M 421.875 562.500 L 443.182 562.500"/>
<path d="M 444.602 562.500 L 463.068 562.500"/>
<path d="M 464.489 562.500 L 467.330 562.500"/>
<path d="M 473.011 562.500 L 480.114 562.500"/>
<path d="M 899.148 562.500 L 900.568 562.500"/>
<path d="M 901.989 562.500 L 911.932 562.500"/>
<path d="M 913.352 562.500 L 917.614 562.500"/>
<path d="M 924.716 562.500 L 926.136 562.500"/>
<path d="M 96.591 566.761 L 100.852 566.761"/>
<path d="M 424.716 566.761 L 437.500 566.761"/>
<path d="M 454.545 566.761 L 455.966 566.761"/>
<path d="M 906.250 566.761 L 919.034 566.761"/>
<path d="M 920.455 566.761 L 927.557 566.761"/>
<path d="M 96.591 571.023 L 100.852 571.023"/>
<path d="M 426.136 571.023 L 437.500 571.023"/>
<path d="M 454.545 571.023 L 455.966 571.023"/>
<path d="M 674.716 571.023 L 676.136 571.023"/>
<path d="M 907.670 571.023 L 923.295 571.023"/>
<path d="M 927.557 571.023 L 930.398 571.023"/>
<path d="M 102.273 575.284 L 106.534 575.284"/>
<path d="M 392.045 575.284 L 393.466 575.284"/>
<path d="M 420.455 575.284 L 436.080 575.284"/>
<path d="M 437.500 575.284 L 440.341 575.284"/>
<path d="M 447.443 575.284 L 450.284 575.284"/>
<path d="M 451.705 575.284 L 454.545 575.284"/>
<path d="M 907.670 575.284 L 909.091 575.284"/>
<path d="M 910.511 575.284 L 933.239 575.284"/>
<path d="M 109.375 579.545 L 126.420 579.545"/>
<path d="M 414.773 579.545 L 416.193 579.545"/>
<path d="M 419.034 579.545 L 455.966 579.545"/>
<path d="M 457.386 579.545 L 463.068 579.545"/>
<path d="M 678.977 579.545 L 680.398 579.545"/>
<path d="M 683.239 579.545 L 686.080 579.545"/>
<path d="M 909.091 579.545 L 910.511 579.545"/>
<path d="M 914.773 579.545 L 936.080 579.545"/>
<path d="M 115.057 583.807 L 132.102 583.807"/>
<path d="M 419.034 583.807 L 434.659 583.807"/>
<path d="M 436.080 583.807 L 482.955 583.807"/>
<path d="M 487.216 583.807 L 495.739 583.807"/>
<path d="M 677.557 583.807 L 683.239 583.807"/>
<path d="M 911.932 583.807 L 931.818 583.807"/>
<path d="M 933.239 583.807 L 937.500 583.807"/>
<path d="M 112.216 588.068 L 119.318 588.068"/>
<path d="M 120.739 588.068 L 132.102 588.068"/>
<path d="M 419.034 588.068 L 463.068 588.068"/>
<path d="M 464.489 588.068 L 465.909 588.068"/>
<path d="M 467.330 588.068 L 502.841 588.068"/>
<path d="M 681.818 588.068 L 688.920 588.068"/>
<path d="M 914.773 588.068 L 916.193 588.068"/>
<path d="M 917.614 588.068 L 924.716 588.068"/>
<path d="M 927.557 588.068 L 938.920 588.068"/>
<path d="M 113.636 592.330 L 132.102 592.330"/>
<path d="M 424.716 592.330 L 427.557 592.330"/>
<path d="M 430.398 592.330 L 468.750 592.330"/>
<path d="M 471.591 592.330 L 502.841 592.330"/>
<path d="M 504.261 592.330 L 507.102 592.330"/>
<path d="M 684.659 592.330 L 688.920 592.330"/>
<path d="M 921.875 592.330 L 940.341 592.330"/>
<path d="M 105.114 596.591 L 106.534 596.591"/>
<path d="M 109.375 596.591 L 110.795 596.591"/>
<path d="M 122.159 596.591 L 123.580 596.591"/>
<path d="M 126.420 596.591 L 127.841 596.591"/>
<path d="M 130.682 596.591 L 132.102 596.591"/>
<path d="M 433.239 596.591 L 463.068 596.591"/>
<path d="M 465.909 596.591 L 478.693 596.591"/>
<path d="M 480.114 596.591 L 482.955 596.591"/>
<path d="M 484.375 596.591 L 487.216 596.591"/>
<path d="M 488.636 596.591 L 507.102 596.591"/>
<path d="M 684.659 596.591 L 687.500 596.591"/>
<path d="M 924.716 596.591 L 938.920 596.591"/>
<path d="M 940.341 596.591 L 943.182 596.591"/>
<path d="M 100.852 600.852 L 102.273 600.852"/>
<path d="M 430.398 600.852 L 431.818 600.852"/>
<path d="M 434.659 600.852 L 436.080 600.852"/>
<path d="M 453.125 600.852 L 475.852 600.852"/>
<path d="M 494.318 600.852 L 507.102 600.852"/>
<path d="M 927.557 600.852 L 941.761 600.852"/>
<path d="M 943.182 600.852 L 944.602 600.852"/>
<path d="M 100.852 605.114 L 102.273 605.114"/>
<path d="M 433.239 605.114 L 436.080 605.114"/>
<path d="M 468.750 605.114 L 470.170 605.114"/>
<path d="M 471.591 605.114 L 473.011 605.114"/>
<path d="M 475.852 605.114 L 477.273 605.114"/>
<path d="M 491.477 605.114 L 509.943 605.114"/>
<path d="M 687.500 605.114 L 688.920 605.114"/>
<path d="M 927.557 605.114 L 946.023 605.114"/>
<path d="M 99.432 609.375 L 100.852 609.375"/>
<path d="M 102.273 609.375 L 103.693 609.375"/>
<path d="M 427.557 609.375 L 428.977 609.375"/>
<path d="M 478.693 609.375 L 511.364 609.375"/>
<path d="M 930.398 609.375 L 948.864 609.375"/>
<path d="M 102.273 613.636 L 105.114 613.636"/>
<path d="M 480.114 613.636 L 482.955 613.636"/>
<path d="M 485.795 613.636 L 491.477 613.636"/>
<path d="M 494.318 613.636 L 497.159 613.636"/>
<path d="M 500.000 613.636 L 504.261 613.636"/>
<path d="M 507.102 613.636 L 511.364 613.636"/>
<path d="M 930.398 613.636 L 950.284 613.636"/>
<path d="M 105.114 617.898 L 107.955 617.898"/>
<path d="M 109.375 617.898 L 110.795 617.898"/>
<path d="M 931.818 617.898 L 950.284 617.898"/>
<path d="M 106.534 622.159 L 112.216 622.159"/>
<path d="M 934.659 622.159 L 951.705 622.159"/>
<path d="M 107.955 626.420 L 115.057 626.420"/>
<path d="M 383.523 626.420 L 384.943 626.420"/>
<path d="M 936.080 626.420 L 951.705 626.420"/>
<path d="M 953.125 626.420 L 954.545 626.420"/>
<path d="M 109.375 630.682 L 119.318 630.682"/>
<path d="M 120.739 630.682 L 122.159 630.682"/>
<path d="M 384.943 630.682 L 387.784 630.682"/>
<path d="M 394.886 630.682 L 396.307 630.682"/>
<path d="M 937.500 630.682 L 948.864 630.682"/>
<path d="M 951.705 630.682 L 955.966 630.682"/>
<path d="M 98.011 634.943 L 100.852 634.943"/>
<path d="M 112.216 634.943 L 123.580 634.943"/>
<path d="M 389.205 634.943 L 397.727 634.943"/>
<path d="M 399.148 634.943 L 400.568 634.943"/>
<path d="M 443.182 634.943 L 446.023 634.943"/>
<path d="M 941.761 634.943 L 943.182 634.943"/>
<path d="M 944.602 634.943 L 951.705 634.943"/>
<path d="M 953.125 634.943 L 957.386 634.943"/>
<path d="M 100.852 639.205 L 102.273 639.205"/>
<path d="M 120.739 639.205 L 125.000 639.205"/>
<path d="M 380.682 639.205 L 383.523 639.205"/>
<path d="M 386.364 639.205 L 390.625 639.205"/>
<path d="M 393.466 639.205 L 397.727 639.205"/>
<path d="M 934.659 639.205 L 941.761 639.205"/>
<path d="M 943.182 639.205 L 948.864 639.205"/>
<path d="M 950.284 639.205 L 958.807 639.205"/>
<path d="M 102.273 643.466 L 105.114 643.466"/>
<path d="M 373.580 643.466 L 397.727 643.466"/>
<path d="M 448.864 643.466 L 450.284 643.466"/>
<path d="M 457.386 643.466 L 458.807 643.466"/>
<path d="M 940.341 643.466 L 947.443 643.466"/>
<path d="M 948.864 643.466 L 951.705 643.466"/>
<path d="M 954.545 643.466 L 958.807 643.466"/>
<path d="M 107.955 647.727 L 110.795 647.727"/>
<path d="M 373.580 647.727 L 399.148 647.727"/>
<path d="M 428.977 647.727 L 431.818 647.727"/>
<path d="M 437.500 647.727 L 444.602 647.727"/>
<path d="M 448.864 647.727 L 451.705 647.727"/>
<path d="M 943.182 647.727 L 948.864 647.727"/>
<path d="M 950.284 647.727 L 961.648 647.727"/>
<path d="M 110.795 651.989 L 117.898 651.989"/>
<path d="M 311.080 651.989 L 323.864 651.989"/>
<path d="M 328.125 651.989 L 329.545 651.989"/>
<path d="M 367.898 651.989 L 369.318 651.989"/>
<path d="M 372.159 651.989 L 399.148 651.989"/>
<path d="M 437.500 651.989 L 438.920 651.989"/>
<path d="M 943.182 651.989 L 961.648 651.989"/>
<path d="M 116.477 656.250 L 120.739 656.250"/>
<path d="M 308.239 656.250 L 329.545 656.250"/>
<path d="M 365.057 656.250 L 396.307 656.250"/>
<path d="M 946.023 656.250 L 957.386 656.250"/>
<path d="M 958.807 656.250 L 960.227 656.250"/>
<path d="M 113.636 660.511 L 117.898 660.511"/>
<path d="M 305.398 660.511 L 309.659 660.511"/>
<path d="M 313.920 660.511 L 315.341 660.511"/>
<path d="M 318.182 660.511 L 338.068 660.511"/>
<path d="M 366.477 660.511 L 383.523 660.511"/>
<path d="M 384.943 660.511 L 394.886 660.511"/>
<path d="M 941.761 660.511 L 943.182 660.511"/>
<path d="M 947.443 660.511 L 950.284 660.511"/>
<path d="M 953.125 660.511 L 960.227 660.511"/>
<path d="M 113.636 664.773 L 116.477 664.773"/>
<path d="M 305.398 664.773 L 336.648 664.773"/>
<path d="M 370.739 664.773 L 392.045 664.773"/>
<path d="M 393.466 664.773 L 399.148 664.773"/>
<path d="M 937.500 664.773 L 944.602 664.773"/>
<path d="M 950.284 664.773 L 960.227 664.773"/>
<path d="M 963.068 664.773 L 965.909 664.773"/>
<path d="M 311.080 669.034 L 335.227 669.034"/>
<path d="M 375.000 669.034 L 400.568 669.034"/>
<path d="M 936.080 669.034 L 941.761 669.034"/>
<path d="M 946.023 669.034 L 961.648 669.034"/>
<path d="M 220.170 673.295 L 221.591 673.295"/>
<path d="M 272.727 673.295 L 278.409 673.295"/>
<path d="M 316.761 673.295 L 325.284 673.295"/>
<path d="M 380.682 673.295 L 403.409 673.295"/>
<path d="M 924.716 673.295 L 943.182 673.295"/>
<path d="M 944.602 673.295 L 951.705 673.295"/>
<path d="M 957.386 673.295 L 960.227 673.295"/>
<path d="M 173.295 677.557 L 191.761 677.557"/>
<path d="M 196.023 677.557 L 200.284 677.557"/>
<path d="M 272.727 677.557 L 284.091 677.557"/>
<path d="M 380.682 677.557 L 410.511 677.557"/>
<path d="M 926.136 677.557 L 927.557 677.557"/>
<path d="M 928.977 677.557 L 931.818 677.557"/>
<path d="M 933.239 677.557 L 946.023 677.557"/>
<path d="M 953.125 677.557 L 958.807 677.557"/>
<path d="M 117.898 681.818 L 126.420 681.818"/>
<path d="M 153.409 681.818 L 205.966 681.818"/>
<path d="M 268.466 681.818 L 271.307 681.818"/>
<path d="M 274.148 681.818 L 282.670 681.818"/>
<path d="M 382.102 681.818 L 392.045 681.818"/>
<path d="M 393.466 681.818 L 411.932 681.818"/>
<path d="M 916.193 681.818 L 921.875 681.818"/>
<path d="M 930.398 681.818 L 931.818 681.818"/>
<path d="M 933.239 681.818 L 937.500 681.818"/>
<path d="M 953.125 681.818 L 958.807 681.818"/>
<path d="M 112.216 686.080 L 115.057 686.080"/>
<path d="M 125.000 686.080 L 136.364 686.080"/>
<path d="M 150.568 686.080 L 157.670 686.080"/>
<path d="M 170.455 686.080 L 171.875 686.080"/>
<path d="M 173.295 686.080 L 174.716 686.080"/>
<path d="M 205.966 686.080 L 221.591 686.080"/>
<path d="M 350.852 686.080 L 352.273 686.080"/>
<path d="M 380.682 686.080 L 390.625 686.080"/>
<path d="M 396.307 686.080 L 410.511 686.080"/>
<path d="M 904.830 686.080 L 916.193 686.080"/>
<path d="M 917.614 686.080 L 924.716 686.080"/>
<path d="M 926.136 686.080 L 930.398 686.080"/>
<path d="M 950.284 686.080 L 954.545 686.080"/>
<path d="M 110.795 690.341 L 112.216 690.341"/>
<path d="M 134.943 690.341 L 136.364 690.341"/>
<path d="M 149.148 690.341 L 151.989 690.341"/>
<path d="M 221.591 690.341 L 231.534 690.341"/>
<path d="M 248.580 690.341 L 250.000 690.341"/>
<path d="M 262.784 690.341 L 264.205 690.341"/>
<path d="M 338.068 690.341 L 356.534 690.341"/>
<path d="M 376.420 690.341 L 384.943 690.341"/>
<path d="M 387.784 690.341 L 389.205 690.341"/>
<path d="M 401.989 690.341 L 411.932 690.341"/>
<path d="M 892.045 690.341 L 896.307 690.341"/>
<path d="M 900.568 690.341 L 907.670 690.341"/>
<path d="M 909.091 690.341 L 921.875 690.341"/>
<path d="M 947.443 690.341 L 950.284 690.341"/>
<path d="M 95.170 694.602 L 96.591 694.602"/>
<path d="M 133.523 694.602 L 134.943 694.602"/>
<path d="M 143.466 694.602 L 146.307 694.602"/>
<path d="M 242.898 694.602 L 248.580 694.602"/>
<path d="M 276.989 694.602 L 278.409 694.602"/>
<path d="M 333.807 694.602 L 377.841 694.602"/>
<path d="M 401.989 694.602 L 410.511 694.602"/>
<path d="M 886.364 694.602 L 904.830 694.602"/>
<path d="M 906.250 694.602 L 914.773 694.602"/>
<path d="M 941.761 694.602 L 946.023 694.602"/>
<path d="M 132.102 698.864 L 133.523 698.864"/>
<path d="M 142.045 698.864 L 143.466 698.864"/>
<path d="M 257.102 698.864 L 258.523 698.864"/>
<path d="M 259.943 698.864 L 261.364 698.864"/>
<path d="M 306.818 698.864 L 309.659 698.864"/>
<path d="M 329.545 698.864 L 335.227 698.864"/>
<path d="M 401.989 698.864 L 410.511 698.864"/>
<path d="M 882.102 698.864 L 904.830 698.864"/>
<path d="M 906.250 698.864 L 907.670 698.864"/>
<path d="M 934.659 698.864 L 940.341 698.864"/>
<path d="M 265.625 703.125 L 271.307 703.125"/>
<path d="M 302.557 703.125 L 306.818 703.125"/>
<path d="M 308.239 703.125 L 309.659 703.125"/>
<path d="M 326.705 703.125 L 332.386 703.125"/>
<path d="M 335.227 703.125 L 336.648 703.125"/>
<path d="M 406.250 703.125 L 410.511 703.125"/>
<path d="M 857.955 703.125 L 859.375 703.125"/>
<path d="M 863.636 703.125 L 900.568 703.125"/>
<path d="M 927.557 703.125 L 934.659 703.125"/>
<path d="M 129.261 707.386 L 130.682 707.386"/>
<path d="M 272.727 707.386 L 278.409 707.386"/>
<path d="M 306.818 707.386 L 308.239 707.386"/>
<path d="M 325.284 707.386 L 329.545 707.386"/>
<path d="M 335.227 707.386 L 336.648 707.386"/>
<path d="M 407.670 707.386 L 413.352 707.386"/>
<path d="M 849.432 707.386 L 893.466 707.386"/>
<path d="M 921.875 707.386 L 926.136 707.386"/>
<path d="M 278.409 711.648 L 286.932 711.648"/>
<path d="M 306.818 711.648 L 308.239 711.648"/>
<path d="M 312.500 711.648 L 315.341 711.648"/>
<path d="M 318.182 711.648 L 323.864 711.648"/>
<path d="M 409.091 711.648 L 411.932 711.648"/>
<path d="M 838.068 711.648 L 869.318 711.648"/>
<path d="M 873.580 711.648 L 886.364 711.648"/>
<path d="M 913.352 711.648 L 917.614 711.648"/>
<path d="M 80.966 715.909 L 82.386 715.909"/>
<path d="M 186.080 715.909 L 187.500 715.909"/>
<path d="M 227.273 715.909 L 228.693 715.909"/>
<path d="M 240.057 715.909 L 241.477 715.909"/>
<path d="M 286.932 715.909 L 301.136 715.909"/>
<path d="M 302.557 715.909 L 316.761 715.909"/>
<path d="M 346.591 715.909 L 350.852 715.909"/>
<path d="M 383.523 715.909 L 384.943 715.909"/>
<path d="M 409.091 715.909 L 414.773 715.909"/>
<path d="M 826.705 715.909 L 842.330 715.909"/>
<path d="M 843.750 715.909 L 859.375 715.909"/>
<path d="M 906.250 715.909 L 909.091 715.909"/>
<path d="M 83.807 720.170 L 86.648 720.170"/>
<path d="M 88.068 720.170 L 90.909 720.170"/>
<path d="M 102.273 720.170 L 103.693 720.170"/>
<path d="M 244.318 720.170 L 245.739 720.170"/>
<path d="M 294.034 720.170 L 295.455 720.170"/>
<path d="M 296.875 720.170 L 299.716 720.170"/>
<path d="M 308.239 720.170 L 311.080 720.170"/>
<path d="M 342.330 720.170 L 343.750 720.170"/>
<path d="M 350.852 720.170 L 352.273 720.170"/>
<path d="M 410.511 720.170 L 414.773 720.170"/>
<path d="M 821.023 720.170 L 842.330 720.170"/>
<path d="M 843.750 720.170 L 855.114 720.170"/>
<path d="M 859.375 720.170 L 860.795 720.170"/>
<path d="M 863.636 720.170 L 866.477 720.170"/>
<path d="M 896.307 720.170 L 901.989 720.170"/>
<path d="M 93.750 724.432 L 99.432 724.432"/>
<path d="M 102.273 724.432 L 106.534 724.432"/>
<path d="M 160.511 724.432 L 161.932 724.432"/>
<path d="M 186.080 724.432 L 187.500 724.432"/>
<path d="M 193.182 724.432 L 196.023 724.432"/>
<path d="M 220.170 724.432 L 221.591 724.432"/>
<path d="M 224.432 724.432 L 225.852 724.432"/>
<path d="M 255.682 724.432 L 259.943 724.432"/>
<path d="M 413.352 724.432 L 416.193 724.432"/>
<path d="M 812.500 724.432 L 848.011 724.432"/>
<path d="M 852.273 724.432 L 857.955 724.432"/>
<path d="M 889.205 724.432 L 892.045 724.432"/>
<path d="M 113.636 728.693 L 117.898 728.693"/>
<path d="M 169.034 728.693 L 170.455 728.693"/>
<path d="M 183.239 728.693 L 184.659 728.693"/>
<path d="M 193.182 728.693 L 194.602 728.693"/>
<path d="M 221.591 728.693 L 223.011 728.693"/>
<path d="M 332.386 728.693 L 333.807 728.693"/>
<path d="M 413.352 728.693 L 417.614 728.693"/>
<path d="M 808.239 728.693 L 835.227 728.693"/>
<path d="M 840.909 728.693 L 843.750 728.693"/>
<path d="M 879.261 728.693 L 880.682 728.693"/>
<path d="M 156.250 732.955 L 157.670 732.955"/>
<path d="M 169.034 732.955 L 173.295 732.955"/>
<path d="M 275.568 732.955 L 276.989 732.955"/>
<path d="M 319.602 732.955 L 321.023 732.955"/>
<path d="M 416.193 732.955 L 420.455 732.955"/>
<path d="M 796.875 732.955 L 829.545 732.955"/>
<path d="M 830.966 732.955 L 832.386 732.955"/>
<path d="M 867.898 732.955 L 870.739 732.955"/>
<path d="M 156.250 737.216 L 159.091 737.216"/>
<path d="M 194.602 737.216 L 196.023 737.216"/>
<path d="M 282.670 737.216 L 295.455 737.216"/>
<path d="M 309.659 737.216 L 312.500 737.216"/>
<path d="M 419.034 737.216 L 421.875 737.216"/>
<path d="M 792.614 737.216 L 823.864 737.216"/>
<path d="M 856.534 737.216 L 859.375 737.216"/>
<path d="M 156.250 741.477 L 157.670 741.477"/>
<path d="M 420.455 741.477 L 423.295 741.477"/>
<path d="M 771.307 741.477 L 775.568 741.477"/>
<path d="M 778.409 741.477 L 812.500 741.477"/>
<path d="M 813.920 741.477 L 815.341 741.477"/>
<path d="M 842.330 741.477 L 850.852 741.477"/>
<path d="M 220.170 745.739 L 221.591 745.739"/>
<path d="M 421.875 745.739 L 427.557 745.739"/>
<path d="M 768.466 745.739 L 806.818 745.739"/>
<path d="M 832.386 745.739 L 835.227 745.739"/>
<path d="M 424.716 750.000 L 431.818 750.000"/>
<path d="M 764.205 750.000 L 794.034 750.000"/>
<path d="M 795.455 750.000 L 796.875 750.000"/>
<path d="M 822.443 750.000 L 826.705 750.000"/>
<path d="M 178.977 754.261 L 181.818 754.261"/>
<path d="M 430.398 754.261 L 438.920 754.261"/>
<path d="M 762.784 754.261 L 774.148 754.261"/>
<path d="M 775.568 754.261 L 789.773 754.261"/>
<path d="M 812.500 754.261 L 816.761 754.261"/>
<path d="M 157.670 758.523 L 164.773 758.523"/>
<path d="M 174.716 758.523 L 177.557 758.523"/>
<path d="M 213.068 758.523 L 214.489 758.523"/>
<path d="M 434.659 758.523 L 443.182 758.523"/>
<path d="M 762.784 758.523 L 774.148 758.523"/>
<path d="M 775.568 758.523 L 785.511 758.523"/>
<path d="M 802.557 758.523 L 806.818 758.523"/>
<path d="M 444.602 762.784 L 473.011 762.784"/>
<path d="M 764.205 762.784 L 768.466 762.784"/>
<path d="M 796.875 762.784 L 799.716 762.784"/>
<path d="M 204.545 767.045 L 205.966 767.045"/>
<path d="M 473.011 767.045 L 482.955 767.045"/>
<path d="M 762.784 767.045 L 767.045 767.045"/>
<path d="M 776.989 767.045 L 779.830 767.045"/>
<path d="M 786.932 767.045 L 791.193 767.045"/>
<path d="M 197.443 771.307 L 198.864 771.307"/>
<path d="M 203.125 771.307 L 204.545 771.307"/>
<path d="M 491.477 771.307 L 500.000 771.307"/>
<path d="M 757.102 771.307 L 758.523 771.307"/>
<path d="M 759.943 771.307 L 767.045 771.307"/>
<path d="M 778.409 771.307 L 782.670 771.307"/>
<path d="M 785.511 771.307 L 786.932 771.307"/>
<path d="M 187.500 775.568 L 188.920 775.568"/>
<path d="M 519.886 775.568 L 525.568 775.568"/>
<path d="M 526.989 775.568 L 538.352 775.568"/>
<path d="M 539.773 775.568 L 545.455 775.568"/>
<path d="M 549.716 775.568 L 551.136 775.568"/>
<path d="M 553.977 775.568 L 565.341 775.568"/>
<path d="M 757.102 775.568 L 764.205 775.568"/>
<path d="M 765.625 775.568 L 767.045 775.568"/>
<path d="M 436.080 779.830 L 437.500 779.830"/>
<path d="M 580.966 779.830 L 592.330 779.830"/>
<path d="M 593.750 779.830 L 595.170 779.830"/>
<path d="M 757.102 779.830 L 762.784 779.830"/>
<path d="M 448.864 784.091 L 451.705 784.091"/>
<path d="M 454.545 784.091 L 460.227 784.091"/>
<path d="M 602.273 784.091 L 610.795 784.091"/>
<path d="M 757.102 784.091 L 759.943 784.091"/>
<path d="M 470.170 788.352 L 471.591 788.352"/>
<path d="M 617.898 788.352 L 625.000 788.352"/>
<path d="M 754.261 788.352 L 758.523 788.352"/>
<path d="M 630.682 792.614 L 636.364 792.614"/>
<path d="M 752.841 792.614 L 757.102 792.614"/>
<path d="M 775.568 792.614 L 778.409 792.614"/>
<path d="M 514.205 796.875 L 517.045 796.875"/>
<path d="M 518.466 796.875 L 522.727 796.875"/>
<path d="M 642.045 796.875 L 646.307 796.875"/>
<path d="M 750.000 796.875 L 755.682 796.875"/>
<path d="M 775.568 796.875 L 776.989 796.875"/>
<path d="M 568.182 801.136 L 571.023 801.136"/>
<path d="M 650.568 801.136 L 653.409 801.136"/>
<path d="M 748.580 801.136 L 754.261 801.136"/>
<path d="M 774.148 801.136 L 775.568 801.136"/>
<path d="M 590.909 805.398 L 593.750 805.398"/>
<path d="M 656.250 805.398 L 660.511 805.398"/>
<path d="M 748.580 805.398 L 751.420 805.398"/>
<path d="M 769.886 805.398 L 771.307 805.398"/>
<path d="M 603.693 809.659 L 610.795 809.659"/>
<path d="M 660.511 809.659 L 666.193 809.659"/>
<path d="M 747.159 809.659 L 752.841 809.659"/>
<path d="M 620.739 813.920 L 622.159 813.920"/>
<path d="M 623.580 813.920 L 625.000 813.920"/>
<path d="M 663.352 813.920 L 667.614 813.920"/>
<path d="M 747.159 813.920 L 751.420 813.920"/>
<path d="M 630.682 818.182 L 633.523 818.182"/>
<path d="M 667.614 818.182 L 669.034 818.182"/>
<path d="M 747.159 818.182 L 752.841 818.182"/>
<path d="M 639.205 822.443 L 640.625 822.443"/>
<path d="M 667.614 822.443 L 670.455 822.443"/>
<path d="M 748.580 822.443 L 752.841 822.443"/>
<path d="M 669.034 826.705 L 670.455 826.705"/>
<path d="M 748.580 826.705 L 752.841 826.705"/>
<path d="M 671.875 830.966 L 673.295 830.966"/>
<path d="M 750.000 830.966 L 752.841 830.966"/>
<path d="M 671.875 835.227 L 676.136 835.227"/>
<path d="M 750.000 835.227 L 755.682 835.227"/>
<path d="M 676.136 839.489 L 677.557 839.489"/>
<path d="M 751.420 839.489 L 754.261 839.489"/>
<path d="M 676.136 843.750 L 677.557 843.750"/>
<path d="M 751.420 843.750 L 755.682 843.750"/>
<path d="M 676.136 848.011 L 680.398 848.011"/>
<path d="M 751.420 848.011 L 754.261 848.011"/>
<path d="M 676.136 852.273 L 681.818 852.273"/>
<path d="M 752.841 852.273 L 754.261 852.273"/>
<path d="M 678.977 856.534 L 681.818 856.534"/>
<path d="M 752.841 856.534 L 754.261 856.534"/>
<path d="M 678.977 860.795 L 683.239 860.795"/>
<path d="M 752.841 860.795 L 754.261 860.795"/>
<path d="M 680.398 865.057 L 681.818 865.057"/>
<path d="M 752.841 865.057 L 755.682 865.057"/>
<path d="M 680.398 869.318 L 681.818 869.318"/>
<path d="M 751.420 869.318 L 755.682 869.318"/>
<path d="M 678.977 873.580 L 683.239 873.580"/>
<path d="M 751.420 873.580 L 752.841 873.580"/>
<path d="M 680.398 877.841 L 683.239 877.841"/>
<path d="M 680.398 882.102 L 684.659 882.102"/>
<path d="M 748.580 882.102 L 751.420 882.102"/>
<path d="M 678.977 886.364 L 684.659 886.364"/>
<path d="M 681.818 890.625 L 684.659 890.625"/>
<path d="M 747.159 890.625 L 748.580 890.625"/>
<path d="M 680.398 894.886 L 686.080 894.886"/>
<path d="M 745.739 894.886 L 747.159 894.886"/>
<path d="M 681.818 899.148 L 688.920 899.148"/>
<path d="M 681.818 903.409 L 691.761 903.409"/>
<path d="M 740.057 903.409 L 741.477 903.409"/>
<path d="M 690.341 907.670 L 696.023 907.670"/>
<path d="M 735.795 907.670 L 738.636 907.670"/>
<path d="M 764.205 907.670 L 767.045 907.670"/>
<path d="M 694.602 911.932 L 704.545 911.932"/>
<path d="M 761.364 911.932 L 762.784 911.932"/>
<path d="M 759.943 916.193 L 761.364 916.193"/>
<path d="M 757.102 920.455 L 758.523 920.455"/>
<path d="M 686.080 928.977 L 688.920 928.977"/>
<path d="M 738.636 928.977 L 740.057 928.977"/>
<path d="M 744.318 928.977 L 745.739 928.977"/>
<path d="M 693.182 933.239 L 694.602 933.239"/>
<path d="M 696.023 933.239 L 697.443 933.239"/>
<path d="M 725.852 933.239 L 730.114 933.239"/>
<path d="M 737.216 933.239 L 738.636 933.239"/>
</g>
</svg>
