<?xml version="1.0" encoding="UTF-8"?>
<svg xmlns="http://www.w3.org/2000/svg" width="1000.000mm" height="944.602mm" viewBox="0 0 1000.000 944.602">
<metadata>HatchSmith © FIWAtec GmbH</metadata>
<rect x="0" y="0" width="100%" height="100%" fill="white"/>
<g id="11_layer_11" stroke="#EAEAEB" stroke-width="1.000" stroke-linecap="round" stroke-linejoin="round" fill="none">
<path d="M 592.330 46.875 L 598.011 46.875"/>
<path d="M 600.852 46.875 L 602.273 46.875"/>
<path d="M 605.114 46.875 L 607.955 46.875"/>
<path d="M 566.761 51.136 L 569.602 51.136"/>
<path d="M 637.784 51.136 L 640.625 51.136"/>
<path d="M 551.136 55.398 L 553.977 55.398"/>
<path d="M 651.989 55.398 L 653.409 55.398"/>
<path d="M 575.284 59.659 L 576.705 59.659"/>
<path d="M 578.125 59.659 L 579.545 59.659"/>
<path d="M 588.068 59.659 L 589.489 59.659"/>
<path d="M 620.739 59.659 L 622.159 59.659"/>
<path d="M 629.261 59.659 L 632.102 59.659"/>
<path d="M 572.443 63.920 L 576.705 63.920"/>
<path d="M 580.966 63.920 L 586.648 63.920"/>
<path d="M 598.011 63.920 L 605.114 63.920"/>
<path d="M 609.375 63.920 L 610.795 63.920"/>
<path d="M 613.636 63.920 L 623.580 63.920"/>
<path d="M 629.261 63.920 L 630.682 63.920"/>
<path d="M 632.102 63.920 L 634.943 63.920"/>
<path d="M 525.568 68.182 L 526.989 68.182"/>
<path d="M 545.455 68.182 L 551.136 68.182"/>
<path d="M 553.977 68.182 L 555.398 68.182"/>
<path d="M 558.239 68.182 L 572.443 68.182"/>
<path d="M 573.864 68.182 L 576.705 68.182"/>
<path d="M 578.125 68.182 L 593.750 68.182"/>
<path d="M 598.011 68.182 L 599.432 68.182"/>
<path d="M 602.273 68.182 L 603.693 68.182"/>
<path d="M 616.477 68.182 L 617.898 68.182"/>
<path d="M 625.000 68.182 L 629.261 68.182"/>
<path d="M 632.102 68.182 L 634.943 68.182"/>
<path d="M 642.045 68.182 L 646.307 68.182"/>
<path d="M 677.557 68.182 L 678.977 68.182"/>
<path d="M 519.886 72.443 L 521.307 72.443"/>
<path d="M 542.614 72.443 L 562.500 72.443"/>
<path d="M 566.761 72.443 L 568.182 72.443"/>
<path d="M 636.364 72.443 L 639.205 72.443"/>
<path d="M 640.625 72.443 L 643.466 72.443"/>
<path d="M 646.307 72.443 L 649.148 72.443"/>
<path d="M 536.932 76.705 L 545.455 76.705"/>
<path d="M 555.398 76.705 L 556.818 76.705"/>
<path d="M 651.989 76.705 L 654.830 76.705"/>
<path d="M 657.670 76.705 L 660.511 76.705"/>
<path d="M 664.773 76.705 L 667.614 76.705"/>
<path d="M 534.091 80.966 L 536.932 80.966"/>
<path d="M 659.091 80.966 L 661.932 80.966"/>
<path d="M 663.352 80.966 L 664.773 80.966"/>
<path d="M 671.875 80.966 L 674.716 80.966"/>
<path d="M 678.977 80.966 L 680.398 80.966"/>
<path d="M 519.886 85.227 L 522.727 85.227"/>
<path d="M 525.568 85.227 L 534.091 85.227"/>
<path d="M 669.034 85.227 L 680.398 85.227"/>
<path d="M 694.602 85.227 L 696.023 85.227"/>
<path d="M 511.364 89.489 L 514.205 89.489"/>
<path d="M 519.886 89.489 L 525.568 89.489"/>
<path d="M 671.875 89.489 L 673.295 89.489"/>
<path d="M 677.557 89.489 L 683.239 89.489"/>
<path d="M 511.364 93.750 L 517.045 93.750"/>
<path d="M 677.557 93.750 L 683.239 93.750"/>
<path d="M 698.864 93.750 L 701.705 93.750"/>
<path d="M 475.852 98.011 L 477.273 98.011"/>
<path d="M 497.159 98.011 L 502.841 98.011"/>
<path d="M 507.102 98.011 L 515.625 98.011"/>
<path d="M 683.239 98.011 L 686.080 98.011"/>
<path d="M 501.420 102.273 L 508.523 102.273"/>
<path d="M 684.659 102.273 L 693.182 102.273"/>
<path d="M 694.602 102.273 L 697.443 102.273"/>
<path d="M 460.227 106.534 L 461.648 106.534"/>
<path d="M 482.955 106.534 L 485.795 106.534"/>
<path d="M 487.216 106.534 L 490.057 106.534"/>
<path d="M 498.580 106.534 L 502.841 106.534"/>
<path d="M 684.659 106.534 L 686.080 106.534"/>
<path d="M 691.761 106.534 L 696.023 106.534"/>
<path d="M 487.216 110.795 L 488.636 110.795"/>
<path d="M 490.057 110.795 L 501.420 110.795"/>
<path d="M 502.841 110.795 L 505.682 110.795"/>
<path d="M 687.500 110.795 L 688.920 110.795"/>
<path d="M 691.761 110.795 L 697.443 110.795"/>
<path d="M 471.591 115.057 L 473.011 115.057"/>
<path d="M 478.693 115.057 L 481.534 115.057"/>
<path d="M 482.955 115.057 L 494.318 115.057"/>
<path d="M 495.739 115.057 L 497.159 115.057"/>
<path d="M 694.602 115.057 L 698.864 115.057"/>
<path d="M 434.659 119.318 L 436.080 119.318"/>
<path d="M 464.489 119.318 L 468.750 119.318"/>
<path d="M 473.011 119.318 L 474.432 119.318"/>
<path d="M 475.852 119.318 L 478.693 119.318"/>
<path d="M 480.114 119.318 L 481.534 119.318"/>
<path d="M 491.477 119.318 L 494.318 119.318"/>
<path d="M 497.159 119.318 L 498.580 119.318"/>
<path d="M 696.023 119.318 L 701.705 119.318"/>
<path d="M 458.807 123.580 L 461.648 123.580"/>
<path d="M 464.489 123.580 L 467.330 123.580"/>
<path d="M 468.750 123.580 L 470.170 123.580"/>
<path d="M 471.591 123.580 L 475.852 123.580"/>
<path d="M 698.864 123.580 L 700.284 123.580"/>
<path d="M 713.068 123.580 L 714.489 123.580"/>
<path d="M 433.239 127.841 L 434.659 127.841"/>
<path d="M 461.648 127.841 L 464.489 127.841"/>
<path d="M 465.909 127.841 L 468.750 127.841"/>
<path d="M 471.591 127.841 L 474.432 127.841"/>
<path d="M 697.443 127.841 L 701.705 127.841"/>
<path d="M 444.602 132.102 L 447.443 132.102"/>
<path d="M 453.125 132.102 L 455.966 132.102"/>
<path d="M 468.750 132.102 L 474.432 132.102"/>
<path d="M 703.125 132.102 L 704.545 132.102"/>
<path d="M 705.966 132.102 L 708.807 132.102"/>
<path d="M 436.080 136.364 L 441.761 136.364"/>
<path d="M 444.602 136.364 L 454.545 136.364"/>
<path d="M 467.330 136.364 L 477.273 136.364"/>
<path d="M 700.284 136.364 L 705.966 136.364"/>
<path d="M 715.909 136.364 L 717.330 136.364"/>
<path d="M 421.875 140.625 L 426.136 140.625"/>
<path d="M 430.398 140.625 L 461.648 140.625"/>
<path d="M 464.489 140.625 L 468.750 140.625"/>
<path d="M 471.591 140.625 L 480.114 140.625"/>
<path d="M 701.705 140.625 L 705.966 140.625"/>
<path d="M 717.330 140.625 L 718.750 140.625"/>
<path d="M 416.193 144.886 L 420.455 144.886"/>
<path d="M 423.295 144.886 L 426.136 144.886"/>
<path d="M 427.557 144.886 L 446.023 144.886"/>
<path d="M 448.864 144.886 L 454.545 144.886"/>
<path d="M 457.386 144.886 L 464.489 144.886"/>
<path d="M 480.114 144.886 L 485.795 144.886"/>
<path d="M 703.125 144.886 L 708.807 144.886"/>
<path d="M 715.909 144.886 L 718.750 144.886"/>
<path d="M 380.682 149.148 L 382.102 149.148"/>
<path d="M 414.773 149.148 L 421.875 149.148"/>
<path d="M 423.295 149.148 L 426.136 149.148"/>
<path d="M 427.557 149.148 L 431.818 149.148"/>
<path d="M 704.545 149.148 L 711.648 149.148"/>
<path d="M 715.909 149.148 L 718.750 149.148"/>
<path d="M 372.159 153.409 L 373.580 153.409"/>
<path d="M 404.830 153.409 L 414.773 153.409"/>
<path d="M 416.193 153.409 L 420.455 153.409"/>
<path d="M 704.545 153.409 L 711.648 153.409"/>
<path d="M 717.330 153.409 L 718.750 153.409"/>
<path d="M 392.045 157.670 L 394.886 157.670"/>
<path d="M 399.148 157.670 L 409.091 157.670"/>
<path d="M 705.966 157.670 L 707.386 157.670"/>
<path d="M 718.750 157.670 L 721.591 157.670"/>
<path d="M 384.943 161.932 L 386.364 161.932"/>
<path d="M 392.045 161.932 L 397.727 161.932"/>
<path d="M 399.148 161.932 L 403.409 161.932"/>
<path d="M 704.545 161.932 L 710.227 161.932"/>
<path d="M 720.170 161.932 L 721.591 161.932"/>
<path d="M 383.523 166.193 L 386.364 166.193"/>
<path d="M 389.205 166.193 L 393.466 166.193"/>
<path d="M 704.545 166.193 L 710.227 166.193"/>
<path d="M 717.330 166.193 L 720.170 166.193"/>
<path d="M 377.841 170.455 L 383.523 170.455"/>
<path d="M 384.943 170.455 L 386.364 170.455"/>
<path d="M 703.125 170.455 L 717.330 170.455"/>
<path d="M 718.750 170.455 L 720.170 170.455"/>
<path d="M 721.591 170.455 L 723.011 170.455"/>
<path d="M 377.841 174.716 L 379.261 174.716"/>
<path d="M 703.125 174.716 L 711.648 174.716"/>
<path d="M 718.750 174.716 L 721.591 174.716"/>
<path d="M 373.580 178.977 L 376.420 178.977"/>
<path d="M 703.125 178.977 L 715.909 178.977"/>
<path d="M 717.330 178.977 L 721.591 178.977"/>
<path d="M 373.580 183.239 L 376.420 183.239"/>
<path d="M 380.682 183.239 L 382.102 183.239"/>
<path d="M 703.125 183.239 L 704.545 183.239"/>
<path d="M 705.966 183.239 L 715.909 183.239"/>
<path d="M 375.000 187.500 L 379.261 187.500"/>
<path d="M 704.545 187.500 L 711.648 187.500"/>
<path d="M 715.909 187.500 L 718.750 187.500"/>
<path d="M 375.000 191.761 L 376.420 191.761"/>
<path d="M 379.261 191.761 L 382.102 191.761"/>
<path d="M 700.284 191.761 L 701.705 191.761"/>
<path d="M 703.125 191.761 L 707.386 191.761"/>
<path d="M 708.807 191.761 L 711.648 191.761"/>
<path d="M 714.489 191.761 L 717.330 191.761"/>
<path d="M 720.170 191.761 L 721.591 191.761"/>
<path d="M 383.523 196.023 L 392.045 196.023"/>
<path d="M 403.409 196.023 L 409.091 196.023"/>
<path d="M 703.125 196.023 L 708.807 196.023"/>
<path d="M 382.102 200.284 L 384.943 200.284"/>
<path d="M 389.205 200.284 L 393.466 200.284"/>
<path d="M 394.886 200.284 L 407.670 200.284"/>
<path d="M 703.125 200.284 L 704.545 200.284"/>
<path d="M 705.966 200.284 L 711.648 200.284"/>
<path d="M 401.989 204.545 L 404.830 204.545"/>
<path d="M 698.864 204.545 L 710.227 204.545"/>
<path d="M 734.375 204.545 L 735.795 204.545"/>
<path d="M 399.148 208.807 L 403.409 208.807"/>
<path d="M 704.545 208.807 L 715.909 208.807"/>
<path d="M 392.045 213.068 L 393.466 213.068"/>
<path d="M 394.886 213.068 L 396.307 213.068"/>
<path d="M 707.386 213.068 L 714.489 213.068"/>
<path d="M 715.909 213.068 L 717.330 213.068"/>
<path d="M 718.750 213.068 L 721.591 213.068"/>
<path d="M 724.432 213.068 L 725.852 213.068"/>
<path d="M 389.205 217.330 L 394.886 217.330"/>
<path d="M 720.170 217.330 L 728.693 217.330"/>
<path d="M 377.841 221.591 L 380.682 221.591"/>
<path d="M 382.102 221.591 L 383.523 221.591"/>
<path d="M 384.943 221.591 L 392.045 221.591"/>
<path d="M 448.864 221.591 L 451.705 221.591"/>
<path d="M 730.114 221.591 L 738.636 221.591"/>
<path d="M 363.636 225.852 L 366.477 225.852"/>
<path d="M 369.318 225.852 L 375.000 225.852"/>
<path d="M 376.420 225.852 L 379.261 225.852"/>
<path d="M 382.102 225.852 L 383.523 225.852"/>
<path d="M 440.341 225.852 L 443.182 225.852"/>
<path d="M 444.602 225.852 L 451.705 225.852"/>
<path d="M 730.114 225.852 L 731.534 225.852"/>
<path d="M 734.375 225.852 L 740.057 225.852"/>
<path d="M 356.534 230.114 L 359.375 230.114"/>
<path d="M 360.795 230.114 L 370.739 230.114"/>
<path d="M 373.580 230.114 L 375.000 230.114"/>
<path d="M 434.659 230.114 L 437.500 230.114"/>
<path d="M 440.341 230.114 L 443.182 230.114"/>
<path d="M 742.898 230.114 L 745.739 230.114"/>
<path d="M 357.955 234.375 L 360.795 234.375"/>
<path d="M 363.636 234.375 L 365.057 234.375"/>
<path d="M 428.977 234.375 L 433.239 234.375"/>
<path d="M 742.898 234.375 L 747.159 234.375"/>
<path d="M 352.273 238.636 L 356.534 238.636"/>
<path d="M 357.955 238.636 L 359.375 238.636"/>
<path d="M 426.136 238.636 L 427.557 238.636"/>
<path d="M 750.000 238.636 L 752.841 238.636"/>
<path d="M 346.591 242.898 L 353.693 242.898"/>
<path d="M 426.136 242.898 L 427.557 242.898"/>
<path d="M 444.602 242.898 L 446.023 242.898"/>
<path d="M 349.432 247.159 L 350.852 247.159"/>
<path d="M 352.273 247.159 L 353.693 247.159"/>
<path d="M 433.239 247.159 L 434.659 247.159"/>
<path d="M 752.841 247.159 L 759.943 247.159"/>
<path d="M 349.432 251.420 L 350.852 251.420"/>
<path d="M 754.261 251.420 L 755.682 251.420"/>
<path d="M 769.886 251.420 L 771.307 251.420"/>
<path d="M 348.011 255.682 L 350.852 255.682"/>
<path d="M 754.261 255.682 L 758.523 255.682"/>
<path d="M 346.591 259.943 L 352.273 259.943"/>
<path d="M 757.102 259.943 L 761.364 259.943"/>
<path d="M 348.011 264.205 L 349.432 264.205"/>
<path d="M 352.273 264.205 L 353.693 264.205"/>
<path d="M 461.648 264.205 L 463.068 264.205"/>
<path d="M 758.523 264.205 L 759.943 264.205"/>
<path d="M 348.011 268.466 L 353.693 268.466"/>
<path d="M 455.966 268.466 L 457.386 268.466"/>
<path d="M 768.466 268.466 L 769.886 268.466"/>
<path d="M 781.250 268.466 L 782.670 268.466"/>
<path d="M 343.750 272.727 L 352.273 272.727"/>
<path d="M 762.784 272.727 L 768.466 272.727"/>
<path d="M 771.307 272.727 L 774.148 272.727"/>
<path d="M 345.170 276.989 L 346.591 276.989"/>
<path d="M 348.011 276.989 L 349.432 276.989"/>
<path d="M 369.318 276.989 L 370.739 276.989"/>
<path d="M 765.625 276.989 L 769.886 276.989"/>
<path d="M 791.193 276.989 L 792.614 276.989"/>
<path d="M 343.750 281.250 L 348.011 281.250"/>
<path d="M 359.375 281.250 L 360.795 281.250"/>
<path d="M 366.477 281.250 L 367.898 281.250"/>
<path d="M 768.466 281.250 L 775.568 281.250"/>
<path d="M 778.409 281.250 L 779.830 281.250"/>
<path d="M 342.330 285.511 L 346.591 285.511"/>
<path d="M 771.307 285.511 L 775.568 285.511"/>
<path d="M 778.409 285.511 L 781.250 285.511"/>
<path d="M 336.648 289.773 L 345.170 289.773"/>
<path d="M 776.989 289.773 L 779.830 289.773"/>
<path d="M 801.136 289.773 L 802.557 289.773"/>
<path d="M 335.227 294.034 L 342.330 294.034"/>
<path d="M 569.602 294.034 L 571.023 294.034"/>
<path d="M 781.250 294.034 L 782.670 294.034"/>
<path d="M 336.648 298.295 L 342.330 298.295"/>
<path d="M 571.023 298.295 L 573.864 298.295"/>
<path d="M 782.670 298.295 L 789.773 298.295"/>
<path d="M 794.034 298.295 L 795.455 298.295"/>
<path d="M 805.398 298.295 L 806.818 298.295"/>
<path d="M 332.386 302.557 L 343.750 302.557"/>
<path d="M 556.818 302.557 L 561.080 302.557"/>
<path d="M 563.920 302.557 L 566.761 302.557"/>
<path d="M 573.864 302.557 L 576.705 302.557"/>
<path d="M 784.091 302.557 L 788.352 302.557"/>
<path d="M 789.773 302.557 L 792.614 302.557"/>
<path d="M 333.807 306.818 L 343.750 306.818"/>
<path d="M 346.591 306.818 L 348.011 306.818"/>
<path d="M 563.920 306.818 L 565.341 306.818"/>
<path d="M 566.761 306.818 L 569.602 306.818"/>
<path d="M 571.023 306.818 L 575.284 306.818"/>
<path d="M 576.705 306.818 L 578.125 306.818"/>
<path d="M 789.773 306.818 L 791.193 306.818"/>
<path d="M 333.807 311.080 L 339.489 311.080"/>
<path d="M 340.909 311.080 L 343.750 311.080"/>
<path d="M 552.557 311.080 L 553.977 311.080"/>
<path d="M 562.500 311.080 L 572.443 311.080"/>
<path d="M 791.193 311.080 L 792.614 311.080"/>
<path d="M 794.034 311.080 L 796.875 311.080"/>
<path d="M 323.864 315.341 L 325.284 315.341"/>
<path d="M 328.125 315.341 L 339.489 315.341"/>
<path d="M 340.909 315.341 L 343.750 315.341"/>
<path d="M 544.034 315.341 L 548.295 315.341"/>
<path d="M 562.500 315.341 L 571.023 315.341"/>
<path d="M 792.614 315.341 L 796.875 315.341"/>
<path d="M 318.182 319.602 L 319.602 319.602"/>
<path d="M 321.023 319.602 L 322.443 319.602"/>
<path d="M 326.705 319.602 L 335.227 319.602"/>
<path d="M 541.193 319.602 L 544.034 319.602"/>
<path d="M 559.659 319.602 L 569.602 319.602"/>
<path d="M 798.295 319.602 L 799.716 319.602"/>
<path d="M 802.557 319.602 L 803.977 319.602"/>
<path d="M 303.977 323.864 L 308.239 323.864"/>
<path d="M 313.920 323.864 L 316.761 323.864"/>
<path d="M 318.182 323.864 L 328.125 323.864"/>
<path d="M 329.545 323.864 L 338.068 323.864"/>
<path d="M 535.511 323.864 L 539.773 323.864"/>
<path d="M 544.034 323.864 L 553.977 323.864"/>
<path d="M 569.602 323.864 L 572.443 323.864"/>
<path d="M 798.295 323.864 L 799.716 323.864"/>
<path d="M 801.136 323.864 L 803.977 323.864"/>
<path d="M 811.080 323.864 L 812.500 323.864"/>
<path d="M 815.341 323.864 L 816.761 323.864"/>
<path d="M 291.193 328.125 L 292.614 328.125"/>
<path d="M 305.398 328.125 L 311.080 328.125"/>
<path d="M 313.920 328.125 L 329.545 328.125"/>
<path d="M 335.227 328.125 L 338.068 328.125"/>
<path d="M 531.250 328.125 L 535.511 328.125"/>
<path d="M 536.932 328.125 L 545.455 328.125"/>
<path d="M 548.295 328.125 L 555.398 328.125"/>
<path d="M 795.455 328.125 L 799.716 328.125"/>
<path d="M 805.398 328.125 L 806.818 328.125"/>
<path d="M 811.080 328.125 L 813.920 328.125"/>
<path d="M 815.341 328.125 L 819.602 328.125"/>
<path d="M 308.239 332.386 L 319.602 332.386"/>
<path d="M 322.443 332.386 L 333.807 332.386"/>
<path d="M 522.727 332.386 L 524.148 332.386"/>
<path d="M 529.830 332.386 L 531.250 332.386"/>
<path d="M 534.091 332.386 L 552.557 332.386"/>
<path d="M 555.398 332.386 L 556.818 332.386"/>
<path d="M 795.455 332.386 L 796.875 332.386"/>
<path d="M 801.136 332.386 L 802.557 332.386"/>
<path d="M 806.818 332.386 L 808.239 332.386"/>
<path d="M 811.080 332.386 L 812.500 332.386"/>
<path d="M 813.920 332.386 L 815.341 332.386"/>
<path d="M 818.182 332.386 L 819.602 332.386"/>
<path d="M 259.943 336.648 L 261.364 336.648"/>
<path d="M 284.091 336.648 L 285.511 336.648"/>
<path d="M 302.557 336.648 L 303.977 336.648"/>
<path d="M 305.398 336.648 L 306.818 336.648"/>
<path d="M 309.659 336.648 L 315.341 336.648"/>
<path d="M 319.602 336.648 L 321.023 336.648"/>
<path d="M 512.784 336.648 L 517.045 336.648"/>
<path d="M 525.568 336.648 L 532.670 336.648"/>
<path d="M 534.091 336.648 L 542.614 336.648"/>
<path d="M 544.034 336.648 L 546.875 336.648"/>
<path d="M 548.295 336.648 L 553.977 336.648"/>
<path d="M 794.034 336.648 L 796.875 336.648"/>
<path d="M 806.818 336.648 L 808.239 336.648"/>
<path d="M 816.761 336.648 L 818.182 336.648"/>
<path d="M 113.636 340.909 L 115.057 340.909"/>
<path d="M 289.773 340.909 L 303.977 340.909"/>
<path d="M 311.080 340.909 L 315.341 340.909"/>
<path d="M 318.182 340.909 L 319.602 340.909"/>
<path d="M 526.989 340.909 L 532.670 340.909"/>
<path d="M 535.511 340.909 L 542.614 340.909"/>
<path d="M 789.773 340.909 L 798.295 340.909"/>
<path d="M 799.716 340.909 L 806.818 340.909"/>
<path d="M 816.761 340.909 L 818.182 340.909"/>
<path d="M 83.807 345.170 L 85.227 345.170"/>
<path d="M 120.739 345.170 L 122.159 345.170"/>
<path d="M 282.670 345.170 L 296.875 345.170"/>
<path d="M 303.977 345.170 L 308.239 345.170"/>
<path d="M 526.989 345.170 L 541.193 345.170"/>
<path d="M 546.875 345.170 L 548.295 345.170"/>
<path d="M 788.352 345.170 L 794.034 345.170"/>
<path d="M 795.455 345.170 L 802.557 345.170"/>
<path d="M 815.341 345.170 L 819.602 345.170"/>
<path d="M 244.318 349.432 L 247.159 349.432"/>
<path d="M 282.670 349.432 L 285.511 349.432"/>
<path d="M 286.932 349.432 L 294.034 349.432"/>
<path d="M 504.261 349.432 L 509.943 349.432"/>
<path d="M 511.364 349.432 L 512.784 349.432"/>
<path d="M 524.148 349.432 L 536.932 349.432"/>
<path d="M 542.614 349.432 L 545.455 349.432"/>
<path d="M 782.670 349.432 L 789.773 349.432"/>
<path d="M 791.193 349.432 L 795.455 349.432"/>
<path d="M 796.875 349.432 L 799.716 349.432"/>
<path d="M 815.341 349.432 L 816.761 349.432"/>
<path d="M 271.307 353.693 L 272.727 353.693"/>
<path d="M 276.989 353.693 L 279.830 353.693"/>
<path d="M 281.250 353.693 L 282.670 353.693"/>
<path d="M 511.364 353.693 L 514.205 353.693"/>
<path d="M 518.466 353.693 L 532.670 353.693"/>
<path d="M 535.511 353.693 L 538.352 353.693"/>
<path d="M 782.670 353.693 L 798.295 353.693"/>
<path d="M 815.341 353.693 L 816.761 353.693"/>
<path d="M 235.795 357.955 L 240.057 357.955"/>
<path d="M 250.000 357.955 L 252.841 357.955"/>
<path d="M 274.148 357.955 L 278.409 357.955"/>
<path d="M 279.830 357.955 L 284.091 357.955"/>
<path d="M 507.102 357.955 L 511.364 357.955"/>
<path d="M 531.250 357.955 L 534.091 357.955"/>
<path d="M 536.932 357.955 L 538.352 357.955"/>
<path d="M 782.670 357.955 L 795.455 357.955"/>
<path d="M 812.500 357.955 L 815.341 357.955"/>
<path d="M 72.443 362.216 L 73.864 362.216"/>
<path d="M 98.011 362.216 L 99.432 362.216"/>
<path d="M 106.534 362.216 L 107.955 362.216"/>
<path d="M 223.011 362.216 L 227.273 362.216"/>
<path d="M 232.955 362.216 L 237.216 362.216"/>
<path d="M 251.420 362.216 L 254.261 362.216"/>
<path d="M 255.682 362.216 L 262.784 362.216"/>
<path d="M 265.625 362.216 L 276.989 362.216"/>
<path d="M 505.682 362.216 L 507.102 362.216"/>
<path d="M 514.205 362.216 L 515.625 362.216"/>
<path d="M 522.727 362.216 L 526.989 362.216"/>
<path d="M 782.670 362.216 L 791.193 362.216"/>
<path d="M 806.818 362.216 L 809.659 362.216"/>
<path d="M 92.330 366.477 L 93.750 366.477"/>
<path d="M 96.591 366.477 L 98.011 366.477"/>
<path d="M 99.432 366.477 L 100.852 366.477"/>
<path d="M 109.375 366.477 L 112.216 366.477"/>
<path d="M 116.477 366.477 L 117.898 366.477"/>
<path d="M 164.773 366.477 L 170.455 366.477"/>
<path d="M 208.807 366.477 L 230.114 366.477"/>
<path d="M 231.534 366.477 L 234.375 366.477"/>
<path d="M 238.636 366.477 L 240.057 366.477"/>
<path d="M 242.898 366.477 L 244.318 366.477"/>
<path d="M 245.739 366.477 L 247.159 366.477"/>
<path d="M 504.261 366.477 L 505.682 366.477"/>
<path d="M 511.364 366.477 L 514.205 366.477"/>
<path d="M 517.045 366.477 L 522.727 366.477"/>
<path d="M 536.932 366.477 L 539.773 366.477"/>
<path d="M 778.409 366.477 L 782.670 366.477"/>
<path d="M 784.091 366.477 L 786.932 366.477"/>
<path d="M 789.773 366.477 L 791.193 366.477"/>
<path d="M 805.398 366.477 L 809.659 366.477"/>
<path d="M 99.432 370.739 L 105.114 370.739"/>
<path d="M 106.534 370.739 L 109.375 370.739"/>
<path d="M 117.898 370.739 L 123.580 370.739"/>
<path d="M 169.034 370.739 L 177.557 370.739"/>
<path d="M 188.920 370.739 L 191.761 370.739"/>
<path d="M 198.864 370.739 L 201.705 370.739"/>
<path d="M 204.545 370.739 L 211.648 370.739"/>
<path d="M 501.420 370.739 L 502.841 370.739"/>
<path d="M 511.364 370.739 L 512.784 370.739"/>
<path d="M 514.205 370.739 L 515.625 370.739"/>
<path d="M 518.466 370.739 L 521.307 370.739"/>
<path d="M 522.727 370.739 L 524.148 370.739"/>
<path d="M 778.409 370.739 L 786.932 370.739"/>
<path d="M 788.352 370.739 L 792.614 370.739"/>
<path d="M 803.977 370.739 L 805.398 370.739"/>
<path d="M 25.568 375.000 L 26.989 375.000"/>
<path d="M 88.068 375.000 L 90.909 375.000"/>
<path d="M 98.011 375.000 L 112.216 375.000"/>
<path d="M 113.636 375.000 L 115.057 375.000"/>
<path d="M 117.898 375.000 L 122.159 375.000"/>
<path d="M 129.261 375.000 L 137.784 375.000"/>
<path d="M 142.045 375.000 L 143.466 375.000"/>
<path d="M 150.568 375.000 L 157.670 375.000"/>
<path d="M 164.773 375.000 L 166.193 375.000"/>
<path d="M 169.034 375.000 L 170.455 375.000"/>
<path d="M 178.977 375.000 L 181.818 375.000"/>
<path d="M 187.500 375.000 L 200.284 375.000"/>
<path d="M 207.386 375.000 L 208.807 375.000"/>
<path d="M 532.670 375.000 L 536.932 375.000"/>
<path d="M 779.830 375.000 L 788.352 375.000"/>
<path d="M 792.614 375.000 L 795.455 375.000"/>
<path d="M 796.875 375.000 L 801.136 375.000"/>
<path d="M 103.693 379.261 L 122.159 379.261"/>
<path d="M 125.000 379.261 L 126.420 379.261"/>
<path d="M 137.784 379.261 L 139.205 379.261"/>
<path d="M 140.625 379.261 L 156.250 379.261"/>
<path d="M 167.614 379.261 L 170.455 379.261"/>
<path d="M 178.977 379.261 L 181.818 379.261"/>
<path d="M 186.080 379.261 L 187.500 379.261"/>
<path d="M 188.920 379.261 L 194.602 379.261"/>
<path d="M 515.625 379.261 L 522.727 379.261"/>
<path d="M 782.670 379.261 L 789.773 379.261"/>
<path d="M 794.034 379.261 L 795.455 379.261"/>
<path d="M 103.693 383.523 L 106.534 383.523"/>
<path d="M 122.159 383.523 L 130.682 383.523"/>
<path d="M 133.523 383.523 L 134.943 383.523"/>
<path d="M 136.364 383.523 L 137.784 383.523"/>
<path d="M 150.568 383.523 L 176.136 383.523"/>
<path d="M 178.977 383.523 L 186.080 383.523"/>
<path d="M 509.943 383.523 L 512.784 383.523"/>
<path d="M 524.148 383.523 L 526.989 383.523"/>
<path d="M 779.830 383.523 L 786.932 383.523"/>
<path d="M 791.193 383.523 L 798.295 383.523"/>
<path d="M 69.602 387.784 L 71.023 387.784"/>
<path d="M 89.489 387.784 L 99.432 387.784"/>
<path d="M 100.852 387.784 L 102.273 387.784"/>
<path d="M 103.693 387.784 L 107.955 387.784"/>
<path d="M 126.420 387.784 L 130.682 387.784"/>
<path d="M 134.943 387.784 L 139.205 387.784"/>
<path d="M 142.045 387.784 L 144.886 387.784"/>
<path d="M 146.307 387.784 L 153.409 387.784"/>
<path d="M 167.614 387.784 L 181.818 387.784"/>
<path d="M 502.841 387.784 L 505.682 387.784"/>
<path d="M 508.523 387.784 L 517.045 387.784"/>
<path d="M 521.307 387.784 L 524.148 387.784"/>
<path d="M 784.091 387.784 L 789.773 387.784"/>
<path d="M 56.818 392.045 L 58.239 392.045"/>
<path d="M 63.920 392.045 L 65.341 392.045"/>
<path d="M 71.023 392.045 L 89.489 392.045"/>
<path d="M 92.330 392.045 L 98.011 392.045"/>
<path d="M 99.432 392.045 L 107.955 392.045"/>
<path d="M 123.580 392.045 L 125.000 392.045"/>
<path d="M 126.420 392.045 L 133.523 392.045"/>
<path d="M 134.943 392.045 L 136.364 392.045"/>
<path d="M 139.205 392.045 L 153.409 392.045"/>
<path d="M 164.773 392.045 L 167.614 392.045"/>
<path d="M 169.034 392.045 L 177.557 392.045"/>
<path d="M 180.398 392.045 L 187.500 392.045"/>
<path d="M 491.477 392.045 L 497.159 392.045"/>
<path d="M 782.670 392.045 L 792.614 392.045"/>
<path d="M 799.716 392.045 L 801.136 392.045"/>
<path d="M 31.250 396.307 L 32.670 396.307"/>
<path d="M 58.239 396.307 L 65.341 396.307"/>
<path d="M 68.182 396.307 L 69.602 396.307"/>
<path d="M 72.443 396.307 L 73.864 396.307"/>
<path d="M 76.705 396.307 L 82.386 396.307"/>
<path d="M 85.227 396.307 L 88.068 396.307"/>
<path d="M 89.489 396.307 L 92.330 396.307"/>
<path d="M 93.750 396.307 L 115.057 396.307"/>
<path d="M 116.477 396.307 L 125.000 396.307"/>
<path d="M 127.841 396.307 L 132.102 396.307"/>
<path d="M 134.943 396.307 L 139.205 396.307"/>
<path d="M 143.466 396.307 L 144.886 396.307"/>
<path d="M 147.727 396.307 L 149.148 396.307"/>
<path d="M 151.989 396.307 L 154.830 396.307"/>
<path d="M 159.091 396.307 L 160.511 396.307"/>
<path d="M 161.932 396.307 L 169.034 396.307"/>
<path d="M 180.398 396.307 L 181.818 396.307"/>
<path d="M 183.239 396.307 L 194.602 396.307"/>
<path d="M 200.284 396.307 L 203.125 396.307"/>
<path d="M 210.227 396.307 L 211.648 396.307"/>
<path d="M 492.898 396.307 L 495.739 396.307"/>
<path d="M 505.682 396.307 L 508.523 396.307"/>
<path d="M 511.364 396.307 L 517.045 396.307"/>
<path d="M 785.511 396.307 L 792.614 396.307"/>
<path d="M 795.455 396.307 L 801.136 396.307"/>
<path d="M 31.250 400.568 L 34.091 400.568"/>
<path d="M 72.443 400.568 L 73.864 400.568"/>
<path d="M 89.489 400.568 L 90.909 400.568"/>
<path d="M 93.750 400.568 L 105.114 400.568"/>
<path d="M 106.534 400.568 L 125.000 400.568"/>
<path d="M 143.466 400.568 L 146.307 400.568"/>
<path d="M 149.148 400.568 L 153.409 400.568"/>
<path d="M 156.250 400.568 L 161.932 400.568"/>
<path d="M 184.659 400.568 L 207.386 400.568"/>
<path d="M 265.625 400.568 L 267.045 400.568"/>
<path d="M 502.841 400.568 L 505.682 400.568"/>
<path d="M 789.773 400.568 L 796.875 400.568"/>
<path d="M 801.136 400.568 L 802.557 400.568"/>
<path d="M 32.670 404.830 L 35.511 404.830"/>
<path d="M 100.852 404.830 L 106.534 404.830"/>
<path d="M 107.955 404.830 L 109.375 404.830"/>
<path d="M 112.216 404.830 L 123.580 404.830"/>
<path d="M 149.148 404.830 L 154.830 404.830"/>
<path d="M 156.250 404.830 L 161.932 404.830"/>
<path d="M 163.352 404.830 L 170.455 404.830"/>
<path d="M 187.500 404.830 L 201.705 404.830"/>
<path d="M 204.545 404.830 L 207.386 404.830"/>
<path d="M 509.943 404.830 L 512.784 404.830"/>
<path d="M 785.511 404.830 L 791.193 404.830"/>
<path d="M 792.614 404.830 L 794.034 404.830"/>
<path d="M 795.455 404.830 L 798.295 404.830"/>
<path d="M 801.136 404.830 L 802.557 404.830"/>
<path d="M 34.091 409.091 L 41.193 409.091"/>
<path d="M 109.375 409.091 L 112.216 409.091"/>
<path d="M 113.636 409.091 L 117.898 409.091"/>
<path d="M 153.409 409.091 L 157.670 409.091"/>
<path d="M 159.091 409.091 L 169.034 409.091"/>
<path d="M 196.023 409.091 L 204.545 409.091"/>
<path d="M 788.352 409.091 L 789.773 409.091"/>
<path d="M 791.193 409.091 L 795.455 409.091"/>
<path d="M 798.295 409.091 L 803.977 409.091"/>
<path d="M 26.989 413.352 L 28.409 413.352"/>
<path d="M 36.932 413.352 L 46.875 413.352"/>
<path d="M 116.477 413.352 L 120.739 413.352"/>
<path d="M 159.091 413.352 L 160.511 413.352"/>
<path d="M 163.352 413.352 L 167.614 413.352"/>
<path d="M 187.500 413.352 L 196.023 413.352"/>
<path d="M 197.443 413.352 L 201.705 413.352"/>
<path d="M 504.261 413.352 L 505.682 413.352"/>
<path d="M 781.250 413.352 L 782.670 413.352"/>
<path d="M 789.773 413.352 L 792.614 413.352"/>
<path d="M 795.455 413.352 L 805.398 413.352"/>
<path d="M 806.818 413.352 L 808.239 413.352"/>
<path d="M 31.250 417.614 L 35.511 417.614"/>
<path d="M 36.932 417.614 L 39.773 417.614"/>
<path d="M 41.193 417.614 L 55.398 417.614"/>
<path d="M 56.818 417.614 L 58.239 417.614"/>
<path d="M 161.932 417.614 L 167.614 417.614"/>
<path d="M 794.034 417.614 L 799.716 417.614"/>
<path d="M 803.977 417.614 L 806.818 417.614"/>
<path d="M 38.352 421.875 L 41.193 421.875"/>
<path d="M 49.716 421.875 L 63.920 421.875"/>
<path d="M 65.341 421.875 L 69.602 421.875"/>
<path d="M 72.443 421.875 L 75.284 421.875"/>
<path d="M 159.091 421.875 L 160.511 421.875"/>
<path d="M 161.932 421.875 L 166.193 421.875"/>
<path d="M 509.943 421.875 L 511.364 421.875"/>
<path d="M 529.830 421.875 L 531.250 421.875"/>
<path d="M 795.455 421.875 L 809.659 421.875"/>
<path d="M 48.295 426.136 L 56.818 426.136"/>
<path d="M 58.239 426.136 L 61.080 426.136"/>
<path d="M 65.341 426.136 L 71.023 426.136"/>
<path d="M 72.443 426.136 L 79.545 426.136"/>
<path d="M 156.250 426.136 L 157.670 426.136"/>
<path d="M 796.875 426.136 L 798.295 426.136"/>
<path d="M 799.716 426.136 L 809.659 426.136"/>
<path d="M 59.659 430.398 L 61.080 430.398"/>
<path d="M 63.920 430.398 L 65.341 430.398"/>
<path d="M 66.761 430.398 L 68.182 430.398"/>
<path d="M 71.023 430.398 L 75.284 430.398"/>
<path d="M 80.966 430.398 L 83.807 430.398"/>
<path d="M 89.489 430.398 L 90.909 430.398"/>
<path d="M 799.716 430.398 L 805.398 430.398"/>
<path d="M 808.239 430.398 L 809.659 430.398"/>
<path d="M 811.080 430.398 L 812.500 430.398"/>
<path d="M 28.409 434.659 L 29.830 434.659"/>
<path d="M 32.670 434.659 L 34.091 434.659"/>
<path d="M 51.136 434.659 L 66.761 434.659"/>
<path d="M 68.182 434.659 L 71.023 434.659"/>
<path d="M 80.966 434.659 L 83.807 434.659"/>
<path d="M 85.227 434.659 L 86.648 434.659"/>
<path d="M 502.841 434.659 L 504.261 434.659"/>
<path d="M 799.716 434.659 L 811.080 434.659"/>
<path d="M 45.455 438.920 L 55.398 438.920"/>
<path d="M 58.239 438.920 L 66.761 438.920"/>
<path d="M 88.068 438.920 L 89.489 438.920"/>
<path d="M 90.909 438.920 L 95.170 438.920"/>
<path d="M 99.432 438.920 L 100.852 438.920"/>
<path d="M 485.795 438.920 L 487.216 438.920"/>
<path d="M 801.136 438.920 L 806.818 438.920"/>
<path d="M 811.080 438.920 L 812.500 438.920"/>
<path d="M 48.295 443.182 L 49.716 443.182"/>
<path d="M 52.557 443.182 L 55.398 443.182"/>
<path d="M 89.489 443.182 L 95.170 443.182"/>
<path d="M 500.000 443.182 L 501.420 443.182"/>
<path d="M 799.716 443.182 L 802.557 443.182"/>
<path d="M 806.818 443.182 L 813.920 443.182"/>
<path d="M 36.932 447.443 L 38.352 447.443"/>
<path d="M 48.295 447.443 L 55.398 447.443"/>
<path d="M 802.557 447.443 L 803.977 447.443"/>
<path d="M 805.398 447.443 L 806.818 447.443"/>
<path d="M 808.239 447.443 L 813.920 447.443"/>
<path d="M 41.193 451.705 L 42.614 451.705"/>
<path d="M 49.716 451.705 L 55.398 451.705"/>
<path d="M 802.557 451.705 L 803.977 451.705"/>
<path d="M 805.398 451.705 L 813.920 451.705"/>
<path d="M 44.034 455.966 L 53.977 455.966"/>
<path d="M 606.534 455.966 L 609.375 455.966"/>
<path d="M 803.977 455.966 L 813.920 455.966"/>
<path d="M 815.341 455.966 L 816.761 455.966"/>
<path d="M 35.511 460.227 L 36.932 460.227"/>
<path d="M 52.557 460.227 L 53.977 460.227"/>
<path d="M 55.398 460.227 L 59.659 460.227"/>
<path d="M 605.114 460.227 L 606.534 460.227"/>
<path d="M 803.977 460.227 L 813.920 460.227"/>
<path d="M 815.341 460.227 L 816.761 460.227"/>
<path d="M 36.932 464.489 L 38.352 464.489"/>
<path d="M 46.875 464.489 L 48.295 464.489"/>
<path d="M 51.136 464.489 L 55.398 464.489"/>
<path d="M 58.239 464.489 L 65.341 464.489"/>
<path d="M 802.557 464.489 L 811.080 464.489"/>
<path d="M 812.500 464.489 L 815.341 464.489"/>
<path d="M 51.136 468.750 L 52.557 468.750"/>
<path d="M 53.977 468.750 L 72.443 468.750"/>
<path d="M 593.750 468.750 L 598.011 468.750"/>
<path d="M 606.534 468.750 L 609.375 468.750"/>
<path d="M 806.818 468.750 L 816.761 468.750"/>
<path d="M 52.557 473.011 L 61.080 473.011"/>
<path d="M 62.500 473.011 L 75.284 473.011"/>
<path d="M 590.909 473.011 L 592.330 473.011"/>
<path d="M 595.170 473.011 L 602.273 473.011"/>
<path d="M 603.693 473.011 L 606.534 473.011"/>
<path d="M 607.955 473.011 L 610.795 473.011"/>
<path d="M 805.398 473.011 L 818.182 473.011"/>
<path d="M 58.239 477.273 L 78.125 477.273"/>
<path d="M 603.693 477.273 L 606.534 477.273"/>
<path d="M 806.818 477.273 L 809.659 477.273"/>
<path d="M 811.080 477.273 L 821.023 477.273"/>
<path d="M 48.295 481.534 L 51.136 481.534"/>
<path d="M 55.398 481.534 L 56.818 481.534"/>
<path d="M 71.023 481.534 L 82.386 481.534"/>
<path d="M 809.659 481.534 L 825.284 481.534"/>
<path d="M 52.557 485.795 L 53.977 485.795"/>
<path d="M 69.602 485.795 L 73.864 485.795"/>
<path d="M 75.284 485.795 L 80.966 485.795"/>
<path d="M 809.659 485.795 L 813.920 485.795"/>
<path d="M 815.341 485.795 L 826.705 485.795"/>
<path d="M 828.125 485.795 L 829.545 485.795"/>
<path d="M 830.966 485.795 L 832.386 485.795"/>
<path d="M 59.659 490.057 L 61.080 490.057"/>
<path d="M 68.182 490.057 L 79.545 490.057"/>
<path d="M 812.500 490.057 L 823.864 490.057"/>
<path d="M 828.125 490.057 L 833.807 490.057"/>
<path d="M 835.227 490.057 L 836.648 490.057"/>
<path d="M 72.443 494.318 L 73.864 494.318"/>
<path d="M 816.761 494.318 L 818.182 494.318"/>
<path d="M 821.023 494.318 L 839.489 494.318"/>
<path d="M 840.909 494.318 L 843.750 494.318"/>
<path d="M 68.182 498.580 L 72.443 498.580"/>
<path d="M 73.864 498.580 L 78.125 498.580"/>
<path d="M 823.864 498.580 L 840.909 498.580"/>
<path d="M 846.591 498.580 L 848.011 498.580"/>
<path d="M 71.023 502.841 L 78.125 502.841"/>
<path d="M 832.386 502.841 L 856.534 502.841"/>
<path d="M 69.602 507.102 L 73.864 507.102"/>
<path d="M 75.284 507.102 L 78.125 507.102"/>
<path d="M 835.227 507.102 L 836.648 507.102"/>
<path d="M 839.489 507.102 L 845.170 507.102"/>
<path d="M 846.591 507.102 L 857.955 507.102"/>
<path d="M 859.375 507.102 L 860.795 507.102"/>
<path d="M 66.761 511.364 L 72.443 511.364"/>
<path d="M 73.864 511.364 L 80.966 511.364"/>
<path d="M 839.489 511.364 L 840.909 511.364"/>
<path d="M 846.591 511.364 L 856.534 511.364"/>
<path d="M 859.375 511.364 L 862.216 511.364"/>
<path d="M 865.057 511.364 L 872.159 511.364"/>
<path d="M 71.023 515.625 L 80.966 515.625"/>
<path d="M 83.807 515.625 L 85.227 515.625"/>
<path d="M 850.852 515.625 L 860.795 515.625"/>
<path d="M 862.216 515.625 L 865.057 515.625"/>
<path d="M 869.318 515.625 L 872.159 515.625"/>
<path d="M 876.420 515.625 L 877.841 515.625"/>
<path d="M 879.261 515.625 L 880.682 515.625"/>
<path d="M 73.864 519.886 L 76.705 519.886"/>
<path d="M 79.545 519.886 L 80.966 519.886"/>
<path d="M 839.489 519.886 L 840.909 519.886"/>
<path d="M 852.273 519.886 L 882.102 519.886"/>
<path d="M 883.523 519.886 L 884.943 519.886"/>
<path d="M 72.443 524.148 L 83.807 524.148"/>
<path d="M 86.648 524.148 L 88.068 524.148"/>
<path d="M 865.057 524.148 L 870.739 524.148"/>
<path d="M 872.159 524.148 L 890.625 524.148"/>
<path d="M 73.864 528.409 L 86.648 528.409"/>
<path d="M 446.023 528.409 L 447.443 528.409"/>
<path d="M 872.159 528.409 L 893.466 528.409"/>
<path d="M 79.545 532.670 L 82.386 532.670"/>
<path d="M 83.807 532.670 L 90.909 532.670"/>
<path d="M 872.159 532.670 L 876.420 532.670"/>
<path d="M 880.682 532.670 L 882.102 532.670"/>
<path d="M 884.943 532.670 L 892.045 532.670"/>
<path d="M 893.466 532.670 L 899.148 532.670"/>
<path d="M 88.068 536.932 L 95.170 536.932"/>
<path d="M 437.500 536.932 L 440.341 536.932"/>
<path d="M 882.102 536.932 L 900.568 536.932"/>
<path d="M 901.989 536.932 L 903.409 536.932"/>
<path d="M 88.068 541.193 L 95.170 541.193"/>
<path d="M 434.659 541.193 L 438.920 541.193"/>
<path d="M 889.205 541.193 L 896.307 541.193"/>
<path d="M 897.727 541.193 L 899.148 541.193"/>
<path d="M 901.989 541.193 L 907.670 541.193"/>
<path d="M 86.648 545.455 L 88.068 545.455"/>
<path d="M 93.750 545.455 L 98.011 545.455"/>
<path d="M 887.784 545.455 L 889.205 545.455"/>
<path d="M 892.045 545.455 L 901.989 545.455"/>
<path d="M 903.409 545.455 L 907.670 545.455"/>
<path d="M 909.091 545.455 L 910.511 545.455"/>
<path d="M 93.750 549.716 L 99.432 549.716"/>
<path d="M 100.852 549.716 L 103.693 549.716"/>
<path d="M 440.341 549.716 L 443.182 549.716"/>
<path d="M 474.432 549.716 L 475.852 549.716"/>
<path d="M 894.886 549.716 L 900.568 549.716"/>
<path d="M 901.989 549.716 L 916.193 549.716"/>
<path d="M 917.614 549.716 L 919.034 549.716"/>
<path d="M 90.909 553.977 L 102.273 553.977"/>
<path d="M 105.114 553.977 L 106.534 553.977"/>
<path d="M 892.045 553.977 L 893.466 553.977"/>
<path d="M 899.148 553.977 L 901.989 553.977"/>
<path d="M 903.409 553.977 L 916.193 553.977"/>
<path d="M 86.648 558.239 L 90.909 558.239"/>
<path d="M 93.750 558.239 L 100.852 558.239"/>
<path d="M 107.955 558.239 L 109.375 558.239"/>
<path d="M 909.091 558.239 L 921.875 558.239"/>
<path d="M 82.386 562.500 L 83.807 562.500"/>
<path d="M 90.909 562.500 L 96.591 562.500"/>
<path d="M 911.932 562.500 L 913.352 562.500"/>
<path d="M 917.614 562.500 L 924.716 562.500"/>
<path d="M 89.489 566.761 L 92.330 566.761"/>
<path d="M 95.170 566.761 L 96.591 566.761"/>
<path d="M 419.034 566.761 L 420.455 566.761"/>
<path d="M 901.989 566.761 L 903.409 566.761"/>
<path d="M 919.034 566.761 L 920.455 566.761"/>
<path d="M 90.909 571.023 L 93.750 571.023"/>
<path d="M 95.170 571.023 L 96.591 571.023"/>
<path d="M 923.295 571.023 L 927.557 571.023"/>
<path d="M 930.398 571.023 L 931.818 571.023"/>
<path d="M 80.966 575.284 L 82.386 575.284"/>
<path d="M 95.170 575.284 L 102.273 575.284"/>
<path d="M 100.852 579.545 L 109.375 579.545"/>
<path d="M 102.273 583.807 L 115.057 583.807"/>
<path d="M 931.818 583.807 L 933.239 583.807"/>
<path d="M 102.273 588.068 L 112.216 588.068"/>
<path d="M 119.318 588.068 L 120.739 588.068"/>
<path d="M 924.716 588.068 L 927.557 588.068"/>
<path d="M 938.920 588.068 L 940.341 588.068"/>
<path d="M 99.432 592.330 L 100.852 592.330"/>
<path d="M 102.273 592.330 L 113.636 592.330"/>
<path d="M 468.750 592.330 L 471.591 592.330"/>
<path d="M 98.011 596.591 L 105.114 596.591"/>
<path d="M 106.534 596.591 L 109.375 596.591"/>
<path d="M 938.920 596.591 L 940.341 596.591"/>
<path d="M 99.432 600.852 L 100.852 600.852"/>
<path d="M 941.761 600.852 L 943.182 600.852"/>
<path d="M 944.602 600.852 L 946.023 600.852"/>
<path d="M 93.750 605.114 L 98.011 605.114"/>
<path d="M 99.432 605.114 L 100.852 605.114"/>
<path d="M 946.023 605.114 L 947.443 605.114"/>
<path d="M 95.170 609.375 L 99.432 609.375"/>
<path d="M 80.966 613.636 L 82.386 613.636"/>
<path d="M 98.011 613.636 L 102.273 613.636"/>
<path d="M 98.011 617.898 L 105.114 617.898"/>
<path d="M 98.011 622.159 L 99.432 622.159"/>
<path d="M 100.852 622.159 L 106.534 622.159"/>
<path d="M 953.125 622.159 L 954.545 622.159"/>
<path d="M 103.693 626.420 L 107.955 626.420"/>
<path d="M 951.705 626.420 L 953.125 626.420"/>
<path d="M 954.545 626.420 L 955.966 626.420"/>
<path d="M 96.591 630.682 L 99.432 630.682"/>
<path d="M 107.955 630.682 L 109.375 630.682"/>
<path d="M 948.864 630.682 L 951.705 630.682"/>
<path d="M 96.591 634.943 L 98.011 634.943"/>
<path d="M 951.705 634.943 L 953.125 634.943"/>
<path d="M 957.386 634.943 L 958.807 634.943"/>
<path d="M 95.170 639.205 L 100.852 639.205"/>
<path d="M 119.318 639.205 L 120.739 639.205"/>
<path d="M 948.864 639.205 L 950.284 639.205"/>
<path d="M 98.011 643.466 L 102.273 643.466"/>
<path d="M 951.705 643.466 L 954.545 643.466"/>
<path d="M 100.852 647.727 L 107.955 647.727"/>
<path d="M 948.864 647.727 L 950.284 647.727"/>
<path d="M 102.273 651.989 L 110.795 651.989"/>
<path d="M 105.114 656.250 L 116.477 656.250"/>
<path d="M 961.648 656.250 L 963.068 656.250"/>
<path d="M 105.114 660.511 L 113.636 660.511"/>
<path d="M 961.648 660.511 L 967.330 660.511"/>
<path d="M 103.693 664.773 L 106.534 664.773"/>
<path d="M 109.375 664.773 L 113.636 664.773"/>
<path d="M 960.227 664.773 L 963.068 664.773"/>
<path d="M 965.909 664.773 L 970.170 664.773"/>
<path d="M 109.375 669.034 L 113.636 669.034"/>
<path d="M 961.648 669.034 L 971.591 669.034"/>
<path d="M 960.227 673.295 L 967.330 673.295"/>
<path d="M 98.011 677.557 L 100.852 677.557"/>
<path d="M 958.807 677.557 L 965.909 677.557"/>
<path d="M 90.909 681.818 L 95.170 681.818"/>
<path d="M 392.045 681.818 L 393.466 681.818"/>
<path d="M 958.807 681.818 L 963.068 681.818"/>
<path d="M 115.057 686.080 L 125.000 686.080"/>
<path d="M 157.670 686.080 L 170.455 686.080"/>
<path d="M 171.875 686.080 L 173.295 686.080"/>
<path d="M 174.716 686.080 L 205.966 686.080"/>
<path d="M 390.625 686.080 L 396.307 686.080"/>
<path d="M 954.545 686.080 L 958.807 686.080"/>
<path d="M 85.227 690.341 L 86.648 690.341"/>
<path d="M 112.216 690.341 L 116.477 690.341"/>
<path d="M 117.898 690.341 L 134.943 690.341"/>
<path d="M 151.989 690.341 L 221.591 690.341"/>
<path d="M 384.943 690.341 L 387.784 690.341"/>
<path d="M 389.205 690.341 L 401.989 690.341"/>
<path d="M 950.284 690.341 L 953.125 690.341"/>
<path d="M 86.648 694.602 L 95.170 694.602"/>
<path d="M 103.693 694.602 L 117.898 694.602"/>
<path d="M 120.739 694.602 L 122.159 694.602"/>
<path d="M 126.420 694.602 L 133.523 694.602"/>
<path d="M 146.307 694.602 L 242.898 694.602"/>
<path d="M 248.580 694.602 L 251.420 694.602"/>
<path d="M 377.841 694.602 L 401.989 694.602"/>
<path d="M 946.023 694.602 L 950.284 694.602"/>
<path d="M 90.909 698.864 L 99.432 698.864"/>
<path d="M 102.273 698.864 L 106.534 698.864"/>
<path d="M 127.841 698.864 L 132.102 698.864"/>
<path d="M 133.523 698.864 L 134.943 698.864"/>
<path d="M 143.466 698.864 L 213.068 698.864"/>
<path d="M 234.375 698.864 L 257.102 698.864"/>
<path d="M 258.523 698.864 L 259.943 698.864"/>
<path d="M 335.227 698.864 L 401.989 698.864"/>
<path d="M 904.830 698.864 L 906.250 698.864"/>
<path d="M 940.341 698.864 L 941.761 698.864"/>
<path d="M 943.182 698.864 L 946.023 698.864"/>
<path d="M 127.841 703.125 L 132.102 703.125"/>
<path d="M 142.045 703.125 L 150.568 703.125"/>
<path d="M 151.989 703.125 L 159.091 703.125"/>
<path d="M 166.193 703.125 L 169.034 703.125"/>
<path d="M 171.875 703.125 L 180.398 703.125"/>
<path d="M 184.659 703.125 L 197.443 703.125"/>
<path d="M 200.284 703.125 L 203.125 703.125"/>
<path d="M 251.420 703.125 L 265.625 703.125"/>
<path d="M 332.386 703.125 L 335.227 703.125"/>
<path d="M 336.648 703.125 L 406.250 703.125"/>
<path d="M 934.659 703.125 L 936.080 703.125"/>
<path d="M 139.205 707.386 L 144.886 707.386"/>
<path d="M 169.034 707.386 L 178.977 707.386"/>
<path d="M 181.818 707.386 L 200.284 707.386"/>
<path d="M 257.102 707.386 L 272.727 707.386"/>
<path d="M 278.409 707.386 L 279.830 707.386"/>
<path d="M 329.545 707.386 L 335.227 707.386"/>
<path d="M 336.648 707.386 L 407.670 707.386"/>
<path d="M 926.136 707.386 L 933.239 707.386"/>
<path d="M 132.102 711.648 L 140.625 711.648"/>
<path d="M 170.455 711.648 L 171.875 711.648"/>
<path d="M 181.818 711.648 L 187.500 711.648"/>
<path d="M 194.602 711.648 L 200.284 711.648"/>
<path d="M 267.045 711.648 L 278.409 711.648"/>
<path d="M 323.864 711.648 L 387.784 711.648"/>
<path d="M 390.625 711.648 L 409.091 711.648"/>
<path d="M 869.318 711.648 L 873.580 711.648"/>
<path d="M 917.614 711.648 L 920.455 711.648"/>
<path d="M 76.705 715.909 L 80.966 715.909"/>
<path d="M 82.386 715.909 L 83.807 715.909"/>
<path d="M 169.034 715.909 L 173.295 715.909"/>
<path d="M 181.818 715.909 L 186.080 715.909"/>
<path d="M 194.602 715.909 L 201.705 715.909"/>
<path d="M 225.852 715.909 L 227.273 715.909"/>
<path d="M 241.477 715.909 L 242.898 715.909"/>
<path d="M 274.148 715.909 L 286.932 715.909"/>
<path d="M 316.761 715.909 L 346.591 715.909"/>
<path d="M 399.148 715.909 L 409.091 715.909"/>
<path d="M 842.330 715.909 L 843.750 715.909"/>
<path d="M 859.375 715.909 L 876.420 715.909"/>
<path d="M 909.091 715.909 L 911.932 715.909"/>
<path d="M 79.545 720.170 L 80.966 720.170"/>
<path d="M 82.386 720.170 L 83.807 720.170"/>
<path d="M 86.648 720.170 L 88.068 720.170"/>
<path d="M 103.693 720.170 L 106.534 720.170"/>
<path d="M 163.352 720.170 L 171.875 720.170"/>
<path d="M 177.557 720.170 L 186.080 720.170"/>
<path d="M 194.602 720.170 L 203.125 720.170"/>
<path d="M 220.170 720.170 L 223.011 720.170"/>
<path d="M 250.000 720.170 L 251.420 720.170"/>
<path d="M 279.830 720.170 L 294.034 720.170"/>
<path d="M 295.455 720.170 L 296.875 720.170"/>
<path d="M 299.716 720.170 L 308.239 720.170"/>
<path d="M 311.080 720.170 L 342.330 720.170"/>
<path d="M 352.273 720.170 L 353.693 720.170"/>
<path d="M 399.148 720.170 L 410.511 720.170"/>
<path d="M 842.330 720.170 L 843.750 720.170"/>
<path d="M 855.114 720.170 L 859.375 720.170"/>
<path d="M 860.795 720.170 L 863.636 720.170"/>
<path d="M 901.989 720.170 L 906.250 720.170"/>
<path d="M 89.489 724.432 L 93.750 724.432"/>
<path d="M 110.795 724.432 L 112.216 724.432"/>
<path d="M 154.830 724.432 L 159.091 724.432"/>
<path d="M 167.614 724.432 L 186.080 724.432"/>
<path d="M 196.023 724.432 L 198.864 724.432"/>
<path d="M 218.750 724.432 L 220.170 724.432"/>
<path d="M 225.852 724.432 L 227.273 724.432"/>
<path d="M 250.000 724.432 L 255.682 724.432"/>
<path d="M 284.091 724.432 L 339.489 724.432"/>
<path d="M 343.750 724.432 L 345.170 724.432"/>
<path d="M 403.409 724.432 L 413.352 724.432"/>
<path d="M 848.011 724.432 L 852.273 724.432"/>
<path d="M 892.045 724.432 L 896.307 724.432"/>
<path d="M 106.534 728.693 L 113.636 728.693"/>
<path d="M 151.989 728.693 L 157.670 728.693"/>
<path d="M 170.455 728.693 L 183.239 728.693"/>
<path d="M 184.659 728.693 L 186.080 728.693"/>
<path d="M 197.443 728.693 L 198.864 728.693"/>
<path d="M 217.330 728.693 L 220.170 728.693"/>
<path d="M 262.784 728.693 L 268.466 728.693"/>
<path d="M 291.193 728.693 L 332.386 728.693"/>
<path d="M 403.409 728.693 L 413.352 728.693"/>
<path d="M 835.227 728.693 L 840.909 728.693"/>
<path d="M 880.682 728.693 L 884.943 728.693"/>
<path d="M 119.318 732.955 L 123.580 732.955"/>
<path d="M 153.409 732.955 L 156.250 732.955"/>
<path d="M 173.295 732.955 L 178.977 732.955"/>
<path d="M 194.602 732.955 L 200.284 732.955"/>
<path d="M 218.750 732.955 L 221.591 732.955"/>
<path d="M 272.727 732.955 L 275.568 732.955"/>
<path d="M 276.989 732.955 L 278.409 732.955"/>
<path d="M 292.614 732.955 L 319.602 732.955"/>
<path d="M 329.545 732.955 L 330.966 732.955"/>
<path d="M 406.250 732.955 L 416.193 732.955"/>
<path d="M 829.545 732.955 L 830.966 732.955"/>
<path d="M 870.739 732.955 L 876.420 732.955"/>
<path d="M 153.409 737.216 L 156.250 737.216"/>
<path d="M 196.023 737.216 L 201.705 737.216"/>
<path d="M 312.500 737.216 L 315.341 737.216"/>
<path d="M 406.250 737.216 L 419.034 737.216"/>
<path d="M 859.375 737.216 L 863.636 737.216"/>
<path d="M 150.568 741.477 L 156.250 741.477"/>
<path d="M 197.443 741.477 L 201.705 741.477"/>
<path d="M 220.170 741.477 L 221.591 741.477"/>
<path d="M 407.670 741.477 L 420.455 741.477"/>
<path d="M 812.500 741.477 L 813.920 741.477"/>
<path d="M 850.852 741.477 L 852.273 741.477"/>
<path d="M 151.989 745.739 L 156.250 745.739"/>
<path d="M 194.602 745.739 L 201.705 745.739"/>
<path d="M 218.750 745.739 L 220.170 745.739"/>
<path d="M 410.511 745.739 L 421.875 745.739"/>
<path d="M 835.227 745.739 L 838.068 745.739"/>
<path d="M 150.568 750.000 L 154.830 750.000"/>
<path d="M 193.182 750.000 L 198.864 750.000"/>
<path d="M 217.330 750.000 L 218.750 750.000"/>
<path d="M 401.989 750.000 L 404.830 750.000"/>
<path d="M 411.932 750.000 L 424.716 750.000"/>
<path d="M 794.034 750.000 L 795.455 750.000"/>
<path d="M 826.705 750.000 L 829.545 750.000"/>
<path d="M 151.989 754.261 L 157.670 754.261"/>
<path d="M 181.818 754.261 L 197.443 754.261"/>
<path d="M 407.670 754.261 L 411.932 754.261"/>
<path d="M 416.193 754.261 L 430.398 754.261"/>
<path d="M 774.148 754.261 L 775.568 754.261"/>
<path d="M 816.761 754.261 L 818.182 754.261"/>
<path d="M 151.989 758.523 L 157.670 758.523"/>
<path d="M 177.557 758.523 L 193.182 758.523"/>
<path d="M 215.909 758.523 L 217.330 758.523"/>
<path d="M 417.614 758.523 L 434.659 758.523"/>
<path d="M 774.148 758.523 L 775.568 758.523"/>
<path d="M 806.818 758.523 L 808.239 758.523"/>
<path d="M 153.409 762.784 L 187.500 762.784"/>
<path d="M 411.932 762.784 L 413.352 762.784"/>
<path d="M 417.614 762.784 L 444.602 762.784"/>
<path d="M 768.466 762.784 L 782.670 762.784"/>
<path d="M 799.716 762.784 L 802.557 762.784"/>
<path d="M 154.830 767.045 L 187.500 767.045"/>
<path d="M 208.807 767.045 L 210.227 767.045"/>
<path d="M 416.193 767.045 L 417.614 767.045"/>
<path d="M 427.557 767.045 L 473.011 767.045"/>
<path d="M 767.045 767.045 L 776.989 767.045"/>
<path d="M 791.193 767.045 L 792.614 767.045"/>
<path d="M 150.568 771.307 L 151.989 771.307"/>
<path d="M 154.830 771.307 L 176.136 771.307"/>
<path d="M 178.977 771.307 L 187.500 771.307"/>
<path d="M 196.023 771.307 L 197.443 771.307"/>
<path d="M 419.034 771.307 L 423.295 771.307"/>
<path d="M 430.398 771.307 L 491.477 771.307"/>
<path d="M 767.045 771.307 L 778.409 771.307"/>
<path d="M 786.932 771.307 L 788.352 771.307"/>
<path d="M 154.830 775.568 L 187.500 775.568"/>
<path d="M 193.182 775.568 L 194.602 775.568"/>
<path d="M 428.977 775.568 L 431.818 775.568"/>
<path d="M 434.659 775.568 L 519.886 775.568"/>
<path d="M 525.568 775.568 L 526.989 775.568"/>
<path d="M 538.352 775.568 L 539.773 775.568"/>
<path d="M 545.455 775.568 L 549.716 775.568"/>
<path d="M 551.136 775.568 L 553.977 775.568"/>
<path d="M 764.205 775.568 L 765.625 775.568"/>
<path d="M 767.045 775.568 L 785.511 775.568"/>
<path d="M 150.568 779.830 L 157.670 779.830"/>
<path d="M 159.091 779.830 L 180.398 779.830"/>
<path d="M 184.659 779.830 L 186.080 779.830"/>
<path d="M 437.500 779.830 L 448.864 779.830"/>
<path d="M 454.545 779.830 L 580.966 779.830"/>
<path d="M 592.330 779.830 L 593.750 779.830"/>
<path d="M 762.784 779.830 L 784.091 779.830"/>
<path d="M 160.511 784.091 L 161.932 784.091"/>
<path d="M 164.773 784.091 L 166.193 784.091"/>
<path d="M 167.614 784.091 L 174.716 784.091"/>
<path d="M 447.443 784.091 L 448.864 784.091"/>
<path d="M 451.705 784.091 L 454.545 784.091"/>
<path d="M 460.227 784.091 L 465.909 784.091"/>
<path d="M 500.000 784.091 L 505.682 784.091"/>
<path d="M 522.727 784.091 L 553.977 784.091"/>
<path d="M 568.182 784.091 L 602.273 784.091"/>
<path d="M 759.943 784.091 L 776.989 784.091"/>
<path d="M 779.830 784.091 L 784.091 784.091"/>
<path d="M 468.750 788.352 L 470.170 788.352"/>
<path d="M 471.591 788.352 L 473.011 788.352"/>
<path d="M 475.852 788.352 L 477.273 788.352"/>
<path d="M 501.420 788.352 L 505.682 788.352"/>
<path d="M 532.670 788.352 L 534.091 788.352"/>
<path d="M 536.932 788.352 L 541.193 788.352"/>
<path d="M 576.705 788.352 L 578.125 788.352"/>
<path d="M 583.807 788.352 L 596.591 788.352"/>
<path d="M 598.011 788.352 L 617.898 788.352"/>
<path d="M 625.000 788.352 L 626.420 788.352"/>
<path d="M 758.523 788.352 L 778.409 788.352"/>
<path d="M 779.830 788.352 L 782.670 788.352"/>
<path d="M 488.636 792.614 L 492.898 792.614"/>
<path d="M 501.420 792.614 L 502.841 792.614"/>
<path d="M 600.852 792.614 L 630.682 792.614"/>
<path d="M 757.102 792.614 L 775.568 792.614"/>
<path d="M 778.409 792.614 L 779.830 792.614"/>
<path d="M 505.682 796.875 L 507.102 796.875"/>
<path d="M 511.364 796.875 L 514.205 796.875"/>
<path d="M 517.045 796.875 L 518.466 796.875"/>
<path d="M 522.727 796.875 L 539.773 796.875"/>
<path d="M 620.739 796.875 L 642.045 796.875"/>
<path d="M 755.682 796.875 L 772.727 796.875"/>
<path d="M 776.989 796.875 L 778.409 796.875"/>
<path d="M 561.080 801.136 L 568.182 801.136"/>
<path d="M 571.023 801.136 L 575.284 801.136"/>
<path d="M 632.102 801.136 L 650.568 801.136"/>
<path d="M 754.261 801.136 L 771.307 801.136"/>
<path d="M 775.568 801.136 L 776.989 801.136"/>
<path d="M 583.807 805.398 L 590.909 805.398"/>
<path d="M 593.750 805.398 L 595.170 805.398"/>
<path d="M 637.784 805.398 L 640.625 805.398"/>
<path d="M 646.307 805.398 L 656.250 805.398"/>
<path d="M 751.420 805.398 L 769.886 805.398"/>
<path d="M 771.307 805.398 L 775.568 805.398"/>
<path d="M 602.273 809.659 L 603.693 809.659"/>
<path d="M 610.795 809.659 L 613.636 809.659"/>
<path d="M 649.148 809.659 L 660.511 809.659"/>
<path d="M 752.841 809.659 L 769.886 809.659"/>
<path d="M 616.477 813.920 L 620.739 813.920"/>
<path d="M 650.568 813.920 L 663.352 813.920"/>
<path d="M 751.420 813.920 L 769.886 813.920"/>
<path d="M 627.841 818.182 L 630.682 818.182"/>
<path d="M 633.523 818.182 L 634.943 818.182"/>
<path d="M 659.091 818.182 L 667.614 818.182"/>
<path d="M 752.841 818.182 L 767.045 818.182"/>
<path d="M 768.466 818.182 L 769.886 818.182"/>
<path d="M 636.364 822.443 L 639.205 822.443"/>
<path d="M 660.511 822.443 L 667.614 822.443"/>
<path d="M 752.841 822.443 L 761.364 822.443"/>
<path d="M 769.886 822.443 L 771.307 822.443"/>
<path d="M 643.466 826.705 L 644.886 826.705"/>
<path d="M 663.352 826.705 L 669.034 826.705"/>
<path d="M 752.841 826.705 L 759.943 826.705"/>
<path d="M 664.773 830.966 L 671.875 830.966"/>
<path d="M 673.295 830.966 L 676.136 830.966"/>
<path d="M 752.841 830.966 L 759.943 830.966"/>
<path d="M 771.307 830.966 L 772.727 830.966"/>
<path d="M 666.193 835.227 L 671.875 835.227"/>
<path d="M 755.682 835.227 L 759.943 835.227"/>
<path d="M 762.784 835.227 L 764.205 835.227"/>
<path d="M 666.193 839.489 L 676.136 839.489"/>
<path d="M 754.261 839.489 L 764.205 839.489"/>
<path d="M 666.193 843.750 L 676.136 843.750"/>
<path d="M 755.682 843.750 L 764.205 843.750"/>
<path d="M 768.466 843.750 L 771.307 843.750"/>
<path d="M 666.193 848.011 L 676.136 848.011"/>
<path d="M 754.261 848.011 L 764.205 848.011"/>
<path d="M 768.466 848.011 L 771.307 848.011"/>
<path d="M 669.034 852.273 L 676.136 852.273"/>
<path d="M 754.261 852.273 L 764.205 852.273"/>
<path d="M 670.455 856.534 L 678.977 856.534"/>
<path d="M 681.818 856.534 L 683.239 856.534"/>
<path d="M 754.261 856.534 L 765.625 856.534"/>
<path d="M 670.455 860.795 L 678.977 860.795"/>
<path d="M 754.261 860.795 L 768.466 860.795"/>
<path d="M 671.875 865.057 L 680.398 865.057"/>
<path d="M 755.682 865.057 L 768.466 865.057"/>
<path d="M 671.875 869.318 L 680.398 869.318"/>
<path d="M 755.682 869.318 L 765.625 869.318"/>
<path d="M 671.875 873.580 L 678.977 873.580"/>
<path d="M 752.841 873.580 L 764.205 873.580"/>
<path d="M 669.034 877.841 L 680.398 877.841"/>
<path d="M 750.000 877.841 L 761.364 877.841"/>
<path d="M 666.193 882.102 L 680.398 882.102"/>
<path d="M 751.420 882.102 L 761.364 882.102"/>
<path d="M 771.307 882.102 L 772.727 882.102"/>
<path d="M 666.193 886.364 L 678.977 886.364"/>
<path d="M 748.580 886.364 L 758.523 886.364"/>
<path d="M 666.193 890.625 L 681.818 890.625"/>
<path d="M 748.580 890.625 L 755.682 890.625"/>
<path d="M 666.193 894.886 L 680.398 894.886"/>
<path d="M 747.159 894.886 L 752.841 894.886"/>
<path d="M 754.261 894.886 L 755.682 894.886"/>
<path d="M 768.466 894.886 L 769.886 894.886"/>
<path d="M 669.034 899.148 L 681.818 899.148"/>
<path d="M 744.318 899.148 L 750.000 899.148"/>
<path d="M 767.045 899.148 L 769.886 899.148"/>
<path d="M 671.875 903.409 L 681.818 903.409"/>
<path d="M 741.477 903.409 L 750.000 903.409"/>
<path d="M 764.205 903.409 L 769.886 903.409"/>
<path d="M 666.193 907.670 L 669.034 907.670"/>
<path d="M 670.455 907.670 L 690.341 907.670"/>
<path d="M 738.636 907.670 L 747.159 907.670"/>
<path d="M 767.045 907.670 L 768.466 907.670"/>
<path d="M 669.034 911.932 L 694.602 911.932"/>
<path d="M 728.693 911.932 L 741.477 911.932"/>
<path d="M 744.318 911.932 L 748.580 911.932"/>
<path d="M 759.943 911.932 L 761.364 911.932"/>
<path d="M 764.205 911.932 L 767.045 911.932"/>
<path d="M 673.295 916.193 L 741.477 916.193"/>
<path d="M 744.318 916.193 L 748.580 916.193"/>
<path d="M 676.136 920.455 L 741.477 920.455"/>
<path d="M 678.977 924.716 L 741.477 924.716"/>
<path d="M 745.739 924.716 L 747.159 924.716"/>
<path d="M 752.841 924.716 L 754.261 924.716"/>
<path d="M 688.920 928.977 L 738.636 928.977"/>
<path d="M 697.443 933.239 L 725.852 933.239"/>
<path d="M 738.636 933.239 L 740.057 933.239"/>
<path d="M 714.489 937.500 L 715.909 937.500"/>
</g>
</svg>
