<?xml version="1.0" encoding="UTF-8"?>
<svg xmlns="http://www.w3.org/2000/svg" width="1000.000mm" height="944.602mm" viewBox="0 0 1000.000 944.602">
<metadata>HatchSmith © FIWAtec GmbH</metadata>
<rect x="0" y="0" width="100%" height="100%" fill="white"/>
<g id="12_layer_12" stroke="#EFEFEF" stroke-width="1.000" stroke-linecap="round" stroke-linejoin="round" fill="none">
<path d="M 589.489 46.875 L 592.330 46.875"/>
<path d="M 598.011 46.875 L 600.852 46.875"/>
<path d="M 607.955 46.875 L 616.477 46.875"/>
<path d="M 562.500 51.136 L 563.920 51.136"/>
<path d="M 569.602 51.136 L 622.159 51.136"/>
<path d="M 630.682 51.136 L 637.784 51.136"/>
<path d="M 640.625 51.136 L 642.045 51.136"/>
<path d="M 549.716 55.398 L 551.136 55.398"/>
<path d="M 553.977 55.398 L 555.398 55.398"/>
<path d="M 556.818 55.398 L 637.784 55.398"/>
<path d="M 647.727 55.398 L 651.989 55.398"/>
<path d="M 653.409 55.398 L 654.830 55.398"/>
<path d="M 539.773 59.659 L 575.284 59.659"/>
<path d="M 576.705 59.659 L 578.125 59.659"/>
<path d="M 579.545 59.659 L 588.068 59.659"/>
<path d="M 589.489 59.659 L 620.739 59.659"/>
<path d="M 622.159 59.659 L 629.261 59.659"/>
<path d="M 632.102 59.659 L 644.886 59.659"/>
<path d="M 649.148 59.659 L 651.989 59.659"/>
<path d="M 659.091 59.659 L 664.773 59.659"/>
<path d="M 531.250 63.920 L 535.511 63.920"/>
<path d="M 536.932 63.920 L 572.443 63.920"/>
<path d="M 576.705 63.920 L 580.966 63.920"/>
<path d="M 586.648 63.920 L 598.011 63.920"/>
<path d="M 605.114 63.920 L 609.375 63.920"/>
<path d="M 610.795 63.920 L 613.636 63.920"/>
<path d="M 623.580 63.920 L 629.261 63.920"/>
<path d="M 630.682 63.920 L 632.102 63.920"/>
<path d="M 634.943 63.920 L 659.091 63.920"/>
<path d="M 661.932 63.920 L 664.773 63.920"/>
<path d="M 667.614 63.920 L 670.455 63.920"/>
<path d="M 524.148 68.182 L 525.568 68.182"/>
<path d="M 529.830 68.182 L 545.455 68.182"/>
<path d="M 551.136 68.182 L 553.977 68.182"/>
<path d="M 555.398 68.182 L 558.239 68.182"/>
<path d="M 593.750 68.182 L 598.011 68.182"/>
<path d="M 599.432 68.182 L 602.273 68.182"/>
<path d="M 603.693 68.182 L 616.477 68.182"/>
<path d="M 629.261 68.182 L 632.102 68.182"/>
<path d="M 634.943 68.182 L 642.045 68.182"/>
<path d="M 646.307 68.182 L 663.352 68.182"/>
<path d="M 664.773 68.182 L 671.875 68.182"/>
<path d="M 673.295 68.182 L 677.557 68.182"/>
<path d="M 518.466 72.443 L 519.886 72.443"/>
<path d="M 521.307 72.443 L 542.614 72.443"/>
<path d="M 639.205 72.443 L 640.625 72.443"/>
<path d="M 649.148 72.443 L 680.398 72.443"/>
<path d="M 681.818 72.443 L 683.239 72.443"/>
<path d="M 515.625 76.705 L 536.932 76.705"/>
<path d="M 553.977 76.705 L 555.398 76.705"/>
<path d="M 647.727 76.705 L 650.568 76.705"/>
<path d="M 654.830 76.705 L 657.670 76.705"/>
<path d="M 660.511 76.705 L 664.773 76.705"/>
<path d="M 667.614 76.705 L 688.920 76.705"/>
<path d="M 511.364 80.966 L 534.091 80.966"/>
<path d="M 664.773 80.966 L 671.875 80.966"/>
<path d="M 674.716 80.966 L 678.977 80.966"/>
<path d="M 680.398 80.966 L 688.920 80.966"/>
<path d="M 690.341 80.966 L 693.182 80.966"/>
<path d="M 508.523 85.227 L 519.886 85.227"/>
<path d="M 522.727 85.227 L 525.568 85.227"/>
<path d="M 680.398 85.227 L 694.602 85.227"/>
<path d="M 500.000 89.489 L 511.364 89.489"/>
<path d="M 514.205 89.489 L 519.886 89.489"/>
<path d="M 683.239 89.489 L 698.864 89.489"/>
<path d="M 494.318 93.750 L 511.364 93.750"/>
<path d="M 683.239 93.750 L 698.864 93.750"/>
<path d="M 474.432 98.011 L 475.852 98.011"/>
<path d="M 480.114 98.011 L 497.159 98.011"/>
<path d="M 502.841 98.011 L 507.102 98.011"/>
<path d="M 686.080 98.011 L 704.545 98.011"/>
<path d="M 464.489 102.273 L 501.420 102.273"/>
<path d="M 693.182 102.273 L 694.602 102.273"/>
<path d="M 697.443 102.273 L 701.705 102.273"/>
<path d="M 703.125 102.273 L 705.966 102.273"/>
<path d="M 457.386 106.534 L 458.807 106.534"/>
<path d="M 463.068 106.534 L 464.489 106.534"/>
<path d="M 465.909 106.534 L 482.955 106.534"/>
<path d="M 485.795 106.534 L 487.216 106.534"/>
<path d="M 490.057 106.534 L 498.580 106.534"/>
<path d="M 696.023 106.534 L 708.807 106.534"/>
<path d="M 444.602 110.795 L 448.864 110.795"/>
<path d="M 453.125 110.795 L 487.216 110.795"/>
<path d="M 488.636 110.795 L 490.057 110.795"/>
<path d="M 697.443 110.795 L 710.227 110.795"/>
<path d="M 443.182 115.057 L 471.591 115.057"/>
<path d="M 473.011 115.057 L 478.693 115.057"/>
<path d="M 698.864 115.057 L 711.648 115.057"/>
<path d="M 436.080 119.318 L 437.500 119.318"/>
<path d="M 438.920 119.318 L 464.489 119.318"/>
<path d="M 468.750 119.318 L 473.011 119.318"/>
<path d="M 474.432 119.318 L 475.852 119.318"/>
<path d="M 701.705 119.318 L 713.068 119.318"/>
<path d="M 436.080 123.580 L 458.807 123.580"/>
<path d="M 461.648 123.580 L 464.489 123.580"/>
<path d="M 467.330 123.580 L 468.750 123.580"/>
<path d="M 470.170 123.580 L 471.591 123.580"/>
<path d="M 700.284 123.580 L 713.068 123.580"/>
<path d="M 714.489 123.580 L 715.909 123.580"/>
<path d="M 426.136 127.841 L 427.557 127.841"/>
<path d="M 430.398 127.841 L 433.239 127.841"/>
<path d="M 434.659 127.841 L 461.648 127.841"/>
<path d="M 464.489 127.841 L 465.909 127.841"/>
<path d="M 468.750 127.841 L 471.591 127.841"/>
<path d="M 701.705 127.841 L 715.909 127.841"/>
<path d="M 411.932 132.102 L 419.034 132.102"/>
<path d="M 423.295 132.102 L 444.602 132.102"/>
<path d="M 447.443 132.102 L 453.125 132.102"/>
<path d="M 701.705 132.102 L 703.125 132.102"/>
<path d="M 704.545 132.102 L 705.966 132.102"/>
<path d="M 708.807 132.102 L 717.330 132.102"/>
<path d="M 404.830 136.364 L 406.250 136.364"/>
<path d="M 409.091 136.364 L 410.511 136.364"/>
<path d="M 411.932 136.364 L 436.080 136.364"/>
<path d="M 441.761 136.364 L 444.602 136.364"/>
<path d="M 705.966 136.364 L 715.909 136.364"/>
<path d="M 717.330 136.364 L 720.170 136.364"/>
<path d="M 397.727 140.625 L 400.568 140.625"/>
<path d="M 406.250 140.625 L 421.875 140.625"/>
<path d="M 426.136 140.625 L 430.398 140.625"/>
<path d="M 468.750 140.625 L 471.591 140.625"/>
<path d="M 705.966 140.625 L 717.330 140.625"/>
<path d="M 718.750 140.625 L 720.170 140.625"/>
<path d="M 396.307 144.886 L 416.193 144.886"/>
<path d="M 420.455 144.886 L 423.295 144.886"/>
<path d="M 426.136 144.886 L 427.557 144.886"/>
<path d="M 708.807 144.886 L 715.909 144.886"/>
<path d="M 718.750 144.886 L 721.591 144.886"/>
<path d="M 379.261 149.148 L 380.682 149.148"/>
<path d="M 384.943 149.148 L 386.364 149.148"/>
<path d="M 387.784 149.148 L 414.773 149.148"/>
<path d="M 426.136 149.148 L 427.557 149.148"/>
<path d="M 711.648 149.148 L 715.909 149.148"/>
<path d="M 373.580 153.409 L 375.000 153.409"/>
<path d="M 380.682 153.409 L 404.830 153.409"/>
<path d="M 711.648 153.409 L 717.330 153.409"/>
<path d="M 720.170 153.409 L 723.011 153.409"/>
<path d="M 369.318 157.670 L 370.739 157.670"/>
<path d="M 373.580 157.670 L 392.045 157.670"/>
<path d="M 394.886 157.670 L 399.148 157.670"/>
<path d="M 707.386 157.670 L 718.750 157.670"/>
<path d="M 363.636 161.932 L 366.477 161.932"/>
<path d="M 370.739 161.932 L 384.943 161.932"/>
<path d="M 386.364 161.932 L 392.045 161.932"/>
<path d="M 710.227 161.932 L 720.170 161.932"/>
<path d="M 721.591 161.932 L 724.432 161.932"/>
<path d="M 367.898 166.193 L 383.523 166.193"/>
<path d="M 710.227 166.193 L 717.330 166.193"/>
<path d="M 720.170 166.193 L 724.432 166.193"/>
<path d="M 359.375 170.455 L 360.795 170.455"/>
<path d="M 366.477 170.455 L 377.841 170.455"/>
<path d="M 717.330 170.455 L 718.750 170.455"/>
<path d="M 720.170 170.455 L 721.591 170.455"/>
<path d="M 362.216 174.716 L 377.841 174.716"/>
<path d="M 711.648 174.716 L 718.750 174.716"/>
<path d="M 721.591 174.716 L 725.852 174.716"/>
<path d="M 362.216 178.977 L 373.580 178.977"/>
<path d="M 715.909 178.977 L 717.330 178.977"/>
<path d="M 721.591 178.977 L 723.011 178.977"/>
<path d="M 359.375 183.239 L 373.580 183.239"/>
<path d="M 704.545 183.239 L 705.966 183.239"/>
<path d="M 715.909 183.239 L 718.750 183.239"/>
<path d="M 720.170 183.239 L 723.011 183.239"/>
<path d="M 360.795 187.500 L 375.000 187.500"/>
<path d="M 711.648 187.500 L 715.909 187.500"/>
<path d="M 363.636 191.761 L 375.000 191.761"/>
<path d="M 376.420 191.761 L 379.261 191.761"/>
<path d="M 707.386 191.761 L 708.807 191.761"/>
<path d="M 711.648 191.761 L 714.489 191.761"/>
<path d="M 717.330 191.761 L 720.170 191.761"/>
<path d="M 721.591 191.761 L 723.011 191.761"/>
<path d="M 367.898 196.023 L 383.523 196.023"/>
<path d="M 708.807 196.023 L 724.432 196.023"/>
<path d="M 365.057 200.284 L 382.102 200.284"/>
<path d="M 384.943 200.284 L 389.205 200.284"/>
<path d="M 393.466 200.284 L 394.886 200.284"/>
<path d="M 711.648 200.284 L 724.432 200.284"/>
<path d="M 727.273 200.284 L 728.693 200.284"/>
<path d="M 366.477 204.545 L 401.989 204.545"/>
<path d="M 710.227 204.545 L 734.375 204.545"/>
<path d="M 735.795 204.545 L 737.216 204.545"/>
<path d="M 366.477 208.807 L 399.148 208.807"/>
<path d="M 715.909 208.807 L 734.375 208.807"/>
<path d="M 737.216 208.807 L 738.636 208.807"/>
<path d="M 740.057 208.807 L 742.898 208.807"/>
<path d="M 362.216 213.068 L 365.057 213.068"/>
<path d="M 366.477 213.068 L 392.045 213.068"/>
<path d="M 393.466 213.068 L 394.886 213.068"/>
<path d="M 396.307 213.068 L 399.148 213.068"/>
<path d="M 717.330 213.068 L 718.750 213.068"/>
<path d="M 721.591 213.068 L 724.432 213.068"/>
<path d="M 725.852 213.068 L 741.477 213.068"/>
<path d="M 742.898 213.068 L 748.580 213.068"/>
<path d="M 350.852 217.330 L 353.693 217.330"/>
<path d="M 360.795 217.330 L 389.205 217.330"/>
<path d="M 728.693 217.330 L 745.739 217.330"/>
<path d="M 751.420 217.330 L 752.841 217.330"/>
<path d="M 346.591 221.591 L 348.011 221.591"/>
<path d="M 356.534 221.591 L 377.841 221.591"/>
<path d="M 380.682 221.591 L 382.102 221.591"/>
<path d="M 451.705 221.591 L 454.545 221.591"/>
<path d="M 720.170 221.591 L 721.591 221.591"/>
<path d="M 738.636 221.591 L 757.102 221.591"/>
<path d="M 342.330 225.852 L 343.750 225.852"/>
<path d="M 346.591 225.852 L 349.432 225.852"/>
<path d="M 353.693 225.852 L 363.636 225.852"/>
<path d="M 366.477 225.852 L 369.318 225.852"/>
<path d="M 443.182 225.852 L 444.602 225.852"/>
<path d="M 740.057 225.852 L 758.523 225.852"/>
<path d="M 338.068 230.114 L 339.489 230.114"/>
<path d="M 350.852 230.114 L 356.534 230.114"/>
<path d="M 359.375 230.114 L 360.795 230.114"/>
<path d="M 437.500 230.114 L 440.341 230.114"/>
<path d="M 745.739 230.114 L 762.784 230.114"/>
<path d="M 346.591 234.375 L 357.955 234.375"/>
<path d="M 747.159 234.375 L 765.625 234.375"/>
<path d="M 343.750 238.636 L 352.273 238.636"/>
<path d="M 752.841 238.636 L 767.045 238.636"/>
<path d="M 343.750 242.898 L 346.591 242.898"/>
<path d="M 752.841 242.898 L 767.045 242.898"/>
<path d="M 338.068 247.159 L 349.432 247.159"/>
<path d="M 434.659 247.159 L 437.500 247.159"/>
<path d="M 759.943 247.159 L 769.886 247.159"/>
<path d="M 339.489 251.420 L 349.432 251.420"/>
<path d="M 755.682 251.420 L 769.886 251.420"/>
<path d="M 333.807 255.682 L 340.909 255.682"/>
<path d="M 342.330 255.682 L 348.011 255.682"/>
<path d="M 758.523 255.682 L 772.727 255.682"/>
<path d="M 336.648 259.943 L 346.591 259.943"/>
<path d="M 761.364 259.943 L 775.568 259.943"/>
<path d="M 332.386 264.205 L 333.807 264.205"/>
<path d="M 336.648 264.205 L 348.011 264.205"/>
<path d="M 759.943 264.205 L 778.409 264.205"/>
<path d="M 332.386 268.466 L 333.807 268.466"/>
<path d="M 336.648 268.466 L 348.011 268.466"/>
<path d="M 764.205 268.466 L 768.466 268.466"/>
<path d="M 769.886 268.466 L 781.250 268.466"/>
<path d="M 782.670 268.466 L 784.091 268.466"/>
<path d="M 335.227 272.727 L 339.489 272.727"/>
<path d="M 340.909 272.727 L 343.750 272.727"/>
<path d="M 768.466 272.727 L 771.307 272.727"/>
<path d="M 774.148 272.727 L 786.932 272.727"/>
<path d="M 333.807 276.989 L 345.170 276.989"/>
<path d="M 769.886 276.989 L 791.193 276.989"/>
<path d="M 328.125 281.250 L 330.966 281.250"/>
<path d="M 332.386 281.250 L 343.750 281.250"/>
<path d="M 360.795 281.250 L 366.477 281.250"/>
<path d="M 775.568 281.250 L 778.409 281.250"/>
<path d="M 779.830 281.250 L 796.875 281.250"/>
<path d="M 328.125 285.511 L 342.330 285.511"/>
<path d="M 775.568 285.511 L 778.409 285.511"/>
<path d="M 781.250 285.511 L 794.034 285.511"/>
<path d="M 795.455 285.511 L 799.716 285.511"/>
<path d="M 332.386 289.773 L 336.648 289.773"/>
<path d="M 772.727 289.773 L 774.148 289.773"/>
<path d="M 779.830 289.773 L 801.136 289.773"/>
<path d="M 328.125 294.034 L 335.227 294.034"/>
<path d="M 782.670 294.034 L 805.398 294.034"/>
<path d="M 326.705 298.295 L 336.648 298.295"/>
<path d="M 789.773 298.295 L 794.034 298.295"/>
<path d="M 795.455 298.295 L 805.398 298.295"/>
<path d="M 806.818 298.295 L 808.239 298.295"/>
<path d="M 325.284 302.557 L 332.386 302.557"/>
<path d="M 792.614 302.557 L 811.080 302.557"/>
<path d="M 323.864 306.818 L 333.807 306.818"/>
<path d="M 791.193 306.818 L 812.500 306.818"/>
<path d="M 321.023 311.080 L 330.966 311.080"/>
<path d="M 796.875 311.080 L 813.920 311.080"/>
<path d="M 318.182 315.341 L 323.864 315.341"/>
<path d="M 325.284 315.341 L 328.125 315.341"/>
<path d="M 796.875 315.341 L 815.341 315.341"/>
<path d="M 316.761 319.602 L 318.182 319.602"/>
<path d="M 319.602 319.602 L 321.023 319.602"/>
<path d="M 323.864 319.602 L 326.705 319.602"/>
<path d="M 799.716 319.602 L 802.557 319.602"/>
<path d="M 803.977 319.602 L 816.761 319.602"/>
<path d="M 302.557 323.864 L 303.977 323.864"/>
<path d="M 308.239 323.864 L 313.920 323.864"/>
<path d="M 316.761 323.864 L 318.182 323.864"/>
<path d="M 799.716 323.864 L 801.136 323.864"/>
<path d="M 803.977 323.864 L 811.080 323.864"/>
<path d="M 812.500 323.864 L 815.341 323.864"/>
<path d="M 816.761 323.864 L 819.602 323.864"/>
<path d="M 289.773 328.125 L 291.193 328.125"/>
<path d="M 292.614 328.125 L 294.034 328.125"/>
<path d="M 299.716 328.125 L 305.398 328.125"/>
<path d="M 311.080 328.125 L 313.920 328.125"/>
<path d="M 799.716 328.125 L 805.398 328.125"/>
<path d="M 806.818 328.125 L 811.080 328.125"/>
<path d="M 819.602 328.125 L 822.443 328.125"/>
<path d="M 282.670 332.386 L 285.511 332.386"/>
<path d="M 288.352 332.386 L 308.239 332.386"/>
<path d="M 796.875 332.386 L 801.136 332.386"/>
<path d="M 802.557 332.386 L 806.818 332.386"/>
<path d="M 808.239 332.386 L 811.080 332.386"/>
<path d="M 819.602 332.386 L 823.864 332.386"/>
<path d="M 232.955 336.648 L 235.795 336.648"/>
<path d="M 257.102 336.648 L 259.943 336.648"/>
<path d="M 261.364 336.648 L 262.784 336.648"/>
<path d="M 278.409 336.648 L 279.830 336.648"/>
<path d="M 282.670 336.648 L 284.091 336.648"/>
<path d="M 285.511 336.648 L 302.557 336.648"/>
<path d="M 796.875 336.648 L 806.818 336.648"/>
<path d="M 808.239 336.648 L 809.659 336.648"/>
<path d="M 818.182 336.648 L 823.864 336.648"/>
<path d="M 89.489 340.909 L 90.909 340.909"/>
<path d="M 92.330 340.909 L 95.170 340.909"/>
<path d="M 109.375 340.909 L 110.795 340.909"/>
<path d="M 115.057 340.909 L 116.477 340.909"/>
<path d="M 255.682 340.909 L 257.102 340.909"/>
<path d="M 276.989 340.909 L 289.773 340.909"/>
<path d="M 798.295 340.909 L 799.716 340.909"/>
<path d="M 818.182 340.909 L 823.864 340.909"/>
<path d="M 82.386 345.170 L 83.807 345.170"/>
<path d="M 109.375 345.170 L 110.795 345.170"/>
<path d="M 113.636 345.170 L 115.057 345.170"/>
<path d="M 116.477 345.170 L 117.898 345.170"/>
<path d="M 119.318 345.170 L 120.739 345.170"/>
<path d="M 160.511 345.170 L 164.773 345.170"/>
<path d="M 180.398 345.170 L 183.239 345.170"/>
<path d="M 221.591 345.170 L 223.011 345.170"/>
<path d="M 237.216 345.170 L 244.318 345.170"/>
<path d="M 245.739 345.170 L 247.159 345.170"/>
<path d="M 248.580 345.170 L 255.682 345.170"/>
<path d="M 259.943 345.170 L 282.670 345.170"/>
<path d="M 794.034 345.170 L 795.455 345.170"/>
<path d="M 802.557 345.170 L 805.398 345.170"/>
<path d="M 819.602 345.170 L 825.284 345.170"/>
<path d="M 99.432 349.432 L 105.114 349.432"/>
<path d="M 109.375 349.432 L 112.216 349.432"/>
<path d="M 125.000 349.432 L 126.420 349.432"/>
<path d="M 127.841 349.432 L 134.943 349.432"/>
<path d="M 137.784 349.432 L 140.625 349.432"/>
<path d="M 143.466 349.432 L 144.886 349.432"/>
<path d="M 150.568 349.432 L 151.989 349.432"/>
<path d="M 157.670 349.432 L 159.091 349.432"/>
<path d="M 186.080 349.432 L 191.761 349.432"/>
<path d="M 217.330 349.432 L 223.011 349.432"/>
<path d="M 225.852 349.432 L 228.693 349.432"/>
<path d="M 231.534 349.432 L 244.318 349.432"/>
<path d="M 247.159 349.432 L 254.261 349.432"/>
<path d="M 255.682 349.432 L 282.670 349.432"/>
<path d="M 285.511 349.432 L 286.932 349.432"/>
<path d="M 789.773 349.432 L 791.193 349.432"/>
<path d="M 795.455 349.432 L 796.875 349.432"/>
<path d="M 799.716 349.432 L 801.136 349.432"/>
<path d="M 816.761 349.432 L 825.284 349.432"/>
<path d="M 93.750 353.693 L 95.170 353.693"/>
<path d="M 99.432 353.693 L 105.114 353.693"/>
<path d="M 109.375 353.693 L 115.057 353.693"/>
<path d="M 116.477 353.693 L 122.159 353.693"/>
<path d="M 170.455 353.693 L 177.557 353.693"/>
<path d="M 178.977 353.693 L 180.398 353.693"/>
<path d="M 186.080 353.693 L 191.761 353.693"/>
<path d="M 208.807 353.693 L 210.227 353.693"/>
<path d="M 220.170 353.693 L 271.307 353.693"/>
<path d="M 272.727 353.693 L 276.989 353.693"/>
<path d="M 279.830 353.693 L 281.250 353.693"/>
<path d="M 816.761 353.693 L 821.023 353.693"/>
<path d="M 88.068 357.955 L 127.841 357.955"/>
<path d="M 130.682 357.955 L 142.045 357.955"/>
<path d="M 144.886 357.955 L 149.148 357.955"/>
<path d="M 151.989 357.955 L 153.409 357.955"/>
<path d="M 156.250 357.955 L 159.091 357.955"/>
<path d="M 161.932 357.955 L 197.443 357.955"/>
<path d="M 200.284 357.955 L 235.795 357.955"/>
<path d="M 252.841 357.955 L 274.148 357.955"/>
<path d="M 811.080 357.955 L 812.500 357.955"/>
<path d="M 815.341 357.955 L 816.761 357.955"/>
<path d="M 83.807 362.216 L 98.011 362.216"/>
<path d="M 107.955 362.216 L 136.364 362.216"/>
<path d="M 137.784 362.216 L 223.011 362.216"/>
<path d="M 227.273 362.216 L 232.955 362.216"/>
<path d="M 254.261 362.216 L 255.682 362.216"/>
<path d="M 809.659 362.216 L 812.500 362.216"/>
<path d="M 83.807 366.477 L 92.330 366.477"/>
<path d="M 93.750 366.477 L 96.591 366.477"/>
<path d="M 112.216 366.477 L 116.477 366.477"/>
<path d="M 117.898 366.477 L 164.773 366.477"/>
<path d="M 176.136 366.477 L 208.807 366.477"/>
<path d="M 234.375 366.477 L 238.636 366.477"/>
<path d="M 244.318 366.477 L 245.739 366.477"/>
<path d="M 782.670 366.477 L 784.091 366.477"/>
<path d="M 786.932 366.477 L 789.773 366.477"/>
<path d="M 809.659 366.477 L 812.500 366.477"/>
<path d="M 72.443 370.739 L 99.432 370.739"/>
<path d="M 105.114 370.739 L 106.534 370.739"/>
<path d="M 109.375 370.739 L 117.898 370.739"/>
<path d="M 123.580 370.739 L 150.568 370.739"/>
<path d="M 151.989 370.739 L 169.034 370.739"/>
<path d="M 177.557 370.739 L 188.920 370.739"/>
<path d="M 191.761 370.739 L 198.864 370.739"/>
<path d="M 201.705 370.739 L 204.545 370.739"/>
<path d="M 502.841 370.739 L 504.261 370.739"/>
<path d="M 786.932 370.739 L 788.352 370.739"/>
<path d="M 805.398 370.739 L 809.659 370.739"/>
<path d="M 22.727 375.000 L 24.148 375.000"/>
<path d="M 26.989 375.000 L 28.409 375.000"/>
<path d="M 66.761 375.000 L 68.182 375.000"/>
<path d="M 69.602 375.000 L 71.023 375.000"/>
<path d="M 72.443 375.000 L 88.068 375.000"/>
<path d="M 90.909 375.000 L 98.011 375.000"/>
<path d="M 112.216 375.000 L 113.636 375.000"/>
<path d="M 115.057 375.000 L 117.898 375.000"/>
<path d="M 122.159 375.000 L 129.261 375.000"/>
<path d="M 137.784 375.000 L 142.045 375.000"/>
<path d="M 157.670 375.000 L 164.773 375.000"/>
<path d="M 166.193 375.000 L 169.034 375.000"/>
<path d="M 170.455 375.000 L 178.977 375.000"/>
<path d="M 181.818 375.000 L 187.500 375.000"/>
<path d="M 208.807 375.000 L 210.227 375.000"/>
<path d="M 788.352 375.000 L 792.614 375.000"/>
<path d="M 795.455 375.000 L 796.875 375.000"/>
<path d="M 801.136 375.000 L 803.977 375.000"/>
<path d="M 808.239 375.000 L 809.659 375.000"/>
<path d="M 36.932 379.261 L 38.352 379.261"/>
<path d="M 62.500 379.261 L 103.693 379.261"/>
<path d="M 122.159 379.261 L 125.000 379.261"/>
<path d="M 126.420 379.261 L 137.784 379.261"/>
<path d="M 139.205 379.261 L 140.625 379.261"/>
<path d="M 156.250 379.261 L 167.614 379.261"/>
<path d="M 170.455 379.261 L 178.977 379.261"/>
<path d="M 181.818 379.261 L 186.080 379.261"/>
<path d="M 789.773 379.261 L 794.034 379.261"/>
<path d="M 795.455 379.261 L 796.875 379.261"/>
<path d="M 14.205 383.523 L 17.045 383.523"/>
<path d="M 31.250 383.523 L 35.511 383.523"/>
<path d="M 36.932 383.523 L 51.136 383.523"/>
<path d="M 52.557 383.523 L 53.977 383.523"/>
<path d="M 55.398 383.523 L 103.693 383.523"/>
<path d="M 119.318 383.523 L 122.159 383.523"/>
<path d="M 130.682 383.523 L 133.523 383.523"/>
<path d="M 134.943 383.523 L 136.364 383.523"/>
<path d="M 137.784 383.523 L 150.568 383.523"/>
<path d="M 176.136 383.523 L 178.977 383.523"/>
<path d="M 786.932 383.523 L 791.193 383.523"/>
<path d="M 11.364 387.784 L 14.205 387.784"/>
<path d="M 34.091 387.784 L 69.602 387.784"/>
<path d="M 71.023 387.784 L 89.489 387.784"/>
<path d="M 99.432 387.784 L 100.852 387.784"/>
<path d="M 102.273 387.784 L 103.693 387.784"/>
<path d="M 130.682 387.784 L 134.943 387.784"/>
<path d="M 139.205 387.784 L 142.045 387.784"/>
<path d="M 144.886 387.784 L 146.307 387.784"/>
<path d="M 789.773 387.784 L 799.716 387.784"/>
<path d="M 9.943 392.045 L 12.784 392.045"/>
<path d="M 24.148 392.045 L 56.818 392.045"/>
<path d="M 58.239 392.045 L 63.920 392.045"/>
<path d="M 65.341 392.045 L 71.023 392.045"/>
<path d="M 98.011 392.045 L 99.432 392.045"/>
<path d="M 133.523 392.045 L 134.943 392.045"/>
<path d="M 136.364 392.045 L 139.205 392.045"/>
<path d="M 177.557 392.045 L 180.398 392.045"/>
<path d="M 792.614 392.045 L 796.875 392.045"/>
<path d="M 9.943 396.307 L 11.364 396.307"/>
<path d="M 15.625 396.307 L 19.886 396.307"/>
<path d="M 21.307 396.307 L 31.250 396.307"/>
<path d="M 32.670 396.307 L 34.091 396.307"/>
<path d="M 53.977 396.307 L 58.239 396.307"/>
<path d="M 149.148 396.307 L 151.989 396.307"/>
<path d="M 154.830 396.307 L 159.091 396.307"/>
<path d="M 177.557 396.307 L 180.398 396.307"/>
<path d="M 792.614 396.307 L 795.455 396.307"/>
<path d="M 9.943 400.568 L 11.364 400.568"/>
<path d="M 14.205 400.568 L 31.250 400.568"/>
<path d="M 105.114 400.568 L 106.534 400.568"/>
<path d="M 153.409 400.568 L 156.250 400.568"/>
<path d="M 181.818 400.568 L 183.239 400.568"/>
<path d="M 796.875 400.568 L 801.136 400.568"/>
<path d="M 12.784 404.830 L 14.205 404.830"/>
<path d="M 15.625 404.830 L 32.670 404.830"/>
<path d="M 794.034 404.830 L 795.455 404.830"/>
<path d="M 798.295 404.830 L 801.136 404.830"/>
<path d="M 12.784 409.091 L 34.091 409.091"/>
<path d="M 157.670 409.091 L 159.091 409.091"/>
<path d="M 795.455 409.091 L 798.295 409.091"/>
<path d="M 809.659 409.091 L 812.500 409.091"/>
<path d="M 14.205 413.352 L 26.989 413.352"/>
<path d="M 28.409 413.352 L 36.932 413.352"/>
<path d="M 792.614 413.352 L 795.455 413.352"/>
<path d="M 18.466 417.614 L 31.250 417.614"/>
<path d="M 35.511 417.614 L 36.932 417.614"/>
<path d="M 39.773 417.614 L 41.193 417.614"/>
<path d="M 799.716 417.614 L 803.977 417.614"/>
<path d="M 808.239 417.614 L 809.659 417.614"/>
<path d="M 18.466 421.875 L 21.307 421.875"/>
<path d="M 25.568 421.875 L 38.352 421.875"/>
<path d="M 41.193 421.875 L 49.716 421.875"/>
<path d="M 809.659 421.875 L 811.080 421.875"/>
<path d="M 18.466 426.136 L 25.568 426.136"/>
<path d="M 26.989 426.136 L 28.409 426.136"/>
<path d="M 31.250 426.136 L 48.295 426.136"/>
<path d="M 56.818 426.136 L 58.239 426.136"/>
<path d="M 61.080 426.136 L 65.341 426.136"/>
<path d="M 809.659 426.136 L 811.080 426.136"/>
<path d="M 18.466 430.398 L 25.568 430.398"/>
<path d="M 31.250 430.398 L 32.670 430.398"/>
<path d="M 35.511 430.398 L 59.659 430.398"/>
<path d="M 61.080 430.398 L 63.920 430.398"/>
<path d="M 805.398 430.398 L 808.239 430.398"/>
<path d="M 22.727 434.659 L 28.409 434.659"/>
<path d="M 34.091 434.659 L 51.136 434.659"/>
<path d="M 29.830 438.920 L 36.932 438.920"/>
<path d="M 38.352 438.920 L 45.455 438.920"/>
<path d="M 55.398 438.920 L 58.239 438.920"/>
<path d="M 806.818 438.920 L 811.080 438.920"/>
<path d="M 812.500 438.920 L 813.920 438.920"/>
<path d="M 34.091 443.182 L 48.295 443.182"/>
<path d="M 49.716 443.182 L 52.557 443.182"/>
<path d="M 805.398 443.182 L 806.818 443.182"/>
<path d="M 35.511 447.443 L 36.932 447.443"/>
<path d="M 38.352 447.443 L 48.295 447.443"/>
<path d="M 806.818 447.443 L 808.239 447.443"/>
<path d="M 813.920 447.443 L 815.341 447.443"/>
<path d="M 36.932 451.705 L 41.193 451.705"/>
<path d="M 42.614 451.705 L 49.716 451.705"/>
<path d="M 35.511 455.966 L 44.034 455.966"/>
<path d="M 36.932 460.227 L 52.557 460.227"/>
<path d="M 53.977 460.227 L 55.398 460.227"/>
<path d="M 38.352 464.489 L 46.875 464.489"/>
<path d="M 48.295 464.489 L 51.136 464.489"/>
<path d="M 55.398 464.489 L 58.239 464.489"/>
<path d="M 811.080 464.489 L 812.500 464.489"/>
<path d="M 816.761 464.489 L 818.182 464.489"/>
<path d="M 41.193 468.750 L 51.136 468.750"/>
<path d="M 52.557 468.750 L 53.977 468.750"/>
<path d="M 816.761 468.750 L 818.182 468.750"/>
<path d="M 44.034 473.011 L 45.455 473.011"/>
<path d="M 49.716 473.011 L 52.557 473.011"/>
<path d="M 818.182 473.011 L 819.602 473.011"/>
<path d="M 45.455 477.273 L 49.716 477.273"/>
<path d="M 52.557 477.273 L 53.977 477.273"/>
<path d="M 55.398 477.273 L 58.239 477.273"/>
<path d="M 805.398 477.273 L 806.818 477.273"/>
<path d="M 44.034 481.534 L 48.295 481.534"/>
<path d="M 56.818 481.534 L 58.239 481.534"/>
<path d="M 59.659 481.534 L 71.023 481.534"/>
<path d="M 825.284 481.534 L 826.705 481.534"/>
<path d="M 51.136 485.795 L 52.557 485.795"/>
<path d="M 59.659 485.795 L 61.080 485.795"/>
<path d="M 62.500 485.795 L 69.602 485.795"/>
<path d="M 73.864 485.795 L 75.284 485.795"/>
<path d="M 826.705 485.795 L 828.125 485.795"/>
<path d="M 52.557 490.057 L 59.659 490.057"/>
<path d="M 61.080 490.057 L 68.182 490.057"/>
<path d="M 823.864 490.057 L 828.125 490.057"/>
<path d="M 833.807 490.057 L 835.227 490.057"/>
<path d="M 836.648 490.057 L 838.068 490.057"/>
<path d="M 61.080 494.318 L 72.443 494.318"/>
<path d="M 839.489 494.318 L 840.909 494.318"/>
<path d="M 843.750 494.318 L 845.170 494.318"/>
<path d="M 61.080 498.580 L 68.182 498.580"/>
<path d="M 72.443 498.580 L 73.864 498.580"/>
<path d="M 840.909 498.580 L 846.591 498.580"/>
<path d="M 61.080 502.841 L 71.023 502.841"/>
<path d="M 856.534 502.841 L 857.955 502.841"/>
<path d="M 61.080 507.102 L 69.602 507.102"/>
<path d="M 857.955 507.102 L 859.375 507.102"/>
<path d="M 860.795 507.102 L 863.636 507.102"/>
<path d="M 865.057 507.102 L 866.477 507.102"/>
<path d="M 61.080 511.364 L 66.761 511.364"/>
<path d="M 72.443 511.364 L 73.864 511.364"/>
<path d="M 856.534 511.364 L 859.375 511.364"/>
<path d="M 862.216 511.364 L 865.057 511.364"/>
<path d="M 873.580 511.364 L 875.000 511.364"/>
<path d="M 62.500 515.625 L 71.023 515.625"/>
<path d="M 860.795 515.625 L 862.216 515.625"/>
<path d="M 865.057 515.625 L 869.318 515.625"/>
<path d="M 872.159 515.625 L 876.420 515.625"/>
<path d="M 960.227 515.625 L 961.648 515.625"/>
<path d="M 63.920 519.886 L 73.864 519.886"/>
<path d="M 76.705 519.886 L 79.545 519.886"/>
<path d="M 882.102 519.886 L 883.523 519.886"/>
<path d="M 886.364 519.886 L 887.784 519.886"/>
<path d="M 66.761 524.148 L 72.443 524.148"/>
<path d="M 68.182 528.409 L 73.864 528.409"/>
<path d="M 68.182 532.670 L 79.545 532.670"/>
<path d="M 82.386 532.670 L 83.807 532.670"/>
<path d="M 899.148 532.670 L 900.568 532.670"/>
<path d="M 951.705 532.670 L 953.125 532.670"/>
<path d="M 73.864 536.932 L 88.068 536.932"/>
<path d="M 903.409 536.932 L 904.830 536.932"/>
<path d="M 967.330 536.932 L 968.750 536.932"/>
<path d="M 977.273 536.932 L 978.693 536.932"/>
<path d="M 985.795 536.932 L 987.216 536.932"/>
<path d="M 78.125 541.193 L 88.068 541.193"/>
<path d="M 899.148 541.193 L 901.989 541.193"/>
<path d="M 968.750 541.193 L 973.011 541.193"/>
<path d="M 980.114 541.193 L 982.955 541.193"/>
<path d="M 995.739 541.193 L 997.159 541.193"/>
<path d="M 80.966 545.455 L 86.648 545.455"/>
<path d="M 88.068 545.455 L 93.750 545.455"/>
<path d="M 974.432 545.455 L 975.852 545.455"/>
<path d="M 990.057 545.455 L 991.477 545.455"/>
<path d="M 79.545 549.716 L 93.750 549.716"/>
<path d="M 79.545 553.977 L 90.909 553.977"/>
<path d="M 920.455 553.977 L 921.875 553.977"/>
<path d="M 960.227 553.977 L 961.648 553.977"/>
<path d="M 967.330 553.977 L 970.170 553.977"/>
<path d="M 988.636 553.977 L 990.057 553.977"/>
<path d="M 78.125 558.239 L 86.648 558.239"/>
<path d="M 90.909 558.239 L 93.750 558.239"/>
<path d="M 923.295 558.239 L 924.716 558.239"/>
<path d="M 958.807 558.239 L 961.648 558.239"/>
<path d="M 970.170 558.239 L 971.591 558.239"/>
<path d="M 990.057 558.239 L 992.898 558.239"/>
<path d="M 78.125 562.500 L 82.386 562.500"/>
<path d="M 83.807 562.500 L 90.909 562.500"/>
<path d="M 926.136 562.500 L 927.557 562.500"/>
<path d="M 984.375 562.500 L 985.795 562.500"/>
<path d="M 76.705 566.761 L 89.489 566.761"/>
<path d="M 92.330 566.761 L 95.170 566.761"/>
<path d="M 78.125 571.023 L 90.909 571.023"/>
<path d="M 93.750 571.023 L 95.170 571.023"/>
<path d="M 79.545 575.284 L 80.966 575.284"/>
<path d="M 82.386 575.284 L 95.170 575.284"/>
<path d="M 982.955 575.284 L 987.216 575.284"/>
<path d="M 80.966 579.545 L 100.852 579.545"/>
<path d="M 964.489 579.545 L 965.909 579.545"/>
<path d="M 80.966 583.807 L 83.807 583.807"/>
<path d="M 85.227 583.807 L 102.273 583.807"/>
<path d="M 937.500 583.807 L 938.920 583.807"/>
<path d="M 958.807 583.807 L 961.648 583.807"/>
<path d="M 80.966 588.068 L 102.273 588.068"/>
<path d="M 79.545 592.330 L 99.432 592.330"/>
<path d="M 100.852 592.330 L 102.273 592.330"/>
<path d="M 79.545 596.591 L 98.011 596.591"/>
<path d="M 943.182 596.591 L 944.602 596.591"/>
<path d="M 78.125 600.852 L 99.432 600.852"/>
<path d="M 78.125 605.114 L 93.750 605.114"/>
<path d="M 98.011 605.114 L 99.432 605.114"/>
<path d="M 79.545 609.375 L 80.966 609.375"/>
<path d="M 82.386 609.375 L 95.170 609.375"/>
<path d="M 79.545 613.636 L 80.966 613.636"/>
<path d="M 82.386 613.636 L 98.011 613.636"/>
<path d="M 78.125 617.898 L 98.011 617.898"/>
<path d="M 951.705 617.898 L 953.125 617.898"/>
<path d="M 78.125 622.159 L 98.011 622.159"/>
<path d="M 99.432 622.159 L 100.852 622.159"/>
<path d="M 75.284 626.420 L 103.693 626.420"/>
<path d="M 971.591 626.420 L 973.011 626.420"/>
<path d="M 75.284 630.682 L 96.591 630.682"/>
<path d="M 955.966 630.682 L 957.386 630.682"/>
<path d="M 75.284 634.943 L 96.591 634.943"/>
<path d="M 78.125 639.205 L 95.170 639.205"/>
<path d="M 958.807 639.205 L 960.227 639.205"/>
<path d="M 78.125 643.466 L 98.011 643.466"/>
<path d="M 960.227 643.466 L 961.648 643.466"/>
<path d="M 990.057 643.466 L 991.477 643.466"/>
<path d="M 78.125 647.727 L 100.852 647.727"/>
<path d="M 961.648 647.727 L 967.330 647.727"/>
<path d="M 79.545 651.989 L 102.273 651.989"/>
<path d="M 961.648 651.989 L 975.852 651.989"/>
<path d="M 80.966 656.250 L 105.114 656.250"/>
<path d="M 963.068 656.250 L 968.750 656.250"/>
<path d="M 970.170 656.250 L 973.011 656.250"/>
<path d="M 79.545 660.511 L 105.114 660.511"/>
<path d="M 967.330 660.511 L 973.011 660.511"/>
<path d="M 978.693 660.511 L 981.534 660.511"/>
<path d="M 75.284 664.773 L 103.693 664.773"/>
<path d="M 106.534 664.773 L 109.375 664.773"/>
<path d="M 970.170 664.773 L 975.852 664.773"/>
<path d="M 71.023 669.034 L 109.375 669.034"/>
<path d="M 971.591 669.034 L 973.011 669.034"/>
<path d="M 68.182 673.295 L 107.955 673.295"/>
<path d="M 967.330 673.295 L 974.432 673.295"/>
<path d="M 65.341 677.557 L 98.011 677.557"/>
<path d="M 965.909 677.557 L 970.170 677.557"/>
<path d="M 971.591 677.557 L 974.432 677.557"/>
<path d="M 63.920 681.818 L 65.341 681.818"/>
<path d="M 66.761 681.818 L 90.909 681.818"/>
<path d="M 963.068 681.818 L 970.170 681.818"/>
<path d="M 62.500 686.080 L 86.648 686.080"/>
<path d="M 958.807 686.080 L 967.330 686.080"/>
<path d="M 62.500 690.341 L 85.227 690.341"/>
<path d="M 116.477 690.341 L 117.898 690.341"/>
<path d="M 953.125 690.341 L 961.648 690.341"/>
<path d="M 62.500 694.602 L 86.648 694.602"/>
<path d="M 117.898 694.602 L 120.739 694.602"/>
<path d="M 122.159 694.602 L 126.420 694.602"/>
<path d="M 950.284 694.602 L 957.386 694.602"/>
<path d="M 63.920 698.864 L 90.909 698.864"/>
<path d="M 99.432 698.864 L 102.273 698.864"/>
<path d="M 106.534 698.864 L 127.841 698.864"/>
<path d="M 213.068 698.864 L 234.375 698.864"/>
<path d="M 941.761 698.864 L 943.182 698.864"/>
<path d="M 946.023 698.864 L 953.125 698.864"/>
<path d="M 65.341 703.125 L 127.841 703.125"/>
<path d="M 150.568 703.125 L 151.989 703.125"/>
<path d="M 159.091 703.125 L 166.193 703.125"/>
<path d="M 169.034 703.125 L 171.875 703.125"/>
<path d="M 180.398 703.125 L 184.659 703.125"/>
<path d="M 197.443 703.125 L 200.284 703.125"/>
<path d="M 203.125 703.125 L 251.420 703.125"/>
<path d="M 936.080 703.125 L 946.023 703.125"/>
<path d="M 66.761 707.386 L 129.261 707.386"/>
<path d="M 144.886 707.386 L 169.034 707.386"/>
<path d="M 178.977 707.386 L 181.818 707.386"/>
<path d="M 200.284 707.386 L 257.102 707.386"/>
<path d="M 933.239 707.386 L 938.920 707.386"/>
<path d="M 72.443 711.648 L 132.102 711.648"/>
<path d="M 140.625 711.648 L 170.455 711.648"/>
<path d="M 171.875 711.648 L 181.818 711.648"/>
<path d="M 200.284 711.648 L 267.045 711.648"/>
<path d="M 387.784 711.648 L 390.625 711.648"/>
<path d="M 920.455 711.648 L 931.818 711.648"/>
<path d="M 72.443 715.909 L 76.705 715.909"/>
<path d="M 83.807 715.909 L 169.034 715.909"/>
<path d="M 173.295 715.909 L 181.818 715.909"/>
<path d="M 201.705 715.909 L 225.852 715.909"/>
<path d="M 242.898 715.909 L 274.148 715.909"/>
<path d="M 384.943 715.909 L 399.148 715.909"/>
<path d="M 911.932 715.909 L 919.034 715.909"/>
<path d="M 926.136 715.909 L 927.557 715.909"/>
<path d="M 73.864 720.170 L 79.545 720.170"/>
<path d="M 80.966 720.170 L 82.386 720.170"/>
<path d="M 106.534 720.170 L 163.352 720.170"/>
<path d="M 171.875 720.170 L 177.557 720.170"/>
<path d="M 203.125 720.170 L 220.170 720.170"/>
<path d="M 251.420 720.170 L 279.830 720.170"/>
<path d="M 353.693 720.170 L 355.114 720.170"/>
<path d="M 386.364 720.170 L 399.148 720.170"/>
<path d="M 906.250 720.170 L 911.932 720.170"/>
<path d="M 82.386 724.432 L 89.489 724.432"/>
<path d="M 112.216 724.432 L 154.830 724.432"/>
<path d="M 159.091 724.432 L 160.511 724.432"/>
<path d="M 198.864 724.432 L 218.750 724.432"/>
<path d="M 227.273 724.432 L 228.693 724.432"/>
<path d="M 247.159 724.432 L 250.000 724.432"/>
<path d="M 259.943 724.432 L 284.091 724.432"/>
<path d="M 345.170 724.432 L 346.591 724.432"/>
<path d="M 390.625 724.432 L 403.409 724.432"/>
<path d="M 896.307 724.432 L 906.250 724.432"/>
<path d="M 93.750 728.693 L 106.534 728.693"/>
<path d="M 117.898 728.693 L 151.989 728.693"/>
<path d="M 198.864 728.693 L 217.330 728.693"/>
<path d="M 223.011 728.693 L 224.432 728.693"/>
<path d="M 258.523 728.693 L 262.784 728.693"/>
<path d="M 268.466 728.693 L 291.193 728.693"/>
<path d="M 338.068 728.693 L 340.909 728.693"/>
<path d="M 393.466 728.693 L 403.409 728.693"/>
<path d="M 884.943 728.693 L 892.045 728.693"/>
<path d="M 894.886 728.693 L 899.148 728.693"/>
<path d="M 113.636 732.955 L 119.318 732.955"/>
<path d="M 123.580 732.955 L 153.409 732.955"/>
<path d="M 178.977 732.955 L 181.818 732.955"/>
<path d="M 200.284 732.955 L 218.750 732.955"/>
<path d="M 221.591 732.955 L 223.011 732.955"/>
<path d="M 269.886 732.955 L 272.727 732.955"/>
<path d="M 278.409 732.955 L 292.614 732.955"/>
<path d="M 330.966 732.955 L 333.807 732.955"/>
<path d="M 394.886 732.955 L 406.250 732.955"/>
<path d="M 876.420 732.955 L 884.943 732.955"/>
<path d="M 120.739 737.216 L 153.409 737.216"/>
<path d="M 201.705 737.216 L 221.591 737.216"/>
<path d="M 278.409 737.216 L 282.670 737.216"/>
<path d="M 315.341 737.216 L 319.602 737.216"/>
<path d="M 397.727 737.216 L 406.250 737.216"/>
<path d="M 863.636 737.216 L 873.580 737.216"/>
<path d="M 130.682 741.477 L 150.568 741.477"/>
<path d="M 201.705 741.477 L 220.170 741.477"/>
<path d="M 399.148 741.477 L 407.670 741.477"/>
<path d="M 852.273 741.477 L 859.375 741.477"/>
<path d="M 130.682 745.739 L 151.989 745.739"/>
<path d="M 201.705 745.739 L 218.750 745.739"/>
<path d="M 400.568 745.739 L 410.511 745.739"/>
<path d="M 838.068 745.739 L 848.011 745.739"/>
<path d="M 132.102 750.000 L 150.568 750.000"/>
<path d="M 198.864 750.000 L 217.330 750.000"/>
<path d="M 220.170 750.000 L 221.591 750.000"/>
<path d="M 404.830 750.000 L 411.932 750.000"/>
<path d="M 829.545 750.000 L 833.807 750.000"/>
<path d="M 132.102 754.261 L 151.989 754.261"/>
<path d="M 197.443 754.261 L 215.909 754.261"/>
<path d="M 218.750 754.261 L 220.170 754.261"/>
<path d="M 404.830 754.261 L 407.670 754.261"/>
<path d="M 411.932 754.261 L 416.193 754.261"/>
<path d="M 818.182 754.261 L 823.864 754.261"/>
<path d="M 133.523 758.523 L 151.989 758.523"/>
<path d="M 193.182 758.523 L 213.068 758.523"/>
<path d="M 406.250 758.523 L 417.614 758.523"/>
<path d="M 808.239 758.523 L 815.341 758.523"/>
<path d="M 134.943 762.784 L 153.409 762.784"/>
<path d="M 187.500 762.784 L 210.227 762.784"/>
<path d="M 213.068 762.784 L 215.909 762.784"/>
<path d="M 410.511 762.784 L 411.932 762.784"/>
<path d="M 413.352 762.784 L 417.614 762.784"/>
<path d="M 802.557 762.784 L 808.239 762.784"/>
<path d="M 136.364 767.045 L 154.830 767.045"/>
<path d="M 187.500 767.045 L 204.545 767.045"/>
<path d="M 210.227 767.045 L 211.648 767.045"/>
<path d="M 413.352 767.045 L 416.193 767.045"/>
<path d="M 417.614 767.045 L 427.557 767.045"/>
<path d="M 792.614 767.045 L 799.716 767.045"/>
<path d="M 139.205 771.307 L 150.568 771.307"/>
<path d="M 151.989 771.307 L 154.830 771.307"/>
<path d="M 176.136 771.307 L 178.977 771.307"/>
<path d="M 187.500 771.307 L 196.023 771.307"/>
<path d="M 204.545 771.307 L 205.966 771.307"/>
<path d="M 423.295 771.307 L 430.398 771.307"/>
<path d="M 788.352 771.307 L 791.193 771.307"/>
<path d="M 794.034 771.307 L 795.455 771.307"/>
<path d="M 143.466 775.568 L 154.830 775.568"/>
<path d="M 194.602 775.568 L 197.443 775.568"/>
<path d="M 426.136 775.568 L 428.977 775.568"/>
<path d="M 431.818 775.568 L 434.659 775.568"/>
<path d="M 785.511 775.568 L 791.193 775.568"/>
<path d="M 147.727 779.830 L 150.568 779.830"/>
<path d="M 157.670 779.830 L 159.091 779.830"/>
<path d="M 186.080 779.830 L 187.500 779.830"/>
<path d="M 433.239 779.830 L 436.080 779.830"/>
<path d="M 448.864 779.830 L 454.545 779.830"/>
<path d="M 784.091 779.830 L 786.932 779.830"/>
<path d="M 788.352 779.830 L 789.773 779.830"/>
<path d="M 157.670 784.091 L 160.511 784.091"/>
<path d="M 161.932 784.091 L 164.773 784.091"/>
<path d="M 166.193 784.091 L 167.614 784.091"/>
<path d="M 174.716 784.091 L 178.977 784.091"/>
<path d="M 443.182 784.091 L 447.443 784.091"/>
<path d="M 465.909 784.091 L 500.000 784.091"/>
<path d="M 505.682 784.091 L 522.727 784.091"/>
<path d="M 553.977 784.091 L 568.182 784.091"/>
<path d="M 776.989 784.091 L 779.830 784.091"/>
<path d="M 784.091 784.091 L 786.932 784.091"/>
<path d="M 467.330 788.352 L 468.750 788.352"/>
<path d="M 477.273 788.352 L 501.420 788.352"/>
<path d="M 505.682 788.352 L 532.670 788.352"/>
<path d="M 534.091 788.352 L 536.932 788.352"/>
<path d="M 541.193 788.352 L 576.705 788.352"/>
<path d="M 578.125 788.352 L 583.807 788.352"/>
<path d="M 596.591 788.352 L 598.011 788.352"/>
<path d="M 778.409 788.352 L 779.830 788.352"/>
<path d="M 782.670 788.352 L 784.091 788.352"/>
<path d="M 481.534 792.614 L 488.636 792.614"/>
<path d="M 492.898 792.614 L 501.420 792.614"/>
<path d="M 502.841 792.614 L 600.852 792.614"/>
<path d="M 779.830 792.614 L 784.091 792.614"/>
<path d="M 501.420 796.875 L 505.682 796.875"/>
<path d="M 507.102 796.875 L 511.364 796.875"/>
<path d="M 539.773 796.875 L 620.739 796.875"/>
<path d="M 778.409 796.875 L 784.091 796.875"/>
<path d="M 549.716 801.136 L 561.080 801.136"/>
<path d="M 575.284 801.136 L 632.102 801.136"/>
<path d="M 776.989 801.136 L 782.670 801.136"/>
<path d="M 579.545 805.398 L 583.807 805.398"/>
<path d="M 595.170 805.398 L 637.784 805.398"/>
<path d="M 640.625 805.398 L 646.307 805.398"/>
<path d="M 775.568 805.398 L 779.830 805.398"/>
<path d="M 599.432 809.659 L 602.273 809.659"/>
<path d="M 613.636 809.659 L 649.148 809.659"/>
<path d="M 769.886 809.659 L 776.989 809.659"/>
<path d="M 610.795 813.920 L 612.216 813.920"/>
<path d="M 613.636 813.920 L 616.477 813.920"/>
<path d="M 625.000 813.920 L 650.568 813.920"/>
<path d="M 769.886 813.920 L 771.307 813.920"/>
<path d="M 622.159 818.182 L 627.841 818.182"/>
<path d="M 634.943 818.182 L 659.091 818.182"/>
<path d="M 767.045 818.182 L 768.466 818.182"/>
<path d="M 769.886 818.182 L 771.307 818.182"/>
<path d="M 633.523 822.443 L 636.364 822.443"/>
<path d="M 640.625 822.443 L 660.511 822.443"/>
<path d="M 761.364 822.443 L 769.886 822.443"/>
<path d="M 771.307 822.443 L 772.727 822.443"/>
<path d="M 640.625 826.705 L 643.466 826.705"/>
<path d="M 644.886 826.705 L 663.352 826.705"/>
<path d="M 759.943 826.705 L 772.727 826.705"/>
<path d="M 644.886 830.966 L 646.307 830.966"/>
<path d="M 647.727 830.966 L 664.773 830.966"/>
<path d="M 759.943 830.966 L 771.307 830.966"/>
<path d="M 772.727 830.966 L 774.148 830.966"/>
<path d="M 647.727 835.227 L 666.193 835.227"/>
<path d="M 759.943 835.227 L 762.784 835.227"/>
<path d="M 764.205 835.227 L 774.148 835.227"/>
<path d="M 650.568 839.489 L 666.193 839.489"/>
<path d="M 764.205 839.489 L 774.148 839.489"/>
<path d="M 649.148 843.750 L 650.568 843.750"/>
<path d="M 651.989 843.750 L 666.193 843.750"/>
<path d="M 764.205 843.750 L 768.466 843.750"/>
<path d="M 771.307 843.750 L 774.148 843.750"/>
<path d="M 653.409 848.011 L 666.193 848.011"/>
<path d="M 764.205 848.011 L 768.466 848.011"/>
<path d="M 771.307 848.011 L 775.568 848.011"/>
<path d="M 654.830 852.273 L 669.034 852.273"/>
<path d="M 764.205 852.273 L 776.989 852.273"/>
<path d="M 656.250 856.534 L 670.455 856.534"/>
<path d="M 765.625 856.534 L 775.568 856.534"/>
<path d="M 776.989 856.534 L 778.409 856.534"/>
<path d="M 656.250 860.795 L 670.455 860.795"/>
<path d="M 768.466 860.795 L 775.568 860.795"/>
<path d="M 776.989 860.795 L 779.830 860.795"/>
<path d="M 657.670 865.057 L 671.875 865.057"/>
<path d="M 768.466 865.057 L 775.568 865.057"/>
<path d="M 657.670 869.318 L 671.875 869.318"/>
<path d="M 765.625 869.318 L 778.409 869.318"/>
<path d="M 657.670 873.580 L 671.875 873.580"/>
<path d="M 764.205 873.580 L 778.409 873.580"/>
<path d="M 659.091 877.841 L 669.034 877.841"/>
<path d="M 761.364 877.841 L 779.830 877.841"/>
<path d="M 659.091 882.102 L 666.193 882.102"/>
<path d="M 761.364 882.102 L 771.307 882.102"/>
<path d="M 772.727 882.102 L 778.409 882.102"/>
<path d="M 659.091 886.364 L 666.193 886.364"/>
<path d="M 758.523 886.364 L 776.989 886.364"/>
<path d="M 660.511 890.625 L 666.193 890.625"/>
<path d="M 755.682 890.625 L 776.989 890.625"/>
<path d="M 660.511 894.886 L 666.193 894.886"/>
<path d="M 752.841 894.886 L 754.261 894.886"/>
<path d="M 755.682 894.886 L 768.466 894.886"/>
<path d="M 769.886 894.886 L 775.568 894.886"/>
<path d="M 661.932 899.148 L 669.034 899.148"/>
<path d="M 750.000 899.148 L 767.045 899.148"/>
<path d="M 769.886 899.148 L 774.148 899.148"/>
<path d="M 663.352 903.409 L 671.875 903.409"/>
<path d="M 750.000 903.409 L 764.205 903.409"/>
<path d="M 769.886 903.409 L 772.727 903.409"/>
<path d="M 664.773 907.670 L 666.193 907.670"/>
<path d="M 669.034 907.670 L 670.455 907.670"/>
<path d="M 747.159 907.670 L 764.205 907.670"/>
<path d="M 768.466 907.670 L 771.307 907.670"/>
<path d="M 667.614 911.932 L 669.034 911.932"/>
<path d="M 727.273 911.932 L 728.693 911.932"/>
<path d="M 741.477 911.932 L 744.318 911.932"/>
<path d="M 748.580 911.932 L 759.943 911.932"/>
<path d="M 767.045 911.932 L 769.886 911.932"/>
<path d="M 670.455 916.193 L 673.295 916.193"/>
<path d="M 741.477 916.193 L 744.318 916.193"/>
<path d="M 748.580 916.193 L 757.102 916.193"/>
<path d="M 761.364 916.193 L 764.205 916.193"/>
<path d="M 671.875 920.455 L 676.136 920.455"/>
<path d="M 741.477 920.455 L 752.841 920.455"/>
<path d="M 758.523 920.455 L 761.364 920.455"/>
<path d="M 676.136 924.716 L 678.977 924.716"/>
<path d="M 741.477 924.716 L 745.739 924.716"/>
<path d="M 754.261 924.716 L 755.682 924.716"/>
<path d="M 681.818 928.977 L 686.080 928.977"/>
<path d="M 745.739 928.977 L 750.000 928.977"/>
<path d="M 690.341 933.239 L 693.182 933.239"/>
<path d="M 707.386 937.500 L 714.489 937.500"/>
<path d="M 715.909 937.500 L 721.591 937.500"/>
</g>
</svg>
