<?xml version="1.0" encoding="UTF-8"?>
<svg xmlns="http://www.w3.org/2000/svg" width="1000.000mm" height="944.602mm" viewBox="0 0 1000.000 944.602">
<metadata>HatchSmith © FIWAtec GmbH</metadata>
<rect x="0" y="0" width="100%" height="100%" fill="white"/>
<g id="13_layer_13" stroke="#FAFAFA" stroke-width="1.000" stroke-linecap="round" stroke-linejoin="round" fill="none">
<path d="M 984.375 4.261 L 985.795 4.261"/>
<path d="M 883.523 21.307 L 886.364 21.307"/>
<path d="M 997.159 25.568 L 998.580 25.568"/>
<path d="M 988.636 29.830 L 991.477 29.830"/>
<path d="M 985.795 34.091 L 988.636 34.091"/>
<path d="M 990.057 38.352 L 991.477 38.352"/>
<path d="M 968.750 42.614 L 971.591 42.614"/>
<path d="M 974.432 42.614 L 977.273 42.614"/>
<path d="M 579.545 46.875 L 589.489 46.875"/>
<path d="M 616.477 46.875 L 625.000 46.875"/>
<path d="M 933.239 46.875 L 934.659 46.875"/>
<path d="M 561.080 51.136 L 562.500 51.136"/>
<path d="M 622.159 51.136 L 630.682 51.136"/>
<path d="M 642.045 51.136 L 643.466 51.136"/>
<path d="M 546.875 55.398 L 549.716 55.398"/>
<path d="M 555.398 55.398 L 556.818 55.398"/>
<path d="M 637.784 55.398 L 647.727 55.398"/>
<path d="M 654.830 55.398 L 657.670 55.398"/>
<path d="M 536.932 59.659 L 539.773 59.659"/>
<path d="M 644.886 59.659 L 649.148 59.659"/>
<path d="M 651.989 59.659 L 659.091 59.659"/>
<path d="M 664.773 59.659 L 666.193 59.659"/>
<path d="M 973.011 59.659 L 974.432 59.659"/>
<path d="M 528.409 63.920 L 531.250 63.920"/>
<path d="M 535.511 63.920 L 536.932 63.920"/>
<path d="M 659.091 63.920 L 661.932 63.920"/>
<path d="M 664.773 63.920 L 667.614 63.920"/>
<path d="M 670.455 63.920 L 674.716 63.920"/>
<path d="M 522.727 68.182 L 524.148 68.182"/>
<path d="M 526.989 68.182 L 529.830 68.182"/>
<path d="M 663.352 68.182 L 664.773 68.182"/>
<path d="M 671.875 68.182 L 673.295 68.182"/>
<path d="M 678.977 68.182 L 680.398 68.182"/>
<path d="M 953.125 68.182 L 954.545 68.182"/>
<path d="M 680.398 72.443 L 681.818 72.443"/>
<path d="M 683.239 72.443 L 686.080 72.443"/>
<path d="M 514.205 76.705 L 515.625 76.705"/>
<path d="M 688.920 76.705 L 690.341 76.705"/>
<path d="M 509.943 80.966 L 511.364 80.966"/>
<path d="M 688.920 80.966 L 690.341 80.966"/>
<path d="M 848.011 80.966 L 849.432 80.966"/>
<path d="M 505.682 85.227 L 508.523 85.227"/>
<path d="M 696.023 85.227 L 697.443 85.227"/>
<path d="M 498.580 89.489 L 500.000 89.489"/>
<path d="M 698.864 89.489 L 700.284 89.489"/>
<path d="M 490.057 93.750 L 494.318 93.750"/>
<path d="M 701.705 93.750 L 703.125 93.750"/>
<path d="M 471.591 98.011 L 474.432 98.011"/>
<path d="M 701.705 102.273 L 703.125 102.273"/>
<path d="M 705.966 102.273 L 707.386 102.273"/>
<path d="M 383.523 106.534 L 384.943 106.534"/>
<path d="M 453.125 106.534 L 457.386 106.534"/>
<path d="M 461.648 106.534 L 463.068 106.534"/>
<path d="M 464.489 106.534 L 465.909 106.534"/>
<path d="M 443.182 110.795 L 444.602 110.795"/>
<path d="M 448.864 110.795 L 453.125 110.795"/>
<path d="M 710.227 110.795 L 711.648 110.795"/>
<path d="M 438.920 115.057 L 443.182 115.057"/>
<path d="M 711.648 115.057 L 713.068 115.057"/>
<path d="M 433.239 119.318 L 434.659 119.318"/>
<path d="M 437.500 119.318 L 438.920 119.318"/>
<path d="M 713.068 119.318 L 714.489 119.318"/>
<path d="M 431.818 123.580 L 436.080 123.580"/>
<path d="M 715.909 123.580 L 717.330 123.580"/>
<path d="M 424.716 127.841 L 426.136 127.841"/>
<path d="M 427.557 127.841 L 430.398 127.841"/>
<path d="M 715.909 127.841 L 717.330 127.841"/>
<path d="M 409.091 132.102 L 411.932 132.102"/>
<path d="M 419.034 132.102 L 423.295 132.102"/>
<path d="M 717.330 132.102 L 718.750 132.102"/>
<path d="M 403.409 136.364 L 404.830 136.364"/>
<path d="M 406.250 136.364 L 409.091 136.364"/>
<path d="M 410.511 136.364 L 411.932 136.364"/>
<path d="M 720.170 136.364 L 723.011 136.364"/>
<path d="M 400.568 140.625 L 406.250 140.625"/>
<path d="M 720.170 140.625 L 724.432 140.625"/>
<path d="M 386.364 144.886 L 396.307 144.886"/>
<path d="M 721.591 144.886 L 724.432 144.886"/>
<path d="M 376.420 149.148 L 379.261 149.148"/>
<path d="M 382.102 149.148 L 384.943 149.148"/>
<path d="M 386.364 149.148 L 387.784 149.148"/>
<path d="M 720.170 149.148 L 724.432 149.148"/>
<path d="M 370.739 153.409 L 372.159 153.409"/>
<path d="M 375.000 153.409 L 380.682 153.409"/>
<path d="M 723.011 153.409 L 727.273 153.409"/>
<path d="M 366.477 157.670 L 367.898 157.670"/>
<path d="M 370.739 157.670 L 373.580 157.670"/>
<path d="M 721.591 157.670 L 727.273 157.670"/>
<path d="M 366.477 161.932 L 370.739 161.932"/>
<path d="M 724.432 161.932 L 727.273 161.932"/>
<path d="M 360.795 166.193 L 367.898 166.193"/>
<path d="M 724.432 166.193 L 728.693 166.193"/>
<path d="M 360.795 170.455 L 366.477 170.455"/>
<path d="M 723.011 170.455 L 727.273 170.455"/>
<path d="M 728.693 170.455 L 731.534 170.455"/>
<path d="M 886.364 170.455 L 887.784 170.455"/>
<path d="M 357.955 174.716 L 362.216 174.716"/>
<path d="M 725.852 174.716 L 728.693 174.716"/>
<path d="M 356.534 178.977 L 362.216 178.977"/>
<path d="M 723.011 178.977 L 725.852 178.977"/>
<path d="M 356.534 183.239 L 359.375 183.239"/>
<path d="M 723.011 183.239 L 725.852 183.239"/>
<path d="M 356.534 187.500 L 360.795 187.500"/>
<path d="M 721.591 187.500 L 724.432 187.500"/>
<path d="M 356.534 191.761 L 363.636 191.761"/>
<path d="M 356.534 196.023 L 367.898 196.023"/>
<path d="M 724.432 196.023 L 725.852 196.023"/>
<path d="M 359.375 200.284 L 365.057 200.284"/>
<path d="M 724.432 200.284 L 727.273 200.284"/>
<path d="M 728.693 200.284 L 730.114 200.284"/>
<path d="M 359.375 204.545 L 366.477 204.545"/>
<path d="M 737.216 204.545 L 738.636 204.545"/>
<path d="M 359.375 208.807 L 366.477 208.807"/>
<path d="M 734.375 208.807 L 737.216 208.807"/>
<path d="M 738.636 208.807 L 740.057 208.807"/>
<path d="M 742.898 208.807 L 745.739 208.807"/>
<path d="M 355.114 213.068 L 362.216 213.068"/>
<path d="M 365.057 213.068 L 366.477 213.068"/>
<path d="M 741.477 213.068 L 742.898 213.068"/>
<path d="M 748.580 213.068 L 750.000 213.068"/>
<path d="M 349.432 217.330 L 350.852 217.330"/>
<path d="M 353.693 217.330 L 360.795 217.330"/>
<path d="M 745.739 217.330 L 751.420 217.330"/>
<path d="M 752.841 217.330 L 754.261 217.330"/>
<path d="M 345.170 221.591 L 346.591 221.591"/>
<path d="M 348.011 221.591 L 356.534 221.591"/>
<path d="M 757.102 221.591 L 758.523 221.591"/>
<path d="M 340.909 225.852 L 342.330 225.852"/>
<path d="M 343.750 225.852 L 346.591 225.852"/>
<path d="M 349.432 225.852 L 353.693 225.852"/>
<path d="M 758.523 225.852 L 761.364 225.852"/>
<path d="M 336.648 230.114 L 338.068 230.114"/>
<path d="M 339.489 230.114 L 350.852 230.114"/>
<path d="M 762.784 230.114 L 764.205 230.114"/>
<path d="M 801.136 230.114 L 802.557 230.114"/>
<path d="M 335.227 234.375 L 346.591 234.375"/>
<path d="M 799.716 234.375 L 801.136 234.375"/>
<path d="M 333.807 238.636 L 343.750 238.636"/>
<path d="M 767.045 238.636 L 768.466 238.636"/>
<path d="M 806.818 238.636 L 809.659 238.636"/>
<path d="M 332.386 242.898 L 343.750 242.898"/>
<path d="M 332.386 247.159 L 338.068 247.159"/>
<path d="M 332.386 251.420 L 339.489 251.420"/>
<path d="M 771.307 251.420 L 772.727 251.420"/>
<path d="M 909.091 251.420 L 911.932 251.420"/>
<path d="M 332.386 255.682 L 333.807 255.682"/>
<path d="M 340.909 255.682 L 342.330 255.682"/>
<path d="M 772.727 255.682 L 774.148 255.682"/>
<path d="M 332.386 259.943 L 336.648 259.943"/>
<path d="M 775.568 259.943 L 776.989 259.943"/>
<path d="M 822.443 259.943 L 823.864 259.943"/>
<path d="M 828.125 259.943 L 832.386 259.943"/>
<path d="M 330.966 264.205 L 332.386 264.205"/>
<path d="M 333.807 264.205 L 336.648 264.205"/>
<path d="M 778.409 264.205 L 779.830 264.205"/>
<path d="M 328.125 268.466 L 332.386 268.466"/>
<path d="M 333.807 268.466 L 336.648 268.466"/>
<path d="M 900.568 268.466 L 903.409 268.466"/>
<path d="M 326.705 272.727 L 335.227 272.727"/>
<path d="M 339.489 272.727 L 340.909 272.727"/>
<path d="M 788.352 272.727 L 789.773 272.727"/>
<path d="M 931.818 272.727 L 934.659 272.727"/>
<path d="M 325.284 276.989 L 333.807 276.989"/>
<path d="M 792.614 276.989 L 794.034 276.989"/>
<path d="M 323.864 281.250 L 328.125 281.250"/>
<path d="M 330.966 281.250 L 332.386 281.250"/>
<path d="M 796.875 281.250 L 798.295 281.250"/>
<path d="M 892.045 281.250 L 893.466 281.250"/>
<path d="M 322.443 285.511 L 328.125 285.511"/>
<path d="M 794.034 285.511 L 795.455 285.511"/>
<path d="M 799.716 285.511 L 801.136 285.511"/>
<path d="M 829.545 285.511 L 830.966 285.511"/>
<path d="M 322.443 289.773 L 332.386 289.773"/>
<path d="M 802.557 289.773 L 803.977 289.773"/>
<path d="M 322.443 294.034 L 328.125 294.034"/>
<path d="M 805.398 294.034 L 806.818 294.034"/>
<path d="M 322.443 298.295 L 326.705 298.295"/>
<path d="M 808.239 298.295 L 809.659 298.295"/>
<path d="M 323.864 302.557 L 325.284 302.557"/>
<path d="M 811.080 302.557 L 812.500 302.557"/>
<path d="M 961.648 302.557 L 963.068 302.557"/>
<path d="M 321.023 306.818 L 323.864 306.818"/>
<path d="M 812.500 306.818 L 813.920 306.818"/>
<path d="M 829.545 306.818 L 832.386 306.818"/>
<path d="M 319.602 311.080 L 321.023 311.080"/>
<path d="M 813.920 311.080 L 815.341 311.080"/>
<path d="M 316.761 315.341 L 318.182 315.341"/>
<path d="M 815.341 315.341 L 816.761 315.341"/>
<path d="M 842.330 315.341 L 843.750 315.341"/>
<path d="M 955.966 315.341 L 957.386 315.341"/>
<path d="M 315.341 319.602 L 316.761 319.602"/>
<path d="M 816.761 319.602 L 823.864 319.602"/>
<path d="M 826.705 319.602 L 828.125 319.602"/>
<path d="M 958.807 319.602 L 963.068 319.602"/>
<path d="M 968.750 319.602 L 970.170 319.602"/>
<path d="M 301.136 323.864 L 302.557 323.864"/>
<path d="M 819.602 323.864 L 823.864 323.864"/>
<path d="M 829.545 323.864 L 832.386 323.864"/>
<path d="M 288.352 328.125 L 289.773 328.125"/>
<path d="M 294.034 328.125 L 299.716 328.125"/>
<path d="M 822.443 328.125 L 825.284 328.125"/>
<path d="M 832.386 328.125 L 835.227 328.125"/>
<path d="M 244.318 332.386 L 250.000 332.386"/>
<path d="M 281.250 332.386 L 282.670 332.386"/>
<path d="M 285.511 332.386 L 288.352 332.386"/>
<path d="M 823.864 332.386 L 828.125 332.386"/>
<path d="M 231.534 336.648 L 232.955 336.648"/>
<path d="M 235.795 336.648 L 257.102 336.648"/>
<path d="M 262.784 336.648 L 264.205 336.648"/>
<path d="M 276.989 336.648 L 278.409 336.648"/>
<path d="M 279.830 336.648 L 282.670 336.648"/>
<path d="M 823.864 336.648 L 829.545 336.648"/>
<path d="M 88.068 340.909 L 89.489 340.909"/>
<path d="M 90.909 340.909 L 92.330 340.909"/>
<path d="M 95.170 340.909 L 109.375 340.909"/>
<path d="M 110.795 340.909 L 113.636 340.909"/>
<path d="M 225.852 340.909 L 255.682 340.909"/>
<path d="M 257.102 340.909 L 276.989 340.909"/>
<path d="M 823.864 340.909 L 833.807 340.909"/>
<path d="M 980.114 340.909 L 981.534 340.909"/>
<path d="M 80.966 345.170 L 82.386 345.170"/>
<path d="M 85.227 345.170 L 109.375 345.170"/>
<path d="M 110.795 345.170 L 113.636 345.170"/>
<path d="M 115.057 345.170 L 116.477 345.170"/>
<path d="M 117.898 345.170 L 119.318 345.170"/>
<path d="M 122.159 345.170 L 123.580 345.170"/>
<path d="M 157.670 345.170 L 160.511 345.170"/>
<path d="M 164.773 345.170 L 180.398 345.170"/>
<path d="M 183.239 345.170 L 184.659 345.170"/>
<path d="M 220.170 345.170 L 221.591 345.170"/>
<path d="M 223.011 345.170 L 237.216 345.170"/>
<path d="M 244.318 345.170 L 245.739 345.170"/>
<path d="M 247.159 345.170 L 248.580 345.170"/>
<path d="M 255.682 345.170 L 259.943 345.170"/>
<path d="M 825.284 345.170 L 828.125 345.170"/>
<path d="M 830.966 345.170 L 836.648 345.170"/>
<path d="M 78.125 349.432 L 99.432 349.432"/>
<path d="M 105.114 349.432 L 109.375 349.432"/>
<path d="M 112.216 349.432 L 125.000 349.432"/>
<path d="M 126.420 349.432 L 127.841 349.432"/>
<path d="M 134.943 349.432 L 137.784 349.432"/>
<path d="M 140.625 349.432 L 143.466 349.432"/>
<path d="M 144.886 349.432 L 150.568 349.432"/>
<path d="M 151.989 349.432 L 157.670 349.432"/>
<path d="M 159.091 349.432 L 186.080 349.432"/>
<path d="M 191.761 349.432 L 193.182 349.432"/>
<path d="M 204.545 349.432 L 217.330 349.432"/>
<path d="M 223.011 349.432 L 225.852 349.432"/>
<path d="M 228.693 349.432 L 231.534 349.432"/>
<path d="M 254.261 349.432 L 255.682 349.432"/>
<path d="M 825.284 349.432 L 832.386 349.432"/>
<path d="M 833.807 349.432 L 836.648 349.432"/>
<path d="M 76.705 353.693 L 93.750 353.693"/>
<path d="M 95.170 353.693 L 99.432 353.693"/>
<path d="M 105.114 353.693 L 109.375 353.693"/>
<path d="M 115.057 353.693 L 116.477 353.693"/>
<path d="M 122.159 353.693 L 170.455 353.693"/>
<path d="M 177.557 353.693 L 178.977 353.693"/>
<path d="M 180.398 353.693 L 186.080 353.693"/>
<path d="M 191.761 353.693 L 208.807 353.693"/>
<path d="M 210.227 353.693 L 220.170 353.693"/>
<path d="M 821.023 353.693 L 833.807 353.693"/>
<path d="M 940.341 353.693 L 943.182 353.693"/>
<path d="M 73.864 357.955 L 88.068 357.955"/>
<path d="M 127.841 357.955 L 130.682 357.955"/>
<path d="M 142.045 357.955 L 144.886 357.955"/>
<path d="M 149.148 357.955 L 151.989 357.955"/>
<path d="M 153.409 357.955 L 156.250 357.955"/>
<path d="M 159.091 357.955 L 161.932 357.955"/>
<path d="M 197.443 357.955 L 200.284 357.955"/>
<path d="M 816.761 357.955 L 828.125 357.955"/>
<path d="M 835.227 357.955 L 838.068 357.955"/>
<path d="M 73.864 362.216 L 83.807 362.216"/>
<path d="M 136.364 362.216 L 137.784 362.216"/>
<path d="M 812.500 362.216 L 819.602 362.216"/>
<path d="M 69.602 366.477 L 83.807 366.477"/>
<path d="M 812.500 366.477 L 818.182 366.477"/>
<path d="M 822.443 366.477 L 825.284 366.477"/>
<path d="M 31.250 370.739 L 55.398 370.739"/>
<path d="M 58.239 370.739 L 63.920 370.739"/>
<path d="M 66.761 370.739 L 72.443 370.739"/>
<path d="M 150.568 370.739 L 151.989 370.739"/>
<path d="M 809.659 370.739 L 812.500 370.739"/>
<path d="M 28.409 375.000 L 66.761 375.000"/>
<path d="M 68.182 375.000 L 69.602 375.000"/>
<path d="M 71.023 375.000 L 72.443 375.000"/>
<path d="M 803.977 375.000 L 808.239 375.000"/>
<path d="M 809.659 375.000 L 811.080 375.000"/>
<path d="M 813.920 375.000 L 815.341 375.000"/>
<path d="M 835.227 375.000 L 836.648 375.000"/>
<path d="M 17.045 379.261 L 18.466 379.261"/>
<path d="M 19.886 379.261 L 36.932 379.261"/>
<path d="M 38.352 379.261 L 62.500 379.261"/>
<path d="M 796.875 379.261 L 805.398 379.261"/>
<path d="M 809.659 379.261 L 812.500 379.261"/>
<path d="M 826.705 379.261 L 830.966 379.261"/>
<path d="M 846.591 379.261 L 848.011 379.261"/>
<path d="M 882.102 379.261 L 884.943 379.261"/>
<path d="M 17.045 383.523 L 31.250 383.523"/>
<path d="M 35.511 383.523 L 36.932 383.523"/>
<path d="M 51.136 383.523 L 52.557 383.523"/>
<path d="M 53.977 383.523 L 55.398 383.523"/>
<path d="M 798.295 383.523 L 802.557 383.523"/>
<path d="M 803.977 383.523 L 805.398 383.523"/>
<path d="M 815.341 383.523 L 816.761 383.523"/>
<path d="M 14.205 387.784 L 34.091 387.784"/>
<path d="M 799.716 387.784 L 802.557 387.784"/>
<path d="M 822.443 387.784 L 823.864 387.784"/>
<path d="M 12.784 392.045 L 24.148 392.045"/>
<path d="M 801.136 392.045 L 802.557 392.045"/>
<path d="M 808.239 392.045 L 809.659 392.045"/>
<path d="M 816.761 392.045 L 818.182 392.045"/>
<path d="M 823.864 392.045 L 825.284 392.045"/>
<path d="M 8.523 396.307 L 9.943 396.307"/>
<path d="M 11.364 396.307 L 15.625 396.307"/>
<path d="M 19.886 396.307 L 21.307 396.307"/>
<path d="M 802.557 396.307 L 803.977 396.307"/>
<path d="M 882.102 396.307 L 883.523 396.307"/>
<path d="M 8.523 400.568 L 9.943 400.568"/>
<path d="M 11.364 400.568 L 14.205 400.568"/>
<path d="M 803.977 400.568 L 809.659 400.568"/>
<path d="M 818.182 400.568 L 821.023 400.568"/>
<path d="M 829.545 400.568 L 833.807 400.568"/>
<path d="M 835.227 400.568 L 836.648 400.568"/>
<path d="M 9.943 404.830 L 12.784 404.830"/>
<path d="M 14.205 404.830 L 15.625 404.830"/>
<path d="M 805.398 404.830 L 806.818 404.830"/>
<path d="M 9.943 409.091 L 12.784 409.091"/>
<path d="M 812.500 409.091 L 813.920 409.091"/>
<path d="M 839.489 409.091 L 845.170 409.091"/>
<path d="M 12.784 413.352 L 14.205 413.352"/>
<path d="M 819.602 413.352 L 821.023 413.352"/>
<path d="M 12.784 417.614 L 18.466 417.614"/>
<path d="M 809.659 417.614 L 811.080 417.614"/>
<path d="M 12.784 421.875 L 18.466 421.875"/>
<path d="M 21.307 421.875 L 25.568 421.875"/>
<path d="M 811.080 421.875 L 813.920 421.875"/>
<path d="M 815.341 421.875 L 822.443 421.875"/>
<path d="M 951.705 421.875 L 953.125 421.875"/>
<path d="M 954.545 421.875 L 957.386 421.875"/>
<path d="M 12.784 426.136 L 18.466 426.136"/>
<path d="M 28.409 426.136 L 31.250 426.136"/>
<path d="M 811.080 426.136 L 813.920 426.136"/>
<path d="M 852.273 426.136 L 859.375 426.136"/>
<path d="M 14.205 430.398 L 18.466 430.398"/>
<path d="M 32.670 430.398 L 35.511 430.398"/>
<path d="M 812.500 430.398 L 818.182 430.398"/>
<path d="M 822.443 430.398 L 823.864 430.398"/>
<path d="M 832.386 430.398 L 835.227 430.398"/>
<path d="M 846.591 430.398 L 848.011 430.398"/>
<path d="M 18.466 434.659 L 22.727 434.659"/>
<path d="M 812.500 434.659 L 821.023 434.659"/>
<path d="M 24.148 438.920 L 29.830 438.920"/>
<path d="M 36.932 438.920 L 38.352 438.920"/>
<path d="M 865.057 438.920 L 867.898 438.920"/>
<path d="M 955.966 438.920 L 958.807 438.920"/>
<path d="M 964.489 438.920 L 965.909 438.920"/>
<path d="M 31.250 443.182 L 34.091 443.182"/>
<path d="M 813.920 443.182 L 815.341 443.182"/>
<path d="M 818.182 443.182 L 819.602 443.182"/>
<path d="M 822.443 443.182 L 823.864 443.182"/>
<path d="M 865.057 443.182 L 866.477 443.182"/>
<path d="M 977.273 443.182 L 980.114 443.182"/>
<path d="M 31.250 447.443 L 35.511 447.443"/>
<path d="M 816.761 447.443 L 822.443 447.443"/>
<path d="M 832.386 447.443 L 833.807 447.443"/>
<path d="M 836.648 447.443 L 840.909 447.443"/>
<path d="M 34.091 451.705 L 36.932 451.705"/>
<path d="M 815.341 451.705 L 816.761 451.705"/>
<path d="M 818.182 451.705 L 822.443 451.705"/>
<path d="M 853.693 451.705 L 855.114 451.705"/>
<path d="M 970.170 451.705 L 971.591 451.705"/>
<path d="M 977.273 451.705 L 978.693 451.705"/>
<path d="M 34.091 455.966 L 35.511 455.966"/>
<path d="M 816.761 455.966 L 825.284 455.966"/>
<path d="M 907.670 455.966 L 909.091 455.966"/>
<path d="M 924.716 455.966 L 927.557 455.966"/>
<path d="M 977.273 455.966 L 980.114 455.966"/>
<path d="M 984.375 455.966 L 988.636 455.966"/>
<path d="M 34.091 460.227 L 35.511 460.227"/>
<path d="M 816.761 460.227 L 826.705 460.227"/>
<path d="M 970.170 460.227 L 974.432 460.227"/>
<path d="M 818.182 464.489 L 826.705 464.489"/>
<path d="M 843.750 464.489 L 846.591 464.489"/>
<path d="M 957.386 464.489 L 958.807 464.489"/>
<path d="M 965.909 464.489 L 973.011 464.489"/>
<path d="M 984.375 464.489 L 987.216 464.489"/>
<path d="M 36.932 468.750 L 41.193 468.750"/>
<path d="M 818.182 468.750 L 828.125 468.750"/>
<path d="M 859.375 468.750 L 862.216 468.750"/>
<path d="M 963.068 468.750 L 970.170 468.750"/>
<path d="M 975.852 468.750 L 978.693 468.750"/>
<path d="M 38.352 473.011 L 44.034 473.011"/>
<path d="M 46.875 473.011 L 49.716 473.011"/>
<path d="M 819.602 473.011 L 821.023 473.011"/>
<path d="M 876.420 473.011 L 879.261 473.011"/>
<path d="M 931.818 473.011 L 933.239 473.011"/>
<path d="M 953.125 473.011 L 954.545 473.011"/>
<path d="M 965.909 473.011 L 970.170 473.011"/>
<path d="M 38.352 477.273 L 45.455 477.273"/>
<path d="M 53.977 477.273 L 55.398 477.273"/>
<path d="M 821.023 477.273 L 822.443 477.273"/>
<path d="M 944.602 477.273 L 948.864 477.273"/>
<path d="M 41.193 481.534 L 44.034 481.534"/>
<path d="M 58.239 481.534 L 59.659 481.534"/>
<path d="M 826.705 481.534 L 828.125 481.534"/>
<path d="M 938.920 481.534 L 941.761 481.534"/>
<path d="M 946.023 481.534 L 947.443 481.534"/>
<path d="M 957.386 481.534 L 963.068 481.534"/>
<path d="M 44.034 485.795 L 51.136 485.795"/>
<path d="M 61.080 485.795 L 62.500 485.795"/>
<path d="M 940.341 485.795 L 944.602 485.795"/>
<path d="M 967.330 485.795 L 971.591 485.795"/>
<path d="M 974.432 485.795 L 978.693 485.795"/>
<path d="M 984.375 485.795 L 994.318 485.795"/>
<path d="M 49.716 490.057 L 52.557 490.057"/>
<path d="M 838.068 490.057 L 839.489 490.057"/>
<path d="M 948.864 490.057 L 951.705 490.057"/>
<path d="M 954.545 490.057 L 955.966 490.057"/>
<path d="M 960.227 490.057 L 963.068 490.057"/>
<path d="M 984.375 490.057 L 985.795 490.057"/>
<path d="M 53.977 494.318 L 61.080 494.318"/>
<path d="M 896.307 494.318 L 903.409 494.318"/>
<path d="M 907.670 494.318 L 910.511 494.318"/>
<path d="M 914.773 494.318 L 916.193 494.318"/>
<path d="M 921.875 494.318 L 923.295 494.318"/>
<path d="M 927.557 494.318 L 933.239 494.318"/>
<path d="M 981.534 494.318 L 984.375 494.318"/>
<path d="M 997.159 494.318 L 1000.000 494.318"/>
<path d="M 59.659 498.580 L 61.080 498.580"/>
<path d="M 850.852 498.580 L 852.273 498.580"/>
<path d="M 923.295 498.580 L 928.977 498.580"/>
<path d="M 934.659 498.580 L 938.920 498.580"/>
<path d="M 944.602 498.580 L 946.023 498.580"/>
<path d="M 947.443 498.580 L 950.284 498.580"/>
<path d="M 954.545 498.580 L 957.386 498.580"/>
<path d="M 965.909 498.580 L 971.591 498.580"/>
<path d="M 975.852 498.580 L 982.955 498.580"/>
<path d="M 985.795 498.580 L 995.739 498.580"/>
<path d="M 59.659 502.841 L 61.080 502.841"/>
<path d="M 857.955 502.841 L 860.795 502.841"/>
<path d="M 907.670 502.841 L 911.932 502.841"/>
<path d="M 914.773 502.841 L 917.614 502.841"/>
<path d="M 919.034 502.841 L 920.455 502.841"/>
<path d="M 933.239 502.841 L 938.920 502.841"/>
<path d="M 946.023 502.841 L 948.864 502.841"/>
<path d="M 960.227 502.841 L 968.750 502.841"/>
<path d="M 974.432 502.841 L 978.693 502.841"/>
<path d="M 981.534 502.841 L 985.795 502.841"/>
<path d="M 990.057 502.841 L 995.739 502.841"/>
<path d="M 59.659 507.102 L 61.080 507.102"/>
<path d="M 866.477 507.102 L 867.898 507.102"/>
<path d="M 933.239 507.102 L 938.920 507.102"/>
<path d="M 941.761 507.102 L 948.864 507.102"/>
<path d="M 951.705 507.102 L 980.114 507.102"/>
<path d="M 984.375 507.102 L 988.636 507.102"/>
<path d="M 994.318 507.102 L 997.159 507.102"/>
<path d="M 59.659 511.364 L 61.080 511.364"/>
<path d="M 920.455 511.364 L 924.716 511.364"/>
<path d="M 927.557 511.364 L 931.818 511.364"/>
<path d="M 944.602 511.364 L 950.284 511.364"/>
<path d="M 953.125 511.364 L 963.068 511.364"/>
<path d="M 964.489 511.364 L 971.591 511.364"/>
<path d="M 978.693 511.364 L 984.375 511.364"/>
<path d="M 987.216 511.364 L 995.739 511.364"/>
<path d="M 997.159 511.364 L 1000.000 511.364"/>
<path d="M 61.080 515.625 L 62.500 515.625"/>
<path d="M 880.682 515.625 L 882.102 515.625"/>
<path d="M 924.716 515.625 L 931.818 515.625"/>
<path d="M 933.239 515.625 L 960.227 515.625"/>
<path d="M 961.648 515.625 L 965.909 515.625"/>
<path d="M 968.750 515.625 L 974.432 515.625"/>
<path d="M 980.114 515.625 L 995.739 515.625"/>
<path d="M 997.159 515.625 L 1000.000 515.625"/>
<path d="M 62.500 519.886 L 63.920 519.886"/>
<path d="M 887.784 519.886 L 889.205 519.886"/>
<path d="M 926.136 519.886 L 930.398 519.886"/>
<path d="M 931.818 519.886 L 943.182 519.886"/>
<path d="M 950.284 519.886 L 970.170 519.886"/>
<path d="M 974.432 519.886 L 975.852 519.886"/>
<path d="M 977.273 519.886 L 982.955 519.886"/>
<path d="M 984.375 519.886 L 988.636 519.886"/>
<path d="M 61.080 524.148 L 62.500 524.148"/>
<path d="M 63.920 524.148 L 66.761 524.148"/>
<path d="M 893.466 524.148 L 894.886 524.148"/>
<path d="M 931.818 524.148 L 937.500 524.148"/>
<path d="M 938.920 524.148 L 961.648 524.148"/>
<path d="M 963.068 524.148 L 973.011 524.148"/>
<path d="M 974.432 524.148 L 982.955 524.148"/>
<path d="M 984.375 524.148 L 997.159 524.148"/>
<path d="M 65.341 528.409 L 68.182 528.409"/>
<path d="M 899.148 528.409 L 900.568 528.409"/>
<path d="M 931.818 528.409 L 937.500 528.409"/>
<path d="M 938.920 528.409 L 944.602 528.409"/>
<path d="M 946.023 528.409 L 963.068 528.409"/>
<path d="M 967.330 528.409 L 1000.000 528.409"/>
<path d="M 66.761 532.670 L 68.182 532.670"/>
<path d="M 903.409 532.670 L 904.830 532.670"/>
<path d="M 936.080 532.670 L 938.920 532.670"/>
<path d="M 940.341 532.670 L 943.182 532.670"/>
<path d="M 946.023 532.670 L 951.705 532.670"/>
<path d="M 953.125 532.670 L 995.739 532.670"/>
<path d="M 997.159 532.670 L 1000.000 532.670"/>
<path d="M 66.761 536.932 L 73.864 536.932"/>
<path d="M 907.670 536.932 L 909.091 536.932"/>
<path d="M 928.977 536.932 L 930.398 536.932"/>
<path d="M 934.659 536.932 L 967.330 536.932"/>
<path d="M 968.750 536.932 L 977.273 536.932"/>
<path d="M 978.693 536.932 L 985.795 536.932"/>
<path d="M 987.216 536.932 L 1000.000 536.932"/>
<path d="M 71.023 541.193 L 78.125 541.193"/>
<path d="M 911.932 541.193 L 913.352 541.193"/>
<path d="M 936.080 541.193 L 968.750 541.193"/>
<path d="M 973.011 541.193 L 980.114 541.193"/>
<path d="M 982.955 541.193 L 995.739 541.193"/>
<path d="M 997.159 541.193 L 1000.000 541.193"/>
<path d="M 73.864 545.455 L 80.966 545.455"/>
<path d="M 914.773 545.455 L 916.193 545.455"/>
<path d="M 931.818 545.455 L 936.080 545.455"/>
<path d="M 941.761 545.455 L 944.602 545.455"/>
<path d="M 948.864 545.455 L 963.068 545.455"/>
<path d="M 971.591 545.455 L 974.432 545.455"/>
<path d="M 975.852 545.455 L 990.057 545.455"/>
<path d="M 991.477 545.455 L 1000.000 545.455"/>
<path d="M 78.125 549.716 L 79.545 549.716"/>
<path d="M 934.659 549.716 L 937.500 549.716"/>
<path d="M 941.761 549.716 L 988.636 549.716"/>
<path d="M 990.057 549.716 L 992.898 549.716"/>
<path d="M 997.159 549.716 L 1000.000 549.716"/>
<path d="M 78.125 553.977 L 79.545 553.977"/>
<path d="M 921.875 553.977 L 923.295 553.977"/>
<path d="M 943.182 553.977 L 950.284 553.977"/>
<path d="M 953.125 553.977 L 960.227 553.977"/>
<path d="M 961.648 553.977 L 967.330 553.977"/>
<path d="M 970.170 553.977 L 988.636 553.977"/>
<path d="M 990.057 553.977 L 1000.000 553.977"/>
<path d="M 76.705 558.239 L 78.125 558.239"/>
<path d="M 936.080 558.239 L 937.500 558.239"/>
<path d="M 938.920 558.239 L 958.807 558.239"/>
<path d="M 961.648 558.239 L 970.170 558.239"/>
<path d="M 971.591 558.239 L 990.057 558.239"/>
<path d="M 992.898 558.239 L 1000.000 558.239"/>
<path d="M 75.284 562.500 L 78.125 562.500"/>
<path d="M 941.761 562.500 L 944.602 562.500"/>
<path d="M 947.443 562.500 L 957.386 562.500"/>
<path d="M 958.807 562.500 L 984.375 562.500"/>
<path d="M 985.795 562.500 L 1000.000 562.500"/>
<path d="M 75.284 566.761 L 76.705 566.761"/>
<path d="M 928.977 566.761 L 930.398 566.761"/>
<path d="M 946.023 566.761 L 950.284 566.761"/>
<path d="M 951.705 566.761 L 1000.000 566.761"/>
<path d="M 76.705 571.023 L 78.125 571.023"/>
<path d="M 931.818 571.023 L 933.239 571.023"/>
<path d="M 944.602 571.023 L 947.443 571.023"/>
<path d="M 948.864 571.023 L 992.898 571.023"/>
<path d="M 994.318 571.023 L 1000.000 571.023"/>
<path d="M 78.125 575.284 L 79.545 575.284"/>
<path d="M 933.239 575.284 L 934.659 575.284"/>
<path d="M 946.023 575.284 L 951.705 575.284"/>
<path d="M 953.125 575.284 L 957.386 575.284"/>
<path d="M 960.227 575.284 L 963.068 575.284"/>
<path d="M 964.489 575.284 L 978.693 575.284"/>
<path d="M 980.114 575.284 L 982.955 575.284"/>
<path d="M 987.216 575.284 L 1000.000 575.284"/>
<path d="M 79.545 579.545 L 80.966 579.545"/>
<path d="M 936.080 579.545 L 937.500 579.545"/>
<path d="M 940.341 579.545 L 941.761 579.545"/>
<path d="M 948.864 579.545 L 958.807 579.545"/>
<path d="M 960.227 579.545 L 964.489 579.545"/>
<path d="M 965.909 579.545 L 1000.000 579.545"/>
<path d="M 79.545 583.807 L 80.966 583.807"/>
<path d="M 83.807 583.807 L 85.227 583.807"/>
<path d="M 946.023 583.807 L 958.807 583.807"/>
<path d="M 961.648 583.807 L 998.580 583.807"/>
<path d="M 79.545 588.068 L 80.966 588.068"/>
<path d="M 940.341 588.068 L 941.761 588.068"/>
<path d="M 950.284 588.068 L 977.273 588.068"/>
<path d="M 978.693 588.068 L 1000.000 588.068"/>
<path d="M 78.125 592.330 L 79.545 592.330"/>
<path d="M 941.761 592.330 L 943.182 592.330"/>
<path d="M 948.864 592.330 L 950.284 592.330"/>
<path d="M 955.966 592.330 L 1000.000 592.330"/>
<path d="M 78.125 596.591 L 79.545 596.591"/>
<path d="M 957.386 596.591 L 1000.000 596.591"/>
<path d="M 76.705 600.852 L 78.125 600.852"/>
<path d="M 946.023 600.852 L 947.443 600.852"/>
<path d="M 957.386 600.852 L 968.750 600.852"/>
<path d="M 971.591 600.852 L 1000.000 600.852"/>
<path d="M 76.705 605.114 L 78.125 605.114"/>
<path d="M 947.443 605.114 L 948.864 605.114"/>
<path d="M 955.966 605.114 L 960.227 605.114"/>
<path d="M 965.909 605.114 L 1000.000 605.114"/>
<path d="M 78.125 609.375 L 79.545 609.375"/>
<path d="M 80.966 609.375 L 82.386 609.375"/>
<path d="M 948.864 609.375 L 954.545 609.375"/>
<path d="M 957.386 609.375 L 958.807 609.375"/>
<path d="M 960.227 609.375 L 1000.000 609.375"/>
<path d="M 78.125 613.636 L 79.545 613.636"/>
<path d="M 950.284 613.636 L 954.545 613.636"/>
<path d="M 960.227 613.636 L 1000.000 613.636"/>
<path d="M 76.705 617.898 L 78.125 617.898"/>
<path d="M 953.125 617.898 L 954.545 617.898"/>
<path d="M 955.966 617.898 L 965.909 617.898"/>
<path d="M 971.591 617.898 L 1000.000 617.898"/>
<path d="M 75.284 622.159 L 78.125 622.159"/>
<path d="M 954.545 622.159 L 1000.000 622.159"/>
<path d="M 73.864 626.420 L 75.284 626.420"/>
<path d="M 955.966 626.420 L 958.807 626.420"/>
<path d="M 964.489 626.420 L 971.591 626.420"/>
<path d="M 973.011 626.420 L 1000.000 626.420"/>
<path d="M 73.864 630.682 L 75.284 630.682"/>
<path d="M 957.386 630.682 L 961.648 630.682"/>
<path d="M 963.068 630.682 L 965.909 630.682"/>
<path d="M 967.330 630.682 L 998.580 630.682"/>
<path d="M 73.864 634.943 L 75.284 634.943"/>
<path d="M 958.807 634.943 L 960.227 634.943"/>
<path d="M 964.489 634.943 L 992.898 634.943"/>
<path d="M 998.580 634.943 L 1000.000 634.943"/>
<path d="M 73.864 639.205 L 78.125 639.205"/>
<path d="M 960.227 639.205 L 1000.000 639.205"/>
<path d="M 75.284 643.466 L 78.125 643.466"/>
<path d="M 961.648 643.466 L 990.057 643.466"/>
<path d="M 991.477 643.466 L 1000.000 643.466"/>
<path d="M 76.705 647.727 L 78.125 647.727"/>
<path d="M 967.330 647.727 L 1000.000 647.727"/>
<path d="M 78.125 651.989 L 79.545 651.989"/>
<path d="M 975.852 651.989 L 1000.000 651.989"/>
<path d="M 79.545 656.250 L 80.966 656.250"/>
<path d="M 968.750 656.250 L 970.170 656.250"/>
<path d="M 973.011 656.250 L 1000.000 656.250"/>
<path d="M 76.705 660.511 L 79.545 660.511"/>
<path d="M 973.011 660.511 L 978.693 660.511"/>
<path d="M 981.534 660.511 L 990.057 660.511"/>
<path d="M 992.898 660.511 L 995.739 660.511"/>
<path d="M 73.864 664.773 L 75.284 664.773"/>
<path d="M 975.852 664.773 L 990.057 664.773"/>
<path d="M 998.580 664.773 L 1000.000 664.773"/>
<path d="M 69.602 669.034 L 71.023 669.034"/>
<path d="M 973.011 669.034 L 990.057 669.034"/>
<path d="M 66.761 673.295 L 68.182 673.295"/>
<path d="M 974.432 673.295 L 987.216 673.295"/>
<path d="M 63.920 677.557 L 65.341 677.557"/>
<path d="M 970.170 677.557 L 971.591 677.557"/>
<path d="M 974.432 677.557 L 977.273 677.557"/>
<path d="M 978.693 677.557 L 982.955 677.557"/>
<path d="M 62.500 681.818 L 63.920 681.818"/>
<path d="M 65.341 681.818 L 66.761 681.818"/>
<path d="M 970.170 681.818 L 981.534 681.818"/>
<path d="M 61.080 686.080 L 62.500 686.080"/>
<path d="M 967.330 686.080 L 980.114 686.080"/>
<path d="M 61.080 690.341 L 62.500 690.341"/>
<path d="M 961.648 690.341 L 975.852 690.341"/>
<path d="M 61.080 694.602 L 62.500 694.602"/>
<path d="M 957.386 694.602 L 973.011 694.602"/>
<path d="M 988.636 694.602 L 990.057 694.602"/>
<path d="M 62.500 698.864 L 63.920 698.864"/>
<path d="M 953.125 698.864 L 971.591 698.864"/>
<path d="M 987.216 698.864 L 988.636 698.864"/>
<path d="M 63.920 703.125 L 65.341 703.125"/>
<path d="M 946.023 703.125 L 957.386 703.125"/>
<path d="M 65.341 707.386 L 66.761 707.386"/>
<path d="M 938.920 707.386 L 953.125 707.386"/>
<path d="M 958.807 707.386 L 960.227 707.386"/>
<path d="M 63.920 711.648 L 65.341 711.648"/>
<path d="M 68.182 711.648 L 72.443 711.648"/>
<path d="M 931.818 711.648 L 941.761 711.648"/>
<path d="M 948.864 711.648 L 950.284 711.648"/>
<path d="M 69.602 715.909 L 72.443 715.909"/>
<path d="M 919.034 715.909 L 926.136 715.909"/>
<path d="M 927.557 715.909 L 936.080 715.909"/>
<path d="M 69.602 720.170 L 73.864 720.170"/>
<path d="M 355.114 720.170 L 366.477 720.170"/>
<path d="M 382.102 720.170 L 386.364 720.170"/>
<path d="M 911.932 720.170 L 921.875 720.170"/>
<path d="M 76.705 724.432 L 82.386 724.432"/>
<path d="M 228.693 724.432 L 234.375 724.432"/>
<path d="M 242.898 724.432 L 247.159 724.432"/>
<path d="M 346.591 724.432 L 348.011 724.432"/>
<path d="M 389.205 724.432 L 390.625 724.432"/>
<path d="M 906.250 724.432 L 916.193 724.432"/>
<path d="M 80.966 728.693 L 82.386 728.693"/>
<path d="M 86.648 728.693 L 93.750 728.693"/>
<path d="M 224.432 728.693 L 227.273 728.693"/>
<path d="M 257.102 728.693 L 258.523 728.693"/>
<path d="M 340.909 728.693 L 343.750 728.693"/>
<path d="M 392.045 728.693 L 393.466 728.693"/>
<path d="M 892.045 728.693 L 894.886 728.693"/>
<path d="M 899.148 728.693 L 901.989 728.693"/>
<path d="M 906.250 728.693 L 909.091 728.693"/>
<path d="M 106.534 732.955 L 113.636 732.955"/>
<path d="M 223.011 732.955 L 224.432 732.955"/>
<path d="M 264.205 732.955 L 269.886 732.955"/>
<path d="M 333.807 732.955 L 335.227 732.955"/>
<path d="M 393.466 732.955 L 394.886 732.955"/>
<path d="M 884.943 732.955 L 896.307 732.955"/>
<path d="M 115.057 737.216 L 120.739 737.216"/>
<path d="M 221.591 737.216 L 224.432 737.216"/>
<path d="M 275.568 737.216 L 278.409 737.216"/>
<path d="M 319.602 737.216 L 323.864 737.216"/>
<path d="M 396.307 737.216 L 397.727 737.216"/>
<path d="M 873.580 737.216 L 884.943 737.216"/>
<path d="M 954.545 737.216 L 957.386 737.216"/>
<path d="M 123.580 741.477 L 130.682 741.477"/>
<path d="M 221.591 741.477 L 224.432 741.477"/>
<path d="M 285.511 741.477 L 289.773 741.477"/>
<path d="M 291.193 741.477 L 303.977 741.477"/>
<path d="M 397.727 741.477 L 399.148 741.477"/>
<path d="M 859.375 741.477 L 875.000 741.477"/>
<path d="M 965.909 741.477 L 968.750 741.477"/>
<path d="M 129.261 745.739 L 130.682 745.739"/>
<path d="M 221.591 745.739 L 224.432 745.739"/>
<path d="M 399.148 745.739 L 400.568 745.739"/>
<path d="M 848.011 745.739 L 862.216 745.739"/>
<path d="M 130.682 750.000 L 132.102 750.000"/>
<path d="M 221.591 750.000 L 224.432 750.000"/>
<path d="M 400.568 750.000 L 401.989 750.000"/>
<path d="M 833.807 750.000 L 843.750 750.000"/>
<path d="M 130.682 754.261 L 132.102 754.261"/>
<path d="M 220.170 754.261 L 223.011 754.261"/>
<path d="M 403.409 754.261 L 404.830 754.261"/>
<path d="M 823.864 754.261 L 830.966 754.261"/>
<path d="M 132.102 758.523 L 133.523 758.523"/>
<path d="M 217.330 758.523 L 220.170 758.523"/>
<path d="M 404.830 758.523 L 406.250 758.523"/>
<path d="M 815.341 758.523 L 823.864 758.523"/>
<path d="M 133.523 762.784 L 134.943 762.784"/>
<path d="M 215.909 762.784 L 217.330 762.784"/>
<path d="M 406.250 762.784 L 410.511 762.784"/>
<path d="M 808.239 762.784 L 819.602 762.784"/>
<path d="M 134.943 767.045 L 136.364 767.045"/>
<path d="M 211.648 767.045 L 214.489 767.045"/>
<path d="M 411.932 767.045 L 413.352 767.045"/>
<path d="M 799.716 767.045 L 816.761 767.045"/>
<path d="M 137.784 771.307 L 139.205 771.307"/>
<path d="M 416.193 771.307 L 419.034 771.307"/>
<path d="M 791.193 771.307 L 794.034 771.307"/>
<path d="M 795.455 771.307 L 799.716 771.307"/>
<path d="M 139.205 775.568 L 143.466 775.568"/>
<path d="M 197.443 775.568 L 198.864 775.568"/>
<path d="M 421.875 775.568 L 426.136 775.568"/>
<path d="M 791.193 775.568 L 795.455 775.568"/>
<path d="M 805.398 775.568 L 808.239 775.568"/>
<path d="M 886.364 775.568 L 887.784 775.568"/>
<path d="M 933.239 775.568 L 934.659 775.568"/>
<path d="M 90.909 779.830 L 92.330 779.830"/>
<path d="M 144.886 779.830 L 147.727 779.830"/>
<path d="M 187.500 779.830 L 190.341 779.830"/>
<path d="M 430.398 779.830 L 433.239 779.830"/>
<path d="M 786.932 779.830 L 788.352 779.830"/>
<path d="M 789.773 779.830 L 796.875 779.830"/>
<path d="M 151.989 784.091 L 157.670 784.091"/>
<path d="M 178.977 784.091 L 180.398 784.091"/>
<path d="M 440.341 784.091 L 443.182 784.091"/>
<path d="M 786.932 784.091 L 792.614 784.091"/>
<path d="M 795.455 784.091 L 796.875 784.091"/>
<path d="M 799.716 784.091 L 802.557 784.091"/>
<path d="M 460.227 788.352 L 467.330 788.352"/>
<path d="M 784.091 788.352 L 792.614 788.352"/>
<path d="M 11.364 792.614 L 14.205 792.614"/>
<path d="M 478.693 792.614 L 481.534 792.614"/>
<path d="M 784.091 792.614 L 791.193 792.614"/>
<path d="M 494.318 796.875 L 501.420 796.875"/>
<path d="M 784.091 796.875 L 789.773 796.875"/>
<path d="M 796.875 796.875 L 798.295 796.875"/>
<path d="M 519.886 801.136 L 521.307 801.136"/>
<path d="M 522.727 801.136 L 524.148 801.136"/>
<path d="M 531.250 801.136 L 534.091 801.136"/>
<path d="M 535.511 801.136 L 549.716 801.136"/>
<path d="M 782.670 801.136 L 788.352 801.136"/>
<path d="M 792.614 801.136 L 799.716 801.136"/>
<path d="M 968.750 801.136 L 970.170 801.136"/>
<path d="M 566.761 805.398 L 569.602 805.398"/>
<path d="M 572.443 805.398 L 579.545 805.398"/>
<path d="M 779.830 805.398 L 789.773 805.398"/>
<path d="M 792.614 805.398 L 795.455 805.398"/>
<path d="M 592.330 809.659 L 599.432 809.659"/>
<path d="M 776.989 809.659 L 784.091 809.659"/>
<path d="M 965.909 809.659 L 968.750 809.659"/>
<path d="M 606.534 813.920 L 610.795 813.920"/>
<path d="M 612.216 813.920 L 613.636 813.920"/>
<path d="M 771.307 813.920 L 779.830 813.920"/>
<path d="M 788.352 813.920 L 789.773 813.920"/>
<path d="M 987.216 813.920 L 988.636 813.920"/>
<path d="M 619.318 818.182 L 622.159 818.182"/>
<path d="M 771.307 818.182 L 784.091 818.182"/>
<path d="M 988.636 818.182 L 990.057 818.182"/>
<path d="M 627.841 822.443 L 633.523 822.443"/>
<path d="M 772.727 822.443 L 779.830 822.443"/>
<path d="M 782.670 822.443 L 785.511 822.443"/>
<path d="M 636.364 826.705 L 640.625 826.705"/>
<path d="M 772.727 826.705 L 782.670 826.705"/>
<path d="M 784.091 826.705 L 786.932 826.705"/>
<path d="M 919.034 826.705 L 921.875 826.705"/>
<path d="M 978.693 826.705 L 981.534 826.705"/>
<path d="M 642.045 830.966 L 644.886 830.966"/>
<path d="M 646.307 830.966 L 647.727 830.966"/>
<path d="M 774.148 830.966 L 779.830 830.966"/>
<path d="M 786.932 830.966 L 795.455 830.966"/>
<path d="M 799.716 830.966 L 801.136 830.966"/>
<path d="M 98.011 835.227 L 99.432 835.227"/>
<path d="M 102.273 835.227 L 107.955 835.227"/>
<path d="M 644.886 835.227 L 647.727 835.227"/>
<path d="M 774.148 835.227 L 781.250 835.227"/>
<path d="M 788.352 835.227 L 791.193 835.227"/>
<path d="M 646.307 839.489 L 650.568 839.489"/>
<path d="M 774.148 839.489 L 779.830 839.489"/>
<path d="M 646.307 843.750 L 649.148 843.750"/>
<path d="M 650.568 843.750 L 651.989 843.750"/>
<path d="M 774.148 843.750 L 792.614 843.750"/>
<path d="M 801.136 843.750 L 802.557 843.750"/>
<path d="M 649.148 848.011 L 653.409 848.011"/>
<path d="M 775.568 848.011 L 779.830 848.011"/>
<path d="M 781.250 848.011 L 784.091 848.011"/>
<path d="M 917.614 848.011 L 920.455 848.011"/>
<path d="M 650.568 852.273 L 654.830 852.273"/>
<path d="M 776.989 852.273 L 794.034 852.273"/>
<path d="M 653.409 856.534 L 656.250 856.534"/>
<path d="M 775.568 856.534 L 776.989 856.534"/>
<path d="M 778.409 856.534 L 789.773 856.534"/>
<path d="M 792.614 856.534 L 796.875 856.534"/>
<path d="M 799.716 856.534 L 802.557 856.534"/>
<path d="M 654.830 860.795 L 656.250 860.795"/>
<path d="M 775.568 860.795 L 776.989 860.795"/>
<path d="M 779.830 860.795 L 788.352 860.795"/>
<path d="M 796.875 860.795 L 798.295 860.795"/>
<path d="M 875.000 860.795 L 876.420 860.795"/>
<path d="M 940.341 860.795 L 941.761 860.795"/>
<path d="M 656.250 865.057 L 657.670 865.057"/>
<path d="M 775.568 865.057 L 792.614 865.057"/>
<path d="M 656.250 869.318 L 657.670 869.318"/>
<path d="M 778.409 869.318 L 784.091 869.318"/>
<path d="M 788.352 869.318 L 789.773 869.318"/>
<path d="M 934.659 869.318 L 936.080 869.318"/>
<path d="M 778.409 873.580 L 781.250 873.580"/>
<path d="M 785.511 873.580 L 786.932 873.580"/>
<path d="M 943.182 873.580 L 946.023 873.580"/>
<path d="M 657.670 877.841 L 659.091 877.841"/>
<path d="M 779.830 877.841 L 788.352 877.841"/>
<path d="M 791.193 877.841 L 792.614 877.841"/>
<path d="M 656.250 882.102 L 659.091 882.102"/>
<path d="M 778.409 882.102 L 789.773 882.102"/>
<path d="M 928.977 882.102 L 930.398 882.102"/>
<path d="M 955.966 882.102 L 960.227 882.102"/>
<path d="M 657.670 886.364 L 659.091 886.364"/>
<path d="M 776.989 886.364 L 786.932 886.364"/>
<path d="M 789.773 886.364 L 792.614 886.364"/>
<path d="M 656.250 890.625 L 660.511 890.625"/>
<path d="M 776.989 890.625 L 782.670 890.625"/>
<path d="M 785.511 890.625 L 788.352 890.625"/>
<path d="M 789.773 890.625 L 792.614 890.625"/>
<path d="M 79.545 894.886 L 80.966 894.886"/>
<path d="M 659.091 894.886 L 660.511 894.886"/>
<path d="M 775.568 894.886 L 784.091 894.886"/>
<path d="M 950.284 894.886 L 951.705 894.886"/>
<path d="M 659.091 899.148 L 661.932 899.148"/>
<path d="M 774.148 899.148 L 779.830 899.148"/>
<path d="M 781.250 899.148 L 784.091 899.148"/>
<path d="M 816.761 899.148 L 818.182 899.148"/>
<path d="M 928.977 899.148 L 933.239 899.148"/>
<path d="M 938.920 899.148 L 946.023 899.148"/>
<path d="M 964.489 899.148 L 965.909 899.148"/>
<path d="M 660.511 903.409 L 663.352 903.409"/>
<path d="M 772.727 903.409 L 782.670 903.409"/>
<path d="M 919.034 903.409 L 920.455 903.409"/>
<path d="M 661.932 907.670 L 664.773 907.670"/>
<path d="M 771.307 907.670 L 778.409 907.670"/>
<path d="M 664.773 911.932 L 667.614 911.932"/>
<path d="M 769.886 911.932 L 772.727 911.932"/>
<path d="M 667.614 916.193 L 670.455 916.193"/>
<path d="M 764.205 916.193 L 771.307 916.193"/>
<path d="M 917.614 916.193 L 920.455 916.193"/>
<path d="M 670.455 920.455 L 671.875 920.455"/>
<path d="M 761.364 920.455 L 765.625 920.455"/>
<path d="M 899.148 920.455 L 900.568 920.455"/>
<path d="M 934.659 920.455 L 936.080 920.455"/>
<path d="M 674.716 924.716 L 676.136 924.716"/>
<path d="M 755.682 924.716 L 759.943 924.716"/>
<path d="M 910.511 924.716 L 913.352 924.716"/>
<path d="M 680.398 928.977 L 681.818 928.977"/>
<path d="M 750.000 928.977 L 752.841 928.977"/>
<path d="M 869.318 928.977 L 872.159 928.977"/>
<path d="M 909.091 928.977 L 911.932 928.977"/>
<path d="M 687.500 933.239 L 690.341 933.239"/>
<path d="M 740.057 933.239 L 745.739 933.239"/>
<path d="M 946.023 933.239 L 947.443 933.239"/>
<path d="M 700.284 937.500 L 707.386 937.500"/>
<path d="M 721.591 937.500 L 732.955 937.500"/>
<path d="M 830.966 937.500 L 832.386 937.500"/>
<path d="M 877.841 937.500 L 879.261 937.500"/>
<path d="M 883.523 937.500 L 884.943 937.500"/>
<path d="M 894.886 937.500 L 896.307 937.500"/>
<path d="M 870.739 941.761 L 873.580 941.761"/>
<path d="M 880.682 941.761 L 883.523 941.761"/>
</g>
</svg>
