<?xml version="1.0" encoding="UTF-8"?>
<svg xmlns="http://www.w3.org/2000/svg" width="1000.000mm" height="944.602mm" viewBox="0 0 1000.000 944.602">
<metadata>HatchSmith © FIWAtec GmbH</metadata>
<rect x="0" y="0" width="100%" height="100%" fill="white"/>
<g id="14_layer_14" stroke="#FFFFFF" stroke-width="1.000" stroke-linecap="round" stroke-linejoin="round" fill="none">
<path d="M 0.000 0.000 L 1000.000 0.000"/>
<path d="M 0.000 4.261 L 933.239 4.261"/>
<path d="M 934.659 4.261 L 982.955 4.261"/>
<path d="M 987.216 4.261 L 1000.000 4.261"/>
<path d="M 0.000 8.523 L 1000.000 8.523"/>
<path d="M 0.000 12.784 L 941.761 12.784"/>
<path d="M 943.182 12.784 L 1000.000 12.784"/>
<path d="M 0.000 17.045 L 990.057 17.045"/>
<path d="M 991.477 17.045 L 1000.000 17.045"/>
<path d="M 0.000 21.307 L 883.523 21.307"/>
<path d="M 886.364 21.307 L 968.750 21.307"/>
<path d="M 971.591 21.307 L 1000.000 21.307"/>
<path d="M 0.000 25.568 L 964.489 25.568"/>
<path d="M 965.909 25.568 L 971.591 25.568"/>
<path d="M 974.432 25.568 L 995.739 25.568"/>
<path d="M 0.000 29.830 L 964.489 29.830"/>
<path d="M 967.330 29.830 L 970.170 29.830"/>
<path d="M 971.591 29.830 L 987.216 29.830"/>
<path d="M 991.477 29.830 L 1000.000 29.830"/>
<path d="M 0.000 34.091 L 984.375 34.091"/>
<path d="M 988.636 34.091 L 1000.000 34.091"/>
<path d="M 0.000 38.352 L 990.057 38.352"/>
<path d="M 992.898 38.352 L 1000.000 38.352"/>
<path d="M 0.000 42.614 L 964.489 42.614"/>
<path d="M 965.909 42.614 L 967.330 42.614"/>
<path d="M 973.011 42.614 L 974.432 42.614"/>
<path d="M 978.693 42.614 L 1000.000 42.614"/>
<path d="M 0.000 46.875 L 578.125 46.875"/>
<path d="M 625.000 46.875 L 931.818 46.875"/>
<path d="M 934.659 46.875 L 968.750 46.875"/>
<path d="M 971.591 46.875 L 1000.000 46.875"/>
<path d="M 0.000 51.136 L 559.659 51.136"/>
<path d="M 644.886 51.136 L 927.557 51.136"/>
<path d="M 928.977 51.136 L 941.761 51.136"/>
<path d="M 944.602 51.136 L 951.705 51.136"/>
<path d="M 955.966 51.136 L 994.318 51.136"/>
<path d="M 995.739 51.136 L 1000.000 51.136"/>
<path d="M 0.000 55.398 L 546.875 55.398"/>
<path d="M 657.670 55.398 L 937.500 55.398"/>
<path d="M 943.182 55.398 L 947.443 55.398"/>
<path d="M 948.864 55.398 L 1000.000 55.398"/>
<path d="M 0.000 59.659 L 536.932 59.659"/>
<path d="M 666.193 59.659 L 971.591 59.659"/>
<path d="M 974.432 59.659 L 1000.000 59.659"/>
<path d="M 0.000 63.920 L 528.409 63.920"/>
<path d="M 674.716 63.920 L 968.750 63.920"/>
<path d="M 971.591 63.920 L 995.739 63.920"/>
<path d="M 997.159 63.920 L 1000.000 63.920"/>
<path d="M 0.000 68.182 L 521.307 68.182"/>
<path d="M 680.398 68.182 L 953.125 68.182"/>
<path d="M 954.545 68.182 L 988.636 68.182"/>
<path d="M 990.057 68.182 L 1000.000 68.182"/>
<path d="M 0.000 72.443 L 517.045 72.443"/>
<path d="M 686.080 72.443 L 958.807 72.443"/>
<path d="M 961.648 72.443 L 1000.000 72.443"/>
<path d="M 0.000 76.705 L 514.205 76.705"/>
<path d="M 691.761 76.705 L 968.750 76.705"/>
<path d="M 971.591 76.705 L 1000.000 76.705"/>
<path d="M 0.000 80.966 L 508.523 80.966"/>
<path d="M 693.182 80.966 L 848.011 80.966"/>
<path d="M 852.273 80.966 L 853.693 80.966"/>
<path d="M 857.955 80.966 L 957.386 80.966"/>
<path d="M 960.227 80.966 L 984.375 80.966"/>
<path d="M 985.795 80.966 L 1000.000 80.966"/>
<path d="M 0.000 85.227 L 504.261 85.227"/>
<path d="M 697.443 85.227 L 880.682 85.227"/>
<path d="M 884.943 85.227 L 957.386 85.227"/>
<path d="M 958.807 85.227 L 1000.000 85.227"/>
<path d="M 0.000 89.489 L 498.580 89.489"/>
<path d="M 700.284 89.489 L 883.523 89.489"/>
<path d="M 884.943 89.489 L 893.466 89.489"/>
<path d="M 897.727 89.489 L 1000.000 89.489"/>
<path d="M 0.000 93.750 L 490.057 93.750"/>
<path d="M 707.386 93.750 L 1000.000 93.750"/>
<path d="M 0.000 98.011 L 471.591 98.011"/>
<path d="M 705.966 98.011 L 1000.000 98.011"/>
<path d="M 0.000 102.273 L 463.068 102.273"/>
<path d="M 708.807 102.273 L 1000.000 102.273"/>
<path d="M 0.000 106.534 L 383.523 106.534"/>
<path d="M 384.943 106.534 L 453.125 106.534"/>
<path d="M 710.227 106.534 L 1000.000 106.534"/>
<path d="M 0.000 110.795 L 443.182 110.795"/>
<path d="M 711.648 110.795 L 897.727 110.795"/>
<path d="M 901.989 110.795 L 1000.000 110.795"/>
<path d="M 0.000 115.057 L 437.500 115.057"/>
<path d="M 714.489 115.057 L 1000.000 115.057"/>
<path d="M 0.000 119.318 L 433.239 119.318"/>
<path d="M 714.489 119.318 L 1000.000 119.318"/>
<path d="M 0.000 123.580 L 430.398 123.580"/>
<path d="M 718.750 123.580 L 1000.000 123.580"/>
<path d="M 0.000 127.841 L 424.716 127.841"/>
<path d="M 717.330 127.841 L 720.170 127.841"/>
<path d="M 721.591 127.841 L 1000.000 127.841"/>
<path d="M 0.000 132.102 L 409.091 132.102"/>
<path d="M 718.750 132.102 L 1000.000 132.102"/>
<path d="M 0.000 136.364 L 401.989 136.364"/>
<path d="M 723.011 136.364 L 883.523 136.364"/>
<path d="M 884.943 136.364 L 1000.000 136.364"/>
<path d="M 0.000 140.625 L 396.307 140.625"/>
<path d="M 724.432 140.625 L 735.795 140.625"/>
<path d="M 737.216 140.625 L 863.636 140.625"/>
<path d="M 866.477 140.625 L 1000.000 140.625"/>
<path d="M 0.000 144.886 L 386.364 144.886"/>
<path d="M 725.852 144.886 L 875.000 144.886"/>
<path d="M 879.261 144.886 L 1000.000 144.886"/>
<path d="M 0.000 149.148 L 376.420 149.148"/>
<path d="M 727.273 149.148 L 1000.000 149.148"/>
<path d="M 0.000 153.409 L 370.739 153.409"/>
<path d="M 727.273 153.409 L 879.261 153.409"/>
<path d="M 882.102 153.409 L 889.205 153.409"/>
<path d="M 890.625 153.409 L 1000.000 153.409"/>
<path d="M 0.000 157.670 L 366.477 157.670"/>
<path d="M 727.273 157.670 L 1000.000 157.670"/>
<path d="M 0.000 161.932 L 362.216 161.932"/>
<path d="M 727.273 161.932 L 1000.000 161.932"/>
<path d="M 0.000 166.193 L 360.795 166.193"/>
<path d="M 728.693 166.193 L 1000.000 166.193"/>
<path d="M 0.000 170.455 L 357.955 170.455"/>
<path d="M 727.273 170.455 L 728.693 170.455"/>
<path d="M 732.955 170.455 L 884.943 170.455"/>
<path d="M 889.205 170.455 L 1000.000 170.455"/>
<path d="M 0.000 174.716 L 357.955 174.716"/>
<path d="M 730.114 174.716 L 1000.000 174.716"/>
<path d="M 0.000 178.977 L 356.534 178.977"/>
<path d="M 727.273 178.977 L 1000.000 178.977"/>
<path d="M 0.000 183.239 L 356.534 183.239"/>
<path d="M 727.273 183.239 L 937.500 183.239"/>
<path d="M 938.920 183.239 L 1000.000 183.239"/>
<path d="M 0.000 187.500 L 356.534 187.500"/>
<path d="M 728.693 187.500 L 1000.000 187.500"/>
<path d="M 0.000 191.761 L 356.534 191.761"/>
<path d="M 724.432 191.761 L 1000.000 191.761"/>
<path d="M 0.000 196.023 L 356.534 196.023"/>
<path d="M 725.852 196.023 L 1000.000 196.023"/>
<path d="M 0.000 200.284 L 357.955 200.284"/>
<path d="M 730.114 200.284 L 1000.000 200.284"/>
<path d="M 0.000 204.545 L 359.375 204.545"/>
<path d="M 738.636 204.545 L 1000.000 204.545"/>
<path d="M 0.000 208.807 L 357.955 208.807"/>
<path d="M 745.739 208.807 L 1000.000 208.807"/>
<path d="M 0.000 213.068 L 353.693 213.068"/>
<path d="M 750.000 213.068 L 907.670 213.068"/>
<path d="M 910.511 213.068 L 1000.000 213.068"/>
<path d="M 0.000 217.330 L 349.432 217.330"/>
<path d="M 754.261 217.330 L 1000.000 217.330"/>
<path d="M 0.000 221.591 L 345.170 221.591"/>
<path d="M 758.523 221.591 L 883.523 221.591"/>
<path d="M 884.943 221.591 L 910.511 221.591"/>
<path d="M 911.932 221.591 L 1000.000 221.591"/>
<path d="M 0.000 225.852 L 340.909 225.852"/>
<path d="M 761.364 225.852 L 917.614 225.852"/>
<path d="M 920.455 225.852 L 1000.000 225.852"/>
<path d="M 0.000 230.114 L 336.648 230.114"/>
<path d="M 764.205 230.114 L 799.716 230.114"/>
<path d="M 802.557 230.114 L 1000.000 230.114"/>
<path d="M 0.000 234.375 L 335.227 234.375"/>
<path d="M 765.625 234.375 L 781.250 234.375"/>
<path d="M 782.670 234.375 L 799.716 234.375"/>
<path d="M 802.557 234.375 L 828.125 234.375"/>
<path d="M 829.545 234.375 L 1000.000 234.375"/>
<path d="M 0.000 238.636 L 333.807 238.636"/>
<path d="M 768.466 238.636 L 802.557 238.636"/>
<path d="M 805.398 238.636 L 806.818 238.636"/>
<path d="M 809.659 238.636 L 811.080 238.636"/>
<path d="M 812.500 238.636 L 815.341 238.636"/>
<path d="M 816.761 238.636 L 869.318 238.636"/>
<path d="M 870.739 238.636 L 889.205 238.636"/>
<path d="M 890.625 238.636 L 916.193 238.636"/>
<path d="M 917.614 238.636 L 950.284 238.636"/>
<path d="M 951.705 238.636 L 1000.000 238.636"/>
<path d="M 0.000 242.898 L 332.386 242.898"/>
<path d="M 771.307 242.898 L 1000.000 242.898"/>
<path d="M 0.000 247.159 L 330.966 247.159"/>
<path d="M 769.886 247.159 L 934.659 247.159"/>
<path d="M 938.920 247.159 L 1000.000 247.159"/>
<path d="M 0.000 251.420 L 330.966 251.420"/>
<path d="M 772.727 251.420 L 812.500 251.420"/>
<path d="M 815.341 251.420 L 907.670 251.420"/>
<path d="M 911.932 251.420 L 1000.000 251.420"/>
<path d="M 0.000 255.682 L 332.386 255.682"/>
<path d="M 774.148 255.682 L 822.443 255.682"/>
<path d="M 823.864 255.682 L 958.807 255.682"/>
<path d="M 961.648 255.682 L 1000.000 255.682"/>
<path d="M 0.000 259.943 L 332.386 259.943"/>
<path d="M 776.989 259.943 L 822.443 259.943"/>
<path d="M 825.284 259.943 L 826.705 259.943"/>
<path d="M 832.386 259.943 L 869.318 259.943"/>
<path d="M 870.739 259.943 L 1000.000 259.943"/>
<path d="M 0.000 264.205 L 330.966 264.205"/>
<path d="M 779.830 264.205 L 818.182 264.205"/>
<path d="M 819.602 264.205 L 1000.000 264.205"/>
<path d="M 0.000 268.466 L 328.125 268.466"/>
<path d="M 785.511 268.466 L 825.284 268.466"/>
<path d="M 830.966 268.466 L 886.364 268.466"/>
<path d="M 889.205 268.466 L 900.568 268.466"/>
<path d="M 903.409 268.466 L 1000.000 268.466"/>
<path d="M 0.000 272.727 L 325.284 272.727"/>
<path d="M 789.773 272.727 L 880.682 272.727"/>
<path d="M 882.102 272.727 L 923.295 272.727"/>
<path d="M 924.716 272.727 L 931.818 272.727"/>
<path d="M 936.080 272.727 L 1000.000 272.727"/>
<path d="M 0.000 276.989 L 325.284 276.989"/>
<path d="M 795.455 276.989 L 828.125 276.989"/>
<path d="M 829.545 276.989 L 1000.000 276.989"/>
<path d="M 0.000 281.250 L 323.864 281.250"/>
<path d="M 798.295 281.250 L 845.170 281.250"/>
<path d="M 846.591 281.250 L 890.625 281.250"/>
<path d="M 893.466 281.250 L 1000.000 281.250"/>
<path d="M 0.000 285.511 L 322.443 285.511"/>
<path d="M 801.136 285.511 L 828.125 285.511"/>
<path d="M 832.386 285.511 L 990.057 285.511"/>
<path d="M 992.898 285.511 L 1000.000 285.511"/>
<path d="M 0.000 289.773 L 322.443 289.773"/>
<path d="M 803.977 289.773 L 830.966 289.773"/>
<path d="M 832.386 289.773 L 835.227 289.773"/>
<path d="M 836.648 289.773 L 857.955 289.773"/>
<path d="M 859.375 289.773 L 955.966 289.773"/>
<path d="M 958.807 289.773 L 1000.000 289.773"/>
<path d="M 0.000 294.034 L 322.443 294.034"/>
<path d="M 808.239 294.034 L 819.602 294.034"/>
<path d="M 822.443 294.034 L 961.648 294.034"/>
<path d="M 963.068 294.034 L 1000.000 294.034"/>
<path d="M 0.000 298.295 L 322.443 298.295"/>
<path d="M 809.659 298.295 L 819.602 298.295"/>
<path d="M 822.443 298.295 L 1000.000 298.295"/>
<path d="M 0.000 302.557 L 322.443 302.557"/>
<path d="M 812.500 302.557 L 960.227 302.557"/>
<path d="M 963.068 302.557 L 1000.000 302.557"/>
<path d="M 0.000 306.818 L 321.023 306.818"/>
<path d="M 813.920 306.818 L 826.705 306.818"/>
<path d="M 833.807 306.818 L 967.330 306.818"/>
<path d="M 968.750 306.818 L 1000.000 306.818"/>
<path d="M 0.000 311.080 L 319.602 311.080"/>
<path d="M 815.341 311.080 L 822.443 311.080"/>
<path d="M 825.284 311.080 L 826.705 311.080"/>
<path d="M 830.966 311.080 L 1000.000 311.080"/>
<path d="M 0.000 315.341 L 315.341 315.341"/>
<path d="M 816.761 315.341 L 832.386 315.341"/>
<path d="M 835.227 315.341 L 842.330 315.341"/>
<path d="M 845.170 315.341 L 852.273 315.341"/>
<path d="M 853.693 315.341 L 855.114 315.341"/>
<path d="M 856.534 315.341 L 954.545 315.341"/>
<path d="M 960.227 315.341 L 971.591 315.341"/>
<path d="M 973.011 315.341 L 990.057 315.341"/>
<path d="M 992.898 315.341 L 1000.000 315.341"/>
<path d="M 0.000 319.602 L 313.920 319.602"/>
<path d="M 825.284 319.602 L 826.705 319.602"/>
<path d="M 830.966 319.602 L 958.807 319.602"/>
<path d="M 964.489 319.602 L 968.750 319.602"/>
<path d="M 973.011 319.602 L 991.477 319.602"/>
<path d="M 992.898 319.602 L 1000.000 319.602"/>
<path d="M 0.000 323.864 L 288.352 323.864"/>
<path d="M 289.773 323.864 L 296.875 323.864"/>
<path d="M 823.864 323.864 L 828.125 323.864"/>
<path d="M 833.807 323.864 L 963.068 323.864"/>
<path d="M 965.909 323.864 L 1000.000 323.864"/>
<path d="M 0.000 328.125 L 288.352 328.125"/>
<path d="M 826.705 328.125 L 829.545 328.125"/>
<path d="M 835.227 328.125 L 914.773 328.125"/>
<path d="M 919.034 328.125 L 960.227 328.125"/>
<path d="M 961.648 328.125 L 1000.000 328.125"/>
<path d="M 0.000 332.386 L 244.318 332.386"/>
<path d="M 250.000 332.386 L 281.250 332.386"/>
<path d="M 829.545 332.386 L 838.068 332.386"/>
<path d="M 840.909 332.386 L 1000.000 332.386"/>
<path d="M 0.000 336.648 L 100.852 336.648"/>
<path d="M 105.114 336.648 L 139.205 336.648"/>
<path d="M 142.045 336.648 L 230.114 336.648"/>
<path d="M 267.045 336.648 L 276.989 336.648"/>
<path d="M 829.545 336.648 L 836.648 336.648"/>
<path d="M 839.489 336.648 L 951.705 336.648"/>
<path d="M 953.125 336.648 L 992.898 336.648"/>
<path d="M 995.739 336.648 L 1000.000 336.648"/>
<path d="M 0.000 340.909 L 86.648 340.909"/>
<path d="M 117.898 340.909 L 224.432 340.909"/>
<path d="M 833.807 340.909 L 978.693 340.909"/>
<path d="M 982.955 340.909 L 1000.000 340.909"/>
<path d="M 0.000 345.170 L 80.966 345.170"/>
<path d="M 125.000 345.170 L 156.250 345.170"/>
<path d="M 186.080 345.170 L 218.750 345.170"/>
<path d="M 829.545 345.170 L 830.966 345.170"/>
<path d="M 838.068 345.170 L 857.955 345.170"/>
<path d="M 859.375 345.170 L 974.432 345.170"/>
<path d="M 978.693 345.170 L 1000.000 345.170"/>
<path d="M 0.000 349.432 L 78.125 349.432"/>
<path d="M 193.182 349.432 L 203.125 349.432"/>
<path d="M 838.068 349.432 L 967.330 349.432"/>
<path d="M 968.750 349.432 L 1000.000 349.432"/>
<path d="M 0.000 353.693 L 76.705 353.693"/>
<path d="M 835.227 353.693 L 931.818 353.693"/>
<path d="M 934.659 353.693 L 940.341 353.693"/>
<path d="M 944.602 353.693 L 1000.000 353.693"/>
<path d="M 0.000 357.955 L 73.864 357.955"/>
<path d="M 829.545 357.955 L 833.807 357.955"/>
<path d="M 839.489 357.955 L 879.261 357.955"/>
<path d="M 880.682 357.955 L 954.545 357.955"/>
<path d="M 955.966 357.955 L 1000.000 357.955"/>
<path d="M 0.000 362.216 L 72.443 362.216"/>
<path d="M 825.284 362.216 L 828.125 362.216"/>
<path d="M 835.227 362.216 L 1000.000 362.216"/>
<path d="M 0.000 366.477 L 69.602 366.477"/>
<path d="M 821.023 366.477 L 822.443 366.477"/>
<path d="M 825.284 366.477 L 924.716 366.477"/>
<path d="M 926.136 366.477 L 1000.000 366.477"/>
<path d="M 0.000 370.739 L 31.250 370.739"/>
<path d="M 65.341 370.739 L 66.761 370.739"/>
<path d="M 816.761 370.739 L 818.182 370.739"/>
<path d="M 821.023 370.739 L 1000.000 370.739"/>
<path d="M 0.000 375.000 L 22.727 375.000"/>
<path d="M 816.761 375.000 L 835.227 375.000"/>
<path d="M 838.068 375.000 L 842.330 375.000"/>
<path d="M 843.750 375.000 L 863.636 375.000"/>
<path d="M 865.057 375.000 L 968.750 375.000"/>
<path d="M 970.170 375.000 L 1000.000 375.000"/>
<path d="M 0.000 379.261 L 17.045 379.261"/>
<path d="M 805.398 379.261 L 808.239 379.261"/>
<path d="M 813.920 379.261 L 822.443 379.261"/>
<path d="M 825.284 379.261 L 826.705 379.261"/>
<path d="M 833.807 379.261 L 845.170 379.261"/>
<path d="M 848.011 379.261 L 882.102 379.261"/>
<path d="M 886.364 379.261 L 1000.000 379.261"/>
<path d="M 0.000 383.523 L 14.205 383.523"/>
<path d="M 806.818 383.523 L 813.920 383.523"/>
<path d="M 818.182 383.523 L 825.284 383.523"/>
<path d="M 826.705 383.523 L 830.966 383.523"/>
<path d="M 838.068 383.523 L 845.170 383.523"/>
<path d="M 846.591 383.523 L 1000.000 383.523"/>
<path d="M 0.000 387.784 L 11.364 387.784"/>
<path d="M 809.659 387.784 L 822.443 387.784"/>
<path d="M 825.284 387.784 L 838.068 387.784"/>
<path d="M 846.591 387.784 L 884.943 387.784"/>
<path d="M 886.364 387.784 L 1000.000 387.784"/>
<path d="M 0.000 392.045 L 9.943 392.045"/>
<path d="M 809.659 392.045 L 815.341 392.045"/>
<path d="M 819.602 392.045 L 822.443 392.045"/>
<path d="M 826.705 392.045 L 852.273 392.045"/>
<path d="M 855.114 392.045 L 933.239 392.045"/>
<path d="M 934.659 392.045 L 1000.000 392.045"/>
<path d="M 0.000 396.307 L 8.523 396.307"/>
<path d="M 808.239 396.307 L 882.102 396.307"/>
<path d="M 886.364 396.307 L 951.705 396.307"/>
<path d="M 953.125 396.307 L 1000.000 396.307"/>
<path d="M 0.000 400.568 L 8.523 400.568"/>
<path d="M 813.920 400.568 L 815.341 400.568"/>
<path d="M 821.023 400.568 L 829.545 400.568"/>
<path d="M 838.068 400.568 L 923.295 400.568"/>
<path d="M 924.716 400.568 L 1000.000 400.568"/>
<path d="M 0.000 404.830 L 9.943 404.830"/>
<path d="M 812.500 404.830 L 822.443 404.830"/>
<path d="M 826.705 404.830 L 886.364 404.830"/>
<path d="M 887.784 404.830 L 920.455 404.830"/>
<path d="M 921.875 404.830 L 947.443 404.830"/>
<path d="M 948.864 404.830 L 1000.000 404.830"/>
<path d="M 0.000 409.091 L 9.943 409.091"/>
<path d="M 818.182 409.091 L 825.284 409.091"/>
<path d="M 826.705 409.091 L 835.227 409.091"/>
<path d="M 848.011 409.091 L 856.534 409.091"/>
<path d="M 857.955 409.091 L 1000.000 409.091"/>
<path d="M 0.000 413.352 L 12.784 413.352"/>
<path d="M 813.920 413.352 L 818.182 413.352"/>
<path d="M 822.443 413.352 L 839.489 413.352"/>
<path d="M 840.909 413.352 L 869.318 413.352"/>
<path d="M 870.739 413.352 L 1000.000 413.352"/>
<path d="M 0.000 417.614 L 11.364 417.614"/>
<path d="M 815.341 417.614 L 971.591 417.614"/>
<path d="M 973.011 417.614 L 1000.000 417.614"/>
<path d="M 0.000 421.875 L 11.364 421.875"/>
<path d="M 822.443 421.875 L 853.693 421.875"/>
<path d="M 855.114 421.875 L 937.500 421.875"/>
<path d="M 938.920 421.875 L 948.864 421.875"/>
<path d="M 957.386 421.875 L 1000.000 421.875"/>
<path d="M 0.000 426.136 L 11.364 426.136"/>
<path d="M 813.920 426.136 L 852.273 426.136"/>
<path d="M 860.795 426.136 L 958.807 426.136"/>
<path d="M 961.648 426.136 L 967.330 426.136"/>
<path d="M 968.750 426.136 L 1000.000 426.136"/>
<path d="M 0.000 430.398 L 12.784 430.398"/>
<path d="M 818.182 430.398 L 822.443 430.398"/>
<path d="M 825.284 430.398 L 829.545 430.398"/>
<path d="M 835.227 430.398 L 845.170 430.398"/>
<path d="M 848.011 430.398 L 857.955 430.398"/>
<path d="M 862.216 430.398 L 1000.000 430.398"/>
<path d="M 0.000 434.659 L 18.466 434.659"/>
<path d="M 821.023 434.659 L 867.898 434.659"/>
<path d="M 869.318 434.659 L 964.489 434.659"/>
<path d="M 965.909 434.659 L 1000.000 434.659"/>
<path d="M 0.000 438.920 L 22.727 438.920"/>
<path d="M 822.443 438.920 L 823.864 438.920"/>
<path d="M 829.545 438.920 L 863.636 438.920"/>
<path d="M 867.898 438.920 L 954.545 438.920"/>
<path d="M 960.227 438.920 L 961.648 438.920"/>
<path d="M 967.330 438.920 L 990.057 438.920"/>
<path d="M 994.318 438.920 L 995.739 438.920"/>
<path d="M 998.580 438.920 L 1000.000 438.920"/>
<path d="M 0.000 443.182 L 25.568 443.182"/>
<path d="M 815.341 443.182 L 816.761 443.182"/>
<path d="M 825.284 443.182 L 852.273 443.182"/>
<path d="M 853.693 443.182 L 865.057 443.182"/>
<path d="M 867.898 443.182 L 947.443 443.182"/>
<path d="M 950.284 443.182 L 977.273 443.182"/>
<path d="M 980.114 443.182 L 982.955 443.182"/>
<path d="M 984.375 443.182 L 1000.000 443.182"/>
<path d="M 0.000 447.443 L 29.830 447.443"/>
<path d="M 823.864 447.443 L 832.386 447.443"/>
<path d="M 835.227 447.443 L 836.648 447.443"/>
<path d="M 840.909 447.443 L 860.795 447.443"/>
<path d="M 863.636 447.443 L 943.182 447.443"/>
<path d="M 946.023 447.443 L 960.227 447.443"/>
<path d="M 964.489 447.443 L 1000.000 447.443"/>
<path d="M 0.000 451.705 L 34.091 451.705"/>
<path d="M 825.284 451.705 L 835.227 451.705"/>
<path d="M 838.068 451.705 L 852.273 451.705"/>
<path d="M 857.955 451.705 L 930.398 451.705"/>
<path d="M 931.818 451.705 L 947.443 451.705"/>
<path d="M 948.864 451.705 L 961.648 451.705"/>
<path d="M 964.489 451.705 L 970.170 451.705"/>
<path d="M 973.011 451.705 L 977.273 451.705"/>
<path d="M 982.955 451.705 L 991.477 451.705"/>
<path d="M 992.898 451.705 L 1000.000 451.705"/>
<path d="M 0.000 455.966 L 34.091 455.966"/>
<path d="M 829.545 455.966 L 906.250 455.966"/>
<path d="M 911.932 455.966 L 923.295 455.966"/>
<path d="M 927.557 455.966 L 930.398 455.966"/>
<path d="M 931.818 455.966 L 944.602 455.966"/>
<path d="M 947.443 455.966 L 958.807 455.966"/>
<path d="M 963.068 455.966 L 964.489 455.966"/>
<path d="M 965.909 455.966 L 975.852 455.966"/>
<path d="M 981.534 455.966 L 984.375 455.966"/>
<path d="M 988.636 455.966 L 998.580 455.966"/>
<path d="M 0.000 460.227 L 34.091 460.227"/>
<path d="M 828.125 460.227 L 829.545 460.227"/>
<path d="M 830.966 460.227 L 866.477 460.227"/>
<path d="M 870.739 460.227 L 903.409 460.227"/>
<path d="M 904.830 460.227 L 970.170 460.227"/>
<path d="M 974.432 460.227 L 975.852 460.227"/>
<path d="M 980.114 460.227 L 990.057 460.227"/>
<path d="M 992.898 460.227 L 1000.000 460.227"/>
<path d="M 0.000 464.489 L 35.511 464.489"/>
<path d="M 828.125 464.489 L 839.489 464.489"/>
<path d="M 842.330 464.489 L 843.750 464.489"/>
<path d="M 846.591 464.489 L 910.511 464.489"/>
<path d="M 911.932 464.489 L 955.966 464.489"/>
<path d="M 960.227 464.489 L 964.489 464.489"/>
<path d="M 974.432 464.489 L 980.114 464.489"/>
<path d="M 981.534 464.489 L 982.955 464.489"/>
<path d="M 988.636 464.489 L 1000.000 464.489"/>
<path d="M 0.000 468.750 L 36.932 468.750"/>
<path d="M 830.966 468.750 L 859.375 468.750"/>
<path d="M 867.898 468.750 L 872.159 468.750"/>
<path d="M 873.580 468.750 L 960.227 468.750"/>
<path d="M 978.693 468.750 L 981.534 468.750"/>
<path d="M 982.955 468.750 L 984.375 468.750"/>
<path d="M 988.636 468.750 L 990.057 468.750"/>
<path d="M 992.898 468.750 L 1000.000 468.750"/>
<path d="M 0.000 473.011 L 38.352 473.011"/>
<path d="M 826.705 473.011 L 863.636 473.011"/>
<path d="M 866.477 473.011 L 872.159 473.011"/>
<path d="M 873.580 473.011 L 876.420 473.011"/>
<path d="M 880.682 473.011 L 930.398 473.011"/>
<path d="M 934.659 473.011 L 953.125 473.011"/>
<path d="M 955.966 473.011 L 960.227 473.011"/>
<path d="M 961.648 473.011 L 964.489 473.011"/>
<path d="M 973.011 473.011 L 978.693 473.011"/>
<path d="M 981.534 473.011 L 1000.000 473.011"/>
<path d="M 0.000 477.273 L 38.352 477.273"/>
<path d="M 822.443 477.273 L 825.284 477.273"/>
<path d="M 826.705 477.273 L 877.841 477.273"/>
<path d="M 879.261 477.273 L 943.182 477.273"/>
<path d="M 950.284 477.273 L 968.750 477.273"/>
<path d="M 970.170 477.273 L 978.693 477.273"/>
<path d="M 984.375 477.273 L 991.477 477.273"/>
<path d="M 992.898 477.273 L 1000.000 477.273"/>
<path d="M 0.000 481.534 L 41.193 481.534"/>
<path d="M 828.125 481.534 L 889.205 481.534"/>
<path d="M 892.045 481.534 L 931.818 481.534"/>
<path d="M 936.080 481.534 L 938.920 481.534"/>
<path d="M 948.864 481.534 L 954.545 481.534"/>
<path d="M 964.489 481.534 L 970.170 481.534"/>
<path d="M 973.011 481.534 L 981.534 481.534"/>
<path d="M 982.955 481.534 L 990.057 481.534"/>
<path d="M 995.739 481.534 L 1000.000 481.534"/>
<path d="M 0.000 485.795 L 42.614 485.795"/>
<path d="M 833.807 485.795 L 880.682 485.795"/>
<path d="M 883.523 485.795 L 899.148 485.795"/>
<path d="M 901.989 485.795 L 909.091 485.795"/>
<path d="M 910.511 485.795 L 927.557 485.795"/>
<path d="M 928.977 485.795 L 938.920 485.795"/>
<path d="M 958.807 485.795 L 961.648 485.795"/>
<path d="M 978.693 485.795 L 980.114 485.795"/>
<path d="M 994.318 485.795 L 997.159 485.795"/>
<path d="M 0.000 490.057 L 45.455 490.057"/>
<path d="M 46.875 490.057 L 48.295 490.057"/>
<path d="M 840.909 490.057 L 875.000 490.057"/>
<path d="M 876.420 490.057 L 900.568 490.057"/>
<path d="M 903.409 490.057 L 907.670 490.057"/>
<path d="M 910.511 490.057 L 947.443 490.057"/>
<path d="M 951.705 490.057 L 953.125 490.057"/>
<path d="M 955.966 490.057 L 958.807 490.057"/>
<path d="M 964.489 490.057 L 975.852 490.057"/>
<path d="M 978.693 490.057 L 980.114 490.057"/>
<path d="M 981.534 490.057 L 984.375 490.057"/>
<path d="M 987.216 490.057 L 990.057 490.057"/>
<path d="M 995.739 490.057 L 1000.000 490.057"/>
<path d="M 0.000 494.318 L 52.557 494.318"/>
<path d="M 849.432 494.318 L 896.307 494.318"/>
<path d="M 904.830 494.318 L 906.250 494.318"/>
<path d="M 919.034 494.318 L 920.455 494.318"/>
<path d="M 933.239 494.318 L 937.500 494.318"/>
<path d="M 941.761 494.318 L 948.864 494.318"/>
<path d="M 951.705 494.318 L 965.909 494.318"/>
<path d="M 968.750 494.318 L 970.170 494.318"/>
<path d="M 971.591 494.318 L 978.693 494.318"/>
<path d="M 988.636 494.318 L 991.477 494.318"/>
<path d="M 994.318 494.318 L 995.739 494.318"/>
<path d="M 0.000 498.580 L 59.659 498.580"/>
<path d="M 856.534 498.580 L 913.352 498.580"/>
<path d="M 928.977 498.580 L 934.659 498.580"/>
<path d="M 951.705 498.580 L 953.125 498.580"/>
<path d="M 958.807 498.580 L 960.227 498.580"/>
<path d="M 982.955 498.580 L 985.795 498.580"/>
<path d="M 997.159 498.580 L 1000.000 498.580"/>
<path d="M 0.000 502.841 L 59.659 502.841"/>
<path d="M 860.795 502.841 L 906.250 502.841"/>
<path d="M 921.875 502.841 L 926.136 502.841"/>
<path d="M 928.977 502.841 L 931.818 502.841"/>
<path d="M 950.284 502.841 L 955.966 502.841"/>
<path d="M 958.807 502.841 L 960.227 502.841"/>
<path d="M 970.170 502.841 L 971.591 502.841"/>
<path d="M 997.159 502.841 L 1000.000 502.841"/>
<path d="M 0.000 507.102 L 59.659 507.102"/>
<path d="M 873.580 507.102 L 916.193 507.102"/>
<path d="M 921.875 507.102 L 931.818 507.102"/>
<path d="M 950.284 507.102 L 951.705 507.102"/>
<path d="M 980.114 507.102 L 981.534 507.102"/>
<path d="M 988.636 507.102 L 994.318 507.102"/>
<path d="M 998.580 507.102 L 1000.000 507.102"/>
<path d="M 0.000 511.364 L 59.659 511.364"/>
<path d="M 876.420 511.364 L 916.193 511.364"/>
<path d="M 917.614 511.364 L 919.034 511.364"/>
<path d="M 938.920 511.364 L 943.182 511.364"/>
<path d="M 975.852 511.364 L 977.273 511.364"/>
<path d="M 984.375 511.364 L 987.216 511.364"/>
<path d="M 0.000 515.625 L 61.080 515.625"/>
<path d="M 882.102 515.625 L 923.295 515.625"/>
<path d="M 975.852 515.625 L 977.273 515.625"/>
<path d="M 0.000 519.886 L 61.080 519.886"/>
<path d="M 890.625 519.886 L 924.716 519.886"/>
<path d="M 971.591 519.886 L 973.011 519.886"/>
<path d="M 992.898 519.886 L 1000.000 519.886"/>
<path d="M 0.000 524.148 L 59.659 524.148"/>
<path d="M 896.307 524.148 L 930.398 524.148"/>
<path d="M 998.580 524.148 L 1000.000 524.148"/>
<path d="M 0.000 528.409 L 62.500 528.409"/>
<path d="M 900.568 528.409 L 927.557 528.409"/>
<path d="M 965.909 528.409 L 967.330 528.409"/>
<path d="M 0.000 532.670 L 66.761 532.670"/>
<path d="M 906.250 532.670 L 931.818 532.670"/>
<path d="M 943.182 532.670 L 944.602 532.670"/>
<path d="M 0.000 536.932 L 65.341 536.932"/>
<path d="M 909.091 536.932 L 927.557 536.932"/>
<path d="M 0.000 541.193 L 71.023 541.193"/>
<path d="M 913.352 541.193 L 934.659 541.193"/>
<path d="M 0.000 545.455 L 72.443 545.455"/>
<path d="M 917.614 545.455 L 931.818 545.455"/>
<path d="M 944.602 545.455 L 947.443 545.455"/>
<path d="M 963.068 545.455 L 964.489 545.455"/>
<path d="M 967.330 545.455 L 968.750 545.455"/>
<path d="M 0.000 549.716 L 73.864 549.716"/>
<path d="M 924.716 549.716 L 931.818 549.716"/>
<path d="M 0.000 553.977 L 76.705 553.977"/>
<path d="M 923.295 553.977 L 934.659 553.977"/>
<path d="M 0.000 558.239 L 75.284 558.239"/>
<path d="M 924.716 558.239 L 934.659 558.239"/>
<path d="M 0.000 562.500 L 75.284 562.500"/>
<path d="M 927.557 562.500 L 940.341 562.500"/>
<path d="M 944.602 562.500 L 946.023 562.500"/>
<path d="M 0.000 566.761 L 75.284 566.761"/>
<path d="M 931.818 566.761 L 941.761 566.761"/>
<path d="M 0.000 571.023 L 76.705 571.023"/>
<path d="M 933.239 571.023 L 941.761 571.023"/>
<path d="M 0.000 575.284 L 78.125 575.284"/>
<path d="M 934.659 575.284 L 941.761 575.284"/>
<path d="M 0.000 579.545 L 79.545 579.545"/>
<path d="M 937.500 579.545 L 938.920 579.545"/>
<path d="M 0.000 583.807 L 79.545 583.807"/>
<path d="M 941.761 583.807 L 943.182 583.807"/>
<path d="M 0.000 588.068 L 79.545 588.068"/>
<path d="M 941.761 588.068 L 948.864 588.068"/>
<path d="M 0.000 592.330 L 78.125 592.330"/>
<path d="M 943.182 592.330 L 947.443 592.330"/>
<path d="M 950.284 592.330 L 951.705 592.330"/>
<path d="M 0.000 596.591 L 76.705 596.591"/>
<path d="M 944.602 596.591 L 957.386 596.591"/>
<path d="M 0.000 600.852 L 76.705 600.852"/>
<path d="M 947.443 600.852 L 954.545 600.852"/>
<path d="M 0.000 605.114 L 76.705 605.114"/>
<path d="M 948.864 605.114 L 950.284 605.114"/>
<path d="M 951.705 605.114 L 954.545 605.114"/>
<path d="M 0.000 609.375 L 78.125 609.375"/>
<path d="M 0.000 613.636 L 78.125 613.636"/>
<path d="M 958.807 613.636 L 960.227 613.636"/>
<path d="M 0.000 617.898 L 76.705 617.898"/>
<path d="M 0.000 622.159 L 75.284 622.159"/>
<path d="M 0.000 626.420 L 73.864 626.420"/>
<path d="M 0.000 630.682 L 73.864 630.682"/>
<path d="M 0.000 634.943 L 73.864 634.943"/>
<path d="M 995.739 634.943 L 997.159 634.943"/>
<path d="M 0.000 639.205 L 73.864 639.205"/>
<path d="M 0.000 643.466 L 75.284 643.466"/>
<path d="M 0.000 647.727 L 75.284 647.727"/>
<path d="M 0.000 651.989 L 78.125 651.989"/>
<path d="M 0.000 656.250 L 79.545 656.250"/>
<path d="M 0.000 660.511 L 76.705 660.511"/>
<path d="M 0.000 664.773 L 72.443 664.773"/>
<path d="M 994.318 664.773 L 997.159 664.773"/>
<path d="M 0.000 669.034 L 69.602 669.034"/>
<path d="M 992.898 669.034 L 1000.000 669.034"/>
<path d="M 0.000 673.295 L 66.761 673.295"/>
<path d="M 987.216 673.295 L 990.057 673.295"/>
<path d="M 998.580 673.295 L 1000.000 673.295"/>
<path d="M 0.000 677.557 L 63.920 677.557"/>
<path d="M 988.636 677.557 L 1000.000 677.557"/>
<path d="M 0.000 681.818 L 62.500 681.818"/>
<path d="M 982.955 681.818 L 1000.000 681.818"/>
<path d="M 0.000 686.080 L 61.080 686.080"/>
<path d="M 981.534 686.080 L 1000.000 686.080"/>
<path d="M 0.000 690.341 L 61.080 690.341"/>
<path d="M 975.852 690.341 L 981.534 690.341"/>
<path d="M 982.955 690.341 L 1000.000 690.341"/>
<path d="M 0.000 694.602 L 61.080 694.602"/>
<path d="M 975.852 694.602 L 985.795 694.602"/>
<path d="M 990.057 694.602 L 1000.000 694.602"/>
<path d="M 0.000 698.864 L 62.500 698.864"/>
<path d="M 973.011 698.864 L 985.795 698.864"/>
<path d="M 990.057 698.864 L 1000.000 698.864"/>
<path d="M 0.000 703.125 L 63.920 703.125"/>
<path d="M 964.489 703.125 L 1000.000 703.125"/>
<path d="M 0.000 707.386 L 61.080 707.386"/>
<path d="M 961.648 707.386 L 1000.000 707.386"/>
<path d="M 0.000 711.648 L 62.500 711.648"/>
<path d="M 951.705 711.648 L 1000.000 711.648"/>
<path d="M 0.000 715.909 L 69.602 715.909"/>
<path d="M 941.761 715.909 L 946.023 715.909"/>
<path d="M 948.864 715.909 L 1000.000 715.909"/>
<path d="M 0.000 720.170 L 68.182 720.170"/>
<path d="M 372.159 720.170 L 373.580 720.170"/>
<path d="M 375.000 720.170 L 379.261 720.170"/>
<path d="M 927.557 720.170 L 931.818 720.170"/>
<path d="M 933.239 720.170 L 1000.000 720.170"/>
<path d="M 0.000 724.432 L 73.864 724.432"/>
<path d="M 235.795 724.432 L 240.057 724.432"/>
<path d="M 349.432 724.432 L 387.784 724.432"/>
<path d="M 916.193 724.432 L 919.034 724.432"/>
<path d="M 921.875 724.432 L 927.557 724.432"/>
<path d="M 930.398 724.432 L 994.318 724.432"/>
<path d="M 995.739 724.432 L 1000.000 724.432"/>
<path d="M 0.000 728.693 L 79.545 728.693"/>
<path d="M 85.227 728.693 L 86.648 728.693"/>
<path d="M 230.114 728.693 L 255.682 728.693"/>
<path d="M 345.170 728.693 L 392.045 728.693"/>
<path d="M 901.989 728.693 L 903.409 728.693"/>
<path d="M 910.511 728.693 L 1000.000 728.693"/>
<path d="M 0.000 732.955 L 105.114 732.955"/>
<path d="M 224.432 732.955 L 264.205 732.955"/>
<path d="M 335.227 732.955 L 393.466 732.955"/>
<path d="M 899.148 732.955 L 1000.000 732.955"/>
<path d="M 0.000 737.216 L 113.636 737.216"/>
<path d="M 224.432 737.216 L 274.148 737.216"/>
<path d="M 325.284 737.216 L 328.125 737.216"/>
<path d="M 329.545 737.216 L 394.886 737.216"/>
<path d="M 889.205 737.216 L 954.545 737.216"/>
<path d="M 957.386 737.216 L 1000.000 737.216"/>
<path d="M 0.000 741.477 L 122.159 741.477"/>
<path d="M 224.432 741.477 L 285.511 741.477"/>
<path d="M 305.398 741.477 L 397.727 741.477"/>
<path d="M 876.420 741.477 L 965.909 741.477"/>
<path d="M 968.750 741.477 L 1000.000 741.477"/>
<path d="M 0.000 745.739 L 129.261 745.739"/>
<path d="M 225.852 745.739 L 399.148 745.739"/>
<path d="M 862.216 745.739 L 1000.000 745.739"/>
<path d="M 0.000 750.000 L 130.682 750.000"/>
<path d="M 224.432 750.000 L 400.568 750.000"/>
<path d="M 845.170 750.000 L 1000.000 750.000"/>
<path d="M 0.000 754.261 L 130.682 754.261"/>
<path d="M 223.011 754.261 L 403.409 754.261"/>
<path d="M 842.330 754.261 L 893.466 754.261"/>
<path d="M 896.307 754.261 L 998.580 754.261"/>
<path d="M 0.000 758.523 L 130.682 758.523"/>
<path d="M 223.011 758.523 L 403.409 758.523"/>
<path d="M 830.966 758.523 L 1000.000 758.523"/>
<path d="M 0.000 762.784 L 132.102 762.784"/>
<path d="M 220.170 762.784 L 406.250 762.784"/>
<path d="M 822.443 762.784 L 836.648 762.784"/>
<path d="M 839.489 762.784 L 842.330 762.784"/>
<path d="M 843.750 762.784 L 1000.000 762.784"/>
<path d="M 0.000 767.045 L 134.943 767.045"/>
<path d="M 214.489 767.045 L 411.932 767.045"/>
<path d="M 818.182 767.045 L 1000.000 767.045"/>
<path d="M 0.000 771.307 L 137.784 771.307"/>
<path d="M 208.807 771.307 L 414.773 771.307"/>
<path d="M 802.557 771.307 L 803.977 771.307"/>
<path d="M 805.398 771.307 L 985.795 771.307"/>
<path d="M 988.636 771.307 L 991.477 771.307"/>
<path d="M 992.898 771.307 L 1000.000 771.307"/>
<path d="M 0.000 775.568 L 139.205 775.568"/>
<path d="M 200.284 775.568 L 421.875 775.568"/>
<path d="M 801.136 775.568 L 803.977 775.568"/>
<path d="M 809.659 775.568 L 884.943 775.568"/>
<path d="M 887.784 775.568 L 933.239 775.568"/>
<path d="M 934.659 775.568 L 1000.000 775.568"/>
<path d="M 0.000 779.830 L 89.489 779.830"/>
<path d="M 92.330 779.830 L 142.045 779.830"/>
<path d="M 143.466 779.830 L 144.886 779.830"/>
<path d="M 190.341 779.830 L 430.398 779.830"/>
<path d="M 801.136 779.830 L 991.477 779.830"/>
<path d="M 992.898 779.830 L 1000.000 779.830"/>
<path d="M 0.000 784.091 L 151.989 784.091"/>
<path d="M 181.818 784.091 L 436.080 784.091"/>
<path d="M 808.239 784.091 L 977.273 784.091"/>
<path d="M 978.693 784.091 L 1000.000 784.091"/>
<path d="M 0.000 788.352 L 458.807 788.352"/>
<path d="M 801.136 788.352 L 1000.000 788.352"/>
<path d="M 0.000 792.614 L 11.364 792.614"/>
<path d="M 15.625 792.614 L 478.693 792.614"/>
<path d="M 792.614 792.614 L 795.455 792.614"/>
<path d="M 798.295 792.614 L 1000.000 792.614"/>
<path d="M 0.000 796.875 L 492.898 796.875"/>
<path d="M 801.136 796.875 L 899.148 796.875"/>
<path d="M 900.568 796.875 L 910.511 796.875"/>
<path d="M 911.932 796.875 L 971.591 796.875"/>
<path d="M 973.011 796.875 L 1000.000 796.875"/>
<path d="M 0.000 801.136 L 514.205 801.136"/>
<path d="M 515.625 801.136 L 518.466 801.136"/>
<path d="M 521.307 801.136 L 522.727 801.136"/>
<path d="M 529.830 801.136 L 531.250 801.136"/>
<path d="M 799.716 801.136 L 968.750 801.136"/>
<path d="M 970.170 801.136 L 998.580 801.136"/>
<path d="M 0.000 805.398 L 566.761 805.398"/>
<path d="M 791.193 805.398 L 792.614 805.398"/>
<path d="M 796.875 805.398 L 978.693 805.398"/>
<path d="M 980.114 805.398 L 1000.000 805.398"/>
<path d="M 0.000 809.659 L 589.489 809.659"/>
<path d="M 590.909 809.659 L 592.330 809.659"/>
<path d="M 785.511 809.659 L 794.034 809.659"/>
<path d="M 796.875 809.659 L 965.909 809.659"/>
<path d="M 968.750 809.659 L 978.693 809.659"/>
<path d="M 980.114 809.659 L 984.375 809.659"/>
<path d="M 985.795 809.659 L 1000.000 809.659"/>
<path d="M 0.000 813.920 L 606.534 813.920"/>
<path d="M 785.511 813.920 L 786.932 813.920"/>
<path d="M 789.773 813.920 L 909.091 813.920"/>
<path d="M 910.511 813.920 L 985.795 813.920"/>
<path d="M 990.057 813.920 L 1000.000 813.920"/>
<path d="M 0.000 818.182 L 615.057 818.182"/>
<path d="M 785.511 818.182 L 896.307 818.182"/>
<path d="M 897.727 818.182 L 987.216 818.182"/>
<path d="M 991.477 818.182 L 1000.000 818.182"/>
<path d="M 0.000 822.443 L 627.841 822.443"/>
<path d="M 791.193 822.443 L 794.034 822.443"/>
<path d="M 798.295 822.443 L 1000.000 822.443"/>
<path d="M 0.000 826.705 L 636.364 826.705"/>
<path d="M 788.352 826.705 L 794.034 826.705"/>
<path d="M 795.455 826.705 L 919.034 826.705"/>
<path d="M 923.295 826.705 L 978.693 826.705"/>
<path d="M 982.955 826.705 L 1000.000 826.705"/>
<path d="M 0.000 830.966 L 640.625 830.966"/>
<path d="M 802.557 830.966 L 1000.000 830.966"/>
<path d="M 0.000 835.227 L 51.136 835.227"/>
<path d="M 55.398 835.227 L 98.011 835.227"/>
<path d="M 109.375 835.227 L 643.466 835.227"/>
<path d="M 784.091 835.227 L 786.932 835.227"/>
<path d="M 792.614 835.227 L 803.977 835.227"/>
<path d="M 805.398 835.227 L 1000.000 835.227"/>
<path d="M 0.000 839.489 L 644.886 839.489"/>
<path d="M 785.511 839.489 L 791.193 839.489"/>
<path d="M 794.034 839.489 L 795.455 839.489"/>
<path d="M 798.295 839.489 L 801.136 839.489"/>
<path d="M 803.977 839.489 L 869.318 839.489"/>
<path d="M 870.739 839.489 L 946.023 839.489"/>
<path d="M 947.443 839.489 L 948.864 839.489"/>
<path d="M 953.125 839.489 L 1000.000 839.489"/>
<path d="M 0.000 843.750 L 644.886 843.750"/>
<path d="M 792.614 843.750 L 799.716 843.750"/>
<path d="M 803.977 843.750 L 806.818 843.750"/>
<path d="M 809.659 843.750 L 832.386 843.750"/>
<path d="M 835.227 843.750 L 1000.000 843.750"/>
<path d="M 0.000 848.011 L 649.148 848.011"/>
<path d="M 785.511 848.011 L 789.773 848.011"/>
<path d="M 792.614 848.011 L 798.295 848.011"/>
<path d="M 801.136 848.011 L 916.193 848.011"/>
<path d="M 921.875 848.011 L 1000.000 848.011"/>
<path d="M 0.000 852.273 L 649.148 852.273"/>
<path d="M 796.875 852.273 L 947.443 852.273"/>
<path d="M 950.284 852.273 L 1000.000 852.273"/>
<path d="M 0.000 856.534 L 653.409 856.534"/>
<path d="M 802.557 856.534 L 1000.000 856.534"/>
<path d="M 0.000 860.795 L 654.830 860.795"/>
<path d="M 799.716 860.795 L 875.000 860.795"/>
<path d="M 876.420 860.795 L 921.875 860.795"/>
<path d="M 924.716 860.795 L 940.341 860.795"/>
<path d="M 941.761 860.795 L 1000.000 860.795"/>
<path d="M 0.000 865.057 L 656.250 865.057"/>
<path d="M 798.295 865.057 L 870.739 865.057"/>
<path d="M 872.159 865.057 L 946.023 865.057"/>
<path d="M 948.864 865.057 L 1000.000 865.057"/>
<path d="M 0.000 869.318 L 656.250 869.318"/>
<path d="M 791.193 869.318 L 803.977 869.318"/>
<path d="M 806.818 869.318 L 873.580 869.318"/>
<path d="M 876.420 869.318 L 934.659 869.318"/>
<path d="M 937.500 869.318 L 950.284 869.318"/>
<path d="M 951.705 869.318 L 1000.000 869.318"/>
<path d="M 0.000 873.580 L 12.784 873.580"/>
<path d="M 15.625 873.580 L 657.670 873.580"/>
<path d="M 782.670 873.580 L 784.091 873.580"/>
<path d="M 789.773 873.580 L 792.614 873.580"/>
<path d="M 795.455 873.580 L 941.761 873.580"/>
<path d="M 947.443 873.580 L 965.909 873.580"/>
<path d="M 973.011 873.580 L 1000.000 873.580"/>
<path d="M 0.000 877.841 L 44.034 877.841"/>
<path d="M 45.455 877.841 L 656.250 877.841"/>
<path d="M 795.455 877.841 L 872.159 877.841"/>
<path d="M 873.580 877.841 L 957.386 877.841"/>
<path d="M 958.807 877.841 L 1000.000 877.841"/>
<path d="M 0.000 882.102 L 42.614 882.102"/>
<path d="M 44.034 882.102 L 654.830 882.102"/>
<path d="M 795.455 882.102 L 928.977 882.102"/>
<path d="M 931.818 882.102 L 955.966 882.102"/>
<path d="M 964.489 882.102 L 970.170 882.102"/>
<path d="M 971.591 882.102 L 992.898 882.102"/>
<path d="M 997.159 882.102 L 1000.000 882.102"/>
<path d="M 0.000 886.364 L 657.670 886.364"/>
<path d="M 794.034 886.364 L 809.659 886.364"/>
<path d="M 812.500 886.364 L 924.716 886.364"/>
<path d="M 927.557 886.364 L 1000.000 886.364"/>
<path d="M 0.000 890.625 L 51.136 890.625"/>
<path d="M 55.398 890.625 L 656.250 890.625"/>
<path d="M 794.034 890.625 L 805.398 890.625"/>
<path d="M 806.818 890.625 L 1000.000 890.625"/>
<path d="M 0.000 894.886 L 78.125 894.886"/>
<path d="M 80.966 894.886 L 659.091 894.886"/>
<path d="M 788.352 894.886 L 792.614 894.886"/>
<path d="M 794.034 894.886 L 801.136 894.886"/>
<path d="M 802.557 894.886 L 880.682 894.886"/>
<path d="M 883.523 894.886 L 917.614 894.886"/>
<path d="M 920.455 894.886 L 931.818 894.886"/>
<path d="M 934.659 894.886 L 948.864 894.886"/>
<path d="M 953.125 894.886 L 964.489 894.886"/>
<path d="M 973.011 894.886 L 1000.000 894.886"/>
<path d="M 0.000 899.148 L 12.784 899.148"/>
<path d="M 14.205 899.148 L 146.307 899.148"/>
<path d="M 147.727 899.148 L 659.091 899.148"/>
<path d="M 785.511 899.148 L 816.761 899.148"/>
<path d="M 818.182 899.148 L 928.977 899.148"/>
<path d="M 933.239 899.148 L 938.920 899.148"/>
<path d="M 951.705 899.148 L 954.545 899.148"/>
<path d="M 958.807 899.148 L 963.068 899.148"/>
<path d="M 968.750 899.148 L 1000.000 899.148"/>
<path d="M 0.000 903.409 L 1.420 903.409"/>
<path d="M 2.841 903.409 L 69.602 903.409"/>
<path d="M 71.023 903.409 L 187.500 903.409"/>
<path d="M 190.341 903.409 L 660.511 903.409"/>
<path d="M 785.511 903.409 L 917.614 903.409"/>
<path d="M 921.875 903.409 L 953.125 903.409"/>
<path d="M 958.807 903.409 L 960.227 903.409"/>
<path d="M 964.489 903.409 L 1000.000 903.409"/>
<path d="M 0.000 907.670 L 661.932 907.670"/>
<path d="M 778.409 907.670 L 893.466 907.670"/>
<path d="M 894.886 907.670 L 931.818 907.670"/>
<path d="M 934.659 907.670 L 947.443 907.670"/>
<path d="M 948.864 907.670 L 951.705 907.670"/>
<path d="M 954.545 907.670 L 1000.000 907.670"/>
<path d="M 0.000 911.932 L 7.102 911.932"/>
<path d="M 9.943 911.932 L 58.239 911.932"/>
<path d="M 59.659 911.932 L 663.352 911.932"/>
<path d="M 774.148 911.932 L 890.625 911.932"/>
<path d="M 893.466 911.932 L 917.614 911.932"/>
<path d="M 921.875 911.932 L 927.557 911.932"/>
<path d="M 928.977 911.932 L 1000.000 911.932"/>
<path d="M 0.000 916.193 L 667.614 916.193"/>
<path d="M 772.727 916.193 L 887.784 916.193"/>
<path d="M 890.625 916.193 L 897.727 916.193"/>
<path d="M 900.568 916.193 L 910.511 916.193"/>
<path d="M 911.932 916.193 L 916.193 916.193"/>
<path d="M 921.875 916.193 L 938.920 916.193"/>
<path d="M 943.182 916.193 L 1000.000 916.193"/>
<path d="M 0.000 920.455 L 12.784 920.455"/>
<path d="M 15.625 920.455 L 669.034 920.455"/>
<path d="M 767.045 920.455 L 830.966 920.455"/>
<path d="M 835.227 920.455 L 860.795 920.455"/>
<path d="M 862.216 920.455 L 879.261 920.455"/>
<path d="M 880.682 920.455 L 899.148 920.455"/>
<path d="M 901.989 920.455 L 910.511 920.455"/>
<path d="M 911.932 920.455 L 916.193 920.455"/>
<path d="M 917.614 920.455 L 923.295 920.455"/>
<path d="M 937.500 920.455 L 944.602 920.455"/>
<path d="M 948.864 920.455 L 955.966 920.455"/>
<path d="M 958.807 920.455 L 1000.000 920.455"/>
<path d="M 0.000 924.716 L 674.716 924.716"/>
<path d="M 767.045 924.716 L 873.580 924.716"/>
<path d="M 876.420 924.716 L 883.523 924.716"/>
<path d="M 887.784 924.716 L 909.091 924.716"/>
<path d="M 914.773 924.716 L 926.136 924.716"/>
<path d="M 927.557 924.716 L 934.659 924.716"/>
<path d="M 937.500 924.716 L 941.761 924.716"/>
<path d="M 948.864 924.716 L 1000.000 924.716"/>
<path d="M 0.000 928.977 L 678.977 928.977"/>
<path d="M 757.102 928.977 L 856.534 928.977"/>
<path d="M 859.375 928.977 L 867.898 928.977"/>
<path d="M 875.000 928.977 L 887.784 928.977"/>
<path d="M 896.307 928.977 L 907.670 928.977"/>
<path d="M 911.932 928.977 L 934.659 928.977"/>
<path d="M 938.920 928.977 L 941.761 928.977"/>
<path d="M 943.182 928.977 L 1000.000 928.977"/>
<path d="M 0.000 933.239 L 52.557 933.239"/>
<path d="M 53.977 933.239 L 686.080 933.239"/>
<path d="M 745.739 933.239 L 849.432 933.239"/>
<path d="M 852.273 933.239 L 853.693 933.239"/>
<path d="M 857.955 933.239 L 869.318 933.239"/>
<path d="M 872.159 933.239 L 879.261 933.239"/>
<path d="M 880.682 933.239 L 894.886 933.239"/>
<path d="M 896.307 933.239 L 921.875 933.239"/>
<path d="M 938.920 933.239 L 940.341 933.239"/>
<path d="M 948.864 933.239 L 1000.000 933.239"/>
<path d="M 0.000 937.500 L 696.023 937.500"/>
<path d="M 735.795 937.500 L 828.125 937.500"/>
<path d="M 833.807 937.500 L 869.318 937.500"/>
<path d="M 872.159 937.500 L 876.420 937.500"/>
<path d="M 879.261 937.500 L 882.102 937.500"/>
<path d="M 884.943 937.500 L 890.625 937.500"/>
<path d="M 897.727 937.500 L 1000.000 937.500"/>
<path d="M 0.000 941.761 L 68.182 941.761"/>
<path d="M 72.443 941.761 L 78.125 941.761"/>
<path d="M 79.545 941.761 L 83.807 941.761"/>
<path d="M 86.648 941.761 L 707.386 941.761"/>
<path d="M 708.807 941.761 L 812.500 941.761"/>
<path d="M 815.341 941.761 L 816.761 941.761"/>
<path d="M 818.182 941.761 L 860.795 941.761"/>
<path d="M 869.318 941.761 L 870.739 941.761"/>
<path d="M 875.000 941.761 L 880.682 941.761"/>
<path d="M 883.523 941.761 L 887.784 941.761"/>
<path d="M 896.307 941.761 L 1000.000 941.761"/>
</g>
</svg>
