<?xml version="1.0" encoding="UTF-8"?>
<svg xmlns="http://www.w3.org/2000/svg" width="1000.000mm" height="944.602mm" viewBox="0 0 1000.000 944.602">
<metadata>HatchSmith © FIWAtec GmbH</metadata>
<rect x="0" y="0" width="100%" height="100%" fill="white"/>
<g id="15_layer_15" stroke="#FFFFFD" stroke-width="1.000" stroke-linecap="round" stroke-linejoin="round" fill="none">
<path d="M 933.239 4.261 L 934.659 4.261"/>
<path d="M 982.955 4.261 L 984.375 4.261"/>
<path d="M 985.795 4.261 L 987.216 4.261"/>
<path d="M 941.761 12.784 L 943.182 12.784"/>
<path d="M 990.057 17.045 L 991.477 17.045"/>
<path d="M 968.750 21.307 L 971.591 21.307"/>
<path d="M 964.489 25.568 L 965.909 25.568"/>
<path d="M 971.591 25.568 L 974.432 25.568"/>
<path d="M 995.739 25.568 L 997.159 25.568"/>
<path d="M 998.580 25.568 L 1000.000 25.568"/>
<path d="M 964.489 29.830 L 967.330 29.830"/>
<path d="M 970.170 29.830 L 971.591 29.830"/>
<path d="M 987.216 29.830 L 988.636 29.830"/>
<path d="M 984.375 34.091 L 985.795 34.091"/>
<path d="M 991.477 38.352 L 992.898 38.352"/>
<path d="M 964.489 42.614 L 965.909 42.614"/>
<path d="M 967.330 42.614 L 968.750 42.614"/>
<path d="M 971.591 42.614 L 973.011 42.614"/>
<path d="M 977.273 42.614 L 978.693 42.614"/>
<path d="M 578.125 46.875 L 579.545 46.875"/>
<path d="M 931.818 46.875 L 933.239 46.875"/>
<path d="M 968.750 46.875 L 971.591 46.875"/>
<path d="M 559.659 51.136 L 561.080 51.136"/>
<path d="M 643.466 51.136 L 644.886 51.136"/>
<path d="M 927.557 51.136 L 928.977 51.136"/>
<path d="M 941.761 51.136 L 944.602 51.136"/>
<path d="M 951.705 51.136 L 955.966 51.136"/>
<path d="M 994.318 51.136 L 995.739 51.136"/>
<path d="M 937.500 55.398 L 943.182 55.398"/>
<path d="M 947.443 55.398 L 948.864 55.398"/>
<path d="M 971.591 59.659 L 973.011 59.659"/>
<path d="M 968.750 63.920 L 971.591 63.920"/>
<path d="M 995.739 63.920 L 997.159 63.920"/>
<path d="M 521.307 68.182 L 522.727 68.182"/>
<path d="M 988.636 68.182 L 990.057 68.182"/>
<path d="M 517.045 72.443 L 518.466 72.443"/>
<path d="M 958.807 72.443 L 961.648 72.443"/>
<path d="M 690.341 76.705 L 691.761 76.705"/>
<path d="M 968.750 76.705 L 971.591 76.705"/>
<path d="M 508.523 80.966 L 509.943 80.966"/>
<path d="M 849.432 80.966 L 852.273 80.966"/>
<path d="M 853.693 80.966 L 857.955 80.966"/>
<path d="M 957.386 80.966 L 960.227 80.966"/>
<path d="M 984.375 80.966 L 985.795 80.966"/>
<path d="M 504.261 85.227 L 505.682 85.227"/>
<path d="M 880.682 85.227 L 884.943 85.227"/>
<path d="M 957.386 85.227 L 958.807 85.227"/>
<path d="M 883.523 89.489 L 884.943 89.489"/>
<path d="M 893.466 89.489 L 897.727 89.489"/>
<path d="M 704.545 98.011 L 705.966 98.011"/>
<path d="M 463.068 102.273 L 464.489 102.273"/>
<path d="M 707.386 102.273 L 708.807 102.273"/>
<path d="M 708.807 106.534 L 710.227 106.534"/>
<path d="M 897.727 110.795 L 901.989 110.795"/>
<path d="M 437.500 115.057 L 438.920 115.057"/>
<path d="M 713.068 115.057 L 714.489 115.057"/>
<path d="M 430.398 123.580 L 431.818 123.580"/>
<path d="M 717.330 123.580 L 718.750 123.580"/>
<path d="M 720.170 127.841 L 721.591 127.841"/>
<path d="M 401.989 136.364 L 403.409 136.364"/>
<path d="M 883.523 136.364 L 884.943 136.364"/>
<path d="M 396.307 140.625 L 397.727 140.625"/>
<path d="M 735.795 140.625 L 737.216 140.625"/>
<path d="M 863.636 140.625 L 866.477 140.625"/>
<path d="M 724.432 144.886 L 725.852 144.886"/>
<path d="M 875.000 144.886 L 879.261 144.886"/>
<path d="M 724.432 149.148 L 727.273 149.148"/>
<path d="M 879.261 153.409 L 882.102 153.409"/>
<path d="M 889.205 153.409 L 890.625 153.409"/>
<path d="M 362.216 161.932 L 363.636 161.932"/>
<path d="M 357.955 170.455 L 359.375 170.455"/>
<path d="M 731.534 170.455 L 732.955 170.455"/>
<path d="M 884.943 170.455 L 886.364 170.455"/>
<path d="M 887.784 170.455 L 889.205 170.455"/>
<path d="M 728.693 174.716 L 730.114 174.716"/>
<path d="M 725.852 178.977 L 727.273 178.977"/>
<path d="M 725.852 183.239 L 727.273 183.239"/>
<path d="M 937.500 183.239 L 938.920 183.239"/>
<path d="M 724.432 187.500 L 728.693 187.500"/>
<path d="M 723.011 191.761 L 724.432 191.761"/>
<path d="M 357.955 200.284 L 359.375 200.284"/>
<path d="M 357.955 208.807 L 359.375 208.807"/>
<path d="M 353.693 213.068 L 355.114 213.068"/>
<path d="M 907.670 213.068 L 910.511 213.068"/>
<path d="M 883.523 221.591 L 884.943 221.591"/>
<path d="M 910.511 221.591 L 911.932 221.591"/>
<path d="M 917.614 225.852 L 920.455 225.852"/>
<path d="M 799.716 230.114 L 801.136 230.114"/>
<path d="M 781.250 234.375 L 782.670 234.375"/>
<path d="M 801.136 234.375 L 802.557 234.375"/>
<path d="M 828.125 234.375 L 829.545 234.375"/>
<path d="M 802.557 238.636 L 805.398 238.636"/>
<path d="M 811.080 238.636 L 812.500 238.636"/>
<path d="M 815.341 238.636 L 816.761 238.636"/>
<path d="M 869.318 238.636 L 870.739 238.636"/>
<path d="M 889.205 238.636 L 890.625 238.636"/>
<path d="M 916.193 238.636 L 917.614 238.636"/>
<path d="M 950.284 238.636 L 951.705 238.636"/>
<path d="M 769.886 242.898 L 771.307 242.898"/>
<path d="M 330.966 247.159 L 332.386 247.159"/>
<path d="M 934.659 247.159 L 938.920 247.159"/>
<path d="M 330.966 251.420 L 332.386 251.420"/>
<path d="M 812.500 251.420 L 815.341 251.420"/>
<path d="M 907.670 251.420 L 909.091 251.420"/>
<path d="M 822.443 255.682 L 823.864 255.682"/>
<path d="M 958.807 255.682 L 961.648 255.682"/>
<path d="M 823.864 259.943 L 825.284 259.943"/>
<path d="M 826.705 259.943 L 828.125 259.943"/>
<path d="M 869.318 259.943 L 870.739 259.943"/>
<path d="M 818.182 264.205 L 819.602 264.205"/>
<path d="M 784.091 268.466 L 785.511 268.466"/>
<path d="M 825.284 268.466 L 830.966 268.466"/>
<path d="M 886.364 268.466 L 889.205 268.466"/>
<path d="M 325.284 272.727 L 326.705 272.727"/>
<path d="M 880.682 272.727 L 882.102 272.727"/>
<path d="M 923.295 272.727 L 924.716 272.727"/>
<path d="M 934.659 272.727 L 936.080 272.727"/>
<path d="M 794.034 276.989 L 795.455 276.989"/>
<path d="M 828.125 276.989 L 829.545 276.989"/>
<path d="M 845.170 281.250 L 846.591 281.250"/>
<path d="M 890.625 281.250 L 892.045 281.250"/>
<path d="M 828.125 285.511 L 829.545 285.511"/>
<path d="M 830.966 285.511 L 832.386 285.511"/>
<path d="M 990.057 285.511 L 992.898 285.511"/>
<path d="M 830.966 289.773 L 832.386 289.773"/>
<path d="M 835.227 289.773 L 836.648 289.773"/>
<path d="M 857.955 289.773 L 859.375 289.773"/>
<path d="M 955.966 289.773 L 958.807 289.773"/>
<path d="M 806.818 294.034 L 808.239 294.034"/>
<path d="M 819.602 294.034 L 822.443 294.034"/>
<path d="M 961.648 294.034 L 963.068 294.034"/>
<path d="M 819.602 298.295 L 822.443 298.295"/>
<path d="M 960.227 302.557 L 961.648 302.557"/>
<path d="M 826.705 306.818 L 829.545 306.818"/>
<path d="M 832.386 306.818 L 833.807 306.818"/>
<path d="M 967.330 306.818 L 968.750 306.818"/>
<path d="M 822.443 311.080 L 825.284 311.080"/>
<path d="M 826.705 311.080 L 830.966 311.080"/>
<path d="M 315.341 315.341 L 316.761 315.341"/>
<path d="M 832.386 315.341 L 835.227 315.341"/>
<path d="M 843.750 315.341 L 845.170 315.341"/>
<path d="M 852.273 315.341 L 853.693 315.341"/>
<path d="M 855.114 315.341 L 856.534 315.341"/>
<path d="M 954.545 315.341 L 955.966 315.341"/>
<path d="M 957.386 315.341 L 960.227 315.341"/>
<path d="M 971.591 315.341 L 973.011 315.341"/>
<path d="M 990.057 315.341 L 992.898 315.341"/>
<path d="M 823.864 319.602 L 825.284 319.602"/>
<path d="M 828.125 319.602 L 830.966 319.602"/>
<path d="M 963.068 319.602 L 964.489 319.602"/>
<path d="M 970.170 319.602 L 973.011 319.602"/>
<path d="M 991.477 319.602 L 992.898 319.602"/>
<path d="M 288.352 323.864 L 289.773 323.864"/>
<path d="M 296.875 323.864 L 298.295 323.864"/>
<path d="M 828.125 323.864 L 829.545 323.864"/>
<path d="M 832.386 323.864 L 833.807 323.864"/>
<path d="M 963.068 323.864 L 965.909 323.864"/>
<path d="M 825.284 328.125 L 826.705 328.125"/>
<path d="M 829.545 328.125 L 832.386 328.125"/>
<path d="M 914.773 328.125 L 919.034 328.125"/>
<path d="M 960.227 328.125 L 961.648 328.125"/>
<path d="M 828.125 332.386 L 829.545 332.386"/>
<path d="M 838.068 332.386 L 840.909 332.386"/>
<path d="M 100.852 336.648 L 105.114 336.648"/>
<path d="M 139.205 336.648 L 142.045 336.648"/>
<path d="M 230.114 336.648 L 231.534 336.648"/>
<path d="M 264.205 336.648 L 267.045 336.648"/>
<path d="M 836.648 336.648 L 839.489 336.648"/>
<path d="M 951.705 336.648 L 953.125 336.648"/>
<path d="M 992.898 336.648 L 995.739 336.648"/>
<path d="M 86.648 340.909 L 88.068 340.909"/>
<path d="M 116.477 340.909 L 117.898 340.909"/>
<path d="M 224.432 340.909 L 225.852 340.909"/>
<path d="M 978.693 340.909 L 980.114 340.909"/>
<path d="M 981.534 340.909 L 982.955 340.909"/>
<path d="M 123.580 345.170 L 125.000 345.170"/>
<path d="M 156.250 345.170 L 157.670 345.170"/>
<path d="M 184.659 345.170 L 186.080 345.170"/>
<path d="M 218.750 345.170 L 220.170 345.170"/>
<path d="M 828.125 345.170 L 829.545 345.170"/>
<path d="M 836.648 345.170 L 838.068 345.170"/>
<path d="M 857.955 345.170 L 859.375 345.170"/>
<path d="M 974.432 345.170 L 978.693 345.170"/>
<path d="M 203.125 349.432 L 204.545 349.432"/>
<path d="M 832.386 349.432 L 833.807 349.432"/>
<path d="M 836.648 349.432 L 838.068 349.432"/>
<path d="M 967.330 349.432 L 968.750 349.432"/>
<path d="M 833.807 353.693 L 835.227 353.693"/>
<path d="M 931.818 353.693 L 934.659 353.693"/>
<path d="M 943.182 353.693 L 944.602 353.693"/>
<path d="M 828.125 357.955 L 829.545 357.955"/>
<path d="M 833.807 357.955 L 835.227 357.955"/>
<path d="M 838.068 357.955 L 839.489 357.955"/>
<path d="M 879.261 357.955 L 880.682 357.955"/>
<path d="M 954.545 357.955 L 955.966 357.955"/>
<path d="M 819.602 362.216 L 825.284 362.216"/>
<path d="M 828.125 362.216 L 835.227 362.216"/>
<path d="M 818.182 366.477 L 821.023 366.477"/>
<path d="M 924.716 366.477 L 926.136 366.477"/>
<path d="M 55.398 370.739 L 58.239 370.739"/>
<path d="M 63.920 370.739 L 65.341 370.739"/>
<path d="M 812.500 370.739 L 816.761 370.739"/>
<path d="M 818.182 370.739 L 821.023 370.739"/>
<path d="M 811.080 375.000 L 813.920 375.000"/>
<path d="M 815.341 375.000 L 816.761 375.000"/>
<path d="M 836.648 375.000 L 838.068 375.000"/>
<path d="M 842.330 375.000 L 843.750 375.000"/>
<path d="M 863.636 375.000 L 865.057 375.000"/>
<path d="M 968.750 375.000 L 970.170 375.000"/>
<path d="M 808.239 379.261 L 809.659 379.261"/>
<path d="M 812.500 379.261 L 813.920 379.261"/>
<path d="M 822.443 379.261 L 825.284 379.261"/>
<path d="M 830.966 379.261 L 833.807 379.261"/>
<path d="M 845.170 379.261 L 846.591 379.261"/>
<path d="M 884.943 379.261 L 886.364 379.261"/>
<path d="M 802.557 383.523 L 803.977 383.523"/>
<path d="M 805.398 383.523 L 806.818 383.523"/>
<path d="M 813.920 383.523 L 815.341 383.523"/>
<path d="M 816.761 383.523 L 818.182 383.523"/>
<path d="M 825.284 383.523 L 826.705 383.523"/>
<path d="M 830.966 383.523 L 838.068 383.523"/>
<path d="M 845.170 383.523 L 846.591 383.523"/>
<path d="M 802.557 387.784 L 809.659 387.784"/>
<path d="M 823.864 387.784 L 825.284 387.784"/>
<path d="M 838.068 387.784 L 846.591 387.784"/>
<path d="M 884.943 387.784 L 886.364 387.784"/>
<path d="M 802.557 392.045 L 808.239 392.045"/>
<path d="M 815.341 392.045 L 816.761 392.045"/>
<path d="M 818.182 392.045 L 819.602 392.045"/>
<path d="M 822.443 392.045 L 823.864 392.045"/>
<path d="M 825.284 392.045 L 826.705 392.045"/>
<path d="M 852.273 392.045 L 855.114 392.045"/>
<path d="M 933.239 392.045 L 934.659 392.045"/>
<path d="M 803.977 396.307 L 808.239 396.307"/>
<path d="M 883.523 396.307 L 886.364 396.307"/>
<path d="M 951.705 396.307 L 953.125 396.307"/>
<path d="M 809.659 400.568 L 813.920 400.568"/>
<path d="M 815.341 400.568 L 818.182 400.568"/>
<path d="M 833.807 400.568 L 835.227 400.568"/>
<path d="M 836.648 400.568 L 838.068 400.568"/>
<path d="M 923.295 400.568 L 924.716 400.568"/>
<path d="M 806.818 404.830 L 812.500 404.830"/>
<path d="M 822.443 404.830 L 826.705 404.830"/>
<path d="M 886.364 404.830 L 887.784 404.830"/>
<path d="M 920.455 404.830 L 921.875 404.830"/>
<path d="M 947.443 404.830 L 948.864 404.830"/>
<path d="M 813.920 409.091 L 818.182 409.091"/>
<path d="M 825.284 409.091 L 826.705 409.091"/>
<path d="M 835.227 409.091 L 839.489 409.091"/>
<path d="M 845.170 409.091 L 848.011 409.091"/>
<path d="M 856.534 409.091 L 857.955 409.091"/>
<path d="M 808.239 413.352 L 813.920 413.352"/>
<path d="M 818.182 413.352 L 819.602 413.352"/>
<path d="M 821.023 413.352 L 822.443 413.352"/>
<path d="M 839.489 413.352 L 840.909 413.352"/>
<path d="M 869.318 413.352 L 870.739 413.352"/>
<path d="M 11.364 417.614 L 12.784 417.614"/>
<path d="M 811.080 417.614 L 815.341 417.614"/>
<path d="M 971.591 417.614 L 973.011 417.614"/>
<path d="M 11.364 421.875 L 12.784 421.875"/>
<path d="M 813.920 421.875 L 815.341 421.875"/>
<path d="M 853.693 421.875 L 855.114 421.875"/>
<path d="M 937.500 421.875 L 938.920 421.875"/>
<path d="M 948.864 421.875 L 951.705 421.875"/>
<path d="M 953.125 421.875 L 954.545 421.875"/>
<path d="M 11.364 426.136 L 12.784 426.136"/>
<path d="M 859.375 426.136 L 860.795 426.136"/>
<path d="M 958.807 426.136 L 961.648 426.136"/>
<path d="M 967.330 426.136 L 968.750 426.136"/>
<path d="M 12.784 430.398 L 14.205 430.398"/>
<path d="M 823.864 430.398 L 825.284 430.398"/>
<path d="M 829.545 430.398 L 832.386 430.398"/>
<path d="M 845.170 430.398 L 846.591 430.398"/>
<path d="M 857.955 430.398 L 862.216 430.398"/>
<path d="M 867.898 434.659 L 869.318 434.659"/>
<path d="M 964.489 434.659 L 965.909 434.659"/>
<path d="M 22.727 438.920 L 24.148 438.920"/>
<path d="M 815.341 438.920 L 822.443 438.920"/>
<path d="M 823.864 438.920 L 829.545 438.920"/>
<path d="M 863.636 438.920 L 865.057 438.920"/>
<path d="M 954.545 438.920 L 955.966 438.920"/>
<path d="M 958.807 438.920 L 960.227 438.920"/>
<path d="M 961.648 438.920 L 964.489 438.920"/>
<path d="M 965.909 438.920 L 967.330 438.920"/>
<path d="M 990.057 438.920 L 994.318 438.920"/>
<path d="M 995.739 438.920 L 998.580 438.920"/>
<path d="M 25.568 443.182 L 31.250 443.182"/>
<path d="M 816.761 443.182 L 818.182 443.182"/>
<path d="M 819.602 443.182 L 822.443 443.182"/>
<path d="M 823.864 443.182 L 825.284 443.182"/>
<path d="M 852.273 443.182 L 853.693 443.182"/>
<path d="M 866.477 443.182 L 867.898 443.182"/>
<path d="M 947.443 443.182 L 950.284 443.182"/>
<path d="M 982.955 443.182 L 984.375 443.182"/>
<path d="M 29.830 447.443 L 31.250 447.443"/>
<path d="M 815.341 447.443 L 816.761 447.443"/>
<path d="M 822.443 447.443 L 823.864 447.443"/>
<path d="M 833.807 447.443 L 835.227 447.443"/>
<path d="M 860.795 447.443 L 863.636 447.443"/>
<path d="M 943.182 447.443 L 946.023 447.443"/>
<path d="M 960.227 447.443 L 964.489 447.443"/>
<path d="M 816.761 451.705 L 818.182 451.705"/>
<path d="M 822.443 451.705 L 825.284 451.705"/>
<path d="M 835.227 451.705 L 838.068 451.705"/>
<path d="M 852.273 451.705 L 853.693 451.705"/>
<path d="M 855.114 451.705 L 857.955 451.705"/>
<path d="M 930.398 451.705 L 931.818 451.705"/>
<path d="M 947.443 451.705 L 948.864 451.705"/>
<path d="M 961.648 451.705 L 964.489 451.705"/>
<path d="M 971.591 451.705 L 973.011 451.705"/>
<path d="M 978.693 451.705 L 982.955 451.705"/>
<path d="M 991.477 451.705 L 992.898 451.705"/>
<path d="M 825.284 455.966 L 829.545 455.966"/>
<path d="M 906.250 455.966 L 907.670 455.966"/>
<path d="M 909.091 455.966 L 911.932 455.966"/>
<path d="M 923.295 455.966 L 924.716 455.966"/>
<path d="M 930.398 455.966 L 931.818 455.966"/>
<path d="M 944.602 455.966 L 947.443 455.966"/>
<path d="M 958.807 455.966 L 963.068 455.966"/>
<path d="M 964.489 455.966 L 965.909 455.966"/>
<path d="M 975.852 455.966 L 977.273 455.966"/>
<path d="M 980.114 455.966 L 981.534 455.966"/>
<path d="M 998.580 455.966 L 1000.000 455.966"/>
<path d="M 826.705 460.227 L 828.125 460.227"/>
<path d="M 829.545 460.227 L 830.966 460.227"/>
<path d="M 866.477 460.227 L 870.739 460.227"/>
<path d="M 903.409 460.227 L 904.830 460.227"/>
<path d="M 975.852 460.227 L 980.114 460.227"/>
<path d="M 990.057 460.227 L 992.898 460.227"/>
<path d="M 35.511 464.489 L 36.932 464.489"/>
<path d="M 826.705 464.489 L 828.125 464.489"/>
<path d="M 839.489 464.489 L 842.330 464.489"/>
<path d="M 910.511 464.489 L 911.932 464.489"/>
<path d="M 955.966 464.489 L 957.386 464.489"/>
<path d="M 958.807 464.489 L 960.227 464.489"/>
<path d="M 964.489 464.489 L 965.909 464.489"/>
<path d="M 973.011 464.489 L 974.432 464.489"/>
<path d="M 980.114 464.489 L 981.534 464.489"/>
<path d="M 982.955 464.489 L 984.375 464.489"/>
<path d="M 987.216 464.489 L 988.636 464.489"/>
<path d="M 828.125 468.750 L 830.966 468.750"/>
<path d="M 862.216 468.750 L 867.898 468.750"/>
<path d="M 872.159 468.750 L 873.580 468.750"/>
<path d="M 960.227 468.750 L 963.068 468.750"/>
<path d="M 970.170 468.750 L 975.852 468.750"/>
<path d="M 981.534 468.750 L 982.955 468.750"/>
<path d="M 984.375 468.750 L 988.636 468.750"/>
<path d="M 990.057 468.750 L 992.898 468.750"/>
<path d="M 821.023 473.011 L 826.705 473.011"/>
<path d="M 863.636 473.011 L 866.477 473.011"/>
<path d="M 872.159 473.011 L 873.580 473.011"/>
<path d="M 879.261 473.011 L 880.682 473.011"/>
<path d="M 930.398 473.011 L 931.818 473.011"/>
<path d="M 933.239 473.011 L 934.659 473.011"/>
<path d="M 954.545 473.011 L 955.966 473.011"/>
<path d="M 960.227 473.011 L 961.648 473.011"/>
<path d="M 964.489 473.011 L 965.909 473.011"/>
<path d="M 970.170 473.011 L 973.011 473.011"/>
<path d="M 978.693 473.011 L 981.534 473.011"/>
<path d="M 825.284 477.273 L 826.705 477.273"/>
<path d="M 877.841 477.273 L 879.261 477.273"/>
<path d="M 943.182 477.273 L 944.602 477.273"/>
<path d="M 948.864 477.273 L 950.284 477.273"/>
<path d="M 968.750 477.273 L 970.170 477.273"/>
<path d="M 978.693 477.273 L 984.375 477.273"/>
<path d="M 991.477 477.273 L 992.898 477.273"/>
<path d="M 889.205 481.534 L 892.045 481.534"/>
<path d="M 931.818 481.534 L 936.080 481.534"/>
<path d="M 941.761 481.534 L 946.023 481.534"/>
<path d="M 947.443 481.534 L 948.864 481.534"/>
<path d="M 954.545 481.534 L 957.386 481.534"/>
<path d="M 963.068 481.534 L 964.489 481.534"/>
<path d="M 970.170 481.534 L 973.011 481.534"/>
<path d="M 981.534 481.534 L 982.955 481.534"/>
<path d="M 990.057 481.534 L 995.739 481.534"/>
<path d="M 42.614 485.795 L 44.034 485.795"/>
<path d="M 832.386 485.795 L 833.807 485.795"/>
<path d="M 880.682 485.795 L 883.523 485.795"/>
<path d="M 899.148 485.795 L 901.989 485.795"/>
<path d="M 909.091 485.795 L 910.511 485.795"/>
<path d="M 927.557 485.795 L 928.977 485.795"/>
<path d="M 938.920 485.795 L 940.341 485.795"/>
<path d="M 944.602 485.795 L 958.807 485.795"/>
<path d="M 961.648 485.795 L 967.330 485.795"/>
<path d="M 971.591 485.795 L 974.432 485.795"/>
<path d="M 980.114 485.795 L 984.375 485.795"/>
<path d="M 997.159 485.795 L 1000.000 485.795"/>
<path d="M 45.455 490.057 L 46.875 490.057"/>
<path d="M 48.295 490.057 L 49.716 490.057"/>
<path d="M 875.000 490.057 L 876.420 490.057"/>
<path d="M 900.568 490.057 L 903.409 490.057"/>
<path d="M 907.670 490.057 L 910.511 490.057"/>
<path d="M 947.443 490.057 L 948.864 490.057"/>
<path d="M 953.125 490.057 L 954.545 490.057"/>
<path d="M 958.807 490.057 L 960.227 490.057"/>
<path d="M 963.068 490.057 L 964.489 490.057"/>
<path d="M 975.852 490.057 L 978.693 490.057"/>
<path d="M 980.114 490.057 L 981.534 490.057"/>
<path d="M 985.795 490.057 L 987.216 490.057"/>
<path d="M 990.057 490.057 L 995.739 490.057"/>
<path d="M 52.557 494.318 L 53.977 494.318"/>
<path d="M 903.409 494.318 L 904.830 494.318"/>
<path d="M 906.250 494.318 L 907.670 494.318"/>
<path d="M 910.511 494.318 L 914.773 494.318"/>
<path d="M 916.193 494.318 L 919.034 494.318"/>
<path d="M 920.455 494.318 L 921.875 494.318"/>
<path d="M 923.295 494.318 L 927.557 494.318"/>
<path d="M 937.500 494.318 L 941.761 494.318"/>
<path d="M 948.864 494.318 L 951.705 494.318"/>
<path d="M 965.909 494.318 L 968.750 494.318"/>
<path d="M 970.170 494.318 L 971.591 494.318"/>
<path d="M 978.693 494.318 L 981.534 494.318"/>
<path d="M 984.375 494.318 L 988.636 494.318"/>
<path d="M 991.477 494.318 L 994.318 494.318"/>
<path d="M 995.739 494.318 L 997.159 494.318"/>
<path d="M 913.352 498.580 L 923.295 498.580"/>
<path d="M 938.920 498.580 L 944.602 498.580"/>
<path d="M 946.023 498.580 L 947.443 498.580"/>
<path d="M 950.284 498.580 L 951.705 498.580"/>
<path d="M 953.125 498.580 L 954.545 498.580"/>
<path d="M 957.386 498.580 L 958.807 498.580"/>
<path d="M 960.227 498.580 L 965.909 498.580"/>
<path d="M 971.591 498.580 L 975.852 498.580"/>
<path d="M 995.739 498.580 L 997.159 498.580"/>
<path d="M 906.250 502.841 L 907.670 502.841"/>
<path d="M 911.932 502.841 L 914.773 502.841"/>
<path d="M 917.614 502.841 L 919.034 502.841"/>
<path d="M 920.455 502.841 L 921.875 502.841"/>
<path d="M 926.136 502.841 L 928.977 502.841"/>
<path d="M 931.818 502.841 L 933.239 502.841"/>
<path d="M 938.920 502.841 L 946.023 502.841"/>
<path d="M 948.864 502.841 L 950.284 502.841"/>
<path d="M 955.966 502.841 L 958.807 502.841"/>
<path d="M 968.750 502.841 L 970.170 502.841"/>
<path d="M 971.591 502.841 L 974.432 502.841"/>
<path d="M 978.693 502.841 L 981.534 502.841"/>
<path d="M 985.795 502.841 L 990.057 502.841"/>
<path d="M 995.739 502.841 L 997.159 502.841"/>
<path d="M 867.898 507.102 L 873.580 507.102"/>
<path d="M 916.193 507.102 L 921.875 507.102"/>
<path d="M 931.818 507.102 L 933.239 507.102"/>
<path d="M 938.920 507.102 L 941.761 507.102"/>
<path d="M 948.864 507.102 L 950.284 507.102"/>
<path d="M 981.534 507.102 L 984.375 507.102"/>
<path d="M 997.159 507.102 L 998.580 507.102"/>
<path d="M 916.193 511.364 L 917.614 511.364"/>
<path d="M 919.034 511.364 L 920.455 511.364"/>
<path d="M 924.716 511.364 L 927.557 511.364"/>
<path d="M 931.818 511.364 L 938.920 511.364"/>
<path d="M 943.182 511.364 L 944.602 511.364"/>
<path d="M 950.284 511.364 L 953.125 511.364"/>
<path d="M 963.068 511.364 L 964.489 511.364"/>
<path d="M 971.591 511.364 L 975.852 511.364"/>
<path d="M 977.273 511.364 L 978.693 511.364"/>
<path d="M 995.739 511.364 L 997.159 511.364"/>
<path d="M 923.295 515.625 L 924.716 515.625"/>
<path d="M 931.818 515.625 L 933.239 515.625"/>
<path d="M 965.909 515.625 L 968.750 515.625"/>
<path d="M 974.432 515.625 L 975.852 515.625"/>
<path d="M 977.273 515.625 L 980.114 515.625"/>
<path d="M 995.739 515.625 L 997.159 515.625"/>
<path d="M 61.080 519.886 L 62.500 519.886"/>
<path d="M 924.716 519.886 L 926.136 519.886"/>
<path d="M 930.398 519.886 L 931.818 519.886"/>
<path d="M 943.182 519.886 L 950.284 519.886"/>
<path d="M 970.170 519.886 L 971.591 519.886"/>
<path d="M 973.011 519.886 L 974.432 519.886"/>
<path d="M 975.852 519.886 L 977.273 519.886"/>
<path d="M 982.955 519.886 L 984.375 519.886"/>
<path d="M 988.636 519.886 L 992.898 519.886"/>
<path d="M 59.659 524.148 L 61.080 524.148"/>
<path d="M 62.500 524.148 L 63.920 524.148"/>
<path d="M 930.398 524.148 L 931.818 524.148"/>
<path d="M 937.500 524.148 L 938.920 524.148"/>
<path d="M 961.648 524.148 L 963.068 524.148"/>
<path d="M 973.011 524.148 L 974.432 524.148"/>
<path d="M 982.955 524.148 L 984.375 524.148"/>
<path d="M 997.159 524.148 L 998.580 524.148"/>
<path d="M 62.500 528.409 L 65.341 528.409"/>
<path d="M 927.557 528.409 L 931.818 528.409"/>
<path d="M 937.500 528.409 L 938.920 528.409"/>
<path d="M 944.602 528.409 L 946.023 528.409"/>
<path d="M 963.068 528.409 L 965.909 528.409"/>
<path d="M 931.818 532.670 L 936.080 532.670"/>
<path d="M 938.920 532.670 L 940.341 532.670"/>
<path d="M 944.602 532.670 L 946.023 532.670"/>
<path d="M 995.739 532.670 L 997.159 532.670"/>
<path d="M 65.341 536.932 L 66.761 536.932"/>
<path d="M 927.557 536.932 L 928.977 536.932"/>
<path d="M 930.398 536.932 L 934.659 536.932"/>
<path d="M 934.659 541.193 L 936.080 541.193"/>
<path d="M 72.443 545.455 L 73.864 545.455"/>
<path d="M 936.080 545.455 L 941.761 545.455"/>
<path d="M 947.443 545.455 L 948.864 545.455"/>
<path d="M 964.489 545.455 L 967.330 545.455"/>
<path d="M 968.750 545.455 L 971.591 545.455"/>
<path d="M 73.864 549.716 L 78.125 549.716"/>
<path d="M 919.034 549.716 L 924.716 549.716"/>
<path d="M 931.818 549.716 L 934.659 549.716"/>
<path d="M 937.500 549.716 L 941.761 549.716"/>
<path d="M 988.636 549.716 L 990.057 549.716"/>
<path d="M 992.898 549.716 L 997.159 549.716"/>
<path d="M 76.705 553.977 L 78.125 553.977"/>
<path d="M 934.659 553.977 L 943.182 553.977"/>
<path d="M 950.284 553.977 L 953.125 553.977"/>
<path d="M 75.284 558.239 L 76.705 558.239"/>
<path d="M 934.659 558.239 L 936.080 558.239"/>
<path d="M 937.500 558.239 L 938.920 558.239"/>
<path d="M 940.341 562.500 L 941.761 562.500"/>
<path d="M 946.023 562.500 L 947.443 562.500"/>
<path d="M 957.386 562.500 L 958.807 562.500"/>
<path d="M 941.761 566.761 L 946.023 566.761"/>
<path d="M 950.284 566.761 L 951.705 566.761"/>
<path d="M 941.761 571.023 L 944.602 571.023"/>
<path d="M 947.443 571.023 L 948.864 571.023"/>
<path d="M 992.898 571.023 L 994.318 571.023"/>
<path d="M 941.761 575.284 L 946.023 575.284"/>
<path d="M 951.705 575.284 L 953.125 575.284"/>
<path d="M 957.386 575.284 L 960.227 575.284"/>
<path d="M 963.068 575.284 L 964.489 575.284"/>
<path d="M 978.693 575.284 L 980.114 575.284"/>
<path d="M 938.920 579.545 L 940.341 579.545"/>
<path d="M 941.761 579.545 L 948.864 579.545"/>
<path d="M 958.807 579.545 L 960.227 579.545"/>
<path d="M 938.920 583.807 L 941.761 583.807"/>
<path d="M 943.182 583.807 L 946.023 583.807"/>
<path d="M 998.580 583.807 L 1000.000 583.807"/>
<path d="M 948.864 588.068 L 950.284 588.068"/>
<path d="M 977.273 588.068 L 978.693 588.068"/>
<path d="M 947.443 592.330 L 948.864 592.330"/>
<path d="M 951.705 592.330 L 955.966 592.330"/>
<path d="M 76.705 596.591 L 78.125 596.591"/>
<path d="M 954.545 600.852 L 957.386 600.852"/>
<path d="M 968.750 600.852 L 971.591 600.852"/>
<path d="M 950.284 605.114 L 951.705 605.114"/>
<path d="M 954.545 605.114 L 955.966 605.114"/>
<path d="M 960.227 605.114 L 965.909 605.114"/>
<path d="M 954.545 609.375 L 957.386 609.375"/>
<path d="M 958.807 609.375 L 960.227 609.375"/>
<path d="M 954.545 613.636 L 958.807 613.636"/>
<path d="M 954.545 617.898 L 955.966 617.898"/>
<path d="M 965.909 617.898 L 971.591 617.898"/>
<path d="M 958.807 626.420 L 964.489 626.420"/>
<path d="M 961.648 630.682 L 963.068 630.682"/>
<path d="M 965.909 630.682 L 967.330 630.682"/>
<path d="M 998.580 630.682 L 1000.000 630.682"/>
<path d="M 960.227 634.943 L 964.489 634.943"/>
<path d="M 992.898 634.943 L 995.739 634.943"/>
<path d="M 997.159 634.943 L 998.580 634.943"/>
<path d="M 75.284 647.727 L 76.705 647.727"/>
<path d="M 990.057 660.511 L 992.898 660.511"/>
<path d="M 995.739 660.511 L 1000.000 660.511"/>
<path d="M 72.443 664.773 L 73.864 664.773"/>
<path d="M 990.057 664.773 L 994.318 664.773"/>
<path d="M 997.159 664.773 L 998.580 664.773"/>
<path d="M 990.057 669.034 L 992.898 669.034"/>
<path d="M 990.057 673.295 L 998.580 673.295"/>
<path d="M 977.273 677.557 L 978.693 677.557"/>
<path d="M 982.955 677.557 L 988.636 677.557"/>
<path d="M 981.534 681.818 L 982.955 681.818"/>
<path d="M 980.114 686.080 L 981.534 686.080"/>
<path d="M 981.534 690.341 L 982.955 690.341"/>
<path d="M 973.011 694.602 L 975.852 694.602"/>
<path d="M 985.795 694.602 L 988.636 694.602"/>
<path d="M 971.591 698.864 L 973.011 698.864"/>
<path d="M 985.795 698.864 L 987.216 698.864"/>
<path d="M 988.636 698.864 L 990.057 698.864"/>
<path d="M 957.386 703.125 L 964.489 703.125"/>
<path d="M 61.080 707.386 L 65.341 707.386"/>
<path d="M 953.125 707.386 L 958.807 707.386"/>
<path d="M 960.227 707.386 L 961.648 707.386"/>
<path d="M 62.500 711.648 L 63.920 711.648"/>
<path d="M 65.341 711.648 L 68.182 711.648"/>
<path d="M 941.761 711.648 L 948.864 711.648"/>
<path d="M 950.284 711.648 L 951.705 711.648"/>
<path d="M 936.080 715.909 L 941.761 715.909"/>
<path d="M 946.023 715.909 L 948.864 715.909"/>
<path d="M 68.182 720.170 L 69.602 720.170"/>
<path d="M 366.477 720.170 L 372.159 720.170"/>
<path d="M 373.580 720.170 L 375.000 720.170"/>
<path d="M 379.261 720.170 L 382.102 720.170"/>
<path d="M 921.875 720.170 L 927.557 720.170"/>
<path d="M 931.818 720.170 L 933.239 720.170"/>
<path d="M 73.864 724.432 L 76.705 724.432"/>
<path d="M 234.375 724.432 L 235.795 724.432"/>
<path d="M 240.057 724.432 L 242.898 724.432"/>
<path d="M 348.011 724.432 L 349.432 724.432"/>
<path d="M 387.784 724.432 L 389.205 724.432"/>
<path d="M 919.034 724.432 L 921.875 724.432"/>
<path d="M 927.557 724.432 L 930.398 724.432"/>
<path d="M 994.318 724.432 L 995.739 724.432"/>
<path d="M 79.545 728.693 L 80.966 728.693"/>
<path d="M 82.386 728.693 L 85.227 728.693"/>
<path d="M 227.273 728.693 L 230.114 728.693"/>
<path d="M 255.682 728.693 L 257.102 728.693"/>
<path d="M 343.750 728.693 L 345.170 728.693"/>
<path d="M 903.409 728.693 L 906.250 728.693"/>
<path d="M 909.091 728.693 L 910.511 728.693"/>
<path d="M 105.114 732.955 L 106.534 732.955"/>
<path d="M 896.307 732.955 L 899.148 732.955"/>
<path d="M 113.636 737.216 L 115.057 737.216"/>
<path d="M 274.148 737.216 L 275.568 737.216"/>
<path d="M 323.864 737.216 L 325.284 737.216"/>
<path d="M 328.125 737.216 L 329.545 737.216"/>
<path d="M 394.886 737.216 L 396.307 737.216"/>
<path d="M 884.943 737.216 L 889.205 737.216"/>
<path d="M 122.159 741.477 L 123.580 741.477"/>
<path d="M 289.773 741.477 L 291.193 741.477"/>
<path d="M 303.977 741.477 L 305.398 741.477"/>
<path d="M 875.000 741.477 L 876.420 741.477"/>
<path d="M 224.432 745.739 L 225.852 745.739"/>
<path d="M 843.750 750.000 L 845.170 750.000"/>
<path d="M 830.966 754.261 L 842.330 754.261"/>
<path d="M 893.466 754.261 L 896.307 754.261"/>
<path d="M 998.580 754.261 L 1000.000 754.261"/>
<path d="M 130.682 758.523 L 132.102 758.523"/>
<path d="M 220.170 758.523 L 223.011 758.523"/>
<path d="M 403.409 758.523 L 404.830 758.523"/>
<path d="M 823.864 758.523 L 830.966 758.523"/>
<path d="M 132.102 762.784 L 133.523 762.784"/>
<path d="M 217.330 762.784 L 220.170 762.784"/>
<path d="M 819.602 762.784 L 822.443 762.784"/>
<path d="M 836.648 762.784 L 839.489 762.784"/>
<path d="M 842.330 762.784 L 843.750 762.784"/>
<path d="M 816.761 767.045 L 818.182 767.045"/>
<path d="M 205.966 771.307 L 208.807 771.307"/>
<path d="M 414.773 771.307 L 416.193 771.307"/>
<path d="M 799.716 771.307 L 802.557 771.307"/>
<path d="M 803.977 771.307 L 805.398 771.307"/>
<path d="M 985.795 771.307 L 988.636 771.307"/>
<path d="M 991.477 771.307 L 992.898 771.307"/>
<path d="M 198.864 775.568 L 200.284 775.568"/>
<path d="M 795.455 775.568 L 801.136 775.568"/>
<path d="M 803.977 775.568 L 805.398 775.568"/>
<path d="M 808.239 775.568 L 809.659 775.568"/>
<path d="M 884.943 775.568 L 886.364 775.568"/>
<path d="M 89.489 779.830 L 90.909 779.830"/>
<path d="M 142.045 779.830 L 143.466 779.830"/>
<path d="M 796.875 779.830 L 801.136 779.830"/>
<path d="M 991.477 779.830 L 992.898 779.830"/>
<path d="M 180.398 784.091 L 181.818 784.091"/>
<path d="M 436.080 784.091 L 440.341 784.091"/>
<path d="M 792.614 784.091 L 795.455 784.091"/>
<path d="M 796.875 784.091 L 799.716 784.091"/>
<path d="M 802.557 784.091 L 808.239 784.091"/>
<path d="M 977.273 784.091 L 978.693 784.091"/>
<path d="M 458.807 788.352 L 460.227 788.352"/>
<path d="M 792.614 788.352 L 801.136 788.352"/>
<path d="M 14.205 792.614 L 15.625 792.614"/>
<path d="M 791.193 792.614 L 792.614 792.614"/>
<path d="M 795.455 792.614 L 798.295 792.614"/>
<path d="M 492.898 796.875 L 494.318 796.875"/>
<path d="M 789.773 796.875 L 796.875 796.875"/>
<path d="M 798.295 796.875 L 801.136 796.875"/>
<path d="M 899.148 796.875 L 900.568 796.875"/>
<path d="M 910.511 796.875 L 911.932 796.875"/>
<path d="M 971.591 796.875 L 973.011 796.875"/>
<path d="M 514.205 801.136 L 515.625 801.136"/>
<path d="M 518.466 801.136 L 519.886 801.136"/>
<path d="M 524.148 801.136 L 529.830 801.136"/>
<path d="M 534.091 801.136 L 535.511 801.136"/>
<path d="M 788.352 801.136 L 792.614 801.136"/>
<path d="M 998.580 801.136 L 1000.000 801.136"/>
<path d="M 569.602 805.398 L 572.443 805.398"/>
<path d="M 789.773 805.398 L 791.193 805.398"/>
<path d="M 795.455 805.398 L 796.875 805.398"/>
<path d="M 978.693 805.398 L 980.114 805.398"/>
<path d="M 589.489 809.659 L 590.909 809.659"/>
<path d="M 784.091 809.659 L 785.511 809.659"/>
<path d="M 794.034 809.659 L 796.875 809.659"/>
<path d="M 978.693 809.659 L 980.114 809.659"/>
<path d="M 984.375 809.659 L 985.795 809.659"/>
<path d="M 779.830 813.920 L 785.511 813.920"/>
<path d="M 786.932 813.920 L 788.352 813.920"/>
<path d="M 909.091 813.920 L 910.511 813.920"/>
<path d="M 985.795 813.920 L 987.216 813.920"/>
<path d="M 988.636 813.920 L 990.057 813.920"/>
<path d="M 615.057 818.182 L 619.318 818.182"/>
<path d="M 784.091 818.182 L 785.511 818.182"/>
<path d="M 896.307 818.182 L 897.727 818.182"/>
<path d="M 987.216 818.182 L 988.636 818.182"/>
<path d="M 990.057 818.182 L 991.477 818.182"/>
<path d="M 779.830 822.443 L 782.670 822.443"/>
<path d="M 785.511 822.443 L 791.193 822.443"/>
<path d="M 794.034 822.443 L 798.295 822.443"/>
<path d="M 782.670 826.705 L 784.091 826.705"/>
<path d="M 786.932 826.705 L 788.352 826.705"/>
<path d="M 794.034 826.705 L 795.455 826.705"/>
<path d="M 921.875 826.705 L 923.295 826.705"/>
<path d="M 981.534 826.705 L 982.955 826.705"/>
<path d="M 640.625 830.966 L 642.045 830.966"/>
<path d="M 779.830 830.966 L 786.932 830.966"/>
<path d="M 795.455 830.966 L 799.716 830.966"/>
<path d="M 801.136 830.966 L 802.557 830.966"/>
<path d="M 51.136 835.227 L 55.398 835.227"/>
<path d="M 99.432 835.227 L 102.273 835.227"/>
<path d="M 107.955 835.227 L 109.375 835.227"/>
<path d="M 643.466 835.227 L 644.886 835.227"/>
<path d="M 781.250 835.227 L 784.091 835.227"/>
<path d="M 786.932 835.227 L 788.352 835.227"/>
<path d="M 791.193 835.227 L 792.614 835.227"/>
<path d="M 803.977 835.227 L 805.398 835.227"/>
<path d="M 644.886 839.489 L 646.307 839.489"/>
<path d="M 779.830 839.489 L 785.511 839.489"/>
<path d="M 791.193 839.489 L 794.034 839.489"/>
<path d="M 795.455 839.489 L 798.295 839.489"/>
<path d="M 801.136 839.489 L 803.977 839.489"/>
<path d="M 869.318 839.489 L 870.739 839.489"/>
<path d="M 946.023 839.489 L 947.443 839.489"/>
<path d="M 948.864 839.489 L 953.125 839.489"/>
<path d="M 644.886 843.750 L 646.307 843.750"/>
<path d="M 799.716 843.750 L 801.136 843.750"/>
<path d="M 802.557 843.750 L 803.977 843.750"/>
<path d="M 806.818 843.750 L 809.659 843.750"/>
<path d="M 832.386 843.750 L 835.227 843.750"/>
<path d="M 779.830 848.011 L 781.250 848.011"/>
<path d="M 784.091 848.011 L 785.511 848.011"/>
<path d="M 789.773 848.011 L 792.614 848.011"/>
<path d="M 798.295 848.011 L 801.136 848.011"/>
<path d="M 916.193 848.011 L 917.614 848.011"/>
<path d="M 920.455 848.011 L 921.875 848.011"/>
<path d="M 649.148 852.273 L 650.568 852.273"/>
<path d="M 794.034 852.273 L 796.875 852.273"/>
<path d="M 947.443 852.273 L 950.284 852.273"/>
<path d="M 789.773 856.534 L 792.614 856.534"/>
<path d="M 796.875 856.534 L 799.716 856.534"/>
<path d="M 788.352 860.795 L 796.875 860.795"/>
<path d="M 798.295 860.795 L 799.716 860.795"/>
<path d="M 921.875 860.795 L 924.716 860.795"/>
<path d="M 792.614 865.057 L 798.295 865.057"/>
<path d="M 870.739 865.057 L 872.159 865.057"/>
<path d="M 946.023 865.057 L 948.864 865.057"/>
<path d="M 784.091 869.318 L 788.352 869.318"/>
<path d="M 789.773 869.318 L 791.193 869.318"/>
<path d="M 803.977 869.318 L 806.818 869.318"/>
<path d="M 873.580 869.318 L 876.420 869.318"/>
<path d="M 936.080 869.318 L 937.500 869.318"/>
<path d="M 950.284 869.318 L 951.705 869.318"/>
<path d="M 12.784 873.580 L 15.625 873.580"/>
<path d="M 781.250 873.580 L 782.670 873.580"/>
<path d="M 784.091 873.580 L 785.511 873.580"/>
<path d="M 786.932 873.580 L 789.773 873.580"/>
<path d="M 792.614 873.580 L 795.455 873.580"/>
<path d="M 941.761 873.580 L 943.182 873.580"/>
<path d="M 946.023 873.580 L 947.443 873.580"/>
<path d="M 965.909 873.580 L 973.011 873.580"/>
<path d="M 44.034 877.841 L 45.455 877.841"/>
<path d="M 656.250 877.841 L 657.670 877.841"/>
<path d="M 788.352 877.841 L 791.193 877.841"/>
<path d="M 792.614 877.841 L 795.455 877.841"/>
<path d="M 872.159 877.841 L 873.580 877.841"/>
<path d="M 957.386 877.841 L 958.807 877.841"/>
<path d="M 42.614 882.102 L 44.034 882.102"/>
<path d="M 654.830 882.102 L 656.250 882.102"/>
<path d="M 789.773 882.102 L 795.455 882.102"/>
<path d="M 930.398 882.102 L 931.818 882.102"/>
<path d="M 960.227 882.102 L 964.489 882.102"/>
<path d="M 970.170 882.102 L 971.591 882.102"/>
<path d="M 992.898 882.102 L 997.159 882.102"/>
<path d="M 786.932 886.364 L 789.773 886.364"/>
<path d="M 792.614 886.364 L 794.034 886.364"/>
<path d="M 809.659 886.364 L 812.500 886.364"/>
<path d="M 924.716 886.364 L 927.557 886.364"/>
<path d="M 51.136 890.625 L 55.398 890.625"/>
<path d="M 782.670 890.625 L 785.511 890.625"/>
<path d="M 788.352 890.625 L 789.773 890.625"/>
<path d="M 792.614 890.625 L 794.034 890.625"/>
<path d="M 805.398 890.625 L 806.818 890.625"/>
<path d="M 78.125 894.886 L 79.545 894.886"/>
<path d="M 784.091 894.886 L 788.352 894.886"/>
<path d="M 792.614 894.886 L 794.034 894.886"/>
<path d="M 801.136 894.886 L 802.557 894.886"/>
<path d="M 880.682 894.886 L 883.523 894.886"/>
<path d="M 917.614 894.886 L 920.455 894.886"/>
<path d="M 931.818 894.886 L 934.659 894.886"/>
<path d="M 948.864 894.886 L 950.284 894.886"/>
<path d="M 951.705 894.886 L 953.125 894.886"/>
<path d="M 964.489 894.886 L 973.011 894.886"/>
<path d="M 12.784 899.148 L 14.205 899.148"/>
<path d="M 146.307 899.148 L 147.727 899.148"/>
<path d="M 779.830 899.148 L 781.250 899.148"/>
<path d="M 784.091 899.148 L 785.511 899.148"/>
<path d="M 946.023 899.148 L 951.705 899.148"/>
<path d="M 954.545 899.148 L 958.807 899.148"/>
<path d="M 963.068 899.148 L 964.489 899.148"/>
<path d="M 965.909 899.148 L 968.750 899.148"/>
<path d="M 1.420 903.409 L 2.841 903.409"/>
<path d="M 69.602 903.409 L 71.023 903.409"/>
<path d="M 187.500 903.409 L 190.341 903.409"/>
<path d="M 782.670 903.409 L 785.511 903.409"/>
<path d="M 917.614 903.409 L 919.034 903.409"/>
<path d="M 920.455 903.409 L 921.875 903.409"/>
<path d="M 953.125 903.409 L 958.807 903.409"/>
<path d="M 960.227 903.409 L 964.489 903.409"/>
<path d="M 893.466 907.670 L 894.886 907.670"/>
<path d="M 931.818 907.670 L 934.659 907.670"/>
<path d="M 947.443 907.670 L 948.864 907.670"/>
<path d="M 951.705 907.670 L 954.545 907.670"/>
<path d="M 7.102 911.932 L 9.943 911.932"/>
<path d="M 58.239 911.932 L 59.659 911.932"/>
<path d="M 663.352 911.932 L 664.773 911.932"/>
<path d="M 772.727 911.932 L 774.148 911.932"/>
<path d="M 890.625 911.932 L 893.466 911.932"/>
<path d="M 917.614 911.932 L 921.875 911.932"/>
<path d="M 927.557 911.932 L 928.977 911.932"/>
<path d="M 771.307 916.193 L 772.727 916.193"/>
<path d="M 887.784 916.193 L 890.625 916.193"/>
<path d="M 897.727 916.193 L 900.568 916.193"/>
<path d="M 910.511 916.193 L 911.932 916.193"/>
<path d="M 916.193 916.193 L 917.614 916.193"/>
<path d="M 920.455 916.193 L 921.875 916.193"/>
<path d="M 938.920 916.193 L 943.182 916.193"/>
<path d="M 12.784 920.455 L 15.625 920.455"/>
<path d="M 669.034 920.455 L 670.455 920.455"/>
<path d="M 765.625 920.455 L 767.045 920.455"/>
<path d="M 830.966 920.455 L 835.227 920.455"/>
<path d="M 860.795 920.455 L 862.216 920.455"/>
<path d="M 879.261 920.455 L 880.682 920.455"/>
<path d="M 900.568 920.455 L 901.989 920.455"/>
<path d="M 910.511 920.455 L 911.932 920.455"/>
<path d="M 916.193 920.455 L 917.614 920.455"/>
<path d="M 923.295 920.455 L 934.659 920.455"/>
<path d="M 936.080 920.455 L 937.500 920.455"/>
<path d="M 944.602 920.455 L 948.864 920.455"/>
<path d="M 955.966 920.455 L 958.807 920.455"/>
<path d="M 759.943 924.716 L 767.045 924.716"/>
<path d="M 873.580 924.716 L 876.420 924.716"/>
<path d="M 883.523 924.716 L 887.784 924.716"/>
<path d="M 909.091 924.716 L 910.511 924.716"/>
<path d="M 913.352 924.716 L 914.773 924.716"/>
<path d="M 926.136 924.716 L 927.557 924.716"/>
<path d="M 934.659 924.716 L 937.500 924.716"/>
<path d="M 941.761 924.716 L 948.864 924.716"/>
<path d="M 678.977 928.977 L 680.398 928.977"/>
<path d="M 752.841 928.977 L 757.102 928.977"/>
<path d="M 856.534 928.977 L 859.375 928.977"/>
<path d="M 867.898 928.977 L 869.318 928.977"/>
<path d="M 872.159 928.977 L 875.000 928.977"/>
<path d="M 887.784 928.977 L 896.307 928.977"/>
<path d="M 907.670 928.977 L 909.091 928.977"/>
<path d="M 934.659 928.977 L 938.920 928.977"/>
<path d="M 941.761 928.977 L 943.182 928.977"/>
<path d="M 52.557 933.239 L 53.977 933.239"/>
<path d="M 686.080 933.239 L 687.500 933.239"/>
<path d="M 849.432 933.239 L 852.273 933.239"/>
<path d="M 853.693 933.239 L 857.955 933.239"/>
<path d="M 869.318 933.239 L 872.159 933.239"/>
<path d="M 879.261 933.239 L 880.682 933.239"/>
<path d="M 894.886 933.239 L 896.307 933.239"/>
<path d="M 921.875 933.239 L 938.920 933.239"/>
<path d="M 940.341 933.239 L 946.023 933.239"/>
<path d="M 947.443 933.239 L 948.864 933.239"/>
<path d="M 696.023 937.500 L 700.284 937.500"/>
<path d="M 732.955 937.500 L 735.795 937.500"/>
<path d="M 828.125 937.500 L 830.966 937.500"/>
<path d="M 832.386 937.500 L 833.807 937.500"/>
<path d="M 869.318 937.500 L 872.159 937.500"/>
<path d="M 876.420 937.500 L 877.841 937.500"/>
<path d="M 882.102 937.500 L 883.523 937.500"/>
<path d="M 890.625 937.500 L 894.886 937.500"/>
<path d="M 896.307 937.500 L 897.727 937.500"/>
<path d="M 68.182 941.761 L 72.443 941.761"/>
<path d="M 78.125 941.761 L 79.545 941.761"/>
<path d="M 83.807 941.761 L 86.648 941.761"/>
<path d="M 707.386 941.761 L 708.807 941.761"/>
<path d="M 812.500 941.761 L 815.341 941.761"/>
<path d="M 816.761 941.761 L 818.182 941.761"/>
<path d="M 860.795 941.761 L 869.318 941.761"/>
<path d="M 873.580 941.761 L 875.000 941.761"/>
<path d="M 887.784 941.761 L 896.307 941.761"/>
</g>
</svg>
