<?xml version="1.0" encoding="UTF-8"?>
<svg xmlns="http://www.w3.org/2000/svg" width="1000.000mm" height="944.602mm" viewBox="0 0 1000.000 944.602">
<metadata>HatchSmith © FIWAtec GmbH</metadata>
<rect x="0" y="0" width="100%" height="100%" fill="white"/>
<g id="16_layer_16" stroke="#FDFFFF" stroke-width="1.000" stroke-linecap="round" stroke-linejoin="round" fill="none">
<path d="M 703.125 93.750 L 707.386 93.750"/>
<path d="M 322.443 302.557 L 323.864 302.557"/>
<path d="M 313.920 319.602 L 315.341 319.602"/>
<path d="M 298.295 323.864 L 301.136 323.864"/>
<path d="M 813.920 438.920 L 815.341 438.920"/>
<path d="M 839.489 490.057 L 840.909 490.057"/>
<path d="M 845.170 494.318 L 849.432 494.318"/>
<path d="M 852.273 498.580 L 856.534 498.580"/>
<path d="M 875.000 511.364 L 876.420 511.364"/>
<path d="M 889.205 519.886 L 890.625 519.886"/>
<path d="M 894.886 524.148 L 896.307 524.148"/>
<path d="M 904.830 532.670 L 906.250 532.670"/>
<path d="M 916.193 545.455 L 917.614 545.455"/>
<path d="M 930.398 566.761 L 931.818 566.761"/>
</g>
</svg>
